STARTFONT 2.1
FONT u8g2_font_wqy6_t_lunar
SIZE 12 75 75
FONTBOUNDINGBOX 10 12 0 -3
STARTPROPERTIES 3
PIXEL_SIZE 12
FONT_ASCENT 9
FONT_DESCENT 3
ENDPROPERTIES
CHARS 132
STARTCHAR U+000A
ENCODING 10
SWIDTH 500 0
DWIDTH 0 0
BBX 0 0 0 0
BITMAP
ENDCHAR
STARTCHAR U+4E00
ENCODING 19968
SWIDTH 500 0
DWIDTH 9 0
BBX 9 1 0 3
BITMAP
FF80
ENDCHAR
STARTCHAR U+4E01
ENCODING 19969
SWIDTH 500 0
DWIDTH 9 0
BBX 9 9 0 -3
BITMAP
FF80
0800
0800
0800
0800
0800
0800
0800
1800
ENDCHAR
STARTCHAR U+4E03
ENCODING 19971
SWIDTH 500 0
DWIDTH 10 0
BBX 10 9 0 -1
BITMAP
0800
0800
08C0
1F00
E800
0800
0800
0840
0F80
ENDCHAR
STARTCHAR U+4E07
ENCODING 19975
SWIDTH 500 0
DWIDTH 10 0
BBX 9 9 0 -3
BITMAP
FF80
1000
1F00
1100
1100
2100
2100
4100
8F00
ENDCHAR
STARTCHAR U+4E09
ENCODING 19977
SWIDTH 500 0
DWIDTH 9 0
BBX 9 9 0 -1
BITMAP
7F80
0000
0000
0000
7F00
0000
0000
0000
FF80
ENDCHAR
STARTCHAR U+4E11
ENCODING 19985
SWIDTH 500 0
DWIDTH 10 0
BBX 10 9 0 -1
BITMAP
7F00
1100
1100
1100
7F00
1100
1100
1100
FFC0
ENDCHAR
STARTCHAR U+4E19
ENCODING 19993
SWIDTH 500 0
DWIDTH 10 0
BBX 10 9 0 -3
BITMAP
FFC0
0800
7F80
4880
4C80
5280
6080
4080
4180
ENDCHAR
STARTCHAR U+4E2D
ENCODING 20013
SWIDTH 500 0
DWIDTH 9 0
BBX 9 10 0 -2
BITMAP
0800
0800
FF80
8880
8880
FF80
0800
0800
0800
0800
ENDCHAR
STARTCHAR U+4E59
ENCODING 20057
SWIDTH 500 0
DWIDTH 9 0
BBX 9 9 0 -1
BITMAP
FE00
0400
0800
1000
3000
2000
4080
8080
7F80
ENDCHAR
STARTCHAR U+4E5D
ENCODING 20061
SWIDTH 500 0
DWIDTH 9 0
BBX 9 9 0 -3
BITMAP
1000
1000
7C00
1400
1400
1400
2400
2480
C780
ENDCHAR
STARTCHAR U+4E8C
ENCODING 20108
SWIDTH 500 0
DWIDTH 9 0
BBX 9 7 0 -1
BITMAP
7F00
0000
0000
0000
0000
0000
FF80
ENDCHAR
STARTCHAR U+4E94
ENCODING 20116
SWIDTH 500 0
DWIDTH 9 0
BBX 9 9 0 -1
BITMAP
FF80
1000
1000
7E00
1200
1200
1200
1200
FF80
ENDCHAR
STARTCHAR U+4EA5
ENCODING 20133
SWIDTH 500 0
DWIDTH 9 0
BBX 9 10 0 -1
BITMAP
0800
FF80
2000
2400
7A00
1200
6C00
9E00
6100
8000
ENDCHAR
STARTCHAR U+4EB2
ENCODING 20146
SWIDTH 500 0
DWIDTH 9 0
BBX 9 10 0 -1
BITMAP
0800
7F80
2200
1400
FF80
0800
7F80
2E00
4900
9800
ENDCHAR
STARTCHAR U+4EBA
ENCODING 20154
SWIDTH 500 0
DWIDTH 9 0
BBX 9 10 0 -2
BITMAP
0800
0800
0800
0800
1800
1400
1400
2200
C180
8000
ENDCHAR
STARTCHAR U+4F11
ENCODING 20241
SWIDTH 500 0
DWIDTH 9 0
BBX 9 9 0 0
BITMAP
2400
4400
5F80
4C00
CE00
5600
5500
6480
4400
ENDCHAR
STARTCHAR U+513F
ENCODING 20799
SWIDTH 500 0
DWIDTH 9 0
BBX 9 10 0 -1
BITMAP
1400
1400
1400
1400
1400
1400
1480
2480
4780
8000
ENDCHAR
STARTCHAR U+5143
ENCODING 20803
SWIDTH 500 0
DWIDTH 9 0
BBX 9 9 0 -3
BITMAP
3F00
0000
FF80
1400
1400
1400
2400
2480
C780
ENDCHAR
STARTCHAR U+5154
ENCODING 20820
SWIDTH 500 0
DWIDTH 10 0
BBX 9 10 1 -2
BITMAP
1000
3C00
4400
FF00
4900
7F00
0E00
1500
2480
C780
ENDCHAR
STARTCHAR U+515A
ENCODING 20826
SWIDTH 500 0
DWIDTH 9 0
BBX 9 9 0 -1
BITMAP
6800
2C00
FF80
BC80
2400
3C00
1800
1880
6F80
ENDCHAR
STARTCHAR U+516B
ENCODING 20843
SWIDTH 500 0
DWIDTH 10 0
BBX 10 9 0 -2
BITMAP
0400
1400
1400
1400
2200
2200
2100
4100
C0C0
ENDCHAR
STARTCHAR U+516D
ENCODING 20845
SWIDTH 500 0
DWIDTH 9 0
BBX 9 9 0 -1
BITMAP
0800
0800
FF80
0000
1400
2200
2100
4100
8080
ENDCHAR
STARTCHAR U+519B
ENCODING 20891
SWIDTH 500 0
DWIDTH 9 0
BBX 9 10 0 -2
BITMAP
FF80
9080
1000
7F00
2800
7F00
0800
FF80
0800
0800
ENDCHAR
STARTCHAR U+51AC
ENCODING 20908
SWIDTH 500 0
DWIDTH 9 0
BBX 9 9 0 -1
BITMAP
1000
1E00
3200
CC00
1E00
E980
0400
1800
0600
ENDCHAR
STARTCHAR U+5206
ENCODING 20998
SWIDTH 500 0
DWIDTH 9 0
BBX 9 10 0 -3
BITMAP
0400
2400
2600
4200
FF80
9200
1200
2200
2200
CE00
ENDCHAR
STARTCHAR U+521D
ENCODING 21021
SWIDTH 500 0
DWIDTH 10 0
BBX 9 10 0 -2
BITMAP
2000
2F80
7480
2480
3480
7480
A480
2880
2880
3380
ENDCHAR
STARTCHAR U+52A8
ENCODING 21160
SWIDTH 500 0
DWIDTH 9 0
BBX 9 9 0 -2
BITMAP
0200
7A00
0780
FA80
2280
5280
5A80
2480
1980
ENDCHAR
STARTCHAR U+52B3
ENCODING 21171
SWIDTH 500 0
DWIDTH 9 0
BBX 9 10 0 -2
BITMAP
1400
FF80
1400
FF80
8880
0800
7F00
0900
1100
6700
ENDCHAR
STARTCHAR U+5341
ENCODING 21313
SWIDTH 500 0
DWIDTH 9 0
BBX 9 9 0 -1
BITMAP
0800
0800
0800
FF80
0800
0800
0800
0800
0800
ENDCHAR
STARTCHAR U+5348
ENCODING 21320
SWIDTH 500 0
DWIDTH 9 0
BBX 9 9 0 -1
BITMAP
2000
7F00
4800
8800
FF80
0800
0800
0800
0800
ENDCHAR
STARTCHAR U+536F
ENCODING 21359
SWIDTH 500 0
DWIDTH 10 0
BBX 9 10 0 -2
BITMAP
0800
7780
4480
5480
5480
7480
5480
2780
C400
0400
ENDCHAR
STARTCHAR U+5468
ENCODING 21608
SWIDTH 500 0
DWIDTH 10 0
BBX 9 9 0 -3
BITMAP
7F80
5E80
4880
7E80
5C80
5480
5C80
4080
8380
ENDCHAR
STARTCHAR U+56DB
ENCODING 22235
SWIDTH 500 0
DWIDTH 10 0
BBX 8 9 1 -2
BITMAP
FF
A9
A9
A9
A9
CF
81
FF
81
ENDCHAR
STARTCHAR U+56FD
ENCODING 22269
SWIDTH 500 0
DWIDTH 9 0
BBX 8 9 0 -2
BITMAP
FF
81
FF
91
BF
95
FF
81
FF
ENDCHAR
STARTCHAR U+5723
ENCODING 22307
SWIDTH 500 0
DWIDTH 9 0
BBX 9 9 0 -1
BITMAP
7E00
2200
1400
0800
3600
C980
7F00
0800
FF80
ENDCHAR
STARTCHAR U+58EC
ENCODING 22764
SWIDTH 500 0
DWIDTH 9 0
BBX 9 9 0 0
BITMAP
0700
7800
0800
0800
FF80
0800
0800
0800
7F80
ENDCHAR
STARTCHAR U+5904
ENCODING 22788
SWIDTH 500 0
DWIDTH 10 0
BBX 9 9 0 -2
BITMAP
2200
2200
3A00
2B00
6A80
7200
3200
3200
CF80
ENDCHAR
STARTCHAR U+590F
ENCODING 22799
SWIDTH 500 0
DWIDTH 10 0
BBX 8 9 1 -2
BITMAP
FF
7E
7E
7E
7E
3E
DC
3C
C3
ENDCHAR
STARTCHAR U+5915
ENCODING 22805
SWIDTH 500 0
DWIDTH 9 0
BBX 9 9 0 -1
BITMAP
0800
0F80
1080
2900
6500
4200
0400
3800
E000
ENDCHAR
STARTCHAR U+591C
ENCODING 22812
SWIDTH 500 0
DWIDTH 9 0
BBX 8 10 0 -1
BITMAP
10
FF
28
4E
5A
F4
4C
4C
53
20
ENDCHAR
STARTCHAR U+5927
ENCODING 22823
SWIDTH 500 0
DWIDTH 9 0
BBX 9 9 0 -1
BITMAP
0800
0800
FF80
0800
0C00
1400
1200
2100
C080
ENDCHAR
STARTCHAR U+5929
ENCODING 22825
SWIDTH 500 0
DWIDTH 9 0
BBX 9 9 0 -2
BITMAP
7F00
0800
0800
FF80
0800
1400
1200
2300
C080
ENDCHAR
STARTCHAR U+5934
ENCODING 22836
SWIDTH 500 0
DWIDTH 9 0
BBX 9 10 0 -2
BITMAP
0800
2800
0800
4800
2800
FF80
0C00
1200
6100
8000
ENDCHAR
STARTCHAR U+5973
ENCODING 22899
SWIDTH 500 0
DWIDTH 10 0
BBX 9 9 0 -2
BITMAP
0800
1000
FF80
1200
2200
3400
0C00
1B00
6100
ENDCHAR
STARTCHAR U+5987
ENCODING 22919
SWIDTH 500 0
DWIDTH 10 0
BBX 9 9 0 -2
BITMAP
2000
2F80
7080
5080
5F80
6080
2080
3F80
C000
ENDCHAR
STARTCHAR U+5B50
ENCODING 23376
SWIDTH 500 0
DWIDTH 10 0
BBX 10 9 0 -3
BITMAP
7F00
0600
0C00
0800
FFC0
0800
0800
0800
1800
ENDCHAR
STARTCHAR U+5B89
ENCODING 23433
SWIDTH 500 0
DWIDTH 10 0
BBX 8 10 1 -1
BITMAP
10
FF
91
20
FF
24
78
0C
33
C1
ENDCHAR
STARTCHAR U+5BB5
ENCODING 23477
SWIDTH 500 0
DWIDTH 9 0
BBX 9 10 0 -1
BITMAP
0800
FF80
C980
2A00
7F00
4100
7F00
7F00
4100
4700
ENDCHAR
STARTCHAR U+5BC5
ENCODING 23493
SWIDTH 500 0
DWIDTH 9 0
BBX 9 9 0 -1
BITMAP
0800
FF80
8080
FE80
7E00
4A00
7E00
7E00
6300
ENDCHAR
STARTCHAR U+5BD2
ENCODING 23506
SWIDTH 500 0
DWIDTH 9 0
BBX 8 10 0 -1
BITMAP
18
FF
A5
7E
7E
FF
32
49
10
0C
ENDCHAR
STARTCHAR U+5C0F
ENCODING 23567
SWIDTH 500 0
DWIDTH 9 0
BBX 9 9 0 -1
BITMAP
0800
0800
2A00
2A00
4900
4900
8880
0800
1800
ENDCHAR
STARTCHAR U+5DF1
ENCODING 24049
SWIDTH 500 0
DWIDTH 9 0
BBX 9 9 0 -2
BITMAP
FE00
0200
0200
FE00
8000
8000
8080
8080
FF00
ENDCHAR
STARTCHAR U+5DF3
ENCODING 24051
SWIDTH 500 0
DWIDTH 9 0
BBX 8 9 0 -2
BITMAP
FE
82
82
FE
80
80
81
81
FF
ENDCHAR
STARTCHAR U+5E08
ENCODING 24072
SWIDTH 500 0
DWIDTH 10 0
BBX 8 9 1 -1
BITMAP
3F
A4
BF
B5
B5
B5
B7
44
84
ENDCHAR
STARTCHAR U+5E73
ENCODING 24179
SWIDTH 500 0
DWIDTH 10 0
BBX 9 9 0 -2
BITMAP
7F80
0900
2A00
2A00
FF80
0800
0800
0800
0800
ENDCHAR
STARTCHAR U+5E74
ENCODING 24180
SWIDTH 500 0
DWIDTH 10 0
BBX 10 9 0 0
BITMAP
2000
3F80
4400
BF80
2400
FFC0
0400
0400
0400
ENDCHAR
STARTCHAR U+5E86
ENCODING 24198
SWIDTH 500 0
DWIDTH 10 0
BBX 9 8 0 0
BITMAP
0400
7F80
4400
7F80
4400
4A00
4900
B180
ENDCHAR
STARTCHAR U+5E9A
ENCODING 24218
SWIDTH 500 0
DWIDTH 9 0
BBX 9 9 0 -1
BITMAP
0800
7F80
7F00
4900
7F80
7F00
4C00
5600
A180
ENDCHAR
STARTCHAR U+5EFA
ENCODING 24314
SWIDTH 500 0
DWIDTH 10 0
BBX 9 9 0 -1
BITMAP
0400
FF00
5F80
5F00
E400
BF00
7F80
6400
9F80
ENDCHAR
STARTCHAR U+5EFF
ENCODING 24319
SWIDTH 500 0
DWIDTH 9 0
BBX 9 10 0 -2
BITMAP
2200
2200
2200
FF80
2200
2200
2200
2200
3E00
2200
ENDCHAR
STARTCHAR U+6069
ENCODING 24681
SWIDTH 500 0
DWIDTH 10 0
BBX 9 9 0 -2
BITMAP
7F00
4900
7F00
5500
7F00
4100
2C00
A180
BF00
ENDCHAR
STARTCHAR U+60C5
ENCODING 24773
SWIDTH 500 0
DWIDTH 9 0
BBX 9 10 0 -1
BITMAP
4400
5F00
4400
EF00
DF80
4F00
4F00
4F00
4900
4B00
ENDCHAR
STARTCHAR U+60CA
ENCODING 24778
SWIDTH 500 0
DWIDTH 9 0
BBX 10 10 -1 -3
BITMAP
0400
2200
3FC0
7F80
E880
2F80
2200
2A80
2A40
3600
ENDCHAR
STARTCHAR U+611A
ENCODING 24858
SWIDTH 500 0
DWIDTH 10 0
BBX 9 9 0 -2
BITMAP
3F00
3F00
3F00
7F80
4A80
5E80
5980
5180
9F00
ENDCHAR
STARTCHAR U+611F
ENCODING 24863
SWIDTH 500 0
DWIDTH 9 0
BBX 9 10 0 -1
BITMAP
0600
7F80
4400
7D00
7E00
7E80
8980
6100
A280
3E00
ENDCHAR
STARTCHAR U+620A
ENCODING 25098
SWIDTH 500 0
DWIDTH 9 0
BBX 9 10 0 -2
BITMAP
0800
0A00
7F80
4800
4A00
4A00
4480
4A80
5180
E080
ENDCHAR
STARTCHAR U+620C
ENCODING 25100
SWIDTH 500 0
DWIDTH 9 0
BBX 9 11 0 -2
BITMAP
0800
0A00
7F80
4800
4B00
7A00
4E00
4400
4E00
B380
8000
ENDCHAR
STARTCHAR U+62AC
ENCODING 25260
SWIDTH 500 0
DWIDTH 9 0
BBX 9 9 0 -2
BITMAP
4000
4400
E800
4900
6680
CF00
4900
4F00
C900
ENDCHAR
STARTCHAR U+6559
ENCODING 25945
SWIDTH 500 0
DWIDTH 9 0
BBX 9 10 0 -3
BITMAP
2000
7C00
2B80
7D00
1500
7D00
D200
7200
1300
3580
ENDCHAR
STARTCHAR U+65E5
ENCODING 26085
SWIDTH 500 0
DWIDTH 9 0
BBX 6 8 1 -2
BITMAP
FC
84
84
FC
84
84
FC
84
ENDCHAR
STARTCHAR U+65E6
ENCODING 26086
SWIDTH 500 0
DWIDTH 10 0
BBX 10 9 0 -1
BITMAP
3F00
2100
2100
3F00
2100
2100
3F00
0000
FFC0
ENDCHAR
STARTCHAR U+660E
ENCODING 26126
SWIDTH 500 0
DWIDTH 9 0
BBX 8 9 0 -3
BITMAP
FF
99
9F
F9
9F
99
F9
11
27
ENDCHAR
STARTCHAR U+661F
ENCODING 26143
SWIDTH 500 0
DWIDTH 8 0
BBX 8 9 0 -1
BITMAP
7E
7E
42
7E
48
7F
FE
08
FF
ENDCHAR
STARTCHAR U+6625
ENCODING 26149
SWIDTH 500 0
DWIDTH 10 0
BBX 9 9 0 -1
BITMAP
0800
7F00
7F00
1000
FF80
3F00
E280
3E00
3E00
ENDCHAR
STARTCHAR U+6691
ENCODING 26257
SWIDTH 500 0
DWIDTH 10 0
BBX 9 9 0 -3
BITMAP
3F00
2100
3F00
3F00
FF80
1F00
7100
DF00
1F00
ENDCHAR
STARTCHAR U+6708
ENCODING 26376
SWIDTH 500 0
DWIDTH 9 0
BBX 7 9 0 -3
BITMAP
3E
22
3E
22
3E
22
22
42
C6
ENDCHAR
STARTCHAR U+6709
ENCODING 26377
SWIDTH 500 0
DWIDTH 10 0
BBX 8 9 1 -1
BITMAP
10
FF
20
3E
FE
A2
3E
22
26
ENDCHAR
STARTCHAR U+671F
ENCODING 26399
SWIDTH 500 0
DWIDTH 9 0
BBX 9 10 0 -2
BITMAP
5380
FA80
5280
7380
7280
5380
FA80
5280
5480
8980
ENDCHAR
STARTCHAR U+672A
ENCODING 26410
SWIDTH 500 0
DWIDTH 9 0
BBX 9 10 0 -2
BITMAP
0800
0800
7F00
0800
FF80
1C00
1C00
6B00
8980
0800
ENDCHAR
STARTCHAR U+6811
ENCODING 26641
SWIDTH 500 0
DWIDTH 9 0
BBX 9 10 0 -2
BITMAP
2100
2D00
2500
7780
2D00
7B00
6F00
BD00
3100
2300
ENDCHAR
STARTCHAR U+690D
ENCODING 26893
SWIDTH 500 0
DWIDTH 10 0
BBX 9 9 1 -1
BITMAP
4400
4F00
FF00
4900
6F00
CF00
C900
4F00
5F80
ENDCHAR
STARTCHAR U+6B63
ENCODING 27491
SWIDTH 500 0
DWIDTH 10 0
BBX 10 9 0 -1
BITMAP
7F80
0400
0400
2400
2780
2400
2400
2400
FFC0
ENDCHAR
STARTCHAR U+6BCD
ENCODING 27597
SWIDTH 500 0
DWIDTH 10 0
BBX 9 9 0 -2
BITMAP
3F00
3900
2900
FF80
4A00
4A00
7F80
0200
0E00
ENDCHAR
STARTCHAR U+6C34
ENCODING 27700
SWIDTH 500 0
DWIDTH 10 0
BBX 9 10 1 -2
BITMAP
0800
0800
0900
EA00
2C00
2C00
4A00
4B00
8980
1800
ENDCHAR
STARTCHAR U+6E05
ENCODING 28165
SWIDTH 500 0
DWIDTH 10 0
BBX 10 10 0 -1
BITMAP
0200
5FC0
2200
8F80
7FC0
2F80
4F80
4F80
4880
0980
ENDCHAR
STARTCHAR U+6EE1
ENCODING 28385
SWIDTH 500 0
DWIDTH 10 0
BBX 10 10 0 -2
BITMAP
0A00
5F80
2A00
9FC0
6A00
3F80
5A80
5D80
5480
1180
ENDCHAR
STARTCHAR U+7236
ENCODING 29238
SWIDTH 500 0
DWIDTH 9 0
BBX 9 10 0 -2
BITMAP
1000
2300
2180
C200
1200
1400
0800
1400
6380
8000
ENDCHAR
STARTCHAR U+725B
ENCODING 29275
SWIDTH 500 0
DWIDTH 9 0
BBX 9 10 0 -1
BITMAP
0800
2800
7F00
4800
8800
FF80
0800
0800
0800
0800
ENDCHAR
STARTCHAR U+72D7
ENCODING 29399
SWIDTH 500 0
DWIDTH 10 0
BBX 9 9 0 -1
BITMAP
B000
6F80
D080
BE80
6A80
AE80
2A80
2080
4180
ENDCHAR
STARTCHAR U+732A
ENCODING 29482
SWIDTH 500 0
DWIDTH 9 0
BBX 9 10 0 -1
BITMAP
A400
7F00
4500
C600
DF80
6F00
B900
2F00
4900
4F00
ENDCHAR
STARTCHAR U+7334
ENCODING 29492
SWIDTH 500 0
DWIDTH 9 0
BBX 9 9 0 -1
BITMAP
AF00
7100
5F80
7780
5A00
DF80
5200
5500
5C80
ENDCHAR
STARTCHAR U+73ED
ENCODING 29677
SWIDTH 500 0
DWIDTH 9 0
BBX 9 10 0 -2
BITMAP
0800
EF80
4A00
5A00
FF00
4A00
4A00
7200
9780
6000
ENDCHAR
STARTCHAR U+7532
ENCODING 30002
SWIDTH 500 0
DWIDTH 9 0
BBX 8 9 0 -3
BITMAP
FF
89
FF
89
FF
89
08
08
08
ENDCHAR
STARTCHAR U+7533
ENCODING 30003
SWIDTH 500 0
DWIDTH 9 0
BBX 7 9 0 0
BITMAP
10
FE
92
FE
92
FE
10
10
10
ENDCHAR
STARTCHAR U+7678
ENCODING 30328
SWIDTH 500 0
DWIDTH 10 0
BBX 9 10 0 -2
BITMAP
0400
7500
5680
2300
7F80
C800
7F80
0C00
3200
4100
ENDCHAR
STARTCHAR U+767D
ENCODING 30333
SWIDTH 500 0
DWIDTH 9 0
BBX 8 9 0 -2
BITMAP
10
10
FF
81
81
FF
81
FF
81
ENDCHAR
STARTCHAR U+79BB
ENCODING 31163
SWIDTH 500 0
DWIDTH 10 0
BBX 10 10 0 -1
BITMAP
0800
FFC0
3200
2D00
3B00
3F00
7F80
5280
4C80
4180
ENDCHAR
STARTCHAR U+79CB
ENCODING 31179
SWIDTH 500 0
DWIDTH 10 0
BBX 8 9 1 0
BITMAP
24
C4
ED
55
66
CA
4A
49
51
ENDCHAR
STARTCHAR U+79CD
ENCODING 31181
SWIDTH 500 0
DWIDTH 9 0
BBX 9 10 0 -1
BITMAP
1200
6200
2200
FF80
2A80
7F80
6A80
A200
2200
2200
ENDCHAR
STARTCHAR U+7ACB
ENCODING 31435
SWIDTH 500 0
DWIDTH 9 0
BBX 9 8 0 0
BITMAP
0800
7F00
2200
2200
2400
1400
0400
FF80
ENDCHAR
STARTCHAR U+7AE5
ENCODING 31461
SWIDTH 500 0
DWIDTH 10 0
BBX 10 9 0 0
BITMAP
0800
7F80
1600
FFC0
3F00
3F00
3F00
7F80
FFC0
ENDCHAR
STARTCHAR U+7AEF
ENCODING 31471
SWIDTH 500 0
DWIDTH 8 0
BBX 8 9 0 -3
BITMAP
44
55
0B
BF
AC
5F
FB
1B
1B
ENDCHAR
STARTCHAR U+7F8A
ENCODING 32650
SWIDTH 500 0
DWIDTH 9 0
BBX 9 9 0 -1
BITMAP
2200
1400
7F80
0800
7F00
0800
FF80
0800
0800
ENDCHAR
STARTCHAR U+814A
ENCODING 33098
SWIDTH 500 0
DWIDTH 10 0
BBX 9 9 0 -2
BITMAP
7F80
5500
7500
5F80
7F80
5F80
5F80
5880
B880
ENDCHAR
STARTCHAR U+81F3
ENCODING 33267
SWIDTH 500 0
DWIDTH 9 0
BBX 9 9 0 -1
BITMAP
FF80
1000
2200
7F00
0800
0800
7F00
0800
FF80
ENDCHAR
STARTCHAR U+8282
ENCODING 33410
SWIDTH 500 0
DWIDTH 10 0
BBX 10 9 0 -2
BITMAP
1200
FFC0
1200
7F00
0900
0900
0900
0B00
0800
ENDCHAR
STARTCHAR U+8292
ENCODING 33426
SWIDTH 500 0
DWIDTH 10 0
BBX 10 9 0 -1
BITMAP
1200
FFC0
1200
0C00
FFC0
2000
2000
2000
3F80
ENDCHAR
STARTCHAR U+864E
ENCODING 34382
SWIDTH 500 0
DWIDTH 9 0
BBX 9 10 0 -3
BITMAP
0800
0F00
7F80
4E00
7800
4F00
5C00
5400
5480
A780
ENDCHAR
STARTCHAR U+86C7
ENCODING 34503
SWIDTH 500 0
DWIDTH 9 0
BBX 9 9 0 -1
BITMAP
2200
2F80
F880
AC00
FD00
2600
3400
C480
0780
ENDCHAR
STARTCHAR U+86F0
ENCODING 34544
SWIDTH 500 0
DWIDTH 9 0
BBX 9 9 0 -2
BITMAP
2400
FF00
6900
AD00
7980
7F00
7F00
0A00
FF00
ENDCHAR
STARTCHAR U+8863
ENCODING 34915
SWIDTH 500 0
DWIDTH 9 0
BBX 9 10 0 -2
BITMAP
1000
0800
FF80
1800
1900
3600
7400
9200
1980
1000
ENDCHAR
STARTCHAR U+8BDE
ENCODING 35806
SWIDTH 500 0
DWIDTH 9 0
BBX 9 9 0 -1
BITMAP
5180
5700
1100
DD80
4D00
6D00
7780
5800
6780
ENDCHAR
STARTCHAR U+8C37
ENCODING 35895
SWIDTH 500 0
DWIDTH 9 0
BBX 9 9 0 -1
BITMAP
1600
2900
C800
1400
2200
FF00
A280
2200
3E00
ENDCHAR
STARTCHAR U+8F9B
ENCODING 36763
SWIDTH 500 0
DWIDTH 9 0
BBX 9 9 0 -1
BITMAP
0800
7F00
2200
1400
FF80
0800
7F00
0800
0800
ENDCHAR
STARTCHAR U+8FB0
ENCODING 36784
SWIDTH 500 0
DWIDTH 10 0
BBX 9 9 1 -2
BITMAP
7F80
4000
7F00
7F80
5500
5600
5200
9980
1000
ENDCHAR
STARTCHAR U+8FD8
ENCODING 36824
SWIDTH 500 0
DWIDTH 9 0
BBX 9 9 0 -1
BITMAP
5F80
4400
0400
CE00
5500
7480
4400
4400
BF00
ENDCHAR
STARTCHAR U+9149
ENCODING 37193
SWIDTH 500 0
DWIDTH 9 0
BBX 9 9 0 -1
BITMAP
FF80
1400
7F00
5500
5500
6700
7F00
4100
7F00
ENDCHAR
STARTCHAR U+91CD
ENCODING 37325
SWIDTH 500 0
DWIDTH 10 0
BBX 9 9 0 -1
BITMAP
0100
FE00
FF80
7F00
7F00
4900
7F00
7F00
FF80
ENDCHAR
STARTCHAR U+95F0
ENCODING 38384
SWIDTH 500 0
DWIDTH 9 0
BBX 8 10 0 -2
BITMAP
40
7F
81
BF
89
BD
89
FF
81
83
ENDCHAR
STARTCHAR U+9633
ENCODING 38451
SWIDTH 500 0
DWIDTH 9 0
BBX 8 9 0 -3
BITMAP
EF
A9
C9
C9
AF
A9
CF
89
89
ENDCHAR
STARTCHAR U+964D
ENCODING 38477
SWIDTH 500 0
DWIDTH 9 0
BBX 9 9 0 -1
BITMAP
EF00
DA00
C400
BF80
BF00
B400
FF00
8400
8400
ENDCHAR
STARTCHAR U+9664
ENCODING 38500
SWIDTH 500 0
DWIDTH 9 0
BBX 8 9 0 -2
BITMAP
E4
CC
D2
AF
A4
AE
B6
95
AC
ENDCHAR
STARTCHAR U+96E8
ENCODING 38632
SWIDTH 500 0
DWIDTH 9 0
BBX 9 9 0 -2
BITMAP
FF80
0800
7F00
4900
4900
4D00
4900
4900
4B00
ENDCHAR
STARTCHAR U+96EA
ENCODING 38634
SWIDTH 500 0
DWIDTH 9 0
BBX 9 9 0 -1
BITMAP
7F00
0800
FF80
EE80
6E00
7E00
0200
7E00
7E00
ENDCHAR
STARTCHAR U+971C
ENCODING 38684
SWIDTH 500 0
DWIDTH 9 0
BBX 9 9 0 -2
BITMAP
7F00
FF80
BE80
3E00
2F00
6F00
7900
7F00
2F00
ENDCHAR
STARTCHAR U+9732
ENCODING 38706
SWIDTH 500 0
DWIDTH 9 0
BBX 9 9 0 -3
BITMAP
FF80
EE80
6F00
EF00
AA00
F600
FF80
C900
CF00
ENDCHAR
STARTCHAR U+9752
ENCODING 38738
SWIDTH 500 0
DWIDTH 10 0
BBX 10 10 0 -3
BITMAP
0800
7F80
7F80
0800
FFC0
3F00
3F00
3F00
2100
2700
ENDCHAR
STARTCHAR U+9A6C
ENCODING 39532
SWIDTH 500 0
DWIDTH 9 0
BBX 9 9 0 -2
BITMAP
3E00
2200
2200
2200
3F80
0080
FE80
0080
0380
ENDCHAR
STARTCHAR U+9E21
ENCODING 40481
SWIDTH 500 0
DWIDTH 9 0
BBX 9 10 0 -1
BITMAP
0200
EF00
2D00
AB00
A900
6B00
4F80
6E80
A080
8180
ENDCHAR
STARTCHAR U+9F20
ENCODING 40736
SWIDTH 500 0
DWIDTH 9 0
BBX 9 10 0 -2
BITMAP
2000
CF00
8100
E700
FF00
9200
B600
D600
9680
D980
ENDCHAR
STARTCHAR U+9F99
ENCODING 40857
SWIDTH 500 0
DWIDTH 9 0
BBX 10 9 0 -2
BITMAP
1400
1200
FF80
1500
1700
1600
2C00
7440
C780
ENDCHAR
ENDFONT
