STARTFONT 2.1
FONT u8g2_font_helvB10_tn
SIZE 11 75 75
FONTBOUNDINGBOX 8 11 0 0
STARTPROPERTIES 3
PIXEL_SIZE 11
FONT_ASCENT 11
FONT_DESCENT 0
ENDPROPERTIES
CHARS 10
STARTCHAR U+0030
ENCODING 48
SWIDTH 500 0
DWIDTH 8 0
BBX 7 11 0 0
BITMAP
38
7C
E6
C6
C6
C6
C6
C6
C6
7C
38
ENDCHAR
STARTCHAR U+0031
ENCODING 49
SWIDTH 500 0
DWIDTH 9 0
BBX 5 11 1 0
BITMAP
18
38
F8
F8
18
18
18
18
18
18
18
ENDCHAR
STARTCHAR U+0032
ENCODING 50
SWIDTH 500 0
DWIDTH 8 0
BBX 7 11 0 0
BITMAP
38
7E
C6
C6
06
0E
1C
30
60
FE
FE
ENDCHAR
STARTCHAR U+0033
ENCODING 51
SWIDTH 500 0
DWIDTH 9 0
BBX 7 11 1 0
BITMAP
7C
FE
C6
06
1C
1E
06
06
C6
FE
7C
ENDCHAR
STARTCHAR U+0034
ENCODING 52
SWIDTH 500 0
DWIDTH 8 0
BBX 7 11 1 0
BITMAP
1C
1C
3C
2C
6C
4C
CC
FE
FE
0C
0C
ENDCHAR
STARTCHAR U+0035
ENCODING 53
SWIDTH 500 0
DWIDTH 9 0
BBX 7 11 1 0
BITMAP
7E
7E
40
C0
FC
FE
06
06
C6
FE
78
ENDCHAR
STARTCHAR U+0036
ENCODING 54
SWIDTH 500 0
DWIDTH 8 0
BBX 7 11 0 0
BITMAP
3C
7E
E6
C0
DC
FE
C6
C6
C6
7E
3C
ENDCHAR
STARTCHAR U+0037
ENCODING 55
SWIDTH 500 0
DWIDTH 8 0
BBX 8 11 0 0
BITMAP
FF
FF
06
0C
0C
18
18
38
30
30
30
ENDCHAR
STARTCHAR U+0038
ENCODING 56
SWIDTH 500 0
DWIDTH 8 0
BBX 7 11 0 0
BITMAP
7C
FE
C6
C6
7C
7C
E6
C6
C6
FE
7C
ENDCHAR
STARTCHAR U+0039
ENCODING 57
SWIDTH 500 0
DWIDTH 8 0
BBX 7 11 0 0
BITMAP
38
7C
C6
C6
C6
FE
7E
06
C6
FC
78
ENDCHAR
ENDFONT
