STARTFONT 2.1
FONT u8g2_font_helvB18_tn
SIZE 22 75 75
FONTBOUNDINGBOX 12 22 0 -3
STARTPROPERTIES 3
PIXEL_SIZE 22
FONT_ASCENT 19
FONT_DESCENT 3
ENDPROPERTIES
CHARS 18
STARTCHAR U+0020
ENCODING 32
SWIDTH 500 0
DWIDTH 6 0
BBX 0 0 0 1
BITMAP
ENDCHAR
STARTCHAR U+002A
ENCODING 42
SWIDTH 500 0
DWIDTH 10 0
BBX 8 7 1 12
BITMAP
18
18
DB
FF
3C
66
66
ENDCHAR
STARTCHAR U+002B
ENCODING 43
SWIDTH 500 0
DWIDTH 15 0
BBX 12 12 1 1
BITMAP
0600
0600
0600
0600
0600
FFF0
FFF0
0600
0600
0600
0600
0600
ENDCHAR
STARTCHAR U+002C
ENCODING 44
SWIDTH 500 0
DWIDTH 7 0
BBX 3 6 2 -3
BITMAP
E0
E0
E0
60
60
C0
ENDCHAR
STARTCHAR U+002D
ENCODING 45
SWIDTH 500 0
DWIDTH 8 0
BBX 7 3 0 6
BITMAP
FE
FE
FE
ENDCHAR
STARTCHAR U+002E
ENCODING 46
SWIDTH 500 0
DWIDTH 7 0
BBX 3 3 2 0
BITMAP
E0
E0
E0
ENDCHAR
STARTCHAR U+002F
ENCODING 47
SWIDTH 500 0
DWIDTH 8 0
BBX 7 19 1 0
BITMAP
06
06
06
0C
0C
0C
18
18
18
18
30
30
30
60
60
60
C0
C0
C0
ENDCHAR
STARTCHAR U+0030
ENCODING 48
SWIDTH 500 0
DWIDTH 13 0
BBX 12 18 0 0
BITMAP
1F80
3FC0
79E0
70E0
70E0
E070
E070
E070
E070
E070
E070
E070
E070
70E0
70E0
79E0
3FC0
1F80
ENDCHAR
STARTCHAR U+0031
ENCODING 49
SWIDTH 500 0
DWIDTH 13 0
BBX 7 18 2 0
BITMAP
0E
0E
1E
FE
FE
0E
0E
0E
0E
0E
0E
0E
0E
0E
0E
0E
0E
0E
ENDCHAR
STARTCHAR U+0032
ENCODING 50
SWIDTH 500 0
DWIDTH 13 0
BBX 12 18 0 0
BITMAP
1F00
7FC0
71E0
E0E0
E070
E070
0070
00E0
01E0
03C0
0780
1F00
3C00
7800
F000
E000
FFF0
FFF0
ENDCHAR
STARTCHAR U+0033
ENCODING 51
SWIDTH 500 0
DWIDTH 13 0
BBX 12 18 0 0
BITMAP
1F00
7FC0
71C0
E0E0
E0E0
E0E0
00E0
01C0
0F80
0FE0
00E0
0070
0070
E070
E0F0
71E0
7FE0
1F80
ENDCHAR
STARTCHAR U+0034
ENCODING 52
SWIDTH 500 0
DWIDTH 13 0
BBX 12 18 0 0
BITMAP
01C0
03C0
03C0
07C0
07C0
0DC0
1DC0
19C0
31C0
71C0
61C0
E1C0
FFF0
FFF0
01C0
01C0
01C0
01C0
ENDCHAR
STARTCHAR U+0035
ENCODING 53
SWIDTH 500 0
DWIDTH 13 0
BBX 12 18 0 0
BITMAP
7FE0
7FE0
7000
7000
7000
7000
7F80
7FC0
71E0
00E0
0070
0070
0070
E070
E0F0
F1E0
7FC0
1F80
ENDCHAR
STARTCHAR U+0036
ENCODING 54
SWIDTH 500 0
DWIDTH 13 0
BBX 12 18 0 0
BITMAP
0F80
3FE0
78E0
7070
E070
E000
E000
EF00
FFC0
F9E0
F0E0
E070
E070
E070
70E0
79E0
3FC0
1F80
ENDCHAR
STARTCHAR U+0037
ENCODING 55
SWIDTH 500 0
DWIDTH 13 0
BBX 12 18 0 0
BITMAP
FFF0
FFF0
00F0
00E0
01C0
01C0
0380
0380
0700
0700
0E00
0E00
1E00
1C00
1C00
3C00
3800
3800
ENDCHAR
STARTCHAR U+0038
ENCODING 56
SWIDTH 500 0
DWIDTH 13 0
BBX 12 18 0 0
BITMAP
0F00
3FC0
39C0
70E0
70E0
70E0
70E0
39C0
1F80
3FC0
70E0
E070
E070
E070
E070
70E0
7FE0
1F80
ENDCHAR
STARTCHAR U+0039
ENCODING 57
SWIDTH 500 0
DWIDTH 13 0
BBX 12 18 0 0
BITMAP
1F80
7FC0
79E0
F0E0
E070
E070
E070
E070
F0F0
79F0
7FF0
1F70
0070
0070
E0E0
F3E0
7FC0
1F00
ENDCHAR
STARTCHAR U+003A
ENCODING 58
SWIDTH 500 0
DWIDTH 7 0
BBX 3 14 2 0
BITMAP
E0
E0
E0
00
00
00
00
00
00
00
00
E0
E0
E0
ENDCHAR
ENDFONT
