STARTFONT 2.1
FONT BarlowCondensed-SemiBold-48
SIZE 48 75 75
FONTBOUNDINGBOX 96 58 0 -10
STARTPROPERTIES 3
PIXEL_SIZE 48
FONT_ASCENT 48
FONT_DESCENT 10
ENDPROPERTIES
CHARS 219
STARTCHAR U+0020
ENCODING 32
SWIDTH 500 0
DWIDTH 10 0
BBX 0 0 0 0
BITMAP
ENDCHAR
STARTCHAR U+0021
ENCODING 33
SWIDTH 500 0
DWIDTH 13 0
BBX 7 34 3 0
BITMAP
7C
7C
7C
7C
7C
7C
7C
7C
7C
7C
7C
7C
7C
7C
7C
7C
7C
7C
7C
7C
7C
7C
00
00
00
00
00
38
7C
FE
FE
FE
7C
38
ENDCHAR
STARTCHAR U+0022
ENCODING 34
SWIDTH 500 0
DWIDTH 15 0
BBX 13 11 1 23
BITMAP
F8F8
F8F8
F8F8
F8F8
F8F8
F8F8
F8F0
F8F0
F8F0
F8F0
F8F0
ENDCHAR
STARTCHAR U+0023
ENCODING 35
SWIDTH 500 0
DWIDTH 29 0
BBX 25 32 2 1
BITMAP
01F03E00
03F07E00
03F07E00
03F07E00
03F07E00
03E07C00
03E07C00
03E07C00
3FFFFF80
3FFFFF80
3FFFFF80
3FFFFF80
3FFFFF80
07C0F800
0FC0F800
0FC1F800
0FC1F800
0FC1F800
0F81F800
FFFFFE00
FFFFFE00
FFFFFE00
FFFFFE00
FFFFFE00
1F83F000
1F03E000
1F03E000
1F03E000
3F07E000
3F07E000
3F07E000
3E07C000
ENDCHAR
STARTCHAR U+0024
ENCODING 36
SWIDTH 500 0
DWIDTH 21 0
BBX 17 42 2 -4
BITMAP
03C000
03C000
03C000
03C000
07E000
1FF800
3FFE00
7FFE00
FFFF00
FE3F00
FC1F80
F81F80
F80F80
F80F80
F80F80
FC0000
FE0000
7F0000
7F8000
3FC000
1FF000
0FF800
07FC00
01FE00
00FF00
007F00
003F80
001F80
F80F80
F80F80
F80F80
F80F80
FC1F80
FE3F80
7FFF00
7FFF00
3FFE00
0FF800
03E000
03E000
03E000
03C000
ENDCHAR
STARTCHAR U+0025
ENCODING 37
SWIDTH 500 0
DWIDTH 37 0
BBX 31 34 3 0
BITMAP
0F8003C0
3FE003C0
7FF00780
78780780
F0380F00
E01C0F00
E01C1E00
E01C3E00
E01C3C00
F0387800
78787800
7FF0F000
3FE0F000
0F81E000
0001E000
0003C000
0003C000
00078000
00078000
000F03E0
000F0FF0
001E1FFC
001E3C3C
003C381E
0078780E
0078700E
00F0700E
00F0700E
01E0780E
01E0381E
03C03C3C
03C01FFC
07800FF0
078003E0
ENDCHAR
STARTCHAR U+0026
ENCODING 38
SWIDTH 500 0
DWIDTH 28 0
BBX 24 34 2 0
BITMAP
03F800
0FFE00
1FFF00
1FFF80
3FFF80
3F1FC0
7E0FC0
7E0FC0
7E0FC0
7E0FC0
3E0FC0
3F1F80
1FBF80
1FFF00
0FFE00
07FC00
07F800
0FF000
1FF800
3FFC00
7FFC1C
FE7E3E
FC3F3E
FC1FFE
F81FFC
F80FF8
F807F8
FC07F0
FE0FF8
FFFFF8
7FFFFC
3FFFFE
1FFE7E
07F03F
ENDCHAR
STARTCHAR U+0027
ENCODING 39
SWIDTH 500 0
DWIDTH 7 0
BBX 5 11 1 23
BITMAP
F8
F8
F8
F8
F8
F8
F8
F8
F8
F8
F8
ENDCHAR
STARTCHAR U+0028
ENCODING 40
SWIDTH 500 0
DWIDTH 13 0
BBX 10 41 0 -5
BITMAP
07C0
0FC0
0FC0
1F80
1F80
1F80
3F00
3F00
3F00
7E00
7E00
7E00
7E00
7E00
FE00
FC00
FC00
FC00
FC00
FC00
FC00
FC00
FC00
FC00
FC00
FC00
FE00
FE00
7E00
7E00
7E00
7E00
3F00
3F00
3F00
3F80
1F80
1F80
0FC0
0FC0
07C0
ENDCHAR
STARTCHAR U+0029
ENCODING 41
SWIDTH 500 0
DWIDTH 13 0
BBX 10 41 3 -5
BITMAP
FC00
FC00
7E00
7E00
3F00
3F00
3F00
3F80
1F80
1F80
1F80
1FC0
0FC0
0FC0
0FC0
0FC0
0FC0
0FC0
0FC0
0FC0
0FC0
0FC0
0FC0
0FC0
0FC0
0FC0
0FC0
0FC0
0FC0
1FC0
1F80
1F80
1F80
3F80
3F00
3F00
7F00
7E00
7E00
FC00
F800
ENDCHAR
STARTCHAR U+002A
ENCODING 42
SWIDTH 500 0
DWIDTH 17 0
BBX 15 17 1 19
BITMAP
0380
0380
0380
6384
F39E
FFFE
7FFC
1FF0
0FE0
1FF0
7FFC
FFFE
F39E
6384
0380
0380
0380
ENDCHAR
STARTCHAR U+002B
ENCODING 43
SWIDTH 500 0
DWIDTH 21 0
BBX 19 19 1 6
BITMAP
00F000
01F000
01F000
01F000
01F000
01F000
01F000
7FFFE0
FFFFE0
FFFFE0
FFFFE0
FFFFE0
01F000
01F000
01F000
01F000
01F000
01F000
00F000
ENDCHAR
STARTCHAR U+002C
ENCODING 44
SWIDTH 500 0
DWIDTH 10 0
BBX 6 12 2 -4
BITMAP
7C
7C
78
F8
F8
F8
F0
F0
F0
F0
F0
E0
ENDCHAR
STARTCHAR U+002D
ENCODING 45
SWIDTH 500 0
DWIDTH 16 0
BBX 13 5 1 12
BITMAP
7FF8
FFF8
FFF8
FFF8
FFF8
ENDCHAR
STARTCHAR U+002E
ENCODING 46
SWIDTH 500 0
DWIDTH 10 0
BBX 6 7 2 0
BITMAP
78
FC
FC
FC
FC
FC
78
ENDCHAR
STARTCHAR U+002F
ENCODING 47
SWIDTH 500 0
DWIDTH 19 0
BBX 15 34 1 0
BITMAP
003E
003E
007E
007E
007C
00FC
00FC
00F8
01F8
01F8
01F0
01F0
03F0
03F0
03E0
07E0
07E0
07C0
0FC0
0FC0
0F80
0F80
1F80
1F80
1F00
3F00
3F00
3E00
7E00
7E00
7C00
7C00
FC00
F800
ENDCHAR
STARTCHAR U+0030
ENCODING 48
SWIDTH 500 0
DWIDTH 22 0
BBX 18 34 2 0
BITMAP
03F000
0FFC00
3FFE00
7FFF00
7FFF80
FE1F80
FC0F80
FC0FC0
F80FC0
F80FC0
F80FC0
F80FC0
F80FC0
F80FC0
F80FC0
F80FC0
F80FC0
F80FC0
F80FC0
F80FC0
F80FC0
F80FC0
F80FC0
F80FC0
F80FC0
F80FC0
FC0FC0
FC0F80
FE1F80
7FFF80
7FFF00
3FFE00
0FFC00
03F000
ENDCHAR
STARTCHAR U+0031
ENCODING 49
SWIDTH 500 0
DWIDTH 13 0
BBX 10 34 1 0
BITMAP
1FC0
7FC0
FFC0
FFC0
FFC0
FFC0
8FC0
0FC0
0FC0
0FC0
0FC0
0FC0
0FC0
0FC0
0FC0
0FC0
0FC0
0FC0
0FC0
0FC0
0FC0
0FC0
0FC0
0FC0
0FC0
0FC0
0FC0
0FC0
0FC0
0FC0
0FC0
0FC0
0FC0
07C0
ENDCHAR
STARTCHAR U+0032
ENCODING 50
SWIDTH 500 0
DWIDTH 20 0
BBX 18 34 1 0
BITMAP
03F000
0FFC00
1FFE00
3FFF00
7FFF80
7E1F80
7E0F80
7C0FC0
FC0FC0
FC0FC0
FC0FC0
000F80
001F80
001F80
003F80
003F00
007F00
007E00
00FC00
01FC00
01F800
03F000
07F000
07E000
0FC000
1FC000
3F8000
3F0000
7E0000
7FFFC0
FFFFC0
FFFFC0
FFFFC0
7FFFC0
ENDCHAR
STARTCHAR U+0033
ENCODING 51
SWIDTH 500 0
DWIDTH 20 0
BBX 18 34 1 0
BITMAP
7FFF80
7FFF80
7FFF80
7FFF80
7FFF80
003F80
003F00
007E00
00FE00
01FC00
01F800
03F800
07F000
07FC00
07FE00
03FF00
001F00
000F80
000F80
000F80
000F80
000F80
000FC0
FC0FC0
FC0FC0
FC0F80
7C0F80
7E0F80
7E1F80
7FFF80
3FFF00
1FFE00
0FFC00
03F000
ENDCHAR
STARTCHAR U+0034
ENCODING 52
SWIDTH 500 0
DWIDTH 22 0
BBX 20 34 1 0
BITMAP
01F000
03F000
03F000
03F000
07E000
07E000
07E000
0FC000
0FC000
0FC000
1F8000
1F8000
1F8000
3F0000
3F07C0
3F0FC0
7E0FC0
7E0FC0
7E0FC0
FC0FC0
FFFFF0
FFFFF0
FFFFF0
FFFFF0
FFFFF0
000FC0
000FC0
000FC0
000FC0
000FC0
000FC0
000FC0
000FC0
0007C0
ENDCHAR
STARTCHAR U+0035
ENCODING 53
SWIDTH 500 0
DWIDTH 21 0
BBX 17 34 2 0
BITMAP
FFFF80
FFFF80
FFFF80
FFFF80
FFFF00
F80000
F80000
F80000
F80000
F80000
F80000
F80000
F80000
F8F800
FFFC00
FFFE00
FFFF00
FFFF00
FE3F80
FC1F80
001F80
000F80
000F80
000F80
000F80
F80F80
FC1F80
FC1F80
FE3F80
7FFF00
7FFF00
3FFE00
1FFC00
07F000
ENDCHAR
STARTCHAR U+0036
ENCODING 54
SWIDTH 500 0
DWIDTH 21 0
BBX 17 34 2 0
BITMAP
07F000
1FFC00
3FFE00
7FFE00
7FFF00
FE3F00
FC1F80
FC1F80
FC1F80
F81F80
F80000
F80000
F9F000
FFFC00
FFFE00
FFFF00
FFFF00
FE3F80
FC1F80
FC1F80
FC1F80
FC0F80
FC0F80
F80F80
FC0F80
FC0F80
FC1F80
FC1F80
7E3F80
7FFF00
7FFF00
3FFE00
1FFC00
07F000
ENDCHAR
STARTCHAR U+0037
ENCODING 55
SWIDTH 500 0
DWIDTH 19 0
BBX 17 34 1 0
BITMAP
FFFF80
FFFF80
FFFF80
FFFF80
FFFF80
F01F80
F01F80
001F00
003F00
003F00
003F00
007E00
007E00
007E00
007C00
00FC00
00FC00
00FC00
01F800
01F800
01F800
01F800
03F000
03F000
03F000
03E000
07E000
07E000
07E000
0FC000
0FC000
0FC000
0F8000
1F8000
ENDCHAR
STARTCHAR U+0038
ENCODING 56
SWIDTH 500 0
DWIDTH 21 0
BBX 17 34 2 0
BITMAP
07F000
1FF800
3FFE00
7FFE00
7FFF00
FE3F00
FC1F80
F81F80
F81F80
F81F80
FC1F80
FC1F80
7E3F00
7FFF00
3FFE00
1FFC00
3FFC00
7FFE00
7E3F00
FC1F00
FC1F00
F81F80
F81F80
F81F80
F81F80
F81F80
FC1F80
FC1F80
7E3F00
7FFF00
3FFE00
3FFC00
0FF800
07E000
ENDCHAR
STARTCHAR U+0039
ENCODING 57
SWIDTH 500 0
DWIDTH 20 0
BBX 17 34 1 0
BITMAP
07F000
1FFC00
3FFE00
7FFF00
7FFF00
7E1F80
FC1F80
FC0F80
FC0F80
FC0F80
FC0F80
FC0F80
FC0F80
FC0F80
FC0F80
7C1F80
7E3F80
7FFF80
3FFF80
1FFF80
0FFF80
03CF80
000F80
000F80
7C0F80
7C0F80
7C0F80
7E1F80
7E1F80
7FFF80
3FFF00
1FFE00
0FFC00
03F000
ENDCHAR
STARTCHAR U+003A
ENCODING 58
SWIDTH 500 0
DWIDTH 12 0
BBX 6 23 3 0
BITMAP
78
FC
FC
FC
FC
FC
78
00
00
00
00
00
00
00
00
00
78
FC
FC
FC
FC
FC
78
ENDCHAR
STARTCHAR U+003B
ENCODING 59
SWIDTH 500 0
DWIDTH 10 0
BBX 7 27 2 -4
BITMAP
38
FC
FE
FE
FE
FC
78
00
00
00
00
00
00
00
00
7C
7C
78
78
F8
F8
F8
F0
F0
F0
F0
F0
ENDCHAR
STARTCHAR U+003C
ENCODING 60
SWIDTH 500 0
DWIDTH 21 0
BBX 19 21 1 3
BITMAP
0000E0
0003E0
000FE0
003FE0
00FFE0
03FF80
1FFC00
7FF000
FFC000
FF0000
FC0000
FF0000
FFC000
3FF800
0FFE00
03FF80
00FFE0
003FE0
000FE0
0001E0
000060
ENDCHAR
STARTCHAR U+003D
ENCODING 61
SWIDTH 500 0
DWIDTH 21 0
BBX 19 13 1 9
BITMAP
FFFFE0
FFFFE0
FFFFE0
FFFFE0
000000
000000
000000
000000
000000
FFFFE0
FFFFE0
FFFFE0
FFFFE0
ENDCHAR
STARTCHAR U+003E
ENCODING 62
SWIDTH 500 0
DWIDTH 21 0
BBX 19 21 1 3
BITMAP
E00000
F80000
FE0000
FF8000
7FE000
3FFC00
07FF00
01FFC0
007FE0
000FE0
0007E0
001FE0
007FE0
03FF80
0FFE00
3FF800
FFE000
FF8000
FE0000
F80000
C00000
ENDCHAR
STARTCHAR U+003F
ENCODING 63
SWIDTH 500 0
DWIDTH 20 0
BBX 18 34 1 0
BITMAP
03F000
0FFC00
1FFE00
3FFF00
7FFF80
7E1F80
FC0F80
FC0FC0
FC0FC0
FC0FC0
000FC0
001F80
001F80
003F80
007F00
00FE00
01FC00
03F800
03F000
03F000
03E000
07E000
07E000
000000
000000
000000
000000
01C000
03E000
07F000
07F000
07E000
03E000
01C000
ENDCHAR
STARTCHAR U+0040
ENCODING 64
SWIDTH 500 0
DWIDTH 36 0
BBX 33 35 2 -4
BITMAP
0003FC0000
001FFF8000
007FFFE000
00FFFFF000
01FC07F800
03F000FC00
07C0007E00
0F80003E00
1F00001F00
1E079C1F00
3E0FFC0F00
3C1FFC0F00
781E7C0F80
783C3C0780
783C3C0780
F03C3C0780
F0383C0F80
F038380F00
F038380F00
F078780F00
F078781F00
F0787C1E00
F0787C3E00
F07CFFFC00
F03FFFF800
781FDFF000
7C0F87C000
7C00000000
3E00000000
3F80080000
1FE03C0000
0FFFFE0000
07FFFC0000
01FFF00000
003F800000
ENDCHAR
STARTCHAR U+0041
ENCODING 65
SWIDTH 500 0
DWIDTH 22 0
BBX 20 34 1 0
BITMAP
01F800
01F800
03FC00
03FC00
03FC00
03FC00
07FC00
07FE00
07FE00
07BE00
07BE00
0F9E00
0F9F00
0F9F00
0F9F00
0F1F00
1F0F80
1F0F80
1F0F80
1F0F80
3E0F80
3E07C0
3E07C0
3FFFC0
3FFFC0
7FFFE0
7FFFE0
7FFFE0
7C03E0
7C03E0
FC03F0
FC03F0
F803F0
F801F0
ENDCHAR
STARTCHAR U+0042
ENCODING 66
SWIDTH 500 0
DWIDTH 22 0
BBX 18 34 3 0
BITMAP
FFE000
FFFC00
FFFE00
FFFF00
FFFF00
F83F80
F81F80
F80F80
F80F80
F80F80
F80F80
F80F80
F80F80
F81F80
F83F00
FFFF00
FFFC00
FFFC00
FFFE00
F83F00
F81F80
F80F80
F80FC0
F80FC0
F80FC0
F80FC0
F80FC0
F81FC0
F83F80
FFFF80
FFFF00
FFFE00
FFFC00
FFF000
ENDCHAR
STARTCHAR U+0043
ENCODING 67
SWIDTH 500 0
DWIDTH 22 0
BBX 18 34 2 0
BITMAP
03F000
0FFC00
3FFF00
3FFF80
7FFF80
7E1FC0
FC0FC0
FC0FC0
FC07C0
FC07C0
FC0000
FC0000
FC0000
FC0000
FC0000
FC0000
FC0000
FC0000
FC0000
FC0000
FC0000
FC0000
FC0000
FC0000
FC07C0
FC07C0
FC0FC0
FC0FC0
7E1FC0
7FFF80
3FFF00
3FFF00
0FFC00
03F000
ENDCHAR
STARTCHAR U+0044
ENCODING 68
SWIDTH 500 0
DWIDTH 23 0
BBX 17 34 3 0
BITMAP
FFF000
FFFC00
FFFE00
FFFF00
FFFF00
F83F80
F81F80
F80F80
F80F80
F80F80
F80F80
F80F80
F80F80
F80F80
F80F80
F80F80
F80F80
F80F80
F80F80
F80F80
F80F80
F80F80
F80F80
F80F80
F80F80
F80F80
F80F80
F81F80
F83F80
FFFF00
FFFF00
FFFE00
FFFC00
FFF000
ENDCHAR
STARTCHAR U+0045
ENCODING 69
SWIDTH 500 0
DWIDTH 21 0
BBX 16 34 3 0
BITMAP
FFFF
FFFF
FFFF
FFFF
FFFF
F800
F800
F800
F800
F800
F800
F800
F800
F800
F800
FFF0
FFF0
FFF0
FFF0
FFF0
F800
F800
F800
F800
F800
F800
F800
F800
F800
FFFF
FFFF
FFFF
FFFF
FFFF
ENDCHAR
STARTCHAR U+0046
ENCODING 70
SWIDTH 500 0
DWIDTH 20 0
BBX 16 34 3 0
BITMAP
FFFF
FFFF
FFFF
FFFF
FFFF
F800
F800
F800
F800
F800
F800
F800
F800
F800
F800
FFF0
FFF0
FFF0
FFF0
FFF0
F800
F800
F800
F800
F800
F800
F800
F800
F800
F800
F800
F800
F800
F800
ENDCHAR
STARTCHAR U+0047
ENCODING 71
SWIDTH 500 0
DWIDTH 22 0
BBX 18 34 2 0
BITMAP
03F000
0FFC00
3FFF00
3FFF80
7FFF80
7E1FC0
FC0FC0
FC0FC0
FC07C0
FC07C0
FC07C0
FC0000
FC0000
FC0000
FC0000
FC0000
FC7FC0
FC7FC0
FC7FC0
FC7FC0
FC7FC0
FC07C0
FC07C0
FC07C0
FC07C0
FC07C0
FC0FC0
FC0FC0
7E1FC0
7FFF80
3FFF80
3FFF00
0FFE00
03F000
ENDCHAR
STARTCHAR U+0048
ENCODING 72
SWIDTH 500 0
DWIDTH 23 0
BBX 17 34 3 0
BITMAP
F80F80
F80F80
F80F80
F80F80
F80F80
F80F80
F80F80
F80F80
F80F80
F80F80
F80F80
F80F80
F80F80
F80F80
F80F80
FFFF80
FFFF80
FFFF80
FFFF80
FFFF80
F80F80
F80F80
F80F80
F80F80
F80F80
F80F80
F80F80
F80F80
F80F80
F80F80
F80F80
F80F80
F80F80
F80F80
ENDCHAR
STARTCHAR U+0049
ENCODING 73
SWIDTH 500 0
DWIDTH 11 0
BBX 5 34 3 0
BITMAP
F8
F8
F8
F8
F8
F8
F8
F8
F8
F8
F8
F8
F8
F8
F8
F8
F8
F8
F8
F8
F8
F8
F8
F8
F8
F8
F8
F8
F8
F8
F8
F8
F8
F8
ENDCHAR
STARTCHAR U+004A
ENCODING 74
SWIDTH 500 0
DWIDTH 21 0
BBX 18 34 1 0
BITMAP
000FC0
000FC0
000FC0
000FC0
000FC0
000FC0
000FC0
000FC0
000FC0
000FC0
000FC0
000FC0
000FC0
000FC0
000FC0
000FC0
000FC0
000FC0
000FC0
000FC0
000FC0
F80FC0
F80FC0
F80FC0
F80FC0
F80FC0
FC0FC0
FC1F80
FE1F80
7FFF80
7FFF00
3FFE00
1FFC00
07F000
ENDCHAR
STARTCHAR U+004B
ENCODING 75
SWIDTH 500 0
DWIDTH 23 0
BBX 19 34 3 0
BITMAP
F807C0
F80FC0
F80FC0
F81F80
F81F80
F83F00
F87E00
F87E00
F8FC00
F8FC00
F9F800
F9F800
FBF000
FBF000
FFE000
FFF000
FFF000
FFF000
FFF800
FFF800
FEFC00
FCFC00
F87C00
F87E00
F87E00
F83F00
F83F00
F81F80
F81F80
F80F80
F80FC0
F80FC0
F807E0
F807E0
ENDCHAR
STARTCHAR U+004C
ENCODING 76
SWIDTH 500 0
DWIDTH 20 0
BBX 16 34 3 0
BITMAP
F800
F800
F800
F800
F800
F800
F800
F800
F800
F800
F800
F800
F800
F800
F800
F800
F800
F800
F800
F800
F800
F800
F800
F800
F800
F800
F800
F800
F800
FFFF
FFFF
FFFF
FFFF
FFFF
ENDCHAR
STARTCHAR U+004D
ENCODING 77
SWIDTH 500 0
DWIDTH 26 0
BBX 21 34 2 0
BITMAP
7C00F8
FE01F8
FE01F8
FF03F8
FF07F8
FF87F8
FFCFF8
FFCFF8
FFFFF8
FFFFF8
FFFFF8
FDFEF8
FDFCF8
FCFCF8
FCF8F8
FC78F8
FC30F8
FC30F8
FC00F8
FC00F8
FC00F8
FC00F8
FC00F8
FC00F8
FC00F8
FC00F8
FC00F8
FC00F8
FC00F8
FC00F8
FC00F8
FC00F8
FC00F8
7C00F8
ENDCHAR
STARTCHAR U+004E
ENCODING 78
SWIDTH 500 0
DWIDTH 24 0
BBX 19 34 3 0
BITMAP
FC07E0
FC07E0
FC07E0
FE07E0
FE07E0
FE07E0
FF07E0
FF07E0
FF87E0
FF87E0
FF87E0
FFC7E0
FFC7E0
FFC7E0
FBE7E0
FBE7E0
F9E7E0
F9F7E0
F9F7E0
F8F7E0
F8FFE0
F8FFE0
F87FE0
F87FE0
F87FE0
F83FE0
F83FE0
F83FE0
F81FE0
F81FE0
F81FE0
F80FE0
F80FE0
F807E0
ENDCHAR
STARTCHAR U+004F
ENCODING 79
SWIDTH 500 0
DWIDTH 22 0
BBX 18 34 2 0
BITMAP
03F000
0FFE00
1FFF00
3FFF80
7FFF80
7E1FC0
FC0FC0
FC07C0
FC07C0
FC07C0
FC07C0
FC07C0
FC07C0
FC07C0
FC07C0
FC07C0
FC07C0
FC07C0
FC07C0
FC07C0
FC07C0
FC07C0
FC07C0
FC07C0
FC07C0
FC07C0
FC07C0
FC0FC0
7E1FC0
7FFF80
3FFF80
1FFF00
0FFE00
03F000
ENDCHAR
STARTCHAR U+0050
ENCODING 80
SWIDTH 500 0
DWIDTH 22 0
BBX 18 34 3 0
BITMAP
FFF000
FFFC00
FFFE00
FFFF00
FFFF00
F83F80
F81F80
F80F80
F80FC0
F80FC0
F80FC0
F80FC0
F80FC0
F81F80
F83F80
FFFF80
FFFF00
FFFE00
FFFC00
FFF000
F80000
F80000
F80000
F80000
F80000
F80000
F80000
F80000
F80000
F80000
F80000
F80000
F80000
F80000
ENDCHAR
STARTCHAR U+0051
ENCODING 81
SWIDTH 500 0
DWIDTH 22 0
BBX 18 39 2 -5
BITMAP
03F000
0FFC00
1FFE00
3FFF00
7FFF80
7E1F80
FC0F80
FC0FC0
FC0FC0
FC0FC0
FC0FC0
FC0FC0
FC0FC0
FC0FC0
FC0FC0
FC0FC0
FC0FC0
FC0FC0
FC0FC0
FC0FC0
FC0FC0
FC0FC0
FC0FC0
FC0FC0
FC0FC0
FC0FC0
FC0FC0
FC0FC0
FC0F80
7E1F80
7FFF00
3FFF00
1FFE00
0FF800
03F000
03F000
03F000
03F000
03F000
ENDCHAR
STARTCHAR U+0052
ENCODING 82
SWIDTH 500 0
DWIDTH 22 0
BBX 18 34 3 0
BITMAP
FFF000
FFFC00
FFFE00
FFFF00
FFFF80
F83F80
F81F80
F80FC0
F80FC0
F80FC0
F80FC0
F80FC0
F80FC0
F81F80
F83F80
FFFF80
FFFF00
FFFE00
FFFC00
FFF800
F8FC00
F87C00
F87C00
F87E00
F83E00
F83E00
F83F00
F83F00
F81F00
F81F80
F81F80
F80F80
F80FC0
F80FC0
ENDCHAR
STARTCHAR U+0053
ENCODING 83
SWIDTH 500 0
DWIDTH 21 0
BBX 17 34 2 0
BITMAP
07E000
1FF800
3FFE00
7FFF00
FFFF00
FC3F80
FC1F80
F81F80
F80F80
F80F80
F80F80
FC0000
FE0000
7F0000
3F8000
3FE000
1FF000
07F800
03FC00
01FE00
007F00
003F80
001F80
000F80
F80F80
F80F80
F80F80
FC1F80
FE1F80
7FFF00
7FFF00
3FFE00
1FFC00
07F000
ENDCHAR
STARTCHAR U+0054
ENCODING 84
SWIDTH 500 0
DWIDTH 22 0
BBX 19 34 1 0
BITMAP
FFFFE0
FFFFE0
FFFFE0
FFFFE0
7FFFE0
01F000
01F000
01F000
01F000
01F000
01F000
01F000
01F000
01F000
01F000
01F000
01F000
01F000
01F000
01F000
01F000
01F000
01F000
01F000
01F000
01F000
01F000
01F000
01F000
01F000
01F000
01F000
01F000
01F000
ENDCHAR
STARTCHAR U+0055
ENCODING 85
SWIDTH 500 0
DWIDTH 23 0
BBX 19 34 2 0
BITMAP
7C07C0
FC07E0
FC07E0
FC07E0
FC07E0
FC07E0
FC07E0
FC07E0
FC07E0
FC07E0
FC07E0
FC07E0
FC07E0
FC07E0
FC07E0
FC07E0
FC07E0
FC07E0
FC07E0
FC07E0
FC07E0
FC07E0
FC07E0
FC07E0
FC07E0
FC07C0
7C07C0
7E0FC0
7E1FC0
3FFF80
3FFF80
1FFF00
0FFE00
03F800
ENDCHAR
STARTCHAR U+0056
ENCODING 86
SWIDTH 500 0
DWIDTH 23 0
BBX 20 34 1 0
BITMAP
FC01F0
7C03F0
7E03F0
7E03F0
7E03E0
7E03E0
3E07E0
3E07E0
3F07E0
3F07C0
3F07C0
1F07C0
1F0FC0
1F0FC0
1F8F80
1F8F80
0F8F80
0F8F80
0F9F80
0FDF00
0FDF00
07DF00
07DF00
07FE00
07FE00
03FE00
03FE00
03FE00
03FC00
03FC00
01FC00
01FC00
01FC00
01F800
ENDCHAR
STARTCHAR U+0057
ENCODING 87
SWIDTH 500 0
DWIDTH 32 0
BBX 30 34 1 0
BITMAP
FC07C0FC
FC0FC0FC
7C0FC0F8
7C0FC0F8
7E0FC0F8
7E0FC1F8
7E0FE1F8
7E1FE1F8
3E1FE1F0
3E1FE1F0
3F1FE1F0
3F1FE1F0
3F1FF3F0
1F1FF3E0
1F3FF3E0
1F3EF3E0
1F3CF3E0
1FBCF3E0
0FBCFBC0
0FBCFFC0
0FFCFFC0
0FFCFFC0
0FFC7FC0
07F87FC0
07F87F80
07F87F80
07F87F80
07F87F80
03F83F80
03F03F00
03F03F00
03F03F00
03F03F00
01F03F00
ENDCHAR
STARTCHAR U+0058
ENCODING 88
SWIDTH 500 0
DWIDTH 22 0
BBX 19 34 2 0
BITMAP
F807E0
F807C0
FC0FC0
7C0F80
7E0F80
7E1F80
3E1F00
3F1F00
1F3E00
1F3E00
1FFE00
0FFC00
0FFC00
07F800
07F800
07F800
03F000
03F000
03F800
07F800
07F800
0FFC00
0FFC00
0FFE00
1F3E00
1F3E00
3F3F00
3E1F00
7E1F80
7E0F80
7C0F80
FC0FC0
F807C0
F807E0
ENDCHAR
STARTCHAR U+0059
ENCODING 89
SWIDTH 500 0
DWIDTH 22 0
BBX 19 34 1 0
BITMAP
FC03E0
7C07E0
7E07E0
7E07C0
3E07C0
3F0FC0
3F0F80
1F0F80
1F1F80
1F9F00
0F9F00
0F9F00
07FE00
07FE00
07FE00
03FC00
03FC00
03FC00
01F800
01F800
01F800
01F800
01F800
01F800
01F800
01F800
01F800
01F800
01F800
01F800
01F800
01F800
01F800
01F800
ENDCHAR
STARTCHAR U+005A
ENCODING 90
SWIDTH 500 0
DWIDTH 19 0
BBX 17 34 1 0
BITMAP
FFFF80
FFFF80
FFFF80
FFFF80
FFFF80
001F80
003F00
003F00
003E00
007E00
007E00
00FC00
00FC00
01F800
01F800
03F000
03F000
07E000
07E000
07C000
0FC000
0FC000
1F8000
1F8000
3F0000
3F0000
7E0000
7E0000
FC0000
FFFF80
FFFF80
FFFF80
FFFF80
FFFF80
ENDCHAR
STARTCHAR U+005B
ENCODING 91
SWIDTH 500 0
DWIDTH 16 0
BBX 10 45 1 -7
BITMAP
7FC0
FFC0
FFC0
FFC0
FFC0
FC00
FC00
FC00
FC00
FC00
FC00
FC00
FC00
FC00
FC00
FC00
FC00
FC00
FC00
FC00
FC00
FC00
FC00
FC00
FC00
FC00
FC00
FC00
FC00
FC00
FC00
FC00
FC00
FC00
FC00
FC00
FC00
FC00
FC00
FC00
FFC0
FFC0
FFC0
FFC0
FFC0
ENDCHAR
STARTCHAR U+005C
ENCODING 92
SWIDTH 500 0
DWIDTH 19 0
BBX 16 34 2 0
BITMAP
FC00
FC00
7C00
7E00
7E00
3E00
3F00
3F00
1F00
1F00
1F80
1F80
0F80
0FC0
0FC0
07C0
07E0
07E0
03E0
03E0
03F0
03F0
01F0
01F8
01F8
00F8
00FC
00FC
007C
007C
007E
007E
003E
003F
ENDCHAR
STARTCHAR U+005D
ENCODING 93
SWIDTH 500 0
DWIDTH 16 0
BBX 11 45 4 -7
BITMAP
7FC0
FFE0
FFE0
FFE0
7FE0
07E0
07E0
07E0
07E0
07E0
07E0
07E0
07E0
07E0
07E0
07E0
07E0
07E0
07E0
07E0
07E0
07E0
07E0
07E0
07E0
07E0
07E0
07E0
07E0
07E0
07E0
07E0
07E0
07E0
07E0
07E0
07E0
07E0
07E0
07E0
7FE0
FFE0
FFE0
FFE0
7FC0
ENDCHAR
STARTCHAR U+005E
ENCODING 94
SWIDTH 500 0
DWIDTH 20 0
BBX 16 19 2 15
BITMAP
07C0
07E0
07E0
0FE0
0FF0
0FF0
1FF0
1EF8
1E78
3E78
3E7C
3C3C
7C3C
7C3E
783E
F81E
F81F
F01F
F00F
ENDCHAR
STARTCHAR U+005F
ENCODING 95
SWIDTH 500 0
DWIDTH 19 0
BBX 18 5 1 0
BITMAP
FFFF80
FFFFC0
FFFFC0
FFFFC0
FFFFC0
ENDCHAR
STARTCHAR U+0060
ENCODING 96
SWIDTH 500 0
DWIDTH 10 0
BBX 8 6 1 28
BITMAP
F8
78
3C
3E
1E
0F
ENDCHAR
STARTCHAR U+0061
ENCODING 97
SWIDTH 500 0
DWIDTH 21 0
BBX 18 25 1 0
BITMAP
03F800
0FFE00
1FFF00
3FFF80
3FFF80
7F1FC0
7E0FC0
7E0FC0
000FC0
000FC0
03FFC0
1FFFC0
3FFFC0
7FFFC0
7F0FC0
7E0FC0
FC0FC0
FC0FC0
FC0FC0
7E1FC0
7FFFC0
7FFFC0
3FFFC0
1FFFC0
0FC7C0
ENDCHAR
STARTCHAR U+0062
ENCODING 98
SWIDTH 500 0
DWIDTH 21 0
BBX 17 34 2 0
BITMAP
FC0000
FC0000
FC0000
FC0000
FC0000
FC0000
FC0000
FC0000
FC0000
FCF800
FFFE00
FFFF00
FFFF00
FFFF80
FE3F80
FC1F80
FC0F80
FC0F80
FC0F80
FC0F80
FC0F80
FC0F80
FC0F80
FC0F80
FC0F80
FC0F80
FC0F80
FC1F80
FE3F80
FFFF80
FFFF00
FFFF00
FFFE00
FCF800
ENDCHAR
STARTCHAR U+0063
ENCODING 99
SWIDTH 500 0
DWIDTH 20 0
BBX 17 25 2 0
BITMAP
07F000
1FFC00
3FFE00
7FFF00
FFFF00
FE3F80
FC1F80
F81F80
F80F00
F80000
F80000
F80000
F80000
F80000
F80000
F80000
F80F80
F81F80
FC1F80
FE3F80
FFFF00
7FFF00
3FFE00
1FFC00
07F000
ENDCHAR
STARTCHAR U+0064
ENCODING 100
SWIDTH 500 0
DWIDTH 21 0
BBX 17 34 2 0
BITMAP
001F80
001F80
001F80
001F80
001F80
001F80
001F80
001F80
001F80
0F9F80
3FFF80
7FFF80
7FFF80
FFFF80
FC3F80
FC1F80
F81F80
F81F80
F81F80
F81F80
F81F80
F81F80
F81F80
F81F80
F81F80
F81F80
F81F80
FC1F80
FC3F80
FFFF80
7FFF80
7FFF80
3FFF80
0F9F80
ENDCHAR
STARTCHAR U+0065
ENCODING 101
SWIDTH 500 0
DWIDTH 20 0
BBX 17 25 2 0
BITMAP
07F000
1FFC00
3FFE00
7FFF00
FFFF00
FC3F80
FC1F80
F81F80
F81F80
F81F80
FFFF80
FFFF80
FFFF80
FFFF80
F80000
F80000
F80000
FC1F00
FC1F80
FE3F00
FFFF00
7FFF00
3FFE00
1FFC00
07F000
ENDCHAR
STARTCHAR U+0066
ENCODING 102
SWIDTH 500 0
DWIDTH 14 0
BBX 12 34 1 0
BITMAP
01F0
07F0
0FF0
1FF0
1FE0
1F80
3F00
3F00
3F00
FFF0
FFF0
FFF0
FFF0
3F00
3F00
3F00
3F00
3F00
3F00
3F00
3F00
3F00
3F00
3F00
3F00
3F00
3F00
3F00
3F00
3F00
3F00
3F00
3F00
1F00
ENDCHAR
STARTCHAR U+0067
ENCODING 103
SWIDTH 500 0
DWIDTH 21 0
BBX 17 35 2 -10
BITMAP
0F9F80
3FFF80
7FFF80
7FFF80
FFFF80
FE3F80
FC1F80
F81F80
F81F80
F81F80
F81F80
F81F80
F81F80
F81F80
F81F80
F81F80
F81F80
F81F80
FC1F80
FE3F80
FFFF80
7FFF80
7FFF80
3FDF80
0F9F80
001F80
001F80
003F00
003F00
00FF00
0FFE00
0FFE00
0FFC00
0FF000
0F8000
ENDCHAR
STARTCHAR U+0068
ENCODING 104
SWIDTH 500 0
DWIDTH 21 0
BBX 17 34 2 0
BITMAP
FC0000
FC0000
FC0000
FC0000
FC0000
FC0000
FC0000
FC0000
FC0000
FCF800
FDFE00
FFFF00
FFFF00
FFFF80
FE3F80
FC1F80
FC1F80
FC1F80
FC1F80
FC1F80
FC1F80
FC1F80
FC1F80
FC1F80
FC1F80
FC1F80
FC1F80
FC1F80
FC1F80
FC1F80
FC1F80
FC1F80
FC1F80
FC0F80
ENDCHAR
STARTCHAR U+0069
ENCODING 105
SWIDTH 500 0
DWIDTH 10 0
BBX 6 35 2 0
BITMAP
78
FC
FC
FC
FC
FC
78
00
00
00
7C
FC
FC
FC
FC
FC
FC
FC
FC
FC
FC
FC
FC
FC
FC
FC
FC
FC
FC
FC
FC
FC
FC
FC
7C
ENDCHAR
STARTCHAR U+006A
ENCODING 106
SWIDTH 500 0
DWIDTH 10 0
BBX 10 45 -2 -10
BITMAP
0780
0FC0
0FC0
0FC0
0FC0
0FC0
0780
0000
0000
0000
0FC0
0FC0
0FC0
0FC0
0FC0
0FC0
0FC0
0FC0
0FC0
0FC0
0FC0
0FC0
0FC0
0FC0
0FC0
0FC0
0FC0
0FC0
0FC0
0FC0
0FC0
0FC0
0FC0
0FC0
0FC0
0FC0
0FC0
0FC0
0FC0
1F80
FF80
FF80
FF00
FE00
F000
ENDCHAR
STARTCHAR U+006B
ENCODING 107
SWIDTH 500 0
DWIDTH 21 0
BBX 18 34 2 0
BITMAP
FC0000
FC0000
FC0000
FC0000
FC0000
FC0000
FC0000
FC0000
FC0000
FC1F80
FC1F00
FC3F00
FC7E00
FC7C00
FCFC00
FDF800
FDF800
FFF000
FFF000
FFF800
FFF800
FFF800
FFFC00
FE7C00
FE7C00
FC7E00
FC3E00
FC3E00
FC3F00
FC1F00
FC1F80
FC1F80
FC0F80
FC0FC0
ENDCHAR
STARTCHAR U+006C
ENCODING 108
SWIDTH 500 0
DWIDTH 10 0
BBX 6 34 2 0
BITMAP
F8
FC
FC
FC
FC
FC
FC
FC
FC
FC
FC
FC
FC
FC
FC
FC
FC
FC
FC
FC
FC
FC
FC
FC
FC
FC
FC
FC
FC
FC
FC
FC
FC
F8
ENDCHAR
STARTCHAR U+006D
ENCODING 109
SWIDTH 500 0
DWIDTH 32 0
BBX 28 25 2 0
BITMAP
FCF81F00
FFFE7FC0
FFFEFFC0
FFFFFFE0
FFFFFFE0
FE3FC7F0
FC1F83F0
FC1F83F0
FC1F83F0
FC1F83F0
FC1F83F0
FC1F83F0
FC1F83F0
FC1F83F0
FC1F83F0
FC1F83F0
FC1F83F0
FC1F83F0
FC1F83F0
FC1F83F0
FC1F83F0
FC1F83F0
FC1F83F0
FC1F83F0
FC1F83F0
ENDCHAR
STARTCHAR U+006E
ENCODING 110
SWIDTH 500 0
DWIDTH 21 0
BBX 17 25 2 0
BITMAP
FCF800
FFFE00
FFFF00
FFFF00
FFFF80
FE3F80
FC1F80
FC1F80
FC1F80
FC1F80
FC1F80
FC1F80
FC1F80
FC1F80
FC1F80
FC1F80
FC1F80
FC1F80
FC1F80
FC1F80
FC1F80
FC1F80
FC1F80
FC1F80
FC0F80
ENDCHAR
STARTCHAR U+006F
ENCODING 111
SWIDTH 500 0
DWIDTH 21 0
BBX 17 25 2 0
BITMAP
07F000
1FFC00
3FFE00
7FFF00
FFFF00
FE3F80
FC1F80
F81F80
F81F80
F81F80
F81F80
F81F80
F81F80
F81F80
F81F80
F81F80
F81F80
F81F80
FC1F80
FE3F80
FFFF00
7FFF00
3FFE00
1FFC00
07F000
ENDCHAR
STARTCHAR U+0070
ENCODING 112
SWIDTH 500 0
DWIDTH 21 0
BBX 17 34 2 -9
BITMAP
7CF800
FFFE00
FFFF00
FFFF00
FFFF80
FE1F80
FC1F80
FC0F80
FC0F80
FC0F80
FC0F80
FC0F80
FC0F80
FC0F80
FC0F80
FC0F80
FC0F80
FC0F80
FC1F80
FE1F80
FFFF80
FFFF00
FFFF00
FFFE00
FCF800
FC0000
FC0000
FC0000
FC0000
FC0000
FC0000
FC0000
FC0000
FC0000
ENDCHAR
STARTCHAR U+0071
ENCODING 113
SWIDTH 500 0
DWIDTH 21 0
BBX 17 34 2 -9
BITMAP
0F9F80
3FFF80
7FFF80
7FFF80
FFFF80
FE3F80
FC1F80
F81F80
F81F80
F81F80
F81F80
F81F80
F81F80
F81F80
F81F80
F81F80
F81F80
F81F80
FC1F80
FC3F80
FFFF80
7FFF80
7FFF80
3FFF80
0F9F80
001F80
001F80
001F80
001F80
001F80
001F80
001F80
001F80
001F80
ENDCHAR
STARTCHAR U+0072
ENCODING 114
SWIDTH 500 0
DWIDTH 15 0
BBX 12 25 2 0
BITMAP
FCF0
FDF0
FFF0
FFF0
FFF0
FFF0
FF00
FE00
FC00
FC00
FC00
FC00
FC00
FC00
FC00
FC00
FC00
FC00
FC00
FC00
FC00
FC00
FC00
FC00
FC00
ENDCHAR
STARTCHAR U+0073
ENCODING 115
SWIDTH 500 0
DWIDTH 19 0
BBX 17 25 1 0
BITMAP
07F000
1FFC00
3FFE00
3FFF00
7FFF00
7E1F00
7C1F80
7C0F80
7C0000
7E0000
7F8000
3FF000
1FFC00
0FFE00
03FF00
007F80
003F80
001F80
FC1F80
7C1F80
7E3F80
7FFF00
3FFF00
1FFC00
07F000
ENDCHAR
STARTCHAR U+0074
ENCODING 116
SWIDTH 500 0
DWIDTH 14 0
BBX 11 31 1 0
BITMAP
1E00
3F00
3F00
3F00
3F00
3F00
FFE0
FFE0
FFE0
FFE0
3F00
3F00
3F00
3F00
3F00
3F00
3F00
3F00
3F00
3F00
3F00
3F00
3F00
3F00
3F00
3F00
3FE0
1FE0
1FE0
0FE0
07E0
ENDCHAR
STARTCHAR U+0075
ENCODING 117
SWIDTH 500 0
DWIDTH 21 0
BBX 17 25 2 0
BITMAP
F81F80
FC1F80
FC1F80
FC1F80
FC1F80
FC1F80
FC1F80
FC1F80
FC1F80
FC1F80
FC1F80
FC1F80
FC1F80
FC1F80
FC1F80
FC1F80
FC1F80
FC1F80
FC1F80
FE3F80
FFFF80
7FFF80
7FFF80
3FFF80
0F9F80
ENDCHAR
STARTCHAR U+0076
ENCODING 118
SWIDTH 500 0
DWIDTH 20 0
BBX 18 25 1 0
BITMAP
FC0FC0
FC0FC0
FC0FC0
7E1F80
7E1F80
7E1F80
7E1F80
3E1F00
3E3F00
3F3F00
3F3F00
1F3E00
1F3E00
1F3E00
1FFE00
0FFC00
0FFC00
0FFC00
0FFC00
07F800
07F800
07F800
07F800
03F000
03F000
ENDCHAR
STARTCHAR U+0077
ENCODING 119
SWIDTH 500 0
DWIDTH 28 0
BBX 26 25 1 0
BITMAP
F81F07C0
F81F07C0
FC3F07C0
FC3F07C0
7C3F07C0
7C3F8F80
7C3F8F80
7C3F8F80
3E7F8F80
3E7F8F80
3E7F8F00
3E7FDF00
3E7BDF00
1EF3DF00
1FF3DF00
1FF3FE00
1FF3FE00
0FF1FE00
0FF1FE00
0FE1FC00
0FE1FC00
0FE1FC00
07E1FC00
07E0FC00
07C0F800
ENDCHAR
STARTCHAR U+0078
ENCODING 120
SWIDTH 500 0
DWIDTH 20 0
BBX 18 25 1 0
BITMAP
FC0FC0
FC0FC0
7E1F80
7E1F80
3F3F00
3F3F00
1FFE00
1FFE00
0FFC00
0FFC00
07F800
07F800
07F800
07F800
07F800
0FFC00
0FFC00
1FFE00
1FFE00
3F3F00
3F3F00
7E1F80
7E1F80
FC0FC0
FC0FC0
ENDCHAR
STARTCHAR U+0079
ENCODING 121
SWIDTH 500 0
DWIDTH 19 0
BBX 17 34 1 -9
BITMAP
FC0F80
FC1F80
FC1F80
FC1F80
7C1F80
7E1F00
7E1F00
3E3F00
3E3F00
3E3E00
3E3E00
1F3E00
1F3E00
1F7C00
1F7C00
0F7C00
0FFC00
0FF800
0FF800
07F800
07F000
07F000
07F000
03F000
03E000
03E000
07E000
07E000
0FC000
7FC000
7F8000
7F8000
7F0000
7C0000
ENDCHAR
STARTCHAR U+007A
ENCODING 122
SWIDTH 500 0
DWIDTH 18 0
BBX 16 25 1 0
BITMAP
FFFE
FFFE
FFFE
FFFE
7FFE
00FE
00FC
01FC
01F8
03F8
03F0
07F0
0FE0
0FC0
1FC0
1F80
3F80
3F00
7E00
7E00
FFFE
FFFF
FFFF
FFFF
FFFF
ENDCHAR
STARTCHAR U+007B
ENCODING 123
SWIDTH 500 0
DWIDTH 15 0
BBX 13 45 1 -7
BITMAP
01F8
07F8
0FF8
0FF8
0FF8
1FC0
1F80
1F80
1F80
1F80
1F80
1F80
1F80
1F80
1F80
1F80
1F80
1F80
1F80
3F80
FF00
FF00
FE00
FE00
7F00
3F80
1F80
1F80
1F80
1F80
1F80
1F80
1F80
1F80
1F80
1F80
1F80
1F80
1F80
1FC0
0FF8
0FF8
0FF8
07F8
03F8
ENDCHAR
STARTCHAR U+007C
ENCODING 124
SWIDTH 500 0
DWIDTH 8 0
BBX 6 40 1 -4
BITMAP
FC
FC
FC
FC
FC
FC
FC
FC
FC
FC
FC
FC
FC
FC
FC
FC
FC
FC
FC
FC
FC
FC
FC
FC
FC
FC
FC
FC
FC
FC
FC
FC
FC
FC
FC
FC
FC
FC
FC
FC
ENDCHAR
STARTCHAR U+007D
ENCODING 125
SWIDTH 500 0
DWIDTH 15 0
BBX 13 45 1 -7
BITMAP
7C00
FF00
FF80
FF80
FFC0
1FC0
0FC0
0FC0
0FC0
0FC0
0FC0
0FC0
0FC0
0FC0
0FC0
0FC0
0FC0
0FC0
0FC0
07E0
07F8
03F8
01F8
03F8
07F8
07E0
0FC0
0FC0
0FC0
0FC0
0FC0
0FC0
0FC0
0FC0
0FC0
0FC0
0FC0
0FC0
0FC0
1FC0
7FC0
FFC0
FF80
FF00
FE00
ENDCHAR
STARTCHAR U+007E
ENCODING 126
SWIDTH 500 0
DWIDTH 23 0
BBX 19 8 2 10
BITMAP
0E0000
3F8080
7FE1E0
FFFFE0
FFFFE0
F0FFC0
607F80
001F00
ENDCHAR
STARTCHAR U+00B7
ENCODING 183
SWIDTH 500 0
DWIDTH 10 0
BBX 6 7 2 10
BITMAP
78
FC
FC
FC
FC
FC
78
ENDCHAR
STARTCHAR U+00D7
ENCODING 215
SWIDTH 500 0
DWIDTH 19 0
BBX 15 16 2 7
BITMAP
2008
701C
F83E
FC7E
7EFC
3FF8
1FF0
0FE0
0FE0
1FF0
3FF8
7EFC
FC7E
F83E
701C
2008
ENDCHAR
STARTCHAR U+2460
ENCODING 9312
SWIDTH 500 0
DWIDTH 18 0
BBX 18 34 0 0
BITMAP
FFFFC0
FFFFC0
FFFFC0
FFFFC0
FFFFC0
FE0FC0
F803C0
F003C0
F001C0
E0E1C0
E1E0C0
E1F0C0
E1F0C0
FFE0C0
FFE1C0
FFC1C0
FF83C0
FF07C0
FE0FC0
FE1FC0
FE1FC0
FE1FC0
FE1FC0
FFFFC0
FFFFC0
FE3FC0
FE1FC0
FE1FC0
FE1FC0
FF3FC0
FFFFC0
FFFFC0
FFFFC0
FFFFC0
ENDCHAR
STARTCHAR U+2461
ENCODING 9313
SWIDTH 500 0
DWIDTH 18 0
BBX 18 34 0 0
BITMAP
FFFFC0
FFFFC0
FFFFC0
FFFFC0
FFFFC0
FE0FC0
F803C0
F003C0
F001C0
E0E1C0
E1E0C0
E1F0C0
E1F0C0
FFE0C0
FFE1C0
FFC1C0
FF83C0
FF07C0
FE0FC0
FE1FC0
FE1FC0
FE1FC0
FE1FC0
FFFFC0
FFFFC0
FE3FC0
FE1FC0
FE1FC0
FE1FC0
FF3FC0
FFFFC0
FFFFC0
FFFFC0
FFFFC0
ENDCHAR
STARTCHAR U+2462
ENCODING 9314
SWIDTH 500 0
DWIDTH 18 0
BBX 18 34 0 0
BITMAP
FFFFC0
FFFFC0
FFFFC0
FFFFC0
FFFFC0
FE0FC0
F803C0
F003C0
F001C0
E0E1C0
E1E0C0
E1F0C0
E1F0C0
FFE0C0
FFE1C0
FFC1C0
FF83C0
FF07C0
FE0FC0
FE1FC0
FE1FC0
FE1FC0
FE1FC0
FFFFC0
FFFFC0
FE3FC0
FE1FC0
FE1FC0
FE1FC0
FF3FC0
FFFFC0
FFFFC0
FFFFC0
FFFFC0
ENDCHAR
STARTCHAR U+2463
ENCODING 9315
SWIDTH 500 0
DWIDTH 18 0
BBX 18 34 0 0
BITMAP
FFFFC0
FFFFC0
FFFFC0
FFFFC0
FFFFC0
FE0FC0
F803C0
F003C0
F001C0
E0E1C0
E1E0C0
E1F0C0
E1F0C0
FFE0C0
FFE1C0
FFC1C0
FF83C0
FF07C0
FE0FC0
FE1FC0
FE1FC0
FE1FC0
FE1FC0
FFFFC0
FFFFC0
FE3FC0
FE1FC0
FE1FC0
FE1FC0
FF3FC0
FFFFC0
FFFFC0
FFFFC0
FFFFC0
ENDCHAR
STARTCHAR U+2464
ENCODING 9316
SWIDTH 500 0
DWIDTH 18 0
BBX 18 34 0 0
BITMAP
FFFFC0
FFFFC0
FFFFC0
FFFFC0
FFFFC0
FE0FC0
F803C0
F003C0
F001C0
E0E1C0
E1E0C0
E1F0C0
E1F0C0
FFE0C0
FFE1C0
FFC1C0
FF83C0
FF07C0
FE0FC0
FE1FC0
FE1FC0
FE1FC0
FE1FC0
FFFFC0
FFFFC0
FE3FC0
FE1FC0
FE1FC0
FE1FC0
FF3FC0
FFFFC0
FFFFC0
FFFFC0
FFFFC0
ENDCHAR
STARTCHAR U+3001
ENCODING 12289
SWIDTH 500 0
DWIDTH 18 0
BBX 18 34 0 0
BITMAP
FFFFC0
FFFFC0
FFFFC0
FFFFC0
FFFFC0
FE0FC0
F803C0
F003C0
F001C0
E0E1C0
E1E0C0
E1F0C0
E1F0C0
FFE0C0
FFE1C0
FFC1C0
FF83C0
FF07C0
FE0FC0
FE1FC0
FE1FC0
FE1FC0
FE1FC0
FFFFC0
FFFFC0
FE3FC0
FE1FC0
FE1FC0
FE1FC0
FF3FC0
FFFFC0
FFFFC0
FFFFC0
FFFFC0
ENDCHAR
STARTCHAR U+3002
ENCODING 12290
SWIDTH 500 0
DWIDTH 18 0
BBX 18 34 0 0
BITMAP
FFFFC0
FFFFC0
FFFFC0
FFFFC0
FFFFC0
FE0FC0
F803C0
F003C0
F001C0
E0E1C0
E1E0C0
E1F0C0
E1F0C0
FFE0C0
FFE1C0
FFC1C0
FF83C0
FF07C0
FE0FC0
FE1FC0
FE1FC0
FE1FC0
FE1FC0
FFFFC0
FFFFC0
FE3FC0
FE1FC0
FE1FC0
FE1FC0
FF3FC0
FFFFC0
FFFFC0
FFFFC0
FFFFC0
ENDCHAR
STARTCHAR U+3010
ENCODING 12304
SWIDTH 500 0
DWIDTH 18 0
BBX 18 34 0 0
BITMAP
FFFFC0
FFFFC0
FFFFC0
FFFFC0
FFFFC0
FE0FC0
F803C0
F003C0
F001C0
E0E1C0
E1E0C0
E1F0C0
E1F0C0
FFE0C0
FFE1C0
FFC1C0
FF83C0
FF07C0
FE0FC0
FE1FC0
FE1FC0
FE1FC0
FE1FC0
FFFFC0
FFFFC0
FE3FC0
FE1FC0
FE1FC0
FE1FC0
FF3FC0
FFFFC0
FFFFC0
FFFFC0
FFFFC0
ENDCHAR
STARTCHAR U+3011
ENCODING 12305
SWIDTH 500 0
DWIDTH 18 0
BBX 18 34 0 0
BITMAP
FFFFC0
FFFFC0
FFFFC0
FFFFC0
FFFFC0
FE0FC0
F803C0
F003C0
F001C0
E0E1C0
E1E0C0
E1F0C0
E1F0C0
FFE0C0
FFE1C0
FFC1C0
FF83C0
FF07C0
FE0FC0
FE1FC0
FE1FC0
FE1FC0
FE1FC0
FFFFC0
FFFFC0
FE3FC0
FE1FC0
FE1FC0
FE1FC0
FF3FC0
FFFFC0
FFFFC0
FFFFC0
FFFFC0
ENDCHAR
STARTCHAR U+4E00
ENCODING 19968
SWIDTH 500 0
DWIDTH 18 0
BBX 18 34 0 0
BITMAP
FFFFC0
FFFFC0
FFFFC0
FFFFC0
FFFFC0
FE0FC0
F803C0
F003C0
F001C0
E0E1C0
E1E0C0
E1F0C0
E1F0C0
FFE0C0
FFE1C0
FFC1C0
FF83C0
FF07C0
FE0FC0
FE1FC0
FE1FC0
FE1FC0
FE1FC0
FFFFC0
FFFFC0
FE3FC0
FE1FC0
FE1FC0
FE1FC0
FF3FC0
FFFFC0
FFFFC0
FFFFC0
FFFFC0
ENDCHAR
STARTCHAR U+4E01
ENCODING 19969
SWIDTH 500 0
DWIDTH 18 0
BBX 18 34 0 0
BITMAP
FFFFC0
FFFFC0
FFFFC0
FFFFC0
FFFFC0
FE0FC0
F803C0
F003C0
F001C0
E0E1C0
E1E0C0
E1F0C0
E1F0C0
FFE0C0
FFE1C0
FFC1C0
FF83C0
FF07C0
FE0FC0
FE1FC0
FE1FC0
FE1FC0
FE1FC0
FFFFC0
FFFFC0
FE3FC0
FE1FC0
FE1FC0
FE1FC0
FF3FC0
FFFFC0
FFFFC0
FFFFC0
FFFFC0
ENDCHAR
STARTCHAR U+4E09
ENCODING 19977
SWIDTH 500 0
DWIDTH 18 0
BBX 18 34 0 0
BITMAP
FFFFC0
FFFFC0
FFFFC0
FFFFC0
FFFFC0
FE0FC0
F803C0
F003C0
F001C0
E0E1C0
E1E0C0
E1F0C0
E1F0C0
FFE0C0
FFE1C0
FFC1C0
FF83C0
FF07C0
FE0FC0
FE1FC0
FE1FC0
FE1FC0
FE1FC0
FFFFC0
FFFFC0
FE3FC0
FE1FC0
FE1FC0
FE1FC0
FF3FC0
FFFFC0
FFFFC0
FFFFC0
FFFFC0
ENDCHAR
STARTCHAR U+4E0A
ENCODING 19978
SWIDTH 500 0
DWIDTH 18 0
BBX 18 34 0 0
BITMAP
FFFFC0
FFFFC0
FFFFC0
FFFFC0
FFFFC0
FE0FC0
F803C0
F003C0
F001C0
E0E1C0
E1E0C0
E1F0C0
E1F0C0
FFE0C0
FFE1C0
FFC1C0
FF83C0
FF07C0
FE0FC0
FE1FC0
FE1FC0
FE1FC0
FE1FC0
FFFFC0
FFFFC0
FE3FC0
FE1FC0
FE1FC0
FE1FC0
FF3FC0
FFFFC0
FFFFC0
FFFFC0
FFFFC0
ENDCHAR
STARTCHAR U+4E11
ENCODING 19985
SWIDTH 500 0
DWIDTH 18 0
BBX 18 34 0 0
BITMAP
FFFFC0
FFFFC0
FFFFC0
FFFFC0
FFFFC0
FE0FC0
F803C0
F003C0
F001C0
E0E1C0
E1E0C0
E1F0C0
E1F0C0
FFE0C0
FFE1C0
FFC1C0
FF83C0
FF07C0
FE0FC0
FE1FC0
FE1FC0
FE1FC0
FE1FC0
FFFFC0
FFFFC0
FE3FC0
FE1FC0
FE1FC0
FE1FC0
FF3FC0
FFFFC0
FFFFC0
FFFFC0
FFFFC0
ENDCHAR
STARTCHAR U+4E19
ENCODING 19993
SWIDTH 500 0
DWIDTH 18 0
BBX 18 34 0 0
BITMAP
FFFFC0
FFFFC0
FFFFC0
FFFFC0
FFFFC0
FE0FC0
F803C0
F003C0
F001C0
E0E1C0
E1E0C0
E1F0C0
E1F0C0
FFE0C0
FFE1C0
FFC1C0
FF83C0
FF07C0
FE0FC0
FE1FC0
FE1FC0
FE1FC0
FE1FC0
FFFFC0
FFFFC0
FE3FC0
FE1FC0
FE1FC0
FE1FC0
FF3FC0
FFFFC0
FFFFC0
FFFFC0
FFFFC0
ENDCHAR
STARTCHAR U+4E2D
ENCODING 20013
SWIDTH 500 0
DWIDTH 18 0
BBX 18 34 0 0
BITMAP
FFFFC0
FFFFC0
FFFFC0
FFFFC0
FFFFC0
FE0FC0
F803C0
F003C0
F001C0
E0E1C0
E1E0C0
E1F0C0
E1F0C0
FFE0C0
FFE1C0
FFC1C0
FF83C0
FF07C0
FE0FC0
FE1FC0
FE1FC0
FE1FC0
FE1FC0
FFFFC0
FFFFC0
FE3FC0
FE1FC0
FE1FC0
FE1FC0
FF3FC0
FFFFC0
FFFFC0
FFFFC0
FFFFC0
ENDCHAR
STARTCHAR U+4E3E
ENCODING 20030
SWIDTH 500 0
DWIDTH 18 0
BBX 18 34 0 0
BITMAP
FFFFC0
FFFFC0
FFFFC0
FFFFC0
FFFFC0
FE0FC0
F803C0
F003C0
F001C0
E0E1C0
E1E0C0
E1F0C0
E1F0C0
FFE0C0
FFE1C0
FFC1C0
FF83C0
FF07C0
FE0FC0
FE1FC0
FE1FC0
FE1FC0
FE1FC0
FFFFC0
FFFFC0
FE3FC0
FE1FC0
FE1FC0
FE1FC0
FF3FC0
FFFFC0
FFFFC0
FFFFC0
FFFFC0
ENDCHAR
STARTCHAR U+4E59
ENCODING 20057
SWIDTH 500 0
DWIDTH 18 0
BBX 18 34 0 0
BITMAP
FFFFC0
FFFFC0
FFFFC0
FFFFC0
FFFFC0
FE0FC0
F803C0
F003C0
F001C0
E0E1C0
E1E0C0
E1F0C0
E1F0C0
FFE0C0
FFE1C0
FFC1C0
FF83C0
FF07C0
FE0FC0
FE1FC0
FE1FC0
FE1FC0
FE1FC0
FFFFC0
FFFFC0
FE3FC0
FE1FC0
FE1FC0
FE1FC0
FF3FC0
FFFFC0
FFFFC0
FFFFC0
FFFFC0
ENDCHAR
STARTCHAR U+4E5D
ENCODING 20061
SWIDTH 500 0
DWIDTH 18 0
BBX 18 34 0 0
BITMAP
FFFFC0
FFFFC0
FFFFC0
FFFFC0
FFFFC0
FE0FC0
F803C0
F003C0
F001C0
E0E1C0
E1E0C0
E1F0C0
E1F0C0
FFE0C0
FFE1C0
FFC1C0
FF83C0
FF07C0
FE0FC0
FE1FC0
FE1FC0
FE1FC0
FE1FC0
FFFFC0
FFFFC0
FE3FC0
FE1FC0
FE1FC0
FE1FC0
FF3FC0
FFFFC0
FFFFC0
FFFFC0
FFFFC0
ENDCHAR
STARTCHAR U+4E61
ENCODING 20065
SWIDTH 500 0
DWIDTH 18 0
BBX 18 34 0 0
BITMAP
FFFFC0
FFFFC0
FFFFC0
FFFFC0
FFFFC0
FE0FC0
F803C0
F003C0
F001C0
E0E1C0
E1E0C0
E1F0C0
E1F0C0
FFE0C0
FFE1C0
FFC1C0
FF83C0
FF07C0
FE0FC0
FE1FC0
FE1FC0
FE1FC0
FE1FC0
FFFFC0
FFFFC0
FE3FC0
FE1FC0
FE1FC0
FE1FC0
FF3FC0
FFFFC0
FFFFC0
FFFFC0
FFFFC0
ENDCHAR
STARTCHAR U+4E8C
ENCODING 20108
SWIDTH 500 0
DWIDTH 18 0
BBX 18 34 0 0
BITMAP
FFFFC0
FFFFC0
FFFFC0
FFFFC0
FFFFC0
FE0FC0
F803C0
F003C0
F001C0
E0E1C0
E1E0C0
E1F0C0
E1F0C0
FFE0C0
FFE1C0
FFC1C0
FF83C0
FF07C0
FE0FC0
FE1FC0
FE1FC0
FE1FC0
FE1FC0
FFFFC0
FFFFC0
FE3FC0
FE1FC0
FE1FC0
FE1FC0
FF3FC0
FFFFC0
FFFFC0
FFFFC0
FFFFC0
ENDCHAR
STARTCHAR U+4E94
ENCODING 20116
SWIDTH 500 0
DWIDTH 18 0
BBX 18 34 0 0
BITMAP
FFFFC0
FFFFC0
FFFFC0
FFFFC0
FFFFC0
FE0FC0
F803C0
F003C0
F001C0
E0E1C0
E1E0C0
E1F0C0
E1F0C0
FFE0C0
FFE1C0
FFC1C0
FF83C0
FF07C0
FE0FC0
FE1FC0
FE1FC0
FE1FC0
FE1FC0
FFFFC0
FFFFC0
FE3FC0
FE1FC0
FE1FC0
FE1FC0
FF3FC0
FFFFC0
FFFFC0
FFFFC0
FFFFC0
ENDCHAR
STARTCHAR U+4ECA
ENCODING 20170
SWIDTH 500 0
DWIDTH 18 0
BBX 18 34 0 0
BITMAP
FFFFC0
FFFFC0
FFFFC0
FFFFC0
FFFFC0
FE0FC0
F803C0
F003C0
F001C0
E0E1C0
E1E0C0
E1F0C0
E1F0C0
FFE0C0
FFE1C0
FFC1C0
FF83C0
FF07C0
FE0FC0
FE1FC0
FE1FC0
FE1FC0
FE1FC0
FFFFC0
FFFFC0
FE3FC0
FE1FC0
FE1FC0
FE1FC0
FF3FC0
FFFFC0
FFFFC0
FFFFC0
FFFFC0
ENDCHAR
STARTCHAR U+4F11
ENCODING 20241
SWIDTH 500 0
DWIDTH 18 0
BBX 18 34 0 0
BITMAP
FFFFC0
FFFFC0
FFFFC0
FFFFC0
FFFFC0
FE0FC0
F803C0
F003C0
F001C0
E0E1C0
E1E0C0
E1F0C0
E1F0C0
FFE0C0
FFE1C0
FFC1C0
FF83C0
FF07C0
FE0FC0
FE1FC0
FE1FC0
FE1FC0
FE1FC0
FFFFC0
FFFFC0
FE3FC0
FE1FC0
FE1FC0
FE1FC0
FF3FC0
FFFFC0
FFFFC0
FFFFC0
FFFFC0
ENDCHAR
STARTCHAR U+4F4E
ENCODING 20302
SWIDTH 500 0
DWIDTH 18 0
BBX 18 34 0 0
BITMAP
FFFFC0
FFFFC0
FFFFC0
FFFFC0
FFFFC0
FE0FC0
F803C0
F003C0
F001C0
E0E1C0
E1E0C0
E1F0C0
E1F0C0
FFE0C0
FFE1C0
FFC1C0
FF83C0
FF07C0
FE0FC0
FE1FC0
FE1FC0
FE1FC0
FE1FC0
FFFFC0
FFFFC0
FE3FC0
FE1FC0
FE1FC0
FE1FC0
FF3FC0
FFFFC0
FFFFC0
FFFFC0
FFFFC0
ENDCHAR
STARTCHAR U+4F53
ENCODING 20307
SWIDTH 500 0
DWIDTH 18 0
BBX 18 34 0 0
BITMAP
FFFFC0
FFFFC0
FFFFC0
FFFFC0
FFFFC0
FE0FC0
F803C0
F003C0
F001C0
E0E1C0
E1E0C0
E1F0C0
E1F0C0
FFE0C0
FFE1C0
FFC1C0
FF83C0
FF07C0
FE0FC0
FE1FC0
FE1FC0
FE1FC0
FE1FC0
FFFFC0
FFFFC0
FE3FC0
FE1FC0
FE1FC0
FE1FC0
FF3FC0
FFFFC0
FFFFC0
FFFFC0
FFFFC0
ENDCHAR
STARTCHAR U+4FA7
ENCODING 20391
SWIDTH 500 0
DWIDTH 18 0
BBX 18 34 0 0
BITMAP
FFFFC0
FFFFC0
FFFFC0
FFFFC0
FFFFC0
FE0FC0
F803C0
F003C0
F001C0
E0E1C0
E1E0C0
E1F0C0
E1F0C0
FFE0C0
FFE1C0
FFC1C0
FF83C0
FF07C0
FE0FC0
FE1FC0
FE1FC0
FE1FC0
FE1FC0
FFFFC0
FFFFC0
FE3FC0
FE1FC0
FE1FC0
FE1FC0
FF3FC0
FFFFC0
FFFFC0
FFFFC0
FFFFC0
ENDCHAR
STARTCHAR U+50CF
ENCODING 20687
SWIDTH 500 0
DWIDTH 18 0
BBX 18 34 0 0
BITMAP
FFFFC0
FFFFC0
FFFFC0
FFFFC0
FFFFC0
FE0FC0
F803C0
F003C0
F001C0
E0E1C0
E1E0C0
E1F0C0
E1F0C0
FFE0C0
FFE1C0
FFC1C0
FF83C0
FF07C0
FE0FC0
FE1FC0
FE1FC0
FE1FC0
FE1FC0
FFFFC0
FFFFC0
FE3FC0
FE1FC0
FE1FC0
FE1FC0
FF3FC0
FFFFC0
FFFFC0
FFFFC0
FFFFC0
ENDCHAR
STARTCHAR U+5149
ENCODING 20809
SWIDTH 500 0
DWIDTH 18 0
BBX 18 34 0 0
BITMAP
FFFFC0
FFFFC0
FFFFC0
FFFFC0
FFFFC0
FE0FC0
F803C0
F003C0
F001C0
E0E1C0
E1E0C0
E1F0C0
E1F0C0
FFE0C0
FFE1C0
FFC1C0
FF83C0
FF07C0
FE0FC0
FE1FC0
FE1FC0
FE1FC0
FE1FC0
FFFFC0
FFFFC0
FE3FC0
FE1FC0
FE1FC0
FE1FC0
FF3FC0
FFFFC0
FFFFC0
FFFFC0
FFFFC0
ENDCHAR
STARTCHAR U+516B
ENCODING 20843
SWIDTH 500 0
DWIDTH 18 0
BBX 18 34 0 0
BITMAP
FFFFC0
FFFFC0
FFFFC0
FFFFC0
FFFFC0
FE0FC0
F803C0
F003C0
F001C0
E0E1C0
E1E0C0
E1F0C0
E1F0C0
FFE0C0
FFE1C0
FFC1C0
FF83C0
FF07C0
FE0FC0
FE1FC0
FE1FC0
FE1FC0
FE1FC0
FFFFC0
FFFFC0
FE3FC0
FE1FC0
FE1FC0
FE1FC0
FF3FC0
FFFFC0
FFFFC0
FFFFC0
FFFFC0
ENDCHAR
STARTCHAR U+519C
ENCODING 20892
SWIDTH 500 0
DWIDTH 18 0
BBX 18 34 0 0
BITMAP
FFFFC0
FFFFC0
FFFFC0
FFFFC0
FFFFC0
FE0FC0
F803C0
F003C0
F001C0
E0E1C0
E1E0C0
E1F0C0
E1F0C0
FFE0C0
FFE1C0
FFC1C0
FF83C0
FF07C0
FE0FC0
FE1FC0
FE1FC0
FE1FC0
FE1FC0
FFFFC0
FFFFC0
FE3FC0
FE1FC0
FE1FC0
FE1FC0
FF3FC0
FFFFC0
FFFFC0
FFFFC0
FFFFC0
ENDCHAR
STARTCHAR U+51FA
ENCODING 20986
SWIDTH 500 0
DWIDTH 18 0
BBX 18 34 0 0
BITMAP
FFFFC0
FFFFC0
FFFFC0
FFFFC0
FFFFC0
FE0FC0
F803C0
F003C0
F001C0
E0E1C0
E1E0C0
E1F0C0
E1F0C0
FFE0C0
FFE1C0
FFC1C0
FF83C0
FF07C0
FE0FC0
FE1FC0
FE1FC0
FE1FC0
FE1FC0
FFFFC0
FFFFC0
FE3FC0
FE1FC0
FE1FC0
FE1FC0
FF3FC0
FFFFC0
FFFFC0
FFFFC0
FFFFC0
ENDCHAR
STARTCHAR U+521D
ENCODING 21021
SWIDTH 500 0
DWIDTH 18 0
BBX 18 34 0 0
BITMAP
FFFFC0
FFFFC0
FFFFC0
FFFFC0
FFFFC0
FE0FC0
F803C0
F003C0
F001C0
E0E1C0
E1E0C0
E1F0C0
E1F0C0
FFE0C0
FFE1C0
FFC1C0
FF83C0
FF07C0
FE0FC0
FE1FC0
FE1FC0
FE1FC0
FE1FC0
FFFFC0
FFFFC0
FE3FC0
FE1FC0
FE1FC0
FE1FC0
FF3FC0
FFFFC0
FFFFC0
FFFFC0
FFFFC0
ENDCHAR
STARTCHAR U+524D
ENCODING 21069
SWIDTH 500 0
DWIDTH 18 0
BBX 18 34 0 0
BITMAP
FFFFC0
FFFFC0
FFFFC0
FFFFC0
FFFFC0
FE0FC0
F803C0
F003C0
F001C0
E0E1C0
E1E0C0
E1F0C0
E1F0C0
FFE0C0
FFE1C0
FFC1C0
FF83C0
FF07C0
FE0FC0
FE1FC0
FE1FC0
FE1FC0
FE1FC0
FFFFC0
FFFFC0
FE3FC0
FE1FC0
FE1FC0
FE1FC0
FF3FC0
FFFFC0
FFFFC0
FFFFC0
FFFFC0
ENDCHAR
STARTCHAR U+52A8
ENCODING 21160
SWIDTH 500 0
DWIDTH 18 0
BBX 18 34 0 0
BITMAP
FFFFC0
FFFFC0
FFFFC0
FFFFC0
FFFFC0
FE0FC0
F803C0
F003C0
F001C0
E0E1C0
E1E0C0
E1F0C0
E1F0C0
FFE0C0
FFE1C0
FFC1C0
FF83C0
FF07C0
FE0FC0
FE1FC0
FE1FC0
FE1FC0
FE1FC0
FFFFC0
FFFFC0
FE3FC0
FE1FC0
FE1FC0
FE1FC0
FF3FC0
FFFFC0
FFFFC0
FFFFC0
FFFFC0
ENDCHAR
STARTCHAR U+5341
ENCODING 21313
SWIDTH 500 0
DWIDTH 18 0
BBX 18 34 0 0
BITMAP
FFFFC0
FFFFC0
FFFFC0
FFFFC0
FFFFC0
FE0FC0
F803C0
F003C0
F001C0
E0E1C0
E1E0C0
E1F0C0
E1F0C0
FFE0C0
FFE1C0
FFC1C0
FF83C0
FF07C0
FE0FC0
FE1FC0
FE1FC0
FE1FC0
FE1FC0
FFFFC0
FFFFC0
FE3FC0
FE1FC0
FE1FC0
FE1FC0
FF3FC0
FFFFC0
FFFFC0
FFFFC0
FFFFC0
ENDCHAR
STARTCHAR U+5348
ENCODING 21320
SWIDTH 500 0
DWIDTH 18 0
BBX 18 34 0 0
BITMAP
FFFFC0
FFFFC0
FFFFC0
FFFFC0
FFFFC0
FE0FC0
F803C0
F003C0
F001C0
E0E1C0
E1E0C0
E1F0C0
E1F0C0
FFE0C0
FFE1C0
FFC1C0
FF83C0
FF07C0
FE0FC0
FE1FC0
FE1FC0
FE1FC0
FE1FC0
FFFFC0
FFFFC0
FE3FC0
FE1FC0
FE1FC0
FE1FC0
FF3FC0
FFFFC0
FFFFC0
FFFFC0
FFFFC0
ENDCHAR
STARTCHAR U+536F
ENCODING 21359
SWIDTH 500 0
DWIDTH 18 0
BBX 18 34 0 0
BITMAP
FFFFC0
FFFFC0
FFFFC0
FFFFC0
FFFFC0
FE0FC0
F803C0
F003C0
F001C0
E0E1C0
E1E0C0
E1F0C0
E1F0C0
FFE0C0
FFE1C0
FFC1C0
FF83C0
FF07C0
FE0FC0
FE1FC0
FE1FC0
FE1FC0
FE1FC0
FFFFC0
FFFFC0
FE3FC0
FE1FC0
FE1FC0
FE1FC0
FF3FC0
FFFFC0
FFFFC0
FFFFC0
FFFFC0
ENDCHAR
STARTCHAR U+5386
ENCODING 21382
SWIDTH 500 0
DWIDTH 18 0
BBX 18 34 0 0
BITMAP
FFFFC0
FFFFC0
FFFFC0
FFFFC0
FFFFC0
FE0FC0
F803C0
F003C0
F001C0
E0E1C0
E1E0C0
E1F0C0
E1F0C0
FFE0C0
FFE1C0
FFC1C0
FF83C0
FF07C0
FE0FC0
FE1FC0
FE1FC0
FE1FC0
FE1FC0
FFFFC0
FFFFC0
FE3FC0
FE1FC0
FE1FC0
FE1FC0
FF3FC0
FFFFC0
FFFFC0
FFFFC0
FFFFC0
ENDCHAR
STARTCHAR U+539F
ENCODING 21407
SWIDTH 500 0
DWIDTH 18 0
BBX 18 34 0 0
BITMAP
FFFFC0
FFFFC0
FFFFC0
FFFFC0
FFFFC0
FE0FC0
F803C0
F003C0
F001C0
E0E1C0
E1E0C0
E1F0C0
E1F0C0
FFE0C0
FFE1C0
FFC1C0
FF83C0
FF07C0
FE0FC0
FE1FC0
FE1FC0
FE1FC0
FE1FC0
FFFFC0
FFFFC0
FE3FC0
FE1FC0
FE1FC0
FE1FC0
FF3FC0
FFFFC0
FFFFC0
FFFFC0
FFFFC0
ENDCHAR
STARTCHAR U+53C2
ENCODING 21442
SWIDTH 500 0
DWIDTH 18 0
BBX 18 34 0 0
BITMAP
FFFFC0
FFFFC0
FFFFC0
FFFFC0
FFFFC0
FE0FC0
F803C0
F003C0
F001C0
E0E1C0
E1E0C0
E1F0C0
E1F0C0
FFE0C0
FFE1C0
FFC1C0
FF83C0
FF07C0
FE0FC0
FE1FC0
FE1FC0
FE1FC0
FE1FC0
FFFFC0
FFFFC0
FE3FC0
FE1FC0
FE1FC0
FE1FC0
FF3FC0
FFFFC0
FFFFC0
FFFFC0
FFFFC0
ENDCHAR
STARTCHAR U+53F3
ENCODING 21491
SWIDTH 500 0
DWIDTH 18 0
BBX 18 34 0 0
BITMAP
FFFFC0
FFFFC0
FFFFC0
FFFFC0
FFFFC0
FE0FC0
F803C0
F003C0
F001C0
E0E1C0
E1E0C0
E1F0C0
E1F0C0
FFE0C0
FFE1C0
FFC1C0
FF83C0
FF07C0
FE0FC0
FE1FC0
FE1FC0
FE1FC0
FE1FC0
FFFFC0
FFFFC0
FE3FC0
FE1FC0
FE1FC0
FE1FC0
FF3FC0
FFFFC0
FFFFC0
FFFFC0
FFFFC0
ENDCHAR
STARTCHAR U+53F7
ENCODING 21495
SWIDTH 500 0
DWIDTH 18 0
BBX 18 34 0 0
BITMAP
FFFFC0
FFFFC0
FFFFC0
FFFFC0
FFFFC0
FE0FC0
F803C0
F003C0
F001C0
E0E1C0
E1E0C0
E1F0C0
E1F0C0
FFE0C0
FFE1C0
FFC1C0
FF83C0
FF07C0
FE0FC0
FE1FC0
FE1FC0
FE1FC0
FE1FC0
FFFFC0
FFFFC0
FE3FC0
FE1FC0
FE1FC0
FE1FC0
FF3FC0
FFFFC0
FFFFC0
FFFFC0
FFFFC0
ENDCHAR
STARTCHAR U+540D
ENCODING 21517
SWIDTH 500 0
DWIDTH 18 0
BBX 18 34 0 0
BITMAP
FFFFC0
FFFFC0
FFFFC0
FFFFC0
FFFFC0
FE0FC0
F803C0
F003C0
F001C0
E0E1C0
E1E0C0
E1F0C0
E1F0C0
FFE0C0
FFE1C0
FFC1C0
FF83C0
FF07C0
FE0FC0
FE1FC0
FE1FC0
FE1FC0
FE1FC0
FFFFC0
FFFFC0
FE3FC0
FE1FC0
FE1FC0
FE1FC0
FF3FC0
FFFFC0
FFFFC0
FFFFC0
FFFFC0
ENDCHAR
STARTCHAR U+5468
ENCODING 21608
SWIDTH 500 0
DWIDTH 18 0
BBX 18 34 0 0
BITMAP
FFFFC0
FFFFC0
FFFFC0
FFFFC0
FFFFC0
FE0FC0
F803C0
F003C0
F001C0
E0E1C0
E1E0C0
E1F0C0
E1F0C0
FFE0C0
FFE1C0
FFC1C0
FF83C0
FF07C0
FE0FC0
FE1FC0
FE1FC0
FE1FC0
FE1FC0
FFFFC0
FFFFC0
FE3FC0
FE1FC0
FE1FC0
FE1FC0
FF3FC0
FFFFC0
FFFFC0
FFFFC0
FFFFC0
ENDCHAR
STARTCHAR U+56DB
ENCODING 22235
SWIDTH 500 0
DWIDTH 18 0
BBX 18 34 0 0
BITMAP
FFFFC0
FFFFC0
FFFFC0
FFFFC0
FFFFC0
FE0FC0
F803C0
F003C0
F001C0
E0E1C0
E1E0C0
E1F0C0
E1F0C0
FFE0C0
FFE1C0
FFC1C0
FF83C0
FF07C0
FE0FC0
FE1FC0
FE1FC0
FE1FC0
FE1FC0
FFFFC0
FFFFC0
FE3FC0
FE1FC0
FE1FC0
FE1FC0
FF3FC0
FFFFC0
FFFFC0
FFFFC0
FFFFC0
ENDCHAR
STARTCHAR U+5708
ENCODING 22280
SWIDTH 500 0
DWIDTH 18 0
BBX 18 34 0 0
BITMAP
FFFFC0
FFFFC0
FFFFC0
FFFFC0
FFFFC0
FE0FC0
F803C0
F003C0
F001C0
E0E1C0
E1E0C0
E1F0C0
E1F0C0
FFE0C0
FFE1C0
FFC1C0
FF83C0
FF07C0
FE0FC0
FE1FC0
FE1FC0
FE1FC0
FE1FC0
FFFFC0
FFFFC0
FE3FC0
FE1FC0
FE1FC0
FE1FC0
FF3FC0
FFFFC0
FFFFC0
FFFFC0
FFFFC0
ENDCHAR
STARTCHAR U+571F
ENCODING 22303
SWIDTH 500 0
DWIDTH 18 0
BBX 18 34 0 0
BITMAP
FFFFC0
FFFFC0
FFFFC0
FFFFC0
FFFFC0
FE0FC0
F803C0
F003C0
F001C0
E0E1C0
E1E0C0
E1F0C0
E1F0C0
FFE0C0
FFE1C0
FFC1C0
FF83C0
FF07C0
FE0FC0
FE1FC0
FE1FC0
FE1FC0
FE1FC0
FFFFC0
FFFFC0
FE3FC0
FE1FC0
FE1FC0
FE1FC0
FF3FC0
FFFFC0
FFFFC0
FFFFC0
FFFFC0
ENDCHAR
STARTCHAR U+5730
ENCODING 22320
SWIDTH 500 0
DWIDTH 18 0
BBX 18 34 0 0
BITMAP
FFFFC0
FFFFC0
FFFFC0
FFFFC0
FFFFC0
FE0FC0
F803C0
F003C0
F001C0
E0E1C0
E1E0C0
E1F0C0
E1F0C0
FFE0C0
FFE1C0
FFC1C0
FF83C0
FF07C0
FE0FC0
FE1FC0
FE1FC0
FE1FC0
FE1FC0
FFFFC0
FFFFC0
FE3FC0
FE1FC0
FE1FC0
FE1FC0
FF3FC0
FFFFC0
FFFFC0
FFFFC0
FFFFC0
ENDCHAR
STARTCHAR U+590F
ENCODING 22799
SWIDTH 500 0
DWIDTH 18 0
BBX 18 34 0 0
BITMAP
FFFFC0
FFFFC0
FFFFC0
FFFFC0
FFFFC0
FE0FC0
F803C0
F003C0
F001C0
E0E1C0
E1E0C0
E1F0C0
E1F0C0
FFE0C0
FFE1C0
FFC1C0
FF83C0
FF07C0
FE0FC0
FE1FC0
FE1FC0
FE1FC0
FE1FC0
FFFFC0
FFFFC0
FE3FC0
FE1FC0
FE1FC0
FE1FC0
FF3FC0
FFFFC0
FFFFC0
FFFFC0
FFFFC0
ENDCHAR
STARTCHAR U+5927
ENCODING 22823
SWIDTH 500 0
DWIDTH 18 0
BBX 18 34 0 0
BITMAP
FFFFC0
FFFFC0
FFFFC0
FFFFC0
FFFFC0
FE0FC0
F803C0
F003C0
F001C0
E0E1C0
E1E0C0
E1F0C0
E1F0C0
FFE0C0
FFE1C0
FFC1C0
FF83C0
FF07C0
FE0FC0
FE1FC0
FE1FC0
FE1FC0
FE1FC0
FFFFC0
FFFFC0
FE3FC0
FE1FC0
FE1FC0
FE1FC0
FF3FC0
FFFFC0
FFFFC0
FFFFC0
FFFFC0
ENDCHAR
STARTCHAR U+5929
ENCODING 22825
SWIDTH 500 0
DWIDTH 18 0
BBX 18 34 0 0
BITMAP
FFFFC0
FFFFC0
FFFFC0
FFFFC0
FFFFC0
FE0FC0
F803C0
F003C0
F001C0
E0E1C0
E1E0C0
E1F0C0
E1F0C0
FFE0C0
FFE1C0
FFC1C0
FF83C0
FF07C0
FE0FC0
FE1FC0
FE1FC0
FE1FC0
FE1FC0
FFFFC0
FFFFC0
FE3FC0
FE1FC0
FE1FC0
FE1FC0
FF3FC0
FFFFC0
FFFFC0
FFFFC0
FFFFC0
ENDCHAR
STARTCHAR U+5934
ENCODING 22836
SWIDTH 500 0
DWIDTH 18 0
BBX 18 34 0 0
BITMAP
FFFFC0
FFFFC0
FFFFC0
FFFFC0
FFFFC0
FE0FC0
F803C0
F003C0
F001C0
E0E1C0
E1E0C0
E1F0C0
E1F0C0
FFE0C0
FFE1C0
FFC1C0
FF83C0
FF07C0
FE0FC0
FE1FC0
FE1FC0
FE1FC0
FE1FC0
FFFFC0
FFFFC0
FE3FC0
FE1FC0
FE1FC0
FE1FC0
FF3FC0
FFFFC0
FFFFC0
FFFFC0
FFFFC0
ENDCHAR
STARTCHAR U+59CB
ENCODING 22987
SWIDTH 500 0
DWIDTH 18 0
BBX 18 34 0 0
BITMAP
FFFFC0
FFFFC0
FFFFC0
FFFFC0
FFFFC0
FE0FC0
F803C0
F003C0
F001C0
E0E1C0
E1E0C0
E1F0C0
E1F0C0
FFE0C0
FFE1C0
FFC1C0
FF83C0
FF07C0
FE0FC0
FE1FC0
FE1FC0
FE1FC0
FE1FC0
FFFFC0
FFFFC0
FE3FC0
FE1FC0
FE1FC0
FE1FC0
FF3FC0
FFFFC0
FFFFC0
FFFFC0
FFFFC0
ENDCHAR
STARTCHAR U+5B50
ENCODING 23376
SWIDTH 500 0
DWIDTH 18 0
BBX 18 34 0 0
BITMAP
FFFFC0
FFFFC0
FFFFC0
FFFFC0
FFFFC0
FE0FC0
F803C0
F003C0
F001C0
E0E1C0
E1E0C0
E1F0C0
E1F0C0
FFE0C0
FFE1C0
FFC1C0
FF83C0
FF07C0
FE0FC0
FE1FC0
FE1FC0
FE1FC0
FE1FC0
FFFFC0
FFFFC0
FE3FC0
FE1FC0
FE1FC0
FE1FC0
FF3FC0
FFFFC0
FFFFC0
FFFFC0
FFFFC0
ENDCHAR
STARTCHAR U+5B57
ENCODING 23383
SWIDTH 500 0
DWIDTH 18 0
BBX 18 34 0 0
BITMAP
FFFFC0
FFFFC0
FFFFC0
FFFFC0
FFFFC0
FE0FC0
F803C0
F003C0
F001C0
E0E1C0
E1E0C0
E1F0C0
E1F0C0
FFE0C0
FFE1C0
FFC1C0
FF83C0
FF07C0
FE0FC0
FE1FC0
FE1FC0
FE1FC0
FE1FC0
FFFFC0
FFFFC0
FE3FC0
FE1FC0
FE1FC0
FE1FC0
FF3FC0
FFFFC0
FFFFC0
FFFFC0
FFFFC0
ENDCHAR
STARTCHAR U+5B8B
ENCODING 23435
SWIDTH 500 0
DWIDTH 18 0
BBX 18 34 0 0
BITMAP
FFFFC0
FFFFC0
FFFFC0
FFFFC0
FFFFC0
FE0FC0
F803C0
F003C0
F001C0
E0E1C0
E1E0C0
E1F0C0
E1F0C0
FFE0C0
FFE1C0
FFC1C0
FF83C0
FF07C0
FE0FC0
FE1FC0
FE1FC0
FE1FC0
FE1FC0
FFFFC0
FFFFC0
FE3FC0
FE1FC0
FE1FC0
FE1FC0
FF3FC0
FFFFC0
FFFFC0
FFFFC0
FFFFC0
ENDCHAR
STARTCHAR U+5B9C
ENCODING 23452
SWIDTH 500 0
DWIDTH 18 0
BBX 18 34 0 0
BITMAP
FFFFC0
FFFFC0
FFFFC0
FFFFC0
FFFFC0
FE0FC0
F803C0
F003C0
F001C0
E0E1C0
E1E0C0
E1F0C0
E1F0C0
FFE0C0
FFE1C0
FFC1C0
FF83C0
FF07C0
FE0FC0
FE1FC0
FE1FC0
FE1FC0
FE1FC0
FFFFC0
FFFFC0
FE3FC0
FE1FC0
FE1FC0
FE1FC0
FF3FC0
FFFFC0
FFFFC0
FFFFC0
FFFFC0
ENDCHAR
STARTCHAR U+5BC5
ENCODING 23493
SWIDTH 500 0
DWIDTH 18 0
BBX 18 34 0 0
BITMAP
FFFFC0
FFFFC0
FFFFC0
FFFFC0
FFFFC0
FE0FC0
F803C0
F003C0
F001C0
E0E1C0
E1E0C0
E1F0C0
E1F0C0
FFE0C0
FFE1C0
FFC1C0
FF83C0
FF07C0
FE0FC0
FE1FC0
FE1FC0
FE1FC0
FE1FC0
FFFFC0
FFFFC0
FE3FC0
FE1FC0
FE1FC0
FE1FC0
FF3FC0
FFFFC0
FFFFC0
FFFFC0
FFFFC0
ENDCHAR
STARTCHAR U+5BD2
ENCODING 23506
SWIDTH 500 0
DWIDTH 18 0
BBX 18 34 0 0
BITMAP
FFFFC0
FFFFC0
FFFFC0
FFFFC0
FFFFC0
FE0FC0
F803C0
F003C0
F001C0
E0E1C0
E1E0C0
E1F0C0
E1F0C0
FFE0C0
FFE1C0
FFC1C0
FF83C0
FF07C0
FE0FC0
FE1FC0
FE1FC0
FE1FC0
FE1FC0
FFFFC0
FFFFC0
FE3FC0
FE1FC0
FE1FC0
FE1FC0
FF3FC0
FFFFC0
FFFFC0
FFFFC0
FFFFC0
ENDCHAR
STARTCHAR U+5BF9
ENCODING 23545
SWIDTH 500 0
DWIDTH 18 0
BBX 18 34 0 0
BITMAP
FFFFC0
FFFFC0
FFFFC0
FFFFC0
FFFFC0
FE0FC0
F803C0
F003C0
F001C0
E0E1C0
E1E0C0
E1F0C0
E1F0C0
FFE0C0
FFE1C0
FFC1C0
FF83C0
FF07C0
FE0FC0
FE1FC0
FE1FC0
FE1FC0
FE1FC0
FFFFC0
FFFFC0
FE3FC0
FE1FC0
FE1FC0
FE1FC0
FF3FC0
FFFFC0
FFFFC0
FFFFC0
FFFFC0
ENDCHAR
STARTCHAR U+5C0F
ENCODING 23567
SWIDTH 500 0
DWIDTH 18 0
BBX 18 34 0 0
BITMAP
FFFFC0
FFFFC0
FFFFC0
FFFFC0
FFFFC0
FE0FC0
F803C0
F003C0
F001C0
E0E1C0
E1E0C0
E1F0C0
E1F0C0
FFE0C0
FFE1C0
FFC1C0
FF83C0
FF07C0
FE0FC0
FE1FC0
FE1FC0
FE1FC0
FE1FC0
FFFFC0
FFFFC0
FE3FC0
FE1FC0
FE1FC0
FE1FC0
FF3FC0
FFFFC0
FFFFC0
FFFFC0
FFFFC0
ENDCHAR
STARTCHAR U+5E74
ENCODING 24180
SWIDTH 500 0
DWIDTH 18 0
BBX 18 34 0 0
BITMAP
FFFFC0
FFFFC0
FFFFC0
FFFFC0
FFFFC0
FE0FC0
F803C0
F003C0
F001C0
E0E1C0
E1E0C0
E1F0C0
E1F0C0
FFE0C0
FFE1C0
FFC1C0
FF83C0
FF07C0
FE0FC0
FE1FC0
FE1FC0
FE1FC0
FE1FC0
FFFFC0
FFFFC0
FE3FC0
FE1FC0
FE1FC0
FE1FC0
FF3FC0
FFFFC0
FFFFC0
FFFFC0
FFFFC0
ENDCHAR
STARTCHAR U+5E8A
ENCODING 24202
SWIDTH 500 0
DWIDTH 18 0
BBX 18 34 0 0
BITMAP
FFFFC0
FFFFC0
FFFFC0
FFFFC0
FFFFC0
FE0FC0
F803C0
F003C0
F001C0
E0E1C0
E1E0C0
E1F0C0
E1F0C0
FFE0C0
FFE1C0
FFC1C0
FF83C0
FF07C0
FE0FC0
FE1FC0
FE1FC0
FE1FC0
FE1FC0
FFFFC0
FFFFC0
FE3FC0
FE1FC0
FE1FC0
FE1FC0
FF3FC0
FFFFC0
FFFFC0
FFFFC0
FFFFC0
ENDCHAR
STARTCHAR U+5EFF
ENCODING 24319
SWIDTH 500 0
DWIDTH 18 0
BBX 18 34 0 0
BITMAP
FFFFC0
FFFFC0
FFFFC0
FFFFC0
FFFFC0
FE0FC0
F803C0
F003C0
F001C0
E0E1C0
E1E0C0
E1F0C0
E1F0C0
FFE0C0
FFE1C0
FFC1C0
FF83C0
FF07C0
FE0FC0
FE1FC0
FE1FC0
FE1FC0
FE1FC0
FFFFC0
FFFFC0
FE3FC0
FE1FC0
FE1FC0
FE1FC0
FF3FC0
FFFFC0
FFFFC0
FFFFC0
FFFFC0
ENDCHAR
STARTCHAR U+5F0F
ENCODING 24335
SWIDTH 500 0
DWIDTH 18 0
BBX 18 34 0 0
BITMAP
FFFFC0
FFFFC0
FFFFC0
FFFFC0
FFFFC0
FE0FC0
F803C0
F003C0
F001C0
E0E1C0
E1E0C0
E1F0C0
E1F0C0
FFE0C0
FFE1C0
FFC1C0
FF83C0
FF07C0
FE0FC0
FE1FC0
FE1FC0
FE1FC0
FE1FC0
FFFFC0
FFFFC0
FE3FC0
FE1FC0
FE1FC0
FE1FC0
FF3FC0
FFFFC0
FFFFC0
FFFFC0
FFFFC0
ENDCHAR
STARTCHAR U+5F53
ENCODING 24403
SWIDTH 500 0
DWIDTH 18 0
BBX 18 34 0 0
BITMAP
FFFFC0
FFFFC0
FFFFC0
FFFFC0
FFFFC0
FE0FC0
F803C0
F003C0
F001C0
E0E1C0
E1E0C0
E1F0C0
E1F0C0
FFE0C0
FFE1C0
FFC1C0
FF83C0
FF07C0
FE0FC0
FE1FC0
FE1FC0
FE1FC0
FE1FC0
FFFFC0
FFFFC0
FE3FC0
FE1FC0
FE1FC0
FE1FC0
FF3FC0
FFFFC0
FFFFC0
FFFFC0
FFFFC0
ENDCHAR
STARTCHAR U+5FCC
ENCODING 24524
SWIDTH 500 0
DWIDTH 18 0
BBX 18 34 0 0
BITMAP
FFFFC0
FFFFC0
FFFFC0
FFFFC0
FFFFC0
FE0FC0
F803C0
F003C0
F001C0
E0E1C0
E1E0C0
E1F0C0
E1F0C0
FFE0C0
FFE1C0
FFC1C0
FF83C0
FF07C0
FE0FC0
FE1FC0
FE1FC0
FE1FC0
FE1FC0
FFFFC0
FFFFC0
FE3FC0
FE1FC0
FE1FC0
FE1FC0
FF3FC0
FFFFC0
FFFFC0
FFFFC0
FFFFC0
ENDCHAR
STARTCHAR U+601D
ENCODING 24605
SWIDTH 500 0
DWIDTH 18 0
BBX 18 34 0 0
BITMAP
FFFFC0
FFFFC0
FFFFC0
FFFFC0
FFFFC0
FE0FC0
F803C0
F003C0
F001C0
E0E1C0
E1E0C0
E1F0C0
E1F0C0
FFE0C0
FFE1C0
FFC1C0
FF83C0
FF07C0
FE0FC0
FE1FC0
FE1FC0
FE1FC0
FE1FC0
FFFFC0
FFFFC0
FE3FC0
FE1FC0
FE1FC0
FE1FC0
FF3FC0
FFFFC0
FFFFC0
FFFFC0
FFFFC0
ENDCHAR
STARTCHAR U+653E
ENCODING 25918
SWIDTH 500 0
DWIDTH 18 0
BBX 18 34 0 0
BITMAP
FFFFC0
FFFFC0
FFFFC0
FFFFC0
FFFFC0
FE0FC0
F803C0
F003C0
F001C0
E0E1C0
E1E0C0
E1F0C0
E1F0C0
FFE0C0
FFE1C0
FFC1C0
FF83C0
FF07C0
FE0FC0
FE1FC0
FE1FC0
FE1FC0
FE1FC0
FFFFC0
FFFFC0
FE3FC0
FE1FC0
FE1FC0
FE1FC0
FF3FC0
FFFFC0
FFFFC0
FFFFC0
FFFFC0
ENDCHAR
STARTCHAR U+6545
ENCODING 25925
SWIDTH 500 0
DWIDTH 18 0
BBX 18 34 0 0
BITMAP
FFFFC0
FFFFC0
FFFFC0
FFFFC0
FFFFC0
FE0FC0
F803C0
F003C0
F001C0
E0E1C0
E1E0C0
E1F0C0
E1F0C0
FFE0C0
FFE1C0
FFC1C0
FF83C0
FF07C0
FE0FC0
FE1FC0
FE1FC0
FE1FC0
FE1FC0
FFFFC0
FFFFC0
FE3FC0
FE1FC0
FE1FC0
FE1FC0
FF3FC0
FFFFC0
FFFFC0
FFFFC0
FFFFC0
ENDCHAR
STARTCHAR U+6570
ENCODING 25968
SWIDTH 500 0
DWIDTH 18 0
BBX 18 34 0 0
BITMAP
FFFFC0
FFFFC0
FFFFC0
FFFFC0
FFFFC0
FE0FC0
F803C0
F003C0
F001C0
E0E1C0
E1E0C0
E1F0C0
E1F0C0
FFE0C0
FFE1C0
FFC1C0
FF83C0
FF07C0
FE0FC0
FE1FC0
FE1FC0
FE1FC0
FE1FC0
FFFFC0
FFFFC0
FE3FC0
FE1FC0
FE1FC0
FE1FC0
FF3FC0
FFFFC0
FFFFC0
FFFFC0
FFFFC0
ENDCHAR
STARTCHAR U+6587
ENCODING 25991
SWIDTH 500 0
DWIDTH 18 0
BBX 18 34 0 0
BITMAP
FFFFC0
FFFFC0
FFFFC0
FFFFC0
FFFFC0
FE0FC0
F803C0
F003C0
F001C0
E0E1C0
E1E0C0
E1F0C0
E1F0C0
FFE0C0
FFE1C0
FFC1C0
FF83C0
FF07C0
FE0FC0
FE1FC0
FE1FC0
FE1FC0
FE1FC0
FFFFC0
FFFFC0
FE3FC0
FE1FC0
FE1FC0
FE1FC0
FF3FC0
FFFFC0
FFFFC0
FFFFC0
FFFFC0
ENDCHAR
STARTCHAR U+65E5
ENCODING 26085
SWIDTH 500 0
DWIDTH 18 0
BBX 18 34 0 0
BITMAP
FFFFC0
FFFFC0
FFFFC0
FFFFC0
FFFFC0
FE0FC0
F803C0
F003C0
F001C0
E0E1C0
E1E0C0
E1F0C0
E1F0C0
FFE0C0
FFE1C0
FFC1C0
FF83C0
FF07C0
FE0FC0
FE1FC0
FE1FC0
FE1FC0
FE1FC0
FFFFC0
FFFFC0
FE3FC0
FE1FC0
FE1FC0
FE1FC0
FF3FC0
FFFFC0
FFFFC0
FFFFC0
FFFFC0
ENDCHAR
STARTCHAR U+660E
ENCODING 26126
SWIDTH 500 0
DWIDTH 18 0
BBX 18 34 0 0
BITMAP
FFFFC0
FFFFC0
FFFFC0
FFFFC0
FFFFC0
FE0FC0
F803C0
F003C0
F001C0
E0E1C0
E1E0C0
E1F0C0
E1F0C0
FFE0C0
FFE1C0
FFC1C0
FF83C0
FF07C0
FE0FC0
FE1FC0
FE1FC0
FE1FC0
FE1FC0
FFFFC0
FFFFC0
FE3FC0
FE1FC0
FE1FC0
FE1FC0
FF3FC0
FFFFC0
FFFFC0
FFFFC0
FFFFC0
ENDCHAR
STARTCHAR U+662F
ENCODING 26159
SWIDTH 500 0
DWIDTH 18 0
BBX 18 34 0 0
BITMAP
FFFFC0
FFFFC0
FFFFC0
FFFFC0
FFFFC0
FE0FC0
F803C0
F003C0
F001C0
E0E1C0
E1E0C0
E1F0C0
E1F0C0
FFE0C0
FFE1C0
FFC1C0
FF83C0
FF07C0
FE0FC0
FE1FC0
FE1FC0
FE1FC0
FE1FC0
FFFFC0
FFFFC0
FE3FC0
FE1FC0
FE1FC0
FE1FC0
FF3FC0
FFFFC0
FFFFC0
FFFFC0
FFFFC0
ENDCHAR
STARTCHAR U+6708
ENCODING 26376
SWIDTH 500 0
DWIDTH 18 0
BBX 18 34 0 0
BITMAP
FFFFC0
FFFFC0
FFFFC0
FFFFC0
FFFFC0
FE0FC0
F803C0
F003C0
F001C0
E0E1C0
E1E0C0
E1F0C0
E1F0C0
FFE0C0
FFE1C0
FFC1C0
FF83C0
FF07C0
FE0FC0
FE1FC0
FE1FC0
FE1FC0
FE1FC0
FFFFC0
FFFFC0
FE3FC0
FE1FC0
FE1FC0
FE1FC0
FF3FC0
FFFFC0
FFFFC0
FFFFC0
FFFFC0
ENDCHAR
STARTCHAR U+671B
ENCODING 26395
SWIDTH 500 0
DWIDTH 18 0
BBX 18 34 0 0
BITMAP
FFFFC0
FFFFC0
FFFFC0
FFFFC0
FFFFC0
FE0FC0
F803C0
F003C0
F001C0
E0E1C0
E1E0C0
E1F0C0
E1F0C0
FFE0C0
FFE1C0
FFC1C0
FF83C0
FF07C0
FE0FC0
FE1FC0
FE1FC0
FE1FC0
FE1FC0
FFFFC0
FFFFC0
FE3FC0
FE1FC0
FE1FC0
FE1FC0
FF3FC0
FFFFC0
FFFFC0
FFFFC0
FFFFC0
ENDCHAR
STARTCHAR U+671F
ENCODING 26399
SWIDTH 500 0
DWIDTH 18 0
BBX 18 34 0 0
BITMAP
FFFFC0
FFFFC0
FFFFC0
FFFFC0
FFFFC0
FE0FC0
F803C0
F003C0
F001C0
E0E1C0
E1E0C0
E1F0C0
E1F0C0
FFE0C0
FFE1C0
FFC1C0
FF83C0
FF07C0
FE0FC0
FE1FC0
FE1FC0
FE1FC0
FE1FC0
FFFFC0
FFFFC0
FE3FC0
FE1FC0
FE1FC0
FE1FC0
FF3FC0
FFFFC0
FFFFC0
FFFFC0
FFFFC0
ENDCHAR
STARTCHAR U+672A
ENCODING 26410
SWIDTH 500 0
DWIDTH 18 0
BBX 18 34 0 0
BITMAP
FFFFC0
FFFFC0
FFFFC0
FFFFC0
FFFFC0
FE0FC0
F803C0
F003C0
F001C0
E0E1C0
E1E0C0
E1F0C0
E1F0C0
FFE0C0
FFE1C0
FFC1C0
FF83C0
FF07C0
FE0FC0
FE1FC0
FE1FC0
FE1FC0
FE1FC0
FFFFC0
FFFFC0
FE3FC0
FE1FC0
FE1FC0
FE1FC0
FF3FC0
FFFFC0
FFFFC0
FFFFC0
FFFFC0
ENDCHAR
STARTCHAR U+672B
ENCODING 26411
SWIDTH 500 0
DWIDTH 18 0
BBX 18 34 0 0
BITMAP
FFFFC0
FFFFC0
FFFFC0
FFFFC0
FFFFC0
FE0FC0
F803C0
F003C0
F001C0
E0E1C0
E1E0C0
E1F0C0
E1F0C0
FFE0C0
FFE1C0
FFC1C0
FF83C0
FF07C0
FE0FC0
FE1FC0
FE1FC0
FE1FC0
FE1FC0
FFFFC0
FFFFC0
FE3FC0
FE1FC0
FE1FC0
FE1FC0
FF3FC0
FFFFC0
FFFFC0
FFFFC0
FFFFC0
ENDCHAR
STARTCHAR U+6837
ENCODING 26679
SWIDTH 500 0
DWIDTH 18 0
BBX 18 34 0 0
BITMAP
FFFFC0
FFFFC0
FFFFC0
FFFFC0
FFFFC0
FE0FC0
F803C0
F003C0
F001C0
E0E1C0
E1E0C0
E1F0C0
E1F0C0
FFE0C0
FFE1C0
FFC1C0
FF83C0
FF07C0
FE0FC0
FE1FC0
FE1FC0
FE1FC0
FE1FC0
FFFFC0
FFFFC0
FE3FC0
FE1FC0
FE1FC0
FE1FC0
FF3FC0
FFFFC0
FFFFC0
FFFFC0
FFFFC0
ENDCHAR
STARTCHAR U+683C
ENCODING 26684
SWIDTH 500 0
DWIDTH 18 0
BBX 18 34 0 0
BITMAP
FFFFC0
FFFFC0
FFFFC0
FFFFC0
FFFFC0
FE0FC0
F803C0
F003C0
F001C0
E0E1C0
E1E0C0
E1F0C0
E1F0C0
FFE0C0
FFE1C0
FFC1C0
FF83C0
FF07C0
FE0FC0
FE1FC0
FE1FC0
FE1FC0
FE1FC0
FFFFC0
FFFFC0
FE3FC0
FE1FC0
FE1FC0
FE1FC0
FF3FC0
FFFFC0
FFFFC0
FFFFC0
FFFFC0
ENDCHAR
STARTCHAR U+6977
ENCODING 26999
SWIDTH 500 0
DWIDTH 18 0
BBX 18 34 0 0
BITMAP
FFFFC0
FFFFC0
FFFFC0
FFFFC0
FFFFC0
FE0FC0
F803C0
F003C0
F001C0
E0E1C0
E1E0C0
E1F0C0
E1F0C0
FFE0C0
FFE1C0
FFC1C0
FF83C0
FF07C0
FE0FC0
FE1FC0
FE1FC0
FE1FC0
FE1FC0
FFFFC0
FFFFC0
FE3FC0
FE1FC0
FE1FC0
FE1FC0
FF3FC0
FFFFC0
FFFFC0
FFFFC0
FFFFC0
ENDCHAR
STARTCHAR U+6B63
ENCODING 27491
SWIDTH 500 0
DWIDTH 18 0
BBX 18 34 0 0
BITMAP
FFFFC0
FFFFC0
FFFFC0
FFFFC0
FFFFC0
FE0FC0
F803C0
F003C0
F001C0
E0E1C0
E1E0C0
E1F0C0
E1F0C0
FFE0C0
FFE1C0
FFC1C0
FF83C0
FF07C0
FE0FC0
FE1FC0
FE1FC0
FE1FC0
FE1FC0
FFFFC0
FFFFC0
FE3FC0
FE1FC0
FE1FC0
FE1FC0
FF3FC0
FFFFC0
FFFFC0
FFFFC0
FFFFC0
ENDCHAR
STARTCHAR U+6BD4
ENCODING 27604
SWIDTH 500 0
DWIDTH 18 0
BBX 18 34 0 0
BITMAP
FFFFC0
FFFFC0
FFFFC0
FFFFC0
FFFFC0
FE0FC0
F803C0
F003C0
F001C0
E0E1C0
E1E0C0
E1F0C0
E1F0C0
FFE0C0
FFE1C0
FFC1C0
FF83C0
FF07C0
FE0FC0
FE1FC0
FE1FC0
FE1FC0
FE1FC0
FFFFC0
FFFFC0
FE3FC0
FE1FC0
FE1FC0
FE1FC0
FF3FC0
FFFFC0
FFFFC0
FFFFC0
FFFFC0
ENDCHAR
STARTCHAR U+6CC9
ENCODING 27849
SWIDTH 500 0
DWIDTH 18 0
BBX 18 34 0 0
BITMAP
FFFFC0
FFFFC0
FFFFC0
FFFFC0
FFFFC0
FE0FC0
F803C0
F003C0
F001C0
E0E1C0
E1E0C0
E1F0C0
E1F0C0
FFE0C0
FFE1C0
FFC1C0
FF83C0
FF07C0
FE0FC0
FE1FC0
FE1FC0
FE1FC0
FE1FC0
FFFFC0
FFFFC0
FE3FC0
FE1FC0
FE1FC0
FE1FC0
FF3FC0
FFFFC0
FFFFC0
FFFFC0
FFFFC0
ENDCHAR
STARTCHAR U+6E05
ENCODING 28165
SWIDTH 500 0
DWIDTH 18 0
BBX 18 34 0 0
BITMAP
FFFFC0
FFFFC0
FFFFC0
FFFFC0
FFFFC0
FE0FC0
F803C0
F003C0
F001C0
E0E1C0
E1E0C0
E1F0C0
E1F0C0
FFE0C0
FFE1C0
FFC1C0
FF83C0
FF07C0
FE0FC0
FE1FC0
FE1FC0
FE1FC0
FE1FC0
FFFFC0
FFFFC0
FE3FC0
FE1FC0
FE1FC0
FE1FC0
FF3FC0
FFFFC0
FFFFC0
FFFFC0
FFFFC0
ENDCHAR
STARTCHAR U+6EE1
ENCODING 28385
SWIDTH 500 0
DWIDTH 18 0
BBX 18 34 0 0
BITMAP
FFFFC0
FFFFC0
FFFFC0
FFFFC0
FFFFC0
FE0FC0
F803C0
F003C0
F001C0
E0E1C0
E1E0C0
E1F0C0
E1F0C0
FFE0C0
FFE1C0
FFC1C0
FF83C0
FF07C0
FE0FC0
FE1FC0
FE1FC0
FE1FC0
FE1FC0
FFFFC0
FFFFC0
FE3FC0
FE1FC0
FE1FC0
FE1FC0
FF3FC0
FFFFC0
FFFFC0
FFFFC0
FFFFC0
ENDCHAR
STARTCHAR U+70B9
ENCODING 28857
SWIDTH 500 0
DWIDTH 18 0
BBX 18 34 0 0
BITMAP
FFFFC0
FFFFC0
FFFFC0
FFFFC0
FFFFC0
FE0FC0
F803C0
F003C0
F001C0
E0E1C0
E1E0C0
E1F0C0
E1F0C0
FFE0C0
FFE1C0
FFC1C0
FF83C0
FF07C0
FE0FC0
FE1FC0
FE1FC0
FE1FC0
FE1FC0
FFFFC0
FFFFC0
FE3FC0
FE1FC0
FE1FC0
FE1FC0
FF3FC0
FFFFC0
FFFFC0
FFFFC0
FFFFC0
ENDCHAR
STARTCHAR U+73ED
ENCODING 29677
SWIDTH 500 0
DWIDTH 18 0
BBX 18 34 0 0
BITMAP
FFFFC0
FFFFC0
FFFFC0
FFFFC0
FFFFC0
FE0FC0
F803C0
F003C0
F001C0
E0E1C0
E1E0C0
E1F0C0
E1F0C0
FFE0C0
FFE1C0
FFC1C0
FF83C0
FF07C0
FE0FC0
FE1FC0
FE1FC0
FE1FC0
FE1FC0
FFFFC0
FFFFC0
FE3FC0
FE1FC0
FE1FC0
FE1FC0
FF3FC0
FFFFC0
FFFFC0
FFFFC0
FFFFC0
ENDCHAR
STARTCHAR U+7532
ENCODING 30002
SWIDTH 500 0
DWIDTH 18 0
BBX 18 34 0 0
BITMAP
FFFFC0
FFFFC0
FFFFC0
FFFFC0
FFFFC0
FE0FC0
F803C0
F003C0
F001C0
E0E1C0
E1E0C0
E1F0C0
E1F0C0
FFE0C0
FFE1C0
FFC1C0
FF83C0
FF07C0
FE0FC0
FE1FC0
FE1FC0
FE1FC0
FE1FC0
FFFFC0
FFFFC0
FE3FC0
FE1FC0
FE1FC0
FE1FC0
FF3FC0
FFFFC0
FFFFC0
FFFFC0
FFFFC0
ENDCHAR
STARTCHAR U+7591
ENCODING 30097
SWIDTH 500 0
DWIDTH 18 0
BBX 18 34 0 0
BITMAP
FFFFC0
FFFFC0
FFFFC0
FFFFC0
FFFFC0
FE0FC0
F803C0
F003C0
F001C0
E0E1C0
E1E0C0
E1F0C0
E1F0C0
FFE0C0
FFE1C0
FFC1C0
FF83C0
FF07C0
FE0FC0
FE1FC0
FE1FC0
FE1FC0
FE1FC0
FFFFC0
FFFFC0
FE3FC0
FE1FC0
FE1FC0
FE1FC0
FF3FC0
FFFFC0
FFFFC0
FFFFC0
FFFFC0
ENDCHAR
STARTCHAR U+76EE
ENCODING 30446
SWIDTH 500 0
DWIDTH 18 0
BBX 18 34 0 0
BITMAP
FFFFC0
FFFFC0
FFFFC0
FFFFC0
FFFFC0
FE0FC0
F803C0
F003C0
F001C0
E0E1C0
E1E0C0
E1F0C0
E1F0C0
FFE0C0
FFE1C0
FFC1C0
FF83C0
FF07C0
FE0FC0
FE1FC0
FE1FC0
FE1FC0
FE1FC0
FFFFC0
FFFFC0
FE3FC0
FE1FC0
FE1FC0
FE1FC0
FF3FC0
FFFFC0
FFFFC0
FFFFC0
FFFFC0
ENDCHAR
STARTCHAR U+7940
ENCODING 31040
SWIDTH 500 0
DWIDTH 18 0
BBX 18 34 0 0
BITMAP
FFFFC0
FFFFC0
FFFFC0
FFFFC0
FFFFC0
FE0FC0
F803C0
F003C0
F001C0
E0E1C0
E1E0C0
E1F0C0
E1F0C0
FFE0C0
FFE1C0
FFC1C0
FF83C0
FF07C0
FE0FC0
FE1FC0
FE1FC0
FE1FC0
FE1FC0
FFFFC0
FFFFC0
FE3FC0
FE1FC0
FE1FC0
FE1FC0
FF3FC0
FFFFC0
FFFFC0
FFFFC0
FFFFC0
ENDCHAR
STARTCHAR U+7948
ENCODING 31048
SWIDTH 500 0
DWIDTH 18 0
BBX 18 34 0 0
BITMAP
FFFFC0
FFFFC0
FFFFC0
FFFFC0
FFFFC0
FE0FC0
F803C0
F003C0
F001C0
E0E1C0
E1E0C0
E1F0C0
E1F0C0
FFE0C0
FFE1C0
FFC1C0
FF83C0
FF07C0
FE0FC0
FE1FC0
FE1FC0
FE1FC0
FE1FC0
FFFFC0
FFFFC0
FE3FC0
FE1FC0
FE1FC0
FE1FC0
FF3FC0
FFFFC0
FFFFC0
FFFFC0
FFFFC0
ENDCHAR
STARTCHAR U+796D
ENCODING 31085
SWIDTH 500 0
DWIDTH 18 0
BBX 18 34 0 0
BITMAP
FFFFC0
FFFFC0
FFFFC0
FFFFC0
FFFFC0
FE0FC0
F803C0
F003C0
F001C0
E0E1C0
E1E0C0
E1F0C0
E1F0C0
FFE0C0
FFE1C0
FFC1C0
FF83C0
FF07C0
FE0FC0
FE1FC0
FE1FC0
FE1FC0
FE1FC0
FFFFC0
FFFFC0
FE3FC0
FE1FC0
FE1FC0
FE1FC0
FF3FC0
FFFFC0
FFFFC0
FFFFC0
FFFFC0
ENDCHAR
STARTCHAR U+798F
ENCODING 31119
SWIDTH 500 0
DWIDTH 18 0
BBX 18 34 0 0
BITMAP
FFFFC0
FFFFC0
FFFFC0
FFFFC0
FFFFC0
FE0FC0
F803C0
F003C0
F001C0
E0E1C0
E1E0C0
E1F0C0
E1F0C0
FFE0C0
FFE1C0
FFC1C0
FF83C0
FF07C0
FE0FC0
FE1FC0
FE1FC0
FE1FC0
FE1FC0
FFFFC0
FFFFC0
FE3FC0
FE1FC0
FE1FC0
FE1FC0
FF3FC0
FFFFC0
FFFFC0
FFFFC0
FFFFC0
ENDCHAR
STARTCHAR U+7A84
ENCODING 31364
SWIDTH 500 0
DWIDTH 18 0
BBX 18 34 0 0
BITMAP
FFFFC0
FFFFC0
FFFFC0
FFFFC0
FFFFC0
FE0FC0
F803C0
F003C0
F001C0
E0E1C0
E1E0C0
E1F0C0
E1F0C0
FFE0C0
FFE1C0
FFC1C0
FF83C0
FF07C0
FE0FC0
FE1FC0
FE1FC0
FE1FC0
FE1FC0
FFFFC0
FFFFC0
FE3FC0
FE1FC0
FE1FC0
FE1FC0
FF3FC0
FFFFC0
FFFFC0
FFFFC0
FFFFC0
ENDCHAR
STARTCHAR U+7ACB
ENCODING 31435
SWIDTH 500 0
DWIDTH 18 0
BBX 18 34 0 0
BITMAP
FFFFC0
FFFFC0
FFFFC0
FFFFC0
FFFFC0
FE0FC0
F803C0
F003C0
F001C0
E0E1C0
E1E0C0
E1F0C0
E1F0C0
FFE0C0
FFE1C0
FFC1C0
FF83C0
FF07C0
FE0FC0
FE1FC0
FE1FC0
FE1FC0
FE1FC0
FFFFC0
FFFFC0
FE3FC0
FE1FC0
FE1FC0
FE1FC0
FF3FC0
FFFFC0
FFFFC0
FFFFC0
FFFFC0
ENDCHAR
STARTCHAR U+7B2C
ENCODING 31532
SWIDTH 500 0
DWIDTH 18 0
BBX 18 34 0 0
BITMAP
FFFFC0
FFFFC0
FFFFC0
FFFFC0
FFFFC0
FE0FC0
F803C0
F003C0
F001C0
E0E1C0
E1E0C0
E1F0C0
E1F0C0
FFE0C0
FFE1C0
FFC1C0
FF83C0
FF07C0
FE0FC0
FE1FC0
FE1FC0
FE1FC0
FE1FC0
FFFFC0
FFFFC0
FE3FC0
FE1FC0
FE1FC0
FE1FC0
FF3FC0
FFFFC0
FFFFC0
FFFFC0
FFFFC0
ENDCHAR
STARTCHAR U+7C97
ENCODING 31895
SWIDTH 500 0
DWIDTH 18 0
BBX 18 34 0 0
BITMAP
FFFFC0
FFFFC0
FFFFC0
FFFFC0
FFFFC0
FE0FC0
F803C0
F003C0
F001C0
E0E1C0
E1E0C0
E1F0C0
E1F0C0
FFE0C0
FFE1C0
FFC1C0
FF83C0
FF07C0
FE0FC0
FE1FC0
FE1FC0
FE1FC0
FE1FC0
FFFFC0
FFFFC0
FE3FC0
FE1FC0
FE1FC0
FE1FC0
FF3FC0
FFFFC0
FFFFC0
FFFFC0
FFFFC0
ENDCHAR
STARTCHAR U+7D20
ENCODING 32032
SWIDTH 500 0
DWIDTH 18 0
BBX 18 34 0 0
BITMAP
FFFFC0
FFFFC0
FFFFC0
FFFFC0
FFFFC0
FE0FC0
F803C0
F003C0
F001C0
E0E1C0
E1E0C0
E1F0C0
E1F0C0
FFE0C0
FFE1C0
FFC1C0
FF83C0
FF07C0
FE0FC0
FE1FC0
FE1FC0
FE1FC0
FE1FC0
FFFFC0
FFFFC0
FE3FC0
FE1FC0
FE1FC0
FE1FC0
FF3FC0
FFFFC0
FFFFC0
FFFFC0
FFFFC0
ENDCHAR
STARTCHAR U+7EA2
ENCODING 32418
SWIDTH 500 0
DWIDTH 18 0
BBX 18 34 0 0
BITMAP
FFFFC0
FFFFC0
FFFFC0
FFFFC0
FFFFC0
FE0FC0
F803C0
F003C0
F001C0
E0E1C0
E1E0C0
E1F0C0
E1F0C0
FFE0C0
FFE1C0
FFC1C0
FF83C0
FF07C0
FE0FC0
FE1FC0
FE1FC0
FE1FC0
FE1FC0
FFFFC0
FFFFC0
FE3FC0
FE1FC0
FE1FC0
FE1FC0
FF3FC0
FFFFC0
FFFFC0
FFFFC0
FFFFC0
ENDCHAR
STARTCHAR U+7F29
ENCODING 32553
SWIDTH 500 0
DWIDTH 18 0
BBX 18 34 0 0
BITMAP
FFFFC0
FFFFC0
FFFFC0
FFFFC0
FFFFC0
FE0FC0
F803C0
F003C0
F001C0
E0E1C0
E1E0C0
E1F0C0
E1F0C0
FFE0C0
FFE1C0
FFC1C0
FF83C0
FF07C0
FE0FC0
FE1FC0
FE1FC0
FE1FC0
FE1FC0
FFFFC0
FFFFC0
FE3FC0
FE1FC0
FE1FC0
FE1FC0
FF3FC0
FFFFC0
FFFFC0
FFFFC0
FFFFC0
ENDCHAR
STARTCHAR U+8003
ENCODING 32771
SWIDTH 500 0
DWIDTH 18 0
BBX 18 34 0 0
BITMAP
FFFFC0
FFFFC0
FFFFC0
FFFFC0
FFFFC0
FE0FC0
F803C0
F003C0
F001C0
E0E1C0
E1E0C0
E1F0C0
E1F0C0
FFE0C0
FFE1C0
FFC1C0
FF83C0
FF07C0
FE0FC0
FE1FC0
FE1FC0
FE1FC0
FE1FC0
FFFFC0
FFFFC0
FE3FC0
FE1FC0
FE1FC0
FE1FC0
FF3FC0
FFFFC0
FFFFC0
FFFFC0
FFFFC0
ENDCHAR
STARTCHAR U+884C
ENCODING 34892
SWIDTH 500 0
DWIDTH 18 0
BBX 18 34 0 0
BITMAP
FFFFC0
FFFFC0
FFFFC0
FFFFC0
FFFFC0
FE0FC0
F803C0
F003C0
F001C0
E0E1C0
E1E0C0
E1F0C0
E1F0C0
FFE0C0
FFE1C0
FFC1C0
FF83C0
FF07C0
FE0FC0
FE1FC0
FE1FC0
FE1FC0
FE1FC0
FFFFC0
FFFFC0
FE3FC0
FE1FC0
FE1FC0
FE1FC0
FF3FC0
FFFFC0
FFFFC0
FFFFC0
FFFFC0
ENDCHAR
STARTCHAR U+8C37
ENCODING 35895
SWIDTH 500 0
DWIDTH 18 0
BBX 18 34 0 0
BITMAP
FFFFC0
FFFFC0
FFFFC0
FFFFC0
FFFFC0
FE0FC0
F803C0
F003C0
F001C0
E0E1C0
E1E0C0
E1F0C0
E1F0C0
FFE0C0
FFE1C0
FFC1C0
FF83C0
FF07C0
FE0FC0
FE1FC0
FE1FC0
FE1FC0
FE1FC0
FFFFC0
FFFFC0
FE3FC0
FE1FC0
FE1FC0
FE1FC0
FF3FC0
FFFFC0
FFFFC0
FFFFC0
FFFFC0
ENDCHAR
STARTCHAR U+9635
ENCODING 38453
SWIDTH 500 0
DWIDTH 18 0
BBX 18 34 0 0
BITMAP
FFFFC0
FFFFC0
FFFFC0
FFFFC0
FFFFC0
FE0FC0
F803C0
F003C0
F001C0
E0E1C0
E1E0C0
E1F0C0
E1F0C0
FFE0C0
FFE1C0
FFC1C0
FF83C0
FF07C0
FE0FC0
FE1FC0
FE1FC0
FE1FC0
FE1FC0
FFFFC0
FFFFC0
FE3FC0
FE1FC0
FE1FC0
FE1FC0
FF3FC0
FFFFC0
FFFFC0
FFFFC0
FFFFC0
ENDCHAR
STARTCHAR U+96E8
ENCODING 38632
SWIDTH 500 0
DWIDTH 18 0
BBX 18 34 0 0
BITMAP
FFFFC0
FFFFC0
FFFFC0
FFFFC0
FFFFC0
FE0FC0
F803C0
F003C0
F001C0
E0E1C0
E1E0C0
E1F0C0
E1F0C0
FFE0C0
FFE1C0
FFC1C0
FF83C0
FF07C0
FE0FC0
FE1FC0
FE1FC0
FE1FC0
FE1FC0
FFFFC0
FFFFC0
FE3FC0
FE1FC0
FE1FC0
FE1FC0
FF3FC0
FFFFC0
FFFFC0
FFFFC0
FFFFC0
ENDCHAR
STARTCHAR U+971C
ENCODING 38684
SWIDTH 500 0
DWIDTH 18 0
BBX 18 34 0 0
BITMAP
FFFFC0
FFFFC0
FFFFC0
FFFFC0
FFFFC0
FE0FC0
F803C0
F003C0
F001C0
E0E1C0
E1E0C0
E1F0C0
E1F0C0
FFE0C0
FFE1C0
FFC1C0
FF83C0
FF07C0
FE0FC0
FE1FC0
FE1FC0
FE1FC0
FE1FC0
FFFFC0
FFFFC0
FE3FC0
FE1FC0
FE1FC0
FE1FC0
FF3FC0
FFFFC0
FFFFC0
FFFFC0
FFFFC0
ENDCHAR
STARTCHAR U+971E
ENCODING 38686
SWIDTH 500 0
DWIDTH 18 0
BBX 18 34 0 0
BITMAP
FFFFC0
FFFFC0
FFFFC0
FFFFC0
FFFFC0
FE0FC0
F803C0
F003C0
F001C0
E0E1C0
E1E0C0
E1F0C0
E1F0C0
FFE0C0
FFE1C0
FFC1C0
FF83C0
FF07C0
FE0FC0
FE1FC0
FE1FC0
FE1FC0
FE1FC0
FFFFC0
FFFFC0
FE3FC0
FE1FC0
FE1FC0
FE1FC0
FF3FC0
FFFFC0
FFFFC0
FFFFC0
FFFFC0
ENDCHAR
STARTCHAR U+9732
ENCODING 38706
SWIDTH 500 0
DWIDTH 18 0
BBX 18 34 0 0
BITMAP
FFFFC0
FFFFC0
FFFFC0
FFFFC0
FFFFC0
FE0FC0
F803C0
F003C0
F001C0
E0E1C0
E1E0C0
E1F0C0
E1F0C0
FFE0C0
FFE1C0
FFC1C0
FF83C0
FF07C0
FE0FC0
FE1FC0
FE1FC0
FE1FC0
FE1FC0
FFFFC0
FFFFC0
FE3FC0
FE1FC0
FE1FC0
FE1FC0
FF3FC0
FFFFC0
FFFFC0
FFFFC0
FFFFC0
ENDCHAR
STARTCHAR U+9879
ENCODING 39033
SWIDTH 500 0
DWIDTH 18 0
BBX 18 34 0 0
BITMAP
FFFFC0
FFFFC0
FFFFC0
FFFFC0
FFFFC0
FE0FC0
F803C0
F003C0
F001C0
E0E1C0
E1E0C0
E1F0C0
E1F0C0
FFE0C0
FFE1C0
FFC1C0
FF83C0
FF07C0
FE0FC0
FE1FC0
FE1FC0
FE1FC0
FE1FC0
FFFFC0
FFFFC0
FE3FC0
FE1FC0
FE1FC0
FE1FC0
FF3FC0
FFFFC0
FFFFC0
FFFFC0
FFFFC0
ENDCHAR
STARTCHAR U+9A6C
ENCODING 39532
SWIDTH 500 0
DWIDTH 18 0
BBX 18 34 0 0
BITMAP
FFFFC0
FFFFC0
FFFFC0
FFFFC0
FFFFC0
FE0FC0
F803C0
F003C0
F001C0
E0E1C0
E1E0C0
E1F0C0
E1F0C0
FFE0C0
FFE1C0
FFC1C0
FF83C0
FF07C0
FE0FC0
FE1FC0
FE1FC0
FE1FC0
FE1FC0
FFFFC0
FFFFC0
FE3FC0
FE1FC0
FE1FC0
FE1FC0
FF3FC0
FFFFC0
FFFFC0
FFFFC0
FFFFC0
ENDCHAR
STARTCHAR U+9A7F
ENCODING 39551
SWIDTH 500 0
DWIDTH 18 0
BBX 18 34 0 0
BITMAP
FFFFC0
FFFFC0
FFFFC0
FFFFC0
FFFFC0
FE0FC0
F803C0
F003C0
F001C0
E0E1C0
E1E0C0
E1F0C0
E1F0C0
FFE0C0
FFE1C0
FFC1C0
FF83C0
FF07C0
FE0FC0
FE1FC0
FE1FC0
FE1FC0
FE1FC0
FFFFC0
FFFFC0
FE3FC0
FE1FC0
FE1FC0
FE1FC0
FF3FC0
FFFFC0
FFFFC0
FFFFC0
FFFFC0
ENDCHAR
STARTCHAR U+9E5C
ENCODING 40540
SWIDTH 500 0
DWIDTH 18 0
BBX 18 34 0 0
BITMAP
FFFFC0
FFFFC0
FFFFC0
FFFFC0
FFFFC0
FE0FC0
F803C0
F003C0
F001C0
E0E1C0
E1E0C0
E1F0C0
E1F0C0
FFE0C0
FFE1C0
FFC1C0
FF83C0
FF07C0
FE0FC0
FE1FC0
FE1FC0
FE1FC0
FE1FC0
FFFFC0
FFFFC0
FE3FC0
FE1FC0
FE1FC0
FE1FC0
FF3FC0
FFFFC0
FFFFC0
FFFFC0
FFFFC0
ENDCHAR
STARTCHAR U+9ED1
ENCODING 40657
SWIDTH 500 0
DWIDTH 18 0
BBX 18 34 0 0
BITMAP
FFFFC0
FFFFC0
FFFFC0
FFFFC0
FFFFC0
FE0FC0
F803C0
F003C0
F001C0
E0E1C0
E1E0C0
E1F0C0
E1F0C0
FFE0C0
FFE1C0
FFC1C0
FF83C0
FF07C0
FE0FC0
FE1FC0
FE1FC0
FE1FC0
FE1FC0
FFFFC0
FFFFC0
FE3FC0
FE1FC0
FE1FC0
FE1FC0
FF3FC0
FFFFC0
FFFFC0
FFFFC0
FFFFC0
ENDCHAR
STARTCHAR U+FF08
ENCODING 65288
SWIDTH 500 0
DWIDTH 18 0
BBX 18 34 0 0
BITMAP
FFFFC0
FFFFC0
FFFFC0
FFFFC0
FFFFC0
FE0FC0
F803C0
F003C0
F001C0
E0E1C0
E1E0C0
E1F0C0
E1F0C0
FFE0C0
FFE1C0
FFC1C0
FF83C0
FF07C0
FE0FC0
FE1FC0
FE1FC0
FE1FC0
FE1FC0
FFFFC0
FFFFC0
FE3FC0
FE1FC0
FE1FC0
FE1FC0
FF3FC0
FFFFC0
FFFFC0
FFFFC0
FFFFC0
ENDCHAR
STARTCHAR U+FF09
ENCODING 65289
SWIDTH 500 0
DWIDTH 18 0
BBX 18 34 0 0
BITMAP
FFFFC0
FFFFC0
FFFFC0
FFFFC0
FFFFC0
FE0FC0
F803C0
F003C0
F001C0
E0E1C0
E1E0C0
E1F0C0
E1F0C0
FFE0C0
FFE1C0
FFC1C0
FF83C0
FF07C0
FE0FC0
FE1FC0
FE1FC0
FE1FC0
FE1FC0
FFFFC0
FFFFC0
FE3FC0
FE1FC0
FE1FC0
FE1FC0
FF3FC0
FFFFC0
FFFFC0
FFFFC0
FFFFC0
ENDCHAR
STARTCHAR U+FF0C
ENCODING 65292
SWIDTH 500 0
DWIDTH 18 0
BBX 18 34 0 0
BITMAP
FFFFC0
FFFFC0
FFFFC0
FFFFC0
FFFFC0
FE0FC0
F803C0
F003C0
F001C0
E0E1C0
E1E0C0
E1F0C0
E1F0C0
FFE0C0
FFE1C0
FFC1C0
FF83C0
FF07C0
FE0FC0
FE1FC0
FE1FC0
FE1FC0
FE1FC0
FFFFC0
FFFFC0
FE3FC0
FE1FC0
FE1FC0
FE1FC0
FF3FC0
FFFFC0
FFFFC0
FFFFC0
FFFFC0
ENDCHAR
STARTCHAR U+FF1A
ENCODING 65306
SWIDTH 500 0
DWIDTH 18 0
BBX 18 34 0 0
BITMAP
FFFFC0
FFFFC0
FFFFC0
FFFFC0
FFFFC0
FE0FC0
F803C0
F003C0
F001C0
E0E1C0
E1E0C0
E1F0C0
E1F0C0
FFE0C0
FFE1C0
FFC1C0
FF83C0
FF07C0
FE0FC0
FE1FC0
FE1FC0
FE1FC0
FE1FC0
FFFFC0
FFFFC0
FE3FC0
FE1FC0
FE1FC0
FE1FC0
FF3FC0
FFFFC0
FFFFC0
FFFFC0
FFFFC0
ENDCHAR
ENDFONT
