STARTFONT 2.1
FONT BarlowCondensed-SemiBold-36
SIZE 36 75 75
FONTBOUNDINGBOX 72 44 0 -8
STARTPROPERTIES 3
PIXEL_SIZE 36
FONT_ASCENT 36
FONT_DESCENT 8
ENDPROPERTIES
CHARS 219
STARTCHAR U+0020
ENCODING 32
SWIDTH 500 0
DWIDTH 7 0
BBX 0 0 0 0
BITMAP
ENDCHAR
STARTCHAR U+0021
ENCODING 33
SWIDTH 500 0
DWIDTH 10 0
BBX 5 26 2 0
BITMAP
78
78
78
78
78
78
78
78
78
78
78
78
78
78
78
78
70
00
00
00
00
70
78
F8
78
70
ENDCHAR
STARTCHAR U+0022
ENCODING 34
SWIDTH 500 0
DWIDTH 11 0
BBX 9 8 1 18
BITMAP
F780
F780
E380
E380
E380
E380
E380
E380
ENDCHAR
STARTCHAR U+0023
ENCODING 35
SWIDTH 500 0
DWIDTH 22 0
BBX 18 24 2 1
BITMAP
0F0780
0F0780
0F0F80
0F0F00
0F0F00
0F0F00
7FFFC0
7FFFC0
7FFFC0
7FFFC0
1E1E00
1E1E00
1E1E00
3E1E00
FFFF80
FFFF80
FFFF80
FFFF80
3C3C00
3C3C00
7C3C00
7C3C00
787C00
787C00
ENDCHAR
STARTCHAR U+0024
ENCODING 36
SWIDTH 500 0
DWIDTH 16 0
BBX 14 32 1 -3
BITMAP
0700
0700
0700
0F80
1FE0
3FF0
7FF0
78F8
F878
F078
F078
F838
7800
7C00
3F00
3F80
0FC0
07E0
03F0
01F8
00F8
0078
F07C
F078
F878
7CF8
7FF8
3FF0
1FE0
0780
0700
0700
ENDCHAR
STARTCHAR U+0025
ENCODING 37
SWIDTH 500 0
DWIDTH 28 0
BBX 24 26 2 0
BITMAP
1E0070
3F80E0
71C0E0
E0C1C0
C0E1C0
C0E380
C0E380
E0C700
71C700
3F8E00
1E0E00
001C00
001C00
003800
003800
0070F8
0071FC
00E38E
01C706
01C707
038603
038707
070706
07038E
0E01FC
0E00F8
ENDCHAR
STARTCHAR U+0026
ENCODING 38
SWIDTH 500 0
DWIDTH 21 0
BBX 18 26 1 0
BITMAP
07C000
1FF000
1FF800
3FF800
3C7C00
3C3C00
3C3C00
3C3C00
3C7C00
3EF800
1FF800
0FF000
0FE000
1FC000
3FC000
7FE100
7DF3C0
F8FFC0
F07F80
F03F80
F83F00
F83F00
7FFF00
7FFF80
3FF7C0
0FC3C0
ENDCHAR
STARTCHAR U+0027
ENCODING 39
SWIDTH 500 0
DWIDTH 5 0
BBX 4 8 1 18
BITMAP
F0
F0
F0
F0
F0
F0
E0
E0
ENDCHAR
STARTCHAR U+0028
ENCODING 40
SWIDTH 500 0
DWIDTH 10 0
BBX 8 31 0 -3
BITMAP
0F
1E
1E
3E
3C
7C
7C
7C
78
F8
F8
F8
F8
F8
F8
F8
F8
F8
F8
F8
F8
78
78
7C
7C
7C
3C
3E
1E
1E
0F
ENDCHAR
STARTCHAR U+0029
ENCODING 41
SWIDTH 500 0
DWIDTH 10 0
BBX 8 31 2 -3
BITMAP
F0
78
7C
7C
3C
3E
3E
1E
1E
1F
1F
1F
1F
1F
1F
1F
1F
1F
1F
1F
1F
1F
1E
3E
3E
3E
3C
7C
78
78
F0
ENDCHAR
STARTCHAR U+002A
ENCODING 42
SWIDTH 500 0
DWIDTH 13 0
BBX 11 13 1 14
BITMAP
0E00
0E00
0E00
EEE0
FFE0
7FC0
1F00
3F80
FFE0
EEE0
0E40
0E00
0E00
ENDCHAR
STARTCHAR U+002B
ENCODING 43
SWIDTH 500 0
DWIDTH 16 0
BBX 14 14 1 5
BITMAP
0700
0780
0780
0780
0780
FFFC
FFFC
FFFC
FFF8
0780
0780
0780
0780
0700
ENDCHAR
STARTCHAR U+002C
ENCODING 44
SWIDTH 500 0
DWIDTH 7 0
BBX 5 9 1 -3
BITMAP
78
78
70
70
70
70
E0
E0
E0
ENDCHAR
STARTCHAR U+002D
ENCODING 45
SWIDTH 500 0
DWIDTH 12 0
BBX 10 4 1 9
BITMAP
FF80
FFC0
FFC0
FFC0
ENDCHAR
STARTCHAR U+002E
ENCODING 46
SWIDTH 500 0
DWIDTH 8 0
BBX 5 5 1 0
BITMAP
70
78
F8
78
70
ENDCHAR
STARTCHAR U+002F
ENCODING 47
SWIDTH 500 0
DWIDTH 14 0
BBX 11 26 1 0
BITMAP
01E0
01E0
01E0
03C0
03C0
03C0
07C0
0780
0780
0F80
0F00
0F00
0F00
1E00
1E00
1E00
3E00
3C00
3C00
3C00
7800
7800
7800
F800
F000
F000
ENDCHAR
STARTCHAR U+0030
ENCODING 48
SWIDTH 500 0
DWIDTH 16 0
BBX 14 26 1 0
BITMAP
0FC0
1FE0
3FF0
7FF8
7878
787C
F83C
F83C
F83C
F83C
F83C
F83C
F83C
F83C
F83C
F83C
F83C
F83C
F83C
F83C
787C
7878
7FF8
3FF0
1FE0
0FC0
ENDCHAR
STARTCHAR U+0031
ENCODING 49
SWIDTH 500 0
DWIDTH 10 0
BBX 8 26 0 0
BITMAP
1F
7F
FF
FF
FF
0F
0F
0F
0F
0F
0F
0F
0F
0F
0F
0F
0F
0F
0F
0F
0F
0F
0F
0F
0F
0F
ENDCHAR
STARTCHAR U+0032
ENCODING 50
SWIDTH 500 0
DWIDTH 15 0
BBX 14 26 1 0
BITMAP
0F80
3FE0
7FF0
7FF0
F8F8
F078
F078
F078
7078
00F8
00F0
01F0
01F0
03E0
03C0
07C0
0F80
0F00
1F00
3E00
7C00
7C00
FFF8
FFFC
FFFC
FFF8
ENDCHAR
STARTCHAR U+0033
ENCODING 51
SWIDTH 500 0
DWIDTH 15 0
BBX 13 26 1 0
BITMAP
FFF8
FFF8
FFF8
7FF8
01F0
01F0
03E0
07C0
0F80
0F80
1FC0
0FE0
04F0
00F0
0078
0078
0078
0078
F078
F078
F078
F8F8
7FF0
7FF0
3FE0
0F80
ENDCHAR
STARTCHAR U+0034
ENCODING 52
SWIDTH 500 0
DWIDTH 17 0
BBX 15 26 1 0
BITMAP
0780
0F80
0F00
0F00
1F00
1F00
1E00
3E00
3E00
3C00
7C78
7C78
7878
F878
F878
FFFE
FFFE
FFFE
FFFE
0078
0078
0078
0078
0078
0078
0078
ENDCHAR
STARTCHAR U+0035
ENCODING 53
SWIDTH 500 0
DWIDTH 15 0
BBX 13 26 1 0
BITMAP
FFF8
FFF8
FFF8
FFF8
F800
F800
F800
F800
F800
F800
FBC0
FFF0
FFF0
FFF8
F878
7078
0078
0078
0078
7878
7878
7878
7FF8
3FF0
3FE0
0FC0
ENDCHAR
STARTCHAR U+0036
ENCODING 54
SWIDTH 500 0
DWIDTH 15 0
BBX 13 26 1 0
BITMAP
0F80
3FE0
3FF0
7FF8
78F8
F878
F878
F878
F800
FB80
FFE0
FFF0
FFF0
FCF8
F878
F878
F878
F878
F878
7878
7878
78F8
7FF8
3FF0
1FE0
0FC0
ENDCHAR
STARTCHAR U+0037
ENCODING 55
SWIDTH 500 0
DWIDTH 14 0
BBX 13 26 1 0
BITMAP
FFF8
FFF8
FFF8
FFF8
E0F0
E0F0
01F0
01F0
01E0
01E0
03E0
03E0
03C0
03C0
07C0
0780
0780
0F80
0F80
0F00
0F00
1F00
1E00
1E00
1E00
3E00
ENDCHAR
STARTCHAR U+0038
ENCODING 56
SWIDTH 500 0
DWIDTH 16 0
BBX 13 26 1 0
BITMAP
0F80
3FE0
3FF0
7FF8
78F8
F878
F878
F878
7878
78F8
7FF0
3FF0
1FE0
3FF0
7CF0
7878
7878
F878
F878
F878
7878
78F8
7FF0
3FF0
1FE0
0F80
ENDCHAR
STARTCHAR U+0039
ENCODING 57
SWIDTH 500 0
DWIDTH 15 0
BBX 13 26 1 0
BITMAP
0F80
3FE0
7FF0
FFF0
F8F0
F0F8
F078
F078
F078
F078
F0F8
F0F8
F8F8
7FF8
7FF8
3FF8
0678
0078
7078
F078
F0F8
F8F8
7FF0
7FF0
3FE0
0F80
ENDCHAR
STARTCHAR U+003A
ENCODING 58
SWIDTH 500 0
DWIDTH 9 0
BBX 5 17 2 0
BITMAP
70
F8
F8
F8
70
00
00
00
00
00
00
00
70
F8
F8
F8
70
ENDCHAR
STARTCHAR U+003B
ENCODING 59
SWIDTH 500 0
DWIDTH 8 0
BBX 6 21 1 -3
BITMAP
30
78
FC
FC
78
30
00
00
00
00
00
00
78
78
70
70
70
70
70
60
E0
ENDCHAR
STARTCHAR U+003C
ENCODING 60
SWIDTH 500 0
DWIDTH 16 0
BBX 14 16 1 2
BITMAP
000C
007C
01FC
07FC
1FE0
7F80
FE00
F800
FC00
FF00
3FC0
0FF0
03FC
00FC
003C
0004
ENDCHAR
STARTCHAR U+003D
ENCODING 61
SWIDTH 500 0
DWIDTH 16 0
BBX 14 10 1 7
BITMAP
FFFC
FFFC
FFFC
0000
0000
0000
0000
FFFC
FFFC
FFFC
ENDCHAR
STARTCHAR U+003E
ENCODING 62
SWIDTH 500 0
DWIDTH 16 0
BBX 14 16 1 2
BITMAP
C000
F000
FC00
FF80
3FE0
07F8
01FC
007C
00FC
03FC
0FF0
7FC0
FF00
FC00
E000
8000
ENDCHAR
STARTCHAR U+003F
ENCODING 63
SWIDTH 500 0
DWIDTH 15 0
BBX 13 26 1 0
BITMAP
0F80
3FE0
7FF0
7FF0
F8F8
F078
F078
F078
0078
00F8
01F0
03F0
07E0
07C0
0F80
0F00
0F00
0F00
0000
0000
0000
0E00
0F00
1F00
0F00
0E00
ENDCHAR
STARTCHAR U+0040
ENCODING 64
SWIDTH 500 0
DWIDTH 27 0
BBX 25 26 1 -3
BITMAP
001FC000
00FFF000
01FFFC00
07C07E00
0F801E00
0E000F00
1C000700
3C3F8780
387F8380
70F38380
70E38380
70E38380
70E38380
E0C30780
E1C30700
E1C78F00
E0E7FE00
70FFFC00
707DF800
70000000
78000000
3C000000
1F038000
0FFF8000
07FF0000
01FC0000
ENDCHAR
STARTCHAR U+0041
ENCODING 65
SWIDTH 500 0
DWIDTH 16 0
BBX 15 26 1 0
BITMAP
07C0
07C0
0FC0
0FC0
0FC0
0FE0
0FE0
1FE0
1EE0
1CF0
1CF0
3CF0
3CF0
3C70
3C78
3878
7878
7878
7FF8
7FFC
7FFC
FFFC
F03C
F03C
F03E
F01E
ENDCHAR
STARTCHAR U+0042
ENCODING 66
SWIDTH 500 0
DWIDTH 17 0
BBX 14 26 2 0
BITMAP
FF80
FFE0
FFF0
FFF8
F0F8
F078
F078
F078
F078
F078
F0F8
FFF0
FFE0
FFE0
FFF0
F0F8
F078
F07C
F07C
F07C
F07C
F0F8
FFF8
FFF0
FFE0
FFC0
ENDCHAR
STARTCHAR U+0043
ENCODING 67
SWIDTH 500 0
DWIDTH 16 0
BBX 13 26 2 0
BITMAP
1F80
3FE0
7FF0
FFF0
F0F8
F078
F078
F078
F000
F000
F000
F000
F000
F000
F000
F000
F000
F000
F078
F078
F078
F0F8
FFF0
7FF0
3FE0
1F80
ENDCHAR
STARTCHAR U+0044
ENCODING 68
SWIDTH 500 0
DWIDTH 17 0
BBX 13 26 2 0
BITMAP
FF80
FFE0
FFF0
FFF8
F0F8
F078
F078
F078
F078
F078
F078
F078
F078
F078
F078
F078
F078
F078
F078
F078
F078
F0F8
FFF8
FFF0
FFE0
FF80
ENDCHAR
STARTCHAR U+0045
ENCODING 69
SWIDTH 500 0
DWIDTH 16 0
BBX 13 26 2 0
BITMAP
FFF0
FFF8
FFF8
FFF0
F000
F000
F000
F000
F000
F000
F000
FF80
FF80
FF80
FF80
F000
F000
F000
F000
F000
F000
F000
FFF0
FFF8
FFF8
FFF0
ENDCHAR
STARTCHAR U+0046
ENCODING 70
SWIDTH 500 0
DWIDTH 15 0
BBX 12 26 2 0
BITMAP
FFF0
FFF0
FFF0
FFF0
F000
F000
F000
F000
F000
F000
F000
FF80
FF80
FF80
FF80
F000
F000
F000
F000
F000
F000
F000
F000
F000
F000
F000
ENDCHAR
STARTCHAR U+0047
ENCODING 71
SWIDTH 500 0
DWIDTH 17 0
BBX 13 26 2 0
BITMAP
1F80
3FE0
7FF0
FFF0
F0F8
F078
F078
F078
F000
F000
F000
F000
F3F8
F3F8
F3F8
F1F8
F078
F078
F078
F078
F078
F0F8
FFF0
7FF0
3FE0
1F80
ENDCHAR
STARTCHAR U+0048
ENCODING 72
SWIDTH 500 0
DWIDTH 17 0
BBX 13 26 2 0
BITMAP
F078
F078
F078
F078
F078
F078
F078
F078
F078
F078
F078
FFF8
FFF8
FFF8
FFF8
F078
F078
F078
F078
F078
F078
F078
F078
F078
F078
F078
ENDCHAR
STARTCHAR U+0049
ENCODING 73
SWIDTH 500 0
DWIDTH 8 0
BBX 4 26 2 0
BITMAP
F0
F0
F0
F0
F0
F0
F0
F0
F0
F0
F0
F0
F0
F0
F0
F0
F0
F0
F0
F0
F0
F0
F0
F0
F0
F0
ENDCHAR
STARTCHAR U+004A
ENCODING 74
SWIDTH 500 0
DWIDTH 16 0
BBX 13 26 1 0
BITMAP
0078
0078
0078
0078
0078
0078
0078
0078
0078
0078
0078
0078
0078
0078
0078
0078
F078
F078
F078
F078
F078
F8F8
FFF0
7FF0
3FE0
0F80
ENDCHAR
STARTCHAR U+004B
ENCODING 75
SWIDTH 500 0
DWIDTH 17 0
BBX 14 26 2 0
BITMAP
F03C
F07C
F078
F0F8
F0F0
F1F0
F1E0
F3E0
F3C0
F7C0
FF80
FF80
FF80
FFC0
FFC0
FBC0
FBE0
F1E0
F1F0
F0F0
F0F0
F0F8
F078
F07C
F03C
F03C
ENDCHAR
STARTCHAR U+004C
ENCODING 76
SWIDTH 500 0
DWIDTH 15 0
BBX 13 26 2 0
BITMAP
F000
F000
F000
F000
F000
F000
F000
F000
F000
F000
F000
F000
F000
F000
F000
F000
F000
F000
F000
F000
F000
F000
FFF0
FFF8
FFF8
FFF0
ENDCHAR
STARTCHAR U+004D
ENCODING 77
SWIDTH 500 0
DWIDTH 19 0
BBX 16 26 2 0
BITMAP
F01E
F81F
F83F
FC3F
FC7F
FE7F
FEFF
FFFF
FFFF
F7DF
F7DF
F39F
F19F
F11F
F01F
F01F
F01F
F01F
F01F
F01F
F01F
F01F
F01F
F01F
F01F
F01E
ENDCHAR
STARTCHAR U+004E
ENCODING 78
SWIDTH 500 0
DWIDTH 18 0
BBX 14 26 2 0
BITMAP
F83C
F83C
F83C
FC3C
FC3C
FC3C
FE3C
FE3C
FE3C
FF3C
FF3C
F73C
F7BC
F7BC
F3BC
F3FC
F3FC
F1FC
F1FC
F0FC
F0FC
F0FC
F07C
F07C
F07C
F03C
ENDCHAR
STARTCHAR U+004F
ENCODING 79
SWIDTH 500 0
DWIDTH 17 0
BBX 13 26 2 0
BITMAP
0F80
3FE0
7FF0
FFF8
F8F8
F078
F078
F078
F078
F078
F078
F078
F078
F078
F078
F078
F078
F078
F078
F078
F078
F8F8
FFF8
7FF0
3FE0
0F80
ENDCHAR
STARTCHAR U+0050
ENCODING 80
SWIDTH 500 0
DWIDTH 16 0
BBX 14 26 2 0
BITMAP
FF80
FFE0
FFF0
FFF8
F0F8
F078
F078
F07C
F07C
F078
F078
F0F8
FFF0
FFF0
FFE0
FF80
F000
F000
F000
F000
F000
F000
F000
F000
F000
F000
ENDCHAR
STARTCHAR U+0051
ENCODING 81
SWIDTH 500 0
DWIDTH 16 0
BBX 13 30 2 -4
BITMAP
0F80
3FC0
7FE0
FFF0
F0F0
F0F8
F078
F078
F078
F078
F078
F078
F078
F078
F078
F078
F078
F078
F078
F078
F078
F0F8
F8F0
7FF0
7FE0
3FC0
0F00
0F00
0F00
0F00
ENDCHAR
STARTCHAR U+0052
ENCODING 82
SWIDTH 500 0
DWIDTH 17 0
BBX 14 26 2 0
BITMAP
FFC0
FFE0
FFF0
FFF8
F0F8
F078
F078
F07C
F07C
F078
F0F8
FFF8
FFF0
FFE0
FFC0
F3E0
F1E0
F1E0
F1F0
F0F0
F0F0
F0F0
F078
F078
F078
F07C
ENDCHAR
STARTCHAR U+0053
ENCODING 83
SWIDTH 500 0
DWIDTH 16 0
BBX 14 26 1 0
BITMAP
0F80
3FE0
7FF0
7FF8
F8F8
F078
F078
F078
F800
7C00
7E00
3F00
1F80
0FE0
07F0
01F0
00F8
0078
F078
F07C
F878
7878
7FF8
7FF0
3FE0
0FC0
ENDCHAR
STARTCHAR U+0054
ENCODING 84
SWIDTH 500 0
DWIDTH 16 0
BBX 14 26 1 0
BITMAP
FFFC
FFFC
FFFC
FFFC
0780
0780
0780
0780
0780
0780
0780
0780
0780
0780
0780
0780
0780
0780
0780
0780
0780
0780
0780
0780
0780
0780
ENDCHAR
STARTCHAR U+0055
ENCODING 85
SWIDTH 500 0
DWIDTH 17 0
BBX 13 26 2 0
BITMAP
F078
F078
F078
F078
F078
F078
F078
F078
F078
F078
F078
F078
F078
F078
F078
F078
F078
F078
F078
F078
F078
F8F8
7FF8
7FF0
3FE0
0F80
ENDCHAR
STARTCHAR U+0056
ENCODING 86
SWIDTH 500 0
DWIDTH 17 0
BBX 15 26 1 0
BITMAP
F01E
F83E
F83E
783C
783C
783C
783C
7C7C
3C78
3C78
3C78
3C78
3C70
1EF0
1EF0
1EF0
1EF0
1EE0
0FE0
0FE0
0FE0
0FE0
07C0
07C0
07C0
07C0
ENDCHAR
STARTCHAR U+0057
ENCODING 87
SWIDTH 500 0
DWIDTH 24 0
BBX 22 26 1 0
BITMAP
F0783C
F0783C
F0783C
F8787C
787C78
78FC78
78FC78
78FC78
78FC78
3CFC70
3CFEF0
3CFEF0
3DFEF0
3DCEF0
1DCEF0
1FCFE0
1FCFE0
1FCFE0
1FCFE0
1FC7E0
0F87C0
0F87C0
0F87C0
0F87C0
0F87C0
0783C0
ENDCHAR
STARTCHAR U+0058
ENCODING 88
SWIDTH 500 0
DWIDTH 17 0
BBX 14 26 1 0
BITMAP
F03C
F83C
783C
7878
3C78
3C70
3CF0
1EF0
1FE0
0FE0
0FE0
0FC0
07C0
07C0
07C0
0FC0
0FE0
1FE0
1EF0
1EF0
3CF0
3C78
7878
787C
783C
F03C
ENDCHAR
STARTCHAR U+0059
ENCODING 89
SWIDTH 500 0
DWIDTH 16 0
BBX 14 26 1 0
BITMAP
F03C
F83C
787C
7878
7C78
3C78
3CF0
3CF0
1EF0
1FE0
1FE0
0FE0
0FC0
07C0
07C0
0780
0780
0780
0780
0780
0780
0780
0780
0780
0780
0780
ENDCHAR
STARTCHAR U+005A
ENCODING 90
SWIDTH 500 0
DWIDTH 15 0
BBX 13 26 1 0
BITMAP
FFF8
FFF8
FFF8
FFF8
00F0
01F0
01E0
03E0
03C0
03C0
07C0
0780
0F80
0F00
1F00
1E00
3E00
3C00
3C00
7C00
7800
F800
FFF0
FFF8
FFF8
FFF8
ENDCHAR
STARTCHAR U+005B
ENCODING 91
SWIDTH 500 0
DWIDTH 12 0
BBX 8 34 1 -5
BITMAP
FE
FF
FF
FE
F0
F0
F0
F0
F0
F0
F0
F0
F0
F0
F0
F0
F0
F0
F0
F0
F0
F0
F0
F0
F0
F0
F0
F0
F0
F0
FE
FF
FF
FE
ENDCHAR
STARTCHAR U+005C
ENCODING 92
SWIDTH 500 0
DWIDTH 14 0
BBX 11 26 2 0
BITMAP
F000
F000
F000
7800
7800
7800
7C00
3C00
3C00
3C00
1E00
1E00
1E00
1F00
0F00
0F00
0F80
0780
0780
0780
03C0
03C0
03C0
03E0
01E0
01E0
ENDCHAR
STARTCHAR U+005D
ENCODING 93
SWIDTH 500 0
DWIDTH 12 0
BBX 8 34 3 -5
BITMAP
FF
FF
FF
7F
0F
0F
0F
0F
0F
0F
0F
0F
0F
0F
0F
0F
0F
0F
0F
0F
0F
0F
0F
0F
0F
0F
0F
0F
0F
0F
7F
FF
FF
FF
ENDCHAR
STARTCHAR U+005E
ENCODING 94
SWIDTH 500 0
DWIDTH 15 0
BBX 13 15 1 11
BITMAP
0200
0F00
0F80
0F80
1F80
1FC0
1DC0
3DC0
39E0
38E0
78E0
78F0
7070
F070
F078
ENDCHAR
STARTCHAR U+005F
ENCODING 95
SWIDTH 500 0
DWIDTH 15 0
BBX 13 4 1 0
BITMAP
FFF8
FFF8
FFF8
FFF8
ENDCHAR
STARTCHAR U+0060
ENCODING 96
SWIDTH 500 0
DWIDTH 7 0
BBX 5 5 1 21
BITMAP
E0
70
78
38
38
ENDCHAR
STARTCHAR U+0061
ENCODING 97
SWIDTH 500 0
DWIDTH 16 0
BBX 13 19 1 0
BITMAP
0FC0
1FE0
3FF0
7FF8
78F8
7878
0078
07F8
3FF8
7FF8
7FF8
F878
F878
F078
F8F8
FFF8
7FF8
7FF8
1F78
ENDCHAR
STARTCHAR U+0062
ENCODING 98
SWIDTH 500 0
DWIDTH 16 0
BBX 12 26 2 0
BITMAP
F000
F000
F000
F000
F000
F000
F000
F7C0
FFE0
FFF0
FFF0
F0F0
F0F0
F0F0
F0F0
F0F0
F0F0
F0F0
F0F0
F0F0
F0F0
F0F0
FFF0
FFF0
FFE0
F7C0
ENDCHAR
STARTCHAR U+0063
ENCODING 99
SWIDTH 500 0
DWIDTH 15 0
BBX 13 19 1 0
BITMAP
0FC0
3FE0
7FF0
7FF8
78F8
F878
F878
F800
F800
F800
F800
F800
F878
F878
78F8
7FF8
7FF0
3FE0
0FC0
ENDCHAR
STARTCHAR U+0064
ENCODING 100
SWIDTH 500 0
DWIDTH 16 0
BBX 13 26 1 0
BITMAP
0078
0078
0078
0078
0078
0078
0078
1E78
3FF8
7FF8
7FF8
F8F8
F878
F878
F878
F878
F878
F878
F878
F878
F878
F8F8
7FF8
7FF8
3FF8
1F78
ENDCHAR
STARTCHAR U+0065
ENCODING 101
SWIDTH 500 0
DWIDTH 15 0
BBX 13 19 1 0
BITMAP
0FC0
3FE0
7FF0
7FF8
78F8
F878
F878
FFF8
FFF8
FFF8
FFF8
F800
F800
F878
78F8
7FF8
7FF0
3FE0
0FC0
ENDCHAR
STARTCHAR U+0066
ENCODING 102
SWIDTH 500 0
DWIDTH 10 0
BBX 9 26 1 0
BITMAP
0700
1F00
3F00
3F00
3C00
3C00
3C00
FF00
FF80
FF80
FF00
3C00
3C00
3C00
3C00
3C00
3C00
3C00
3C00
3C00
3C00
3C00
3C00
3C00
3C00
3C00
ENDCHAR
STARTCHAR U+0067
ENCODING 103
SWIDTH 500 0
DWIDTH 16 0
BBX 13 26 1 -7
BITMAP
1F78
3FF8
7FF8
7FF8
F8F8
F878
F878
F878
F878
F878
F878
F878
F878
F878
F8F8
7FF8
7FF8
3FF8
1E78
0078
0078
00F8
03F0
1FF0
1FE0
1FC0
ENDCHAR
STARTCHAR U+0068
ENCODING 104
SWIDTH 500 0
DWIDTH 16 0
BBX 12 26 2 0
BITMAP
F000
F000
F000
F000
F000
F000
F000
F7C0
FFE0
FFF0
FFF0
F0F0
F0F0
F0F0
F0F0
F0F0
F0F0
F0F0
F0F0
F0F0
F0F0
F0F0
F0F0
F0F0
F0F0
F0F0
ENDCHAR
STARTCHAR U+0069
ENCODING 105
SWIDTH 500 0
DWIDTH 8 0
BBX 5 26 1 0
BITMAP
70
78
F8
78
70
00
00
78
78
78
78
78
78
78
78
78
78
78
78
78
78
78
78
78
78
78
ENDCHAR
STARTCHAR U+006A
ENCODING 106
SWIDTH 500 0
DWIDTH 8 0
BBX 8 33 -2 -7
BITMAP
0E
1F
1F
1F
0E
00
00
0F
0F
0F
0F
0F
0F
0F
0F
0F
0F
0F
0F
0F
0F
0F
0F
0F
0F
0F
0F
0F
1F
3F
FE
FE
FC
ENDCHAR
STARTCHAR U+006B
ENCODING 107
SWIDTH 500 0
DWIDTH 16 0
BBX 13 26 2 0
BITMAP
F000
F000
F000
F000
F000
F000
F000
F0F0
F1F0
F1E0
F3C0
F7C0
F780
FF00
FF80
FF80
FF80
FFC0
FBC0
F1E0
F1E0
F1E0
F1F0
F0F0
F0F0
F0F8
ENDCHAR
STARTCHAR U+006C
ENCODING 108
SWIDTH 500 0
DWIDTH 7 0
BBX 4 26 2 0
BITMAP
F0
F0
F0
F0
F0
F0
F0
F0
F0
F0
F0
F0
F0
F0
F0
F0
F0
F0
F0
F0
F0
F0
F0
F0
F0
F0
ENDCHAR
STARTCHAR U+006D
ENCODING 109
SWIDTH 500 0
DWIDTH 24 0
BBX 20 19 2 0
BITMAP
F7C3C0
FFEFE0
FFFFF0
FFFFF0
F1F8F0
F0F0F0
F0F0F0
F0F0F0
F0F0F0
F0F0F0
F0F0F0
F0F0F0
F0F0F0
F0F0F0
F0F0F0
F0F0F0
F0F0F0
F0F0F0
F0F0F0
ENDCHAR
STARTCHAR U+006E
ENCODING 110
SWIDTH 500 0
DWIDTH 16 0
BBX 12 19 2 0
BITMAP
F7C0
FFE0
FFF0
FFF0
F0F0
F0F0
F0F0
F0F0
F0F0
F0F0
F0F0
F0F0
F0F0
F0F0
F0F0
F0F0
F0F0
F0F0
F0F0
ENDCHAR
STARTCHAR U+006F
ENCODING 111
SWIDTH 500 0
DWIDTH 16 0
BBX 13 19 1 0
BITMAP
0FC0
3FE0
7FF0
7FF8
78F8
F878
F878
F878
F878
F878
F878
F878
F878
F878
78F8
7FF8
7FF0
3FE0
0FC0
ENDCHAR
STARTCHAR U+0070
ENCODING 112
SWIDTH 500 0
DWIDTH 16 0
BBX 13 26 2 -7
BITMAP
F7C0
FFE0
FFF0
FFF0
F8F0
F0F0
F0F8
F0F8
F0F8
F0F8
F0F8
F0F8
F0F8
F0F0
F8F0
FFF0
FFF0
FFE0
F7C0
F000
F000
F000
F000
F000
F000
F000
ENDCHAR
STARTCHAR U+0071
ENCODING 113
SWIDTH 500 0
DWIDTH 16 0
BBX 13 26 1 -7
BITMAP
1F78
3FF8
7FF8
7FF8
F8F8
F878
F878
F878
F878
F878
F878
F878
F878
F878
F8F8
7FF8
7FF8
3FF8
1F78
0078
0078
0078
0078
0078
0078
0078
ENDCHAR
STARTCHAR U+0072
ENCODING 114
SWIDTH 500 0
DWIDTH 11 0
BBX 9 19 2 0
BITMAP
F780
FF80
FF80
FF00
F800
F000
F000
F000
F000
F000
F000
F000
F000
F000
F000
F000
F000
F000
F000
ENDCHAR
STARTCHAR U+0073
ENCODING 115
SWIDTH 500 0
DWIDTH 14 0
BBX 13 19 1 0
BITMAP
1F80
3FE0
7FE0
7FF0
F8F0
F0F0
F800
7C00
7F00
1FC0
0FE0
01F0
00F0
F0F8
F0F8
FFF0
7FF0
3FE0
1F80
ENDCHAR
STARTCHAR U+0074
ENCODING 116
SWIDTH 500 0
DWIDTH 10 0
BBX 8 24 1 0
BITMAP
38
7C
7C
7C
7C
FF
FF
FF
7C
7C
7C
7C
7C
7C
7C
7C
7C
7C
7C
7C
3F
3F
3F
0F
ENDCHAR
STARTCHAR U+0075
ENCODING 117
SWIDTH 500 0
DWIDTH 16 0
BBX 12 19 2 0
BITMAP
F0F0
F0F0
F0F0
F0F0
F0F0
F0F0
F0F0
F0F0
F0F0
F0F0
F0F0
F0F0
F0F0
F0F0
F1F0
FFF0
FFF0
7FF0
3EF0
ENDCHAR
STARTCHAR U+0076
ENCODING 118
SWIDTH 500 0
DWIDTH 15 0
BBX 13 19 1 0
BITMAP
F078
F078
F8F8
F8F8
78F0
78F0
78F0
7DF0
3DE0
3DE0
3DE0
3FE0
1FC0
1FC0
1FC0
1FC0
0F80
0F80
0F80
ENDCHAR
STARTCHAR U+0077
ENCODING 119
SWIDTH 500 0
DWIDTH 21 0
BBX 20 19 1 0
BITMAP
F0F0F0
F0F1E0
F1F1E0
F1F1E0
F1F1E0
79F1E0
79F9C0
79F9C0
7BFBC0
3BBBC0
3BBB80
3FBF80
3F9F80
3F1F80
1F1F80
1F1F00
1F1F00
1F1F00
0F0F00
ENDCHAR
STARTCHAR U+0078
ENCODING 120
SWIDTH 500 0
DWIDTH 15 0
BBX 13 19 1 0
BITMAP
F078
F8F8
78F0
7DF0
3DE0
3FE0
1FC0
1FC0
1FC0
0F80
1FC0
1FC0
1FC0
3FE0
3DE0
7DF0
78F0
F8F8
F078
ENDCHAR
STARTCHAR U+0079
ENCODING 121
SWIDTH 500 0
DWIDTH 15 0
BBX 13 26 1 -7
BITMAP
F078
F0F8
F0F0
F8F0
78F0
78F0
79E0
79E0
39E0
3DE0
3DC0
3DC0
1FC0
1FC0
1F80
1F80
0F80
0F80
0F80
0F00
0F00
0F00
1E00
FE00
FC00
F800
ENDCHAR
STARTCHAR U+007A
ENCODING 122
SWIDTH 500 0
DWIDTH 13 0
BBX 11 19 1 0
BITMAP
FFE0
FFE0
FFE0
FFE0
03E0
07C0
07C0
0F80
0F80
1F00
1E00
3E00
7C00
7C00
F800
FFE0
FFE0
FFE0
FFE0
ENDCHAR
STARTCHAR U+007B
ENCODING 123
SWIDTH 500 0
DWIDTH 11 0
BBX 9 34 1 -5
BITMAP
0F80
1F80
1F80
3F80
3E00
3E00
3E00
3E00
3E00
3E00
3E00
3E00
3E00
3C00
3C00
FC00
F800
F800
FC00
3C00
3C00
3E00
3E00
3E00
3E00
3E00
3E00
3E00
3E00
3E00
3F80
1F80
1F80
0F80
ENDCHAR
STARTCHAR U+007C
ENCODING 124
SWIDTH 500 0
DWIDTH 6 0
BBX 4 31 1 -3
BITMAP
F0
F0
F0
F0
F0
F0
F0
F0
F0
F0
F0
F0
F0
F0
F0
F0
F0
F0
F0
F0
F0
F0
F0
F0
F0
F0
F0
F0
F0
F0
F0
ENDCHAR
STARTCHAR U+007D
ENCODING 125
SWIDTH 500 0
DWIDTH 11 0
BBX 9 34 1 -5
BITMAP
F800
FC00
FE00
FE00
1E00
1E00
1E00
1E00
1E00
1E00
1E00
1E00
1E00
1E00
1F00
0F80
0F80
0F80
0F80
1F00
1E00
1E00
1E00
1E00
1E00
1E00
1E00
1E00
1E00
1E00
FE00
FE00
FC00
F800
ENDCHAR
STARTCHAR U+007E
ENCODING 126
SWIDTH 500 0
DWIDTH 17 0
BBX 15 6 1 8
BITMAP
0800
3F0C
7FFE
FFFE
F1FC
0070
ENDCHAR
STARTCHAR U+00B7
ENCODING 183
SWIDTH 500 0
DWIDTH 8 0
BBX 5 5 1 8
BITMAP
70
78
F8
78
70
ENDCHAR
STARTCHAR U+00D7
ENCODING 215
SWIDTH 500 0
DWIDTH 14 0
BBX 12 11 1 6
BITMAP
2040
70E0
F9F0
7FE0
3FC0
1F80
1F80
3FC0
7FE0
F9F0
70E0
ENDCHAR
STARTCHAR U+2460
ENCODING 9312
SWIDTH 500 0
DWIDTH 14 0
BBX 14 25 0 0
BITMAP
FFFC
FFFC
FFFC
F87C
F03C
E01C
E30C
C78C
C78C
FF0C
FF1C
FE1C
FC3C
F87C
F8FC
F8FC
FFFC
FFFC
FCFC
F8FC
F8FC
FCFC
FFFC
FFFC
FFFC
ENDCHAR
STARTCHAR U+2461
ENCODING 9313
SWIDTH 500 0
DWIDTH 14 0
BBX 14 25 0 0
BITMAP
FFFC
FFFC
FFFC
F87C
F03C
E01C
E30C
C78C
C78C
FF0C
FF1C
FE1C
FC3C
F87C
F8FC
F8FC
FFFC
FFFC
FCFC
F8FC
F8FC
FCFC
FFFC
FFFC
FFFC
ENDCHAR
STARTCHAR U+2462
ENCODING 9314
SWIDTH 500 0
DWIDTH 14 0
BBX 14 25 0 0
BITMAP
FFFC
FFFC
FFFC
F87C
F03C
E01C
E30C
C78C
C78C
FF0C
FF1C
FE1C
FC3C
F87C
F8FC
F8FC
FFFC
FFFC
FCFC
F8FC
F8FC
FCFC
FFFC
FFFC
FFFC
ENDCHAR
STARTCHAR U+2463
ENCODING 9315
SWIDTH 500 0
DWIDTH 14 0
BBX 14 25 0 0
BITMAP
FFFC
FFFC
FFFC
F87C
F03C
E01C
E30C
C78C
C78C
FF0C
FF1C
FE1C
FC3C
F87C
F8FC
F8FC
FFFC
FFFC
FCFC
F8FC
F8FC
FCFC
FFFC
FFFC
FFFC
ENDCHAR
STARTCHAR U+2464
ENCODING 9316
SWIDTH 500 0
DWIDTH 14 0
BBX 14 25 0 0
BITMAP
FFFC
FFFC
FFFC
F87C
F03C
E01C
E30C
C78C
C78C
FF0C
FF1C
FE1C
FC3C
F87C
F8FC
F8FC
FFFC
FFFC
FCFC
F8FC
F8FC
FCFC
FFFC
FFFC
FFFC
ENDCHAR
STARTCHAR U+3001
ENCODING 12289
SWIDTH 500 0
DWIDTH 14 0
BBX 14 25 0 0
BITMAP
FFFC
FFFC
FFFC
F87C
F03C
E01C
E30C
C78C
C78C
FF0C
FF1C
FE1C
FC3C
F87C
F8FC
F8FC
FFFC
FFFC
FCFC
F8FC
F8FC
FCFC
FFFC
FFFC
FFFC
ENDCHAR
STARTCHAR U+3002
ENCODING 12290
SWIDTH 500 0
DWIDTH 14 0
BBX 14 25 0 0
BITMAP
FFFC
FFFC
FFFC
F87C
F03C
E01C
E30C
C78C
C78C
FF0C
FF1C
FE1C
FC3C
F87C
F8FC
F8FC
FFFC
FFFC
FCFC
F8FC
F8FC
FCFC
FFFC
FFFC
FFFC
ENDCHAR
STARTCHAR U+3010
ENCODING 12304
SWIDTH 500 0
DWIDTH 14 0
BBX 14 25 0 0
BITMAP
FFFC
FFFC
FFFC
F87C
F03C
E01C
E30C
C78C
C78C
FF0C
FF1C
FE1C
FC3C
F87C
F8FC
F8FC
FFFC
FFFC
FCFC
F8FC
F8FC
FCFC
FFFC
FFFC
FFFC
ENDCHAR
STARTCHAR U+3011
ENCODING 12305
SWIDTH 500 0
DWIDTH 14 0
BBX 14 25 0 0
BITMAP
FFFC
FFFC
FFFC
F87C
F03C
E01C
E30C
C78C
C78C
FF0C
FF1C
FE1C
FC3C
F87C
F8FC
F8FC
FFFC
FFFC
FCFC
F8FC
F8FC
FCFC
FFFC
FFFC
FFFC
ENDCHAR
STARTCHAR U+4E00
ENCODING 19968
SWIDTH 500 0
DWIDTH 14 0
BBX 14 25 0 0
BITMAP
FFFC
FFFC
FFFC
F87C
F03C
E01C
E30C
C78C
C78C
FF0C
FF1C
FE1C
FC3C
F87C
F8FC
F8FC
FFFC
FFFC
FCFC
F8FC
F8FC
FCFC
FFFC
FFFC
FFFC
ENDCHAR
STARTCHAR U+4E01
ENCODING 19969
SWIDTH 500 0
DWIDTH 14 0
BBX 14 25 0 0
BITMAP
FFFC
FFFC
FFFC
F87C
F03C
E01C
E30C
C78C
C78C
FF0C
FF1C
FE1C
FC3C
F87C
F8FC
F8FC
FFFC
FFFC
FCFC
F8FC
F8FC
FCFC
FFFC
FFFC
FFFC
ENDCHAR
STARTCHAR U+4E09
ENCODING 19977
SWIDTH 500 0
DWIDTH 14 0
BBX 14 25 0 0
BITMAP
FFFC
FFFC
FFFC
F87C
F03C
E01C
E30C
C78C
C78C
FF0C
FF1C
FE1C
FC3C
F87C
F8FC
F8FC
FFFC
FFFC
FCFC
F8FC
F8FC
FCFC
FFFC
FFFC
FFFC
ENDCHAR
STARTCHAR U+4E0A
ENCODING 19978
SWIDTH 500 0
DWIDTH 14 0
BBX 14 25 0 0
BITMAP
FFFC
FFFC
FFFC
F87C
F03C
E01C
E30C
C78C
C78C
FF0C
FF1C
FE1C
FC3C
F87C
F8FC
F8FC
FFFC
FFFC
FCFC
F8FC
F8FC
FCFC
FFFC
FFFC
FFFC
ENDCHAR
STARTCHAR U+4E11
ENCODING 19985
SWIDTH 500 0
DWIDTH 14 0
BBX 14 25 0 0
BITMAP
FFFC
FFFC
FFFC
F87C
F03C
E01C
E30C
C78C
C78C
FF0C
FF1C
FE1C
FC3C
F87C
F8FC
F8FC
FFFC
FFFC
FCFC
F8FC
F8FC
FCFC
FFFC
FFFC
FFFC
ENDCHAR
STARTCHAR U+4E19
ENCODING 19993
SWIDTH 500 0
DWIDTH 14 0
BBX 14 25 0 0
BITMAP
FFFC
FFFC
FFFC
F87C
F03C
E01C
E30C
C78C
C78C
FF0C
FF1C
FE1C
FC3C
F87C
F8FC
F8FC
FFFC
FFFC
FCFC
F8FC
F8FC
FCFC
FFFC
FFFC
FFFC
ENDCHAR
STARTCHAR U+4E2D
ENCODING 20013
SWIDTH 500 0
DWIDTH 14 0
BBX 14 25 0 0
BITMAP
FFFC
FFFC
FFFC
F87C
F03C
E01C
E30C
C78C
C78C
FF0C
FF1C
FE1C
FC3C
F87C
F8FC
F8FC
FFFC
FFFC
FCFC
F8FC
F8FC
FCFC
FFFC
FFFC
FFFC
ENDCHAR
STARTCHAR U+4E3E
ENCODING 20030
SWIDTH 500 0
DWIDTH 14 0
BBX 14 25 0 0
BITMAP
FFFC
FFFC
FFFC
F87C
F03C
E01C
E30C
C78C
C78C
FF0C
FF1C
FE1C
FC3C
F87C
F8FC
F8FC
FFFC
FFFC
FCFC
F8FC
F8FC
FCFC
FFFC
FFFC
FFFC
ENDCHAR
STARTCHAR U+4E59
ENCODING 20057
SWIDTH 500 0
DWIDTH 14 0
BBX 14 25 0 0
BITMAP
FFFC
FFFC
FFFC
F87C
F03C
E01C
E30C
C78C
C78C
FF0C
FF1C
FE1C
FC3C
F87C
F8FC
F8FC
FFFC
FFFC
FCFC
F8FC
F8FC
FCFC
FFFC
FFFC
FFFC
ENDCHAR
STARTCHAR U+4E5D
ENCODING 20061
SWIDTH 500 0
DWIDTH 14 0
BBX 14 25 0 0
BITMAP
FFFC
FFFC
FFFC
F87C
F03C
E01C
E30C
C78C
C78C
FF0C
FF1C
FE1C
FC3C
F87C
F8FC
F8FC
FFFC
FFFC
FCFC
F8FC
F8FC
FCFC
FFFC
FFFC
FFFC
ENDCHAR
STARTCHAR U+4E61
ENCODING 20065
SWIDTH 500 0
DWIDTH 14 0
BBX 14 25 0 0
BITMAP
FFFC
FFFC
FFFC
F87C
F03C
E01C
E30C
C78C
C78C
FF0C
FF1C
FE1C
FC3C
F87C
F8FC
F8FC
FFFC
FFFC
FCFC
F8FC
F8FC
FCFC
FFFC
FFFC
FFFC
ENDCHAR
STARTCHAR U+4E8C
ENCODING 20108
SWIDTH 500 0
DWIDTH 14 0
BBX 14 25 0 0
BITMAP
FFFC
FFFC
FFFC
F87C
F03C
E01C
E30C
C78C
C78C
FF0C
FF1C
FE1C
FC3C
F87C
F8FC
F8FC
FFFC
FFFC
FCFC
F8FC
F8FC
FCFC
FFFC
FFFC
FFFC
ENDCHAR
STARTCHAR U+4E94
ENCODING 20116
SWIDTH 500 0
DWIDTH 14 0
BBX 14 25 0 0
BITMAP
FFFC
FFFC
FFFC
F87C
F03C
E01C
E30C
C78C
C78C
FF0C
FF1C
FE1C
FC3C
F87C
F8FC
F8FC
FFFC
FFFC
FCFC
F8FC
F8FC
FCFC
FFFC
FFFC
FFFC
ENDCHAR
STARTCHAR U+4ECA
ENCODING 20170
SWIDTH 500 0
DWIDTH 14 0
BBX 14 25 0 0
BITMAP
FFFC
FFFC
FFFC
F87C
F03C
E01C
E30C
C78C
C78C
FF0C
FF1C
FE1C
FC3C
F87C
F8FC
F8FC
FFFC
FFFC
FCFC
F8FC
F8FC
FCFC
FFFC
FFFC
FFFC
ENDCHAR
STARTCHAR U+4F11
ENCODING 20241
SWIDTH 500 0
DWIDTH 14 0
BBX 14 25 0 0
BITMAP
FFFC
FFFC
FFFC
F87C
F03C
E01C
E30C
C78C
C78C
FF0C
FF1C
FE1C
FC3C
F87C
F8FC
F8FC
FFFC
FFFC
FCFC
F8FC
F8FC
FCFC
FFFC
FFFC
FFFC
ENDCHAR
STARTCHAR U+4F4E
ENCODING 20302
SWIDTH 500 0
DWIDTH 14 0
BBX 14 25 0 0
BITMAP
FFFC
FFFC
FFFC
F87C
F03C
E01C
E30C
C78C
C78C
FF0C
FF1C
FE1C
FC3C
F87C
F8FC
F8FC
FFFC
FFFC
FCFC
F8FC
F8FC
FCFC
FFFC
FFFC
FFFC
ENDCHAR
STARTCHAR U+4F53
ENCODING 20307
SWIDTH 500 0
DWIDTH 14 0
BBX 14 25 0 0
BITMAP
FFFC
FFFC
FFFC
F87C
F03C
E01C
E30C
C78C
C78C
FF0C
FF1C
FE1C
FC3C
F87C
F8FC
F8FC
FFFC
FFFC
FCFC
F8FC
F8FC
FCFC
FFFC
FFFC
FFFC
ENDCHAR
STARTCHAR U+4FA7
ENCODING 20391
SWIDTH 500 0
DWIDTH 14 0
BBX 14 25 0 0
BITMAP
FFFC
FFFC
FFFC
F87C
F03C
E01C
E30C
C78C
C78C
FF0C
FF1C
FE1C
FC3C
F87C
F8FC
F8FC
FFFC
FFFC
FCFC
F8FC
F8FC
FCFC
FFFC
FFFC
FFFC
ENDCHAR
STARTCHAR U+50CF
ENCODING 20687
SWIDTH 500 0
DWIDTH 14 0
BBX 14 25 0 0
BITMAP
FFFC
FFFC
FFFC
F87C
F03C
E01C
E30C
C78C
C78C
FF0C
FF1C
FE1C
FC3C
F87C
F8FC
F8FC
FFFC
FFFC
FCFC
F8FC
F8FC
FCFC
FFFC
FFFC
FFFC
ENDCHAR
STARTCHAR U+5149
ENCODING 20809
SWIDTH 500 0
DWIDTH 14 0
BBX 14 25 0 0
BITMAP
FFFC
FFFC
FFFC
F87C
F03C
E01C
E30C
C78C
C78C
FF0C
FF1C
FE1C
FC3C
F87C
F8FC
F8FC
FFFC
FFFC
FCFC
F8FC
F8FC
FCFC
FFFC
FFFC
FFFC
ENDCHAR
STARTCHAR U+516B
ENCODING 20843
SWIDTH 500 0
DWIDTH 14 0
BBX 14 25 0 0
BITMAP
FFFC
FFFC
FFFC
F87C
F03C
E01C
E30C
C78C
C78C
FF0C
FF1C
FE1C
FC3C
F87C
F8FC
F8FC
FFFC
FFFC
FCFC
F8FC
F8FC
FCFC
FFFC
FFFC
FFFC
ENDCHAR
STARTCHAR U+519C
ENCODING 20892
SWIDTH 500 0
DWIDTH 14 0
BBX 14 25 0 0
BITMAP
FFFC
FFFC
FFFC
F87C
F03C
E01C
E30C
C78C
C78C
FF0C
FF1C
FE1C
FC3C
F87C
F8FC
F8FC
FFFC
FFFC
FCFC
F8FC
F8FC
FCFC
FFFC
FFFC
FFFC
ENDCHAR
STARTCHAR U+51FA
ENCODING 20986
SWIDTH 500 0
DWIDTH 14 0
BBX 14 25 0 0
BITMAP
FFFC
FFFC
FFFC
F87C
F03C
E01C
E30C
C78C
C78C
FF0C
FF1C
FE1C
FC3C
F87C
F8FC
F8FC
FFFC
FFFC
FCFC
F8FC
F8FC
FCFC
FFFC
FFFC
FFFC
ENDCHAR
STARTCHAR U+521D
ENCODING 21021
SWIDTH 500 0
DWIDTH 14 0
BBX 14 25 0 0
BITMAP
FFFC
FFFC
FFFC
F87C
F03C
E01C
E30C
C78C
C78C
FF0C
FF1C
FE1C
FC3C
F87C
F8FC
F8FC
FFFC
FFFC
FCFC
F8FC
F8FC
FCFC
FFFC
FFFC
FFFC
ENDCHAR
STARTCHAR U+524D
ENCODING 21069
SWIDTH 500 0
DWIDTH 14 0
BBX 14 25 0 0
BITMAP
FFFC
FFFC
FFFC
F87C
F03C
E01C
E30C
C78C
C78C
FF0C
FF1C
FE1C
FC3C
F87C
F8FC
F8FC
FFFC
FFFC
FCFC
F8FC
F8FC
FCFC
FFFC
FFFC
FFFC
ENDCHAR
STARTCHAR U+52A8
ENCODING 21160
SWIDTH 500 0
DWIDTH 14 0
BBX 14 25 0 0
BITMAP
FFFC
FFFC
FFFC
F87C
F03C
E01C
E30C
C78C
C78C
FF0C
FF1C
FE1C
FC3C
F87C
F8FC
F8FC
FFFC
FFFC
FCFC
F8FC
F8FC
FCFC
FFFC
FFFC
FFFC
ENDCHAR
STARTCHAR U+5341
ENCODING 21313
SWIDTH 500 0
DWIDTH 14 0
BBX 14 25 0 0
BITMAP
FFFC
FFFC
FFFC
F87C
F03C
E01C
E30C
C78C
C78C
FF0C
FF1C
FE1C
FC3C
F87C
F8FC
F8FC
FFFC
FFFC
FCFC
F8FC
F8FC
FCFC
FFFC
FFFC
FFFC
ENDCHAR
STARTCHAR U+5348
ENCODING 21320
SWIDTH 500 0
DWIDTH 14 0
BBX 14 25 0 0
BITMAP
FFFC
FFFC
FFFC
F87C
F03C
E01C
E30C
C78C
C78C
FF0C
FF1C
FE1C
FC3C
F87C
F8FC
F8FC
FFFC
FFFC
FCFC
F8FC
F8FC
FCFC
FFFC
FFFC
FFFC
ENDCHAR
STARTCHAR U+536F
ENCODING 21359
SWIDTH 500 0
DWIDTH 14 0
BBX 14 25 0 0
BITMAP
FFFC
FFFC
FFFC
F87C
F03C
E01C
E30C
C78C
C78C
FF0C
FF1C
FE1C
FC3C
F87C
F8FC
F8FC
FFFC
FFFC
FCFC
F8FC
F8FC
FCFC
FFFC
FFFC
FFFC
ENDCHAR
STARTCHAR U+5386
ENCODING 21382
SWIDTH 500 0
DWIDTH 14 0
BBX 14 25 0 0
BITMAP
FFFC
FFFC
FFFC
F87C
F03C
E01C
E30C
C78C
C78C
FF0C
FF1C
FE1C
FC3C
F87C
F8FC
F8FC
FFFC
FFFC
FCFC
F8FC
F8FC
FCFC
FFFC
FFFC
FFFC
ENDCHAR
STARTCHAR U+539F
ENCODING 21407
SWIDTH 500 0
DWIDTH 14 0
BBX 14 25 0 0
BITMAP
FFFC
FFFC
FFFC
F87C
F03C
E01C
E30C
C78C
C78C
FF0C
FF1C
FE1C
FC3C
F87C
F8FC
F8FC
FFFC
FFFC
FCFC
F8FC
F8FC
FCFC
FFFC
FFFC
FFFC
ENDCHAR
STARTCHAR U+53C2
ENCODING 21442
SWIDTH 500 0
DWIDTH 14 0
BBX 14 25 0 0
BITMAP
FFFC
FFFC
FFFC
F87C
F03C
E01C
E30C
C78C
C78C
FF0C
FF1C
FE1C
FC3C
F87C
F8FC
F8FC
FFFC
FFFC
FCFC
F8FC
F8FC
FCFC
FFFC
FFFC
FFFC
ENDCHAR
STARTCHAR U+53F3
ENCODING 21491
SWIDTH 500 0
DWIDTH 14 0
BBX 14 25 0 0
BITMAP
FFFC
FFFC
FFFC
F87C
F03C
E01C
E30C
C78C
C78C
FF0C
FF1C
FE1C
FC3C
F87C
F8FC
F8FC
FFFC
FFFC
FCFC
F8FC
F8FC
FCFC
FFFC
FFFC
FFFC
ENDCHAR
STARTCHAR U+53F7
ENCODING 21495
SWIDTH 500 0
DWIDTH 14 0
BBX 14 25 0 0
BITMAP
FFFC
FFFC
FFFC
F87C
F03C
E01C
E30C
C78C
C78C
FF0C
FF1C
FE1C
FC3C
F87C
F8FC
F8FC
FFFC
FFFC
FCFC
F8FC
F8FC
FCFC
FFFC
FFFC
FFFC
ENDCHAR
STARTCHAR U+540D
ENCODING 21517
SWIDTH 500 0
DWIDTH 14 0
BBX 14 25 0 0
BITMAP
FFFC
FFFC
FFFC
F87C
F03C
E01C
E30C
C78C
C78C
FF0C
FF1C
FE1C
FC3C
F87C
F8FC
F8FC
FFFC
FFFC
FCFC
F8FC
F8FC
FCFC
FFFC
FFFC
FFFC
ENDCHAR
STARTCHAR U+5468
ENCODING 21608
SWIDTH 500 0
DWIDTH 14 0
BBX 14 25 0 0
BITMAP
FFFC
FFFC
FFFC
F87C
F03C
E01C
E30C
C78C
C78C
FF0C
FF1C
FE1C
FC3C
F87C
F8FC
F8FC
FFFC
FFFC
FCFC
F8FC
F8FC
FCFC
FFFC
FFFC
FFFC
ENDCHAR
STARTCHAR U+56DB
ENCODING 22235
SWIDTH 500 0
DWIDTH 14 0
BBX 14 25 0 0
BITMAP
FFFC
FFFC
FFFC
F87C
F03C
E01C
E30C
C78C
C78C
FF0C
FF1C
FE1C
FC3C
F87C
F8FC
F8FC
FFFC
FFFC
FCFC
F8FC
F8FC
FCFC
FFFC
FFFC
FFFC
ENDCHAR
STARTCHAR U+5708
ENCODING 22280
SWIDTH 500 0
DWIDTH 14 0
BBX 14 25 0 0
BITMAP
FFFC
FFFC
FFFC
F87C
F03C
E01C
E30C
C78C
C78C
FF0C
FF1C
FE1C
FC3C
F87C
F8FC
F8FC
FFFC
FFFC
FCFC
F8FC
F8FC
FCFC
FFFC
FFFC
FFFC
ENDCHAR
STARTCHAR U+571F
ENCODING 22303
SWIDTH 500 0
DWIDTH 14 0
BBX 14 25 0 0
BITMAP
FFFC
FFFC
FFFC
F87C
F03C
E01C
E30C
C78C
C78C
FF0C
FF1C
FE1C
FC3C
F87C
F8FC
F8FC
FFFC
FFFC
FCFC
F8FC
F8FC
FCFC
FFFC
FFFC
FFFC
ENDCHAR
STARTCHAR U+5730
ENCODING 22320
SWIDTH 500 0
DWIDTH 14 0
BBX 14 25 0 0
BITMAP
FFFC
FFFC
FFFC
F87C
F03C
E01C
E30C
C78C
C78C
FF0C
FF1C
FE1C
FC3C
F87C
F8FC
F8FC
FFFC
FFFC
FCFC
F8FC
F8FC
FCFC
FFFC
FFFC
FFFC
ENDCHAR
STARTCHAR U+590F
ENCODING 22799
SWIDTH 500 0
DWIDTH 14 0
BBX 14 25 0 0
BITMAP
FFFC
FFFC
FFFC
F87C
F03C
E01C
E30C
C78C
C78C
FF0C
FF1C
FE1C
FC3C
F87C
F8FC
F8FC
FFFC
FFFC
FCFC
F8FC
F8FC
FCFC
FFFC
FFFC
FFFC
ENDCHAR
STARTCHAR U+5927
ENCODING 22823
SWIDTH 500 0
DWIDTH 14 0
BBX 14 25 0 0
BITMAP
FFFC
FFFC
FFFC
F87C
F03C
E01C
E30C
C78C
C78C
FF0C
FF1C
FE1C
FC3C
F87C
F8FC
F8FC
FFFC
FFFC
FCFC
F8FC
F8FC
FCFC
FFFC
FFFC
FFFC
ENDCHAR
STARTCHAR U+5929
ENCODING 22825
SWIDTH 500 0
DWIDTH 14 0
BBX 14 25 0 0
BITMAP
FFFC
FFFC
FFFC
F87C
F03C
E01C
E30C
C78C
C78C
FF0C
FF1C
FE1C
FC3C
F87C
F8FC
F8FC
FFFC
FFFC
FCFC
F8FC
F8FC
FCFC
FFFC
FFFC
FFFC
ENDCHAR
STARTCHAR U+5934
ENCODING 22836
SWIDTH 500 0
DWIDTH 14 0
BBX 14 25 0 0
BITMAP
FFFC
FFFC
FFFC
F87C
F03C
E01C
E30C
C78C
C78C
FF0C
FF1C
FE1C
FC3C
F87C
F8FC
F8FC
FFFC
FFFC
FCFC
F8FC
F8FC
FCFC
FFFC
FFFC
FFFC
ENDCHAR
STARTCHAR U+59CB
ENCODING 22987
SWIDTH 500 0
DWIDTH 14 0
BBX 14 25 0 0
BITMAP
FFFC
FFFC
FFFC
F87C
F03C
E01C
E30C
C78C
C78C
FF0C
FF1C
FE1C
FC3C
F87C
F8FC
F8FC
FFFC
FFFC
FCFC
F8FC
F8FC
FCFC
FFFC
FFFC
FFFC
ENDCHAR
STARTCHAR U+5B50
ENCODING 23376
SWIDTH 500 0
DWIDTH 14 0
BBX 14 25 0 0
BITMAP
FFFC
FFFC
FFFC
F87C
F03C
E01C
E30C
C78C
C78C
FF0C
FF1C
FE1C
FC3C
F87C
F8FC
F8FC
FFFC
FFFC
FCFC
F8FC
F8FC
FCFC
FFFC
FFFC
FFFC
ENDCHAR
STARTCHAR U+5B57
ENCODING 23383
SWIDTH 500 0
DWIDTH 14 0
BBX 14 25 0 0
BITMAP
FFFC
FFFC
FFFC
F87C
F03C
E01C
E30C
C78C
C78C
FF0C
FF1C
FE1C
FC3C
F87C
F8FC
F8FC
FFFC
FFFC
FCFC
F8FC
F8FC
FCFC
FFFC
FFFC
FFFC
ENDCHAR
STARTCHAR U+5B8B
ENCODING 23435
SWIDTH 500 0
DWIDTH 14 0
BBX 14 25 0 0
BITMAP
FFFC
FFFC
FFFC
F87C
F03C
E01C
E30C
C78C
C78C
FF0C
FF1C
FE1C
FC3C
F87C
F8FC
F8FC
FFFC
FFFC
FCFC
F8FC
F8FC
FCFC
FFFC
FFFC
FFFC
ENDCHAR
STARTCHAR U+5B9C
ENCODING 23452
SWIDTH 500 0
DWIDTH 14 0
BBX 14 25 0 0
BITMAP
FFFC
FFFC
FFFC
F87C
F03C
E01C
E30C
C78C
C78C
FF0C
FF1C
FE1C
FC3C
F87C
F8FC
F8FC
FFFC
FFFC
FCFC
F8FC
F8FC
FCFC
FFFC
FFFC
FFFC
ENDCHAR
STARTCHAR U+5BC5
ENCODING 23493
SWIDTH 500 0
DWIDTH 14 0
BBX 14 25 0 0
BITMAP
FFFC
FFFC
FFFC
F87C
F03C
E01C
E30C
C78C
C78C
FF0C
FF1C
FE1C
FC3C
F87C
F8FC
F8FC
FFFC
FFFC
FCFC
F8FC
F8FC
FCFC
FFFC
FFFC
FFFC
ENDCHAR
STARTCHAR U+5BD2
ENCODING 23506
SWIDTH 500 0
DWIDTH 14 0
BBX 14 25 0 0
BITMAP
FFFC
FFFC
FFFC
F87C
F03C
E01C
E30C
C78C
C78C
FF0C
FF1C
FE1C
FC3C
F87C
F8FC
F8FC
FFFC
FFFC
FCFC
F8FC
F8FC
FCFC
FFFC
FFFC
FFFC
ENDCHAR
STARTCHAR U+5BF9
ENCODING 23545
SWIDTH 500 0
DWIDTH 14 0
BBX 14 25 0 0
BITMAP
FFFC
FFFC
FFFC
F87C
F03C
E01C
E30C
C78C
C78C
FF0C
FF1C
FE1C
FC3C
F87C
F8FC
F8FC
FFFC
FFFC
FCFC
F8FC
F8FC
FCFC
FFFC
FFFC
FFFC
ENDCHAR
STARTCHAR U+5C0F
ENCODING 23567
SWIDTH 500 0
DWIDTH 14 0
BBX 14 25 0 0
BITMAP
FFFC
FFFC
FFFC
F87C
F03C
E01C
E30C
C78C
C78C
FF0C
FF1C
FE1C
FC3C
F87C
F8FC
F8FC
FFFC
FFFC
FCFC
F8FC
F8FC
FCFC
FFFC
FFFC
FFFC
ENDCHAR
STARTCHAR U+5E74
ENCODING 24180
SWIDTH 500 0
DWIDTH 14 0
BBX 14 25 0 0
BITMAP
FFFC
FFFC
FFFC
F87C
F03C
E01C
E30C
C78C
C78C
FF0C
FF1C
FE1C
FC3C
F87C
F8FC
F8FC
FFFC
FFFC
FCFC
F8FC
F8FC
FCFC
FFFC
FFFC
FFFC
ENDCHAR
STARTCHAR U+5E8A
ENCODING 24202
SWIDTH 500 0
DWIDTH 14 0
BBX 14 25 0 0
BITMAP
FFFC
FFFC
FFFC
F87C
F03C
E01C
E30C
C78C
C78C
FF0C
FF1C
FE1C
FC3C
F87C
F8FC
F8FC
FFFC
FFFC
FCFC
F8FC
F8FC
FCFC
FFFC
FFFC
FFFC
ENDCHAR
STARTCHAR U+5EFF
ENCODING 24319
SWIDTH 500 0
DWIDTH 14 0
BBX 14 25 0 0
BITMAP
FFFC
FFFC
FFFC
F87C
F03C
E01C
E30C
C78C
C78C
FF0C
FF1C
FE1C
FC3C
F87C
F8FC
F8FC
FFFC
FFFC
FCFC
F8FC
F8FC
FCFC
FFFC
FFFC
FFFC
ENDCHAR
STARTCHAR U+5F0F
ENCODING 24335
SWIDTH 500 0
DWIDTH 14 0
BBX 14 25 0 0
BITMAP
FFFC
FFFC
FFFC
F87C
F03C
E01C
E30C
C78C
C78C
FF0C
FF1C
FE1C
FC3C
F87C
F8FC
F8FC
FFFC
FFFC
FCFC
F8FC
F8FC
FCFC
FFFC
FFFC
FFFC
ENDCHAR
STARTCHAR U+5F53
ENCODING 24403
SWIDTH 500 0
DWIDTH 14 0
BBX 14 25 0 0
BITMAP
FFFC
FFFC
FFFC
F87C
F03C
E01C
E30C
C78C
C78C
FF0C
FF1C
FE1C
FC3C
F87C
F8FC
F8FC
FFFC
FFFC
FCFC
F8FC
F8FC
FCFC
FFFC
FFFC
FFFC
ENDCHAR
STARTCHAR U+5FCC
ENCODING 24524
SWIDTH 500 0
DWIDTH 14 0
BBX 14 25 0 0
BITMAP
FFFC
FFFC
FFFC
F87C
F03C
E01C
E30C
C78C
C78C
FF0C
FF1C
FE1C
FC3C
F87C
F8FC
F8FC
FFFC
FFFC
FCFC
F8FC
F8FC
FCFC
FFFC
FFFC
FFFC
ENDCHAR
STARTCHAR U+601D
ENCODING 24605
SWIDTH 500 0
DWIDTH 14 0
BBX 14 25 0 0
BITMAP
FFFC
FFFC
FFFC
F87C
F03C
E01C
E30C
C78C
C78C
FF0C
FF1C
FE1C
FC3C
F87C
F8FC
F8FC
FFFC
FFFC
FCFC
F8FC
F8FC
FCFC
FFFC
FFFC
FFFC
ENDCHAR
STARTCHAR U+653E
ENCODING 25918
SWIDTH 500 0
DWIDTH 14 0
BBX 14 25 0 0
BITMAP
FFFC
FFFC
FFFC
F87C
F03C
E01C
E30C
C78C
C78C
FF0C
FF1C
FE1C
FC3C
F87C
F8FC
F8FC
FFFC
FFFC
FCFC
F8FC
F8FC
FCFC
FFFC
FFFC
FFFC
ENDCHAR
STARTCHAR U+6545
ENCODING 25925
SWIDTH 500 0
DWIDTH 14 0
BBX 14 25 0 0
BITMAP
FFFC
FFFC
FFFC
F87C
F03C
E01C
E30C
C78C
C78C
FF0C
FF1C
FE1C
FC3C
F87C
F8FC
F8FC
FFFC
FFFC
FCFC
F8FC
F8FC
FCFC
FFFC
FFFC
FFFC
ENDCHAR
STARTCHAR U+6570
ENCODING 25968
SWIDTH 500 0
DWIDTH 14 0
BBX 14 25 0 0
BITMAP
FFFC
FFFC
FFFC
F87C
F03C
E01C
E30C
C78C
C78C
FF0C
FF1C
FE1C
FC3C
F87C
F8FC
F8FC
FFFC
FFFC
FCFC
F8FC
F8FC
FCFC
FFFC
FFFC
FFFC
ENDCHAR
STARTCHAR U+6587
ENCODING 25991
SWIDTH 500 0
DWIDTH 14 0
BBX 14 25 0 0
BITMAP
FFFC
FFFC
FFFC
F87C
F03C
E01C
E30C
C78C
C78C
FF0C
FF1C
FE1C
FC3C
F87C
F8FC
F8FC
FFFC
FFFC
FCFC
F8FC
F8FC
FCFC
FFFC
FFFC
FFFC
ENDCHAR
STARTCHAR U+65E5
ENCODING 26085
SWIDTH 500 0
DWIDTH 14 0
BBX 14 25 0 0
BITMAP
FFFC
FFFC
FFFC
F87C
F03C
E01C
E30C
C78C
C78C
FF0C
FF1C
FE1C
FC3C
F87C
F8FC
F8FC
FFFC
FFFC
FCFC
F8FC
F8FC
FCFC
FFFC
FFFC
FFFC
ENDCHAR
STARTCHAR U+660E
ENCODING 26126
SWIDTH 500 0
DWIDTH 14 0
BBX 14 25 0 0
BITMAP
FFFC
FFFC
FFFC
F87C
F03C
E01C
E30C
C78C
C78C
FF0C
FF1C
FE1C
FC3C
F87C
F8FC
F8FC
FFFC
FFFC
FCFC
F8FC
F8FC
FCFC
FFFC
FFFC
FFFC
ENDCHAR
STARTCHAR U+662F
ENCODING 26159
SWIDTH 500 0
DWIDTH 14 0
BBX 14 25 0 0
BITMAP
FFFC
FFFC
FFFC
F87C
F03C
E01C
E30C
C78C
C78C
FF0C
FF1C
FE1C
FC3C
F87C
F8FC
F8FC
FFFC
FFFC
FCFC
F8FC
F8FC
FCFC
FFFC
FFFC
FFFC
ENDCHAR
STARTCHAR U+6708
ENCODING 26376
SWIDTH 500 0
DWIDTH 14 0
BBX 14 25 0 0
BITMAP
FFFC
FFFC
FFFC
F87C
F03C
E01C
E30C
C78C
C78C
FF0C
FF1C
FE1C
FC3C
F87C
F8FC
F8FC
FFFC
FFFC
FCFC
F8FC
F8FC
FCFC
FFFC
FFFC
FFFC
ENDCHAR
STARTCHAR U+671B
ENCODING 26395
SWIDTH 500 0
DWIDTH 14 0
BBX 14 25 0 0
BITMAP
FFFC
FFFC
FFFC
F87C
F03C
E01C
E30C
C78C
C78C
FF0C
FF1C
FE1C
FC3C
F87C
F8FC
F8FC
FFFC
FFFC
FCFC
F8FC
F8FC
FCFC
FFFC
FFFC
FFFC
ENDCHAR
STARTCHAR U+671F
ENCODING 26399
SWIDTH 500 0
DWIDTH 14 0
BBX 14 25 0 0
BITMAP
FFFC
FFFC
FFFC
F87C
F03C
E01C
E30C
C78C
C78C
FF0C
FF1C
FE1C
FC3C
F87C
F8FC
F8FC
FFFC
FFFC
FCFC
F8FC
F8FC
FCFC
FFFC
FFFC
FFFC
ENDCHAR
STARTCHAR U+672A
ENCODING 26410
SWIDTH 500 0
DWIDTH 14 0
BBX 14 25 0 0
BITMAP
FFFC
FFFC
FFFC
F87C
F03C
E01C
E30C
C78C
C78C
FF0C
FF1C
FE1C
FC3C
F87C
F8FC
F8FC
FFFC
FFFC
FCFC
F8FC
F8FC
FCFC
FFFC
FFFC
FFFC
ENDCHAR
STARTCHAR U+672B
ENCODING 26411
SWIDTH 500 0
DWIDTH 14 0
BBX 14 25 0 0
BITMAP
FFFC
FFFC
FFFC
F87C
F03C
E01C
E30C
C78C
C78C
FF0C
FF1C
FE1C
FC3C
F87C
F8FC
F8FC
FFFC
FFFC
FCFC
F8FC
F8FC
FCFC
FFFC
FFFC
FFFC
ENDCHAR
STARTCHAR U+6837
ENCODING 26679
SWIDTH 500 0
DWIDTH 14 0
BBX 14 25 0 0
BITMAP
FFFC
FFFC
FFFC
F87C
F03C
E01C
E30C
C78C
C78C
FF0C
FF1C
FE1C
FC3C
F87C
F8FC
F8FC
FFFC
FFFC
FCFC
F8FC
F8FC
FCFC
FFFC
FFFC
FFFC
ENDCHAR
STARTCHAR U+683C
ENCODING 26684
SWIDTH 500 0
DWIDTH 14 0
BBX 14 25 0 0
BITMAP
FFFC
FFFC
FFFC
F87C
F03C
E01C
E30C
C78C
C78C
FF0C
FF1C
FE1C
FC3C
F87C
F8FC
F8FC
FFFC
FFFC
FCFC
F8FC
F8FC
FCFC
FFFC
FFFC
FFFC
ENDCHAR
STARTCHAR U+6977
ENCODING 26999
SWIDTH 500 0
DWIDTH 14 0
BBX 14 25 0 0
BITMAP
FFFC
FFFC
FFFC
F87C
F03C
E01C
E30C
C78C
C78C
FF0C
FF1C
FE1C
FC3C
F87C
F8FC
F8FC
FFFC
FFFC
FCFC
F8FC
F8FC
FCFC
FFFC
FFFC
FFFC
ENDCHAR
STARTCHAR U+6B63
ENCODING 27491
SWIDTH 500 0
DWIDTH 14 0
BBX 14 25 0 0
BITMAP
FFFC
FFFC
FFFC
F87C
F03C
E01C
E30C
C78C
C78C
FF0C
FF1C
FE1C
FC3C
F87C
F8FC
F8FC
FFFC
FFFC
FCFC
F8FC
F8FC
FCFC
FFFC
FFFC
FFFC
ENDCHAR
STARTCHAR U+6BD4
ENCODING 27604
SWIDTH 500 0
DWIDTH 14 0
BBX 14 25 0 0
BITMAP
FFFC
FFFC
FFFC
F87C
F03C
E01C
E30C
C78C
C78C
FF0C
FF1C
FE1C
FC3C
F87C
F8FC
F8FC
FFFC
FFFC
FCFC
F8FC
F8FC
FCFC
FFFC
FFFC
FFFC
ENDCHAR
STARTCHAR U+6CC9
ENCODING 27849
SWIDTH 500 0
DWIDTH 14 0
BBX 14 25 0 0
BITMAP
FFFC
FFFC
FFFC
F87C
F03C
E01C
E30C
C78C
C78C
FF0C
FF1C
FE1C
FC3C
F87C
F8FC
F8FC
FFFC
FFFC
FCFC
F8FC
F8FC
FCFC
FFFC
FFFC
FFFC
ENDCHAR
STARTCHAR U+6E05
ENCODING 28165
SWIDTH 500 0
DWIDTH 14 0
BBX 14 25 0 0
BITMAP
FFFC
FFFC
FFFC
F87C
F03C
E01C
E30C
C78C
C78C
FF0C
FF1C
FE1C
FC3C
F87C
F8FC
F8FC
FFFC
FFFC
FCFC
F8FC
F8FC
FCFC
FFFC
FFFC
FFFC
ENDCHAR
STARTCHAR U+6EE1
ENCODING 28385
SWIDTH 500 0
DWIDTH 14 0
BBX 14 25 0 0
BITMAP
FFFC
FFFC
FFFC
F87C
F03C
E01C
E30C
C78C
C78C
FF0C
FF1C
FE1C
FC3C
F87C
F8FC
F8FC
FFFC
FFFC
FCFC
F8FC
F8FC
FCFC
FFFC
FFFC
FFFC
ENDCHAR
STARTCHAR U+70B9
ENCODING 28857
SWIDTH 500 0
DWIDTH 14 0
BBX 14 25 0 0
BITMAP
FFFC
FFFC
FFFC
F87C
F03C
E01C
E30C
C78C
C78C
FF0C
FF1C
FE1C
FC3C
F87C
F8FC
F8FC
FFFC
FFFC
FCFC
F8FC
F8FC
FCFC
FFFC
FFFC
FFFC
ENDCHAR
STARTCHAR U+73ED
ENCODING 29677
SWIDTH 500 0
DWIDTH 14 0
BBX 14 25 0 0
BITMAP
FFFC
FFFC
FFFC
F87C
F03C
E01C
E30C
C78C
C78C
FF0C
FF1C
FE1C
FC3C
F87C
F8FC
F8FC
FFFC
FFFC
FCFC
F8FC
F8FC
FCFC
FFFC
FFFC
FFFC
ENDCHAR
STARTCHAR U+7532
ENCODING 30002
SWIDTH 500 0
DWIDTH 14 0
BBX 14 25 0 0
BITMAP
FFFC
FFFC
FFFC
F87C
F03C
E01C
E30C
C78C
C78C
FF0C
FF1C
FE1C
FC3C
F87C
F8FC
F8FC
FFFC
FFFC
FCFC
F8FC
F8FC
FCFC
FFFC
FFFC
FFFC
ENDCHAR
STARTCHAR U+7591
ENCODING 30097
SWIDTH 500 0
DWIDTH 14 0
BBX 14 25 0 0
BITMAP
FFFC
FFFC
FFFC
F87C
F03C
E01C
E30C
C78C
C78C
FF0C
FF1C
FE1C
FC3C
F87C
F8FC
F8FC
FFFC
FFFC
FCFC
F8FC
F8FC
FCFC
FFFC
FFFC
FFFC
ENDCHAR
STARTCHAR U+76EE
ENCODING 30446
SWIDTH 500 0
DWIDTH 14 0
BBX 14 25 0 0
BITMAP
FFFC
FFFC
FFFC
F87C
F03C
E01C
E30C
C78C
C78C
FF0C
FF1C
FE1C
FC3C
F87C
F8FC
F8FC
FFFC
FFFC
FCFC
F8FC
F8FC
FCFC
FFFC
FFFC
FFFC
ENDCHAR
STARTCHAR U+7940
ENCODING 31040
SWIDTH 500 0
DWIDTH 14 0
BBX 14 25 0 0
BITMAP
FFFC
FFFC
FFFC
F87C
F03C
E01C
E30C
C78C
C78C
FF0C
FF1C
FE1C
FC3C
F87C
F8FC
F8FC
FFFC
FFFC
FCFC
F8FC
F8FC
FCFC
FFFC
FFFC
FFFC
ENDCHAR
STARTCHAR U+7948
ENCODING 31048
SWIDTH 500 0
DWIDTH 14 0
BBX 14 25 0 0
BITMAP
FFFC
FFFC
FFFC
F87C
F03C
E01C
E30C
C78C
C78C
FF0C
FF1C
FE1C
FC3C
F87C
F8FC
F8FC
FFFC
FFFC
FCFC
F8FC
F8FC
FCFC
FFFC
FFFC
FFFC
ENDCHAR
STARTCHAR U+796D
ENCODING 31085
SWIDTH 500 0
DWIDTH 14 0
BBX 14 25 0 0
BITMAP
FFFC
FFFC
FFFC
F87C
F03C
E01C
E30C
C78C
C78C
FF0C
FF1C
FE1C
FC3C
F87C
F8FC
F8FC
FFFC
FFFC
FCFC
F8FC
F8FC
FCFC
FFFC
FFFC
FFFC
ENDCHAR
STARTCHAR U+798F
ENCODING 31119
SWIDTH 500 0
DWIDTH 14 0
BBX 14 25 0 0
BITMAP
FFFC
FFFC
FFFC
F87C
F03C
E01C
E30C
C78C
C78C
FF0C
FF1C
FE1C
FC3C
F87C
F8FC
F8FC
FFFC
FFFC
FCFC
F8FC
F8FC
FCFC
FFFC
FFFC
FFFC
ENDCHAR
STARTCHAR U+7A84
ENCODING 31364
SWIDTH 500 0
DWIDTH 14 0
BBX 14 25 0 0
BITMAP
FFFC
FFFC
FFFC
F87C
F03C
E01C
E30C
C78C
C78C
FF0C
FF1C
FE1C
FC3C
F87C
F8FC
F8FC
FFFC
FFFC
FCFC
F8FC
F8FC
FCFC
FFFC
FFFC
FFFC
ENDCHAR
STARTCHAR U+7ACB
ENCODING 31435
SWIDTH 500 0
DWIDTH 14 0
BBX 14 25 0 0
BITMAP
FFFC
FFFC
FFFC
F87C
F03C
E01C
E30C
C78C
C78C
FF0C
FF1C
FE1C
FC3C
F87C
F8FC
F8FC
FFFC
FFFC
FCFC
F8FC
F8FC
FCFC
FFFC
FFFC
FFFC
ENDCHAR
STARTCHAR U+7B2C
ENCODING 31532
SWIDTH 500 0
DWIDTH 14 0
BBX 14 25 0 0
BITMAP
FFFC
FFFC
FFFC
F87C
F03C
E01C
E30C
C78C
C78C
FF0C
FF1C
FE1C
FC3C
F87C
F8FC
F8FC
FFFC
FFFC
FCFC
F8FC
F8FC
FCFC
FFFC
FFFC
FFFC
ENDCHAR
STARTCHAR U+7C97
ENCODING 31895
SWIDTH 500 0
DWIDTH 14 0
BBX 14 25 0 0
BITMAP
FFFC
FFFC
FFFC
F87C
F03C
E01C
E30C
C78C
C78C
FF0C
FF1C
FE1C
FC3C
F87C
F8FC
F8FC
FFFC
FFFC
FCFC
F8FC
F8FC
FCFC
FFFC
FFFC
FFFC
ENDCHAR
STARTCHAR U+7D20
ENCODING 32032
SWIDTH 500 0
DWIDTH 14 0
BBX 14 25 0 0
BITMAP
FFFC
FFFC
FFFC
F87C
F03C
E01C
E30C
C78C
C78C
FF0C
FF1C
FE1C
FC3C
F87C
F8FC
F8FC
FFFC
FFFC
FCFC
F8FC
F8FC
FCFC
FFFC
FFFC
FFFC
ENDCHAR
STARTCHAR U+7EA2
ENCODING 32418
SWIDTH 500 0
DWIDTH 14 0
BBX 14 25 0 0
BITMAP
FFFC
FFFC
FFFC
F87C
F03C
E01C
E30C
C78C
C78C
FF0C
FF1C
FE1C
FC3C
F87C
F8FC
F8FC
FFFC
FFFC
FCFC
F8FC
F8FC
FCFC
FFFC
FFFC
FFFC
ENDCHAR
STARTCHAR U+7F29
ENCODING 32553
SWIDTH 500 0
DWIDTH 14 0
BBX 14 25 0 0
BITMAP
FFFC
FFFC
FFFC
F87C
F03C
E01C
E30C
C78C
C78C
FF0C
FF1C
FE1C
FC3C
F87C
F8FC
F8FC
FFFC
FFFC
FCFC
F8FC
F8FC
FCFC
FFFC
FFFC
FFFC
ENDCHAR
STARTCHAR U+8003
ENCODING 32771
SWIDTH 500 0
DWIDTH 14 0
BBX 14 25 0 0
BITMAP
FFFC
FFFC
FFFC
F87C
F03C
E01C
E30C
C78C
C78C
FF0C
FF1C
FE1C
FC3C
F87C
F8FC
F8FC
FFFC
FFFC
FCFC
F8FC
F8FC
FCFC
FFFC
FFFC
FFFC
ENDCHAR
STARTCHAR U+884C
ENCODING 34892
SWIDTH 500 0
DWIDTH 14 0
BBX 14 25 0 0
BITMAP
FFFC
FFFC
FFFC
F87C
F03C
E01C
E30C
C78C
C78C
FF0C
FF1C
FE1C
FC3C
F87C
F8FC
F8FC
FFFC
FFFC
FCFC
F8FC
F8FC
FCFC
FFFC
FFFC
FFFC
ENDCHAR
STARTCHAR U+8C37
ENCODING 35895
SWIDTH 500 0
DWIDTH 14 0
BBX 14 25 0 0
BITMAP
FFFC
FFFC
FFFC
F87C
F03C
E01C
E30C
C78C
C78C
FF0C
FF1C
FE1C
FC3C
F87C
F8FC
F8FC
FFFC
FFFC
FCFC
F8FC
F8FC
FCFC
FFFC
FFFC
FFFC
ENDCHAR
STARTCHAR U+9635
ENCODING 38453
SWIDTH 500 0
DWIDTH 14 0
BBX 14 25 0 0
BITMAP
FFFC
FFFC
FFFC
F87C
F03C
E01C
E30C
C78C
C78C
FF0C
FF1C
FE1C
FC3C
F87C
F8FC
F8FC
FFFC
FFFC
FCFC
F8FC
F8FC
FCFC
FFFC
FFFC
FFFC
ENDCHAR
STARTCHAR U+96E8
ENCODING 38632
SWIDTH 500 0
DWIDTH 14 0
BBX 14 25 0 0
BITMAP
FFFC
FFFC
FFFC
F87C
F03C
E01C
E30C
C78C
C78C
FF0C
FF1C
FE1C
FC3C
F87C
F8FC
F8FC
FFFC
FFFC
FCFC
F8FC
F8FC
FCFC
FFFC
FFFC
FFFC
ENDCHAR
STARTCHAR U+971C
ENCODING 38684
SWIDTH 500 0
DWIDTH 14 0
BBX 14 25 0 0
BITMAP
FFFC
FFFC
FFFC
F87C
F03C
E01C
E30C
C78C
C78C
FF0C
FF1C
FE1C
FC3C
F87C
F8FC
F8FC
FFFC
FFFC
FCFC
F8FC
F8FC
FCFC
FFFC
FFFC
FFFC
ENDCHAR
STARTCHAR U+971E
ENCODING 38686
SWIDTH 500 0
DWIDTH 14 0
BBX 14 25 0 0
BITMAP
FFFC
FFFC
FFFC
F87C
F03C
E01C
E30C
C78C
C78C
FF0C
FF1C
FE1C
FC3C
F87C
F8FC
F8FC
FFFC
FFFC
FCFC
F8FC
F8FC
FCFC
FFFC
FFFC
FFFC
ENDCHAR
STARTCHAR U+9732
ENCODING 38706
SWIDTH 500 0
DWIDTH 14 0
BBX 14 25 0 0
BITMAP
FFFC
FFFC
FFFC
F87C
F03C
E01C
E30C
C78C
C78C
FF0C
FF1C
FE1C
FC3C
F87C
F8FC
F8FC
FFFC
FFFC
FCFC
F8FC
F8FC
FCFC
FFFC
FFFC
FFFC
ENDCHAR
STARTCHAR U+9879
ENCODING 39033
SWIDTH 500 0
DWIDTH 14 0
BBX 14 25 0 0
BITMAP
FFFC
FFFC
FFFC
F87C
F03C
E01C
E30C
C78C
C78C
FF0C
FF1C
FE1C
FC3C
F87C
F8FC
F8FC
FFFC
FFFC
FCFC
F8FC
F8FC
FCFC
FFFC
FFFC
FFFC
ENDCHAR
STARTCHAR U+9A6C
ENCODING 39532
SWIDTH 500 0
DWIDTH 14 0
BBX 14 25 0 0
BITMAP
FFFC
FFFC
FFFC
F87C
F03C
E01C
E30C
C78C
C78C
FF0C
FF1C
FE1C
FC3C
F87C
F8FC
F8FC
FFFC
FFFC
FCFC
F8FC
F8FC
FCFC
FFFC
FFFC
FFFC
ENDCHAR
STARTCHAR U+9A7F
ENCODING 39551
SWIDTH 500 0
DWIDTH 14 0
BBX 14 25 0 0
BITMAP
FFFC
FFFC
FFFC
F87C
F03C
E01C
E30C
C78C
C78C
FF0C
FF1C
FE1C
FC3C
F87C
F8FC
F8FC
FFFC
FFFC
FCFC
F8FC
F8FC
FCFC
FFFC
FFFC
FFFC
ENDCHAR
STARTCHAR U+9E5C
ENCODING 40540
SWIDTH 500 0
DWIDTH 14 0
BBX 14 25 0 0
BITMAP
FFFC
FFFC
FFFC
F87C
F03C
E01C
E30C
C78C
C78C
FF0C
FF1C
FE1C
FC3C
F87C
F8FC
F8FC
FFFC
FFFC
FCFC
F8FC
F8FC
FCFC
FFFC
FFFC
FFFC
ENDCHAR
STARTCHAR U+9ED1
ENCODING 40657
SWIDTH 500 0
DWIDTH 14 0
BBX 14 25 0 0
BITMAP
FFFC
FFFC
FFFC
F87C
F03C
E01C
E30C
C78C
C78C
FF0C
FF1C
FE1C
FC3C
F87C
F8FC
F8FC
FFFC
FFFC
FCFC
F8FC
F8FC
FCFC
FFFC
FFFC
FFFC
ENDCHAR
STARTCHAR U+FF08
ENCODING 65288
SWIDTH 500 0
DWIDTH 14 0
BBX 14 25 0 0
BITMAP
FFFC
FFFC
FFFC
F87C
F03C
E01C
E30C
C78C
C78C
FF0C
FF1C
FE1C
FC3C
F87C
F8FC
F8FC
FFFC
FFFC
FCFC
F8FC
F8FC
FCFC
FFFC
FFFC
FFFC
ENDCHAR
STARTCHAR U+FF09
ENCODING 65289
SWIDTH 500 0
DWIDTH 14 0
BBX 14 25 0 0
BITMAP
FFFC
FFFC
FFFC
F87C
F03C
E01C
E30C
C78C
C78C
FF0C
FF1C
FE1C
FC3C
F87C
F8FC
F8FC
FFFC
FFFC
FCFC
F8FC
F8FC
FCFC
FFFC
FFFC
FFFC
ENDCHAR
STARTCHAR U+FF0C
ENCODING 65292
SWIDTH 500 0
DWIDTH 14 0
BBX 14 25 0 0
BITMAP
FFFC
FFFC
FFFC
F87C
F03C
E01C
E30C
C78C
C78C
FF0C
FF1C
FE1C
FC3C
F87C
F8FC
F8FC
FFFC
FFFC
FCFC
F8FC
F8FC
FCFC
FFFC
FFFC
FFFC
ENDCHAR
STARTCHAR U+FF1A
ENCODING 65306
SWIDTH 500 0
DWIDTH 14 0
BBX 14 25 0 0
BITMAP
FFFC
FFFC
FFFC
F87C
F03C
E01C
E30C
C78C
C78C
FF0C
FF1C
FE1C
FC3C
F87C
F8FC
F8FC
FFFC
FFFC
FCFC
F8FC
F8FC
FCFC
FFFC
FFFC
FFFC
ENDCHAR
ENDFONT
