STARTFONT 2.1
FONT LXGWWenKai-Medium-32
SIZE 32 75 75
FONTBOUNDINGBOX 64 39 0 -9
STARTPROPERTIES 3
PIXEL_SIZE 32
FONT_ASCENT 30
FONT_DESCENT 9
ENDPROPERTIES
CHARS 219
STARTCHAR U+0020
ENCODING 32
SWIDTH 500 0
DWIDTH 11 0
BBX 0 0 0 0
BITMAP
ENDCHAR
STARTCHAR U+0021
ENCODING 33
SWIDTH 500 0
DWIDTH 12 0
BBX 4 24 4 -1
BITMAP
E0
F0
E0
E0
E0
E0
E0
E0
E0
E0
E0
E0
E0
E0
E0
E0
60
60
00
00
60
F0
F0
60
ENDCHAR
STARTCHAR U+0022
ENCODING 34
SWIDTH 500 0
DWIDTH 11 0
BBX 7 8 2 15
BITMAP
CC
EE
EE
EE
EE
EE
EE
CC
ENDCHAR
STARTCHAR U+0023
ENCODING 35
SWIDTH 500 0
DWIDTH 20 0
BBX 18 24 1 -1
BITMAP
030600
070E00
070E00
070C00
060C00
060C00
7FFFC0
7FFFC0
0E1C00
0E1C00
0E1C00
0C1800
0C1800
0C1800
0C3800
FFFF80
FFFF80
1C3800
1C3800
183000
183000
183000
187000
187000
ENDCHAR
STARTCHAR U+0024
ENCODING 36
SWIDTH 500 0
DWIDTH 19 0
BBX 17 29 1 -4
BITMAP
00C000
01C000
03F000
0FFC00
1FFE00
39CF00
71C300
71C000
71C000
71C000
79C000
3FC000
0FE000
03FC00
01FE00
01CF00
01C300
01C380
01C380
01C380
41C380
E1C380
F1C700
7FFE00
3FFC00
07F000
01C000
01C000
00C000
ENDCHAR
STARTCHAR U+0025
ENCODING 37
SWIDTH 500 0
DWIDTH 26 0
BBX 22 25 2 -1
BITMAP
000040
3E0060
7F80E0
FB81E0
E1C1C0
E1C380
E1C780
E1C700
E1CE00
738E00
7F9C00
3F3800
003800
0070F0
0073F8
00E79C
01C71C
01C60C
03860C
070E0C
07060C
0E060C
0E071C
1C03F8
1801F0
ENDCHAR
STARTCHAR U+0026
ENCODING 38
SWIDTH 500 0
DWIDTH 22 0
BBX 21 24 1 -1
BITMAP
03E000
07F000
0F7800
1C3800
1C3800
1C3800
1C3000
1C7000
0CE000
0FC000
078040
0F8060
1DC0E0
39E0C0
70E0C0
6071C0
E03980
E01F80
E00F00
E00F00
F01F80
7CFDC0
3FF0F0
0FC078
ENDCHAR
STARTCHAR U+0027
ENCODING 39
SWIDTH 500 0
DWIDTH 11 0
BBX 3 8 4 15
BITMAP
C0
E0
E0
E0
E0
E0
E0
C0
ENDCHAR
STARTCHAR U+0028
ENCODING 40
SWIDTH 500 0
DWIDTH 11 0
BBX 7 31 3 -6
BITMAP
06
06
0C
18
18
38
30
30
70
60
60
E0
E0
E0
E0
E0
E0
E0
E0
E0
E0
60
60
70
30
38
18
1C
0C
06
02
ENDCHAR
STARTCHAR U+0029
ENCODING 41
SWIDTH 500 0
DWIDTH 11 0
BBX 7 31 1 -6
BITMAP
80
C0
60
60
30
30
38
18
18
1C
1C
0C
0C
0C
0C
0C
0E
0C
0C
0C
0C
1C
1C
18
18
38
30
60
60
C0
80
ENDCHAR
STARTCHAR U+002A
ENCODING 42
SWIDTH 500 0
DWIDTH 15 0
BBX 11 11 2 12
BITMAP
0C00
0C00
0C00
0C60
FFE0
FFC0
0E00
1F00
3B80
31C0
1180
ENDCHAR
STARTCHAR U+002B
ENCODING 43
SWIDTH 500 0
DWIDTH 18 0
BBX 16 17 1 -1
BITMAP
0180
01C0
01C0
01C0
01C0
01C0
01C0
01C0
FFFF
FFFF
01C0
01C0
01C0
01C0
01C0
01C0
0180
ENDCHAR
STARTCHAR U+002C
ENCODING 44
SWIDTH 500 0
DWIDTH 12 0
BBX 4 7 4 -4
BITMAP
60
F0
F0
70
60
E0
80
ENDCHAR
STARTCHAR U+002D
ENCODING 45
SWIDTH 500 0
DWIDTH 12 0
BBX 10 2 1 7
BITMAP
FFC0
FFC0
ENDCHAR
STARTCHAR U+002E
ENCODING 46
SWIDTH 500 0
DWIDTH 11 0
BBX 4 4 4 -1
BITMAP
60
F0
F0
60
ENDCHAR
STARTCHAR U+002F
ENCODING 47
SWIDTH 500 0
DWIDTH 13 0
BBX 11 26 1 -2
BITMAP
0040
00E0
00E0
00C0
01C0
0180
0180
0380
0300
0300
0700
0600
0600
0E00
0C00
1C00
1800
1800
3800
3000
3000
7000
6000
E000
E000
C000
ENDCHAR
STARTCHAR U+0030
ENCODING 48
SWIDTH 500 0
DWIDTH 19 0
BBX 15 24 2 -1
BITMAP
03C0
0FF0
3E78
3C38
781C
700C
700C
600E
E00E
E00E
E00E
E00E
E00E
E00E
E00E
E00E
E00E
600C
601C
701C
3838
3EF0
1FE0
07C0
ENDCHAR
STARTCHAR U+0031
ENCODING 49
SWIDTH 500 0
DWIDTH 19 0
BBX 7 24 5 -1
BITMAP
0C
1E
3E
FE
EE
0E
0E
0E
0E
0E
0E
0E
0E
0E
0E
0E
0E
0E
0E
0E
0E
0E
0E
0C
ENDCHAR
STARTCHAR U+0032
ENCODING 50
SWIDTH 500 0
DWIDTH 19 0
BBX 16 24 2 -1
BITMAP
03F0
0FF8
1F3C
380E
780E
300E
000E
000E
000C
001C
0038
0070
00E0
01C0
0380
0700
0E00
1C00
3800
3000
7000
FFFE
FFFF
700F
ENDCHAR
STARTCHAR U+0033
ENCODING 51
SWIDTH 500 0
DWIDTH 19 0
BBX 15 24 2 -1
BITMAP
07E0
1FF8
3E3C
781C
700C
000C
000C
001C
003C
01F8
07F0
07F8
001C
000E
0006
0006
0006
0006
0006
C00E
F01C
7EFC
3FF0
0FC0
ENDCHAR
STARTCHAR U+0034
ENCODING 52
SWIDTH 500 0
DWIDTH 19 0
BBX 17 24 1 -1
BITMAP
002000
007000
007000
00E000
00E000
01C000
01F800
03B800
073800
073800
0E3800
0C3800
1C3800
383800
383800
703800
F03F80
FFFF80
7FF800
003800
003800
003800
003800
001800
ENDCHAR
STARTCHAR U+0035
ENCODING 53
SWIDTH 500 0
DWIDTH 19 0
BBX 15 24 2 -1
BITMAP
3FFC
3FFC
3FC0
3000
3000
7000
7000
7000
6000
7FE0
7FF8
F83C
601C
000E
000E
000E
000E
000E
800E
C01C
E03C
FFF8
3FF0
0FC0
ENDCHAR
STARTCHAR U+0036
ENCODING 54
SWIDTH 500 0
DWIDTH 19 0
BBX 15 24 2 -1
BITMAP
00C0
01C0
0380
0380
0700
0E00
0C00
1C00
1800
3FE0
3FF8
7E7C
781E
700E
E006
E006
E006
E006
E006
600E
701C
3C7C
1FF8
07E0
ENDCHAR
STARTCHAR U+0037
ENCODING 55
SWIDTH 500 0
DWIDTH 19 0
BBX 15 24 2 -1
BITMAP
001C
1FFE
FFFE
7F1C
001C
0018
0038
0030
0070
0060
00E0
00E0
01C0
01C0
0380
0380
0300
0700
0700
0E00
0E00
0E00
1C00
0C00
ENDCHAR
STARTCHAR U+0038
ENCODING 56
SWIDTH 500 0
DWIDTH 19 0
BBX 16 24 2 -1
BITMAP
07E0
1FF0
3E7C
381C
700E
700E
701C
7038
3CF0
1FE0
07C0
0FF0
1E78
381C
700E
E006
E006
E007
E006
E00E
700E
7C7C
3FF8
0FE0
ENDCHAR
STARTCHAR U+0039
ENCODING 57
SWIDTH 500 0
DWIDTH 19 0
BBX 16 24 2 -1
BITMAP
03E0
0FFA
1E3F
381F
700E
7006
E006
E00E
E00E
E01C
E03C
607C
79FC
3FDC
1F18
0018
0018
0018
0038
0038
0038
0030
0030
0030
ENDCHAR
STARTCHAR U+003A
ENCODING 58
SWIDTH 500 0
DWIDTH 12 0
BBX 4 17 4 -1
BITMAP
60
F0
F0
60
00
00
00
00
00
00
00
00
00
60
F0
F0
60
ENDCHAR
STARTCHAR U+003B
ENCODING 59
SWIDTH 500 0
DWIDTH 12 0
BBX 4 20 4 -4
BITMAP
60
F0
F0
60
00
00
00
00
00
00
00
00
00
60
F0
F0
70
60
E0
80
ENDCHAR
STARTCHAR U+003C
ENCODING 60
SWIDTH 500 0
DWIDTH 19 0
BBX 13 17 3 -1
BITMAP
0008
0038
0078
01F0
03C0
0F00
3E00
F800
E000
F800
3E00
0F00
03C0
01F0
0078
0038
0008
ENDCHAR
STARTCHAR U+003D
ENCODING 61
SWIDTH 500 0
DWIDTH 20 0
BBX 16 8 2 4
BITMAP
FFFF
FFFF
0000
0000
0000
0000
FFFF
FFFF
ENDCHAR
STARTCHAR U+003E
ENCODING 62
SWIDTH 500 0
DWIDTH 19 0
BBX 13 17 3 -1
BITMAP
C000
E000
F800
3C00
1F00
07C0
01F0
0078
0038
0078
01F0
07C0
1F00
3C00
F800
E000
C000
ENDCHAR
STARTCHAR U+003F
ENCODING 63
SWIDTH 500 0
DWIDTH 19 0
BBX 14 24 3 -1
BITMAP
07E0
1FF0
3E78
7018
E01C
C018
C018
0038
0070
00F0
01E0
0380
0700
0700
0600
0600
0600
0600
0000
0000
0600
0F00
0F00
0600
ENDCHAR
STARTCHAR U+0040
ENCODING 64
SWIDTH 500 0
DWIDTH 25 0
BBX 24 24 1 -1
BITMAP
007F00
01FFE0
07E3F0
0F0078
1E001C
1C3F8E
38FFCE
71E3C6
71C3C6
6383C7
E38386
E30386
E30386
E7078E
E3078E
E30F9C
E3BFB8
61F9FA
70F0EE
38001C
1C0078
0FC7F0
07FFC0
00FE00
ENDCHAR
STARTCHAR U+0041
ENCODING 65
SWIDTH 500 0
DWIDTH 22 0
BBX 22 24 0 -1
BITMAP
003000
003800
003800
007C00
007C00
00EC00
00CE00
01C600
01C700
018700
038300
030380
070180
0601C0
3FFFC0
3FFFE0
1C00E0
180070
380070
300038
700038
70001C
E0001C
E0001C
ENDCHAR
STARTCHAR U+0042
ENCODING 66
SWIDTH 500 0
DWIDTH 20 0
BBX 17 24 2 -1
BITMAP
1FF000
FFFC00
F83E00
700E00
700600
700600
700600
700E00
701C00
707C00
7FF800
7FFC00
703E00
700700
700380
700380
700380
700380
700380
700700
701F00
71FE00
FFF800
FFC000
ENDCHAR
STARTCHAR U+0043
ENCODING 67
SWIDTH 500 0
DWIDTH 22 0
BBX 20 24 1 -1
BITMAP
007E00
03FF80
07C7E0
0F00E0
1C0040
380000
380000
700000
700000
600000
E00000
E00000
E00000
E00000
E00000
E00000
E00000
E00030
700070
7000E0
3C03C0
1F1F80
0FFE00
03F800
ENDCHAR
STARTCHAR U+0044
ENCODING 68
SWIDTH 500 0
DWIDTH 23 0
BBX 21 24 1 -1
BITMAP
1FF000
7FFC00
7C3F00
380780
3803C0
3800E0
3800E0
380070
380070
380030
380030
380038
380030
380030
380030
380070
380070
3800E0
3801E0
3803C0
380F80
39FF00
FFFC00
7FE000
ENDCHAR
STARTCHAR U+0045
ENCODING 69
SWIDTH 500 0
DWIDTH 20 0
BBX 17 24 2 -1
BITMAP
7FFE00
7FFF00
700000
700000
700000
700000
700000
700000
700000
700800
FFFC00
FFFC00
700000
700000
700000
700000
700000
700000
700000
700000
700000
700000
7FFF80
3FFF80
ENDCHAR
STARTCHAR U+0046
ENCODING 70
SWIDTH 500 0
DWIDTH 18 0
BBX 15 24 2 -1
BITMAP
7FFE
7FFE
7000
7000
7000
7000
7000
7000
7000
7008
FFFC
FFFC
7000
7000
7000
7000
7000
7000
7000
7000
7000
7000
7000
6000
ENDCHAR
STARTCHAR U+0047
ENCODING 71
SWIDTH 500 0
DWIDTH 25 0
BBX 21 24 2 -1
BITMAP
00FE00
03FF80
07C7E0
0F00E0
1C0060
380000
380000
700000
700000
600000
E00000
E01FF0
E01FF8
E00C38
E00038
E00038
E00078
E00078
7000F8
7001F8
3803F8
1F0FB8
0FFE38
03F830
ENDCHAR
STARTCHAR U+0048
ENCODING 72
SWIDTH 500 0
DWIDTH 22 0
BBX 18 24 2 -1
BITMAP
600180
7001C0
7001C0
7001C0
7001C0
7001C0
7001C0
7001C0
7001C0
700FC0
FFFFC0
FFFFC0
7001C0
7001C0
7001C0
7001C0
7001C0
7001C0
7001C0
7001C0
7001C0
7001C0
7001C0
600180
ENDCHAR
STARTCHAR U+0049
ENCODING 73
SWIDTH 500 0
DWIDTH 9 0
BBX 3 24 3 -1
BITMAP
C0
E0
E0
E0
E0
E0
E0
E0
E0
E0
E0
E0
E0
E0
E0
E0
E0
E0
E0
E0
E0
E0
E0
C0
ENDCHAR
STARTCHAR U+004A
ENCODING 74
SWIDTH 500 0
DWIDTH 16 0
BBX 12 24 1 -1
BITMAP
0060
0070
0070
0070
0070
0070
0070
0070
0070
0070
0070
0070
0070
0070
0070
0070
0070
0070
C060
E060
E0E0
7FE0
3FC0
1F00
ENDCHAR
STARTCHAR U+004B
ENCODING 75
SWIDTH 500 0
DWIDTH 20 0
BBX 17 24 3 -1
BITMAP
C00C00
E01E00
E03C00
E07800
E0F000
E1E000
E3C000
E78000
EE0000
FC0000
F80000
FC0000
EE0000
E70000
E78000
E3C000
E1E000
E0F000
E07800
E03800
E01C00
E00F00
E00780
C00700
ENDCHAR
STARTCHAR U+004C
ENCODING 76
SWIDTH 500 0
DWIDTH 18 0
BBX 14 24 3 -1
BITMAP
C000
E000
E000
E000
E000
E000
E000
E000
E000
E000
E000
E000
E000
E000
E000
E000
E000
E000
E000
E000
E000
E000
FFFC
FFFC
ENDCHAR
STARTCHAR U+004D
ENCODING 77
SWIDTH 500 0
DWIDTH 27 0
BBX 24 24 2 -1
BITMAP
180018
3C003C
3C003C
3C007C
3E007C
3E00EC
3600EC
3700CC
7301CC
73818C
73838E
71830E
61C70E
60C606
60E606
60EE06
607C06
E07C06
E03806
E03806
E01007
C00007
C00007
C00003
ENDCHAR
STARTCHAR U+004E
ENCODING 78
SWIDTH 500 0
DWIDTH 24 0
BBX 18 24 3 -1
BITMAP
E00180
E001C0
F001C0
F801C0
F801C0
FC01C0
FE01C0
EE01C0
E701C0
E701C0
E381C0
E3C1C0
E1C1C0
E0E1C0
E0F1C0
E071C0
E039C0
E03DC0
E01DC0
E00FC0
E007C0
E007C0
E003C0
C00180
ENDCHAR
STARTCHAR U+004F
ENCODING 79
SWIDTH 500 0
DWIDTH 23 0
BBX 21 24 1 -1
BITMAP
00FC00
03FF00
0FC7C0
1E01E0
3C00E0
380070
700070
700030
E00038
E00038
E00038
E00038
E00038
E00038
E00038
E00038
E00030
700070
700060
3800E0
3C03C0
1F0F80
07FF00
01FC00
ENDCHAR
STARTCHAR U+0050
ENCODING 80
SWIDTH 500 0
DWIDTH 20 0
BBX 16 24 2 -1
BITMAP
1FF0
FFFC
FC3E
7007
7003
7003
7003
7007
7007
701E
707C
7FF8
7FE0
7000
7000
7000
7000
7000
7000
7000
7000
7000
7000
6000
ENDCHAR
STARTCHAR U+0051
ENCODING 81
SWIDTH 500 0
DWIDTH 23 0
BBX 21 25 1 -2
BITMAP
00FC00
03FF00
0FC7C0
1E01E0
3C00E0
380070
700070
700030
E00038
E00038
E00038
E00038
E00038
E00038
E00038
E00038
E00030
707870
707870
381CE0
3C0FC0
1F9F80
07FF80
01FDE0
0000F8
ENDCHAR
STARTCHAR U+0052
ENCODING 82
SWIDTH 500 0
DWIDTH 20 0
BBX 18 24 2 -1
BITMAP
1FF000
FFF800
F83C00
700E00
700600
700600
700600
700E00
700E00
703C00
71F800
7FF000
7FC000
7E0000
770000
738000
71C000
70E000
707000
703800
701C00
700E00
700780
6001C0
ENDCHAR
STARTCHAR U+0053
ENCODING 83
SWIDTH 500 0
DWIDTH 20 0
BBX 17 24 1 -1
BITMAP
03F000
0FFC00
1E3E00
380700
700300
700000
700000
700000
380000
3F8000
0FF000
03FC00
003E00
000F00
000380
000380
000380
000380
400380
E00380
F00F00
7E3E00
1FFC00
07F000
ENDCHAR
STARTCHAR U+0054
ENCODING 84
SWIDTH 500 0
DWIDTH 20 0
BBX 18 24 1 -1
BITMAP
FFFFC0
FFFFC0
FFE000
00E000
00E000
00E000
00E000
00E000
00E000
00E000
00E000
00E000
00E000
00E000
00E000
00E000
00E000
00E000
00E000
00E000
00E000
00E000
00E000
00C000
ENDCHAR
STARTCHAR U+0055
ENCODING 85
SWIDTH 500 0
DWIDTH 23 0
BBX 17 24 3 -1
BITMAP
C00300
E00380
E00380
E00380
E00380
E00380
E00380
E00380
E00380
E00380
E00380
E00380
E00380
E00380
E00380
E00380
E00300
E00300
E00700
E00700
701E00
7EFC00
3FF800
0FE000
ENDCHAR
STARTCHAR U+0056
ENCODING 86
SWIDTH 500 0
DWIDTH 22 0
BBX 20 24 1 -1
BITMAP
E00060
E00070
7000E0
7000E0
3800C0
3801C0
3801C0
1C0380
1C0380
0C0300
0E0700
0E0700
060E00
070E00
070C00
031C00
039C00
039800
01B800
01F000
00F000
00F000
00E000
006000
ENDCHAR
STARTCHAR U+0057
ENCODING 87
SWIDTH 500 0
DWIDTH 28 0
BBX 28 24 0 -1
BITMAP
E0000060
E00E0070
E00F0070
700F00E0
701F00E0
701F00C0
301B81C0
383B81C0
383981C0
38318180
1831C380
1C71C380
1C70C300
0C60E700
0CE0E700
0EE0E600
0EE06600
06C06E00
07C07C00
07C07C00
07803C00
07803C00
03803800
01001800
ENDCHAR
STARTCHAR U+0058
ENCODING 88
SWIDTH 500 0
DWIDTH 19 0
BBX 19 24 0 -1
BITMAP
300180
7801C0
380380
1C0700
1C0700
0E0E00
071C00
071C00
03B800
01F000
01F000
00E000
01F000
03F000
03B800
071C00
0E1C00
0E0E00
1C0700
380700
380380
7001C0
E001E0
E000C0
ENDCHAR
STARTCHAR U+0059
ENCODING 89
SWIDTH 500 0
DWIDTH 19 0
BBX 17 24 1 -1
BITMAP
C00180
E00380
E00700
700700
380E00
380C00
1C1C00
0C3800
0E3800
067000
076000
03E000
03C000
01C000
01C000
01C000
01C000
01C000
01C000
01C000
01C000
01C000
01C000
018000
ENDCHAR
STARTCHAR U+005A
ENCODING 90
SWIDTH 500 0
DWIDTH 20 0
BBX 18 24 1 -1
BITMAP
000180
3FFFC0
3FFFC0
100780
000700
000E00
001C00
001800
003800
007000
00E000
00E000
01C000
038000
078000
070000
0E0000
1E0000
1C0000
380000
780000
F00000
FFFFC0
7FFFC0
ENDCHAR
STARTCHAR U+005B
ENCODING 91
SWIDTH 500 0
DWIDTH 12 0
BBX 6 30 5 -5
BITMAP
FC
FC
E0
E0
E0
E0
E0
E0
E0
E0
E0
E0
E0
E0
E0
E0
E0
E0
E0
E0
E0
E0
E0
E0
E0
E0
E0
E0
FC
FC
ENDCHAR
STARTCHAR U+005C
ENCODING 92
SWIDTH 500 0
DWIDTH 13 0
BBX 11 26 1 -2
BITMAP
4000
E000
E000
6000
7000
3000
3000
3800
1800
1800
1C00
0C00
0C00
0E00
0600
0700
0300
0300
0380
0180
0180
01C0
00C0
00E0
00E0
0060
ENDCHAR
STARTCHAR U+005D
ENCODING 93
SWIDTH 500 0
DWIDTH 12 0
BBX 6 30 1 -5
BITMAP
FC
FC
1C
1C
1C
1C
1C
1C
1C
1C
1C
1C
1C
1C
1C
1C
1C
1C
1C
1C
1C
1C
1C
1C
1C
1C
1C
1C
FC
FC
ENDCHAR
STARTCHAR U+005E
ENCODING 94
SWIDTH 500 0
DWIDTH 19 0
BBX 15 15 2 9
BITMAP
0300
0380
0380
07C0
06C0
0EE0
0C60
1C70
1830
3838
3018
701C
600C
E00E
E00E
ENDCHAR
STARTCHAR U+005F
ENCODING 95
SWIDTH 500 0
DWIDTH 15 0
BBX 17 2 -1 -5
BITMAP
FFFF80
FFFF80
ENDCHAR
STARTCHAR U+0060
ENCODING 96
SWIDTH 500 0
DWIDTH 16 0
BBX 7 5 4 18
BITMAP
60
F8
FC
1E
02
ENDCHAR
STARTCHAR U+0061
ENCODING 97
SWIDTH 500 0
DWIDTH 19 0
BBX 15 17 2 -1
BITMAP
03CC
0FFC
1E7C
383C
301C
701C
601C
E01C
E01C
E01C
E01C
E03C
E07C
E0FC
7BEE
3F8E
1F04
ENDCHAR
STARTCHAR U+0062
ENCODING 98
SWIDTH 500 0
DWIDTH 19 0
BBX 14 24 3 -1
BITMAP
C000
E000
E000
E000
E000
E000
E000
E3E0
EFF0
FE78
F818
F01C
F01C
E01C
E01C
E01C
E01C
E01C
E038
E038
F070
F9E0
FFC0
CF80
ENDCHAR
STARTCHAR U+0063
ENCODING 99
SWIDTH 500 0
DWIDTH 17 0
BBX 14 17 2 -1
BITMAP
03E0
0FF8
1F78
3C18
3800
7000
6000
E000
E000
E000
E000
E004
E01C
7038
7CF0
3FE0
0F80
ENDCHAR
STARTCHAR U+0064
ENCODING 100
SWIDTH 500 0
DWIDTH 19 0
BBX 15 24 2 -1
BITMAP
000C
001C
001C
001C
001C
001C
001C
03DC
0FFC
1E7C
381C
701C
701C
601C
E01C
E01C
E01C
E01C
E03C
E07C
60FC
7BEE
3FCE
1F04
ENDCHAR
STARTCHAR U+0065
ENCODING 101
SWIDTH 500 0
DWIDTH 18 0
BBX 14 17 2 -1
BITMAP
03E0
0FF8
1E38
381C
301C
701C
601C
E3F8
FFF0
FF80
E000
E000
E00C
7018
78F0
3FE0
0F80
ENDCHAR
STARTCHAR U+0066
ENCODING 102
SWIDTH 500 0
DWIDTH 13 0
BBX 11 24 1 -1
BITMAP
07C0
0FE0
0EE0
0C40
1C00
1C00
1C00
FFC0
FFE0
1C00
1C00
1C00
1C00
1C00
1C00
1C00
1C00
1C00
1C00
1C00
1C00
1C00
1C00
0C00
ENDCHAR
STARTCHAR U+0067
ENCODING 103
SWIDTH 500 0
DWIDTH 19 0
BBX 14 22 2 -6
BITMAP
07CC
0FFC
1E7C
383C
701C
601C
E01C
E01C
E01C
E01C
E01C
E03C
607C
79FC
3FDC
1F1C
001C
C038
E038
79F0
7FE0
1F80
ENDCHAR
STARTCHAR U+0068
ENCODING 104
SWIDTH 500 0
DWIDTH 19 0
BBX 14 24 3 -1
BITMAP
C000
E000
E000
E000
E000
E000
E000
E3E0
EFF0
FE78
F838
F018
E018
E01C
E01C
E01C
E01C
E01C
E01C
E01C
E01C
E01C
E01C
C018
ENDCHAR
STARTCHAR U+0069
ENCODING 105
SWIDTH 500 0
DWIDTH 8 0
BBX 4 24 2 -1
BITMAP
60
F0
F0
60
00
00
00
60
E0
E0
E0
E0
E0
E0
E0
E0
E0
E0
E0
E0
E0
E0
E0
60
ENDCHAR
STARTCHAR U+006A
ENCODING 106
SWIDTH 500 0
DWIDTH 10 0
BBX 8 29 0 -6
BITMAP
06
0F
0F
06
00
00
00
06
0E
0E
0E
0E
0E
0E
0E
0E
0E
0E
0E
0E
0E
0E
0E
0E
0E
0E
EE
FC
78
ENDCHAR
STARTCHAR U+006B
ENCODING 107
SWIDTH 500 0
DWIDTH 17 0
BBX 14 24 3 -1
BITMAP
C000
E000
E000
E000
E000
E000
E000
E070
E0F0
E1E0
E780
EF00
FE00
F800
FC00
FE00
EF00
E780
E380
E1C0
E0E0
E070
E03C
C018
ENDCHAR
STARTCHAR U+006C
ENCODING 108
SWIDTH 500 0
DWIDTH 8 0
BBX 5 24 3 -1
BITMAP
C0
E0
E0
E0
E0
E0
E0
E0
E0
E0
E0
E0
E0
E0
E0
E0
E0
E0
E0
E0
E0
F8
F8
70
ENDCHAR
STARTCHAR U+006D
ENCODING 109
SWIDTH 500 0
DWIDTH 26 0
BBX 21 17 3 -1
BITMAP
C783C0
FFCFE0
FDFEF0
F0F870
F07030
E07030
E07038
E07038
E07038
E07038
E07038
E07038
E07038
E07038
E07038
E07038
C06030
ENDCHAR
STARTCHAR U+006E
ENCODING 110
SWIDTH 500 0
DWIDTH 19 0
BBX 14 17 3 -1
BITMAP
C3E0
EFF0
FE78
F838
F018
E018
E01C
E01C
E01C
E01C
E01C
E01C
E01C
E01C
E01C
E01C
C018
ENDCHAR
STARTCHAR U+006F
ENCODING 111
SWIDTH 500 0
DWIDTH 19 0
BBX 15 17 2 -1
BITMAP
03E0
1FF0
3E78
381C
700C
700E
E00E
E00E
E00E
E00E
E00E
E00C
E01C
7038
3CF8
3FF0
0FC0
ENDCHAR
STARTCHAR U+0070
ENCODING 112
SWIDTH 500 0
DWIDTH 19 0
BBX 14 22 3 -6
BITMAP
C3E0
EFF0
FE78
F838
F01C
F01C
E01C
E01C
E01C
E01C
E01C
E038
E038
F070
F9E0
FFC0
EF80
E000
E000
E000
E000
C000
ENDCHAR
STARTCHAR U+0071
ENCODING 113
SWIDTH 500 0
DWIDTH 19 0
BBX 14 22 2 -6
BITMAP
03CC
0FFC
1E7C
381C
701C
701C
601C
E01C
E01C
E01C
E01C
E03C
E07C
60FC
7BFC
3FDC
1F1C
001C
001C
001C
001C
000C
ENDCHAR
STARTCHAR U+0072
ENCODING 114
SWIDTH 500 0
DWIDTH 15 0
BBX 11 17 3 -1
BITMAP
C780
FFE0
FCE0
F040
F000
E000
E000
E000
E000
E000
E000
E000
E000
E000
E000
E000
C000
ENDCHAR
STARTCHAR U+0073
ENCODING 115
SWIDTH 500 0
DWIDTH 17 0
BBX 13 17 2 -1
BITMAP
0FC0
1FF0
3CF0
7030
7000
7000
3C00
1FC0
07E0
0070
0038
0038
C038
E038
78F0
3FE0
1FC0
ENDCHAR
STARTCHAR U+0074
ENCODING 116
SWIDTH 500 0
DWIDTH 13 0
BBX 11 22 1 -1
BITMAP
1800
1C00
1C00
1C00
1C00
FF80
FFC0
1C00
1C00
1C00
1C00
1C00
1C00
1C00
1C00
1C00
1C00
1C00
1C60
1FC0
0F80
0F00
ENDCHAR
STARTCHAR U+0075
ENCODING 117
SWIDTH 500 0
DWIDTH 19 0
BBX 14 17 3 -1
BITMAP
C018
E038
E038
E038
E038
E038
E038
E038
E038
E038
E078
E078
E0F8
E1FC
73DC
7F9C
1E0C
ENDCHAR
STARTCHAR U+0076
ENCODING 118
SWIDTH 500 0
DWIDTH 16 0
BBX 14 17 1 -1
BITMAP
E00C
E01C
601C
7018
7038
3030
3870
1870
1860
1CE0
0CC0
0DC0
0FC0
0780
0780
0700
0300
ENDCHAR
STARTCHAR U+0077
ENCODING 119
SWIDTH 500 0
DWIDTH 23 0
BBX 22 17 1 -1
BITMAP
E0200C
E0781C
60781C
707818
707838
70FC38
30DC30
38CC70
39CC70
198E60
1986E0
1F86E0
1F07C0
0F07C0
0F03C0
0E0380
060180
ENDCHAR
STARTCHAR U+0078
ENCODING 120
SWIDTH 500 0
DWIDTH 15 0
BBX 13 17 1 -1
BITMAP
E038
E038
7070
38E0
18C0
1DC0
0F80
0700
0700
0F80
1FC0
1DC0
38E0
7070
7070
E038
C018
ENDCHAR
STARTCHAR U+0079
ENCODING 121
SWIDTH 500 0
DWIDTH 17 0
BBX 15 22 1 -6
BITMAP
E004
E00E
700E
701C
381C
3838
1838
1C70
1C70
0E60
0EE0
07C0
07C0
0380
0380
0300
0700
0700
0E00
DE00
FC00
7800
ENDCHAR
STARTCHAR U+007A
ENCODING 122
SWIDTH 500 0
DWIDTH 16 0
BBX 14 17 1 -1
BITMAP
0038
3FF8
3FF8
0070
00E0
01E0
01C0
0380
0700
0E00
1E00
1C00
3800
7000
F000
FFFC
FFFC
ENDCHAR
STARTCHAR U+007B
ENCODING 123
SWIDTH 500 0
DWIDTH 11 0
BBX 8 31 2 -6
BITMAP
01
07
0E
0C
0C
1C
1C
1C
1C
1C
1C
1C
1C
38
F8
F0
38
1C
1C
1C
1C
1C
1C
1C
1C
1C
1C
1C
0E
07
03
ENDCHAR
STARTCHAR U+007C
ENCODING 124
SWIDTH 500 0
DWIDTH 11 0
BBX 3 24 4 -1
BITMAP
E0
E0
E0
E0
E0
E0
E0
E0
E0
E0
E0
E0
E0
E0
E0
E0
E0
E0
E0
E0
E0
E0
E0
E0
ENDCHAR
STARTCHAR U+007D
ENCODING 125
SWIDTH 500 0
DWIDTH 11 0
BBX 8 31 1 -5
BITMAP
C0
E0
70
38
38
38
38
38
38
38
38
38
38
38
1C
0F
1F
1C
38
38
38
38
38
38
38
38
30
30
70
E0
80
ENDCHAR
STARTCHAR U+007E
ENCODING 126
SWIDTH 500 0
DWIDTH 19 0
BBX 16 5 2 6
BITMAP
3E03
7F86
E7CE
C1FC
8078
ENDCHAR
STARTCHAR U+00B7
ENCODING 183
SWIDTH 500 0
DWIDTH 12 0
BBX 6 7 3 9
BITMAP
70
F8
FC
FC
FC
7C
38
ENDCHAR
STARTCHAR U+00D7
ENCODING 215
SWIDTH 500 0
DWIDTH 19 0
BBX 15 17 2 -1
BITMAP
C006
E00E
F01E
383C
1C78
1EF0
0FE0
07C0
03C0
07E0
0EF0
1C78
383C
701E
F00E
E004
4000
ENDCHAR
STARTCHAR U+2460
ENCODING 9312
SWIDTH 500 0
DWIDTH 32 0
BBX 31 31 0 -4
BITMAP
000FE000
007FFC00
01F01F00
03800380
070001C0
0C000060
18018030
38038038
300F8018
601D800C
6001800C
6001800C
C0018006
C0018006
C0018006
C0018006
C0018006
C0018006
C0018006
6001800C
6001800C
6001800C
30018018
38018038
18018030
0C000060
070001C0
03800380
01F01F00
007FFC00
000FE000
ENDCHAR
STARTCHAR U+2461
ENCODING 9313
SWIDTH 500 0
DWIDTH 32 0
BBX 31 31 0 -4
BITMAP
000FE000
007FFC00
01F01F00
03800380
070001C0
0C000060
1807E030
380FF838
301C3818
60381C0C
60300C0C
60001C0C
C0001806
C0003806
C0007006
C001E006
C0038006
C0070006
C00E0006
601C000C
6038000C
6070000C
30FFFC18
38FFFC38
18000030
0C000060
070001C0
03800380
01F01F00
007FFC00
000FE000
ENDCHAR
STARTCHAR U+2462
ENCODING 9314
SWIDTH 500 0
DWIDTH 32 0
BBX 31 31 0 -4
BITMAP
000FE000
007FFC00
01F01F00
03800380
070001C0
0C000060
1807E030
381FF838
30381C18
60300C0C
60000C0C
60001C0C
C0007806
C00FF006
C00FF806
C0003C06
C0000C06
C0000E06
C0000606
6000060C
60400E0C
60601C0C
30783C18
383FF038
180FC030
0C000060
070001C0
03800380
01F01F00
007FFC00
000FE000
ENDCHAR
STARTCHAR U+2463
ENCODING 9315
SWIDTH 500 0
DWIDTH 32 0
BBX 31 31 0 -4
BITMAP
000FE000
007FFC00
01F01F00
03800380
070001C0
0C000060
1800C030
3800C038
3001C018
6001800C
6003800C
6003600C
C0066006
C00E6006
C01C6006
C0186006
C0306006
C0706006
C0E07006
60FFFE0C
60FFFE0C
6000600C
30006018
38006038
18002030
0C000060
070001C0
03800380
01F01F00
007FFC00
000FE000
ENDCHAR
STARTCHAR U+2464
ENCODING 9316
SWIDTH 500 0
DWIDTH 32 0
BBX 31 31 0 -4
BITMAP
000FE000
007FFC00
01F01F00
03800380
070001C0
0C000060
181FFC30
381FFC38
30180018
6018000C
6038000C
6030000C
C0300006
C037E006
C07FF806
C0783C06
C0200C06
C0000E06
C0000606
60000E0C
60400C0C
60601C0C
30783818
383FF038
180FC030
0C000060
070001C0
03800380
01F01F00
007FFC00
000FE000
ENDCHAR
STARTCHAR U+3001
ENCODING 12289
SWIDTH 500 0
DWIDTH 32 0
BBX 7 7 2 -3
BITMAP
E0
70
78
3C
1E
0E
06
ENDCHAR
STARTCHAR U+3002
ENCODING 12290
SWIDTH 500 0
DWIDTH 32 0
BBX 9 9 2 -3
BITMAP
3E00
7F00
E380
C180
C180
C180
6380
7F00
1E00
ENDCHAR
STARTCHAR U+3010
ENCODING 12304
SWIDTH 500 0
DWIDTH 32 0
BBX 8 29 23 -3
BITMAP
FF
FE
FC
FC
F8
F8
F8
F0
F0
F0
F0
E0
E0
E0
E0
E0
E0
E0
E0
E0
E0
F0
F0
F0
F8
F8
FC
FE
FF
ENDCHAR
STARTCHAR U+3011
ENCODING 12305
SWIDTH 500 0
DWIDTH 32 0
BBX 8 29 1 -3
BITMAP
FF
7F
3F
1F
1F
0F
0F
0F
07
07
07
07
07
07
07
07
07
07
07
0F
0F
0F
0F
1F
1F
3F
3F
7F
FF
ENDCHAR
STARTCHAR U+4E00
ENCODING 19968
SWIDTH 500 0
DWIDTH 32 0
BBX 29 4 2 10
BITMAP
000001F0
9FFFFFF8
FFFFFFF0
7FF00000
ENDCHAR
STARTCHAR U+4E01
ENCODING 19969
SWIDTH 500 0
DWIDTH 32 0
BBX 27 26 3 -3
BITMAP
000003C0
03FFFFE0
FFFFFFC0
7FFE0000
000E0000
000E0000
000E0000
000E0000
000E0000
000E0000
000E0000
000E0000
000E0000
000E0000
000E0000
000E0000
000E0000
000E0000
000E0000
000E0000
000E0000
030E0000
01EE0000
00FE0000
003E0000
000C0000
ENDCHAR
STARTCHAR U+4E09
ENCODING 19977
SWIDTH 500 0
DWIDTH 32 0
BBX 29 22 2 0
BITMAP
00001F00
1FFFFF80
0FFFFF00
00000000
00000000
00000000
00000000
00000000
00000C00
03FFFE00
03FFFE00
00000000
00000000
00000000
00000000
00000000
00000000
00000000
000001F0
FFFFFFF8
FFFFFFF8
3C000000
ENDCHAR
STARTCHAR U+4E0A
ENCODING 19978
SWIDTH 500 0
DWIDTH 32 0
BBX 29 27 2 -1
BITMAP
00080000
000C0000
000E0000
000E0000
000E0000
000E0000
000E0000
000E0000
000E0000
000E0000
000E0000
000FFF00
000FFF00
000E0000
000E0000
000E0000
000E0000
000E0000
000E0000
000E0000
000E0000
000E0000
000E0000
000E0FF0
FFFFFFF8
FFFFFFF0
20000000
ENDCHAR
STARTCHAR U+4E11
ENCODING 19985
SWIDTH 500 0
DWIDTH 32 0
BBX 28 25 2 -1
BITMAP
00001C00
0FFFFE00
0FFFFE00
07B80E00
00380E00
00380E00
00380E00
00380E00
00300C00
00300C00
00301C00
1FFFFC00
0FFFFC00
07701C00
00701C00
00701C00
00601C00
00601C00
00601800
00E01800
00E01800
00E01800
00E03FE0
FFFFFFF0
FFFFFFF0
ENDCHAR
STARTCHAR U+4E19
ENCODING 19993
SWIDTH 500 0
DWIDTH 32 0
BBX 27 27 2 -3
BITMAP
000007C0
0FFFFFE0
FFFFFFC0
7F8E0000
00060000
00060000
00060000
300FFF80
3FFFFF80
3FFFE180
380E0180
380C0180
381E0180
381F8180
383BC180
3830E180
38707980
38E03D80
39C01D80
1B000180
1E000180
18000180
18004180
18007980
38001F80
38000F80
18000380
ENDCHAR
STARTCHAR U+4E2D
ENCODING 20013
SWIDTH 500 0
DWIDTH 32 0
BBX 24 31 4 -4
BITMAP
003000
003800
003800
003800
003800
003800
003800
0039FE
FFFFFF
7FFFE7
603807
603806
603806
603806
703806
70380E
70383E
7FFFFE
7FFFF8
703800
303800
003800
003800
003800
003800
003800
003800
003800
003800
003800
001000
ENDCHAR
STARTCHAR U+4E3E
ENCODING 20030
SWIDTH 500 0
DWIDTH 32 0
BBX 30 29 1 -3
BITMAP
000C0400
020C0E00
070E0E00
03861C00
01C71800
00E33000
00C07FE0
7FFFFFF0
7FFFF800
00703800
00E01C00
01C70E00
03830700
070303C0
0E0301F0
1DFFFC78
38FFFC3C
E0030008
80030000
00030000
00030380
0FFFFFC0
0FFFFE00
00030000
00030000
00030000
00030000
00030000
00030000
ENDCHAR
STARTCHAR U+4E59
ENCODING 20057
SWIDTH 500 0
DWIDTH 32 0
BBX 25 23 5 -1
BITMAP
0FFFE000
7FFFE000
7F83C000
00078000
000E0000
003C0000
00780000
00F00000
01E00000
03C00000
07800000
0F000000
1E000000
1C000080
38000180
70000180
70000180
E0000180
E0000380
E0000380
78000F00
7FFFFF00
3FFFFE00
ENDCHAR
STARTCHAR U+4E5D
ENCODING 20061
SWIDTH 500 0
DWIDTH 32 0
BBX 30 28 1 -3
BITMAP
000E0000
000E0000
00060000
000E0000
000E0000
000E0000
000E0000
000E1C00
00FFFE00
1FFFFE00
0FFC0E00
001C0C00
001C0C00
001C0C00
00180C00
00381C00
00381C00
00701C04
00701C04
00E01C04
01C0180C
01C0180C
0380180C
0700181C
0E001FFC
1C001FF8
70000FF0
C0000000
ENDCHAR
STARTCHAR U+4E61
ENCODING 20065
SWIDTH 500 0
DWIDTH 32 0
BBX 24 29 4 -3
BITMAP
001000
003800
007000
007040
00E060
01C0E0
0381E0
1F03C0
1F8380
07E700
01FE06
007C07
00380E
00700E
00E01C
01C3FC
27FFF8
3FFFF0
1F00E0
0001C0
000380
000F00
001E00
007C00
01F000
07C000
1F0000
FC0000
E00000
ENDCHAR
STARTCHAR U+4E8C
ENCODING 20108
SWIDTH 500 0
DWIDTH 32 0
BBX 29 18 1 2
BITMAP
00007E00
0FFFFF00
07FFFE00
00000000
00000000
00000000
00000000
00000000
00000000
00000000
00000000
00000000
00000000
00000000
00000070
FFFFFFF8
FFFFFFF8
7FF00000
ENDCHAR
STARTCHAR U+4E94
ENCODING 20116
SWIDTH 500 0
DWIDTH 32 0
BBX 29 24 1 -1
BITMAP
00000380
0FFFFFC0
0FFFFF80
07CE0000
00060000
000E0000
000E0000
000E0000
000C0000
001C1E00
07FFFF00
07FFFF00
001C0600
00180600
00180600
00380600
00380600
00380E00
00300E00
00300E00
00300E00
00700FF0
FFFFFFF8
7FFFFFF8
ENDCHAR
STARTCHAR U+4ECA
ENCODING 20170
SWIDTH 500 0
DWIDTH 32 0
BBX 31 30 1 -3
BITMAP
00030000
00038000
00078000
00078000
000F8000
000FC000
001CE000
00387000
00703800
00701C00
00E00E00
01D80780
039F03C0
070FE1F0
1C01F07C
3800703E
6000000C
C0000200
03FFFF00
03FFFF00
00000700
00000E00
00001C00
00003C00
00003800
00007000
0000E000
0001C000
00038000
00030000
ENDCHAR
STARTCHAR U+4F11
ENCODING 20241
SWIDTH 500 0
DWIDTH 32 0
BBX 30 31 1 -4
BITMAP
00004000
00806000
00C06000
01C06000
01C06000
01806000
03806000
03006000
07006000
0600FFE0
0E3FFFE0
1E3FF800
1E01F800
3E01FC00
7603EC00
66036E00
C6076700
06066380
060C61C0
061C61E0
061860F0
06306078
0660603C
06C06018
06806000
06006000
06006000
06006000
06006000
06006000
00002000
ENDCHAR
STARTCHAR U+4F4E
ENCODING 20302
SWIDTH 500 0
DWIDTH 32 0
BBX 30 29 1 -3
BITMAP
00800000
00C00180
01C00780
01C03F00
0199FC00
038FF800
030E3800
070C3800
060C1800
0E0C1800
1E0C1800
1E0C1800
360C1FE0
760FFFF0
660FFC00
C60C0C00
060C0C00
060C0C00
060C0E00
060C0600
060C0704
060C2704
060CE304
060F838C
067F71CC
067C39D8
06701CF8
06000E78
06000630
ENDCHAR
STARTCHAR U+4F53
ENCODING 20307
SWIDTH 500 0
DWIDTH 32 0
BBX 30 29 1 -3
BITMAP
00806000
01C06000
01C06000
01C06000
03806000
03806000
03006000
07007FE0
067FFFF0
0E3FF000
1E01F800
1E01F800
3E03FC00
3603EE00
66076700
C6076380
860E6380
060C61C0
061C60E0
06186070
06387F38
066FFF9C
06C3700C
06806000
06006000
06006000
06006000
06006000
06006000
ENDCHAR
STARTCHAR U+4FA7
ENCODING 20391
SWIDTH 500 0
DWIDTH 32 0
BBX 28 29 1 -3
BITMAP
00000020
03800030
03800030
037FE030
033FE030
07306030
06306330
0E366330
0C336330
1C336330
1C336330
3C336330
3C336330
6C336330
6C336330
CC336330
8C336330
0C366330
0C366330
0C366330
0C160330
0C0EC330
0C0CE030
0C1C6030
0C187030
0C303B30
0C6019F0
0CC000F0
0D000070
ENDCHAR
STARTCHAR U+50CF
ENCODING 20687
SWIDTH 500 0
DWIDTH 32 0
BBX 30 29 1 -3
BITMAP
0000C000
01C0E000
01C1C600
01C3FF00
0187FF00
038C0E00
03381FE0
077FFFE0
06FF3060
0E183060
1E1830E0
1E1FFFE0
3E1FFFC0
3609C040
6607E0E0
C60E61C0
86387780
0661FF00
06039C00
060F3C00
063C7F00
06E0FF80
0603DDE0
060F1CF0
063C1C7C
06F21C1C
0603F800
0600F800
06003800
ENDCHAR
STARTCHAR U+5149
ENCODING 20809
SWIDTH 500 0
DWIDTH 32 0
BBX 28 28 2 -3
BITMAP
000E0000
000E0000
00060000
00060600
0C060F00
0E060E00
07061C00
03861800
01C63000
00E66000
00464000
000FFFC0
7FFFFFE0
7FFFF000
0031C000
0071C000
0071C000
00618000
00E18030
00C18030
01C18030
03818030
07018070
0E018070
1C01FFE0
3801FFE0
70007F80
C0000000
ENDCHAR
STARTCHAR U+516B
ENCODING 20843
SWIDTH 500 0
DWIDTH 32 0
BBX 31 25 1 -1
BITMAP
00038000
0003C000
0001C000
0000C000
0000C000
0060E000
0070E000
00706000
00707000
00E07000
00E03800
00E03800
00C01C00
01C01C00
01C00E00
03800E00
03800700
07000780
060003C0
0E0001C0
1C0000E0
180000F0
3000007C
6000003E
C000001C
ENDCHAR
STARTCHAR U+519C
ENCODING 20892
SWIDTH 500 0
DWIDTH 32 0
BBX 31 29 1 -3
BITMAP
00010000
00018000
00018000
00038000
01038000
0387FFC0
03FFFFC0
03FFC180
07060380
060E0700
0E0E0600
0C1E0C80
0C1F08C0
003B81C0
007383C0
00E1C780
01E0EF00
03E07E00
07E07800
0F603800
1C601C00
78600E00
E0604780
0063C3C0
007F01F0
007C00F8
07F0003E
07C0001C
07000000
ENDCHAR
STARTCHAR U+51FA
ENCODING 20986
SWIDTH 500 0
DWIDTH 32 0
BBX 23 29 4 -3
BITMAP
003000
003800
001800
001800
001800
001818
301818
381818
381818
301818
301818
301818
303FF8
3FFFF8
3FFFB8
383818
003800
C03806
E03806
603806
603806
603806
E03806
E03806
E03BFE
FFFFFE
FFFFFE
FE0006
000006
ENDCHAR
STARTCHAR U+521D
ENCODING 21021
SWIDTH 500 0
DWIDTH 32 0
BBX 28 28 1 -3
BITMAP
0E000000
07000000
03800000
01C00000
01C07FE0
0087FFF0
7FF7F860
3FF03860
00E03860
00C03060
01C83060
039C3060
03987060
07F07060
0FF06060
1FF86060
1B9CE060
338CC0E0
6381C0E0
838180E0
038380E0
038300C0
038700C0
038631C0
038C1DC0
03980FC0
03980780
01A00380
ENDCHAR
STARTCHAR U+524D
ENCODING 21069
SWIDTH 500 0
DWIDTH 32 0
BBX 28 29 2 -3
BITMAP
00001800
01801800
01C03800
00E07000
0070E000
0039E3F0
8FFFFFF0
FFFFFF00
7C000000
00000380
1FFC0180
1FFC6180
1C0C6180
1C0C6180
1C0C6180
1FFC7180
1FFC7180
1C0C7180
1C0C7180
1C0C7180
1FFC7180
1FFC7180
1C0C7180
180C2180
180C0180
188C3180
18FC1F80
183C0F80
181C0380
ENDCHAR
STARTCHAR U+52A8
ENCODING 21160
SWIDTH 500 0
DWIDTH 32 0
BBX 27 29 2 -3
BITMAP
00001000
00001C00
00001C00
00001C00
3FF81C00
3FF81C00
00001C00
00001C00
00001C00
0003FFE0
01FBFFE0
FFFC1860
7FE01860
07001860
06003860
0E603860
0C603060
0C7030E0
1C3070E0
183860E0
38F8E0C0
3FFCC0C0
FF1CC0C0
F80D80C0
0003B1C0
00031DC0
00060F80
000C0780
00080300
ENDCHAR
STARTCHAR U+5341
ENCODING 21313
SWIDTH 500 0
DWIDTH 32 0
BBX 28 29 2 -3
BITMAP
000C0000
00060000
00060000
00060000
00060000
00060000
00060000
00060000
00060000
00060000
00060000
000FFFF0
FFFFFFF0
FFFFF800
20060000
00060000
00060000
00060000
00060000
00060000
00060000
00060000
00060000
00060000
00060000
00060000
00060000
00060000
00060000
ENDCHAR
STARTCHAR U+5348
ENCODING 21320
SWIDTH 500 0
DWIDTH 32 0
BBX 28 29 2 -3
BITMAP
00600000
00E00000
00E00000
00E00000
01C00400
01FFFF00
01FFFF00
03E70000
07070000
06070000
0E070000
0C070000
18070000
30070000
0007FFF0
FFFFFFF0
FFFFF800
00070000
00070000
00070000
00070000
00070000
00070000
00070000
00070000
00070000
00070000
00070000
00060000
ENDCHAR
STARTCHAR U+536F
ENCODING 21359
SWIDTH 500 0
DWIDTH 32 0
BBX 27 30 2 -4
BITMAP
00100000
00180000
00780000
00F187C0
03E1FFE0
3F81FEE0
1E01C0E0
1831C0E0
1831C0E0
1831C0E0
1831C0E0
1831C0E0
1831C0C0
1831C0C0
1831C0C0
1831C0C0
18F1C1C0
1FF1D9C0
3FF1CFC0
FC61C7C0
70E1C380
00C1C000
01C1C000
0381C000
0301C000
0601C000
1C01C000
3801C000
2001C000
0000C000
ENDCHAR
STARTCHAR U+5386
ENCODING 21382
SWIDTH 500 0
DWIDTH 32 0
BBX 28 27 1 -3
BITMAP
000003E0
07FFFFF0
07FFFFC0
07E00000
0700C000
0600E000
0600E000
0600E000
0600E000
0600E000
0600EFC0
067FFFE0
067FFEE0
0E01C0E0
0E01C0E0
0E0380E0
0C0380C0
0C0700C0
1C0700C0
180E00C0
180C01C0
301C01C0
303861C0
60707980
61E01F80
C3800F80
82000300
ENDCHAR
STARTCHAR U+539F
ENCODING 21407
SWIDTH 500 0
DWIDTH 32 0
BBX 28 28 1 -3
BITMAP
000000E0
07FFFFF0
07FFFFE0
07F0C000
0700E000
0600C000
0601C100
067FFFC0
067FFFC0
06700180
06300180
063FFF80
063FFF80
06300180
0E300380
0E3FFF80
0E3FFF80
0C18E000
0C106200
1C186700
18386380
1878E1C0
1870E0E0
30E0E070
31CCE070
6307E030
4203E000
8001E000
ENDCHAR
STARTCHAR U+53C2
ENCODING 21442
SWIDTH 500 0
DWIDTH 32 0
BBX 29 29 2 -3
BITMAP
000C0000
000C0000
001CC000
0038E000
00707800
00E1FC00
07FFFE00
03FE0E00
000E0000
000E0000
001FFFE0
7FFFFFE0
3FFEF000
00E07000
01C33C00
03870F00
070E07C0
1C3C63F0
38F0E0F8
E1C3C030
83078C00
001E1C00
00787C00
01E0F000
0003E000
000F8000
007E0000
03F00000
07000000
ENDCHAR
STARTCHAR U+53F3
ENCODING 21491
SWIDTH 500 0
DWIDTH 32 0
BBX 29 28 1 -3
BITMAP
00070000
00030000
00070000
00070000
00070000
000E0000
000FFFF0
7FFFFFF8
3FFFF000
00180000
00380000
00300000
00700000
00E00000
01FFFF00
01FFFF80
03E00300
07600700
0E600700
18600700
30600700
60600700
C0700600
007FFF00
007FFF00
00700000
00700000
00300000
ENDCHAR
STARTCHAR U+53F7
ENCODING 21495
SWIDTH 500 0
DWIDTH 32 0
BBX 29 27 2 -3
BITMAP
03FFFC00
01FFFC00
01801800
01801800
01801800
01803800
01FFF800
01FFF800
01C00000
00000070
07FFFFF8
FFFFFFF0
FFF00000
00E00000
00E00000
00FFFC00
01FFFC00
00C01C00
00001C00
00001800
00003800
00003800
00303000
001E7000
000FF000
0003E000
0000C000
ENDCHAR
STARTCHAR U+540D
ENCODING 21517
SWIDTH 500 0
DWIDTH 32 0
BBX 26 29 1 -3
BITMAP
00030000
00038000
00078000
000F0000
000E0E00
001FFF80
003FFF80
00700700
00E00E00
01E01C00
07783800
0E3C7000
181FE000
000FC000
00078000
001E0000
007C0000
00FFFFC0
03FFFFC0
0F7001C0
783001C0
C03001C0
003001C0
003001C0
00300180
003FFFC0
003FFFC0
00380000
00180000
ENDCHAR
STARTCHAR U+5468
ENCODING 21608
SWIDTH 500 0
DWIDTH 32 0
BBX 25 28 2 -3
BITMAP
00000300
0FFFFF80
0FFFFF80
0FCC0180
0E060180
0E060180
0E060180
0EFFF180
0E7FF180
0E060180
0E060180
0FFFFD80
0FFFFD80
0C000180
0C000180
0C7FE180
0C7FE180
0C706180
1C706180
18306180
183FE180
183FE180
30300180
30006180
60003980
60001F80
C0000F80
80000380
ENDCHAR
STARTCHAR U+56DB
ENCODING 22235
SWIDTH 500 0
DWIDTH 32 0
BBX 26 22 3 -1
BITMAP
C1FFFFC0
FFFFFFC0
7FE301C0
60E301C0
60E301C0
60E30180
60E30180
60C30180
60C30180
61C39D80
6183FF80
6381FF80
77000380
76000380
7C000380
70000380
70000380
7FFFFF80
3FFFFF80
30000000
70000000
30000000
ENDCHAR
STARTCHAR U+5708
ENCODING 22280
SWIDTH 500 0
DWIDTH 32 0
BBX 26 28 3 -3
BITMAP
C3FFFF80
FFFFFF80
7F180180
601C4180
639CE180
61D9C180
60DB0180
601FF180
67FFF180
63F00180
6030FD80
7FFFFF80
6FF9C180
60C0E180
61FFF180
63FFBD80
66C19F80
6CDB9780
78CF3180
60C73180
60C23180
60FFF180
607FE180
60000180
7FFFFFC0
7FFFFFC0
E0000000
60000000
ENDCHAR
STARTCHAR U+571F
ENCODING 22303
SWIDTH 500 0
DWIDTH 32 0
BBX 29 26 1 -1
BITMAP
00060000
00070000
00070000
00070000
00070000
00070000
00070000
00070000
00070000
00070000
0007FF00
0FFFFF80
07FFF800
00070000
00070000
00070000
00070000
00070000
00070000
00070000
00070000
00070000
00071FF0
FFFFFFF8
FFFFFFF0
20000000
ENDCHAR
STARTCHAR U+5730
ENCODING 22320
SWIDTH 500 0
DWIDTH 32 0
BBX 30 27 1 -2
BITMAP
00003800
04001800
06001800
06001800
06001800
06061800
06061860
06061BE0
06061FE0
7FE67E60
7FF7F860
060FD860
067E1860
06361860
060618E0
060618E0
06061CC0
06761FC4
07E61BC4
0F8619CC
FE06180C
FC06000C
7006000C
0006000C
0007C1FC
0003FFF8
0001FFE0
ENDCHAR
STARTCHAR U+590F
ENCODING 22799
SWIDTH 500 0
DWIDTH 32 0
BBX 29 29 2 -3
BITMAP
00000080
001FFFE0
7FFFFFE0
3FFE0000
000C0000
077FFE00
07FFFE00
03000E00
03FFFE00
03FFFE00
03000E00
03FFFC00
03FFFC00
03000C00
03FFFE00
03FFFE00
03F80000
00780000
00FFF800
01FFFC00
03E07800
07F0F000
0E3FC000
380F8000
201FE000
00F8FC00
07E03FE0
3F0007F8
E0000070
ENDCHAR
STARTCHAR U+5927
ENCODING 22823
SWIDTH 500 0
DWIDTH 32 0
BBX 30 28 1 -3
BITMAP
00060000
00070000
00070000
00070000
00070000
00070000
00070000
00060000
000F1FE0
3FFFFFF0
1FFFFF00
080F8000
000F8000
001DC000
001CC000
001CE000
00387000
00387000
00703800
00E01C00
00E00E00
01C00F00
03800780
070003E0
0E0001F0
380000FC
7000003C
C0000018
ENDCHAR
STARTCHAR U+5929
ENCODING 22825
SWIDTH 500 0
DWIDTH 32 0
BBX 29 27 2 -3
BITMAP
00000200
08FFFF00
0FFFFF00
0FFF0000
00060000
00060000
00060000
000E0000
000E0000
000E1FC0
3FFFFFE0
3FFFE000
000F0000
001F8000
00198000
0039C000
0038E000
00707000
00E03800
00E03C00
01C01E00
03800F00
07000780
1E0003E0
380000F8
70000078
C0000030
ENDCHAR
STARTCHAR U+5934
ENCODING 22836
SWIDTH 500 0
DWIDTH 32 0
BBX 27 29 3 -3
BITMAP
00060000
00070000
00030000
0E030000
07830000
03C30000
00F30000
00730000
30330000
38030000
1E030000
0F030000
03870000
01870000
00070000
00060000
000FFFC0
FFFFFFE0
7FFFE000
001C0000
001D8000
0039E000
0070F800
00E03C00
01C01E00
07800F00
1E000380
780001C0
E00000C0
ENDCHAR
STARTCHAR U+59CB
ENCODING 22987
SWIDTH 500 0
DWIDTH 32 0
BBX 29 28 2 -3
BITMAP
06001800
07001C00
07001800
07003800
06003000
06007000
0E406380
0E70E180
0C7CC1C0
3FF1C0E0
FFE39FF0
FC7FFFF0
186FF838
18E00038
18E00010
18C00000
19C7FFE0
0FC3FFE0
078380E0
078380E0
07C380E0
07E380E0
0E7180C0
1C7180C0
3831FFE0
3001FFE0
60018000
80018000
ENDCHAR
STARTCHAR U+5B50
ENCODING 23376
SWIDTH 500 0
DWIDTH 32 0
BBX 30 27 1 -3
BITMAP
0000FE00
03FFFF00
03FFFE00
00001C00
00003800
00007000
0000E000
0007C000
00078000
00070000
00030018
000FFFFC
FFFFFFFC
FFFFC000
00038000
00018000
00018000
00018000
00018000
00018000
00018000
00818000
00E18000
00798000
003F8000
000F8000
00030000
ENDCHAR
STARTCHAR U+5B57
ENCODING 23383
SWIDTH 500 0
DWIDTH 32 0
BBX 28 29 2 -3
BITMAP
000E0000
00060000
00060000
0C0607E0
1FFFFFF0
1FFFFFE0
1C0000E0
380000C0
30000180
7007F980
73FFFD00
61FF7800
0000F000
000DE000
000F8000
00070000
000601E0
FFFFFFF0
7FFFFE00
00030000
00030000
00030000
00030000
00030000
01C30000
00F30000
003F0000
001F0000
00060000
ENDCHAR
STARTCHAR U+5B8B
ENCODING 23435
SWIDTH 500 0
DWIDTH 32 0
BBX 29 30 2 -4
BITMAP
000C0000
000E0000
00060000
08060000
1C063FC0
1FFFFFE0
1FFFFDC0
380001C0
30060180
30060300
70060200
20060000
000FFFC0
3FFFFFC0
1FFF8000
001F8000
003FC000
0076E000
00E67800
01C63C00
03861E00
07060780
1C0603E0
380601F8
E0060078
80060000
00060000
00060000
00060000
00020000
ENDCHAR
STARTCHAR U+5B9C
ENCODING 23452
SWIDTH 500 0
DWIDTH 32 0
BBX 29 28 1 -2
BITMAP
00070000
00070000
00070000
00070000
06070FF0
0FFFFFF0
0FFFFFF0
1C000060
180000C0
380000C0
38FFF980
30FFF800
00C01800
00C01800
00C01800
00FFF800
00FFF800
00C01800
00C01800
00C01800
00FFF800
00FFF800
00C01800
00C01800
00C01800
00C01830
FFFFFFF8
7FFFFFF8
ENDCHAR
STARTCHAR U+5BC5
ENCODING 23493
SWIDTH 500 0
DWIDTH 32 0
BBX 27 29 3 -3
BITMAP
000C0000
000E0000
000E0000
180E0FC0
1FFFFFE0
3FFFFFC0
380001C0
70001180
7FFFFB00
E7FFFA00
400C0000
000C0C00
0FFFFE00
0FFFFE00
0C0C0E00
0C0C0E00
0FFFFC00
0FFFFC00
0E0C0C00
0E0C0C00
060C0C00
07FFFC00
07FFFC00
0660C000
0071F000
01F07C00
07C01F00
3E000780
70000180
ENDCHAR
STARTCHAR U+5BD2
ENCODING 23506
SWIDTH 500 0
DWIDTH 32 0
BBX 29 29 2 -3
BITMAP
000E0000
00060000
04060000
0C061FE0
0FFFFFE0
1FFFF0E0
1C60C0C0
1870C180
3870FD00
37FFFE00
33FFC000
0070C000
03FFFC00
01FFF000
0030C000
0031C7C0
7FFFFFE0
3FFFF000
00E07800
01C03C00
039E0F00
070F87C0
0E03E1F0
3C00C0F8
70780030
C07E0000
000FC000
0003E000
0000E000
ENDCHAR
STARTCHAR U+5BF9
ENCODING 23545
SWIDTH 500 0
DWIDTH 32 0
BBX 30 28 1 -3
BITMAP
00000700
00000300
00000300
7FF80300
3FF80300
00380300
00300300
003003B8
1877FFFC
1C77FFF8
0E600300
07600300
03E18300
03C1C300
01C1C300
01E0E300
03F07300
03707300
07382300
061C0300
0C1C0380
1C0C0380
38000380
30004380
60007B80
C0001F80
00000F00
00000700
ENDCHAR
STARTCHAR U+5C0F
ENCODING 23567
SWIDTH 500 0
DWIDTH 32 0
BBX 29 28 2 -3
BITMAP
00070000
00070000
00070000
00070000
00070000
00070000
00070000
03070C00
03870E00
03870E00
07070700
07070380
06070380
0E0701C0
0C0701E0
1C0700E0
38070070
30070070
70070038
60070038
C0070000
00070000
00070000
01C70000
00F70000
007F0000
001F0000
00060000
ENDCHAR
STARTCHAR U+5E74
ENCODING 24180
SWIDTH 500 0
DWIDTH 32 0
BBX 29 29 2 -3
BITMAP
00C00000
00E00000
01C00000
01C00300
01FFFF80
03FFFF80
07830000
06030000
0C030000
1C030000
1BBFFF00
21FFFF00
01FF0000
01830000
01830000
01830000
01830000
0187FFF0
FFFFFFF8
FFFFE000
00030000
00030000
00030000
00030000
00030000
00030000
00030000
00030000
00030000
ENDCHAR
STARTCHAR U+5E8A
ENCODING 24202
SWIDTH 500 0
DWIDTH 32 0
BBX 30 29 1 -3
BITMAP
00030000
00018000
00018000
00018000
080187E0
0FFFFFF0
0FFFFF00
0E018000
0C01C000
0C01C000
0C01C000
0C01C3C0
0DFFFFC0
0CFFFE00
0C03E000
0C07F000
1C0FF800
1C0DDC00
181DCE00
1839C700
1871C380
18E1C1E0
31C1C0F0
3381C07C
3601C01C
6401C000
6001C000
C001C000
80008000
ENDCHAR
STARTCHAR U+5EFF
ENCODING 24319
SWIDTH 500 0
DWIDTH 32 0
BBX 30 28 1 -3
BITMAP
00001800
01C01C00
00E01C00
00E01C00
00E01C00
00E01C00
00E01C00
00E01C00
00E01C00
00E01C38
00FFFFFC
FFFFFFFC
7FFE1C00
00E01C00
00E01C00
00E01C00
00E01C00
00E01C00
00E01C00
00E01C00
00E01C00
00E01C00
00E01C00
00E01C00
00FFFC00
00FFFC00
00E00000
00600000
ENDCHAR
STARTCHAR U+5F0F
ENCODING 24335
SWIDTH 500 0
DWIDTH 32 0
BBX 27 30 3 -3
BITMAP
000C0000
000E0000
000EC000
0006F000
00067800
00061C00
00060C00
00070000
00077F80
FFFFFFC0
FFFFF000
00038000
00038000
00018000
0001C000
3FFDC000
1FFCC000
0180E000
0180E000
01806000
01807020
01873020
01FC3820
07F01C20
7FC01C60
7E000E60
30000760
000007E0
000003C0
000000C0
ENDCHAR
STARTCHAR U+5F53
ENCODING 24403
SWIDTH 500 0
DWIDTH 32 0
BBX 22 28 5 -2
BITMAP
007000
003000
003000
003018
60301C
703038
783070
3C3070
1E30E0
0E3180
063300
003000
0038F8
FFFFFC
7FFFFC
00001C
00001C
000018
000018
3FFFF8
3FFFF8
000018
000018
000038
000038
000038
FFFFF8
7FFFF8
ENDCHAR
STARTCHAR U+5FCC
ENCODING 24524
SWIDTH 500 0
DWIDTH 32 0
BBX 28 27 2 -3
BITMAP
0FFFF800
0FFFF800
06003800
00003800
00003000
00007000
07FFF800
07FFF000
07000180
07000180
07000180
07000300
07801F00
03FFFF00
01FFFC00
00080000
001C0700
198E0380
198701C0
398390E0
31C19870
30C00830
70E00C10
60780E00
E03FCE00
400FFF00
0001FE00
ENDCHAR
STARTCHAR U+601D
ENCODING 24605
SWIDTH 500 0
DWIDTH 32 0
BBX 28 27 2 -3
BITMAP
1FFFFF00
0FFFFF00
0FC60300
0E060700
0E060700
0E073F00
0FFFFF00
0FFFF700
0E060600
0E060600
0E060600
0E060E00
07FFFF00
0FFFFF00
07000000
001C0000
000E0300
19870380
398381C0
398190E0
31C098F0
70C01870
70E00C30
E0700E00
E03F0E00
C01FFF00
0003FE00
ENDCHAR
STARTCHAR U+653E
ENCODING 25918
SWIDTH 500 0
DWIDTH 32 0
BBX 30 29 1 -3
BITMAP
00003000
03003800
03803800
01803800
01807000
01807000
01846000
DFFEE010
FFFEFFF8
0700FFF8
0601C1C0
0601C180
0623E380
07F36380
0F367300
0C3C3700
0C303E00
1C301E00
18701C00
18701E00
38703F00
30603700
30607380
6C60E1C0
4EE1C0E0
C7E38078
83C7003C
01CE001C
0008000C
ENDCHAR
STARTCHAR U+6545
ENCODING 25925
SWIDTH 500 0
DWIDTH 32 0
BBX 31 29 1 -3
BITMAP
00001000
01001C00
01801C00
01801800
01803800
01803800
01803000
01807070
01847FF8
FFFF7FE0
7FFEE0C0
0180E1C0
0181F1C0
0181B180
01833380
01821B80
1FFC1F00
1FFC0F00
1C1C0E00
181C0E00
1C181F00
1C181B80
0C1839C0
0FF870E0
0FFCE0F0
0C01C078
0C03803C
0006001E
000C000C
ENDCHAR
STARTCHAR U+6570
ENCODING 25968
SWIDTH 500 0
DWIDTH 32 0
BBX 29 28 2 -3
BITMAP
01803000
01883800
318C3800
399C3000
1DB83000
0DB07000
05EE7000
7FFF7FF0
7FE07FF0
07E0E180
0FF8E380
1D9CE380
318DE300
6181B300
83033700
031A3E00
073F1E00
FFF81E00
FE301C00
0C701E00
1C603F00
0FE03380
03C06380
03F0E1C0
0779C0E0
1E3D8070
780F0038
E0040010
ENDCHAR
STARTCHAR U+6587
ENCODING 25991
SWIDTH 500 0
DWIDTH 32 0
BBX 29 28 2 -3
BITMAP
000E0000
00060000
00060000
00060000
00060000
000FFFF0
7FFFFFF0
7FFFFC00
01803800
01C03800
00C07000
00E07000
0070E000
0070E000
0039C000
001F8000
001F8000
000F0000
000F8000
001FC000
0039E000
0070F000
01E03C00
03801E00
0F000F80
1C0003E0
700000F8
C0000030
ENDCHAR
STARTCHAR U+65E5
ENCODING 26085
SWIDTH 500 0
DWIDTH 32 0
BBX 19 26 6 -3
BITMAP
FFFFE0
7FFFE0
7000E0
6000E0
6000E0
6000C0
6000C0
6000C0
6000C0
6000C0
7FFFC0
7FFFC0
7000C0
6000C0
6000C0
6000C0
6000C0
7000C0
7000C0
7001C0
7001C0
7FFFC0
7FFFE0
700000
700000
300000
ENDCHAR
STARTCHAR U+660E
ENCODING 26126
SWIDTH 500 0
DWIDTH 32 0
BBX 25 28 3 -4
BITMAP
000C0600
0007FF00
FFC7FF00
FFC60300
E0C60300
E0C60300
E0C60300
E0C7FF00
E0C7FF00
FFC70300
FFC60300
60C60300
60C60300
60CE0300
60CFFF00
60CFFF00
60CE0300
7FCC0300
7FDC0300
601C0300
60180380
60380380
00700380
00607380
00C03F80
01801F80
01000F00
00000300
ENDCHAR
STARTCHAR U+662F
ENCODING 26159
SWIDTH 500 0
DWIDTH 32 0
BBX 30 27 1 -3
BITMAP
01FFFE00
01FFFE00
01C00600
01FFFE00
01FFFE00
01C00E00
00C00E00
00FFFE00
00FFFE00
00C00000
00400060
00FFFFF0
1FFFFFF0
1FF38000
00830000
00C30000
00C3FF00
01C3FF00
01838000
03C30000
07F30000
077F0000
0E1FC000
1C07FC00
3800FFFC
60000FFC
C00000FC
ENDCHAR
STARTCHAR U+6708
ENCODING 26376
SWIDTH 500 0
DWIDTH 32 0
BBX 23 28 2 -4
BITMAP
010000
01FFFC
01FFFC
01C00C
01C00C
01C00C
01800C
01FFFC
01FFFC
01C00C
01800C
01800C
01800C
01800C
03FFFC
03FFFC
03800C
03000C
07000C
07000E
0E000E
0C000E
1C010E
3801CE
3000FE
60007E
80003C
000008
ENDCHAR
STARTCHAR U+671B
ENCODING 26395
SWIDTH 500 0
DWIDTH 32 0
BBX 28 27 2 -2
BITMAP
02000000
0381FF80
0381FFC0
0380C180
03FDDF80
FFFDFF80
7FC1C180
1C018380
1C01FF80
1C1B8380
0FFF0300
0FFF3B00
00061F00
000C0F00
00080200
08FFFF00
0FFFFF00
070E0000
00060000
00061C00
07FFFE00
03FFF800
00060000
00060000
00060020
7FFFFFF0
7FFFFFF0
ENDCHAR
STARTCHAR U+671F
ENCODING 26399
SWIDTH 500 0
DWIDTH 32 0
BBX 27 28 1 -3
BITMAP
00180000
0C180000
0E187FE0
0E187FE0
0E3E3060
7FFF3060
3FF83060
0E183060
0E183FE0
0FF83FE0
0FF83060
0E183060
0E183060
0FF87060
0FF87FE0
0E187FE0
0E187060
0E1A6060
FFFF6060
7FFFE060
0000E060
0630C060
0738C060
0E1D8060
1C0F8E60
180F07E0
300203E0
400000E0
ENDCHAR
STARTCHAR U+672A
ENCODING 26410
SWIDTH 500 0
DWIDTH 32 0
BBX 30 30 1 -3
BITMAP
00060000
00070000
00070000
00070000
00070000
00070000
00073E00
03FFFF00
03FFFC00
00070000
00070000
00070000
00070040
0007FFE0
3FFFFFF0
1FFFC000
001FC000
001FE000
003F7000
00773800
00E71E00
03C70F00
078703C0
0E0701F0
3C07007C
7007003C
C0070008
00070000
00070000
00030000
ENDCHAR
STARTCHAR U+672B
ENCODING 26411
SWIDTH 500 0
DWIDTH 32 0
BBX 30 30 1 -3
BITMAP
00060000
00070000
00070000
00070000
00070000
00070000
00073FC0
1FFFFFE0
1FFFFC00
00070000
00070000
00070000
00070200
07FFFF00
03FFFF00
000FC000
001FE000
003F7000
00773800
00E71C00
01C70E00
03870780
070703C0
1E0701F0
3807007C
6007001C
80070000
00070000
00070000
00030000
ENDCHAR
STARTCHAR U+6837
ENCODING 26679
SWIDTH 500 0
DWIDTH 32 0
BBX 30 29 1 -3
BITMAP
00000180
038181C0
0181C1C0
0180E380
0180E300
01807700
01803600
0184FFF0
01B7FFF0
7FFB1C00
7FF00C00
03800C00
03803FE0
07E3FFE0
07E1FC00
0FF01C00
0DB81C00
1D981C00
1989FFFC
318FFFFC
2187DC00
61801C00
C1801C00
01801C00
01801C00
03801C00
03801C00
03801C00
01000C00
ENDCHAR
STARTCHAR U+683C
ENCODING 26684
SWIDTH 500 0
DWIDTH 32 0
BBX 30 29 1 -3
BITMAP
02006000
03007000
03007000
0300E000
0300FF80
0301FFC0
0301E1C0
03E38380
7FF3C300
7FE6E700
070C7E00
07187C00
07C03C00
0FE07E00
0FE0EF00
1F71C380
1F3381E0
1B0700F8
330F1FFC
333BFFCC
6373F9C0
C30301C0
830381C0
030381C0
03038180
03038180
0301FFC0
0701FFC0
03018000
ENDCHAR
STARTCHAR U+6977
ENCODING 26999
SWIDTH 500 0
DWIDTH 32 0
BBX 30 29 1 -3
BITMAP
00000C00
07060C00
03060C00
03060C60
03060C70
03064DE0
0307EF88
0307CE0C
1FF60C0C
7FF60C0C
3F063C0C
0707EE78
071F9FF8
0FBE3BE0
0FD83800
1FE07000
1F76FFC0
1B37FFE0
3307E0E0
330600C0
630600C0
C307FFC0
8307FFC0
030700C0
030300C0
0303FFC0
0703FFC0
07030000
03030000
ENDCHAR
STARTCHAR U+6B63
ENCODING 27491
SWIDTH 500 0
DWIDTH 32 0
BBX 29 24 2 -1
BITMAP
00000700
1FFFFFC0
1FFFFF80
0FE70000
00070000
00070000
00070000
02070000
03070000
03070000
03070200
0307FF00
0307FF00
03070000
03870000
03870000
03870000
03870000
03870000
03870000
03870000
038707F0
FFFFFFF8
FFFFFFF8
ENDCHAR
STARTCHAR U+6BD4
ENCODING 27604
SWIDTH 500 0
DWIDTH 32 0
BBX 28 28 3 -3
BITMAP
00030000
18038000
1C018000
0C018000
0C018000
0C018000
0C018100
0C018180
0C018380
0C018780
0C018F00
0FF9BC00
0FF9F800
0C01E000
0C018000
0C018000
0C038000
0C038000
0C038010
0C0B8030
0C3B8030
0C738030
0DE38030
0F818070
3F01C1F0
FC01FFE0
F800FFC0
60000000
ENDCHAR
STARTCHAR U+6CC9
ENCODING 27849
SWIDTH 500 0
DWIDTH 32 0
BBX 29 29 2 -3
BITMAP
00060000
000E0000
000E0000
001C0400
07FFFE00
07FFFE00
07000E00
07000E00
07FFFE00
03FFFC00
03000C00
03000C00
03FFFE00
03FFFC00
03060000
00060300
00060700
3FF70F00
1FF7BC00
00E7F800
01C7E000
01C67800
03863C00
0F060F80
1C0607F0
78E601F8
E07E0030
001E0000
000E0000
ENDCHAR
STARTCHAR U+6E05
ENCODING 28165
SWIDTH 500 0
DWIDTH 32 0
BBX 29 29 2 -3
BITMAP
0000C000
0000E000
3800E000
1C7FFFC0
0E7FFFC0
0700E000
0300EF00
001FFF80
000FE000
C000E000
F01FFFF8
79FFFFF0
1CF80000
0C300F00
003FFF80
013FFB80
03380380
023FFF80
063FFF80
0C380380
0C380780
1C3FFF80
383FFF80
38380380
70380380
E0383380
E0381F80
00380F80
00100300
ENDCHAR
STARTCHAR U+6EE1
ENCODING 28385
SWIDTH 500 0
DWIDTH 32 0
BBX 29 29 1 -3
BITMAP
00000E00
20060E00
38070E00
3C070E00
1E07FFE0
077FFFE0
073F0C00
00030C00
00030C10
E1FFFFF8
F1FFFFF0
3C038C00
1C038C00
0C038C00
006FFFF0
027FFFF0
02730C70
06630C70
06639C70
0C63DE70
0C67FF70
1C667B70
186631F0
386C61F0
30786030
7070C630
606003F0
006001F0
00200060
ENDCHAR
STARTCHAR U+70B9
ENCODING 28857
SWIDTH 500 0
DWIDTH 32 0
BBX 28 29 2 -3
BITMAP
00080000
000E0000
000E0000
000E0000
000E0000
000FFF00
000FFF00
000E0000
000E0000
000E0000
000E0000
07FFFC00
07FFFC00
07000C00
03000C00
03001C00
03001C00
03001C00
03FFFC00
03FFFC00
03800000
01000000
0CC38700
1CE1C380
3871C1C0
3830E0E0
70387070
E0183070
C0183030
ENDCHAR
STARTCHAR U+73ED
ENCODING 29677
SWIDTH 500 0
DWIDTH 32 0
BBX 30 29 1 -3
BITMAP
00010000
00018000
00018000
0001C7F0
FFE1FFF8
7FE1BFC0
0E018300
06018300
060D8300
060D8300
060D8300
061D8300
7FD98300
7FF9BFF0
0E19BFF0
06198F00
06198300
06038300
06030300
06630300
0FC70300
0F860300
7E0E0300
F80C0300
6018FFF8
0030FFFC
00600000
00C00000
01800000
ENDCHAR
STARTCHAR U+7532
ENCODING 30002
SWIDTH 500 0
DWIDTH 32 0
BBX 22 27 5 -3
BITMAP
CFFFFC
FFFFFC
FF701C
E07018
E07018
607018
6077F8
7FFFF8
7FFF38
607038
607038
607030
607030
7FFFF8
7FFFF8
707000
207000
007000
007000
007000
007000
007000
007000
007000
007000
007000
003000
ENDCHAR
STARTCHAR U+7591
ENCODING 30097
SWIDTH 500 0
DWIDTH 32 0
BBX 29 29 2 -3
BITMAP
18000000
18000000
1823FFC0
1873FFC0
19F00380
1FC80700
1E08CE00
1818FC00
18183C00
1FF81E00
1FF00E00
1807FFF0
1C03FFE0
1FF018E0
3FF818C0
33019980
23019900
43019FC0
FFFD9FC0
FFF99800
07039800
07839800
0FE3F800
0CF6F800
187E3C00
383C1F80
701C07F8
E01801F8
80300038
ENDCHAR
STARTCHAR U+76EE
ENCODING 30446
SWIDTH 500 0
DWIDTH 32 0
BBX 20 26 6 -3
BITMAP
FFFFE0
7FFFF0
600060
600060
600060
600060
6000E0
7FFFE0
7FFFE0
700060
600060
600060
600060
7FFFE0
7FFFE0
700060
700060
700060
700060
700060
7000E0
7FFFE0
7FFFE0
700000
700000
300000
ENDCHAR
STARTCHAR U+7940
ENCODING 31040
SWIDTH 500 0
DWIDTH 32 0
BBX 29 28 1 -3
BITMAP
0C000000
0F000000
07820000
03C3FFC0
01C3FFC0
008300C0
03F301C0
7FF301C0
3FF301C0
00E301C0
00C30180
01C3FFC0
0383FFC0
03838000
07C30000
0FF30000
1B7B0000
333B0008
E31B0008
83030008
03030008
03030018
03030018
03038038
0303FFF8
0301FFF0
03000000
01000000
ENDCHAR
STARTCHAR U+7948
ENCODING 31048
SWIDTH 500 0
DWIDTH 32 0
BBX 29 29 1 -3
BITMAP
000000C0
0E0001C0
070007C0
03801F00
01C37C00
00C3F000
00038000
7FF30000
7FF30000
38630000
00E3FFF8
00C3FFF8
01C3C700
03830300
07830300
0FC30300
0FE70300
1B7F0300
733F0300
E31E0300
83060300
030E0300
030C0300
030C0300
03180300
03180300
03300700
03200700
01000300
ENDCHAR
STARTCHAR U+796D
ENCODING 31085
SWIDTH 500 0
DWIDTH 32 0
BBX 29 29 2 -3
BITMAP
01800000
01C00000
01C00000
03FDFF80
03FDFF80
079F8380
0F19C700
1BB0CE00
39F0FC00
7CE07800
4EC03C00
07C01E00
03FFFF00
077FF3C0
0E0001E0
1C0000F8
38000338
6FFFFF90
CFFFFF80
00060000
00862000
01C63800
01C63C00
03860F00
07060780
1C8603C0
387601C0
203E0000
000E0000
ENDCHAR
STARTCHAR U+798F
ENCODING 31119
SWIDTH 500 0
DWIDTH 32 0
BBX 29 28 1 -3
BITMAP
0C000000
0F000020
079FFFF0
038FFFF0
01C00000
00800000
07E3FFC0
7FF3FFC0
7FE381C0
00C38180
01C1FFC0
0181FFC0
03818000
07800000
07CFFFF0
0FEFFFF8
1F7E1830
33361830
63061870
C307FFF0
8307FFF0
03061870
03061870
03061860
0307FFF0
0307FFF0
03060000
03060000
ENDCHAR
STARTCHAR U+7A84
ENCODING 31364
SWIDTH 500 0
DWIDTH 32 0
BBX 27 29 3 -3
BITMAP
001C0000
000C0000
300C0000
300FFFE0
7FFFFFE0
7FF301C0
60C3C380
E0E1F600
E1C07C00
C7B03E00
8E380E00
38700000
20E01F80
01FFFFC0
03FFF800
07380000
1E380000
383FFC00
603FFC00
80380000
00380000
00380000
003FFE00
003FFE00
00380000
00380000
00380000
00380000
00180000
ENDCHAR
STARTCHAR U+7ACB
ENCODING 31435
SWIDTH 500 0
DWIDTH 32 0
BBX 28 26 2 -1
BITMAP
000E0000
000E0000
000E0000
000E0000
000E0000
000E0000
000E7F80
3FFFFFC0
3FFFFC00
00000000
00003000
03003800
03803800
03803800
01C07000
01C07000
00E07000
00E06000
0060E000
0070C000
0071C000
00318000
00318000
0003BFE0
FFFFFFF0
FFFFFFE0
ENDCHAR
STARTCHAR U+7B2C
ENCODING 31532
SWIDTH 500 0
DWIDTH 32 0
BBX 28 29 2 -3
BITMAP
03007000
03807000
030071E0
07FEFFF0
0FFFFE00
0DC19C00
18E30E00
30760600
60347E00
47FFFF00
07FFC600
00060600
00060E00
07FFFE00
07FFF000
06060000
0E060000
0C07FFC0
0FFFFFC0
0FFF81C0
003E01C0
007E0180
00E64180
01C67B80
03863F80
0F060F00
1C060200
70060000
C0060000
ENDCHAR
STARTCHAR U+7C97
ENCODING 31895
SWIDTH 500 0
DWIDTH 32 0
BBX 31 28 1 -3
BITMAP
03800000
01800000
0181FFC0
018CFFC0
318CC0C0
319CC0C0
1998C0C0
1DB0C0C0
0DB0C0C0
0DE0FFC0
01FCFFC0
7FFEE0C0
3FE0C0C0
0380C0C0
07C0C0C0
07F0C0C0
0FF8FFC0
0DBCFFC0
199CC0C0
3980C0C0
3180C0C0
6180C0C0
C180C0C0
8180C0EC
019FFFFE
019FFFFE
03800000
01800000
ENDCHAR
STARTCHAR U+7D20
ENCODING 32032
SWIDTH 500 0
DWIDTH 32 0
BBX 28 31 2 -4
BITMAP
000C0000
00060000
00060000
00060400
0FFFFF00
0FFFC000
00060000
0006FC00
03FFFC00
03FFC000
00060020
000FFFF0
FFFFFFF0
7FFE0000
001C3000
03F87000
03F1E000
00FBD000
003F3800
001E1E00
00781F00
1FFFFF80
0FFF0380
00463000
00E67800
01E63E00
03C60F80
0F4607C0
1C7E01C0
301E00C0
000E0000
ENDCHAR
STARTCHAR U+7EA2
ENCODING 32418
SWIDTH 500 0
DWIDTH 32 0
BBX 29 27 2 -1
BITMAP
02000000
03000000
03000000
03000000
07000000
0E200080
0C37FFE0
1C77FFE0
78603800
F8E03800
7CC03800
1FC03800
0F803800
03003800
07003800
06003800
0E003800
7FF03800
3F803800
3C003800
00003800
00183800
00E03800
07C03830
1F1FFFF8
FC1FFFF8
70000000
ENDCHAR
STARTCHAR U+7F29
ENCODING 32553
SWIDTH 500 0
DWIDTH 32 0
BBX 29 29 1 -3
BITMAP
00001000
03001800
03001800
07041800
06061870
060FFFF8
0C4FFFF8
1CEC0030
18EDC020
78DDC060
79998070
1F83FFF8
0F033FE0
07070700
06060600
0E0E6FE0
0FCE3FF0
7F9E3C70
3C363070
00263070
00063FE0
00E63FE0
03C63060
1F063060
FE063060
78063FE0
20063FF0
00063000
00021000
ENDCHAR
STARTCHAR U+8003
ENCODING 32771
SWIDTH 500 0
DWIDTH 32 0
BBX 30 29 1 -3
BITMAP
00060000
00070000
00070000
00070100
00070380
01FFFF80
01FFFF00
00070E00
00071C00
00073800
03FFFFFC
7FFFFFFC
3FC3C000
001F0000
001E0600
003FFF00
00FFFE00
03F80000
07300000
1C30FF00
707FFF00
C03FFF00
00000300
00000700
00020600
00038600
0001FE00
00007C00
00001C00
ENDCHAR
STARTCHAR U+884C
ENCODING 34892
SWIDTH 500 0
DWIDTH 32 0
BBX 31 29 1 -3
BITMAP
00400000
00E00000
00E00040
01C3FFE0
01C3FFE0
03800000
07000000
06000000
0CE00000
18E00000
30F7FFFE
01DFFFFC
038F8E00
03800600
07000600
0F000600
0F000600
1B000600
33000600
63000600
C3000600
03000E00
03000E00
03000E00
03000E00
0301CE00
0300FE00
03003E00
03001E00
ENDCHAR
STARTCHAR U+8C37
ENCODING 35895
SWIDTH 500 0
DWIDTH 32 0
BBX 30 28 1 -3
BITMAP
00206000
00707800
00703C00
00E01E00
01C30F00
01838780
030703C0
060F01E0
0C0F80C0
181DC000
0038E000
00787800
00F03C00
01E01E00
03C00780
078003C0
0FFFFFF0
1DFFFE78
71C00E3C
C1C00E08
01C00C00
01C00C00
01C00C00
01C01C00
00FFFE00
00FFFE00
01C00000
00C00000
ENDCHAR
STARTCHAR U+9635
ENCODING 38453
SWIDTH 500 0
DWIDTH 32 0
BBX 27 28 4 -3
BITMAP
00018000
FF818000
FF818000
E7038000
C7038F80
C6FFFF80
CE7FFE00
CC060000
CC0E0000
CE0CE000
C61CE000
C318E000
C338E000
F33BFF00
DF7FFF00
CF3EE000
C600E000
C000E000
C000E000
C3FFFFE0
C1FFFFE0
C000E000
C000E000
C000E000
C000E000
C000E000
C000E000
C000E000
ENDCHAR
STARTCHAR U+96E8
ENCODING 38632
SWIDTH 500 0
DWIDTH 32 0
BBX 24 27 4 -3
BITMAP
00001E
4FFFFF
7FFFFE
7F3800
001800
001800
0019FF
FFFFFF
FFFFE3
E01803
E01803
EE1BC3
EF19E3
E3D873
E1D833
E01903
EC1B83
EF19E3
E79873
E1D833
E09803
E01803
E01883
E03873
E0183F
E0001F
600006
ENDCHAR
STARTCHAR U+971C
ENCODING 38684
SWIDTH 500 0
DWIDTH 32 0
BBX 28 29 2 -3
BITMAP
00000C00
07FFFE00
07FFFC00
11860000
1806FFE0
1FFFFFF0
3FFF80E0
3607F0C0
37E6FD80
71E60700
670FF800
47ECFC00
00EC0000
01860000
0183FF80
0183FF80
7FFF0380
3FE3FF80
03C3FF80
07E38380
0FF38380
0D9BFF80
199FFF80
318F8300
61838300
C183FF80
0183FF80
01838000
00810000
ENDCHAR
STARTCHAR U+971E
ENCODING 38686
SWIDTH 500 0
DWIDTH 32 0
BBX 27 29 3 -3
BITMAP
01FFF800
0FFFF800
07F80000
301FFFC0
3FFFFFC0
7FFF01C0
6019F180
6F99FB00
E1D80200
CF1BF000
CFD9F800
00980000
2005FE00
3FE7FE00
3FE7EE00
38600E00
3FE7FE00
3FE00000
38001E00
300FFF00
3FE7FE00
3FE30C00
30039C00
3FF1F800
3FF0F000
3001FE00
30078FC0
301E03E0
30700060
ENDCHAR
STARTCHAR U+9732
ENCODING 38706
SWIDTH 500 0
DWIDTH 32 0
BBX 28 29 3 -3
BITMAP
00007800
07FFFC00
07FFC000
000C0000
300E7FE0
3FFFFFE0
7FFF80C0
778DF9C0
67ECFB80
E1EC0300
CFCDF000
07CDF800
00CC4000
3FE0E000
3FE1FF00
3863FF00
10678E00
1FEFCC00
1FF87800
1B007C00
33E1CF80
33F783F0
331FFFF0
3323FF00
333B0300
37F30600
FFC3FF00
FE03FF00
E0018000
ENDCHAR
STARTCHAR U+9879
ENCODING 39033
SWIDTH 500 0
DWIDTH 32 0
BBX 30 28 1 -3
BITMAP
00000010
001FFFF8
000FFFF8
00043800
00003000
7FF07000
7FF7FFE0
1F03FFE0
03030060
03031060
03033860
03031860
03031860
03031860
030B1860
03731860
03E31860
07C33860
1F0338E0
FE0330E0
F8033060
60007600
0000E780
0000C3C0
000380F0
00070078
000E003C
00180018
ENDCHAR
STARTCHAR U+9A6C
ENCODING 39532
SWIDTH 500 0
DWIDTH 32 0
BBX 26 28 3 -3
BITMAP
00003000
0FFFF800
0FFFF800
00003800
00003800
01803000
01807000
01807000
01807000
03806000
0380E000
0300E000
0700E780
07FFFFC0
07FFFFC0
020001C0
000001C0
00000180
00004180
FFFFE180
FFFFE180
00000380
00000380
00000300
0000C700
00007F00
00003E00
00000C00
ENDCHAR
STARTCHAR U+9A7F
ENCODING 39551
SWIDTH 500 0
DWIDTH 32 0
BBX 30 27 1 -3
BITMAP
00200000
3FF7FFE0
1FF3FFE0
007001C0
00718180
0C70C380
0C607700
1C603E00
1C601C00
18E03F00
18E0F3C0
18C1C9F8
38E70C3C
3FF80C00
3FF80CC0
0019FFE0
00D9FFE0
03980C00
1F380C00
FC3FFFF8
F83FFFF8
60300C00
00300C00
03300C00
01F00C00
00F00C00
00600C00
ENDCHAR
STARTCHAR U+9E5C
ENCODING 40540
SWIDTH 500 0
DWIDTH 32 0
BBX 28 29 2 -3
BITMAP
00006000
1FFC7000
1FFC7000
02387FE0
03E0FFE0
03E0C300
7FFFE700
7FEF7E00
07CF3C00
0ED81E00
1CC47780
33CEE3E0
E1DF80F0
823FF830
03FFF800
03B01800
03389800
031EF800
03063000
03000000
03FFFFC0
03FFFFC0
030000C0
000061C0
7FFFF180
7FFFE180
00003180
00001F80
00000700
ENDCHAR
STARTCHAR U+9ED1
ENCODING 40657
SWIDTH 500 0
DWIDTH 32 0
BBX 29 28 2 -3
BITMAP
00000200
1DFFFF00
0FFFFF00
0F861300
0DC63B00
0EE63300
0E666700
0E76C700
0637C700
07FFFF00
07FFE000
06060000
00060000
07FFFE00
03FFFE00
00060000
00060000
000607F0
7FFFFFF0
7FFFFF00
08000200
0CC38700
1CE1C3C0
3870E1E0
3070F0F0
70387070
E0183838
40181010
ENDCHAR
STARTCHAR U+FF08
ENCODING 65288
SWIDTH 500 0
DWIDTH 32 0
BBX 8 29 22 -3
BITMAP
03
06
0E
0C
18
38
30
30
70
70
60
E0
E0
E0
E0
E0
E0
E0
60
70
70
30
38
38
18
0C
0E
06
03
ENDCHAR
STARTCHAR U+FF09
ENCODING 65289
SWIDTH 500 0
DWIDTH 32 0
BBX 8 29 2 -3
BITMAP
C0
60
70
30
18
1C
1C
0C
0E
0E
06
07
07
07
07
07
07
07
06
0E
0E
0C
1C
1C
18
30
70
60
C0
ENDCHAR
STARTCHAR U+FF0C
ENCODING 65292
SWIDTH 500 0
DWIDTH 32 0
BBX 4 6 4 -3
BITMAP
F0
F0
F0
70
60
C0
ENDCHAR
STARTCHAR U+FF1A
ENCODING 65306
SWIDTH 500 0
DWIDTH 32 0
BBX 4 15 6 0
BITMAP
60
F0
F0
60
00
00
00
00
00
00
00
60
F0
F0
60
ENDCHAR
ENDFONT
