STARTFONT 2.1
FONT LXGWWenKai-Medium-24
SIZE 24 75 75
FONTBOUNDINGBOX 48 30 0 -7
STARTPROPERTIES 3
PIXEL_SIZE 24
FONT_ASCENT 23
FONT_DESCENT 7
ENDPROPERTIES
CHARS 219
STARTCHAR U+0020
ENCODING 32
SWIDTH 500 0
DWIDTH 8 0
BBX 0 0 0 0
BITMAP
ENDCHAR
STARTCHAR U+0021
ENCODING 33
SWIDTH 500 0
DWIDTH 9 0
BBX 3 18 3 0
BITMAP
C0
C0
C0
C0
C0
C0
C0
C0
C0
C0
C0
C0
C0
C0
00
C0
E0
60
ENDCHAR
STARTCHAR U+0022
ENCODING 34
SWIDTH 500 0
DWIDTH 9 0
BBX 5 6 2 12
BITMAP
D8
D8
D8
D8
D8
D8
ENDCHAR
STARTCHAR U+0023
ENCODING 35
SWIDTH 500 0
DWIDTH 15 0
BBX 13 18 1 0
BITMAP
0C60
0C60
0C60
0860
1860
FFF8
FFF8
18C0
18C0
18C0
30C0
FFF8
FFF8
30C0
3180
3180
3180
6180
ENDCHAR
STARTCHAR U+0024
ENCODING 36
SWIDTH 500 0
DWIDTH 14 0
BBX 13 21 0 -2
BITMAP
0300
0FC0
1FE0
3370
6310
6300
6300
7300
3F00
07C0
03F0
0330
0318
0318
0318
C318
7330
3FE0
1F80
0300
0300
ENDCHAR
STARTCHAR U+0025
ENCODING 37
SWIDTH 500 0
DWIDTH 19 0
BBX 17 18 1 0
BITMAP
1C0400
7E0C00
E70C00
C31800
C33800
C33000
E66000
7EE000
18C000
018E00
03BF00
037180
066180
066180
0C6180
187180
183F00
301E00
ENDCHAR
STARTCHAR U+0026
ENCODING 38
SWIDTH 500 0
DWIDTH 17 0
BBX 16 18 1 0
BITMAP
0F00
1F80
38C0
30C0
30C0
3180
1B00
1E00
1E04
360C
630C
C188
C0D8
C070
C070
E0F8
7FCC
3F07
ENDCHAR
STARTCHAR U+0027
ENCODING 39
SWIDTH 500 0
DWIDTH 8 0
BBX 2 6 3 12
BITMAP
C0
C0
C0
C0
C0
C0
ENDCHAR
STARTCHAR U+0028
ENCODING 40
SWIDTH 500 0
DWIDTH 8 0
BBX 5 23 2 -4
BITMAP
08
18
30
30
60
60
60
40
C0
C0
C0
C0
C0
C0
C0
C0
60
60
60
30
10
18
08
ENDCHAR
STARTCHAR U+0029
ENCODING 41
SWIDTH 500 0
DWIDTH 8 0
BBX 5 23 1 -4
BITMAP
80
C0
60
60
20
30
30
30
18
18
18
18
18
18
18
18
30
30
20
60
40
C0
80
ENDCHAR
STARTCHAR U+002A
ENCODING 42
SWIDTH 500 0
DWIDTH 12 0
BBX 8 8 2 10
BITMAP
18
18
FF
FE
1C
3C
66
66
ENDCHAR
STARTCHAR U+002B
ENCODING 43
SWIDTH 500 0
DWIDTH 14 0
BBX 12 12 1 0
BITMAP
0600
0600
0600
0600
0600
FFF0
FFF0
0600
0600
0600
0600
0600
ENDCHAR
STARTCHAR U+002C
ENCODING 44
SWIDTH 500 0
DWIDTH 9 0
BBX 3 5 3 -3
BITMAP
E0
E0
60
C0
80
ENDCHAR
STARTCHAR U+002D
ENCODING 45
SWIDTH 500 0
DWIDTH 10 0
BBX 8 2 1 5
BITMAP
FF
FF
ENDCHAR
STARTCHAR U+002E
ENCODING 46
SWIDTH 500 0
DWIDTH 9 0
BBX 3 3 3 0
BITMAP
C0
E0
60
ENDCHAR
STARTCHAR U+002F
ENCODING 47
SWIDTH 500 0
DWIDTH 8 0
BBX 8 19 0 -1
BITMAP
03
03
02
06
06
04
0C
0C
18
18
18
30
30
20
60
60
40
C0
C0
ENDCHAR
STARTCHAR U+0030
ENCODING 48
SWIDTH 500 0
DWIDTH 14 0
BBX 11 18 2 0
BITMAP
0F00
3F80
71C0
60C0
6040
C060
C060
C060
C060
C060
C060
C060
C060
40C0
60C0
7180
3F80
1E00
ENDCHAR
STARTCHAR U+0031
ENCODING 49
SWIDTH 500 0
DWIDTH 14 0
BBX 5 18 4 0
BITMAP
18
38
F8
D8
18
18
18
18
18
18
18
18
18
18
18
18
18
18
ENDCHAR
STARTCHAR U+0032
ENCODING 50
SWIDTH 500 0
DWIDTH 14 0
BBX 12 18 1 0
BITMAP
0F80
3FC0
70E0
6060
6060
0060
00C0
00C0
0180
0300
0600
0C00
1800
3000
7000
6000
FFE0
FFF0
ENDCHAR
STARTCHAR U+0033
ENCODING 51
SWIDTH 500 0
DWIDTH 14 0
BBX 12 18 1 0
BITMAP
0F80
3FC0
70E0
6060
0060
00E0
01C0
0F80
0FC0
00E0
0070
0030
0030
0030
C060
E0E0
7FC0
1F00
ENDCHAR
STARTCHAR U+0034
ENCODING 52
SWIDTH 500 0
DWIDTH 14 0
BBX 13 18 1 0
BITMAP
0180
0180
0380
0300
0680
06C0
0CC0
1CC0
18C0
30C0
30C0
60C0
FFF8
FFF8
00C0
00C0
00C0
00C0
ENDCHAR
STARTCHAR U+0035
ENCODING 53
SWIDTH 500 0
DWIDTH 14 0
BBX 12 17 1 0
BITMAP
3FE0
3FE0
3000
2000
6000
6700
7FC0
70E0
6060
0030
0030
0030
0030
C060
E0E0
7FC0
1F00
ENDCHAR
STARTCHAR U+0036
ENCODING 54
SWIDTH 500 0
DWIDTH 14 0
BBX 12 18 1 0
BITMAP
0300
0700
0E00
0C00
1800
1800
3000
7F80
7FC0
7060
E030
C030
C030
C030
C060
60E0
3FC0
1F80
ENDCHAR
STARTCHAR U+0037
ENCODING 55
SWIDTH 500 0
DWIDTH 14 0
BBX 10 17 2 0
BITMAP
FFC0
F0C0
01C0
0180
0180
0300
0300
0600
0600
0C00
0C00
0C00
1800
1800
3800
3000
3000
ENDCHAR
STARTCHAR U+0038
ENCODING 56
SWIDTH 500 0
DWIDTH 14 0
BBX 12 18 1 0
BITMAP
0F80
3FC0
70E0
6070
6060
60C0
3B80
1F00
1F80
39C0
7060
E030
C030
C030
C030
6060
7FC0
1F80
ENDCHAR
STARTCHAR U+0039
ENCODING 57
SWIDTH 500 0
DWIDTH 14 0
BBX 12 18 1 0
BITMAP
0F00
3FF0
70F0
6070
C060
C060
C0E0
C0E0
E1C0
7FC0
3CC0
00C0
00C0
00C0
0180
0180
0180
0180
ENDCHAR
STARTCHAR U+003A
ENCODING 58
SWIDTH 500 0
DWIDTH 9 0
BBX 3 12 3 0
BITMAP
C0
E0
40
00
00
00
00
00
00
C0
E0
60
ENDCHAR
STARTCHAR U+003B
ENCODING 59
SWIDTH 500 0
DWIDTH 9 0
BBX 3 14 3 -2
BITMAP
C0
E0
40
00
00
00
00
00
00
40
E0
E0
40
C0
ENDCHAR
STARTCHAR U+003C
ENCODING 60
SWIDTH 500 0
DWIDTH 14 0
BBX 10 12 2 0
BITMAP
00C0
01C0
0780
0E00
3800
E000
E000
3800
0E00
0780
01C0
00C0
ENDCHAR
STARTCHAR U+003D
ENCODING 61
SWIDTH 500 0
DWIDTH 14 0
BBX 12 6 1 3
BITMAP
FFF0
FFF0
0000
0000
FFF0
FFF0
ENDCHAR
STARTCHAR U+003E
ENCODING 62
SWIDTH 500 0
DWIDTH 14 0
BBX 10 12 2 0
BITMAP
8000
E000
7800
1C00
0700
01C0
01C0
0700
1C00
7800
E000
C000
ENDCHAR
STARTCHAR U+003F
ENCODING 63
SWIDTH 500 0
DWIDTH 15 0
BBX 10 18 3 0
BITMAP
1F00
3F80
60C0
C0C0
C0C0
00C0
0180
0300
0600
0C00
1800
1800
1800
0800
0000
1800
1C00
0C00
ENDCHAR
STARTCHAR U+0040
ENCODING 64
SWIDTH 500 0
DWIDTH 20 0
BBX 18 18 1 0
BITMAP
01F800
07FE00
1E0700
38E180
33FD80
673CC0
6618C0
CC18C0
CC18C0
CC38C0
CC3980
CC7B80
C7DF00
638EC0
700180
380700
1FFC00
03F000
ENDCHAR
STARTCHAR U+0041
ENCODING 65
SWIDTH 500 0
DWIDTH 16 0
BBX 16 18 0 0
BITMAP
0180
01C0
01C0
03C0
0360
0660
0660
0E30
0C30
0C18
1818
7FFC
7FFC
300E
6006
E007
C003
C003
ENDCHAR
STARTCHAR U+0042
ENCODING 66
SWIDTH 500 0
DWIDTH 15 0
BBX 13 18 1 0
BITMAP
3F80
FFE0
6070
6030
6030
6060
60E0
7FC0
7FE0
6070
6018
6018
6018
6018
6038
60F0
FFE0
FF80
ENDCHAR
STARTCHAR U+0043
ENCODING 67
SWIDTH 500 0
DWIDTH 17 0
BBX 15 18 1 0
BITMAP
03F0
0FF8
1C1C
3000
7000
6000
6000
C000
C000
C000
C000
C000
C000
E006
600C
7018
3FF0
0FC0
ENDCHAR
STARTCHAR U+0044
ENCODING 68
SWIDTH 500 0
DWIDTH 18 0
BBX 15 18 2 0
BITMAP
7F80
FFE0
6070
6018
600C
600C
6006
6006
6006
6006
6006
600E
600C
601C
6038
60F0
FFE0
FF00
ENDCHAR
STARTCHAR U+0045
ENCODING 69
SWIDTH 500 0
DWIDTH 16 0
BBX 13 18 2 0
BITMAP
0030
7FF0
7FF0
6000
6000
6000
6000
FFC0
FFC0
6000
6000
6000
6000
6000
6000
6000
7FF8
7FF8
ENDCHAR
STARTCHAR U+0046
ENCODING 70
SWIDTH 500 0
DWIDTH 15 0
BBX 12 18 2 0
BITMAP
0030
7FF0
7FF0
6000
6000
6000
6000
FFC0
FFC0
6000
6000
6000
6000
6000
6000
6000
6000
6000
ENDCHAR
STARTCHAR U+0047
ENCODING 71
SWIDTH 500 0
DWIDTH 18 0
BBX 16 18 1 0
BITMAP
03F0
0FFC
1C0E
3804
3000
6000
6000
C000
C0F8
C0FE
C003
C003
C003
E007
600F
301F
1FFB
07E3
ENDCHAR
STARTCHAR U+0048
ENCODING 72
SWIDTH 500 0
DWIDTH 16 0
BBX 13 17 1 0
BITMAP
6018
6018
6018
6018
6018
6018
6018
FFF8
FFF8
6018
6018
6018
6018
6018
6018
6018
6018
ENDCHAR
STARTCHAR U+0049
ENCODING 73
SWIDTH 500 0
DWIDTH 7 0
BBX 2 17 3 0
BITMAP
C0
C0
C0
C0
C0
C0
C0
C0
C0
C0
C0
C0
C0
C0
C0
C0
C0
ENDCHAR
STARTCHAR U+004A
ENCODING 74
SWIDTH 500 0
DWIDTH 12 0
BBX 9 17 1 0
BITMAP
0180
0180
0180
0180
0180
0180
0180
0180
0180
0180
0180
0180
4180
C180
E380
7F00
3E00
ENDCHAR
STARTCHAR U+004B
ENCODING 75
SWIDTH 500 0
DWIDTH 15 0
BBX 12 17 2 0
BITMAP
C060
C0E0
C1C0
C380
CE00
DC00
F800
F000
F800
DC00
CE00
C700
C380
C1C0
C0E0
C070
C030
ENDCHAR
STARTCHAR U+004C
ENCODING 76
SWIDTH 500 0
DWIDTH 13 0
BBX 10 17 2 0
BITMAP
C000
C000
C000
C000
C000
C000
C000
C000
C000
C000
C000
C000
C000
C000
C000
FFC0
FFC0
ENDCHAR
STARTCHAR U+004D
ENCODING 77
SWIDTH 500 0
DWIDTH 21 0
BBX 19 17 1 0
BITMAP
300180
380380
380380
3C0780
3C0680
360C80
660C80
6618C0
6318C0
6330C0
61B0C0
61E040
60E040
60E040
C04040
C00060
C00060
ENDCHAR
STARTCHAR U+004E
ENCODING 78
SWIDTH 500 0
DWIDTH 17 0
BBX 13 17 2 0
BITMAP
C018
E018
E018
F018
F818
D818
CC18
CE18
C618
C318
C398
C1D8
C0D8
C078
C078
C038
C018
ENDCHAR
STARTCHAR U+004F
ENCODING 79
SWIDTH 500 0
DWIDTH 18 0
BBX 16 18 1 0
BITMAP
03E0
1FF8
3C1C
700E
6006
6006
C003
C003
C003
C003
C003
C003
C006
6006
700C
381C
1FF8
07E0
ENDCHAR
STARTCHAR U+0050
ENCODING 80
SWIDTH 500 0
DWIDTH 15 0
BBX 13 18 1 0
BITMAP
3FC0
FFF0
6030
6018
6018
6018
6030
60F0
7FC0
7F00
6000
6000
6000
6000
6000
6000
6000
6000
ENDCHAR
STARTCHAR U+0051
ENCODING 81
SWIDTH 500 0
DWIDTH 18 0
BBX 16 19 1 -1
BITMAP
03E0
1FF8
3C1C
700E
6006
6006
C003
C003
C003
C003
C003
C003
C086
61C6
70EC
387C
1FF8
07FC
000E
ENDCHAR
STARTCHAR U+0052
ENCODING 82
SWIDTH 500 0
DWIDTH 15 0
BBX 14 17 1 0
BITMAP
3F80
FFE0
6070
6030
6030
6070
60E0
7FC0
7E00
6C00
6600
6300
6180
60C0
6060
6030
601C
ENDCHAR
STARTCHAR U+0053
ENCODING 83
SWIDTH 500 0
DWIDTH 15 0
BBX 13 18 1 0
BITMAP
0FC0
1FE0
3070
6010
6000
6000
7800
3F00
07E0
00F0
0030
0018
0018
0018
C038
E070
3FE0
1F80
ENDCHAR
STARTCHAR U+0054
ENCODING 84
SWIDTH 500 0
DWIDTH 16 0
BBX 14 18 1 0
BITMAP
000C
FFFC
FFFC
0300
0300
0300
0300
0300
0300
0300
0300
0300
0300
0300
0300
0300
0300
0300
ENDCHAR
STARTCHAR U+0055
ENCODING 85
SWIDTH 500 0
DWIDTH 16 0
BBX 12 17 2 0
BITMAP
C030
C030
C030
C030
C030
C030
C030
C030
C030
C030
C030
C030
C030
C070
60E0
7FC0
1F00
ENDCHAR
STARTCHAR U+0056
ENCODING 86
SWIDTH 500 0
DWIDTH 15 0
BBX 14 17 0 0
BITMAP
C004
E00C
600C
6018
3018
3038
3830
1830
1860
0C60
0CC0
0CC0
06C0
0780
0380
0380
0100
ENDCHAR
STARTCHAR U+0057
ENCODING 87
SWIDTH 500 0
DWIDTH 21 0
BBX 21 17 0 0
BITMAP
C06018
C07038
607030
60F030
60D830
30D860
319860
319860
318CC0
198CC0
1B0CC0
1B0D80
1F0780
0E0780
0E0700
0E0700
040300
ENDCHAR
STARTCHAR U+0058
ENCODING 88
SWIDTH 500 0
DWIDTH 14 0
BBX 13 17 1 0
BITMAP
C018
6038
7030
3060
18C0
0DC0
0F80
0700
0700
0F80
0D80
18C0
30E0
7060
6030
C018
C018
ENDCHAR
STARTCHAR U+0059
ENCODING 89
SWIDTH 500 0
DWIDTH 14 0
BBX 14 17 0 0
BITMAP
C00C
6018
7038
3030
1860
1CE0
0CC0
0780
0780
0300
0300
0300
0300
0300
0300
0300
0300
ENDCHAR
STARTCHAR U+005A
ENCODING 90
SWIDTH 500 0
DWIDTH 15 0
BBX 13 17 1 0
BITMAP
7FF8
7FF8
0070
0060
00C0
0180
0380
0300
0600
0C00
0C00
1800
3000
3000
6000
FFF8
FFF8
ENDCHAR
STARTCHAR U+005B
ENCODING 91
SWIDTH 500 0
DWIDTH 9 0
BBX 4 23 4 -4
BITMAP
F0
F0
C0
C0
C0
C0
C0
C0
C0
C0
C0
C0
C0
C0
C0
C0
C0
C0
C0
C0
C0
F0
F0
ENDCHAR
STARTCHAR U+005C
ENCODING 92
SWIDTH 500 0
DWIDTH 8 0
BBX 8 19 0 -1
BITMAP
C0
C0
40
60
60
20
30
30
18
18
18
0C
0C
04
06
06
02
03
03
ENDCHAR
STARTCHAR U+005D
ENCODING 93
SWIDTH 500 0
DWIDTH 10 0
BBX 5 23 1 -4
BITMAP
70
78
18
18
18
18
18
18
18
18
18
18
18
18
18
18
18
18
18
18
18
F8
F8
ENDCHAR
STARTCHAR U+005E
ENCODING 94
SWIDTH 500 0
DWIDTH 14 0
BBX 11 11 2 6
BITMAP
0400
0E00
0E00
1B00
1300
3180
3180
60C0
60C0
C060
C060
ENDCHAR
STARTCHAR U+005F
ENCODING 95
SWIDTH 500 0
DWIDTH 13 0
BBX 13 2 0 -4
BITMAP
FFF8
FFF8
ENDCHAR
STARTCHAR U+0060
ENCODING 96
SWIDTH 500 0
DWIDTH 12 0
BBX 5 3 4 14
BITMAP
E0
F0
18
ENDCHAR
STARTCHAR U+0061
ENCODING 97
SWIDTH 500 0
DWIDTH 13 0
BBX 11 12 1 0
BITMAP
0FC0
3FC0
31C0
60C0
40C0
C0C0
C0C0
C1C0
C1C0
C3C0
7E60
3C60
ENDCHAR
STARTCHAR U+0062
ENCODING 98
SWIDTH 500 0
DWIDTH 14 0
BBX 11 17 2 0
BITMAP
C000
C000
C000
C000
C000
CF80
DFC0
F0C0
E060
E060
C060
C060
C0C0
C0C0
E180
FF00
9E00
ENDCHAR
STARTCHAR U+0063
ENCODING 99
SWIDTH 500 0
DWIDTH 13 0
BBX 10 12 1 0
BITMAP
0F00
1FC0
30C0
6000
C000
C000
C000
C000
C040
60C0
7F80
1E00
ENDCHAR
STARTCHAR U+0064
ENCODING 100
SWIDTH 500 0
DWIDTH 14 0
BBX 12 17 1 0
BITMAP
0060
0060
0060
0060
0060
0F60
1FE0
30E0
6060
6060
C060
C060
C0E0
C0E0
E3E0
7F70
3C20
ENDCHAR
STARTCHAR U+0065
ENCODING 101
SWIDTH 500 0
DWIDTH 13 0
BBX 11 12 1 0
BITMAP
0F80
1FC0
3060
6060
C0E0
FFC0
FC00
C000
C040
60C0
7F80
1E00
ENDCHAR
STARTCHAR U+0066
ENCODING 102
SWIDTH 500 0
DWIDTH 10 0
BBX 8 17 1 0
BITMAP
0F
1F
19
18
18
FF
7F
18
18
18
18
18
18
18
18
18
18
ENDCHAR
STARTCHAR U+0067
ENCODING 103
SWIDTH 500 0
DWIDTH 14 0
BBX 11 16 1 -4
BITMAP
0F60
3FE0
30E0
6060
C060
C060
C060
C060
C0E0
E1E0
7F60
3E60
00E0
C1C0
7F80
3E00
ENDCHAR
STARTCHAR U+0068
ENCODING 104
SWIDTH 500 0
DWIDTH 14 0
BBX 10 17 2 0
BITMAP
C000
C000
C000
C000
C000
CF00
DF80
F0C0
E0C0
C0C0
C0C0
C0C0
C0C0
C0C0
C0C0
C0C0
C0C0
ENDCHAR
STARTCHAR U+0069
ENCODING 105
SWIDTH 500 0
DWIDTH 7 0
BBX 3 17 2 0
BITMAP
C0
E0
40
00
00
C0
C0
C0
C0
C0
C0
C0
C0
C0
C0
C0
C0
ENDCHAR
STARTCHAR U+006A
ENCODING 106
SWIDTH 500 0
DWIDTH 8 0
BBX 6 21 0 -4
BITMAP
18
1C
08
00
00
18
18
18
18
18
18
18
18
18
18
18
18
18
18
F8
70
ENDCHAR
STARTCHAR U+006B
ENCODING 107
SWIDTH 500 0
DWIDTH 12 0
BBX 10 17 2 0
BITMAP
C000
C000
C000
C000
C000
C180
C700
CE00
F800
F000
F000
D800
CC00
C600
C300
C1C0
C0C0
ENDCHAR
STARTCHAR U+006C
ENCODING 108
SWIDTH 500 0
DWIDTH 6 0
BBX 4 17 2 0
BITMAP
C0
C0
C0
C0
C0
C0
C0
C0
C0
C0
C0
C0
C0
C0
C0
F0
60
ENDCHAR
STARTCHAR U+006D
ENCODING 109
SWIDTH 500 0
DWIDTH 20 0
BBX 16 12 2 0
BITMAP
DE3C
FF7E
E3C7
E183
C183
C183
C183
C183
C183
C183
C183
C183
ENDCHAR
STARTCHAR U+006E
ENCODING 110
SWIDTH 500 0
DWIDTH 14 0
BBX 10 12 2 0
BITMAP
CF00
DF80
F0C0
E0C0
C0C0
C0C0
C0C0
C0C0
C0C0
C0C0
C0C0
C0C0
ENDCHAR
STARTCHAR U+006F
ENCODING 111
SWIDTH 500 0
DWIDTH 13 0
BBX 11 12 1 0
BITMAP
0F00
3FC0
70C0
6060
C060
C060
C060
C060
C0C0
61C0
7F80
1F00
ENDCHAR
STARTCHAR U+0070
ENCODING 112
SWIDTH 500 0
DWIDTH 14 0
BBX 11 16 2 -4
BITMAP
CF80
DFC0
F0C0
E060
E060
C060
C060
C0C0
C0C0
E180
FF80
DE00
C000
C000
C000
C000
ENDCHAR
STARTCHAR U+0071
ENCODING 113
SWIDTH 500 0
DWIDTH 14 0
BBX 11 16 1 -4
BITMAP
0F60
1FE0
30E0
6060
6060
C060
C060
C0E0
C0E0
E3E0
7F60
3E60
0060
0060
0060
0060
ENDCHAR
STARTCHAR U+0072
ENCODING 114
SWIDTH 500 0
DWIDTH 11 0
BBX 8 12 2 0
BITMAP
DE
FF
E1
C0
C0
C0
C0
C0
C0
C0
C0
C0
ENDCHAR
STARTCHAR U+0073
ENCODING 115
SWIDTH 500 0
DWIDTH 12 0
BBX 9 12 2 0
BITMAP
3E00
7F00
C100
C000
E000
3E00
0700
0180
8180
C180
FF00
3E00
ENDCHAR
STARTCHAR U+0074
ENCODING 116
SWIDTH 500 0
DWIDTH 10 0
BBX 8 16 1 0
BITMAP
30
30
30
30
FF
FF
30
30
30
30
30
30
30
31
3F
1C
ENDCHAR
STARTCHAR U+0075
ENCODING 117
SWIDTH 500 0
DWIDTH 14 0
BBX 11 12 2 0
BITMAP
C0C0
C0C0
C0C0
C0C0
C0C0
C0C0
C0C0
C1C0
C1C0
C3C0
7EE0
3C40
ENDCHAR
STARTCHAR U+0076
ENCODING 118
SWIDTH 500 0
DWIDTH 12 0
BBX 11 12 1 0
BITMAP
C060
C0C0
60C0
6180
3180
3180
3300
1B00
1E00
0E00
0C00
0C00
ENDCHAR
STARTCHAR U+0077
ENCODING 119
SWIDTH 500 0
DWIDTH 18 0
BBX 16 12 0 0
BITMAP
C181
C1C3
61C3
63C2
6346
2266
3664
366C
3C3C
1C38
1C38
0818
ENDCHAR
STARTCHAR U+0078
ENCODING 120
SWIDTH 500 0
DWIDTH 12 0
BBX 10 12 1 0
BITMAP
C080
E180
6300
3600
1E00
1C00
1C00
3E00
3300
6380
C180
C0C0
ENDCHAR
STARTCHAR U+0079
ENCODING 121
SWIDTH 500 0
DWIDTH 13 0
BBX 11 16 1 -4
BITMAP
6020
6060
6060
30C0
30C0
1980
1980
0F00
0F00
0F00
0600
0600
0C00
0C00
F800
7000
ENDCHAR
STARTCHAR U+007A
ENCODING 122
SWIDTH 500 0
DWIDTH 12 0
BBX 10 12 1 0
BITMAP
7F80
7FC0
0380
0700
0600
0C00
1800
3800
3000
6000
FFC0
FFC0
ENDCHAR
STARTCHAR U+007B
ENCODING 123
SWIDTH 500 0
DWIDTH 8 0
BBX 6 23 2 -4
BITMAP
0C
18
30
30
30
30
30
30
30
30
E0
E0
70
30
30
30
30
30
30
30
30
18
0C
ENDCHAR
STARTCHAR U+007C
ENCODING 124
SWIDTH 500 0
DWIDTH 8 0
BBX 2 18 3 0
BITMAP
C0
C0
C0
C0
C0
C0
C0
C0
C0
C0
C0
C0
C0
C0
C0
C0
C0
C0
ENDCHAR
STARTCHAR U+007D
ENCODING 125
SWIDTH 500 0
DWIDTH 8 0
BBX 6 23 0 -4
BITMAP
C0
60
30
30
30
30
30
30
30
30
30
1C
1C
30
30
30
30
30
30
30
30
60
C0
ENDCHAR
STARTCHAR U+007E
ENCODING 126
SWIDTH 500 0
DWIDTH 14 0
BBX 12 4 1 4
BITMAP
1810
7E30
47E0
81C0
ENDCHAR
STARTCHAR U+00B7
ENCODING 183
SWIDTH 500 0
DWIDTH 9 0
BBX 5 5 2 7
BITMAP
70
F8
F8
F8
70
ENDCHAR
STARTCHAR U+00D7
ENCODING 215
SWIDTH 500 0
DWIDTH 14 0
BBX 12 12 1 0
BITMAP
C030
E070
70E0
39C0
1F80
0F00
0F00
1F80
39C0
70E0
E070
C030
ENDCHAR
STARTCHAR U+2460
ENCODING 9312
SWIDTH 500 0
DWIDTH 24 0
BBX 23 23 1 -3
BITMAP
01FF00
0703C0
0C0060
180030
301818
603808
40F80C
C01804
801806
801806
801806
801802
801806
801806
C01804
C01804
40180C
601818
300010
180070
0E00C0
03EF80
00FE00
ENDCHAR
STARTCHAR U+2461
ENCODING 9313
SWIDTH 500 0
DWIDTH 24 0
BBX 23 23 1 -3
BITMAP
01FF00
0703C0
0C0060
180030
307C18
61FF08
41830C
C10304
800306
800606
800C06
801802
803006
806006
C08004
C10004
43FF0C
63FF98
300010
180070
0E00C0
03EF80
00FE00
ENDCHAR
STARTCHAR U+2462
ENCODING 9314
SWIDTH 500 0
DWIDTH 24 0
BBX 23 23 1 -3
BITMAP
01FF00
0703C0
0C0060
180030
30FC18
61EE08
43030C
C00304
800606
800E06
807C06
800602
800306
800106
C00304
C20304
43060C
61FC18
300010
180070
0E00C0
03EF80
00FE00
ENDCHAR
STARTCHAR U+2463
ENCODING 9315
SWIDTH 500 0
DWIDTH 24 0
BBX 23 23 1 -3
BITMAP
01FF00
0703C0
0C0060
180030
301818
601808
40300C
C02804
806C06
80CC06
808C06
818C02
830C06
860F06
C7FF04
C00C04
400C0C
600C18
300010
180070
0E00C0
03EF80
00FE00
ENDCHAR
STARTCHAR U+2464
ENCODING 9316
SWIDTH 500 0
DWIDTH 24 0
BBX 23 23 1 -3
BITMAP
01FF00
0703C0
0C0060
180030
300F18
60FF08
40800C
C18004
818006
81FC06
81EF06
810302
800186
800186
C00184
C30304
43870C
60FE18
300010
180070
0E00C0
03EF80
00FE00
ENDCHAR
STARTCHAR U+3001
ENCODING 12289
SWIDTH 500 0
DWIDTH 24 0
BBX 5 5 2 -2
BITMAP
C0
E0
70
38
18
ENDCHAR
STARTCHAR U+3002
ENCODING 12290
SWIDTH 500 0
DWIDTH 24 0
BBX 7 7 1 -2
BITMAP
10
7C
66
C6
46
7C
38
ENDCHAR
STARTCHAR U+3010
ENCODING 12304
SWIDTH 500 0
DWIDTH 24 0
BBX 6 22 17 -2
BITMAP
F8
F8
F8
F0
F0
E0
E0
E0
C0
C0
C0
C0
C0
C0
C0
C0
E0
E0
E0
F0
F8
FC
ENDCHAR
STARTCHAR U+3011
ENCODING 12305
SWIDTH 500 0
DWIDTH 24 0
BBX 6 22 1 -2
BITMAP
7C
7C
3C
3C
1C
1C
1C
0C
0C
0C
0C
0C
0C
0C
1C
1C
1C
1C
3C
3C
7C
FC
ENDCHAR
STARTCHAR U+4E00
ENCODING 19968
SWIDTH 500 0
DWIDTH 24 0
BBX 21 2 2 8
BITMAP
3FFFF8
FFFFF0
ENDCHAR
STARTCHAR U+4E01
ENCODING 19969
SWIDTH 500 0
DWIDTH 24 0
BBX 20 19 2 -2
BITMAP
001FF0
FFFFF0
7F7000
006000
006000
006000
006000
006000
006000
006000
006000
006000
006000
006000
006000
042000
07E000
01E000
006000
ENDCHAR
STARTCHAR U+4E09
ENCODING 19977
SWIDTH 500 0
DWIDTH 24 0
BBX 22 17 1 0
BITMAP
0000C0
1FFFE0
1FF000
000000
000000
000000
000000
07FF80
07FFC0
000000
000000
000000
000000
000000
000018
FFFFFC
7FFFF8
ENDCHAR
STARTCHAR U+4E0A
ENCODING 19978
SWIDTH 500 0
DWIDTH 24 0
BBX 22 20 1 -1
BITMAP
004000
006000
006000
006000
006000
006000
006000
006000
007FC0
007FC0
006000
006000
006000
006000
006000
006000
006000
006038
FFFFFC
FFF800
ENDCHAR
STARTCHAR U+4E11
ENCODING 19985
SWIDTH 500 0
DWIDTH 24 0
BBX 21 19 2 -1
BITMAP
00FF80
1FFF80
018180
018180
018180
018100
018300
018300
3FFF00
1FFF00
030300
030300
030300
030300
030300
030200
030200
FFFFF8
FFFFF0
ENDCHAR
STARTCHAR U+4E19
ENCODING 19993
SWIDTH 500 0
DWIDTH 24 0
BBX 20 20 2 -2
BITMAP
0001E0
FFFFF0
7C6000
006000
006000
6FFFE0
7FFFE0
604060
60C060
20E060
21B860
239C60
230E60
260360
380160
200060
200860
2007E0
6003E0
2000C0
ENDCHAR
STARTCHAR U+4E2D
ENCODING 20013
SWIDTH 500 0
DWIDTH 24 0
BBX 18 23 3 -3
BITMAP
008000
00C000
00C000
00C000
00C000
00C780
FFFFC0
7FE0C0
40C0C0
60C0C0
60C080
60C180
7FFFC0
7FFF00
60C000
00C000
00C000
00C000
00C000
00C000
00C000
00C000
004000
ENDCHAR
STARTCHAR U+4E3E
ENCODING 20030
SWIDTH 500 0
DWIDTH 24 0
BBX 22 21 1 -2
BITMAP
00C180
0C6180
063300
063200
0307F8
7FFFF8
7FE600
030300
073180
0E30E0
183070
33FF1C
C3B00C
003000
003000
1FFFE0
0FB000
003000
003000
003000
003000
ENDCHAR
STARTCHAR U+4E59
ENCODING 20057
SWIDTH 500 0
DWIDTH 24 0
BBX 18 17 4 -1
BITMAP
FFFC00
7F3800
007000
00E000
01C000
030000
060000
0C0000
180000
300000
600040
600040
C00040
C000C0
E000C0
7FFFC0
3FFF80
ENDCHAR
STARTCHAR U+4E5D
ENCODING 20061
SWIDTH 500 0
DWIDTH 24 0
BBX 22 22 1 -2
BITMAP
004000
006000
006000
006000
006000
006000
006700
3FFF80
1FE180
00C180
00C100
00C300
018300
018300
038304
030304
060304
0E0304
0C030C
3803FC
6001F8
C00000
ENDCHAR
STARTCHAR U+4E61
ENCODING 20065
SWIDTH 500 0
DWIDTH 24 0
BBX 18 22 3 -2
BITMAP
008000
01C000
018000
030400
060C00
1E1C00
3C3800
0F7000
03E0C0
01C1C0
018180
070300
0FFF00
3FEE00
001C00
003800
007000
00E000
038000
0F0000
780000
E00000
ENDCHAR
STARTCHAR U+4E8C
ENCODING 20108
SWIDTH 500 0
DWIDTH 24 0
BBX 21 13 1 2
BITMAP
03FF80
1FFF80
000000
000000
000000
000000
000000
000000
000000
000000
000000
1FFFF8
FFFFF8
ENDCHAR
STARTCHAR U+4E94
ENCODING 20116
SWIDTH 500 0
DWIDTH 24 0
BBX 22 18 1 -1
BITMAP
000FE0
1FFFE0
1E6000
006000
006000
006000
006000
1FFFC0
0FF9C0
00C080
00C180
00C180
008180
018180
018180
018188
FFFFFC
7FFC00
ENDCHAR
STARTCHAR U+4ECA
ENCODING 20170
SWIDTH 500 0
DWIDTH 24 0
BBX 22 22 1 -2
BITMAP
003000
003000
007000
007800
00DC00
01CE00
038700
030380
0681C0
0CF070
183C38
600C1C
C00004
01FFC0
0FFFC0
000180
000300
000700
000E00
001C00
003800
003000
ENDCHAR
STARTCHAR U+4F11
ENCODING 20241
SWIDTH 500 0
DWIDTH 24 0
BBX 22 21 1 -2
BITMAP
060C00
060C00
060C00
0C0C00
0C0C00
180C20
19FFF0
39FE00
381F00
783F00
D83D80
986CC0
186CE0
18CC60
198C30
190C18
1B0C0C
1C0C00
180C00
180C00
180C00
ENDCHAR
STARTCHAR U+4F4E
ENCODING 20302
SWIDTH 500 0
DWIDTH 24 0
BBX 22 22 1 -2
BITMAP
060000
0600E0
0603C0
0CFF00
0CFE00
08C600
18C600
38C200
38C200
78C7F0
58FFF0
98C300
18C300
18C180
18C180
18C180
18C4C4
18D8C4
18F46C
1BC67C
1983B8
180198
ENDCHAR
STARTCHAR U+4F53
ENCODING 20307
SWIDTH 500 0
DWIDTH 24 0
BBX 22 21 1 -2
BITMAP
040C00
060C00
060C00
0C0C00
0C0C00
1BFFF8
19FE00
381E00
783F00
783F80
D83D80
986CC0
18CC60
18CC70
198C38
19FFDC
1A3C0C
1C0C00
180C00
180C00
180C00
ENDCHAR
STARTCHAR U+4FA7
ENCODING 20391
SWIDTH 500 0
DWIDTH 24 0
BBX 22 22 1 -2
BITMAP
000008
06000C
06000C
07FE0C
0DF60C
0D86CC
19A6CC
19B6CC
39B6CC
39B6CC
79B6CC
59B6CC
99B6CC
19B6CC
19B6CC
19A6CC
1868CC
186C0C
18C60C
18874C
19023C
1A0018
ENDCHAR
STARTCHAR U+50CF
ENCODING 20687
SWIDTH 500 0
DWIDTH 24 0
BBX 23 22 1 -2
BITMAP
000800
060C00
061880
063FC0
0C6180
0DC7F0
1BFFF0
18C630
38C630
38FFF0
78D800
D83C30
98CCE0
1B1F80
187700
19C780
1B1FC0
183B70
18E33C
1BB30E
181F00
080600
ENDCHAR
STARTCHAR U+5149
ENCODING 20809
SWIDTH 500 0
DWIDTH 24 0
BBX 21 21 1 -2
BITMAP
002000
003000
003080
0830C0
0C3180
063180
033300
033600
0035F0
7FFFF0
31CC00
018C00
018C00
018808
030808
070808
060808
0C0808
180C18
700FF8
C007F0
ENDCHAR
STARTCHAR U+516B
ENCODING 20843
SWIDTH 500 0
DWIDTH 24 0
BBX 23 19 1 -1
BITMAP
001800
001800
000C00
000C00
018C00
018600
018600
030600
030300
030300
060180
060180
0C00C0
0C00E0
180070
100038
20001C
40000E
800004
ENDCHAR
STARTCHAR U+519C
ENCODING 20892
SWIDTH 500 0
DWIDTH 24 0
BBX 23 22 1 -2
BITMAP
001000
001800
001800
043000
0C7FE0
0FFFE0
0C60C0
1860C0
18E180
30F020
01B060
0398E0
070DC0
0F0F80
1F0700
3B0300
630180
8318E0
03F070
03C03C
1F000E
0C0000
ENDCHAR
STARTCHAR U+51FA
ENCODING 20986
SWIDTH 500 0
DWIDTH 24 0
BBX 17 22 3 -2
BITMAP
008000
00C000
00C000
00C000
40C300
60C300
60C300
60C300
60C300
60CF00
7FFF00
7FC300
00C000
C0C180
C0C080
C0C080
C0C080
C0C080
C0CF80
FFFF80
FFC180
000080
ENDCHAR
STARTCHAR U+521D
ENCODING 21021
SWIDTH 500 0
DWIDTH 24 0
BBX 21 21 1 -2
BITMAP
180000
0C0000
060000
021FF8
033FF8
7F8318
7B0318
030318
064618
0EC618
0F8618
1F8618
35CC18
644C10
841830
061830
063030
062230
0663B0
06C1F0
068060
ENDCHAR
STARTCHAR U+524D
ENCODING 21069
SWIDTH 500 0
DWIDTH 24 0
BBX 21 22 2 -2
BITMAP
000200
060700
070600
038C00
019FF8
FFFFF8
780000
000040
37C060
3FCC60
30CC60
37CC60
3FCC60
30CC60
30CC60
3FCC60
3ECC60
30C460
30C060
36C660
33C3E0
20C0C0
ENDCHAR
STARTCHAR U+52A8
ENCODING 21160
SWIDTH 500 0
DWIDTH 24 0
BBX 20 21 2 -2
BITMAP
000300
000300
1F8300
7F8300
000300
000300
003FF0
1FBFF0
FFC230
180630
180630
130630
330630
318C30
638C60
7FD860
F8D860
C0B460
002360
0041E0
0080C0
ENDCHAR
STARTCHAR U+5341
ENCODING 21313
SWIDTH 500 0
DWIDTH 24 0
BBX 21 22 2 -2
BITMAP
004000
006000
006000
006000
006000
006000
006000
006000
006010
FFFFF8
FFFC00
006000
006000
006000
006000
006000
006000
006000
006000
006000
006000
002000
ENDCHAR
STARTCHAR U+5348
ENCODING 21320
SWIDTH 500 0
DWIDTH 24 0
BBX 21 21 2 -2
BITMAP
030000
030000
070000
061F80
0FFF80
0C6000
186000
186000
306000
406000
007FF8
FFFFF8
FFF000
006000
006000
006000
006000
006000
006000
006000
002000
ENDCHAR
STARTCHAR U+536F
ENCODING 21359
SWIDTH 500 0
DWIDTH 24 0
BBX 20 21 2 -2
BITMAP
008000
01C000
0399E0
0E1FF0
381830
319830
319830
319830
319830
319830
319830
319820
379A60
3F1BE0
F319E0
C21840
061800
0C1800
181800
301800
401800
ENDCHAR
STARTCHAR U+5386
ENCODING 21382
SWIDTH 500 0
DWIDTH 24 0
BBX 21 20 1 -2
BITMAP
081FF8
0FFFF0
0C0000
0C0C00
0C0C00
0C0C00
0C0C00
0C0C00
0DFFF0
09FF30
181830
181830
183030
183030
306030
30E060
20CC60
618760
4703E0
8400C0
ENDCHAR
STARTCHAR U+539F
ENCODING 21407
SWIDTH 500 0
DWIDTH 24 0
BBX 21 21 1 -2
BITMAP
0000E0
1FFFF0
1FF800
180C00
181800
1B3FC0
1BFFE0
198060
199FC0
19FFC0
1980C0
1180C0
31FFE0
308C00
308C80
31CCE0
218C70
630C38
464C18
CC3C00
801800
ENDCHAR
STARTCHAR U+53C2
ENCODING 21442
SWIDTH 500 0
DWIDTH 24 0
BBX 21 22 2 -2
BITMAP
004000
006000
00C800
018E00
030F00
0FFF80
0FE180
006000
0FFFF0
7FFFC0
030600
063380
1C61E0
39CC78
E71C18
8C7900
00E300
078E00
003C00
00F000
07C000
1C0000
ENDCHAR
STARTCHAR U+53F3
ENCODING 21491
SWIDTH 500 0
DWIDTH 24 0
BBX 22 21 1 -2
BITMAP
003000
003000
003000
003000
006000
7FFFFC
7FFE00
00C000
018000
018000
030000
07FFC0
0FFFC0
1F00C0
3900C0
6180C0
C180C0
01FFC0
01FFC0
018000
018000
ENDCHAR
STARTCHAR U+53F7
ENCODING 21495
SWIDTH 500 0
DWIDTH 24 0
BBX 22 20 1 -2
BITMAP
07FF80
07FB80
020300
020300
033F00
03FF00
030000
0007FC
FFFFFC
798000
018000
03FF00
03FF80
000180
000300
000300
008300
006600
003E00
000C00
ENDCHAR
STARTCHAR U+540D
ENCODING 21517
SWIDTH 500 0
DWIDTH 24 0
BBX 19 21 1 -2
BITMAP
003000
007000
006000
00FFC0
01FFC0
030180
060300
1B8600
31DC00
007800
007000
01C000
07FFE0
0FFFE0
798060
C18060
018060
018060
01FFE0
01FFE0
018000
ENDCHAR
STARTCHAR U+5468
ENCODING 21608
SWIDTH 500 0
DWIDTH 24 0
BBX 19 20 1 -2
BITMAP
1BFFE0
1FFFE0
1C3060
183060
187E60
19FE60
183060
183160
1FFFE0
180060
19BE60
19FE60
188660
388660
30FE60
30FE60
608060
600760
C001E0
800060
ENDCHAR
STARTCHAR U+56DB
ENCODING 22235
SWIDTH 500 0
DWIDTH 24 0
BBX 19 17 2 -1
BITMAP
001FE0
FFFFE0
FBB860
611060
631060
631060
631060
631FE0
661FE0
640060
680060
700060
600060
7FFFE0
7FFFE0
600000
600000
ENDCHAR
STARTCHAR U+5708
ENCODING 22280
SWIDTH 500 0
DWIDTH 24 0
BBX 20 22 2 -3
BITMAP
001FE0
FFFFE0
E0C460
C64C60
C35860
C1FE60
CFFE60
C7C060
C1FFE0
DFFC60
C30C60
C7FF60
CF1BE0
FB5BE0
E37260
C32660
C1FE60
C07060
FFFFE0
FFFFF0
C00000
400000
ENDCHAR
STARTCHAR U+571F
ENCODING 22303
SWIDTH 500 0
DWIDTH 24 0
BBX 21 19 1 0
BITMAP
006000
003000
003000
003000
003000
003000
003000
003000
1FFFC0
1FFF80
003000
003000
003000
003000
003000
003000
003000
8FFFF8
FFFFF8
ENDCHAR
STARTCHAR U+5730
ENCODING 22320
SWIDTH 500 0
DWIDTH 24 0
BBX 23 21 1 -1
BITMAP
000200
000300
0C0300
0C0300
0C0300
0C3310
0C3378
0C33F8
7FB7D8
7FBF18
0CF318
0DF310
0C3310
0C3330
0DB3F2
0E3372
FC3306
703006
003006
003FFC
001FF8
ENDCHAR
STARTCHAR U+590F
ENCODING 22799
SWIDTH 500 0
DWIDTH 24 0
BBX 21 21 2 -2
BITMAP
0001E0
FFFFE0
7CC000
00C700
0FFF80
0C0380
0FFF00
0C0100
0FFF00
0F8300
0C0700
0FFF80
0D8000
03FE00
07FF00
0F0E00
39F800
60F800
03FE00
1E07F8
E00078
ENDCHAR
STARTCHAR U+5927
ENCODING 22823
SWIDTH 500 0
DWIDTH 24 0
BBX 22 21 1 -2
BITMAP
002000
003000
003000
003000
003000
003000
007070
3FFFF8
3FFE00
007800
007800
00CC00
00CE00
018600
018300
030180
0601C0
0C00F0
180078
70001C
C0000C
ENDCHAR
STARTCHAR U+5929
ENCODING 22825
SWIDTH 500 0
DWIDTH 24 0
BBX 21 20 2 -2
BITMAP
000180
1FFFC0
1FF000
006000
006000
006000
006000
007FF0
7FFFF0
3EF000
00F000
00D800
018C00
038E00
030700
060380
0C01C0
3800F0
600038
800018
ENDCHAR
STARTCHAR U+5934
ENCODING 22836
SWIDTH 500 0
DWIDTH 24 0
BBX 20 21 2 -2
BITMAP
003000
083000
0C3000
073000
03B000
01B000
303000
1C3000
0E3000
063000
003000
003FE0
FFFFF0
FFF000
00E000
00DC00
018F00
070380
0E01C0
3800E0
C00020
ENDCHAR
STARTCHAR U+59CB
ENCODING 22987
SWIDTH 500 0
DWIDTH 24 0
BBX 22 21 1 -2
BITMAP
000300
0C0300
0C0300
0C0300
0C0600
090660
198C60
1FCC30
FF98F8
71FFF8
33380C
330000
3337F0
1E1FF0
0E1830
0E1830
0F1830
199830
309FF0
601FF0
801800
ENDCHAR
STARTCHAR U+5B50
ENCODING 23376
SWIDTH 500 0
DWIDTH 24 0
BBX 22 20 1 -2
BITMAP
000F80
0FFFC0
07C380
000300
000E00
003C00
003000
003000
003FFC
FFFFFC
7F3800
001800
001800
001800
001800
001800
021800
01D800
00F800
003000
ENDCHAR
STARTCHAR U+5B57
ENCODING 23383
SWIDTH 500 0
DWIDTH 24 0
BBX 21 22 2 -2
BITMAP
004000
006000
006000
307FF0
3FFFF0
700020
600060
EFFE40
4FFF00
000E00
005C00
007000
006000
BFFFF8
FFFF80
003000
003000
003000
043000
033000
01E000
006000
ENDCHAR
STARTCHAR U+5B8B
ENCODING 23435
SWIDTH 500 0
DWIDTH 24 0
BBX 21 22 2 -2
BITMAP
004000
006000
006000
3061E0
3FFFF0
7FC060
606040
406080
C06000
0061C0
7FFFE0
3FF000
01F800
03EC00
076600
0E6380
1861E0
706078
C06018
006000
006000
006000
ENDCHAR
STARTCHAR U+5B9C
ENCODING 23452
SWIDTH 500 0
DWIDTH 24 0
BBX 21 20 2 -1
BITMAP
006000
006000
306000
30FFF0
3FFFF0
600020
600060
C7FE40
47E600
060600
060600
07FE00
07E600
060600
06FE00
07FE00
060600
060600
060FF8
FFFFF8
ENDCHAR
STARTCHAR U+5BC5
ENCODING 23493
SWIDTH 500 0
DWIDTH 24 0
BBX 20 21 2 -2
BITMAP
006000
006000
306FF0
3FFFF0
600060
600640
DFFF80
406000
17FF80
1FFF80
186180
186380
1FFF80
186180
186180
1FFF80
1FFF80
090C00
078F80
1E01C0
700060
ENDCHAR
STARTCHAR U+5BD2
ENCODING 23506
SWIDTH 500 0
DWIDTH 24 0
BBX 21 22 2 -2
BITMAP
004000
006000
006000
106FF0
3FFFF0
331860
211C40
6FFF80
479800
03FF00
07FE00
011800
019FF0
7FFFF0
3F0E00
068700
0CF1C0
383878
610838
81E000
003C00
000C00
ENDCHAR
STARTCHAR U+5BF9
ENCODING 23545
SWIDTH 500 0
DWIDTH 24 0
BBX 23 21 1 -2
BITMAP
000040
000060
000060
7FC060
3FC060
018060
31BFFE
39BFF8
1B0060
0F0860
070C60
070E60
078660
0DC660
08C060
186060
306060
200060
400360
8001E0
0000E0
ENDCHAR
STARTCHAR U+5C0F
ENCODING 23567
SWIDTH 500 0
DWIDTH 24 0
BBX 22 21 1 -2
BITMAP
003000
003000
003000
003000
003000
043100
063180
0631C0
0C30C0
0C3060
183070
183030
303018
603018
40300C
803000
003000
063000
03F000
00F000
007000
ENDCHAR
STARTCHAR U+5E74
ENCODING 24180
SWIDTH 500 0
DWIDTH 24 0
BBX 22 21 1 -2
BITMAP
030000
030000
0303E0
07FFE0
061800
0C1800
181800
36FFC0
27FFC0
021800
021800
021800
031BF8
FFFFFC
7E1800
001800
001800
001800
001800
001800
001800
ENDCHAR
STARTCHAR U+5E8A
ENCODING 24202
SWIDTH 500 0
DWIDTH 24 0
BBX 22 22 1 -2
BITMAP
001000
001800
001800
101830
1FFFF8
1FD800
181800
181800
181800
1BFFF0
1BFF80
183E00
107F00
307B00
30D980
3198E0
231870
661838
6C181C
401800
C01800
801800
ENDCHAR
STARTCHAR U+5EFF
ENCODING 24319
SWIDTH 500 0
DWIDTH 24 0
BBX 22 21 1 -2
BITMAP
000200
060300
030300
030300
030300
030300
030300
030378
FFFFFC
FFFB00
030300
030300
030300
030300
030300
030300
030300
030300
03FF00
03FF00
030000
ENDCHAR
STARTCHAR U+5F0F
ENCODING 24335
SWIDTH 500 0
DWIDTH 24 0
BBX 20 22 3 -2
BITMAP
00C000
004800
004C00
006600
006300
006000
3FFFE0
FFFC00
003000
003000
003000
7FD800
3F1800
0C0C00
0C0C00
0C6E10
0FC610
3E0330
F803B0
4001F0
0000E0
000060
ENDCHAR
STARTCHAR U+5F53
ENCODING 24403
SWIDTH 500 0
DWIDTH 24 0
BBX 16 20 4 -1
BITMAP
0180
0180
0183
C187
6186
318C
1998
1990
0180
1FFF
FFFF
0003
0003
0003
7FFF
3FE7
0002
0002
FFFF
FFFF
ENDCHAR
STARTCHAR U+5FCC
ENCODING 24524
SWIDTH 500 0
DWIDTH 24 0
BBX 22 20 1 -2
BITMAP
1FFF00
0F0300
000300
000200
0C7F00
0FFF20
0C0020
0C0060
0C0060
0FFFC0
07FF80
004000
1660E0
363070
321838
23091C
638188
61E180
C0FFC0
001F80
ENDCHAR
STARTCHAR U+601D
ENCODING 24605
SWIDTH 500 0
DWIDTH 24 0
BBX 21 20 2 -2
BITMAP
3FFFC0
3FFFC0
1860C0
186080
1FFF80
1FFF80
186180
186180
186180
1FFF80
1E8000
00C000
2060C0
2430E0
661270
660238
C70318
C38180
81FF80
007F80
ENDCHAR
STARTCHAR U+653E
ENCODING 25918
SWIDTH 500 0
DWIDTH 24 0
BBX 23 21 1 -2
BITMAP
000300
040300
040600
040600
066600
FFEEFC
7C0FFC
081C60
181C60
1FB660
19E6C0
1183C0
3183C0
318180
2183C0
6103E0
630660
DB0C38
8F181C
06300E
004006
ENDCHAR
STARTCHAR U+6545
ENCODING 25925
SWIDTH 500 0
DWIDTH 24 0
BBX 22 21 1 -2
BITMAP
000300
060300
060700
060600
060600
060FF8
FFEFF8
FFFC60
061C60
061660
0636C0
2FE3C0
3FC3C0
30C180
30C380
3083C0
308660
3FCC30
3F1838
30301C
00400C
ENDCHAR
STARTCHAR U+6570
ENCODING 25968
SWIDTH 500 0
DWIDTH 24 0
BBX 22 21 1 -2
BITMAP
020200
024300
326300
1AC200
0F8600
0FF638
7FE7F8
0F8460
1FEE60
326E60
461AC0
06D3C0
07F3C0
FFC180
7C8180
1983C0
1F0260
070670
0FCC38
38781C
C0200C
ENDCHAR
STARTCHAR U+6587
ENCODING 25991
SWIDTH 500 0
DWIDTH 24 0
BBX 22 21 1 -2
BITMAP
003000
003000
003000
003000
00FFF8
7FFFF0
070300
030300
018600
018600
00CC00
00FC00
007800
003800
007C00
00CE00
038700
0703C0
0C00F0
38007C
C0001C
ENDCHAR
STARTCHAR U+65E5
ENCODING 26085
SWIDTH 500 0
DWIDTH 24 0
BBX 14 19 5 -2
BITMAP
FFFC
FFF8
C018
C018
C018
C018
C018
FFF8
FFF8
C018
C018
C018
C018
C018
C018
FFF8
FFF8
C000
4000
ENDCHAR
STARTCHAR U+660E
ENCODING 26126
SWIDTH 500 0
DWIDTH 24 0
BBX 18 20 3 -2
BITMAP
007FC0
FE7FC0
FE60C0
C660C0
C660C0
C663C0
C67FC0
FE60C0
F660C0
C660C0
C67FC0
C67FC0
FEC0C0
FEC0C0
C0C0C0
C180C0
0180C0
0306C0
0603C0
0401C0
ENDCHAR
STARTCHAR U+662F
ENCODING 26159
SWIDTH 500 0
DWIDTH 24 0
BBX 23 20 1 -2
BITMAP
07FF80
07FF80
060380
07FF80
030180
031F80
03FF80
030000
0007F0
3FFFF8
1E3000
023000
033FC0
063F00
063000
0FB000
19F000
303F00
6007FE
C0003C
ENDCHAR
STARTCHAR U+6708
ENCODING 26376
SWIDTH 500 0
DWIDTH 24 0
BBX 17 21 2 -3
BITMAP
07FF80
07FF80
060180
060180
060180
06FF80
07FF80
060180
060180
060180
06FF80
0FFF80
0C0180
0C0180
180180
180180
300180
601D80
400F80
800380
000100
ENDCHAR
STARTCHAR U+671B
ENCODING 26395
SWIDTH 500 0
DWIDTH 24 0
BBX 21 20 2 -2
BITMAP
0C1FE0
040C60
FFCFE0
FF1EC0
3018C0
301FC0
3090C0
1FF0C0
0E63C0
004180
000380
1FFFC0
006000
006000
0FFF00
07E000
006000
006000
FFFFF8
7FF000
ENDCHAR
STARTCHAR U+671F
ENCODING 26399
SWIDTH 500 0
DWIDTH 24 0
BBX 20 21 1 -2
BITMAP
008000
10C400
18C7F0
18E730
7FF630
39C630
1886F0
1F87F0
198630
188630
1F8630
1987F0
1887B0
1BFC30
FFFC30
000C30
198830
18D830
30F1B0
6030F0
402030
ENDCHAR
STARTCHAR U+672A
ENCODING 26410
SWIDTH 500 0
DWIDTH 24 0
BBX 22 22 1 -2
BITMAP
006000
003000
003000
003000
003180
0FFFC0
0FF800
003000
003000
0033F0
7FFFF0
3FF800
00FC00
01B600
033300
063180
1C30E0
383078
E0301C
803000
003000
002000
ENDCHAR
STARTCHAR U+672B
ENCODING 26411
SWIDTH 500 0
DWIDTH 24 0
BBX 22 22 1 -2
BITMAP
002000
003000
003000
003000
0030E0
7FFFE0
3FF000
003000
003000
003180
1FFFC0
0FF800
00FC00
01BE00
033700
063180
1C30E0
303078
E0301C
003000
003000
002000
ENDCHAR
STARTCHAR U+6837
ENCODING 26679
SWIDTH 500 0
DWIDTH 24 0
BBX 22 21 1 -2
BITMAP
0C1040
0C18C0
0C0CC0
0C0D80
0C0580
0C7FF0
FFBF00
FE0300
0C0320
1E3FF0
1F0300
3D8300
2D8300
6CFFFC
4C7FFC
8C0300
8C0300
0C0300
0C0300
0C0300
0C0300
ENDCHAR
STARTCHAR U+683C
ENCODING 26684
SWIDTH 500 0
DWIDTH 24 0
BBX 22 21 1 -2
BITMAP
0C0600
0C0600
0C0C00
0C0FE0
0C1E60
0FB860
FFBCC0
0C6F80
1CC780
1E0780
1F0FC0
3D9CE0
2C3838
6C707C
4DFFE4
CF1860
8C1860
0C1860
0C1860
0C1FE0
081FE0
ENDCHAR
STARTCHAR U+6977
ENCODING 26999
SWIDTH 500 0
DWIDTH 24 0
BBX 22 21 1 -2
BITMAP
0C6180
0C6180
0C6198
0C61B0
0C7DE4
0D6184
FFE184
7C6584
1C79FC
1EE3F8
1F0600
3F0C00
2D7FF0
6C7030
4C2030
CC3FE0
8C3FE0
0C2020
0C3060
0C3FF0
0C3000
ENDCHAR
STARTCHAR U+6B63
ENCODING 27491
SWIDTH 500 0
DWIDTH 24 0
BBX 22 18 2 -1
BITMAP
001FE0
3FFFE0
1E3000
003000
003000
083000
0C3000
0C3000
0C3FC0
0C3FC0
0C3000
0C3000
0C3000
0C3000
0C3000
0C3018
FFFFFC
FFFE00
ENDCHAR
STARTCHAR U+6BD4
ENCODING 27604
SWIDTH 500 0
DWIDTH 24 0
BBX 21 21 2 -2
BITMAP
001800
181800
181800
181800
181800
181860
181860
1818C0
1FDB80
1FDF00
181C00
181800
181800
181808
181808
18D808
1B9808
1E1818
7C1FF8
F80FF0
600000
ENDCHAR
STARTCHAR U+6CC9
ENCODING 27849
SWIDTH 500 0
DWIDTH 24 0
BBX 22 21 1 -2
BITMAP
003000
006000
08FFC0
0FFFC0
0C00C0
07FF80
07C180
060180
07FFC0
07F000
003040
0030E0
3FB1C0
1FBB80
033E00
073700
0E31C0
1830F0
71B03C
C0F000
003000
ENDCHAR
STARTCHAR U+6E05
ENCODING 28165
SWIDTH 500 0
DWIDTH 24 0
BBX 22 22 1 -2
BITMAP
000400
000400
300600
19FFF0
0CCE00
060FE0
007FE0
C00400
E3FFFC
33FFC0
180000
00FFE0
04E060
04FFE0
0CFFE0
08C060
18FFE0
30FFE0
30C060
60C260
40C1E0
00C0E0
ENDCHAR
STARTCHAR U+6EE1
ENCODING 28385
SWIDTH 500 0
DWIDTH 24 0
BBX 22 22 1 -2
BITMAP
000100
006180
602180
303180
19FFF0
0DF180
003100
C037FC
E7FFF8
703100
183100
03FFF8
0BFFF8
0B3318
1B3318
133B98
332ED8
336678
63C418
638998
C300F8
010030
ENDCHAR
STARTCHAR U+70B9
ENCODING 28857
SWIDTH 500 0
DWIDTH 24 0
BBX 21 21 1 -2
BITMAP
006000
002000
002000
002FC0
003FC0
002000
002000
006300
0FFF80
060180
040180
060180
060300
07FF80
07FC00
060000
1918C0
399C60
708C30
E0C618
C04208
ENDCHAR
STARTCHAR U+73ED
ENCODING 29677
SWIDTH 500 0
DWIDTH 24 0
BBX 22 22 1 -2
BITMAP
001000
001800
001800
001FF8
FF1BE0
7818C0
1858C0
1858C0
18D8C0
1ED8C0
7FDBF8
18DBF8
1898C0
1810C0
1930C0
1F30C0
1C20C0
F060C0
C0CBFC
018FFC
030000
060000
ENDCHAR
STARTCHAR U+7532
ENCODING 30002
SWIDTH 500 0
DWIDTH 24 0
BBX 16 20 4 -2
BITMAP
FFFF
FFF3
C183
C183
C183
FFFF
FF83
4183
4182
6186
7FFF
7FF8
6180
0180
0180
0180
0180
0180
0180
0180
ENDCHAR
STARTCHAR U+7591
ENCODING 30097
SWIDTH 500 0
DWIDTH 24 0
BBX 22 21 2 -2
BITMAP
300000
3007E0
33BFE0
3F40C0
385D80
30CF00
3FC380
3F8180
303FF8
3F8330
3F8330
641B60
4C1B60
FFD3E0
FFF300
0C3300
1F3F00
13EF00
31C3C0
60C0FC
80801C
ENDCHAR
STARTCHAR U+76EE
ENCODING 30446
SWIDTH 500 0
DWIDTH 24 0
BBX 14 20 5 -2
BITMAP
FFFC
FFFC
C00C
C00C
C00C
C00C
FFFC
FFFC
C00C
C00C
C00C
FFFC
FFFC
C00C
C00C
C00C
FFFC
FFFC
E000
4000
ENDCHAR
STARTCHAR U+7940
ENCODING 31040
SWIDTH 500 0
DWIDTH 24 0
BBX 22 21 1 -2
BITMAP
180000
1C0000
0E3FE0
063FF0
023020
7FB060
7FB060
033060
063060
063FE0
0C3FC0
1E3000
3FB000
6DF004
8C3004
0C3004
0C300C
0C300C
0C3FFC
0C1FF0
0C0000
ENDCHAR
STARTCHAR U+7948
ENCODING 31048
SWIDTH 500 0
DWIDTH 24 0
BBX 22 21 1 -2
BITMAP
100020
1800F0
0E01C0
063F00
023C00
1FB000
7FB000
033038
033FFC
0630C0
0C30C0
1E30C0
3F30C0
6DF0C0
CCE0C0
0C60C0
0C60C0
0C40C0
0CC0C0
0C80C0
0C00C0
ENDCHAR
STARTCHAR U+796D
ENCODING 31085
SWIDTH 500 0
DWIDTH 24 0
BBX 22 22 1 -2
BITMAP
020000
030000
030040
07EFE0
0CF860
1CD8C0
37CD80
738700
5F0300
0F0380
07FEE0
0C0070
38003C
707FEC
9FFFE0
003000
033700
073380
0E31C0
183060
31F020
007000
ENDCHAR
STARTCHAR U+798F
ENCODING 31119
SWIDTH 500 0
DWIDTH 24 0
BBX 21 21 1 -2
BITMAP
180000
1C07F8
0EFFF8
060000
003FE0
FF3FE0
7F3060
031060
061FE0
0C1800
0C0000
1E7FF8
3F7FF8
6DE318
CC67F8
8C7FF8
0C6318
0C6310
0C77F0
0C7FF8
0C2000
ENDCHAR
STARTCHAR U+7A84
ENCODING 31364
SWIDTH 500 0
DWIDTH 24 0
BBX 21 22 2 -2
BITMAP
004000
006000
206000
3FFFF8
7FFC30
611C60
E30F80
C68380
1CC080
318000
03FFE0
07FF00
1CC000
38C300
60FF80
00C000
00C000
00FFC0
00FC00
00C000
00C000
00C000
ENDCHAR
STARTCHAR U+7ACB
ENCODING 31435
SWIDTH 500 0
DWIDTH 24 0
BBX 21 20 2 -1
BITMAP
006000
006000
006000
006000
0061E0
7FFFE0
3F8000
000000
0C0300
0C0300
060600
060600
030600
030C00
018C00
019800
019800
003830
FFFFF8
FFF800
ENDCHAR
STARTCHAR U+7B2C
ENCODING 31532
SWIDTH 500 0
DWIDTH 24 0
BBX 20 22 2 -2
BITMAP
000400
0C0C00
0C0CF0
1FFFF0
3F3300
632180
414180
9FFF80
0FE180
006180
1BFF80
1FFE00
186000
1FFFE0
3FFC60
01E060
036040
066CC0
0C67C0
3863C0
606000
806000
ENDCHAR
STARTCHAR U+7C97
ENCODING 31895
SWIDTH 500 0
DWIDTH 24 0
BBX 22 21 1 -2
BITMAP
0C0000
0C0000
0C1FE0
0CDFE0
6CD860
3D9860
3D1860
1E1FE0
3FDFE0
FFD860
0C1860
1F1860
1F9FE0
3DDFE0
2C9860
4C1860
CC1860
8C1860
0CFFFC
0CFFC0
040000
ENDCHAR
STARTCHAR U+7D20
ENCODING 32032
SWIDTH 500 0
DWIDTH 24 0
BBX 21 22 2 -2
BITMAP
004000
006000
006380
1FFF80
006000
00FF00
0FFE00
006000
0FFFF8
FFFC00
00C400
0F9C00
03F400
01C700
03FF80
3FFFC0
3FF8C0
026600
066700
0E63C0
3B60E0
60E060
ENDCHAR
STARTCHAR U+7EA2
ENCODING 32418
SWIDTH 500 0
DWIDTH 24 0
BBX 21 19 2 0
BITMAP
080000
0C0000
0C0000
180000
1901E0
31BFF0
E30600
F60600
3E0600
0C0600
180600
180600
7F0600
700600
000600
018600
060600
3CFFF8
F0FFF8
ENDCHAR
STARTCHAR U+7F29
ENCODING 32553
SWIDTH 500 0
DWIDTH 24 0
BBX 22 21 1 -2
BITMAP
0C0300
0C0300
084300
187FFC
32F018
32D810
E6D810
7C1FF8
1C37F8
0820C0
186180
3E67F8
7CE7F8
716618
006630
0367F0
0E6610
786610
F067F0
C067F8
006600
ENDCHAR
STARTCHAR U+8003
ENCODING 32771
SWIDTH 500 0
DWIDTH 24 0
BBX 22 21 1 -2
BITMAP
002000
003000
003060
07FEC0
07FF80
003300
003718
FFFFFC
7FF800
00F000
00E380
03FFC0
078000
1D8000
61FFC0
81FFC0
0000C0
000080
003980
000F80
000300
ENDCHAR
STARTCHAR U+884C
ENCODING 34892
SWIDTH 500 0
DWIDTH 24 0
BBX 23 21 1 -2
BITMAP
030000
030000
073FF0
061E00
0C0000
180000
330000
23003C
06FFFE
0E6180
0C0180
1C0180
3C0180
6C0180
CC0180
0C0180
0C0180
0C0180
0C1980
0C0F80
0C0380
ENDCHAR
STARTCHAR U+8C37
ENCODING 35895
SWIDTH 500 0
DWIDTH 24 0
BBX 22 21 1 -2
BITMAP
010400
018600
030380
0631C0
0630E0
0C7070
107820
20DC00
018E00
038700
060180
0C00E0
1FFFF0
37FFBC
C6018C
060180
060100
060300
07FF80
07FF80
020000
ENDCHAR
STARTCHAR U+9635
ENCODING 38453
SWIDTH 500 0
DWIDTH 24 0
BBX 20 21 3 -2
BITMAP
001000
CC1800
FE1800
CC3040
CDFFE0
D9FF00
D86000
CC6C00
CCCC00
C6CC00
F6FFC0
DFFFC0
CC0C00
C00C00
C00C70
C7FFF0
C3FF80
C00C00
C00C00
C00C00
C00C00
ENDCHAR
STARTCHAR U+96E8
ENCODING 38632
SWIDTH 500 0
DWIDTH 24 0
BBX 18 20 3 -2
BITMAP
000F80
FFFF80
7FC000
00C000
00C000
DFFFC0
FFFCC0
C0C0C0
D0F8C0
DCDEC0
C6C6C0
C2C0C0
D8F8C0
DCCEC0
C6C7C0
C2C0C0
C0C0C0
C0CCC0
C0C7C0
C00180
ENDCHAR
STARTCHAR U+971C
ENCODING 38684
SWIDTH 500 0
DWIDTH 24 0
BBX 21 22 1 -2
BITMAP
000180
0FFFC0
073000
103078
3FFFF8
383030
3F2FB0
63A1C0
6F2F00
07A180
023000
031FE0
3FF860
3FD860
071FE0
0FD860
1BF860
337FE0
631860
C31FE0
031800
030800
ENDCHAR
STARTCHAR U+971E
ENCODING 38686
SWIDTH 500 0
DWIDTH 24 0
BBX 21 22 2 -2
BITMAP
000300
0FFF80
27E000
33FFF0
7FFE30
6E6F20
6F6340
CC7E00
0F6F00
002180
3FBFC0
3180C0
31BFC0
3F9F80
300000
33BFC0
3F99C0
301D80
3F8F00
300F80
3038F0
30C018
ENDCHAR
STARTCHAR U+9732
ENCODING 38706
SWIDTH 500 0
DWIDTH 24 0
BBX 21 21 2 -2
BITMAP
0FFF00
0E6000
2061F0
7FFFF0
786060
4F6E60
C36080
DE7F00
076E00
3F0C00
3F9FC0
213980
333F80
3FCF00
2C0F80
2FB8F8
2CFFF8
2C10C0
2F9080
7C1080
E01FC0
ENDCHAR
STARTCHAR U+9879
ENCODING 39033
SWIDTH 500 0
DWIDTH 24 0
BBX 22 20 1 -2
BITMAP
00FFF8
007B00
000300
7F8600
7E3FF0
0C3030
0C3230
0C3330
0C3330
0C3330
0DB330
0F3330
3C3330
F83330
E03690
0006E0
000C70
001838
00601C
00800C
ENDCHAR
STARTCHAR U+9A6C
ENCODING 39532
SWIDTH 500 0
DWIDTH 24 0
BBX 19 20 2 -2
BITMAP
1FFF00
0FFF00
000300
060600
060600
060600
060600
040C00
0C0C00
0FFFE0
0FE060
000060
000060
FFFE60
7FFC60
000060
000040
000CC0
0007C0
000180
ENDCHAR
STARTCHAR U+9A7F
ENCODING 39551
SWIDTH 500 0
DWIDTH 24 0
BBX 23 20 1 -2
BITMAP
7FBFF0
3FBFF0
018060
119860
190EC0
130780
330380
3306E0
331D3C
3FF18E
3FC180
00DFF0
02CFC0
1C8180
F8C1F8
E0FFFC
018180
0D8180
078180
030180
ENDCHAR
STARTCHAR U+9E5C
ENCODING 40540
SWIDTH 500 0
DWIDTH 24 0
BBX 22 22 1 -2
BITMAP
000200
1FE300
1FE200
05C7F8
0787E0
7FFE40
0F3BC0
0D4180
1923E0
673C38
C1781C
07FF00
068100
06E700
063300
060000
07FFF0
060030
000630
7FFF20
0003E0
0000E0
ENDCHAR
STARTCHAR U+9ED1
ENCODING 40657
SWIDTH 500 0
DWIDTH 24 0
BBX 21 21 2 -2
BITMAP
000080
3FFFC0
3C60C0
366680
176D80
1B6980
197F80
1FFF80
1E6000
006000
1FFF80
0FE000
006000
0067F0
FFFFF0
700000
3231C0
6318E0
E18C70
C18E38
808618
ENDCHAR
STARTCHAR U+FF08
ENCODING 65288
SWIDTH 500 0
DWIDTH 24 0
BBX 5 22 17 -2
BITMAP
08
18
10
30
20
60
60
C0
C0
C0
C0
C0
C0
C0
C0
60
60
60
30
10
18
08
ENDCHAR
STARTCHAR U+FF09
ENCODING 65289
SWIDTH 500 0
DWIDTH 24 0
BBX 5 22 2 -2
BITMAP
80
C0
40
60
20
30
30
18
18
18
18
18
18
18
18
30
30
30
60
40
C0
80
ENDCHAR
STARTCHAR U+FF0C
ENCODING 65292
SWIDTH 500 0
DWIDTH 24 0
BBX 3 5 3 -2
BITMAP
E0
E0
60
C0
80
ENDCHAR
STARTCHAR U+FF1A
ENCODING 65306
SWIDTH 500 0
DWIDTH 24 0
BBX 3 12 4 0
BITMAP
40
E0
60
00
00
00
00
00
00
40
E0
60
ENDCHAR
ENDFONT
