STARTFONT 2.1
FONT u8g2_font_wqy6_t_lunar
SIZE 12 75 75
FONTBOUNDINGBOX 10 12 0 -3
STARTPROPERTIES 3
PIXEL_SIZE 12
FONT_ASCENT 9
FONT_DESCENT 3
ENDPROPERTIES
CHARS 45
STARTCHAR U+4E00
ENCODING 19968
SWIDTH 500 0
DWIDTH 9 0
BBX 9 1 0 3
BITMAP
FF80
ENDCHAR
STARTCHAR U+4E01
ENCODING 19969
SWIDTH 500 0
DWIDTH 9 0
BBX 9 9 0 -3
BITMAP
FF80
0800
0800
0800
0800
0800
0800
0800
1800
ENDCHAR
STARTCHAR U+4E09
ENCODING 19977
SWIDTH 500 0
DWIDTH 9 0
BBX 9 9 0 -1
BITMAP
7F80
0000
0000
0000
7F00
0000
0000
0000
FF80
ENDCHAR
STARTCHAR U+4E11
ENCODING 19985
SWIDTH 500 0
DWIDTH 10 0
BBX 10 9 0 -1
BITMAP
7F00
1100
1100
1100
7F00
1100
1100
1100
FFC0
ENDCHAR
STARTCHAR U+4E19
ENCODING 19993
SWIDTH 500 0
DWIDTH 10 0
BBX 10 9 0 -3
BITMAP
FFC0
0800
7F80
4880
4C80
5280
6080
4080
4180
ENDCHAR
STARTCHAR U+4E2D
ENCODING 20013
SWIDTH 500 0
DWIDTH 9 0
BBX 9 10 0 -2
BITMAP
0800
0800
FF80
8880
8880
FF80
0800
0800
0800
0800
ENDCHAR
STARTCHAR U+4E59
ENCODING 20057
SWIDTH 500 0
DWIDTH 9 0
BBX 9 9 0 -1
BITMAP
FE00
0400
0800
1000
3000
2000
4080
8080
7F80
ENDCHAR
STARTCHAR U+4E5D
ENCODING 20061
SWIDTH 500 0
DWIDTH 9 0
BBX 9 9 0 -3
BITMAP
1000
1000
7C00
1400
1400
1400
2400
2480
C780
ENDCHAR
STARTCHAR U+4E8C
ENCODING 20108
SWIDTH 500 0
DWIDTH 9 0
BBX 9 7 0 -1
BITMAP
7F00
0000
0000
0000
0000
0000
FF80
ENDCHAR
STARTCHAR U+4E94
ENCODING 20116
SWIDTH 500 0
DWIDTH 9 0
BBX 9 9 0 -1
BITMAP
FF80
1000
1000
7E00
1200
1200
1200
1200
FF80
ENDCHAR
STARTCHAR U+4F11
ENCODING 20241
SWIDTH 500 0
DWIDTH 9 0
BBX 9 9 0 0
BITMAP
2400
4400
5F80
4C00
CE00
5600
5500
6480
4400
ENDCHAR
STARTCHAR U+516B
ENCODING 20843
SWIDTH 500 0
DWIDTH 10 0
BBX 10 9 0 -2
BITMAP
0400
1400
1400
1400
2200
2200
2100
4100
C0C0
ENDCHAR
STARTCHAR U+521D
ENCODING 21021
SWIDTH 500 0
DWIDTH 10 0
BBX 9 10 0 -2
BITMAP
2000
2F80
7480
2480
3480
7480
A480
2880
2880
3380
ENDCHAR
STARTCHAR U+52A8
ENCODING 21160
SWIDTH 500 0
DWIDTH 9 0
BBX 9 9 0 -2
BITMAP
0200
7A00
0780
FA80
2280
5280
5A80
2480
1980
ENDCHAR
STARTCHAR U+5341
ENCODING 21313
SWIDTH 500 0
DWIDTH 9 0
BBX 9 9 0 -1
BITMAP
0800
0800
0800
FF80
0800
0800
0800
0800
0800
ENDCHAR
STARTCHAR U+5348
ENCODING 21320
SWIDTH 500 0
DWIDTH 9 0
BBX 9 9 0 -1
BITMAP
2000
7F00
4800
8800
FF80
0800
0800
0800
0800
ENDCHAR
STARTCHAR U+536F
ENCODING 21359
SWIDTH 500 0
DWIDTH 10 0
BBX 9 10 0 -2
BITMAP
0800
7780
4480
5480
5480
7480
5480
2780
C400
0400
ENDCHAR
STARTCHAR U+5468
ENCODING 21608
SWIDTH 500 0
DWIDTH 10 0
BBX 9 9 0 -3
BITMAP
7F80
5E80
4880
7E80
5C80
5480
5C80
4080
8380
ENDCHAR
STARTCHAR U+56DB
ENCODING 22235
SWIDTH 500 0
DWIDTH 10 0
BBX 8 9 1 -2
BITMAP
FF
A9
A9
A9
A9
CF
81
FF
81
ENDCHAR
STARTCHAR U+590F
ENCODING 22799
SWIDTH 500 0
DWIDTH 10 0
BBX 8 9 1 -2
BITMAP
FF
7E
7E
7E
7E
3E
DC
3C
C3
ENDCHAR
STARTCHAR U+5927
ENCODING 22823
SWIDTH 500 0
DWIDTH 9 0
BBX 9 9 0 -1
BITMAP
0800
0800
FF80
0800
0C00
1400
1200
2100
C080
ENDCHAR
STARTCHAR U+5929
ENCODING 22825
SWIDTH 500 0
DWIDTH 9 0
BBX 9 9 0 -2
BITMAP
7F00
0800
0800
FF80
0800
1400
1200
2300
C080
ENDCHAR
STARTCHAR U+5934
ENCODING 22836
SWIDTH 500 0
DWIDTH 9 0
BBX 9 10 0 -2
BITMAP
0800
2800
0800
4800
2800
FF80
0C00
1200
6100
8000
ENDCHAR
STARTCHAR U+5B50
ENCODING 23376
SWIDTH 500 0
DWIDTH 10 0
BBX 10 9 0 -3
BITMAP
7F00
0600
0C00
0800
FFC0
0800
0800
0800
1800
ENDCHAR
STARTCHAR U+5BC5
ENCODING 23493
SWIDTH 500 0
DWIDTH 9 0
BBX 9 9 0 -1
BITMAP
0800
FF80
8080
FE80
7E00
4A00
7E00
7E00
6300
ENDCHAR
STARTCHAR U+5BD2
ENCODING 23506
SWIDTH 500 0
DWIDTH 9 0
BBX 8 10 0 -1
BITMAP
18
FF
A5
7E
7E
FF
32
49
10
0C
ENDCHAR
STARTCHAR U+5C0F
ENCODING 23567
SWIDTH 500 0
DWIDTH 9 0
BBX 9 9 0 -1
BITMAP
0800
0800
2A00
2A00
4900
4900
8880
0800
1800
ENDCHAR
STARTCHAR U+5E74
ENCODING 24180
SWIDTH 500 0
DWIDTH 10 0
BBX 10 9 0 0
BITMAP
2000
3F80
4400
BF80
2400
FFC0
0400
0400
0400
ENDCHAR
STARTCHAR U+5EFF
ENCODING 24319
SWIDTH 500 0
DWIDTH 9 0
BBX 9 10 0 -2
BITMAP
2200
2200
2200
FF80
2200
2200
2200
2200
3E00
2200
ENDCHAR
STARTCHAR U+65E5
ENCODING 26085
SWIDTH 500 0
DWIDTH 9 0
BBX 6 8 1 -2
BITMAP
FC
84
84
FC
84
84
FC
84
ENDCHAR
STARTCHAR U+660E
ENCODING 26126
SWIDTH 500 0
DWIDTH 9 0
BBX 8 9 0 -3
BITMAP
FF
99
9F
F9
9F
99
F9
11
27
ENDCHAR
STARTCHAR U+6708
ENCODING 26376
SWIDTH 500 0
DWIDTH 9 0
BBX 7 9 0 -3
BITMAP
3E
22
3E
22
3E
22
22
42
C6
ENDCHAR
STARTCHAR U+671F
ENCODING 26399
SWIDTH 500 0
DWIDTH 9 0
BBX 9 10 0 -2
BITMAP
5380
FA80
5280
7380
7280
5380
FA80
5280
5480
8980
ENDCHAR
STARTCHAR U+672A
ENCODING 26410
SWIDTH 500 0
DWIDTH 9 0
BBX 9 10 0 -2
BITMAP
0800
0800
7F00
0800
FF80
1C00
1C00
6B00
8980
0800
ENDCHAR
STARTCHAR U+6B63
ENCODING 27491
SWIDTH 500 0
DWIDTH 10 0
BBX 10 9 0 -1
BITMAP
7F80
0400
0400
2400
2780
2400
2400
2400
FFC0
ENDCHAR
STARTCHAR U+6E05
ENCODING 28165
SWIDTH 500 0
DWIDTH 10 0
BBX 10 10 0 -1
BITMAP
0200
5FC0
2200
8F80
7FC0
2F80
4F80
4F80
4880
0980
ENDCHAR
STARTCHAR U+6EE1
ENCODING 28385
SWIDTH 500 0
DWIDTH 10 0
BBX 10 10 0 -2
BITMAP
0A00
5F80
2A00
9FC0
6A00
3F80
5A80
5D80
5480
1180
ENDCHAR
STARTCHAR U+73ED
ENCODING 29677
SWIDTH 500 0
DWIDTH 9 0
BBX 9 10 0 -2
BITMAP
0800
EF80
4A00
5A00
FF00
4A00
4A00
7200
9780
6000
ENDCHAR
STARTCHAR U+7532
ENCODING 30002
SWIDTH 500 0
DWIDTH 9 0
BBX 8 9 0 -3
BITMAP
FF
89
FF
89
FF
89
08
08
08
ENDCHAR
STARTCHAR U+7ACB
ENCODING 31435
SWIDTH 500 0
DWIDTH 9 0
BBX 9 8 0 0
BITMAP
0800
7F00
2200
2200
2400
1400
0400
FF80
ENDCHAR
STARTCHAR U+8C37
ENCODING 35895
SWIDTH 500 0
DWIDTH 9 0
BBX 9 9 0 -1
BITMAP
1600
2900
C800
1400
2200
FF00
A280
2200
3E00
ENDCHAR
STARTCHAR U+96E8
ENCODING 38632
SWIDTH 500 0
DWIDTH 9 0
BBX 9 9 0 -2
BITMAP
FF80
0800
7F00
4900
4900
4D00
4900
4900
4B00
ENDCHAR
STARTCHAR U+971C
ENCODING 38684
SWIDTH 500 0
DWIDTH 9 0
BBX 9 9 0 -2
BITMAP
7F00
FF80
BE80
3E00
2F00
6F00
7900
7F00
2F00
ENDCHAR
STARTCHAR U+9732
ENCODING 38706
SWIDTH 500 0
DWIDTH 9 0
BBX 9 9 0 -3
BITMAP
FF80
EE80
6F00
EF00
AA00
F600
FF80
C900
CF00
ENDCHAR
STARTCHAR U+9A6C
ENCODING 39532
SWIDTH 500 0
DWIDTH 9 0
BBX 9 9 0 -2
BITMAP
3E00
2200
2200
2200
3F80
0080
FE80
0080
0380
ENDCHAR
ENDFONT
