STARTFONT 2.1
FONT u8g2_font_helvB14_tn
SIZE 17 75 75
FONTBOUNDINGBOX 9 17 0 -3
STARTPROPERTIES 3
PIXEL_SIZE 17
FONT_ASCENT 14
FONT_DESCENT 3
ENDPROPERTIES
CHARS 18
STARTCHAR U+0020
ENCODING 32
SWIDTH 500 0
DWIDTH 5 0
BBX 0 0 0 1
BITMAP
ENDCHAR
STARTCHAR U+002A
ENCODING 42
SWIDTH 500 0
DWIDTH 9 0
BBX 7 6 1 8
BITMAP
10
D6
7C
38
6C
44
ENDCHAR
STARTCHAR U+002B
ENCODING 43
SWIDTH 500 0
DWIDTH 11 0
BBX 8 8 1 1
BITMAP
18
18
18
FF
FF
18
18
18
ENDCHAR
STARTCHAR U+002C
ENCODING 44
SWIDTH 500 0
DWIDTH 5 0
BBX 3 6 1 -3
BITMAP
E0
E0
E0
60
C0
80
ENDCHAR
STARTCHAR U+002D
ENCODING 45
SWIDTH 500 0
DWIDTH 6 0
BBX 5 3 0 4
BITMAP
F8
F8
F8
ENDCHAR
STARTCHAR U+002E
ENCODING 46
SWIDTH 500 0
DWIDTH 5 0
BBX 3 3 1 0
BITMAP
E0
E0
E0
ENDCHAR
STARTCHAR U+002F
ENCODING 47
SWIDTH 500 0
DWIDTH 5 0
BBX 5 14 0 0
BITMAP
18
18
18
38
30
30
30
70
60
60
E0
C0
C0
C0
ENDCHAR
STARTCHAR U+0030
ENCODING 48
SWIDTH 500 0
DWIDTH 10 0
BBX 9 13 0 0
BITMAP
1C00
7F00
7700
E380
E380
E380
E380
E380
E380
E380
7700
7F00
1C00
ENDCHAR
STARTCHAR U+0031
ENCODING 49
SWIDTH 500 0
DWIDTH 10 0
BBX 6 13 1 0
BITMAP
1C
3C
FC
FC
1C
1C
1C
1C
1C
1C
1C
1C
1C
ENDCHAR
STARTCHAR U+0032
ENCODING 50
SWIDTH 500 0
DWIDTH 10 0
BBX 9 13 0 0
BITMAP
3E00
7F00
E380
E380
0380
0700
1F00
3E00
7800
7000
E000
FF80
FF80
ENDCHAR
STARTCHAR U+0033
ENCODING 51
SWIDTH 500 0
DWIDTH 10 0
BBX 9 13 0 0
BITMAP
3E00
7F00
E700
E300
0700
1E00
1F00
0780
0380
E380
E780
7F00
3E00
ENDCHAR
STARTCHAR U+0034
ENCODING 52
SWIDTH 500 0
DWIDTH 10 0
BBX 9 13 0 0
BITMAP
0700
0F00
1F00
3F00
3700
7700
6700
E700
FF80
FF80
0700
0700
0700
ENDCHAR
STARTCHAR U+0035
ENCODING 53
SWIDTH 500 0
DWIDTH 10 0
BBX 9 13 0 0
BITMAP
FF00
FF00
E000
E000
FE00
FF00
E780
0380
0380
E380
E780
FF00
7E00
ENDCHAR
STARTCHAR U+0036
ENCODING 54
SWIDTH 500 0
DWIDTH 10 0
BBX 9 13 0 0
BITMAP
3F00
7F80
7180
E000
EE00
FF00
F380
E180
E180
E180
F380
7F00
3E00
ENDCHAR
STARTCHAR U+0037
ENCODING 55
SWIDTH 500 0
DWIDTH 10 0
BBX 9 13 0 0
BITMAP
FF80
FF80
0380
0700
0E00
0E00
1C00
1C00
3800
3800
7000
7000
7000
ENDCHAR
STARTCHAR U+0038
ENCODING 56
SWIDTH 500 0
DWIDTH 10 0
BBX 9 13 0 0
BITMAP
3E00
7F00
E380
E380
E380
7F00
3E00
7700
E380
E380
E380
7F00
3E00
ENDCHAR
STARTCHAR U+0039
ENCODING 57
SWIDTH 500 0
DWIDTH 10 0
BBX 9 13 0 0
BITMAP
3E00
7F00
E780
C380
C380
C380
E780
7F80
3B80
0380
C700
FF00
7E00
ENDCHAR
STARTCHAR U+003A
ENCODING 58
SWIDTH 500 0
DWIDTH 6 0
BBX 3 10 1 0
BITMAP
E0
E0
E0
00
00
00
00
E0
E0
E0
ENDCHAR
ENDFONT
