STARTFONT 2.1
FONT -wenquanyi-wenquanyi bitmap song-medium-r-normal--12-120-75-75-P-119-ISO10646-1
COMMENT ========================================================== 
COMMENT                Wen Quan Yi Bitmap Song 
COMMENT ----------------------------------------------------------
COMMENT Summary:
COMMENT 
COMMENT     	Authors  : WenQuanYi Contributors
COMMENT     	Webpage  : http://wenq.org/en/
COMMENT     	Font Name: WenQuanYi Bitmap Song
COMMENT     	Version  : 0.9.9.8
COMMENT     	Release  : 8
COMMENT     	Copyright: (C)2004-2010, WenQuanYi Project 
COMMENT     		   Board of Trustees and Qianqian Fang
COMMENT     	License  : GPL v2 (with font embedding exception)
COMMENT 
COMMENT           May the Font be with you, forever!
COMMENT ----------------------------------------------------------
COMMENT WenQuanYi bitmap fonts include all 20,932 Unicode 5.2 
COMMENT CJK Unified Ideographs (U4E00 - U9FA5) and 6,582 
COMMENT CJK Extension A characters (U3400 - U4DB5) at 
COMMENT 5 different pixel sizes (9pt-12X12, 10pt-13X13, 
COMMENT 10.5pt-14x14, 11pt-15X15 and 12pt-16x16 pixel).
COMMENT Use of this bitmap font for on-screen display of Chinese 
COMMENT (traditional and simplified) in web pages and elsewhere 
COMMENT eliminates the annoying "blurring" problems caused by 
COMMENT insufficient "hinting" of anti-aliased vector CJK fonts. 
COMMENT In addition, Latin characters, Japanese Kanas and 
COMMENT Korean Hangul glyphs (U+AC00~U+D7A3) are also included.
COMMENT ----------------------------------------------------------
COMMENT WenQuanYi Contributors:
COMMENT 
COMMENT Project Maintainer: Qianqian Fang(fangq<at>nmr.mgh.harvard.edu)
COMMENT
COMMENT Major contributors: wanghong, tchaikov,ailantian,niqiu,fiag
COMMENT                     caiqian,fundawang
COMMENT Other contributors: activeion,amadeoh,BabyPBC,BenBear,  
COMMENT                     brep,chaoslawful,DannyZeng,farm,fiag,keykeen,
COMMENT                     liyi,lucifer,nilarcs,niqiu,pangwa,pathfinder,
COMMENT                     pinker,PONY,pupilzeng,shhky,stid,wuler.lv,
COMMENT                     xnuxmwx,namespace,leftstand,MarkLam,buick,
COMMENT                     liqian,qinling,Seeker,xiaoma,ZaiJianQingRen,
COMMENT 		    SiCengXiangShi,the_owl,whppc,eka,failsafe,
COMMENT                     musiccow,Blueelf,lenovox,udi,leal
COMMENT ----------------------------------------------------------
COMMENT This file: WenQuanYi Bitmap Song 9pt medium
COMMENT Created by Qianqian Fang (fangq<at>nmr.mgh.harvard.edu)
COMMENT ----------------------------------------------------------
SIZE 12 75 75
FONTBOUNDINGBOX 12 14 0 -3
STARTPROPERTIES 27
FONT_NAME "WenQuanYi Bitmap Song"
FONT_ASCENT 12
FONT_DESCENT 3
UNDERLINE_POSITION -3
UNDERLINE_THICKNESS 1
QUAD_WIDTH 12
X_HEIGHT 5
CAP_HEIGHT 7
FONTNAME_REGISTRY ""
FAMILY_NAME "WenQuanYi Bitmap Song"
FOUNDRY "WenQuanYi"
WEIGHT_NAME "Medium"
SETWIDTH_NAME "Normal"
SLANT "R"
ADD_STYLE_NAME ""
FONT_VERSION "000.998"
PIXEL_SIZE 12
POINT_SIZE 120
DEFAULT_CHAR 0
RESOLUTION_X 75
RESOLUTION_Y 75
RESOLUTION 75
SPACING "P"
AVERAGE_WIDTH 119
CHARSET_REGISTRY "ISO10646"
CHARSET_ENCODING "1"
CHARSET_COLLECTIONS "ASCII ISO8859-5 GB2312.1980 BIG5-0 KSC5601.1989-0 JISX0208.1997 ISO10646-1"
ENDPROPERTIES
CHARS 219
STARTCHAR U_0020
ENCODING 32
SWIDTH 500 0
DWIDTH 6 0
BBX 1 1 0 0
BITMAP
00
ENDCHAR
STARTCHAR exclam
ENCODING 33
SWIDTH 500 0
DWIDTH 6 0
BBX 1 9 2 0
BITMAP
80
80
80
80
80
80
00
00
80
ENDCHAR
STARTCHAR quotedbl
ENCODING 34
SWIDTH 583 0
DWIDTH 6 0
BBX 4 3 1 7
BITMAP
90
90
90
ENDCHAR
STARTCHAR numbersign
ENCODING 35
SWIDTH 500 0
DWIDTH 7 0
BBX 6 9 0 0
BITMAP
48
48
FC
48
48
48
FC
48
48
ENDCHAR
STARTCHAR dollar
ENCODING 36
SWIDTH 500 0
DWIDTH 6 0
BBX 5 10 0 -1
BITMAP
20
70
A8
A0
60
30
28
A8
70
20
ENDCHAR
STARTCHAR percent
ENCODING 37
SWIDTH 416 0
DWIDTH 6 0
BBX 6 9 0 -1
BITMAP
48
A8
B0
50
20
28
54
54
88
ENDCHAR
STARTCHAR ampersand
ENCODING 38
SWIDTH 500 0
DWIDTH 6 0
BBX 5 8 0 0
BITMAP
20
50
50
20
58
90
90
68
ENDCHAR
STARTCHAR quotesingle
ENCODING 39
SWIDTH 500 0
DWIDTH 5 0
BBX 1 3 2 7
BITMAP
80
80
80
ENDCHAR
STARTCHAR parenleft
ENCODING 40
SWIDTH 500 0
DWIDTH 6 0
BBX 3 11 1 -1
BITMAP
20
40
40
80
80
80
80
80
40
40
20
ENDCHAR
STARTCHAR parenright
ENCODING 41
SWIDTH 500 0
DWIDTH 6 0
BBX 3 11 1 -1
BITMAP
80
40
40
20
20
20
20
20
40
40
80
ENDCHAR
STARTCHAR asterisk
ENCODING 42
SWIDTH 666 0
DWIDTH 6 0
BBX 5 7 0 0
BITMAP
20
A8
70
F8
70
A8
20
ENDCHAR
STARTCHAR plus
ENCODING 43
SWIDTH 500 0
DWIDTH 8 0
BBX 7 7 0 0
BITMAP
10
10
10
FE
10
10
10
ENDCHAR
STARTCHAR comma
ENCODING 44
SWIDTH 500 0
DWIDTH 6 0
BBX 2 3 2 -1
BITMAP
C0
40
80
ENDCHAR
STARTCHAR hyphen
ENCODING 45
SWIDTH 416 0
DWIDTH 6 0
BBX 5 1 0 4
BITMAP
F8
ENDCHAR
STARTCHAR period
ENCODING 46
SWIDTH 500 0
DWIDTH 5 0
BBX 1 2 2 0
BITMAP
80
80
ENDCHAR
STARTCHAR U_002F
ENCODING 47
SWIDTH 1000 0
DWIDTH 6 0
BBX 4 12 0 -1
BITMAP
10
10
10
20
20
20
40
40
40
80
80
80
ENDCHAR
STARTCHAR zero
ENCODING 48
SWIDTH 636 0
DWIDTH 6 0
BBX 5 8 0 0
BITMAP
70
88
88
88
88
88
88
70
ENDCHAR
STARTCHAR one
ENCODING 49
SWIDTH 500 0
DWIDTH 6 0
BBX 5 8 0 0
BITMAP
E0
20
20
20
20
20
20
F8
ENDCHAR
STARTCHAR two
ENCODING 50
SWIDTH 500 0
DWIDTH 6 0
BBX 5 8 0 0
BITMAP
70
88
08
08
10
20
40
F8
ENDCHAR
STARTCHAR three
ENCODING 51
SWIDTH 500 0
DWIDTH 6 0
BBX 5 8 0 0
BITMAP
F0
08
08
70
08
08
08
F0
ENDCHAR
STARTCHAR four
ENCODING 52
SWIDTH 500 0
DWIDTH 7 0
BBX 6 8 0 0
BITMAP
18
28
48
48
88
FC
08
08
ENDCHAR
STARTCHAR five
ENCODING 53
SWIDTH 500 0
DWIDTH 6 0
BBX 5 8 0 0
BITMAP
F0
80
80
F0
08
08
08
F0
ENDCHAR
STARTCHAR six
ENCODING 54
SWIDTH 500 0
DWIDTH 6 0
BBX 5 8 0 0
BITMAP
70
80
80
F0
88
88
88
70
ENDCHAR
STARTCHAR seven
ENCODING 55
SWIDTH 666 0
DWIDTH 6 0
BBX 5 8 0 0
BITMAP
F8
08
08
10
10
20
20
20
ENDCHAR
STARTCHAR eight
ENCODING 56
SWIDTH 684 0
DWIDTH 6 0
BBX 5 8 0 0
BITMAP
70
88
88
70
88
88
88
70
ENDCHAR
STARTCHAR nine
ENCODING 57
SWIDTH 686 0
DWIDTH 6 0
BBX 5 8 0 0
BITMAP
70
88
88
88
78
08
88
70
ENDCHAR
STARTCHAR U_003A
ENCODING 58
SWIDTH 500 0
DWIDTH 2 0
BBX 1 7 0 0
BITMAP
00
80
80
00
00
80
80
ENDCHAR
STARTCHAR semicolon
ENCODING 59
SWIDTH 500 0
DWIDTH 6 0
BBX 2 8 2 -1
BITMAP
C0
C0
00
00
00
C0
40
80
ENDCHAR
STARTCHAR less
ENCODING 60
SWIDTH 500 0
DWIDTH 6 0
BBX 5 9 0 0
BITMAP
08
10
20
40
80
40
20
10
08
ENDCHAR
STARTCHAR equal
ENCODING 61
SWIDTH 500 0
DWIDTH 6 0
BBX 5 3 0 3
BITMAP
F8
00
F8
ENDCHAR
STARTCHAR greater
ENCODING 62
SWIDTH 500 0
DWIDTH 6 0
BBX 5 9 0 0
BITMAP
80
40
20
10
08
10
20
40
80
ENDCHAR
STARTCHAR question
ENCODING 63
SWIDTH 583 0
DWIDTH 6 0
BBX 5 9 0 0
BITMAP
70
88
88
08
30
20
00
20
20
ENDCHAR
STARTCHAR at
ENCODING 64
SWIDTH 333 0
DWIDTH 8 0
BBX 7 10 0 -1
BITMAP
38
44
B2
8A
9A
AA
AA
96
44
38
ENDCHAR
STARTCHAR A
ENCODING 65
SWIDTH 294 0
DWIDTH 8 0
BBX 7 8 0 0
BITMAP
10
10
28
28
44
7C
82
82
ENDCHAR
STARTCHAR B
ENCODING 66
SWIDTH 500 0
DWIDTH 7 0
BBX 6 8 0 0
BITMAP
F8
84
84
F8
84
84
84
F8
ENDCHAR
STARTCHAR C
ENCODING 67
SWIDTH 557 0
DWIDTH 7 0
BBX 6 8 0 0
BITMAP
78
84
80
80
80
80
84
78
ENDCHAR
STARTCHAR D
ENCODING 68
SWIDTH 666 0
DWIDTH 8 0
BBX 7 8 0 0
BITMAP
F8
84
82
82
82
82
84
F8
ENDCHAR
STARTCHAR E
ENCODING 69
SWIDTH 583 0
DWIDTH 6 0
BBX 5 8 0 0
BITMAP
F8
80
80
F8
80
80
80
F8
ENDCHAR
STARTCHAR F
ENCODING 70
SWIDTH 666 0
DWIDTH 6 0
BBX 5 8 0 0
BITMAP
F8
80
80
F0
80
80
80
80
ENDCHAR
STARTCHAR G
ENCODING 71
SWIDTH 500 0
DWIDTH 7 0
BBX 6 8 0 0
BITMAP
78
84
80
80
8C
84
84
7C
ENDCHAR
STARTCHAR H
ENCODING 72
SWIDTH 666 0
DWIDTH 7 0
BBX 6 8 0 0
BITMAP
84
84
84
FC
84
84
84
84
ENDCHAR
STARTCHAR I
ENCODING 73
SWIDTH 500 0
DWIDTH 4 0
BBX 3 8 0 0
BITMAP
E0
40
40
40
40
40
40
E0
ENDCHAR
STARTCHAR J
ENCODING 74
SWIDTH 500 0
DWIDTH 4 0
BBX 3 10 0 -2
BITMAP
20
20
20
20
20
20
20
20
20
C0
ENDCHAR
STARTCHAR K
ENCODING 75
SWIDTH 610 0
DWIDTH 6 0
BBX 5 8 0 0
BITMAP
88
90
A0
C0
C0
A0
90
88
ENDCHAR
STARTCHAR L
ENCODING 76
SWIDTH 583 0
DWIDTH 6 0
BBX 5 8 0 0
BITMAP
80
80
80
80
80
80
80
F8
ENDCHAR
STARTCHAR M
ENCODING 77
SWIDTH 666 0
DWIDTH 8 0
BBX 7 8 0 0
BITMAP
C6
C6
AA
AA
92
92
82
82
ENDCHAR
STARTCHAR N
ENCODING 78
SWIDTH 833 0
DWIDTH 7 0
BBX 6 8 0 0
BITMAP
84
C4
A4
94
8C
84
84
84
ENDCHAR
STARTCHAR O
ENCODING 79
SWIDTH 583 0
DWIDTH 8 0
BBX 7 8 0 0
BITMAP
38
44
82
82
82
82
44
38
ENDCHAR
STARTCHAR P
ENCODING 80
SWIDTH 666 0
DWIDTH 6 0
BBX 5 8 0 0
BITMAP
F0
88
88
88
F0
80
80
80
ENDCHAR
STARTCHAR Q
ENCODING 81
SWIDTH 666 0
DWIDTH 8 0
BBX 7 9 0 -1
BITMAP
38
44
82
82
82
82
44
38
04
ENDCHAR
STARTCHAR R
ENCODING 82
SWIDTH 500 0
DWIDTH 7 0
BBX 6 8 0 0
BITMAP
F0
88
88
88
F0
90
88
84
ENDCHAR
STARTCHAR S
ENCODING 83
SWIDTH 500 0
DWIDTH 6 0
BBX 5 8 0 0
BITMAP
78
80
80
70
08
08
08
F0
ENDCHAR
STARTCHAR T
ENCODING 84
SWIDTH 500 0
DWIDTH 8 0
BBX 7 8 0 0
BITMAP
FE
10
10
10
10
10
10
10
ENDCHAR
STARTCHAR U
ENCODING 85
SWIDTH 500 0
DWIDTH 7 0
BBX 6 8 0 0
BITMAP
84
84
84
84
84
84
84
78
ENDCHAR
STARTCHAR V
ENCODING 86
SWIDTH 500 0
DWIDTH 8 0
BBX 7 8 0 0
BITMAP
82
82
44
44
28
28
10
10
ENDCHAR
STARTCHAR W
ENCODING 87
SWIDTH 500 0
DWIDTH 10 0
BBX 9 8 0 0
BITMAP
8880
8880
8880
5500
5500
5500
2200
2200
ENDCHAR
STARTCHAR X
ENCODING 88
SWIDTH 500 0
DWIDTH 7 0
BBX 6 8 0 0
BITMAP
84
84
48
30
48
48
84
84
ENDCHAR
STARTCHAR Y
ENCODING 89
SWIDTH 500 0
DWIDTH 8 0
BBX 7 8 0 0
BITMAP
82
44
28
10
10
10
10
10
ENDCHAR
STARTCHAR Z
ENCODING 90
SWIDTH 416 0
DWIDTH 8 0
BBX 7 8 0 0
BITMAP
FE
04
08
10
20
40
80
FE
ENDCHAR
STARTCHAR bracketleft
ENCODING 91
SWIDTH 500 0
DWIDTH 6 0
BBX 3 11 2 -1
BITMAP
E0
80
80
80
80
80
80
80
80
80
E0
ENDCHAR
STARTCHAR backslash
ENCODING 92
SWIDTH 500 0
DWIDTH 6 0
BBX 5 10 0 -1
BITMAP
80
80
40
40
20
20
10
10
08
08
ENDCHAR
STARTCHAR bracketright
ENCODING 93
SWIDTH 500 0
DWIDTH 6 0
BBX 3 11 1 -1
BITMAP
E0
20
20
20
20
20
20
20
20
20
E0
ENDCHAR
STARTCHAR asciicircum
ENCODING 94
SWIDTH 500 0
DWIDTH 6 0
BBX 5 3 0 6
BITMAP
20
50
88
ENDCHAR
STARTCHAR underscore
ENCODING 95
SWIDTH 500 0
DWIDTH 6 0
BBX 5 1 0 -1
BITMAP
F8
ENDCHAR
STARTCHAR U_0060
ENCODING 96
SWIDTH 500 0
DWIDTH 5 0
BBX 2 3 1 7
BITMAP
80
80
40
ENDCHAR
STARTCHAR a
ENCODING 97
SWIDTH 277 0
DWIDTH 6 0
BBX 5 6 0 0
BITMAP
70
88
78
88
88
78
ENDCHAR
STARTCHAR b
ENCODING 98
SWIDTH 416 0
DWIDTH 6 0
BBX 5 8 0 0
BITMAP
80
80
F0
88
88
88
88
F0
ENDCHAR
STARTCHAR c
ENCODING 99
SWIDTH 166 0
DWIDTH 5 0
BBX 4 6 0 0
BITMAP
70
80
80
80
80
70
ENDCHAR
STARTCHAR d
ENCODING 100
SWIDTH 833 0
DWIDTH 6 0
BBX 5 8 0 0
BITMAP
08
08
78
88
88
88
88
78
ENDCHAR
STARTCHAR e
ENCODING 101
SWIDTH 500 0
DWIDTH 6 0
BBX 5 6 0 0
BITMAP
70
88
F8
80
80
78
ENDCHAR
STARTCHAR f
ENCODING 102
SWIDTH 500 0
DWIDTH 4 0
BBX 3 8 0 0
BITMAP
60
80
E0
80
80
80
80
80
ENDCHAR
STARTCHAR g
ENCODING 103
SWIDTH 500 0
DWIDTH 6 0
BBX 5 8 0 -2
BITMAP
78
88
88
88
88
78
08
70
ENDCHAR
STARTCHAR h
ENCODING 104
SWIDTH 500 0
DWIDTH 6 0
BBX 5 8 0 0
BITMAP
80
80
F0
88
88
88
88
88
ENDCHAR
STARTCHAR i
ENCODING 105
SWIDTH 333 0
DWIDTH 2 0
BBX 1 8 0 0
BITMAP
80
00
80
80
80
80
80
80
ENDCHAR
STARTCHAR j
ENCODING 106
SWIDTH 520 0
DWIDTH 3 0
BBX 2 10 0 -2
BITMAP
40
00
40
40
40
40
40
40
40
C0
ENDCHAR
STARTCHAR k
ENCODING 107
SWIDTH 416 0
DWIDTH 6 0
BBX 5 8 0 0
BITMAP
80
80
90
A0
C0
A0
90
88
ENDCHAR
STARTCHAR l
ENCODING 108
SWIDTH 500 0
DWIDTH 2 0
BBX 1 8 0 0
BITMAP
80
80
80
80
80
80
80
80
ENDCHAR
STARTCHAR m
ENCODING 109
SWIDTH 500 0
DWIDTH 8 0
BBX 7 6 0 0
BITMAP
EC
92
92
92
92
92
ENDCHAR
STARTCHAR n
ENCODING 110
SWIDTH 666 0
DWIDTH 6 0
BBX 5 6 0 0
BITMAP
F0
88
88
88
88
88
ENDCHAR
STARTCHAR o
ENCODING 111
SWIDTH 500 0
DWIDTH 6 0
BBX 5 6 0 0
BITMAP
70
88
88
88
88
70
ENDCHAR
STARTCHAR p
ENCODING 112
SWIDTH 500 0
DWIDTH 6 0
BBX 5 8 0 -2
BITMAP
F0
88
88
88
88
F0
80
80
ENDCHAR
STARTCHAR q
ENCODING 113
SWIDTH 500 0
DWIDTH 6 0
BBX 5 8 0 -2
BITMAP
78
88
88
88
88
78
08
08
ENDCHAR
STARTCHAR r
ENCODING 114
SWIDTH 500 0
DWIDTH 4 0
BBX 3 6 0 0
BITMAP
E0
80
80
80
80
80
ENDCHAR
STARTCHAR s
ENCODING 115
SWIDTH 416 0
DWIDTH 6 0
BBX 5 6 0 0
BITMAP
70
88
60
10
88
70
ENDCHAR
STARTCHAR t
ENCODING 116
SWIDTH 500 0
DWIDTH 4 0
BBX 3 8 0 0
BITMAP
80
80
E0
80
80
80
80
60
ENDCHAR
STARTCHAR u
ENCODING 117
SWIDTH 500 0
DWIDTH 6 0
BBX 5 6 0 0
BITMAP
88
88
88
88
88
78
ENDCHAR
STARTCHAR v
ENCODING 118
SWIDTH 500 0
DWIDTH 6 0
BBX 5 6 0 0
BITMAP
88
88
50
50
20
20
ENDCHAR
STARTCHAR w
ENCODING 119
SWIDTH 636 0
DWIDTH 8 0
BBX 7 6 0 0
BITMAP
92
92
AA
AA
44
44
ENDCHAR
STARTCHAR x
ENCODING 120
SWIDTH 500 0
DWIDTH 6 0
BBX 5 6 0 0
BITMAP
88
50
20
50
88
88
ENDCHAR
STARTCHAR y
ENCODING 121
SWIDTH 500 0
DWIDTH 6 0
BBX 5 8 0 -2
BITMAP
88
88
50
50
20
20
40
40
ENDCHAR
STARTCHAR z
ENCODING 122
SWIDTH 500 0
DWIDTH 6 0
BBX 5 6 0 0
BITMAP
F8
08
10
20
40
F8
ENDCHAR
STARTCHAR U_007B
ENCODING 123
SWIDTH 416 0
DWIDTH 4 0
BBX 3 11 0 -1
BITMAP
00
20
40
40
40
80
40
40
40
40
20
ENDCHAR
STARTCHAR bar
ENCODING 124
SWIDTH 500 0
DWIDTH 5 0
BBX 1 11 2 -1
BITMAP
80
80
80
80
80
80
80
80
80
80
80
ENDCHAR
STARTCHAR U_007D
ENCODING 125
SWIDTH 500 0
DWIDTH 4 0
BBX 3 11 0 -1
BITMAP
00
80
40
40
40
20
40
40
40
40
80
ENDCHAR
STARTCHAR U_007E
ENCODING 126
SWIDTH 500 0
DWIDTH 7 0
BBX 6 2 0 3
BITMAP
64
98
ENDCHAR
STARTCHAR U_00B7
ENCODING 183
SWIDTH 500 0
DWIDTH 2 0
BBX 1 1 0 5
BITMAP
80
ENDCHAR
STARTCHAR U_00D7
ENCODING 215
SWIDTH 1000 0
DWIDTH 6 0
BBX 5 12 0 1
BITMAP
00
00
00
00
00
00
00
88
50
20
50
88
ENDCHAR
STARTCHAR U_2460
ENCODING 9312
SWIDTH 1000 0
DWIDTH 12 0
BBX 11 11 0 -1
BITMAP
1F00
2080
4440
8C20
8420
8420
8420
8420
4440
2080
1F00
ENDCHAR
STARTCHAR U_2461
ENCODING 9313
SWIDTH 1000 0
DWIDTH 12 0
BBX 11 11 0 -1
BITMAP
1F00
2080
4E40
9120
8120
8620
8820
9020
5F40
2080
1F00
ENDCHAR
STARTCHAR U_2462
ENCODING 9314
SWIDTH 1000 0
DWIDTH 12 0
BBX 11 11 0 -1
BITMAP
1F00
2080
4E40
9120
8120
8620
8120
9120
4E40
2080
1F00
ENDCHAR
STARTCHAR U_2463
ENCODING 9315
SWIDTH 1000 0
DWIDTH 12 0
BBX 11 11 0 -1
BITMAP
1F00
2080
4440
8C20
9420
A420
BF20
8420
4E40
2080
1F00
ENDCHAR
STARTCHAR U_2464
ENCODING 9316
SWIDTH 1000 0
DWIDTH 12 0
BBX 11 11 0 -1
BITMAP
1F00
2080
5F40
9020
9020
9E20
8120
8120
5E40
2080
1F00
ENDCHAR
STARTCHAR U_3001
ENCODING 12289
SWIDTH 1000 0
DWIDTH 12 0
BBX 11 11 0 -1
BITMAP
0000
0000
0000
0000
0000
0000
0000
8000
6000
2000
0000
ENDCHAR
STARTCHAR U_3002
ENCODING 12290
SWIDTH 1000 0
DWIDTH 12 0
BBX 4 4 3 0
BITMAP
60
90
90
60
ENDCHAR
STARTCHAR U_3010
ENCODING 12304
SWIDTH 1000 0
DWIDTH 12 0
BBX 4 11 2 -1
BITMAP
F0
E0
C0
C0
80
80
80
C0
C0
E0
F0
ENDCHAR
STARTCHAR U_3011
ENCODING 12305
SWIDTH 1000 0
DWIDTH 12 0
BBX 4 11 2 -1
BITMAP
F0
70
30
30
10
10
10
30
30
70
F0
ENDCHAR
STARTCHAR U_4E00
ENCODING 19968
SWIDTH 1000 0
DWIDTH 12 0
BBX 11 11 0 -1
BITMAP 
0000
0000
0000
0000
0040
FFE0
0000
0000
0000
0000
0000
ENDCHAR
STARTCHAR U_4E01
ENCODING 19969
SWIDTH 1000 0
DWIDTH 12 0
BBX 11 11 0 -1
BITMAP 
0000
7FE0
0200
0200
0200
0200
0200
0200
0200
0200
0E00
ENDCHAR
STARTCHAR U_4E09
ENCODING 19977
SWIDTH 1000 0
DWIDTH 12 0
BBX 11 11 0 -1
BITMAP 
0000
7FC0
0000
0000
0000
3F80
0000
0000
0000
0000
FFE0
ENDCHAR
STARTCHAR U_4E0A
ENCODING 19978
SWIDTH 1000 0
DWIDTH 12 0
BBX 11 11 0 -1
BITMAP 
0400
0400
0400
0400
07C0
0400
0400
0400
0400
0400
FFE0
ENDCHAR
STARTCHAR U_4E11
ENCODING 19985
SWIDTH 1000 0
DWIDTH 12 0
BBX 11 11 0 -1
BITMAP 
0000
7F80
0880
0880
0880
7F80
1080
1080
1080
1080
FFE0
ENDCHAR
STARTCHAR U_4E19
ENCODING 19993
SWIDTH 1000 0
DWIDTH 12 0
BBX 11 11 0 -1
BITMAP 
FFE0
0400
0400
7FC0
4440
4640
4940
5040
4040
4040
41C0
ENDCHAR
STARTCHAR U_4E2D
ENCODING 20013
SWIDTH 1000 0
DWIDTH 12 0
BBX 11 11 0 -1
BITMAP 
0400
0400
7FC0
4440
4440
4440
7FC0
4440
0400
0400
0400
ENDCHAR
STARTCHAR U_4E3E
ENCODING 20030
SWIDTH 1000 0
DWIDTH 12 0
BBX 11 11 0 -1
BITMAP 
4840
2480
FFE0
1100
2480
5F40
8420
0400
7FC0
0400
0400
ENDCHAR
STARTCHAR U_4E59
ENCODING 20057
SWIDTH 1000 0
DWIDTH 12 0
BBX 11 11 0 -1
BITMAP 
7FC0
0080
0100
0200
0400
0800
1000
2000
4020
4020
3FE0
ENDCHAR
STARTCHAR U_4E5D
ENCODING 20061
SWIDTH 1000 0
DWIDTH 12 0
BBX 11 11 0 -1
BITMAP 
0800
0800
0800
7F00
0900
0900
0900
1100
1120
2120
40E0
ENDCHAR
STARTCHAR U_4E61
ENCODING 20065
SWIDTH 1000 0
DWIDTH 12 0
BBX 11 11 0 -1
BITMAP 
0400
0800
1100
3E00
0440
0880
3F80
0100
0200
0C00
7000
ENDCHAR
STARTCHAR U_4E8C
ENCODING 20108
SWIDTH 1000 0
DWIDTH 12 0
BBX 11 11 0 -1
BITMAP 
0000
0000
7FC0
0000
0000
0000
0000
0000
0000
FFE0
0000
ENDCHAR
STARTCHAR U_4E94
ENCODING 20116
SWIDTH 1000 0
DWIDTH 12 0
BBX 11 11 0 -1
BITMAP 
0000
7FC0
0400
0400
0400
3F80
0880
0880
0880
0880
FFE0
ENDCHAR
STARTCHAR U_4ECA
ENCODING 20170
SWIDTH 1000 0
DWIDTH 12 0
BBX 11 11 0 -1
BITMAP 
0400
0A00
1100
2480
C260
0000
3F80
0100
0200
0200
0400
ENDCHAR
STARTCHAR U_4F11
ENCODING 20241
SWIDTH 1000 0
DWIDTH 12 0
BBX 11 11 0 -1
BITMAP 
1100
1100
2100
3FE0
6100
A380
2380
2540
2920
3100
2100
ENDCHAR
STARTCHAR U_4F4E
ENCODING 20302
SWIDTH 1000 0
DWIDTH 12 0
BBX 11 11 0 -1
BITMAP 
10C0
1F00
2900
2900
6900
AFE0
2900
2920
2AA0
2D60
28A0
ENDCHAR
STARTCHAR U_4F53
ENCODING 20307
SWIDTH 1000 0
DWIDTH 12 0
BBX 11 11 0 -1
BITMAP 
2200
2200
5FC0
4200
C700
4A80
5240
6220
4F80
4200
4200
ENDCHAR
STARTCHAR U_4FA7
ENCODING 20391
SWIDTH 1000 0
DWIDTH 12 0
BBX 11 11 0 -1
BITMAP 
2020
3F20
5120
55A0
D5A0
55A0
55A0
5520
4620
4920
5060
ENDCHAR
STARTCHAR U_50CF
ENCODING 20687
SWIDTH 1000 0
DWIDTH 12 0
BBX 11 11 0 -1
BITMAP 
13C0
1480
2FE0
3520
67E0
A220
2D40
2280
2DC0
22A0
2D80
ENDCHAR
STARTCHAR U_5149
ENCODING 20809
SWIDTH 1000 0
DWIDTH 12 0
BBX 11 11 0 -1
BITMAP 
0400
4440
2480
0400
FFE0
1200
1200
1220
1220
2220
C1E0
ENDCHAR
STARTCHAR U_516B
ENCODING 20843
SWIDTH 1000 0
DWIDTH 12 0
BBX 11 11 0 -1
BITMAP 
0200
1200
1200
1200
1100
1100
2080
2080
4040
8020
0000
ENDCHAR
STARTCHAR U_519C
ENCODING 20892
SWIDTH 1000 0
DWIDTH 12 0
BBX 11 11 0 -1
BITMAP 
0400
7FE0
4420
8C40
1200
1240
3280
5100
9480
1860
1020
ENDCHAR
STARTCHAR U_51FA
ENCODING 20986
SWIDTH 1000 0
DWIDTH 12 0
BBX 11 11 0 -1
BITMAP 
0400
4440
4440
4440
7FC0
0400
8420
8420
8420
8420
FFE0
ENDCHAR
STARTCHAR U_521D
ENCODING 21021
SWIDTH 1000 0
DWIDTH 12 0
BBX 11 11 0 -1
BITMAP 
4000
27E0
F920
1120
2120
6920
B120
2920
2220
2420
28C0
ENDCHAR
STARTCHAR U_524D
ENCODING 21069
SWIDTH 1000 0
DWIDTH 12 0
BBX 11 11 0 -1
BITMAP 
1080
0900
7FE0
0000
3D40
2540
3D40
2540
3D40
2440
2DC0
ENDCHAR
STARTCHAR U_52A8
ENCODING 21160
SWIDTH 1000 0
DWIDTH 12 0
BBX 11 11 0 -1
BITMAP 
0100
7900
0100
03E0
FD20
2120
2120
4920
FA20
0A20
04C0
ENDCHAR
STARTCHAR U_5341
ENCODING 21313
SWIDTH 1000 0
DWIDTH 12 0
BBX 11 11 0 -1
BITMAP 
0400
0400
0400
0400
FFE0
0400
0400
0400
0400
0400
0400
ENDCHAR
STARTCHAR U_5348
ENCODING 21320
SWIDTH 1000 0
DWIDTH 12 0
BBX 11 11 0 -1
BITMAP 
1000
1FC0
2200
4200
0200
7FE0
0200
0200
0200
0200
0200
ENDCHAR
STARTCHAR U_536F
ENCODING 21359
SWIDTH 1000 0
DWIDTH 12 0
BBX 11 11 0 -1
BITMAP 
0800
73E0
4220
4A20
4A20
4A20
5A20
6AA0
0A40
1200
6200
ENDCHAR
STARTCHAR U_5386
ENCODING 21382
SWIDTH 1000 0
DWIDTH 12 0
BBX 11 11 0 -1
BITMAP 
3FE0
2000
2200
2200
2FE0
2220
2220
2420
4420
4820
90C0
ENDCHAR
STARTCHAR U_539F
ENCODING 21407
SWIDTH 1000 0
DWIDTH 12 0
BBX 11 11 0 -1
BITMAP 
3FE0
2200
2FC0
2840
2FC0
2840
2FC0
2200
2A80
5260
A620
ENDCHAR
STARTCHAR U_53C2
ENCODING 21442
SWIDTH 1000 0
DWIDTH 12 0
BBX 11 11 0 -1
BITMAP 
0800
1100
3F80
0800
FFE0
2480
D860
0600
1880
0300
3C00
ENDCHAR
STARTCHAR U_53F3
ENCODING 21491
SWIDTH 1000 0
DWIDTH 12 0
BBX 11 11 0 -1
BITMAP 
0400
0400
FFE0
0800
1000
1F80
3080
5080
9080
1F80
1080
ENDCHAR
STARTCHAR U_53F7
ENCODING 21495
SWIDTH 1000 0
DWIDTH 12 0
BBX 11 11 0 -1
BITMAP 
3F80
2080
3F80
0000
FFE0
0800
1F80
0080
0080
0480
0300
ENDCHAR
STARTCHAR U_540D
ENCODING 21517
SWIDTH 1000 0
DWIDTH 12 0
BBX 11 11 0 -1
BITMAP 
1000
1FC0
1080
2900
4600
0400
1FC0
F040
1040
1040
1FC0
ENDCHAR
STARTCHAR U_5468
ENCODING 21608
SWIDTH 1000 0
DWIDTH 12 0
BBX 11 11 0 -1
BITMAP 
3FE0
2220
2FA0
2220
3FE0
2020
2FA0
28A0
4FA0
4020
8060
ENDCHAR
STARTCHAR U_56DB
ENCODING 22235
SWIDTH 1000 0
DWIDTH 12 0
BBX 11 11 0 -1
BITMAP 
0000
7FC0
4A40
4A40
4A40
4A40
53C0
6040
4040
7FC0
4040
ENDCHAR
STARTCHAR U_5708
ENCODING 22280
SWIDTH 1000 0
DWIDTH 12 0
BBX 11 11 0 -1
BITMAP 
FFE0
9520
BFA0
8820
BFA0
9120
BEE0
D2A0
9FA0
8020
FFE0
ENDCHAR
STARTCHAR U_571F
ENCODING 22303
SWIDTH 1000 0
DWIDTH 12 0
BBX 11 11 0 -1
BITMAP 
0400
0400
0400
0400
7FC0
0400
0400
0400
0400
0400
FFE0
ENDCHAR
STARTCHAR U_5730
ENCODING 22320
SWIDTH 1000 0
DWIDTH 12 0
BBX 11 11 0 -1
BITMAP 
2100
2500
2540
F5C0
2740
2D40
2540
25C0
3520
C420
03E0
ENDCHAR
STARTCHAR U_590F
ENCODING 22799
SWIDTH 1000 0
DWIDTH 12 0
BBX 11 11 0 -1
BITMAP 
FFE0
0400
1F80
1080
1C80
1780
1080
3F80
4900
8600
39E0
ENDCHAR
STARTCHAR U_5927
ENCODING 22823
SWIDTH 1000 0
DWIDTH 12 0
BBX 11 11 0 -1
BITMAP 
0400
0400
0400
FFE0
0400
0400
0A00
0A00
1100
2080
C060
ENDCHAR
STARTCHAR U_5929
ENCODING 22825
SWIDTH 1000 0
DWIDTH 12 0
BBX 11 11 0 -1
BITMAP 
7FC0
0400
0400
0400
FFE0
0400
0A00
0A00
1100
2080
C060
ENDCHAR
STARTCHAR U_5934
ENCODING 22836
SWIDTH 1000 0
DWIDTH 12 0
BBX 11 11 0 -1
BITMAP 
1200
0A00
2200
1200
0200
FFE0
0200
0500
0880
1040
6020
ENDCHAR
STARTCHAR U_59CB
ENCODING 22987
SWIDTH 1000 0
DWIDTH 12 0
BBX 11 11 0 -1
BITMAP 
2100
2100
FA40
2A20
2FE0
4800
53E0
3220
2A20
4BE0
8220
ENDCHAR
STARTCHAR U_5B50
ENCODING 23376
SWIDTH 1000 0
DWIDTH 12 0
BBX 11 11 0 -1
BITMAP 
3F80
0100
0200
0400
0400
FFE0
0400
0400
0400
1400
0800
ENDCHAR
STARTCHAR U_5B57
ENCODING 23383
SWIDTH 1000 0
DWIDTH 12 0
BBX 11 11 0 -1
BITMAP 
0400
7FE0
4020
9F40
0200
0400
FFE0
0400
0400
0400
1C00
ENDCHAR
STARTCHAR U_5B8B
ENCODING 23435
SWIDTH 1000 0
DWIDTH 12 0
BBX 11 11 0 -1
BITMAP 
0400
7FE0
4020
8440
0400
FFE0
0E00
1500
2480
C460
0400
ENDCHAR
STARTCHAR U_5B9C
ENCODING 23452
SWIDTH 1000 0
DWIDTH 12 0
BBX 11 11 0 -1
BITMAP 
0400
7FE0
4020
9FC0
1080
1F80
1080
1F80
1080
1080
7FE0
ENDCHAR
STARTCHAR U_5BC5
ENCODING 23493
SWIDTH 1000 0
DWIDTH 12 0
BBX 11 11 0 -1
BITMAP 
0400
FFE0
8020
BFA0
0400
3F80
2480
3F80
2480
3F80
E0E0
ENDCHAR
STARTCHAR U_5BD2
ENCODING 23506
SWIDTH 1000 0
DWIDTH 12 0
BBX 11 11 0 -1
BITMAP 
0400
FFE0
8920
BFA0
0900
FFE0
0900
1480
E360
0C00
0300
ENDCHAR
STARTCHAR U_5BF9
ENCODING 23545
SWIDTH 1000 0
DWIDTH 12 0
BBX 11 11 0 -1
BITMAP 
0080
F080
1FE0
9080
5080
2480
2280
5080
5080
8280
0100
ENDCHAR
STARTCHAR U_5C0F
ENCODING 23567
SWIDTH 1000 0
DWIDTH 12 0
BBX 11 11 0 -1
BITMAP 
0400
0400
0400
2480
2440
4440
4420
8420
0400
1400
0800
ENDCHAR
STARTCHAR U_5E74
ENCODING 24180
SWIDTH 1000 0
DWIDTH 12 0
BBX 11 11 0 -1
BITMAP 
2000
3FE0
4200
8200
3FC0
2200
2200
FFE0
0200
0200
0200
ENDCHAR
STARTCHAR U_5E8A
ENCODING 24202
SWIDTH 1000 0
DWIDTH 12 0
BBX 11 11 0 -1
BITMAP 
0200
7FE0
4200
4200
7FE0
4200
4700
4A80
5240
A220
8200
ENDCHAR
STARTCHAR U_5EFF
ENCODING 24319
SWIDTH 1000 0
DWIDTH 12 0
BBX 11 11 0 -1
BITMAP 
1080
1080
1080
FFE0
1080
1080
1080
1080
1080
1F80
1080
ENDCHAR
STARTCHAR U_5F0F
ENCODING 24335
SWIDTH 1000 0
DWIDTH 12 0
BBX 11 11 0 -1
BITMAP 
0280
0240
0200
FFE0
0200
7A00
1200
1100
1120
18A0
E060
ENDCHAR
STARTCHAR U_5F53
ENCODING 24403
SWIDTH 1000 0
DWIDTH 12 0
BBX 11 11 0 -1
BITMAP 
0400
4440
2480
1500
7FC0
0040
0040
3FC0
0040
0040
7FC0
ENDCHAR
STARTCHAR U_5FCC
ENCODING 24524
SWIDTH 1000 0
DWIDTH 12 0
BBX 11 11 0 -1
BITMAP 
3F80
0080
3F80
2020
2020
1FE0
0400
1240
50A0
50A0
8F80
ENDCHAR
STARTCHAR U_601D
ENCODING 24605
SWIDTH 1000 0
DWIDTH 12 0
BBX 11 11 0 -1
BITMAP 
3F80
2480
2480
3F80
2480
2480
3F80
0440
5220
50A0
8F80
ENDCHAR
STARTCHAR U_653E
ENCODING 25918
SWIDTH 1000 0
DWIDTH 12 0
BBX 11 11 0 -1
BITMAP 
2100
1100
FDE0
2240
2540
3940
2940
2880
4980
4A40
9420
ENDCHAR
STARTCHAR U_6545
ENCODING 25925
SWIDTH 1000 0
DWIDTH 12 0
BBX 11 11 0 -1
BITMAP 
1100
1100
FDE0
1140
1240
7D40
4940
4880
4880
7940
4E20
ENDCHAR
STARTCHAR U_6570
ENCODING 25968
SWIDTH 1000 0
DWIDTH 12 0
BBX 11 11 0 -1
BITMAP 
9500
5900
FDE0
3340
5940
9540
FD40
2940
6880
1140
EE20
ENDCHAR
STARTCHAR U_6587
ENCODING 25991
SWIDTH 1000 0
DWIDTH 12 0
BBX 11 11 0 -1
BITMAP 
0800
0400
FFE0
1100
1100
1100
0A00
0A00
0400
1B00
E0E0
ENDCHAR
STARTCHAR U_65E5
ENCODING 26085
SWIDTH 1000 0
DWIDTH 12 0
BBX 11 11 0 -1
BITMAP 
0000
3F80
2080
2080
2080
3F80
2080
2080
2080
3F80
2080
ENDCHAR
STARTCHAR U_660E
ENCODING 26126
SWIDTH 1000 0
DWIDTH 12 0
BBX 11 11 0 -1
BITMAP 
03E0
F220
9220
93E0
F220
9220
93E0
F220
0420
08A0
3040
ENDCHAR
STARTCHAR U_662F
ENCODING 26159
SWIDTH 1000 0
DWIDTH 12 0
BBX 11 11 0 -1
BITMAP 
1F80
1080
1F80
1080
1F80
0000
FFE0
2400
2780
5400
8FE0
ENDCHAR
STARTCHAR U_6708
ENCODING 26376
SWIDTH 1000 0
DWIDTH 12 0
BBX 11 11 0 -1
BITMAP 
1FC0
1040
1040
1FC0
1040
1040
1FC0
1040
1040
2140
4080
ENDCHAR
STARTCHAR U_671B
ENCODING 26395
SWIDTH 1000 0
DWIDTH 12 0
BBX 11 11 0 -1
BITMAP 
23C0
1240
FBC0
2240
3BC0
2440
7FC0
0400
3F80
0400
FFE0
ENDCHAR
STARTCHAR U_671F
ENCODING 26399
SWIDTH 1000 0
DWIDTH 12 0
BBX 11 11 0 -1
BITMAP 
49E0
FD20
4920
79E0
4920
7920
49E0
FD20
0120
4920
8660
ENDCHAR
STARTCHAR U_672A
ENCODING 26410
SWIDTH 1000 0
DWIDTH 12 0
BBX 11 11 0 -1
BITMAP 
0400
0400
7FC0
0400
FFE0
0400
0E00
1500
2480
C460
0400
ENDCHAR
STARTCHAR U_672B
ENCODING 26411
SWIDTH 1000 0
DWIDTH 12 0
BBX 11 11 0 -1
BITMAP 
0400
0400
FFE0
0400
7FC0
0400
0E00
1500
2480
C460
0400
ENDCHAR
STARTCHAR U_6837
ENCODING 26679
SWIDTH 1000 0
DWIDTH 12 0
BBX 11 11 0 -1
BITMAP 
2440
2280
FFE0
2100
77C0
6100
A100
2FE0
2100
2100
2100
ENDCHAR
STARTCHAR U_683C
ENCODING 26684
SWIDTH 1000 0
DWIDTH 12 0
BBX 11 11 0 -1
BITMAP 
2200
23C0
F440
2A80
2100
7280
6C60
A7C0
2440
2440
27C0
ENDCHAR
STARTCHAR U_6977
ENCODING 26999
SWIDTH 1000 0
DWIDTH 12 0
BBX 11 11 0 -1
BITMAP 
2480
26A0
FCC0
26A0
64E0
7900
A7C0
2440
27C0
2440
27C0
ENDCHAR
STARTCHAR U_6B63
ENCODING 27491
SWIDTH 1000 0
DWIDTH 12 0
BBX 11 11 0 -1
BITMAP 
0000
FFE0
0400
0400
2400
27C0
2400
2400
2400
2400
FFE0
ENDCHAR
STARTCHAR U_6BD4
ENCODING 27604
SWIDTH 1000 0
DWIDTH 12 0
BBX 11 11 0 -1
BITMAP 
4200
4200
4240
4280
7B00
4200
4200
4200
5A20
6220
41E0
ENDCHAR
STARTCHAR U_6CC9
ENCODING 27849
SWIDTH 1000 0
DWIDTH 12 0
BBX 11 11 0 -1
BITMAP 
0400
3F80
2080
3F80
2080
3F80
04C0
7700
1500
2480
CC60
ENDCHAR
STARTCHAR U_6E05
ENCODING 28165
SWIDTH 1000 0
DWIDTH 12 0
BBX 11 11 0 -1
BITMAP 
4100
2FE0
0100
97C0
5100
2FE0
2440
C740
45C0
4440
44C0
ENDCHAR
STARTCHAR U_6EE1
ENCODING 28385
SWIDTH 1000 0
DWIDTH 12 0
BBX 11 11 0 -1
BITMAP 
4280
2FE0
1280
9FE0
4280
2FE0
2AA0
CAA0
4D60
4920
4860
ENDCHAR
STARTCHAR U_70B9
ENCODING 28857
SWIDTH 1000 0
DWIDTH 12 0
BBX 11 11 0 -1
BITMAP 
0400
0400
07C0
0400
3F80
2080
2080
3F80
0000
5240
8920
ENDCHAR
STARTCHAR U_73ED
ENCODING 29677
SWIDTH 1000 0
DWIDTH 12 0
BBX 11 11 0 -1
BITMAP 
0200
F3E0
2280
2A80
FA80
2BE0
2A80
2480
3480
C880
13E0
ENDCHAR
STARTCHAR U_7532
ENCODING 30002
SWIDTH 1000 0
DWIDTH 12 0
BBX 11 11 0 -1
BITMAP 
7FC0
4440
4440
7FC0
4440
4440
7FC0
4440
0400
0400
0400
ENDCHAR
STARTCHAR U_7591
ENCODING 30097
SWIDTH 1000 0
DWIDTH 12 0
BBX 11 11 0 -1
BITMAP 
57E0
6140
4880
7FE0
40A0
7A80
A2E0
FA80
2280
5580
88E0
ENDCHAR
STARTCHAR U_76EE
ENCODING 30446
SWIDTH 1000 0
DWIDTH 12 0
BBX 11 11 0 -1
BITMAP 
3F80
2080
2080
3F80
2080
2080
3F80
2080
2080
3F80
2080
ENDCHAR
STARTCHAR U_7940
ENCODING 31040
SWIDTH 1000 0
DWIDTH 12 0
BBX 11 11 0 -1
BITMAP 
4000
23E0
FA20
0A20
13E0
3220
6A00
AA00
2220
2220
21E0
ENDCHAR
STARTCHAR U_7948
ENCODING 31048
SWIDTH 1000 0
DWIDTH 12 0
BBX 11 11 0 -1
BITMAP 
4060
2380
FA00
0A00
13E0
3240
6A40
AA40
2440
2440
2840
ENDCHAR
STARTCHAR U_796D
ENCODING 31085
SWIDTH 1000 0
DWIDTH 12 0
BBX 11 11 0 -1
BITMAP 
23E0
3E40
4A80
A900
5080
2F40
4020
BFC0
1280
2A40
C420
ENDCHAR
STARTCHAR U_798F
ENCODING 31119
SWIDTH 1000 0
DWIDTH 12 0
BBX 11 11 0 -1
BITMAP 
4FE0
2000
07C0
F440
17C0
2000
3FE0
6920
AFE0
2920
2FE0
ENDCHAR
STARTCHAR U_7A84
ENCODING 31364
SWIDTH 1000 0
DWIDTH 12 0
BBX 11 11 0 -1
BITMAP 
0400
7FE0
4920
1080
3040
1FE0
2400
47C0
0400
07E0
0400
ENDCHAR
STARTCHAR U_7ACB
ENCODING 31435
SWIDTH 1000 0
DWIDTH 12 0
BBX 11 11 0 -1
BITMAP 
0400
0200
7FE0
0000
1080
1080
0900
0900
0A00
0200
FFE0
ENDCHAR
STARTCHAR U_7B2C
ENCODING 31532
SWIDTH 1000 0
DWIDTH 12 0
BBX 11 11 0 -1
BITMAP 
4200
7BE0
5480
BFC0
0440
7FC0
4400
7FE0
1420
24C0
C400
ENDCHAR
STARTCHAR U_7C97
ENCODING 31895
SWIDTH 1000 0
DWIDTH 12 0
BBX 11 11 0 -1
BITMAP 
23C0
AA40
7240
23C0
FA40
2240
73C0
6A40
A240
2240
2FE0
ENDCHAR
STARTCHAR U_7D20
ENCODING 32032
SWIDTH 1000 0
DWIDTH 12 0
BBX 11 11 0 -1
BITMAP 
7FC0
0400
3F80
0400
FFE0
0900
3F80
0840
7FC0
2480
CC60
ENDCHAR
STARTCHAR U_7EA2
ENCODING 32418
SWIDTH 1000 0
DWIDTH 12 0
BBX 11 11 0 -1
BITMAP 
2000
27C0
4100
5100
E100
2100
4100
F100
0100
3100
CFE0
ENDCHAR
STARTCHAR U_7F29
ENCODING 32553
SWIDTH 1000 0
DWIDTH 12 0
BBX 11 11 0 -1
BITMAP 
2100
2FE0
4A20
55E0
E480
2DE0
4520
F5E0
0D20
35E0
C520
ENDCHAR
STARTCHAR U_8003
ENCODING 32771
SWIDTH 1000 0
DWIDTH 12 0
BBX 11 11 0 -1
BITMAP 
0840
7F80
0900
FFE0
0400
0FC0
3400
CF80
0080
0080
0700
ENDCHAR
STARTCHAR U_884C
ENCODING 34892
SWIDTH 1000 0
DWIDTH 12 0
BBX 11 11 0 -1
BITMAP 
27C0
4000
8000
1000
2FE0
6080
A080
2080
2080
2080
2380
ENDCHAR
STARTCHAR U_8C37
ENCODING 35895
SWIDTH 1000 0
DWIDTH 12 0
BBX 11 11 0 -1
BITMAP 
0900
1080
2440
4620
0900
1080
3FC0
D0A0
1080
1F80
1080
ENDCHAR
STARTCHAR U_9635
ENCODING 38453
SWIDTH 1000 0
DWIDTH 12 0
BBX 11 11 0 -1
BITMAP 
F200
9FE0
A400
C500
AFC0
9100
9100
DFE0
A100
8100
8100
ENDCHAR
STARTCHAR U_96E8
ENCODING 38632
SWIDTH 1000 0
DWIDTH 12 0
BBX 11 11 0 -1
BITMAP 
FFE0
0400
0400
7FC0
4440
5540
4CC0
6640
5540
4440
44C0
ENDCHAR
STARTCHAR U_971C
ENCODING 38684
SWIDTH 1000 0
DWIDTH 12 0
BBX 11 11 0 -1
BITMAP 
7FC0
0400
FFE0
9520
23C0
FA40
23C0
3240
6BC0
AA40
23C0
ENDCHAR
STARTCHAR U_971E
ENCODING 38686
SWIDTH 1000 0
DWIDTH 12 0
BBX 11 11 0 -1
BITMAP 
7FC0
0400
FFE0
9520
FBC0
4840
7FC0
4240
7A40
4180
4E60
ENDCHAR
STARTCHAR U_9732
ENCODING 38706
SWIDTH 1000 0
DWIDTH 12 0
BBX 11 11 0 -1
BITMAP 
7FC0
0400
FFE0
9520
F3C0
9640
F180
2660
BBC0
A240
F3C0
ENDCHAR
STARTCHAR U_9879
ENCODING 39033
SWIDTH 1000 0
DWIDTH 12 0
BBX 11 11 0 -1
BITMAP 
07E0
F900
27E0
2420
2520
2520
2520
3D20
C180
0240
0C20
ENDCHAR
STARTCHAR U_9A6C
ENCODING 39532
SWIDTH 1000 0
DWIDTH 12 0
BBX 11 11 0 -1
BITMAP 
7F80
0080
1080
1100
2100
3FE0
0020
0020
FF20
0020
00C0
ENDCHAR
STARTCHAR U_9A7F
ENCODING 39551
SWIDTH 1000 0
DWIDTH 12 0
BBX 11 11 0 -1
BITMAP 
F7C0
1280
5100
5280
5560
7900
0BC0
2900
CFE0
0900
3100
ENDCHAR
STARTCHAR U_9E5C
ENCODING 40540
SWIDTH 1000 0
DWIDTH 12 0
BBX 11 11 0 -1
BITMAP 
7D00
2BE0
FC80
3540
5FA0
9480
1280
1FE0
0020
7F20
00C0
ENDCHAR
STARTCHAR U_9ED1
ENCODING 40657
SWIDTH 1000 0
DWIDTH 12 0
BBX 11 11 0 -1
BITMAP 
7FC0
4440
5540
4E40
7FC0
0400
7FC0
0400
FFE0
5240
8920
ENDCHAR
STARTCHAR U_FF08
ENCODING 65288
SWIDTH 1000 0
DWIDTH 12 0
BBX 3 12 7 -1
BITMAP
20
40
40
80
80
80
80
80
80
40
40
20
ENDCHAR
STARTCHAR U_FF09
ENCODING 65289
SWIDTH 1000 0
DWIDTH 12 0
BBX 3 12 3 -1
BITMAP
80
40
40
20
20
20
20
20
20
40
40
80
ENDCHAR
STARTCHAR U_FF0C
ENCODING 65292
SWIDTH 0 0
DWIDTH 12 0
BBX 2 4 3 0
BITMAP
C0
C0
40
80
ENDCHAR
STARTCHAR U_FF1A
ENCODING 65306
SWIDTH 0 0
DWIDTH 12 0
BBX 2 7 6 1
BITMAP
C0
C0
00
00
00
C0
C0
ENDCHAR
ENDFONT
