STARTFONT 2.1
FONT -wenquanyi-wenquanyi bitmap song-medium-r-normal--16-160-75-75-P-80-iso10646-1
COMMENT ========================================================== 
COMMENT                Wen Quan Yi Bitmap Song 
COMMENT ----------------------------------------------------------
COMMENT Summary:
COMMENT 
COMMENT     	Authors  : WenQuanYi Contributors
COMMENT     	Webpage  : http://wenq.org/en/
COMMENT     	Font Name: WenQuanYi Bitmap Song
COMMENT     	Version  : 0.9.9.8
COMMENT     	Release  : 8
COMMENT     	Copyright: (C)2004-2010, WenQuanYi Project 
COMMENT     		   Board of Trustees and Qianqian Fang
COMMENT     	License  : GPL v2 (with font embedding exception)
COMMENT 
COMMENT           May the Font be with you, forever!
COMMENT ----------------------------------------------------------
COMMENT WenQuanYi bitmap fonts include all 20,932 Unicode 5.2 
COMMENT CJK Unified Ideographs (U4E00 - U9FA5) and 6,582 
COMMENT CJK Extension A characters (U3400 - U4DB5) at 
COMMENT 5 different pixel sizes (9pt-12X12, 10pt-13X13, 
COMMENT 10.5pt-14x14, 11pt-15X15 and 12pt-16x16 pixel).
COMMENT Use of this bitmap font for on-screen display of Chinese 
COMMENT (traditional and simplified) in web pages and elsewhere 
COMMENT eliminates the annoying "blurring" problems caused by 
COMMENT insufficient "hinting" of anti-aliased vector CJK fonts. 
COMMENT In addition, Latin characters, Japanese Kanas and 
COMMENT Korean Hangul glyphs (U+AC00~U+D7A3) are also included.
COMMENT ----------------------------------------------------------
COMMENT WenQuanYi Contributors:
COMMENT 
COMMENT Project Maintainer: Qianqian Fang(fangq<at>nmr.mgh.harvard.edu)
COMMENT
COMMENT Major contributors: wanghong, tchaikov,ailantian,niqiu,fiag
COMMENT                     caiqian,fundawang
COMMENT Other contributors: activeion,amadeoh,BabyPBC,BenBear,  
COMMENT                     brep,chaoslawful,DannyZeng,farm,fiag,keykeen,
COMMENT                     liyi,lucifer,nilarcs,niqiu,pangwa,pathfinder,
COMMENT                     pinker,PONY,pupilzeng,shhky,stid,wuler.lv,
COMMENT                     xnuxmwx,namespace,leftstand,MarkLam,buick,
COMMENT                     liqian,qinling,Seeker,xiaoma,ZaiJianQingRen,
COMMENT 		    SiCengXiangShi,the_owl,whppc,eka,failsafe,
COMMENT                     musiccow,Blueelf,lenovox,udi,leal
COMMENT ----------------------------------------------------------
COMMENT This file: WenQuanYi Bitmap Song 12pt medium
COMMENT Created by Qianqian Fang (fangq<at>nmr.mgh.harvard.edu)
COMMENT ----------------------------------------------------------
SIZE 16 75 75
FONTBOUNDINGBOX 16 19 0 -4
STARTPROPERTIES 21
FONT_ASCENT 14
FONT_DESCENT 4
FONT_NAME "WenQuanYi Bitmap Song"
FAMILY_NAME "WenQuanYi Bitmap Song"
FOUNDRY "WenQuanYi"
FONT_VERSION "000.998"
WEIGHT_NAME "Medium"
SETWIDTH_NAME "Normal"
PIXEL_SIZE 16
POINT_SIZE 160
DEFAULT_CHAR 0
RESOLUTION_X 75
RESOLUTION_Y 75
RESOLUTION 75
SPACING "P"
UNDERLINE_POSITION -2
UNDERLINE_THICKNESS 1
QUAD_WIDTH 16
CHARSET_REGISTRY "ISO10646"
CHARSET_ENCODING "-1"
CHARSET_COLLECTIONS "ASCII ISO8859-5 GB2312.1980 BIG5-0 KSC5601.1989-0 JISX0208.1997 ISO10646-1"
ENDPROPERTIES
CHARS 219
STARTCHAR U_0020
ENCODING 32
SWIDTH 333 0
DWIDTH 8 0
BBX 1 1 0 0
BITMAP
00
ENDCHAR
STARTCHAR exclam
ENCODING 33
SWIDTH 500 0
DWIDTH 8 0
BBX 1 14 3 -1
BITMAP
80
80
80
80
80
80
80
80
80
80
00
00
80
80
ENDCHAR
STARTCHAR quotedbl
ENCODING 34
SWIDTH 500 0
DWIDTH 8 0
BBX 4 6 2 5
BITMAP
90
90
90
90
90
90
ENDCHAR
STARTCHAR numbersign
ENCODING 35
SWIDTH 500 0
DWIDTH 8 0
BBX 8 12 0 0
BITMAP
12
12
12
7F
24
24
24
24
FE
48
48
48
ENDCHAR
STARTCHAR dollar
ENCODING 36
SWIDTH 500 0
DWIDTH 8 0
BBX 7 13 0 -1
BITMAP
10
7C
92
92
90
50
38
14
12
92
92
7C
10
ENDCHAR
STARTCHAR percent
ENCODING 37
SWIDTH 416 0
DWIDTH 8 0
BBX 8 13 0 -1
BITMAP
62
92
94
94
68
08
10
10
26
29
49
49
86
ENDCHAR
STARTCHAR ampersand
ENCODING 38
SWIDTH 500 0
DWIDTH 10 0
BBX 9 12 0 0
BITMAP
3800
4400
4400
4400
2800
1080
2900
4500
8200
8200
4500
3880
ENDCHAR
STARTCHAR quotesingle
ENCODING 39
SWIDTH 636 0
DWIDTH 8 0
BBX 2 3 3 10
BITMAP
C0
40
80
ENDCHAR
STARTCHAR parenleft
ENCODING 40
SWIDTH 389 0
DWIDTH 6 0
BBX 4 16 1 -4
BITMAP
10
20
40
40
80
80
80
80
80
80
80
80
40
40
20
10
ENDCHAR
STARTCHAR parenright
ENCODING 41
SWIDTH 389 0
DWIDTH 6 0
BBX 4 16 1 -4
BITMAP
80
40
20
20
10
10
10
10
10
10
10
10
20
20
40
80
ENDCHAR
STARTCHAR asterisk
ENCODING 42
SWIDTH 666 0
DWIDTH 8 0
BBX 7 9 0 2
BITMAP
10
10
92
54
38
54
92
10
10
ENDCHAR
STARTCHAR U_002B
ENCODING 43
SWIDTH 778 0
DWIDTH 13 0
BBX 11 11 1 0
BITMAP
0400
0400
0400
0400
0400
FFE0
0400
0400
0400
0400
0400
ENDCHAR
STARTCHAR comma
ENCODING 44
SWIDTH 500 0
DWIDTH 8 0
BBX 2 4 2 -2
BITMAP
C0
C0
40
80
ENDCHAR
STARTCHAR hyphen
ENCODING 45
SWIDTH 333 0
DWIDTH 5 0
BBX 4 1 0 3
BITMAP
F0
ENDCHAR
STARTCHAR period
ENCODING 46
SWIDTH 500 0
DWIDTH 8 0
BBX 2 2 2 -1
BITMAP
C0
C0
ENDCHAR
STARTCHAR slash
ENCODING 47
SWIDTH 500 0
DWIDTH 8 0
BBX 6 16 1 -4
BITMAP
04
04
08
08
08
10
10
10
20
20
20
40
40
40
80
80
ENDCHAR
STARTCHAR zero
ENCODING 48
SWIDTH 636 0
DWIDTH 8 0
BBX 7 11 1 0
BITMAP
38
44
82
82
82
82
82
82
82
44
38
ENDCHAR
STARTCHAR one
ENCODING 49
SWIDTH 500 0
DWIDTH 8 0
BBX 5 11 3 0
BITMAP
20
E0
20
20
20
20
20
20
20
20
F8
ENDCHAR
STARTCHAR two
ENCODING 50
SWIDTH 500 0
DWIDTH 8 0
BBX 7 11 1 0
BITMAP
38
44
82
02
04
08
10
20
40
80
FE
ENDCHAR
STARTCHAR three
ENCODING 51
SWIDTH 500 0
DWIDTH 8 0
BBX 7 11 1 0
BITMAP
78
84
02
02
04
38
04
02
02
84
78
ENDCHAR
STARTCHAR four
ENCODING 52
SWIDTH 500 0
DWIDTH 9 0
BBX 8 11 1 0
BITMAP
04
0C
14
24
44
44
84
FF
04
04
04
ENDCHAR
STARTCHAR five
ENCODING 53
SWIDTH 500 0
DWIDTH 8 0
BBX 7 11 1 0
BITMAP
FE
80
80
80
F8
04
02
02
02
84
78
ENDCHAR
STARTCHAR six
ENCODING 54
SWIDTH 500 0
DWIDTH 8 0
BBX 7 11 1 0
BITMAP
3C
40
80
80
B8
C4
82
82
82
44
38
ENDCHAR
STARTCHAR seven
ENCODING 55
SWIDTH 666 0
DWIDTH 8 0
BBX 7 11 1 0
BITMAP
FE
02
04
04
04
08
08
08
10
10
10
ENDCHAR
STARTCHAR eight
ENCODING 56
SWIDTH 684 0
DWIDTH 8 0
BBX 7 11 1 0
BITMAP
38
44
82
82
44
38
44
82
82
44
38
ENDCHAR
STARTCHAR nine
ENCODING 57
SWIDTH 686 0
DWIDTH 8 0
BBX 7 11 1 0
BITMAP
38
44
82
82
82
46
3A
02
02
04
78
ENDCHAR
STARTCHAR colon
ENCODING 58
SWIDTH 278 0
DWIDTH 4 0
BBX 1 7 2 0
BITMAP
80
00
00
00
00
00
80
ENDCHAR
STARTCHAR semicolon
ENCODING 59
SWIDTH 278 0
DWIDTH 4 0
BBX 1 8 2 -1
BITMAP
80
00
00
00
00
00
80
80
ENDCHAR
STARTCHAR less
ENCODING 60
SWIDTH 778 0
DWIDTH 12 0
BBX 9 10 2 -1
BITMAP
0080
0300
0C00
3000
C000
C000
3000
0800
0600
0180
ENDCHAR
STARTCHAR equal
ENCODING 61
SWIDTH 778 0
DWIDTH 12 0
BBX 10 4 1 2
BITMAP
FFC0
0000
0000
FFC0
ENDCHAR
STARTCHAR greater
ENCODING 62
SWIDTH 778 0
DWIDTH 12 0
BBX 10 10 1 -1
BITMAP
8000
6000
1800
0600
0180
00C0
0300
0C00
3000
C000
ENDCHAR
STARTCHAR question
ENCODING 63
SWIDTH 583 0
DWIDTH 8 0
BBX 6 12 1 0
BITMAP
30
48
84
84
08
10
10
10
00
00
10
10
ENDCHAR
STARTCHAR at
ENCODING 64
SWIDTH 333 0
DWIDTH 9 0
BBX 8 9 0 1
BITMAP
3C
42
B9
85
BD
A5
BD
42
3C
ENDCHAR
STARTCHAR A
ENCODING 65
SWIDTH 294 0
DWIDTH 10 0
BBX 9 11 0 0
BITMAP
0800
0800
1400
1400
2200
2200
7F00
4100
4100
8080
8080
ENDCHAR
STARTCHAR B
ENCODING 66
SWIDTH 500 0
DWIDTH 8 0
BBX 7 11 0 0
BITMAP
FC
82
82
82
84
F8
84
82
82
82
FC
ENDCHAR
STARTCHAR C
ENCODING 67
SWIDTH 557 0
DWIDTH 9 0
BBX 8 11 0 0
BITMAP
3E
41
40
80
80
80
80
80
40
41
3E
ENDCHAR
STARTCHAR D
ENCODING 68
SWIDTH 666 0
DWIDTH 9 0
BBX 8 11 0 0
BITMAP
FC
82
82
81
81
81
81
81
82
82
FC
ENDCHAR
STARTCHAR E
ENCODING 69
SWIDTH 583 0
DWIDTH 8 0
BBX 7 11 0 0
BITMAP
FE
80
80
80
80
FC
80
80
80
80
FE
ENDCHAR
STARTCHAR F
ENCODING 70
SWIDTH 666 0
DWIDTH 8 0
BBX 7 11 0 0
BITMAP
FE
80
80
80
80
FC
80
80
80
80
80
ENDCHAR
STARTCHAR G
ENCODING 71
SWIDTH 500 0
DWIDTH 10 0
BBX 9 11 0 0
BITMAP
3F00
4080
4000
8000
8000
8780
8080
8080
4080
4080
3F00
ENDCHAR
STARTCHAR H
ENCODING 72
SWIDTH 666 0
DWIDTH 9 0
BBX 8 11 0 0
BITMAP
81
81
81
81
81
FF
81
81
81
81
81
ENDCHAR
STARTCHAR I
ENCODING 73
SWIDTH 500 0
DWIDTH 4 0
BBX 3 11 0 0
BITMAP
E0
40
40
40
40
40
40
40
40
40
E0
ENDCHAR
STARTCHAR J
ENCODING 74
SWIDTH 500 0
DWIDTH 3 0
BBX 4 14 -2 -3
BITMAP
30
10
10
10
10
10
10
10
10
10
10
10
10
E0
ENDCHAR
STARTCHAR K
ENCODING 75
SWIDTH 610 0
DWIDTH 8 0
BBX 7 11 0 0
BITMAP
82
84
88
90
A0
C0
A0
90
88
84
82
ENDCHAR
STARTCHAR L
ENCODING 76
SWIDTH 583 0
DWIDTH 8 0
BBX 7 11 0 0
BITMAP
80
80
80
80
80
80
80
80
80
80
FE
ENDCHAR
STARTCHAR M
ENCODING 77
SWIDTH 666 0
DWIDTH 12 0
BBX 11 11 0 0
BITMAP
C060
C060
A0A0
A0A0
9120
9120
8A20
8A20
8420
8420
8020
ENDCHAR
STARTCHAR N
ENCODING 78
SWIDTH 833 0
DWIDTH 9 0
BBX 8 11 0 0
BITMAP
81
81
C1
A1
91
89
85
83
81
81
81
ENDCHAR
STARTCHAR O
ENCODING 79
SWIDTH 583 0
DWIDTH 11 0
BBX 10 11 0 0
BITMAP
3F00
4080
4080
8040
8040
8040
8040
8040
4080
4080
3F00
ENDCHAR
STARTCHAR P
ENCODING 80
SWIDTH 666 0
DWIDTH 8 0
BBX 7 11 0 0
BITMAP
FC
82
82
82
82
82
FC
80
80
80
80
ENDCHAR
STARTCHAR Q
ENCODING 81
SWIDTH 666 0
DWIDTH 10 0
BBX 9 13 0 -2
BITMAP
3E00
4100
4100
8080
8080
8080
8080
8080
4900
4500
3E00
0200
0100
ENDCHAR
STARTCHAR R
ENCODING 82
SWIDTH 500 0
DWIDTH 8 0
BBX 7 11 0 0
BITMAP
FC
82
82
82
84
F8
84
84
82
82
82
ENDCHAR
STARTCHAR S
ENCODING 83
SWIDTH 500 0
DWIDTH 8 0
BBX 7 11 0 0
BITMAP
3C
42
80
80
40
38
04
02
02
04
F8
ENDCHAR
STARTCHAR T
ENCODING 84
SWIDTH 500 0
DWIDTH 10 0
BBX 9 11 0 0
BITMAP
FF80
0800
0800
0800
0800
0800
0800
0800
0800
0800
0800
ENDCHAR
STARTCHAR U
ENCODING 85
SWIDTH 500 0
DWIDTH 9 0
BBX 8 11 0 0
BITMAP
81
81
81
81
81
81
81
81
81
42
3C
ENDCHAR
STARTCHAR V
ENCODING 86
SWIDTH 500 0
DWIDTH 10 0
BBX 9 11 0 0
BITMAP
8080
8080
4100
4100
4100
2200
2200
1400
1400
0800
0800
ENDCHAR
STARTCHAR W
ENCODING 87
SWIDTH 500 0
DWIDTH 14 0
BBX 13 11 0 0
BITMAP
8208
8208
8208
4510
4510
4510
28A0
28A0
28A0
1040
1040
ENDCHAR
STARTCHAR X
ENCODING 88
SWIDTH 500 0
DWIDTH 10 0
BBX 9 11 0 0
BITMAP
8080
4100
2200
1400
0800
0800
1400
1400
2200
4100
8080
ENDCHAR
STARTCHAR Y
ENCODING 89
SWIDTH 500 0
DWIDTH 8 0
BBX 7 11 0 0
BITMAP
82
82
44
44
28
28
10
10
10
10
10
ENDCHAR
STARTCHAR Z
ENCODING 90
SWIDTH 416 0
DWIDTH 9 0
BBX 8 11 0 0
BITMAP
FF
01
02
02
04
04
08
10
20
40
FF
ENDCHAR
STARTCHAR bracketleft
ENCODING 91
SWIDTH 500 0
DWIDTH 8 0
BBX 4 14 2 -1
BITMAP
F0
80
80
80
80
80
80
80
80
80
80
80
80
F0
ENDCHAR
STARTCHAR backslash
ENCODING 92
SWIDTH 500 0
DWIDTH 8 0
BBX 7 14 0 -1
BITMAP
80
80
40
40
20
20
10
10
08
08
04
04
02
02
ENDCHAR
STARTCHAR bracketright
ENCODING 93
SWIDTH 289 0
DWIDTH 5 0
BBX 3 16 0 -4
BITMAP
E0
20
20
20
20
20
20
20
20
20
20
20
20
20
20
E0
ENDCHAR
STARTCHAR asciicircum
ENCODING 94
SWIDTH 611 0
DWIDTH 10 0
BBX 5 3 2 7
BITMAP
20
50
88
ENDCHAR
STARTCHAR underscore
ENCODING 95
SWIDTH 778 0
DWIDTH 12 0
BBX 10 1 1 -4
BITMAP
FFC0
ENDCHAR
STARTCHAR grave
ENCODING 96
SWIDTH 500 0
DWIDTH 8 0
BBX 2 2 3 8
BITMAP
80
40
ENDCHAR
STARTCHAR a
ENCODING 97
SWIDTH 277 0
DWIDTH 8 0
BBX 7 8 0 0
BITMAP
78
84
04
7C
84
84
8C
72
ENDCHAR
STARTCHAR b
ENCODING 98
SWIDTH 416 0
DWIDTH 8 0
BBX 7 11 0 0
BITMAP
80
80
80
B8
C4
82
82
82
82
C4
B8
ENDCHAR
STARTCHAR c
ENCODING 99
SWIDTH 166 0
DWIDTH 7 0
BBX 6 8 0 0
BITMAP
38
44
80
80
80
80
44
38
ENDCHAR
STARTCHAR d
ENCODING 100
SWIDTH 833 0
DWIDTH 8 0
BBX 7 11 0 0
BITMAP
02
02
02
3A
46
82
82
82
82
46
3A
ENDCHAR
STARTCHAR e
ENCODING 101
SWIDTH 500 0
DWIDTH 8 0
BBX 7 8 0 0
BITMAP
38
44
82
FE
80
80
42
3C
ENDCHAR
STARTCHAR f
ENCODING 102
SWIDTH 500 0
DWIDTH 5 0
BBX 4 11 0 0
BITMAP
30
40
40
F0
40
40
40
40
40
40
40
ENDCHAR
STARTCHAR g
ENCODING 103
SWIDTH 500 0
DWIDTH 8 0
BBX 7 11 0 -3
BITMAP
3A
46
82
82
82
82
46
3A
02
44
38
ENDCHAR
STARTCHAR h
ENCODING 104
SWIDTH 500 0
DWIDTH 8 0
BBX 7 11 0 0
BITMAP
80
80
80
B8
C4
82
82
82
82
82
82
ENDCHAR
STARTCHAR i
ENCODING 105
SWIDTH 333 0
DWIDTH 4 0
BBX 2 11 0 0
BITMAP
40
40
00
C0
40
40
40
40
40
40
40
ENDCHAR
STARTCHAR j
ENCODING 106
SWIDTH 520 0
DWIDTH 3 0
BBX 3 14 -1 -3
BITMAP
20
20
00
60
20
20
20
20
20
20
20
20
20
C0
ENDCHAR
STARTCHAR k
ENCODING 107
SWIDTH 416 0
DWIDTH 8 0
BBX 7 11 0 0
BITMAP
80
80
80
84
88
90
E0
90
88
84
82
ENDCHAR
STARTCHAR l
ENCODING 108
SWIDTH 500 0
DWIDTH 4 0
BBX 1 11 1 0
BITMAP
80
80
80
80
80
80
80
80
80
80
80
ENDCHAR
STARTCHAR m
ENCODING 109
SWIDTH 500 0
DWIDTH 12 0
BBX 11 8 0 0
BITMAP
B9C0
C620
8420
8420
8420
8420
8420
8420
ENDCHAR
STARTCHAR n
ENCODING 110
SWIDTH 666 0
DWIDTH 7 0
BBX 6 8 0 0
BITMAP
B8
C4
84
84
84
84
84
84
ENDCHAR
STARTCHAR o
ENCODING 111
SWIDTH 500 0
DWIDTH 8 0
BBX 7 8 0 0
BITMAP
38
44
82
82
82
82
44
38
ENDCHAR
STARTCHAR p
ENCODING 112
SWIDTH 500 0
DWIDTH 9 0
BBX 8 11 0 -3
BITMAP
DC
62
41
41
41
41
62
5C
40
40
40
ENDCHAR
STARTCHAR q
ENCODING 113
SWIDTH 500 0
DWIDTH 9 0
BBX 8 11 0 -3
BITMAP
3B
46
82
82
82
82
46
3A
02
02
02
ENDCHAR
STARTCHAR r
ENCODING 114
SWIDTH 500 0
DWIDTH 6 0
BBX 5 8 0 0
BITMAP
B8
C0
80
80
80
80
80
80
ENDCHAR
STARTCHAR s
ENCODING 115
SWIDTH 416 0
DWIDTH 7 0
BBX 6 8 0 0
BITMAP
78
84
80
60
18
04
84
78
ENDCHAR
STARTCHAR t
ENCODING 116
SWIDTH 500 0
DWIDTH 6 0
BBX 5 10 0 0
BITMAP
40
40
F8
40
40
40
40
40
40
38
ENDCHAR
STARTCHAR u
ENCODING 117
SWIDTH 500 0
DWIDTH 8 0
BBX 7 8 0 0
BITMAP
C2
42
42
42
42
42
46
3A
ENDCHAR
STARTCHAR v
ENCODING 118
SWIDTH 500 0
DWIDTH 8 0
BBX 7 8 0 0
BITMAP
82
82
44
44
44
28
28
10
ENDCHAR
STARTCHAR w
ENCODING 119
SWIDTH 636 0
DWIDTH 12 0
BBX 11 8 0 0
BITMAP
8420
8420
8A20
4A40
5140
5140
2080
2080
ENDCHAR
STARTCHAR x
ENCODING 120
SWIDTH 500 0
DWIDTH 8 0
BBX 7 8 0 0
BITMAP
82
44
28
10
10
28
44
82
ENDCHAR
STARTCHAR y
ENCODING 121
SWIDTH 500 0
DWIDTH 8 0
BBX 7 11 0 -3
BITMAP
82
82
44
44
28
28
10
10
20
20
C0
ENDCHAR
STARTCHAR z
ENCODING 122
SWIDTH 500 0
DWIDTH 7 0
BBX 6 8 0 0
BITMAP
FC
04
08
10
20
40
80
FC
ENDCHAR
STARTCHAR braceleft
ENCODING 123
SWIDTH 500 0
DWIDTH 8 0
BBX 6 16 1 -4
BITMAP
1C
20
20
20
20
20
20
60
80
60
20
20
20
20
20
1C
ENDCHAR
STARTCHAR bar
ENCODING 124
SWIDTH 278 0
DWIDTH 4 0
BBX 1 16 2 -4
BITMAP
80
80
80
80
80
80
80
80
80
80
80
80
80
80
80
80
ENDCHAR
STARTCHAR braceright
ENCODING 125
SWIDTH 500 0
DWIDTH 8 0
BBX 6 16 1 -4
BITMAP
C0
20
20
20
20
20
20
10
0C
30
20
20
20
20
20
C0
ENDCHAR
STARTCHAR asciitilde
ENCODING 126
SWIDTH 611 0
DWIDTH 10 0
BBX 7 2 1 9
BITMAP
72
8C
ENDCHAR
STARTCHAR periodcentered
ENCODING 183
SWIDTH 500 0
DWIDTH 8 0
BBX 2 2 3 4
BITMAP
C0
C0
ENDCHAR
STARTCHAR U_00D7
ENCODING 215
SWIDTH 1000 0
DWIDTH 16 0
BBX 10 10 3 1
BITMAP
8040
4080
2100
1200
0C00
0C00
1200
2100
4080
8040
ENDCHAR
STARTCHAR U_2460
ENCODING 9312
SWIDTH 1000 0
DWIDTH 16 0
BBX 15 15 0 -1
BITMAP
07C0
1830
2008
4104
4304
8102
8102
8102
8102
8102
4104
4104
2008
1830
07C0
ENDCHAR
STARTCHAR U_2461
ENCODING 9313
SWIDTH 1000 0
DWIDTH 16 0
BBX 15 15 0 -1
BITMAP
07C0
1830
2008
4384
4444
8442
8042
8182
8202
8402
4404
47C4
2008
1830
07C0
ENDCHAR
STARTCHAR U_2462
ENCODING 9314
SWIDTH 1000 0
DWIDTH 16 0
BBX 15 15 0 -1
BITMAP
07C0
1830
2008
4384
4444
8042
8042
8182
8042
8042
4444
4384
2008
1830
07C0
ENDCHAR
STARTCHAR U_2463
ENCODING 9315
SWIDTH 1000 0
DWIDTH 16 0
BBX 15 15 0 -1
BITMAP
07C0
1830
2008
4184
4284
8482
8482
8882
8882
8FC2
4084
4084
2008
1830
07C0
ENDCHAR
STARTCHAR U_2464
ENCODING 9316
SWIDTH 1000 0
DWIDTH 16 0
BBX 15 15 0 -1
BITMAP
07C0
1830
2008
47C4
4404
8402
8582
8642
8042
8042
4444
4384
2008
1830
07C0
ENDCHAR
STARTCHAR U_3001
ENCODING 12289
SWIDTH 1000 0
DWIDTH 16 0
BBX 4 4 3 1
BITMAP
80
60
30
10
ENDCHAR
STARTCHAR U_3002
ENCODING 12290
SWIDTH 1000 0
DWIDTH 16 0
BBX 4 4 3 0
BITMAP
60
90
90
60
ENDCHAR
STARTCHAR U_3010
ENCODING 12304
SWIDTH 1000 0
DWIDTH 16 0
BBX 5 15 9 -1
BITMAP
F8
F0
E0
E0
E0
C0
C0
C0
C0
C0
C0
E0
E0
F0
F8
ENDCHAR
STARTCHAR U_3011
ENCODING 12305
SWIDTH 1000 0
DWIDTH 16 0
BBX 5 15 3 -1
BITMAP
F8
78
38
38
18
18
18
18
18
18
18
38
38
78
F8
ENDCHAR
STARTCHAR U_4E00
ENCODING 19968
SWIDTH 1000 0
DWIDTH 16 0
BBX 16 16 0 -2
BITMAP 
0000
0000
0000
0000
0000
0000
0000
FFFE
0000
0000
0000
0000
0000
0000
0000
0000
ENDCHAR
STARTCHAR U_4E01
ENCODING 19969
SWIDTH 1000 0
DWIDTH 16 0
BBX 16 16 0 -2
BITMAP 
0000
7FFC
0100
0100
0100
0100
0100
0100
0100
0100
0100
0100
0100
0100
0500
0200
ENDCHAR
STARTCHAR U_4E09
ENCODING 19977
SWIDTH 1000 0
DWIDTH 16 0
BBX 16 16 0 -2
BITMAP 
0000
0000
7FFC
0000
0000
0000
0000
3FF8
0000
0000
0000
0000
0000
FFFE
0000
0000
ENDCHAR
STARTCHAR U_4E0A
ENCODING 19978
SWIDTH 1000 0
DWIDTH 16 0
BBX 16 16 0 -2
BITMAP 
0200
0200
0200
0200
0200
0200
03F8
0200
0200
0200
0200
0200
0200
0200
FFFE
0000
ENDCHAR
STARTCHAR U_4E11
ENCODING 19985
SWIDTH 1000 0
DWIDTH 16 0
BBX 16 16 0 -2
BITMAP 
0000
3FF0
0210
0210
0210
0210
0210
3FF0
0410
0410
0410
0410
0410
0410
FFFE
0000
ENDCHAR
STARTCHAR U_4E19
ENCODING 19993
SWIDTH 1000 0
DWIDTH 16 0
BBX 16 16 0 -2
BITMAP 
0000
FFFE
0100
0100
0100
7FFC
4104
4104
4284
4244
4424
4824
4004
4004
4014
4008
ENDCHAR
STARTCHAR U_4E2D
ENCODING 20013
SWIDTH 1000 0
DWIDTH 16 0
BBX 16 16 0 -2
BITMAP 
0100
0100
0100
0100
3FF8
2108
2108
2108
2108
2108
3FF8
2108
0100
0100
0100
0100
ENDCHAR
STARTCHAR U_4E3E
ENCODING 20030
SWIDTH 1000 0
DWIDTH 16 0
BBX 16 16 0 -2
BITMAP 
2208
1108
1110
0020
FFFE
0820
1110
2108
CFE6
0100
0100
7FFC
0100
0100
0100
0100
ENDCHAR
STARTCHAR U_4E59
ENCODING 20057
SWIDTH 1000 0
DWIDTH 16 0
BBX 16 16 0 -2
BITMAP 
0000
7FF0
0020
0040
0080
0100
0200
0400
0800
1000
1000
2004
2004
2004
1FFC
0000
ENDCHAR
STARTCHAR U_4E5D
ENCODING 20061
SWIDTH 1000 0
DWIDTH 16 0
BBX 16 16 0 -2
BITMAP 
0400
0400
0400
0400
7FE0
0420
0420
0420
0820
0820
0820
1022
1022
2022
401E
8000
ENDCHAR
STARTCHAR U_4E61
ENCODING 20065
SWIDTH 1000 0
DWIDTH 16 0
BBX 16 16 0 -2
BITMAP 
0200
0200
0420
0820
1040
3F80
0108
0208
0410
1FE0
0040
0080
0100
0600
1800
E000
ENDCHAR
STARTCHAR U_4E8C
ENCODING 20108
SWIDTH 1000 0
DWIDTH 16 0
BBX 16 16 0 -2
BITMAP 
0000
0000
0000
3FF8
0000
0000
0000
0000
0000
0000
0000
0000
FFFE
0000
0000
0000
ENDCHAR
STARTCHAR U_4E94
ENCODING 20116
SWIDTH 1000 0
DWIDTH 16 0
BBX 16 16 0 -2
BITMAP 
0000
7FFC
0200
0200
0200
0200
3FF0
0410
0410
0410
0410
0810
0810
0810
FFFE
0000
ENDCHAR
STARTCHAR U_4ECA
ENCODING 20170
SWIDTH 1000 0
DWIDTH 16 0
BBX 16 16 0 -2
BITMAP 
0100
0100
0280
0440
0820
1210
2108
C106
0000
1FF0
0010
0020
0020
0040
0080
0100
ENDCHAR
STARTCHAR U_4F11
ENCODING 20241
SWIDTH 1000 0
DWIDTH 16 0
BBX 16 16 0 -2
BITMAP 
0840
0840
0840
1040
17FE
3040
30E0
50E0
9150
1150
1248
1444
1842
1040
1040
1040
ENDCHAR
STARTCHAR U_4F4E
ENCODING 20302
SWIDTH 1000 0
DWIDTH 16 0
BBX 16 16 0 -2
BITMAP 
0808
083C
0BE0
1220
1220
3220
3220
53FE
9220
1210
1210
1212
120A
128A
1326
1212
ENDCHAR
STARTCHAR U_4F53
ENCODING 20307
SWIDTH 1000 0
DWIDTH 16 0
BBX 16 16 0 -2
BITMAP 
0840
0840
0840
1040
17FC
3040
30E0
50E0
9150
1150
1248
15F4
1842
1040
1040
1040
ENDCHAR
STARTCHAR U_4FA7
ENCODING 20391
SWIDTH 1000 0
DWIDTH 16 0
BBX 16 16 0 -2
BITMAP 
1004
17C4
1444
2454
2554
6554
6554
A554
2554
2554
2554
2104
2284
2244
2414
2808
ENDCHAR
STARTCHAR U_50CF
ENCODING 20687
SWIDTH 1000 0
DWIDTH 16 0
BBX 16 16 0 -2
BITMAP 
0900
09F0
0A10
17FC
1A24
3244
33FC
5080
9144
16A8
1130
1668
10A8
1124
16A2
1040
ENDCHAR
STARTCHAR U_5149
ENCODING 20809
SWIDTH 1000 0
DWIDTH 16 0
BBX 16 16 0 -2
BITMAP 
0100
2108
1108
0910
0920
0100
FFFE
0440
0440
0440
0440
0842
0842
1042
203E
C000
ENDCHAR
STARTCHAR U_516B
ENCODING 20843
SWIDTH 1000 0
DWIDTH 16 0
BBX 16 16 0 -2
BITMAP 
0000
0040
0440
0440
0440
0440
0440
0420
0820
0820
0810
1010
1008
2008
2004
4002
ENDCHAR
STARTCHAR U_519C
ENCODING 20892
SWIDTH 1000 0
DWIDTH 16 0
BBX 16 16 0 -2
BITMAP 
0100
0100
0100
7FFC
4204
8208
0500
0508
0890
18A0
2840
4820
8810
0A08
0C06
0800
ENDCHAR
STARTCHAR U_51FA
ENCODING 20986
SWIDTH 1000 0
DWIDTH 16 0
BBX 16 16 0 -2
BITMAP 
0100
0100
2108
2108
2108
2108
3FF8
0108
0100
0100
4104
4104
4104
4104
7FFC
0004
ENDCHAR
STARTCHAR U_521D
ENCODING 21021
SWIDTH 1000 0
DWIDTH 16 0
BBX 16 16 0 -2
BITMAP 
2000
1000
01FC
FC44
0844
1044
1044
3444
5844
9444
1444
1084
1084
1104
1228
1410
ENDCHAR
STARTCHAR U_524D
ENCODING 21069
SWIDTH 1000 0
DWIDTH 16 0
BBX 16 16 0 -2
BITMAP 
1010
0810
0820
FFFE
0000
3E08
2248
2248
3E48
2248
2248
3E48
2208
2208
2A28
2410
ENDCHAR
STARTCHAR U_52A8
ENCODING 21160
SWIDTH 1000 0
DWIDTH 16 0
BBX 16 16 0 -2
BITMAP 
0040
0040
7C40
0040
01FC
0044
FE44
2044
2044
2084
4884
4484
FD04
4504
0228
0410
ENDCHAR
STARTCHAR U_5341
ENCODING 21313
SWIDTH 1000 0
DWIDTH 16 0
BBX 16 16 0 -2
BITMAP 
0100
0100
0100
0100
0100
0100
FFFE
0100
0100
0100
0100
0100
0100
0100
0100
0100
ENDCHAR
STARTCHAR U_5348
ENCODING 21320
SWIDTH 1000 0
DWIDTH 16 0
BBX 16 16 0 -2
BITMAP 
0800
0800
0800
1FF8
1100
2100
4100
0100
0100
FFFE
0100
0100
0100
0100
0100
0100
ENDCHAR
STARTCHAR U_536F
ENCODING 21359
SWIDTH 1000 0
DWIDTH 16 0
BBX 16 16 0 -2
BITMAP 
0C00
70FC
4484
4484
4484
4484
4484
4484
4484
4C84
74A8
0490
0880
0880
1080
2080
ENDCHAR
STARTCHAR U_5386
ENCODING 21382
SWIDTH 1000 0
DWIDTH 16 0
BBX 16 16 0 -2
BITMAP 
0000
3FFE
2000
2080
2080
2080
2FFC
2084
2084
2104
2104
2204
2204
4404
4828
9010
ENDCHAR
STARTCHAR U_539F
ENCODING 21407
SWIDTH 1000 0
DWIDTH 16 0
BBX 16 16 0 -2
BITMAP 
0000
3FFE
2080
2100
27F0
2410
2410
27F0
2410
2410
27F0
2080
2490
4888
5284
8100
ENDCHAR
STARTCHAR U_53C2
ENCODING 21442
SWIDTH 1000 0
DWIDTH 16 0
BBX 16 16 0 -2
BITMAP 
0200
0440
0820
1FF0
0200
7FFC
0820
1090
2308
CC46
0180
0610
1820
00C0
0700
7800
ENDCHAR
STARTCHAR U_53F3
ENCODING 21491
SWIDTH 1000 0
DWIDTH 16 0
BBX 16 16 0 -2
BITMAP 
0200
0200
0200
FFFE
0400
0400
0800
0800
1FF8
2808
4808
8808
0808
0808
0FF8
0808
ENDCHAR
STARTCHAR U_53F7
ENCODING 21495
SWIDTH 1000 0
DWIDTH 16 0
BBX 16 16 0 -2
BITMAP 
0000
1FF0
1010
1010
1010
1FF0
0000
FFFE
0800
1000
1FF0
0010
0010
0010
00A0
0040
ENDCHAR
STARTCHAR U_540D
ENCODING 21517
SWIDTH 1000 0
DWIDTH 16 0
BBX 16 16 0 -2
BITMAP 
0200
0200
07F0
0810
1420
6240
0280
0100
0600
1FF8
E808
0808
0808
0808
0FF8
0808
ENDCHAR
STARTCHAR U_5468
ENCODING 21608
SWIDTH 1000 0
DWIDTH 16 0
BBX 16 16 0 -2
BITMAP 
0000
3FF8
2108
2108
2FE8
2108
2108
3FF8
2008
27C8
2448
2448
27C8
4008
4028
8010
ENDCHAR
STARTCHAR U_56DB
ENCODING 22235
SWIDTH 1000 0
DWIDTH 16 0
BBX 16 16 0 -2
BITMAP 
0000
0000
7FFC
4444
4444
4444
4444
4444
4844
483C
5004
6004
4004
7FFC
4004
0000
ENDCHAR
STARTCHAR U_5708
ENCODING 22280
SWIDTH 1000 0
DWIDTH 16 0
BBX 16 16 0 -2
BITMAP 
0000
7FFC
4924
4544
5FF4
4204
7FFC
4824
57D4
644C
44C4
4424
43E4
4004
7FFC
4004
ENDCHAR
STARTCHAR U_571F
ENCODING 22303
SWIDTH 1000 0
DWIDTH 16 0
BBX 16 16 0 -2
BITMAP 
0100
0100
0100
0100
0100
0100
3FF8
0100
0100
0100
0100
0100
0100
0100
FFFE
0000
ENDCHAR
STARTCHAR U_5730
ENCODING 22320
SWIDTH 1000 0
DWIDTH 16 0
BBX 16 16 0 -2
BITMAP 
1020
1020
1020
1120
112C
FD34
1164
13A4
1124
1134
1128
1D22
E122
4102
00FE
0000
ENDCHAR
STARTCHAR U_590F
ENCODING 22799
SWIDTH 1000 0
DWIDTH 16 0
BBX 16 16 0 -2
BITMAP 
7FFC
0200
1FF0
1010
1FF0
1010
1FF0
1010
1FF0
0800
1FF0
2820
4440
0380
1C70
E00E
ENDCHAR
STARTCHAR U_5927
ENCODING 22823
SWIDTH 1000 0
DWIDTH 16 0
BBX 16 16 0 -2
BITMAP 
0100
0100
0100
0100
0100
FFFE
0100
0100
0280
0280
0440
0440
0820
1010
2008
C006
ENDCHAR
STARTCHAR U_5929
ENCODING 22825
SWIDTH 1000 0
DWIDTH 16 0
BBX 16 16 0 -2
BITMAP 
0000
3FF8
0100
0100
0100
0100
FFFE
0100
0280
0280
0440
0440
0820
1010
2008
C006
ENDCHAR
STARTCHAR U_5934
ENCODING 22836
SWIDTH 1000 0
DWIDTH 16 0
BBX 16 16 0 -2
BITMAP 
0080
0080
0880
0480
2480
1080
1080
0080
FFFE
0100
0140
0220
0410
0808
3004
C004
ENDCHAR
STARTCHAR U_59CB
ENCODING 22987
SWIDTH 1000 0
DWIDTH 16 0
BBX 16 16 0 -2
BITMAP 
1020
1020
1020
1040
FC48
2484
25FE
2482
2400
48FC
2884
1084
2884
4484
80FC
0084
ENDCHAR
STARTCHAR U_5B50
ENCODING 23376
SWIDTH 1000 0
DWIDTH 16 0
BBX 16 16 0 -2
BITMAP 
0000
7FF8
0010
0020
0040
0180
0100
FFFE
0100
0100
0100
0100
0100
0100
0500
0200
ENDCHAR
STARTCHAR U_5B57
ENCODING 23383
SWIDTH 1000 0
DWIDTH 16 0
BBX 16 16 0 -2
BITMAP 
0200
0100
7FFE
4002
8004
1FE0
0040
0080
0100
FFFE
0100
0100
0100
0100
0500
0200
ENDCHAR
STARTCHAR U_5B8B
ENCODING 23435
SWIDTH 1000 0
DWIDTH 16 0
BBX 16 16 0 -2
BITMAP 
0200
0100
7FFE
4002
8104
0100
0100
7FFC
0380
0540
0920
1110
2108
C106
0100
0100
ENDCHAR
STARTCHAR U_5B9C
ENCODING 23452
SWIDTH 1000 0
DWIDTH 16 0
BBX 16 16 0 -2
BITMAP 
0200
0100
7FFE
4002
8004
1FF0
1010
1010
1FF0
1010
1010
1FF0
1010
1010
FFFE
0000
ENDCHAR
STARTCHAR U_5BC5
ENCODING 23493
SWIDTH 1000 0
DWIDTH 16 0
BBX 16 16 0 -2
BITMAP 
0200
0100
7FFE
4002
9FF4
0100
1FF0
1110
1110
1FF0
1110
1110
1FF0
0440
0820
1010
ENDCHAR
STARTCHAR U_5BD2
ENCODING 23506
SWIDTH 1000 0
DWIDTH 16 0
BBX 16 16 0 -2
BITMAP 
0200
0100
7FFE
4442
9FF4
0440
3FF8
0440
FFFE
0820
1310
2088
C046
0600
0180
0040
ENDCHAR
STARTCHAR U_5BF9
ENCODING 23545
SWIDTH 1000 0
DWIDTH 16 0
BBX 16 16 0 -2
BITMAP 
0010
0010
0010
7E10
02FE
0210
2410
1490
0850
0850
1410
1210
2210
4010
0050
0020
ENDCHAR
STARTCHAR U_5C0F
ENCODING 23567
SWIDTH 1000 0
DWIDTH 16 0
BBX 16 16 0 -2
BITMAP 
0100
0100
0100
0100
0100
1110
1108
1104
2104
2102
4102
8102
0100
0100
0500
0200
ENDCHAR
STARTCHAR U_5E74
ENCODING 24180
SWIDTH 1000 0
DWIDTH 16 0
BBX 16 16 0 -2
BITMAP 
1000
1000
1FFC
2080
2080
4080
1FF8
1080
1080
1080
FFFE
0080
0080
0080
0080
0080
ENDCHAR
STARTCHAR U_5E8A
ENCODING 24202
SWIDTH 1000 0
DWIDTH 16 0
BBX 16 16 0 -2
BITMAP 
0100
0080
3FFE
2000
2080
2080
2FFC
2080
21C0
22A0
22A0
2490
4888
5086
8080
0080
ENDCHAR
STARTCHAR U_5EFF
ENCODING 24319
SWIDTH 1000 0
DWIDTH 16 0
BBX 16 16 0 -2
BITMAP 
0810
0810
0810
0810
0810
FFFE
0810
0810
0810
0810
0810
0810
0810
0810
0FF0
0810
ENDCHAR
STARTCHAR U_5F0F
ENCODING 24335
SWIDTH 1000 0
DWIDTH 16 0
BBX 16 16 0 -2
BITMAP 
0048
0044
0044
0040
FFFE
0040
0040
3E40
0840
0840
0820
0822
0F12
780A
2006
0002
ENDCHAR
STARTCHAR U_5F53
ENCODING 24403
SWIDTH 1000 0
DWIDTH 16 0
BBX 16 16 0 -2
BITMAP 
0100
2108
1108
0910
0920
0100
7FF8
0008
0008
0008
3FF8
0008
0008
0008
7FF8
0008
ENDCHAR
STARTCHAR U_5FCC
ENCODING 24524
SWIDTH 1000 0
DWIDTH 16 0
BBX 16 16 0 -2
BITMAP 
0000
3FF0
0010
0010
3FF0
2000
2004
2004
1FFC
0100
0888
4884
4812
4812
87F0
0000
ENDCHAR
STARTCHAR U_601D
ENCODING 24605
SWIDTH 1000 0
DWIDTH 16 0
BBX 16 16 0 -2
BITMAP 
0000
3FF8
2108
2108
3FF8
2108
2108
3FF8
2008
0100
0888
4884
4812
4812
87F0
0000
ENDCHAR
STARTCHAR U_653E
ENCODING 25918
SWIDTH 1000 0
DWIDTH 16 0
BBX 16 16 0 -2
BITMAP 
2040
1040
0040
FE80
20FE
2108
3E88
2488
2488
2450
2450
2420
4450
5488
8904
0202
ENDCHAR
STARTCHAR U_6545
ENCODING 25925
SWIDTH 1000 0
DWIDTH 16 0
BBX 16 16 0 -2
BITMAP 
1040
1040
1040
1080
FEFE
1108
1288
1088
7C88
4450
4450
4420
4450
7C88
4504
0202
ENDCHAR
STARTCHAR U_6570
ENCODING 25968
SWIDTH 1000 0
DWIDTH 16 0
BBX 16 16 0 -2
BITMAP 
0820
4920
2A20
083E
FF44
2A44
4944
88A4
1028
FE28
2210
4210
6428
1828
3444
C282
ENDCHAR
STARTCHAR U_6587
ENCODING 25991
SWIDTH 1000 0
DWIDTH 16 0
BBX 16 16 0 -2
BITMAP 
0200
0100
0100
FFFE
1010
1010
0820
0820
0440
0280
0100
0280
0440
0820
3018
C006
ENDCHAR
STARTCHAR U_65E5
ENCODING 26085
SWIDTH 1000 0
DWIDTH 16 0
BBX 16 16 0 -2
BITMAP 
0000
1FF0
1010
1010
1010
1010
1010
1FF0
1010
1010
1010
1010
1010
1010
1FF0
1010
ENDCHAR
STARTCHAR U_660E
ENCODING 26126
SWIDTH 1000 0
DWIDTH 16 0
BBX 16 16 0 -2
BITMAP 
0000
00FC
7C84
4484
4484
44FC
7C84
4484
4484
44FC
7C84
4484
0104
0104
0214
0408
ENDCHAR
STARTCHAR U_662F
ENCODING 26159
SWIDTH 1000 0
DWIDTH 16 0
BBX 16 16 0 -2
BITMAP 
1FF0
1010
1010
1FF0
1010
1010
1FF0
0000
FFFE
0100
1100
11F8
1100
2900
4500
83FE
ENDCHAR
STARTCHAR U_6708
ENCODING 26376
SWIDTH 1000 0
DWIDTH 16 0
BBX 16 16 0 -2
BITMAP 
07FC
0404
0404
0404
0404
07FC
0404
0404
0404
07FC
0404
0404
0804
0804
1014
2008
ENDCHAR
STARTCHAR U_671B
ENCODING 26395
SWIDTH 1000 0
DWIDTH 16 0
BBX 16 16 0 -2
BITMAP 
1000
087C
FF44
207C
2044
267C
3844
2094
0108
7FFC
0100
0100
3FF8
0100
0100
FFFE
ENDCHAR
STARTCHAR U_671F
ENCODING 26399
SWIDTH 1000 0
DWIDTH 16 0
BBX 16 16 0 -2
BITMAP 
2200
227C
7F44
2244
2244
3E7C
2244
2244
3E44
227C
2244
FF44
0484
2284
4114
8208
ENDCHAR
STARTCHAR U_672A
ENCODING 26410
SWIDTH 1000 0
DWIDTH 16 0
BBX 16 16 0 -2
BITMAP 
0100
0100
0100
3FF8
0100
0100
0100
FFFE
0380
0540
0920
1110
2108
C106
0100
0100
ENDCHAR
STARTCHAR U_672B
ENCODING 26411
SWIDTH 1000 0
DWIDTH 16 0
BBX 16 16 0 -2
BITMAP 
0100
0100
0100
FFFE
0100
0100
0100
7FFC
0380
0540
0920
1110
2108
C106
0100
0100
ENDCHAR
STARTCHAR U_6837
ENCODING 26679
SWIDTH 1000 0
DWIDTH 16 0
BBX 16 16 0 -2
BITMAP 
1104
1084
1088
1000
FBFE
1020
3020
39FC
5420
5020
93FE
1020
1020
1020
1020
1020
ENDCHAR
STARTCHAR U_683C
ENCODING 26684
SWIDTH 1000 0
DWIDTH 16 0
BBX 16 16 0 -2
BITMAP 
1080
1080
10F8
1108
FB10
14A0
3040
38A0
5518
5206
95F8
1108
1108
1108
11F8
1108
ENDCHAR
STARTCHAR U_6977
ENCODING 26999
SWIDTH 1000 0
DWIDTH 16 0
BBX 16 16 0 -2
BITMAP 
1110
1112
11D4
1118
FD52
1192
312E
3840
55FC
5104
9104
11FC
1104
1104
11FC
1104
ENDCHAR
STARTCHAR U_6B63
ENCODING 27491
SWIDTH 1000 0
DWIDTH 16 0
BBX 16 16 0 -2
BITMAP 
0000
7FFC
0100
0100
0100
0100
1100
11F8
1100
1100
1100
1100
1100
1100
FFFE
0000
ENDCHAR
STARTCHAR U_6BD4
ENCODING 27604
SWIDTH 1000 0
DWIDTH 16 0
BBX 16 16 0 -2
BITMAP 
0080
2080
2080
2084
2088
2090
3EA0
20C0
2080
2080
2080
2082
2682
3882
207E
0000
ENDCHAR
STARTCHAR U_6CC9
ENCODING 27849
SWIDTH 1000 0
DWIDTH 16 0
BBX 16 16 0 -2
BITMAP 
0100
0200
1FF0
1010
1010
1FF0
1010
1010
1FF0
0104
7D88
0950
1120
2118
C506
0200
ENDCHAR
STARTCHAR U_6E05
ENCODING 28165
SWIDTH 1000 0
DWIDTH 16 0
BBX 16 16 0 -2
BITMAP 
2040
1040
17FC
0040
83F8
4040
4FFE
0800
13F8
1208
13F8
E208
23F8
2208
2228
0210
ENDCHAR
STARTCHAR U_6EE1
ENCODING 28385
SWIDTH 1000 0
DWIDTH 16 0
BBX 16 16 0 -2
BITMAP 
0108
2108
17FE
1108
8000
47FE
4090
1090
17FE
2492
E492
256A
2646
2402
240A
0404
ENDCHAR
STARTCHAR U_70B9
ENCODING 28857
SWIDTH 1000 0
DWIDTH 16 0
BBX 16 16 0 -2
BITMAP 
0200
0200
0200
03FC
0200
0200
3FF0
2010
2010
2010
3FF0
0000
2488
2244
4244
8004
ENDCHAR
STARTCHAR U_73ED
ENCODING 29677
SWIDTH 1000 0
DWIDTH 16 0
BBX 16 16 0 -2
BITMAP 
0080
0080
F8BE
2288
2288
2288
2288
FABE
2288
2488
2088
3908
E108
423E
0400
0800
ENDCHAR
STARTCHAR U_7532
ENCODING 30002
SWIDTH 1000 0
DWIDTH 16 0
BBX 16 16 0 -2
BITMAP 
0000
3FF8
2108
2108
2108
3FF8
2108
2108
2108
3FF8
2108
0100
0100
0100
0100
0100
ENDCHAR
STARTCHAR U_7591
ENCODING 30097
SWIDTH 1000 0
DWIDTH 16 0
BBX 16 16 0 -2
BITMAP 
4000
4DFC
7008
4450
4420
3DFE
4024
7C28
90A0
10B8
FEA0
10A0
28E0
2520
451E
8200
ENDCHAR
STARTCHAR U_76EE
ENCODING 30446
SWIDTH 1000 0
DWIDTH 16 0
BBX 16 16 0 -2
BITMAP 
0000
3FF8
2008
2008
2008
3FF8
2008
2008
2008
3FF8
2008
2008
2008
2008
3FF8
2008
ENDCHAR
STARTCHAR U_7940
ENCODING 31040
SWIDTH 1000 0
DWIDTH 16 0
BBX 16 16 0 -2
BITMAP 
2000
1000
11FC
F904
0904
1104
1104
39FC
5504
9500
1100
1102
1102
1102
10FE
1000
ENDCHAR
STARTCHAR U_7948
ENCODING 31048
SWIDTH 1000 0
DWIDTH 16 0
BBX 16 16 0 -2
BITMAP 
2008
101C
11E0
F900
0900
1100
11FE
3910
5510
9510
1110
1110
1110
1210
1210
1410
ENDCHAR
STARTCHAR U_796D
ENCODING 31085
SWIDTH 1000 0
DWIDTH 16 0
BBX 16 16 0 -2
BITMAP 
1080
1080
3EFC
6244
9448
4830
3010
27C8
C006
0000
1FF0
0100
0920
1110
2508
0200
ENDCHAR
STARTCHAR U_798F
ENCODING 31119
SWIDTH 1000 0
DWIDTH 16 0
BBX 16 16 0 -2
BITMAP 
4000
23FE
2000
F9FC
1104
1104
21FC
3000
6BFE
AA22
2222
23FE
2222
2222
23FE
2202
ENDCHAR
STARTCHAR U_7A84
ENCODING 31364
SWIDTH 1000 0
DWIDTH 16 0
BBX 16 16 0 -2
BITMAP 
0200
0100
7FFE
4822
9014
2808
0FF8
1400
2400
47F0
0400
0400
07F8
0400
0400
0400
ENDCHAR
STARTCHAR U_7ACB
ENCODING 31435
SWIDTH 1000 0
DWIDTH 16 0
BBX 16 16 0 -2
BITMAP 
0200
0100
0100
0000
7FFC
0000
0010
1010
0820
0820
0440
0440
0480
0000
FFFE
0000
ENDCHAR
STARTCHAR U_7B2C
ENCODING 31532
SWIDTH 1000 0
DWIDTH 16 0
BBX 16 16 0 -2
BITMAP 
2040
3F7E
4890
8508
3FF8
0108
0108
3FF8
2100
2100
3FFC
0304
0504
1928
E110
0100
ENDCHAR
STARTCHAR U_7C97
ENCODING 31895
SWIDTH 1000 0
DWIDTH 16 0
BBX 16 16 0 -2
BITMAP 
1000
11F8
9508
5508
5908
11F8
FD08
3108
3908
55F8
5508
9108
1108
1108
17FE
1000
ENDCHAR
STARTCHAR U_7D20
ENCODING 32032
SWIDTH 1000 0
DWIDTH 16 0
BBX 16 16 0 -2
BITMAP 
0100
3FF8
0100
1FF0
0100
FFFE
0200
0420
1FC0
0180
0610
3FF8
0108
1120
2510
4208
ENDCHAR
STARTCHAR U_7EA2
ENCODING 32418
SWIDTH 1000 0
DWIDTH 16 0
BBX 16 16 0 -2
BITMAP 
1000
1000
21FC
2420
4420
F820
1020
2020
4020
FC20
4020
0020
1C20
E020
43FE
0000
ENDCHAR
STARTCHAR U_7F29
ENCODING 32553
SWIDTH 1000 0
DWIDTH 16 0
BBX 16 16 0 -2
BITMAP 
2040
2020
27FE
4402
5100
F1FE
2210
2620
4A7C
F244
4244
027C
3244
C244
027C
0244
ENDCHAR
STARTCHAR U_8003
ENCODING 32771
SWIDTH 1000 0
DWIDTH 16 0
BBX 16 16 0 -2
BITMAP 
0200
0208
3FD0
0220
0240
FFFE
0100
0200
0FF8
1200
2400
47F0
8010
0010
00A0
0040
ENDCHAR
STARTCHAR U_884C
ENCODING 34892
SWIDTH 1000 0
DWIDTH 16 0
BBX 16 16 0 -2
BITMAP 
0800
09FC
1000
2000
4800
0800
13FE
3020
5020
9020
1020
1020
1020
1020
10A0
1040
ENDCHAR
STARTCHAR U_8C37
ENCODING 35895
SWIDTH 1000 0
DWIDTH 16 0
BBX 16 16 0 -2
BITMAP 
0820
0810
1108
2104
4280
0440
0820
3018
C006
1FF0
1010
1010
1010
1010
1FF0
1010
ENDCHAR
STARTCHAR U_9635
ENCODING 38453
SWIDTH 1000 0
DWIDTH 16 0
BBX 16 16 0 -2
BITMAP 
0040
7C40
4440
4BFE
4880
50A0
4920
49FC
4420
4420
4420
6BFE
5020
4020
4020
4020
ENDCHAR
STARTCHAR U_96E8
ENCODING 38632
SWIDTH 1000 0
DWIDTH 16 0
BBX 16 16 0 -2
BITMAP 
0000
FFFE
0100
0100
0100
7FFC
4104
4104
4944
4524
4104
4944
4524
4104
4114
4008
ENDCHAR
STARTCHAR U_971C
ENCODING 38684
SWIDTH 1000 0
DWIDTH 16 0
BBX 16 16 0 -2
BITMAP 
3FF8
0100
7FFE
4102
9D74
0100
1D70
0000
08FC
7E84
18FC
2C84
4AFC
8884
08FC
0884
ENDCHAR
STARTCHAR U_971E
ENCODING 38686
SWIDTH 1000 0
DWIDTH 16 0
BBX 16 16 0 -2
BITMAP 
3FF8
0100
7FFE
4102
9D74
0100
1D70
0000
3EF8
2208
3EF8
2000
3EF8
2048
3E30
20CC
ENDCHAR
STARTCHAR U_9732
ENCODING 38706
SWIDTH 1000 0
DWIDTH 16 0
BBX 16 16 0 -2
BITMAP 
3FF8
0100
7FFE
4102
9D74
0100
1D70
0040
7CF8
4548
7C30
11CE
5C00
50F8
5C88
E0F8
ENDCHAR
STARTCHAR U_9879
ENCODING 39033
SWIDTH 1000 0
DWIDTH 16 0
BBX 16 16 0 -2
BITMAP 
0000
01FE
0020
FC40
11FC
1104
1124
1124
1124
1124
1124
1D44
E050
4088
0104
0202
ENDCHAR
STARTCHAR U_9A6C
ENCODING 39532
SWIDTH 1000 0
DWIDTH 16 0
BBX 16 16 0 -2
BITMAP 
0000
7FE0
0020
0020
1020
1020
1020
1FFC
0004
0004
0004
FFE4
0004
0004
0028
0010
ENDCHAR
STARTCHAR U_9A7F
ENCODING 39551
SWIDTH 1000 0
DWIDTH 16 0
BBX 16 16 0 -2
BITMAP 
0000
FBFC
0904
4888
4850
4820
48D8
7F26
0420
05FC
1C20
E420
47FE
0420
2820
1020
ENDCHAR
STARTCHAR U_9E5C
ENCODING 40540
SWIDTH 1000 0
DWIDTH 16 0
BBX 16 16 0 -2
BITMAP 
0020
7E20
247E
18A4
FF28
2910
4A28
9AC6
0400
1FE0
1220
1160
1FFC
0004
7FD4
0008
ENDCHAR
STARTCHAR U_9ED1
ENCODING 40657
SWIDTH 1000 0
DWIDTH 16 0
BBX 16 16 0 -2
BITMAP 
0000
3FF8
2108
2928
2548
3FF8
0100
0100
3FF8
0100
0100
FFFE
0000
4888
4444
8444
ENDCHAR
STARTCHAR U_FF08
ENCODING 65288
SWIDTH 0 0
DWIDTH 16 0
BBX 4 16 9 -2
BITMAP
10
20
20
40
40
40
80
80
80
80
40
40
40
20
20
10
ENDCHAR
STARTCHAR U_FF09
ENCODING 65289
SWIDTH 0 0
DWIDTH 16 0
BBX 4 16 3 -2
BITMAP
80
40
40
20
20
20
10
10
10
10
20
20
20
40
40
80
ENDCHAR
STARTCHAR U_FF0C
ENCODING 65292
SWIDTH 0 0
DWIDTH 16 0
BBX 2 4 3 0
BITMAP
C0
C0
40
80
ENDCHAR
STARTCHAR U_FF1A
ENCODING 65306
SWIDTH 0 0
DWIDTH 16 0
BBX 2 8 7 2
BITMAP
C0
C0
00
00
00
00
C0
C0
ENDCHAR
ENDFONT
