STARTFONT 2.1
FONT harmony-24
SIZE 24 75 75
FONTBOUNDINGBOX 48 29 0 -6
STARTPROPERTIES 3
PIXEL_SIZE 24
FONT_ASCENT 23
FONT_DESCENT 6
ENDPROPERTIES
CHARS 127
STARTCHAR U+0020
ENCODING 32
SWIDTH 500 0
DWIDTH 6 0
BBX 0 0 0 0
BITMAP
ENDCHAR
STARTCHAR U+0021
ENCODING 33
SWIDTH 500 0
DWIDTH 5 0
BBX 2 18 1 0
BITMAP
C0
C0
C0
C0
C0
C0
C0
C0
C0
C0
C0
C0
C0
00
00
C0
C0
C0
ENDCHAR
STARTCHAR U+0022
ENCODING 34
SWIDTH 500 0
DWIDTH 9 0
BBX 6 6 1 14
BITMAP
CC
CC
CC
CC
CC
CC
ENDCHAR
STARTCHAR U+0023
ENCODING 35
SWIDTH 500 0
DWIDTH 17 0
BBX 15 18 1 0
BITMAP
0318
0218
0618
0610
0630
3FFE
3FFE
0C30
0C60
0C60
1860
FFF8
FFF8
18C0
10C0
30C0
30C0
3180
ENDCHAR
STARTCHAR U+0024
ENCODING 36
SWIDTH 500 0
DWIDTH 13 0
BBX 12 25 0 -3
BITMAP
0300
0300
0300
0300
1FC0
3FE0
7370
6330
6300
7300
7B00
3F00
0F80
03E0
0370
0330
4330
E330
7330
3B60
1FE0
0780
0300
0300
0300
ENDCHAR
STARTCHAR U+0025
ENCODING 37
SWIDTH 500 0
DWIDTH 20 0
BBX 18 18 1 0
BITMAP
3C0600
7E0C00
E70C00
C31800
C31800
E73000
7E7000
3C6000
00C000
00C000
018F00
039F80
0339C0
0630C0
0630C0
0C39C0
1C1F80
180F00
ENDCHAR
STARTCHAR U+0026
ENCODING 38
SWIDTH 500 0
DWIDTH 17 0
BBX 16 19 1 0
BITMAP
0F80
1FC0
38E0
3060
3060
38E0
19C0
1F80
1E0C
3F0C
738C
E1D8
C0F8
C078
C030
E078
70FC
3FCE
1F07
ENDCHAR
STARTCHAR U+0027
ENCODING 39
SWIDTH 500 0
DWIDTH 5 0
BBX 2 6 1 14
BITMAP
C0
C0
C0
C0
C0
C0
ENDCHAR
STARTCHAR U+0028
ENCODING 40
SWIDTH 500 0
DWIDTH 9 0
BBX 6 22 2 -3
BITMAP
18
18
30
30
60
60
E0
C0
C0
C0
C0
C0
C0
C0
E0
60
60
60
30
30
18
0C
ENDCHAR
STARTCHAR U+0029
ENCODING 41
SWIDTH 500 0
DWIDTH 8 0
BBX 6 22 0 -3
BITMAP
60
60
30
38
18
18
0C
0C
0C
0C
0C
0C
0C
0C
0C
1C
18
18
30
30
60
C0
ENDCHAR
STARTCHAR U+002A
ENCODING 42
SWIDTH 500 0
DWIDTH 10 0
BBX 8 9 1 9
BITMAP
18
18
DB
7F
3C
7E
DB
18
18
ENDCHAR
STARTCHAR U+002B
ENCODING 43
SWIDTH 500 0
DWIDTH 13 0
BBX 11 11 1 3
BITMAP
0600
0600
0600
0600
FFE0
FFE0
0600
0600
0600
0600
0600
ENDCHAR
STARTCHAR U+002C
ENCODING 44
SWIDTH 500 0
DWIDTH 5 0
BBX 3 6 1 -3
BITMAP
40
E0
60
20
60
C0
ENDCHAR
STARTCHAR U+002D
ENCODING 45
SWIDTH 500 0
DWIDTH 12 0
BBX 9 2 1 7
BITMAP
FF80
FF80
ENDCHAR
STARTCHAR U+002E
ENCODING 46
SWIDTH 500 0
DWIDTH 5 0
BBX 2 3 1 0
BITMAP
C0
C0
C0
ENDCHAR
STARTCHAR U+002F
ENCODING 47
SWIDTH 500 0
DWIDTH 9 0
BBX 8 18 1 0
BITMAP
03
06
06
06
0C
0C
0C
18
18
38
30
30
60
60
60
C0
C0
C0
ENDCHAR
STARTCHAR U+0030
ENCODING 48
SWIDTH 500 0
DWIDTH 14 0
BBX 11 18 1 0
BITMAP
1F00
3F80
71C0
60C0
60E0
C060
C060
C060
C060
C060
C060
C060
C060
60E0
60C0
71C0
3F80
1F00
ENDCHAR
STARTCHAR U+0031
ENCODING 49
SWIDTH 500 0
DWIDTH 14 0
BBX 7 18 2 0
BITMAP
06
1E
7E
76
C6
06
06
06
06
06
06
06
06
06
06
06
06
06
ENDCHAR
STARTCHAR U+0032
ENCODING 50
SWIDTH 500 0
DWIDTH 14 0
BBX 11 18 1 0
BITMAP
1F00
3FC0
70C0
E0E0
4060
0060
0060
00C0
01C0
0180
0300
0700
0E00
1C00
3800
7000
FFE0
FFE0
ENDCHAR
STARTCHAR U+0033
ENCODING 51
SWIDTH 500 0
DWIDTH 14 0
BBX 11 18 1 0
BITMAP
1F00
7F80
E1C0
C0C0
00C0
00C0
0180
0F00
1F80
01C0
00E0
0060
0060
C060
C0E0
E1C0
7F80
1F00
ENDCHAR
STARTCHAR U+0034
ENCODING 52
SWIDTH 500 0
DWIDTH 14 0
BBX 12 18 1 0
BITMAP
0380
0300
0700
0600
0E00
0C00
1C00
18C0
30C0
30C0
60C0
60C0
FFF0
FFF0
00C0
00C0
00C0
00C0
ENDCHAR
STARTCHAR U+0035
ENCODING 53
SWIDTH 500 0
DWIDTH 14 0
BBX 10 18 2 0
BITMAP
7F80
7F80
6000
6000
6000
E000
FE00
FF00
E380
C1C0
00C0
00C0
00C0
00C0
C1C0
E380
7F00
3E00
ENDCHAR
STARTCHAR U+0036
ENCODING 54
SWIDTH 500 0
DWIDTH 14 0
BBX 11 18 1 0
BITMAP
0300
0700
0600
0E00
1C00
1800
3800
3F00
7FC0
71C0
E0E0
C060
C060
C060
E0E0
71C0
3F80
1F00
ENDCHAR
STARTCHAR U+0037
ENCODING 55
SWIDTH 500 0
DWIDTH 14 0
BBX 11 18 1 0
BITMAP
FFE0
FFE0
00E0
00C0
00C0
0180
0180
0380
0300
0700
0600
0600
0E00
0C00
1C00
1800
1800
3800
ENDCHAR
STARTCHAR U+0038
ENCODING 56
SWIDTH 500 0
DWIDTH 14 0
BBX 11 18 1 0
BITMAP
0F00
3FC0
70E0
6060
6060
6060
30C0
3F80
3F80
71C0
60E0
C060
C060
C060
E0E0
71C0
3FC0
1F00
ENDCHAR
STARTCHAR U+0039
ENCODING 57
SWIDTH 500 0
DWIDTH 14 0
BBX 11 18 1 0
BITMAP
1F00
3F80
71C0
E0E0
C060
C060
C060
E0E0
71E0
3FC0
1F80
0380
0300
0700
0600
0E00
1C00
1800
ENDCHAR
STARTCHAR U+003A
ENCODING 58
SWIDTH 500 0
DWIDTH 6 0
BBX 2 13 2 0
BITMAP
C0
C0
C0
00
00
00
00
00
00
00
C0
C0
C0
ENDCHAR
STARTCHAR U+003B
ENCODING 59
SWIDTH 500 0
DWIDTH 7 0
BBX 3 16 2 -3
BITMAP
E0
E0
40
00
00
00
00
00
00
00
C0
E0
E0
20
40
C0
ENDCHAR
STARTCHAR U+003C
ENCODING 60
SWIDTH 500 0
DWIDTH 13 0
BBX 11 11 1 3
BITMAP
0060
03E0
0F80
3C00
F000
F000
7C00
1F00
03C0
00E0
0020
ENDCHAR
STARTCHAR U+003D
ENCODING 61
SWIDTH 500 0
DWIDTH 13 0
BBX 11 7 1 6
BITMAP
FFE0
FFE0
0000
0000
0000
FFE0
FFE0
ENDCHAR
STARTCHAR U+003E
ENCODING 62
SWIDTH 500 0
DWIDTH 13 0
BBX 11 11 1 3
BITMAP
C000
F800
3E00
0780
01E0
00E0
07C0
1F00
7800
E000
8000
ENDCHAR
STARTCHAR U+003F
ENCODING 63
SWIDTH 500 0
DWIDTH 11 0
BBX 10 19 0 0
BITMAP
1F00
3F80
71C0
E0C0
00C0
00C0
0180
0380
0700
0600
0E00
0C00
0C00
0400
0000
0000
0C00
0C00
0C00
ENDCHAR
STARTCHAR U+0040
ENCODING 64
SWIDTH 500 0
DWIDTH 23 0
BBX 21 22 1 -3
BITMAP
01FC00
07FF80
0F03C0
1C00E0
380070
70F330
61FF30
E38F18
C70718
C60318
C60318
C60318
C60318
C70718
E38F30
61F9F0
70F0E0
380000
1C0000
0F0300
07FF00
01FC00
ENDCHAR
STARTCHAR U+0041
ENCODING 65
SWIDTH 500 0
DWIDTH 16 0
BBX 16 18 0 0
BITMAP
0180
0380
03C0
03C0
06C0
0660
0C60
0C70
0C30
1830
1818
1FF8
3FFC
300C
700C
600E
6006
E007
ENDCHAR
STARTCHAR U+0042
ENCODING 66
SWIDTH 500 0
DWIDTH 16 0
BBX 13 18 2 0
BITMAP
FF00
FFC0
C1C0
C060
C060
C060
C060
C1C0
FF80
FFE0
C070
C038
C018
C018
C038
C070
FFF0
FFC0
ENDCHAR
STARTCHAR U+0043
ENCODING 67
SWIDTH 500 0
DWIDTH 15 0
BBX 14 18 1 0
BITMAP
07C0
1FF0
3C38
301C
6000
6000
C000
C000
C000
C000
C000
E000
6000
6000
301C
3C38
1FF0
07C0
ENDCHAR
STARTCHAR U+0044
ENCODING 68
SWIDTH 500 0
DWIDTH 17 0
BBX 14 18 2 0
BITMAP
FF00
FFC0
C0E0
C070
C038
C018
C01C
C00C
C00C
C00C
C00C
C01C
C018
C038
C030
C0E0
FFC0
FF00
ENDCHAR
STARTCHAR U+0045
ENCODING 69
SWIDTH 500 0
DWIDTH 14 0
BBX 11 18 2 0
BITMAP
FFE0
FFE0
C000
C000
C000
C000
C000
C000
FFC0
FFC0
C000
C000
C000
C000
C000
C000
FFE0
FFE0
ENDCHAR
STARTCHAR U+0046
ENCODING 70
SWIDTH 500 0
DWIDTH 14 0
BBX 11 18 2 0
BITMAP
FFE0
FFE0
C000
C000
C000
C000
C000
C000
FFC0
FFC0
C000
C000
C000
C000
C000
C000
C000
C000
ENDCHAR
STARTCHAR U+0047
ENCODING 71
SWIDTH 500 0
DWIDTH 16 0
BBX 14 18 1 0
BITMAP
07E0
0FF8
3C3C
300C
6000
6000
E000
C000
C0FC
C0FC
C00C
E00C
600C
600C
300C
3C1C
0FF8
07E0
ENDCHAR
STARTCHAR U+0048
ENCODING 72
SWIDTH 500 0
DWIDTH 18 0
BBX 14 18 2 0
BITMAP
C00C
C00C
C00C
C00C
C00C
C00C
C00C
C00C
FFFC
FFFC
C00C
C00C
C00C
C00C
C00C
C00C
C00C
C00C
ENDCHAR
STARTCHAR U+0049
ENCODING 73
SWIDTH 500 0
DWIDTH 6 0
BBX 2 18 2 0
BITMAP
C0
C0
C0
C0
C0
C0
C0
C0
C0
C0
C0
C0
C0
C0
C0
C0
C0
C0
ENDCHAR
STARTCHAR U+004A
ENCODING 74
SWIDTH 500 0
DWIDTH 11 0
BBX 9 18 0 0
BITMAP
0180
0180
0180
0180
0180
0180
0180
0180
0180
0180
0180
0180
0180
0180
4180
E380
7F00
3E00
ENDCHAR
STARTCHAR U+004B
ENCODING 75
SWIDTH 500 0
DWIDTH 16 0
BBX 14 18 2 0
BITMAP
C038
C070
C0E0
C0C0
C180
C300
C600
CE00
DE00
FF00
F380
E180
C1C0
C0E0
C070
C030
C038
C01C
ENDCHAR
STARTCHAR U+004C
ENCODING 76
SWIDTH 500 0
DWIDTH 14 0
BBX 11 18 2 0
BITMAP
C000
C000
C000
C000
C000
C000
C000
C000
C000
C000
C000
C000
C000
C000
C000
C000
FFE0
FFE0
ENDCHAR
STARTCHAR U+004D
ENCODING 77
SWIDTH 500 0
DWIDTH 21 0
BBX 17 18 2 0
BITMAP
C00180
E00380
F00380
F00780
F80F80
D80D80
CC1980
CE1980
C63180
C77180
C3E180
C1C180
C1C180
C00180
C00180
C00180
C00180
C00180
ENDCHAR
STARTCHAR U+004E
ENCODING 78
SWIDTH 500 0
DWIDTH 18 0
BBX 14 18 2 0
BITMAP
C00C
E00C
F00C
F00C
F80C
DC0C
CC0C
C60C
C70C
C38C
C18C
C0CC
C0EC
C07C
C03C
C03C
C01C
C00C
ENDCHAR
STARTCHAR U+004F
ENCODING 79
SWIDTH 500 0
DWIDTH 18 0
BBX 16 18 1 0
BITMAP
07E0
1FF8
3C3C
300C
6006
6006
C007
C003
C003
C003
C003
E007
6006
6006
300C
3C3C
1FF8
07E0
ENDCHAR
STARTCHAR U+0050
ENCODING 80
SWIDTH 500 0
DWIDTH 14 0
BBX 11 18 2 0
BITMAP
FF00
FF80
C1C0
C0E0
C060
C060
C060
C0E0
C1C0
FF80
FF00
C000
C000
C000
C000
C000
C000
C000
ENDCHAR
STARTCHAR U+0051
ENCODING 81
SWIDTH 500 0
DWIDTH 18 0
BBX 16 22 1 -4
BITMAP
07E0
1FF8
3C3C
300C
6006
6006
C007
C003
C003
C003
C003
E007
6006
6006
300C
3C3C
1FF8
07F0
003C
000E
0007
0001
ENDCHAR
STARTCHAR U+0052
ENCODING 82
SWIDTH 500 0
DWIDTH 15 0
BBX 13 18 2 0
BITMAP
FF00
FF80
C1C0
C0E0
C060
C060
C060
C0E0
C1C0
FF80
FF00
C300
C180
C1C0
C0C0
C060
C070
C038
ENDCHAR
STARTCHAR U+0053
ENCODING 83
SWIDTH 500 0
DWIDTH 14 0
BBX 12 18 1 0
BITMAP
1F80
7FC0
70E0
C070
C000
C000
E000
7C00
1F80
07C0
00E0
0070
0030
8030
C070
F0E0
7FC0
1F80
ENDCHAR
STARTCHAR U+0054
ENCODING 84
SWIDTH 500 0
DWIDTH 15 0
BBX 13 18 1 0
BITMAP
FFF8
FFF8
0300
0300
0300
0300
0300
0300
0300
0300
0300
0300
0300
0300
0300
0300
0300
0300
ENDCHAR
STARTCHAR U+0055
ENCODING 85
SWIDTH 500 0
DWIDTH 18 0
BBX 14 18 2 0
BITMAP
C00C
C00C
C00C
C00C
C00C
C00C
C00C
C00C
C00C
C00C
C00C
C00C
C00C
E01C
6018
7870
3FF0
0FC0
ENDCHAR
STARTCHAR U+0056
ENCODING 86
SWIDTH 500 0
DWIDTH 16 0
BBX 15 18 0 0
BITMAP
E006
6006
6006
300C
300C
380C
1818
1818
1C30
0C30
0C30
0660
0660
0760
03C0
03C0
01C0
0180
ENDCHAR
STARTCHAR U+0057
ENCODING 87
SWIDTH 500 0
DWIDTH 23 0
BBX 23 18 0 0
BITMAP
E01806
60380E
60380C
703C0C
303C0C
306C18
306E18
186618
18C610
18C630
1CC330
0C8330
0D8360
0F81E0
0781E0
0701C0
0701C0
0300C0
ENDCHAR
STARTCHAR U+0058
ENCODING 88
SWIDTH 500 0
DWIDTH 16 0
BBX 14 18 1 0
BITMAP
C00C
E018
7038
3070
1860
1CC0
0FC0
0780
0700
0780
0780
0DC0
1CE0
3860
3070
6038
E018
C00C
ENDCHAR
STARTCHAR U+0059
ENCODING 89
SWIDTH 500 0
DWIDTH 14 0
BBX 14 18 0 0
BITMAP
E00C
6018
7038
3030
3870
1C60
0CC0
0EC0
0780
0380
0300
0300
0300
0300
0300
0300
0300
0300
ENDCHAR
STARTCHAR U+005A
ENCODING 90
SWIDTH 500 0
DWIDTH 15 0
BBX 13 18 1 0
BITMAP
7FF8
7FF8
0030
0060
00E0
00C0
0180
0380
0300
0700
0E00
0C00
1C00
3800
3000
7000
FFF8
FFF8
ENDCHAR
STARTCHAR U+005B
ENCODING 91
SWIDTH 500 0
DWIDTH 8 0
BBX 6 23 2 -3
BITMAP
F8
FC
C0
C0
C0
C0
C0
C0
C0
C0
C0
C0
C0
C0
C0
C0
C0
C0
C0
C0
C0
F8
FC
ENDCHAR
STARTCHAR U+005C
ENCODING 92
SWIDTH 500 0
DWIDTH 9 0
BBX 8 18 1 0
BITMAP
C0
C0
C0
60
60
60
30
30
38
18
18
0C
0C
0C
06
06
06
03
ENDCHAR
STARTCHAR U+005D
ENCODING 93
SWIDTH 500 0
DWIDTH 8 0
BBX 6 23 0 -3
BITMAP
7C
FC
0C
0C
0C
0C
0C
0C
0C
0C
0C
0C
0C
0C
0C
0C
0C
0C
0C
0C
0C
7C
FC
ENDCHAR
STARTCHAR U+005E
ENCODING 94
SWIDTH 500 0
DWIDTH 11 0
BBX 9 9 1 9
BITMAP
0C00
1C00
1E00
3600
3300
6300
6300
C180
C180
ENDCHAR
STARTCHAR U+005F
ENCODING 95
SWIDTH 500 0
DWIDTH 10 0
BBX 10 2 0 -4
BITMAP
FFC0
FFC0
ENDCHAR
STARTCHAR U+0060
ENCODING 96
SWIDTH 500 0
DWIDTH 7 0
BBX 4 4 2 15
BITMAP
C0
E0
60
30
ENDCHAR
STARTCHAR U+0061
ENCODING 97
SWIDTH 500 0
DWIDTH 13 0
BBX 10 13 1 0
BITMAP
1F00
3F80
61C0
00C0
00C0
1FC0
7FC0
E0C0
C0C0
C0C0
E1C0
7FC0
3CC0
ENDCHAR
STARTCHAR U+0062
ENCODING 98
SWIDTH 500 0
DWIDTH 15 0
BBX 12 18 2 0
BITMAP
C000
C000
C000
C000
C000
CF00
DFC0
F0E0
E060
C030
C030
C030
C030
C030
E060
F0E0
DFC0
CF80
ENDCHAR
STARTCHAR U+0063
ENCODING 99
SWIDTH 500 0
DWIDTH 12 0
BBX 10 13 1 0
BITMAP
0F00
3FC0
70C0
6000
C000
C000
C000
C000
C000
6000
70C0
3FC0
0F00
ENDCHAR
STARTCHAR U+0064
ENCODING 100
SWIDTH 500 0
DWIDTH 15 0
BBX 12 18 1 0
BITMAP
0030
0030
0030
0030
0030
0F30
3FB0
70F0
6070
C030
C030
C030
C030
C030
6070
70F0
3FB0
1F30
ENDCHAR
STARTCHAR U+0065
ENCODING 101
SWIDTH 500 0
DWIDTH 13 0
BBX 11 13 1 0
BITMAP
0F00
3FC0
70C0
6060
C060
FFE0
FFE0
C000
C000
6000
70C0
3FC0
0F00
ENDCHAR
STARTCHAR U+0066
ENCODING 102
SWIDTH 500 0
DWIDTH 9 0
BBX 8 19 1 0
BITMAP
0F
1F
38
30
30
30
FE
FE
30
30
30
30
30
30
30
30
30
30
30
ENDCHAR
STARTCHAR U+0067
ENCODING 103
SWIDTH 500 0
DWIDTH 15 0
BBX 12 19 1 -6
BITMAP
0F30
3FB0
70F0
6070
C030
C030
C030
C030
C030
6070
70F0
3FB0
0F30
0030
0030
6060
70E0
3FC0
1F00
ENDCHAR
STARTCHAR U+0068
ENCODING 104
SWIDTH 500 0
DWIDTH 14 0
BBX 10 18 2 0
BITMAP
C000
C000
C000
C000
C000
CF00
DF80
F1C0
E0C0
C0C0
C0C0
C0C0
C0C0
C0C0
C0C0
C0C0
C0C0
C0C0
ENDCHAR
STARTCHAR U+0069
ENCODING 105
SWIDTH 500 0
DWIDTH 6 0
BBX 2 18 2 0
BITMAP
C0
C0
C0
00
00
C0
C0
C0
C0
C0
C0
C0
C0
C0
C0
C0
C0
C0
ENDCHAR
STARTCHAR U+006A
ENCODING 106
SWIDTH 500 0
DWIDTH 6 0
BBX 6 24 -2 -6
BITMAP
0C
0C
0C
00
00
0C
0C
0C
0C
0C
0C
0C
0C
0C
0C
0C
0C
0C
0C
0C
0C
1C
F8
F0
ENDCHAR
STARTCHAR U+006B
ENCODING 107
SWIDTH 500 0
DWIDTH 13 0
BBX 11 18 2 0
BITMAP
C000
C000
C000
C000
C000
C1C0
C180
C300
C600
CC00
DC00
FC00
F600
E700
C380
C180
C1C0
C0E0
ENDCHAR
STARTCHAR U+006C
ENCODING 108
SWIDTH 500 0
DWIDTH 6 0
BBX 2 18 2 0
BITMAP
C0
C0
C0
C0
C0
C0
C0
C0
C0
C0
C0
C0
C0
C0
C0
C0
C0
C0
ENDCHAR
STARTCHAR U+006D
ENCODING 109
SWIDTH 500 0
DWIDTH 22 0
BBX 18 13 2 0
BITMAP
CF0F00
DFBF80
F1F180
E1E1C0
C0C0C0
C0C0C0
C0C0C0
C0C0C0
C0C0C0
C0C0C0
C0C0C0
C0C0C0
C0C0C0
ENDCHAR
STARTCHAR U+006E
ENCODING 110
SWIDTH 500 0
DWIDTH 14 0
BBX 10 13 2 0
BITMAP
CF00
DF80
F1C0
E0C0
C0C0
C0C0
C0C0
C0C0
C0C0
C0C0
C0C0
C0C0
C0C0
ENDCHAR
STARTCHAR U+006F
ENCODING 111
SWIDTH 500 0
DWIDTH 14 0
BBX 12 13 1 0
BITMAP
0F00
3FC0
70E0
6060
E070
C030
C030
C030
E070
6060
70E0
3FC0
0F00
ENDCHAR
STARTCHAR U+0070
ENCODING 112
SWIDTH 500 0
DWIDTH 15 0
BBX 12 19 2 -6
BITMAP
CF00
DFC0
F0E0
E060
C030
C030
C030
C030
C030
E060
F0E0
DFC0
CF80
C000
C000
C000
C000
C000
C000
ENDCHAR
STARTCHAR U+0071
ENCODING 113
SWIDTH 500 0
DWIDTH 15 0
BBX 12 19 1 -6
BITMAP
0F30
3FB0
70F0
6070
C070
C030
C030
C030
C030
6070
70F0
3FB0
1F30
0030
0030
0030
0030
0030
0030
ENDCHAR
STARTCHAR U+0072
ENCODING 114
SWIDTH 500 0
DWIDTH 9 0
BBX 7 13 2 0
BITMAP
CE
FE
F0
E0
C0
C0
C0
C0
C0
C0
C0
C0
C0
ENDCHAR
STARTCHAR U+0073
ENCODING 115
SWIDTH 500 0
DWIDTH 11 0
BBX 9 13 1 0
BITMAP
3E00
7F00
E380
C000
E000
7800
3F00
0780
0180
8180
C380
7F00
3E00
ENDCHAR
STARTCHAR U+0074
ENCODING 116
SWIDTH 500 0
DWIDTH 10 0
BBX 8 17 1 0
BITMAP
30
30
30
30
FF
FF
30
30
30
30
30
30
30
30
38
1F
0F
ENDCHAR
STARTCHAR U+0075
ENCODING 117
SWIDTH 500 0
DWIDTH 14 0
BBX 10 13 2 0
BITMAP
C0C0
C0C0
C0C0
C0C0
C0C0
C0C0
C0C0
C0C0
C0C0
E1C0
E3C0
7EC0
3CC0
ENDCHAR
STARTCHAR U+0076
ENCODING 118
SWIDTH 500 0
DWIDTH 12 0
BBX 12 13 0 0
BITMAP
E030
6070
7060
3060
30C0
38C0
18C0
1980
0D80
0F00
0F00
0700
0600
ENDCHAR
STARTCHAR U+0077
ENCODING 119
SWIDTH 500 0
DWIDTH 19 0
BBX 18 13 0 0
BITMAP
E0C0C0
60E0C0
60E0C0
70E180
31B180
31B180
193300
1B1B00
1B1B00
0E1E00
0E0E00
0E0E00
040400
ENDCHAR
STARTCHAR U+0078
ENCODING 120
SWIDTH 500 0
DWIDTH 12 0
BBX 10 13 1 0
BITMAP
C0C0
E1C0
7180
3300
3F00
1E00
0C00
1E00
3F00
3300
6380
E1C0
C0C0
ENDCHAR
STARTCHAR U+0079
ENCODING 121
SWIDTH 500 0
DWIDTH 12 0
BBX 12 19 0 -6
BITMAP
E030
6030
6060
3060
3060
38C0
18C0
1980
0D80
0D80
0F00
0700
0600
0600
0600
0C00
0C00
F800
7000
ENDCHAR
STARTCHAR U+007A
ENCODING 122
SWIDTH 500 0
DWIDTH 12 0
BBX 10 13 1 0
BITMAP
FF80
FF80
0300
0600
0600
0C00
1800
1800
3000
6000
6000
FFC0
FFC0
ENDCHAR
STARTCHAR U+007B
ENCODING 123
SWIDTH 500 0
DWIDTH 9 0
BBX 8 23 0 -3
BITMAP
07
0F
1C
18
18
18
18
18
18
18
38
F0
70
38
18
18
18
18
18
18
1C
0F
07
ENDCHAR
STARTCHAR U+007C
ENCODING 124
SWIDTH 500 0
DWIDTH 4 0
BBX 2 23 1 -3
BITMAP
C0
C0
C0
C0
C0
C0
C0
C0
C0
C0
C0
C0
C0
C0
C0
C0
C0
C0
C0
C0
C0
C0
C0
ENDCHAR
STARTCHAR U+007D
ENCODING 125
SWIDTH 500 0
DWIDTH 8 0
BBX 8 23 0 -3
BITMAP
60
F0
38
18
18
18
18
18
18
18
0C
0F
0E
1C
18
18
18
18
18
18
38
78
E0
ENDCHAR
STARTCHAR U+007E
ENCODING 126
SWIDTH 500 0
DWIDTH 13 0
BBX 11 4 1 7
BITMAP
3860
7C60
C7C0
C380
ENDCHAR
STARTCHAR U+3002
ENCODING 12290
SWIDTH 500 0
DWIDTH 24 0
BBX 6 6 3 -2
BITMAP
78
CC
84
84
CC
78
ENDCHAR
STARTCHAR U+4E1A
ENCODING 19994
SWIDTH 500 0
DWIDTH 24 0
BBX 21 21 2 -1
BITMAP
010C00
038C00
038C00
038C00
038C00
E38C30
638C30
638C70
338C60
338C60
1B8CC0
1B8CC0
1F8D80
0F8F80
0B8D00
038C00
038C00
038C00
038C00
FFFFF8
FFFFF8
ENDCHAR
STARTCHAR U+4F5C
ENCODING 20316
SWIDTH 500 0
DWIDTH 24 0
BBX 21 22 1 -2
BITMAP
061800
0E3000
0C3000
0C7FF8
187FF8
18CC00
38CC00
398C00
7B8C00
FB0FF0
D80FF0
980C00
180C00
180C00
180C00
180FF8
180FF8
180C00
180C00
180C00
180C00
180C00
ENDCHAR
STARTCHAR U+4F9D
ENCODING 20381
SWIDTH 500 0
DWIDTH 24 0
BBX 22 22 1 -2
BITMAP
060C00
0C0600
0C0600
0DFFFC
19FFFC
180E00
380E00
381E00
781E18
783338
D87360
D8E3C0
18E180
1BE180
1B20C0
1820E0
182070
182238
183E1C
187C0C
187000
186000
ENDCHAR
STARTCHAR U+5143
ENCODING 20803
SWIDTH 500 0
DWIDTH 24 0
BBX 21 20 2 -1
BITMAP
3FFFE0
3FFFE0
000000
000000
000000
000000
000000
FFFFF8
FFFFF8
060C00
060C00
060C00
060C00
060C00
060C18
0E0C18
1C0C18
380C38
700FF8
E007F0
ENDCHAR
STARTCHAR U+5148
ENCODING 20808
SWIDTH 500 0
DWIDTH 24 0
BBX 21 22 2 -2
BITMAP
003000
0C3000
0C3000
183000
1FFFE0
3FFFE0
303000
703000
203000
003000
FFFFF8
FFFFF8
030C00
030C00
030C00
030C00
060C18
0E0C18
1C0C18
780FF8
F007F0
400000
ENDCHAR
STARTCHAR U+5165
ENCODING 20837
SWIDTH 500 0
DWIDTH 24 0
BBX 22 20 1 -1
BITMAP
07E000
07F000
003000
003000
003000
003000
007800
007800
00D800
00CC00
01CC00
018600
038600
070300
060380
0C01C0
1C00E0
380070
F0003C
C00018
ENDCHAR
STARTCHAR U+516D
ENCODING 20845
SWIDTH 500 0
DWIDTH 24 0
BBX 21 21 1 -1
BITMAP
004000
00E000
007000
003800
001800
000000
FFFFF8
FFFFF8
000000
000000
030600
030700
070300
060180
0E01C0
0C00C0
1C00E0
380060
300030
700038
600018
ENDCHAR
STARTCHAR U+5199
ENCODING 20889
SWIDTH 500 0
DWIDTH 24 0
BBX 20 20 2 -1
BITMAP
7FFFF0
7FFFF0
600030
660030
660030
0FFF80
0FFF80
0C0000
0C0000
0C0000
0FFFE0
0FFFE0
000060
000060
FFFE60
FFFE60
000060
0000C0
001FC0
001F80
ENDCHAR
STARTCHAR U+5230
ENCODING 21040
SWIDTH 500 0
DWIDTH 24 0
BBX 20 21 2 -2
BITMAP
FFF030
FFF330
0C0330
180330
18C330
30C330
606330
FFE330
FE3330
060330
060330
060330
FFE330
FFE330
060330
060030
060030
07F030
3FF030
FF03F0
8001E0
ENDCHAR
STARTCHAR U+5468
ENCODING 21608
SWIDTH 500 0
DWIDTH 24 0
BBX 20 21 1 -2
BITMAP
3FFFF0
3FFFF0
303030
303030
33FF30
33FF30
303030
303030
37FFB0
37FFB0
300030
33FE30
33FF30
330330
330330
330330
63FF30
63FE30
600030
C003F0
C001E0
ENDCHAR
STARTCHAR U+5929
ENCODING 22825
SWIDTH 500 0
DWIDTH 24 0
BBX 20 20 2 -1
BITMAP
7FFFE0
7FFFE0
006000
006000
006000
006000
006000
FFFFF0
FFFFF0
006000
00F000
00F000
01D800
019800
030C00
060600
1C0380
3801E0
F000F0
C00030
ENDCHAR
STARTCHAR U+5B66
ENCODING 23398
SWIDTH 500 0
DWIDTH 24 0
BBX 21 22 1 -2
BITMAP
1860C0
1860C0
0C3180
0C2180
7FFFF8
FFFFF8
C00018
C00018
4FFF98
0FFF80
000700
000E00
003800
003000
FFFFF8
FFFFF8
003000
003000
003000
003000
03F000
03E000
ENDCHAR
STARTCHAR U+5B9D
ENCODING 23453
SWIDTH 500 0
DWIDTH 24 0
BBX 20 21 2 -1
BITMAP
00E000
006000
FFFFF0
FFFFF0
C00030
C00030
000000
7FFFE0
7FFFE0
006000
006000
006000
006000
3FFFC0
3FFFC0
006000
006300
006180
006080
FFFFF0
FFFFF0
ENDCHAR
STARTCHAR U+5C3D
ENCODING 23613
SWIDTH 500 0
DWIDTH 24 0
BBX 21 21 1 -2
BITMAP
1FFFE0
1FFFE0
180060
180060
180060
180060
1FFFE0
1FFFE0
180C00
180600
180600
19C300
31F1C0
303CE0
300478
600038
E78008
C3F000
407E00
000F00
000300
ENDCHAR
STARTCHAR U+5C71
ENCODING 23665
SWIDTH 500 0
DWIDTH 24 0
BBX 18 22 3 -2
BITMAP
00C000
00C000
00C000
00C000
C0C0C0
C0C0C0
C0C0C0
C0C0C0
C0C0C0
C0C0C0
C0C0C0
C0C0C0
C0C0C0
C0C0C0
C0C0C0
C0C0C0
C0C0C0
C0C0C0
FFFFC0
FFFFC0
0000C0
0000C0
ENDCHAR
STARTCHAR U+6539
ENCODING 25913
SWIDTH 500 0
DWIDTH 24 0
BBX 21 22 1 -2
BITMAP
000C00
000C00
FF0C00
FF1C00
031FF8
031FF8
033060
037060
037060
7F7860
7F18C0
6018C0
600CC0
600F80
600780
600700
638F80
6F1DC0
7C38E0
F0F078
41C018
008008
ENDCHAR
STARTCHAR U+653E
ENCODING 25918
SWIDTH 500 0
DWIDTH 24 0
BBX 22 22 1 -2
BITMAP
040300
060300
060600
070600
7FE7FC
7FEFFC
181C30
181C30
183C30
1FC430
1FC660
18C660
18C660
18C3C0
10C3C0
30C1C0
30C3C0
3087E0
618E70
6F9C3C
C7380C
001000
ENDCHAR
STARTCHAR U+65E5
ENCODING 26085
SWIDTH 500 0
DWIDTH 24 0
BBX 16 20 4 -1
BITMAP
FFFF
FFFF
C003
C003
C003
C003
C003
C003
FFFF
FFFF
C003
C003
C003
C003
C003
C003
C003
FFFF
FFFF
C003
ENDCHAR
STARTCHAR U+65E6
ENCODING 26086
SWIDTH 500 0
DWIDTH 24 0
BBX 21 20 1 -1
BITMAP
1FFFC0
1FFFC0
1800C0
1800C0
1800C0
1800C0
1FFFC0
1FFFC0
1800C0
1800C0
1800C0
1800C0
1800C0
1FFFC0
1FFFC0
000000
000000
000000
FFFFF8
FFFFF8
ENDCHAR
STARTCHAR U+6709
ENCODING 26377
SWIDTH 500 0
DWIDTH 24 0
BBX 22 23 1 -2
BITMAP
004000
00E000
00C000
7FFFFC
7FFFFC
018000
030000
070000
0FFFE0
0FFFE0
1C0060
3C0060
F7FFE0
C7FFE0
040060
040060
07FFE0
07FFE0
040060
040060
040060
0407E0
0403C0
ENDCHAR
STARTCHAR U+6CB3
ENCODING 27827
SWIDTH 500 0
DWIDTH 24 0
BBX 22 21 1 -1
BITMAP
200000
79FFFC
1DFFFC
0C0030
000030
000030
E0FE30
70FE30
388630
188630
008630
008630
008630
188630
18FE30
30FE30
300030
300030
600030
6007E0
6007E0
ENDCHAR
STARTCHAR U+6D41
ENCODING 27969
SWIDTH 500 0
DWIDTH 24 0
BBX 22 21 1 -1
BITMAP
001800
400C00
700C00
3BFFF8
1BFFF8
003000
007180
C0E0C0
E1C0E0
73FFF0
13F030
0088C0
108CC0
308CC0
308CC0
318CC0
618CCC
618CCC
630CCC
C60CFC
CE0C78
ENDCHAR
STARTCHAR U+6D77
ENCODING 28023
SWIDTH 500 0
DWIDTH 24 0
BBX 22 22 1 -2
BITMAP
006000
606000
38FFF8
1CFFF8
0D8000
038000
03FFF0
E2FFF0
70CC30
188630
018230
07FFFC
03FFFC
198830
198E30
318630
31FFF8
31FFFC
600060
600060
600FE0
4007C0
ENDCHAR
STARTCHAR U+7434
ENCODING 29748
SWIDTH 500 0
DWIDTH 24 0
BBX 22 22 1 -2
BITMAP
3FCFF8
7FEFF8
020180
020180
3FEFF8
070180
020180
070180
7FFFFC
003800
00FC00
03C700
1F11E0
FC307C
E0181C
0FFFC0
0FFFC0
000380
000700
000E00
003C00
001000
ENDCHAR
STARTCHAR U+767D
ENCODING 30333
SWIDTH 500 0
DWIDTH 24 0
BBX 18 22 3 -2
BITMAP
01C000
018000
018000
FFFFC0
FFFFC0
C000C0
C000C0
C000C0
C000C0
C000C0
C000C0
FFFFC0
FFFFC0
C000C0
C000C0
C000C0
C000C0
C000C0
FFFFC0
FFFFC0
C000C0
C000C0
ENDCHAR
STARTCHAR U+8BFE
ENCODING 35838
SWIDTH 500 0
DWIDTH 24 0
BBX 22 21 1 -2
BITMAP
30FFF8
38FFF8
1CC218
0CC218
00FFF8
00FFF8
00C218
F8C218
F8FFF8
187FF0
180200
19FFFC
19FFFC
180F80
181EC0
1B3260
1E6230
1DC21C
3B820C
110204
000200
ENDCHAR
STARTCHAR U+8D1D
ENCODING 36125
SWIDTH 500 0
DWIDTH 24 0
BBX 20 21 2 -2
BITMAP
3FFFC0
3FFFC0
3000C0
3000C0
3060C0
3060C0
3060C0
3060C0
3060C0
3060C0
3060C0
3060C0
3060C0
30E0C0
00F800
01DC00
078F00
1F03C0
7C01E0
F00070
800000
ENDCHAR
STARTCHAR U+8FD8
ENCODING 36824
SWIDTH 500 0
DWIDTH 24 0
BBX 22 21 1 -1
BITMAP
200000
71FFF8
39FFF8
1C0600
0C0600
000E00
001E00
001E00
F83F80
F876C0
18E660
19C630
1B8638
19061C
180600
180600
3C0600
7E0400
E78000
C1FFFC
807FFC
ENDCHAR
STARTCHAR U+94A2
ENCODING 38050
SWIDTH 500 0
DWIDTH 24 0
BBX 21 21 1 -1
BITMAP
180000
307FF8
307FF8
3F6018
7F4018
E05858
C058D8
3E4CD8
3E4598
084798
084318
084318
7F4398
7F4798
084CD8
084CD8
085878
0F4018
1E4018
1C40F8
0040F0
ENDCHAR
STARTCHAR U+9EC4
ENCODING 40644
SWIDTH 500 0
DWIDTH 24 0
BBX 21 22 1 -2
BITMAP
030200
030200
7FFFF0
7FFFF0
030200
FFFFF8
FFFFF8
003000
003000
3FFFE0
3870E0
303060
3870E0
3FFFE0
303060
307060
3FFFE0
010400
070700
1F03E0
F80078
400010
ENDCHAR
STARTCHAR U+FF0C
ENCODING 65292
SWIDTH 500 0
DWIDTH 24 0
BBX 3 6 4 -3
BITMAP
40
E0
E0
20
40
C0
ENDCHAR
ENDFONT
