STARTFONT 2.1
FONT harmony-40
SIZE 40 75 75
FONTBOUNDINGBOX 80 48 0 -10
STARTPROPERTIES 3
PIXEL_SIZE 40
FONT_ASCENT 38
FONT_DESCENT 10
ENDPROPERTIES
CHARS 127
STARTCHAR U+0020
ENCODING 32
SWIDTH 500 0
DWIDTH 11 0
BBX 0 0 0 0
BITMAP
ENDCHAR
STARTCHAR U+0021
ENCODING 33
SWIDTH 500 0
DWIDTH 9 0
BBX 5 31 2 0
BITMAP
F0
F0
F0
F0
F0
F0
F0
F0
F0
F0
F0
F0
F0
F0
F0
F0
F0
F0
F0
F0
F0
F0
00
00
00
00
70
F8
F8
F8
70
ENDCHAR
STARTCHAR U+0022
ENCODING 34
SWIDTH 500 0
DWIDTH 13 0
BBX 9 10 2 22
BITMAP
E380
E380
E380
E380
E380
E380
E380
E380
E380
E380
ENDCHAR
STARTCHAR U+0023
ENCODING 35
SWIDTH 500 0
DWIDTH 27 0
BBX 25 29 1 0
BITMAP
00781C00
00701C00
00703C00
00703800
00F03800
00E03800
00E07800
1FFFFF80
1FFFFF80
1FFFFF80
01C0F000
01C0F000
01C0E000
03C0E000
0380E000
0381E000
0381C000
0381C000
0781C000
FFFFFC00
FFFFFC00
FFFFFC00
0F038000
0E038000
0E078000
0E070000
1E070000
1C070000
1C0F0000
ENDCHAR
STARTCHAR U+0024
ENCODING 36
SWIDTH 500 0
DWIDTH 22 0
BBX 20 40 1 -6
BITMAP
007800
007800
007800
007800
007800
01FC00
0FFF00
1FFF80
3F7FC0
3C79E0
7879E0
7878E0
7878C0
787800
787800
7C7800
3E7800
1FF800
0FF800
07FE00
01FF80
007FC0
007FE0
0079E0
0078F0
0078F0
6078F0
F078F0
F078F0
7878F0
7E79E0
3FFFE0
1FFFC0
07FF00
00FC00
007800
007800
007800
007800
007800
ENDCHAR
STARTCHAR U+0025
ENCODING 37
SWIDTH 500 0
DWIDTH 31 0
BBX 30 29 1 0
BITMAP
0F800780
3FE00700
7FF00F00
78F01E00
F0781C00
F0783C00
F0783800
F0787800
78F07000
7FF0E000
3FE1E000
1FC1C000
0003C000
00038000
00070000
000F0000
000E0F80
001E3FE0
001C7FF0
00387878
0078F078
0070F038
00F0F03C
00E0F038
01C0F078
03C078F8
03807FF0
07803FE0
07000F80
ENDCHAR
STARTCHAR U+0026
ENCODING 38
SWIDTH 500 0
DWIDTH 28 0
BBX 26 31 2 0
BITMAP
00FC0000
03FF0000
07FF8000
0F87C000
0F03C000
0E01C000
1E01E000
1E01E000
0E01C000
0F03C000
0F078000
079F0000
07FE0000
03FC0000
03F00F00
0FF80E00
1F7C0E00
3C3C0E00
781E1E00
700F1C00
F0079C00
F003FC00
F001F800
F000F800
F000F800
F001FC00
7803FE00
3E0FDF00
3FFF8F80
0FFE0780
03F803C0
ENDCHAR
STARTCHAR U+0027
ENCODING 39
SWIDTH 500 0
DWIDTH 7 0
BBX 3 10 2 22
BITMAP
E0
E0
E0
E0
E0
E0
E0
E0
E0
E0
ENDCHAR
STARTCHAR U+0028
ENCODING 40
SWIDTH 500 0
DWIDTH 14 0
BBX 10 37 3 -4
BITMAP
0080
03C0
0780
0700
0E00
1E00
1C00
3C00
3800
3800
7800
7000
7000
F000
F000
F000
F000
F000
F000
F000
F000
F000
F000
F000
7000
7000
7800
7800
3800
3C00
1C00
1E00
0E00
0F00
0700
0380
01C0
ENDCHAR
STARTCHAR U+0029
ENCODING 41
SWIDTH 500 0
DWIDTH 13 0
BBX 10 37 1 -4
BITMAP
C000
E000
7000
7800
3C00
1C00
1E00
0E00
0F00
0F00
0700
0780
0780
0380
0380
0380
0380
03C0
03C0
03C0
03C0
0380
0380
0380
0780
0780
0780
0700
0F00
0E00
1E00
1E00
3C00
3800
7800
F000
E000
ENDCHAR
STARTCHAR U+002A
ENCODING 42
SWIDTH 500 0
DWIDTH 17 0
BBX 13 15 2 14
BITMAP
0700
0700
0700
C718
F778
FFF8
3FE0
0F80
3FE0
FFF8
F778
C718
0700
0700
0700
ENDCHAR
STARTCHAR U+002B
ENCODING 43
SWIDTH 500 0
DWIDTH 23 0
BBX 19 19 2 5
BITMAP
01E000
01E000
01E000
01E000
01E000
01E000
01E000
01E000
FFFFE0
FFFFE0
FFFFE0
01E000
01E000
01E000
01E000
01E000
01E000
01E000
01E000
ENDCHAR
STARTCHAR U+002C
ENCODING 44
SWIDTH 500 0
DWIDTH 9 0
BBX 5 11 2 -6
BITMAP
70
78
F8
78
78
18
18
30
70
E0
80
ENDCHAR
STARTCHAR U+002D
ENCODING 45
SWIDTH 500 0
DWIDTH 19 0
BBX 15 3 2 11
BITMAP
FFFE
FFFE
FFFE
ENDCHAR
STARTCHAR U+002E
ENCODING 46
SWIDTH 500 0
DWIDTH 9 0
BBX 5 5 2 0
BITMAP
70
F8
F8
F8
70
ENDCHAR
STARTCHAR U+002F
ENCODING 47
SWIDTH 500 0
DWIDTH 16 0
BBX 14 29 1 0
BITMAP
003C
0038
0038
0078
0070
00F0
00F0
00E0
01E0
01C0
01C0
03C0
0380
0780
0780
0700
0F00
0E00
0E00
1E00
1C00
3C00
3C00
3800
7800
7000
7000
F000
E000
ENDCHAR
STARTCHAR U+0030
ENCODING 48
SWIDTH 500 0
DWIDTH 23 0
BBX 19 29 2 0
BITMAP
01F000
07FC00
1FFF00
1F1F00
3C0780
380380
7803C0
7001C0
7001C0
F001E0
F001E0
F001E0
F001E0
F001E0
F001E0
F001E0
F001E0
F001E0
F001E0
F001E0
7001C0
7001C0
7803C0
380380
3C0780
1F1F00
1FFF00
07FC00
01F000
ENDCHAR
STARTCHAR U+0031
ENCODING 49
SWIDTH 500 0
DWIDTH 23 0
BBX 12 29 3 0
BITMAP
00F0
03F0
07F0
1FF0
7FF0
FCF0
F0F0
C0F0
00F0
00F0
00F0
00F0
00F0
00F0
00F0
00F0
00F0
00F0
00F0
00F0
00F0
00F0
00F0
00F0
00F0
00F0
00F0
00F0
00F0
ENDCHAR
STARTCHAR U+0032
ENCODING 50
SWIDTH 500 0
DWIDTH 23 0
BBX 19 29 2 0
BITMAP
03F000
0FFE00
1FFF00
3E1F80
7C0780
7803C0
F003C0
3003C0
0003C0
0003C0
0003C0
000380
000780
000F00
001F00
001E00
003C00
007800
00F000
01E000
03C000
07C000
0F8000
1F0000
3E0000
7C0000
FFFFE0
FFFFE0
FFFFE0
ENDCHAR
STARTCHAR U+0033
ENCODING 51
SWIDTH 500 0
DWIDTH 23 0
BBX 19 29 2 0
BITMAP
03F800
0FFE00
1FFF00
3E1F80
780780
700380
7003C0
0003C0
000380
000780
000F80
003F00
03FE00
03FE00
03FF00
001F80
0007C0
0003C0
0001C0
0001E0
0001E0
2001E0
F001C0
F003C0
7807C0
7E1F80
3FFF00
0FFE00
03F800
ENDCHAR
STARTCHAR U+0034
ENCODING 52
SWIDTH 500 0
DWIDTH 23 0
BBX 21 29 1 0
BITMAP
001E00
003C00
003C00
007800
007000
00F000
00E000
01E000
03C000
03C000
078000
078780
0F0780
0F0780
1E0780
1E0780
3C0780
380780
780780
780780
FFFFF8
FFFFF8
FFFFF8
000780
000780
000780
000780
000780
000780
ENDCHAR
STARTCHAR U+0035
ENCODING 53
SWIDTH 500 0
DWIDTH 23 0
BBX 18 29 3 0
BITMAP
1FFF00
3FFF00
3FFF00
3C0000
3C0000
380000
380000
380000
780000
780000
7BF000
7FFC00
7FFE00
7C3F00
780F00
700780
000780
000380
0003C0
0003C0
0003C0
000380
600780
F00780
F80F00
7C3F00
3FFE00
1FF800
07E000
ENDCHAR
STARTCHAR U+0036
ENCODING 54
SWIDTH 500 0
DWIDTH 23 0
BBX 19 29 2 0
BITMAP
003C00
007C00
007800
00F000
00F000
01E000
03C000
03C000
078000
0F0000
0F0000
1FFC00
1FFE00
3FFF00
7E0F80
7803C0
7803C0
F001E0
F001E0
F001E0
F001E0
F001E0
F001E0
7803C0
7C07C0
3E0F80
1FFF00
0FFE00
03F800
ENDCHAR
STARTCHAR U+0037
ENCODING 55
SWIDTH 500 0
DWIDTH 23 0
BBX 18 29 2 0
BITMAP
FFFFC0
FFFFC0
FFFFC0
000380
000780
000780
000700
000F00
000E00
001E00
001E00
001C00
003C00
003800
007800
007800
00F000
00F000
00E000
01E000
01E000
03C000
03C000
038000
078000
078000
0F0000
0F0000
0E0000
ENDCHAR
STARTCHAR U+0038
ENCODING 56
SWIDTH 500 0
DWIDTH 23 0
BBX 19 29 2 0
BITMAP
03F800
0FFE00
1FFF00
3E0F80
3C07C0
7803C0
7803C0
7803C0
7803C0
3C0780
3E0F80
1FFF00
0FFE00
1FFF00
3E0F80
7C03C0
7803C0
F001E0
F001E0
F001E0
F001E0
F001E0
F001E0
7803C0
7803C0
3E0F80
1FFF00
0FFE00
03F800
ENDCHAR
STARTCHAR U+0039
ENCODING 57
SWIDTH 500 0
DWIDTH 23 0
BBX 19 29 2 0
BITMAP
03F800
0FFE00
1FFF00
3E0F80
7C07C0
7803C0
F001E0
F001E0
F001E0
F001E0
F001E0
F001E0
7803C0
7C07C0
3E0FC0
1FFF80
0FFF00
03FF00
001E00
003E00
003C00
007800
007800
00F000
01E000
01E000
03C000
07C000
078000
ENDCHAR
STARTCHAR U+003A
ENCODING 58
SWIDTH 500 0
DWIDTH 11 0
BBX 5 21 3 0
BITMAP
70
F8
F8
F8
70
00
00
00
00
00
00
00
00
00
00
00
70
F8
F8
F8
70
ENDCHAR
STARTCHAR U+003B
ENCODING 59
SWIDTH 500 0
DWIDTH 10 0
BBX 5 26 2 -5
BITMAP
30
78
78
78
30
00
00
00
00
00
00
00
00
00
00
00
30
78
78
78
38
18
18
30
70
E0
ENDCHAR
STARTCHAR U+003C
ENCODING 60
SWIDTH 500 0
DWIDTH 23 0
BBX 19 18 2 5
BITMAP
0000E0
0003E0
001FC0
007F80
01FC00
0FF000
3FC000
FE0000
F80000
FE0000
7F8000
1FE000
03FC00
00FF00
003FC0
0007E0
0001E0
000040
ENDCHAR
STARTCHAR U+003D
ENCODING 61
SWIDTH 500 0
DWIDTH 23 0
BBX 19 11 2 9
BITMAP
FFFFE0
FFFFE0
FFFFE0
000000
000000
000000
000000
000000
FFFFE0
FFFFE0
FFFFE0
ENDCHAR
STARTCHAR U+003E
ENCODING 62
SWIDTH 500 0
DWIDTH 23 0
BBX 19 18 2 5
BITMAP
E00000
F80000
FE0000
3FC000
0FF000
03FC00
007F80
001FC0
0007E0
000FE0
003F80
01FE00
07F800
1FC000
FF0000
FC0000
E00000
800000
ENDCHAR
STARTCHAR U+003F
ENCODING 63
SWIDTH 500 0
DWIDTH 17 0
BBX 17 31 0 0
BITMAP
03F000
1FFC00
3FFE00
7E3F00
F80F00
F00700
600780
000780
000700
000F00
001E00
003E00
007C00
00F800
01F000
01E000
03C000
03C000
03C000
03C000
03C000
03C000
000000
000000
000000
000000
01C000
03E000
03E000
03E000
01C000
ENDCHAR
STARTCHAR U+0040
ENCODING 64
SWIDTH 500 0
DWIDTH 39 0
BBX 36 36 2 -5
BITMAP
0003FE0000
001FFFC000
007FFFF000
01FE07F800
03F0007E00
07C0003E00
0F80000F00
1F00000780
3E000007C0
3C03F1C3C0
780FF9C1C0
781FFFC1E0
703E1FC1E0
707C07C0E0
F07803C0E0
F07003C0E0
F07003C0F0
F0F003C0F0
F0F003C0F0
F0F003C0E0
F07003C0E0
F07003C0E0
F07807C1E0
703C07C1E0
783E1FE3C0
781FFCFF80
3C0FF8FF80
3E03E03E00
1E00000000
0F00000000
07C0000000
03F000C000
01FE07E000
00FFFFE000
003FFF8000
0007FC0000
ENDCHAR
STARTCHAR U+0041
ENCODING 65
SWIDTH 500 0
DWIDTH 27 0
BBX 26 29 0 0
BITMAP
001E0000
001E0000
001F0000
003F0000
003F0000
007F8000
00738000
0073C000
00F3C000
00E1C000
01E1E000
01C1E000
01C0F000
03C0F000
03807000
03807800
07807800
07003C00
0FFFFC00
0FFFFC00
0FFFFE00
1E001E00
1C000F00
3C000F00
3C000F00
38000780
78000780
700003C0
F00003C0
ENDCHAR
STARTCHAR U+0042
ENCODING 66
SWIDTH 500 0
DWIDTH 25 0
BBX 21 29 3 0
BITMAP
FFF800
FFFE00
FFFF80
F01FC0
F003C0
F001E0
F001E0
F001E0
F001E0
F001E0
F001E0
F003C0
F01F80
FFFF00
FFFF80
FFFFC0
F003F0
F000F0
F00078
F00078
F00078
F00078
F00078
F00078
F000F0
F007F0
FFFFE0
FFFF80
FFFE00
ENDCHAR
STARTCHAR U+0043
ENCODING 67
SWIDTH 500 0
DWIDTH 26 0
BBX 23 29 2 0
BITMAP
003F80
01FFE0
03FFF0
0FE1F8
1F003C
1E001E
3C000C
780000
780000
700000
F00000
F00000
F00000
F00000
F00000
F00000
F00000
F00000
F00000
700000
780000
380000
3C000C
1E001E
1F003C
0FE1F8
03FFF0
01FFE0
003F80
ENDCHAR
STARTCHAR U+0044
ENCODING 68
SWIDTH 500 0
DWIDTH 28 0
BBX 23 29 3 0
BITMAP
FFF000
FFFE00
FFFF80
F01FC0
F003E0
F001F0
F00078
F00078
F0003C
F0003C
F0001E
F0001E
F0001E
F0001E
F0001E
F0001E
F0001E
F0001E
F0001E
F0001C
F0003C
F00078
F00078
F001F0
F003E0
F01FC0
FFFF80
FFFE00
FFF000
ENDCHAR
STARTCHAR U+0045
ENCODING 69
SWIDTH 500 0
DWIDTH 23 0
BBX 19 29 3 0
BITMAP
FFFFC0
FFFFC0
FFFFC0
F00000
F00000
F00000
F00000
F00000
F00000
F00000
F00000
F00000
F00000
FFFF80
FFFF80
FFFF80
F00000
F00000
F00000
F00000
F00000
F00000
F00000
F00000
F00000
F00000
FFFFE0
FFFFE0
FFFFE0
ENDCHAR
STARTCHAR U+0046
ENCODING 70
SWIDTH 500 0
DWIDTH 22 0
BBX 18 29 3 0
BITMAP
FFFFC0
FFFFC0
FFFFC0
F00000
F00000
F00000
F00000
F00000
F00000
F00000
F00000
F00000
F00000
FFFF80
FFFF80
FFFF80
F00000
F00000
F00000
F00000
F00000
F00000
F00000
F00000
F00000
F00000
F00000
F00000
F00000
ENDCHAR
STARTCHAR U+0047
ENCODING 71
SWIDTH 500 0
DWIDTH 28 0
BBX 24 29 2 0
BITMAP
003FC0
01FFF0
03FFFC
07E0FE
0F801E
1E000E
3C0000
380000
780000
700000
F00000
F00000
F00000
F003FF
F003FF
F003FF
F0000F
F0000F
F0000F
78000F
78000F
3C000F
3C000F
1E000F
0F801F
07E07E
03FFFC
01FFF8
003FC0
ENDCHAR
STARTCHAR U+0048
ENCODING 72
SWIDTH 500 0
DWIDTH 29 0
BBX 23 29 3 0
BITMAP
F0001E
F0001E
F0001E
F0001E
F0001E
F0001E
F0001E
F0001E
F0001E
F0001E
F0001E
F0001E
FFFFFE
FFFFFE
FFFFFE
F0001E
F0001E
F0001E
F0001E
F0001E
F0001E
F0001E
F0001E
F0001E
F0001E
F0001E
F0001E
F0001E
F0001E
ENDCHAR
STARTCHAR U+0049
ENCODING 73
SWIDTH 500 0
DWIDTH 10 0
BBX 4 29 3 0
BITMAP
F0
F0
F0
F0
F0
F0
F0
F0
F0
F0
F0
F0
F0
F0
F0
F0
F0
F0
F0
F0
F0
F0
F0
F0
F0
F0
F0
F0
F0
ENDCHAR
STARTCHAR U+004A
ENCODING 74
SWIDTH 500 0
DWIDTH 19 0
BBX 15 29 1 0
BITMAP
001E
001E
001E
001E
001E
001E
001E
001E
001E
001E
001E
001E
001E
001E
001E
001E
001E
001E
001E
001E
001E
001C
001C
E03C
E03C
F8F8
7FF8
3FF0
0FC0
ENDCHAR
STARTCHAR U+004B
ENCODING 75
SWIDTH 500 0
DWIDTH 27 0
BBX 23 29 3 0
BITMAP
F0007C
F00078
F000F0
F001E0
F003C0
F00780
F00F00
F01E00
F03C00
F07800
F0F000
F1E000
F3E000
F7F000
FFF000
FF7800
FE7C00
FC3E00
F81E00
F00F00
F00F80
F007C0
F003E0
F001E0
F000F0
F000F8
F0007C
F0003C
F0001E
ENDCHAR
STARTCHAR U+004C
ENCODING 76
SWIDTH 500 0
DWIDTH 22 0
BBX 18 29 3 0
BITMAP
F00000
F00000
F00000
F00000
F00000
F00000
F00000
F00000
F00000
F00000
F00000
F00000
F00000
F00000
F00000
F00000
F00000
F00000
F00000
F00000
F00000
F00000
F00000
F00000
F00000
F00000
FFFFC0
FFFFC0
FFFFC0
ENDCHAR
STARTCHAR U+004D
ENCODING 77
SWIDTH 500 0
DWIDTH 34 0
BBX 28 29 3 0
BITMAP
F00000F0
F00000F0
F80001F0
F80003F0
FC0003F0
FE0007F0
FE0007F0
FF000FF0
F7801EF0
F7801CF0
F3C03CF0
F1C078F0
F1E070F0
F0F0F0F0
F0F0E0F0
F079E0F0
F03BC0F0
F03F80F0
F01F80F0
F00F00F0
F00F00F0
F00600F0
F00000F0
F00000F0
F00000F0
F00000F0
F00000F0
F00000F0
F00000F0
ENDCHAR
STARTCHAR U+004E
ENCODING 78
SWIDTH 500 0
DWIDTH 29 0
BBX 23 29 3 0
BITMAP
F0001E
F0001E
F8001E
FC001E
FC001E
FE001E
FF001E
FF001E
F7801E
F3C01E
F1E01E
F1E01E
F0F01E
F0781E
F0781E
F03C1E
F01E1E
F01E1E
F00F1E
F0079E
F0079E
F003DE
F001FE
F000FE
F000FE
F0007E
F0003E
F0003E
F0001E
ENDCHAR
STARTCHAR U+004F
ENCODING 79
SWIDTH 500 0
DWIDTH 31 0
BBX 27 29 2 0
BITMAP
003F8000
01FFF000
07FFF800
0FE0FC00
1F003E00
1E000F00
3C000780
78000780
780003C0
700003C0
F00003C0
F00001C0
F00001C0
F00001E0
F00001E0
F00001E0
F00001C0
F00001C0
F00003C0
700003C0
780003C0
78000780
3C000F80
1E000F00
1F003E00
0FE0FC00
07FFF800
01FFF000
003F8000
ENDCHAR
STARTCHAR U+0050
ENCODING 80
SWIDTH 500 0
DWIDTH 23 0
BBX 19 29 3 0
BITMAP
FFF000
FFFE00
FFFF00
F01F80
F007C0
F003C0
F001E0
F001E0
F001E0
F001E0
F001E0
F001E0
F003C0
F007C0
F01F80
FFFF00
FFFE00
FFF000
F00000
F00000
F00000
F00000
F00000
F00000
F00000
F00000
F00000
F00000
F00000
ENDCHAR
STARTCHAR U+0051
ENCODING 81
SWIDTH 500 0
DWIDTH 31 0
BBX 28 35 2 -6
BITMAP
003F8000
01FFF000
07FFF800
0FE0FC00
1F003E00
1E000F00
3C000780
78000780
780003C0
700003C0
F00003C0
F00001C0
F00001C0
F00001E0
F00001E0
F00001E0
F00001C0
F00001C0
F00003C0
700003C0
780003C0
78000780
3C000F80
1E000F00
1F003E00
0FE0FC00
07FFF800
01FFF000
003FF800
00007C00
00003F00
00000F80
000007C0
000003F0
000000F0
ENDCHAR
STARTCHAR U+0052
ENCODING 82
SWIDTH 500 0
DWIDTH 25 0
BBX 22 29 3 0
BITMAP
FFF800
FFFE00
FFFF00
F01F80
F007C0
F003C0
F001E0
F001E0
F001E0
F001E0
F001E0
F001E0
F003C0
F00F80
FFFF80
FFFE00
FFF800
F03C00
F03C00
F01E00
F00F00
F00F80
F00780
F003C0
F003E0
F001E0
F000F0
F00078
F0007C
ENDCHAR
STARTCHAR U+0053
ENCODING 83
SWIDTH 500 0
DWIDTH 23 0
BBX 21 29 1 0
BITMAP
01FE00
07FF80
1FFFC0
3F07E0
3C01F0
7800F0
780070
780000
780000
780000
3C0000
3F0000
1FF000
07FE00
01FF80
001FE0
0003F0
0001F0
0000F8
000078
000078
600078
F00078
F80078
7C00F0
3F03F0
1FFFE0
07FF80
01FE00
ENDCHAR
STARTCHAR U+0054
ENCODING 84
SWIDTH 500 0
DWIDTH 24 0
BBX 22 29 1 0
BITMAP
FFFFFC
FFFFFC
FFFFFC
007800
007800
007800
007800
007800
007800
007800
007800
007800
007800
007800
007800
007800
007800
007800
007800
007800
007800
007800
007800
007800
007800
007800
007800
007800
007800
ENDCHAR
STARTCHAR U+0055
ENCODING 85
SWIDTH 500 0
DWIDTH 29 0
BBX 23 29 3 0
BITMAP
F0001E
F0001E
F0001E
F0001E
F0001E
F0001E
F0001E
F0001E
F0001E
F0001E
F0001E
F0001E
F0001E
F0001E
F0001E
F0001E
F0001E
F0001E
F0001E
F0001E
F0001E
70003C
78003C
7C007C
3E00F8
1F83F0
0FFFE0
07FFC0
00FE00
ENDCHAR
STARTCHAR U+0056
ENCODING 86
SWIDTH 500 0
DWIDTH 26 0
BBX 26 29 0 0
BITMAP
F00003C0
78000380
78000380
3C000780
3C000700
3C000F00
1E000F00
1E000E00
0E001E00
0F001C00
0F001C00
07803C00
07803800
03803800
03C07000
01C07000
01E0F000
01E0E000
00E0E000
00F1E000
0071C000
0071C000
007B8000
003B8000
003F8000
001F0000
001F0000
001E0000
000E0000
ENDCHAR
STARTCHAR U+0057
ENCODING 87
SWIDTH 500 0
DWIDTH 39 0
BBX 37 29 1 0
BITMAP
E000700038
F000700078
F000F80078
F000F80070
7800F80070
7801FC00F0
7801FC00E0
3801DC00E0
3C01DE01E0
3C039E01C0
1C038E01C0
1E038F01C0
1E078F0380
0E07070380
0F07078380
0F07078780
070E038700
078E038700
078E03C700
039C01CE00
039C01CE00
03DC01EE00
01FC00FC00
01F800FC00
01F800FC00
00F800FC00
00F0007800
00F0007800
0070007800
ENDCHAR
STARTCHAR U+0058
ENCODING 88
SWIDTH 500 0
DWIDTH 26 0
BBX 24 29 1 0
BITMAP
F8000F
78001E
3C001E
3E003C
1E0078
0F0078
0F80F0
0781E0
03C3C0
01E3C0
01F780
00FF00
007F00
003E00
003C00
007E00
007F00
00FF80
01E780
03C3C0
03C3E0
0781E0
0F00F0
1E0078
1E007C
3C003C
78001E
78001F
F0000F
ENDCHAR
STARTCHAR U+0059
ENCODING 89
SWIDTH 500 0
DWIDTH 25 0
BBX 23 29 1 0
BITMAP
F0001E
F8001E
78003C
3C003C
3E0078
1E0070
0F00F0
0F01E0
0781E0
03C3C0
03C380
01E780
01FF00
00FF00
007E00
007C00
003C00
003C00
003C00
003C00
003C00
003C00
003C00
003C00
003C00
003C00
003C00
003C00
003C00
ENDCHAR
STARTCHAR U+005A
ENCODING 90
SWIDTH 500 0
DWIDTH 23 0
BBX 21 29 1 0
BITMAP
7FFFF0
7FFFF0
7FFFF0
0001E0
0003C0
0003C0
000780
000F00
000F00
001E00
001C00
003C00
007800
007000
00F000
01E000
01E000
03C000
038000
078000
0F0000
0E0000
1E0000
3C0000
380000
780000
FFFFF8
FFFFF8
FFFFF8
ENDCHAR
STARTCHAR U+005B
ENCODING 91
SWIDTH 500 0
DWIDTH 14 0
BBX 10 37 4 -4
BITMAP
FFC0
FFC0
FFC0
F000
F000
F000
F000
F000
F000
F000
F000
F000
F000
F000
F000
F000
F000
F000
F000
F000
F000
F000
F000
F000
F000
F000
F000
F000
F000
F000
F000
F000
F000
F000
FFC0
FFC0
FFC0
ENDCHAR
STARTCHAR U+005C
ENCODING 92
SWIDTH 500 0
DWIDTH 16 0
BBX 14 29 1 0
BITMAP
E000
F000
7000
7000
7800
3800
3C00
3C00
1C00
1E00
0E00
0E00
0F00
0700
0780
0780
0380
03C0
01C0
01C0
01E0
00E0
00F0
00F0
0070
0078
0038
0038
003C
ENDCHAR
STARTCHAR U+005D
ENCODING 93
SWIDTH 500 0
DWIDTH 14 0
BBX 10 37 1 -4
BITMAP
FFC0
FFC0
FFC0
03C0
03C0
03C0
03C0
03C0
03C0
03C0
03C0
03C0
03C0
03C0
03C0
03C0
03C0
03C0
03C0
03C0
03C0
03C0
03C0
03C0
03C0
03C0
03C0
03C0
03C0
03C0
03C0
03C0
03C0
03C0
FFC0
FFC0
FFC0
ENDCHAR
STARTCHAR U+005E
ENCODING 94
SWIDTH 500 0
DWIDTH 19 0
BBX 16 15 1 14
BITMAP
01C0
03E0
03E0
07F0
07F0
0F70
0E78
0E38
1E3C
1C1C
3C1E
380E
780F
7007
F007
ENDCHAR
STARTCHAR U+005F
ENCODING 95
SWIDTH 500 0
DWIDTH 17 0
BBX 17 3 0 -6
BITMAP
FFFF80
FFFF80
FFFF80
ENDCHAR
STARTCHAR U+0060
ENCODING 96
SWIDTH 500 0
DWIDTH 12 0
BBX 6 6 3 23
BITMAP
F0
70
78
38
1C
1C
ENDCHAR
STARTCHAR U+0061
ENCODING 97
SWIDTH 500 0
DWIDTH 22 0
BBX 17 21 2 0
BITMAP
03F000
0FFC00
3FFE00
3E1F00
780F00
100780
000780
000780
07FF80
1FFF80
3FFF80
7C0780
F00780
F00780
F00780
F00780
F00F80
7C3F80
7FFB80
1FF380
07C380
ENDCHAR
STARTCHAR U+0062
ENCODING 98
SWIDTH 500 0
DWIDTH 24 0
BBX 20 30 3 0
BITMAP
F00000
F00000
F00000
F00000
F00000
F00000
F00000
F00000
F00000
F0F800
F3FE00
F7FF00
FF0F80
FC03C0
F801E0
F001E0
F000E0
F000E0
F000F0
F000F0
F000F0
F000E0
F000E0
F001E0
F801E0
FC03C0
FF0F80
E7FF80
E3FE00
E0F800
ENDCHAR
STARTCHAR U+0063
ENCODING 99
SWIDTH 500 0
DWIDTH 20 0
BBX 17 21 2 0
BITMAP
01F800
07FE00
1FFF00
3F0F80
3C0380
780000
700000
F00000
F00000
F00000
F00000
F00000
F00000
F00000
700000
780000
3C0380
3F0F80
1FFF00
07FE00
01F800
ENDCHAR
STARTCHAR U+0064
ENCODING 100
SWIDTH 500 0
DWIDTH 25 0
BBX 20 30 2 0
BITMAP
0000F0
0000F0
0000F0
0000F0
0000F0
0000F0
0000F0
0000F0
0000F0
03F0F0
0FFCF0
1FFEF0
3F0FF0
3C03F0
7801F0
7001F0
F000F0
F000F0
F000F0
F000F0
F000F0
F000F0
F000F0
7001F0
7801F0
3C03F0
3F0FF0
1FFEF0
0FFCF0
03F0F0
ENDCHAR
STARTCHAR U+0065
ENCODING 101
SWIDTH 500 0
DWIDTH 22 0
BBX 19 21 2 0
BITMAP
01F800
07FE00
1FFF00
3F0F80
3C0380
7803C0
7001C0
F001C0
FFFFE0
FFFFE0
FFFFC0
F00000
F00000
F00000
700000
780100
3C0380
3F0F80
1FFF80
07FE00
01F800
ENDCHAR
STARTCHAR U+0066
ENCODING 102
SWIDTH 500 0
DWIDTH 14 0
BBX 14 30 1 0
BITMAP
01F8
07FC
07F8
0F00
0E00
0E00
1E00
1E00
1E00
FFF0
FFF0
FFF0
1E00
1E00
1E00
1E00
1E00
1E00
1E00
1E00
1E00
1E00
1E00
1E00
1E00
1E00
1E00
1E00
1E00
1E00
ENDCHAR
STARTCHAR U+0067
ENCODING 103
SWIDTH 500 0
DWIDTH 25 0
BBX 20 30 2 -9
BITMAP
03F0F0
0FFCF0
1FFEF0
3F0FF0
3C03F0
7801F0
7001F0
F000F0
F000F0
F000F0
F000F0
F000F0
F000F0
F000F0
7001F0
7801F0
3C03F0
3F0FF0
1FFEF0
0FFCF0
03F0E0
0000E0
0000E0
0001E0
3001E0
7803C0
3E0FC0
3FFF80
0FFE00
03F800
ENDCHAR
STARTCHAR U+0068
ENCODING 104
SWIDTH 500 0
DWIDTH 23 0
BBX 18 30 3 0
BITMAP
F00000
F00000
F00000
F00000
F00000
F00000
F00000
F00000
F00000
F1F800
F3FE00
FFFF00
FF1F00
FC0780
F80780
F00380
F003C0
F003C0
F003C0
F003C0
F003C0
F003C0
F003C0
F003C0
F003C0
F003C0
F003C0
F003C0
F003C0
F003C0
ENDCHAR
STARTCHAR U+0069
ENCODING 105
SWIDTH 500 0
DWIDTH 11 0
BBX 5 29 3 0
BITMAP
70
F8
F8
F8
70
00
00
00
F0
F0
F0
F0
F0
F0
F0
F0
F0
F0
F0
F0
F0
F0
F0
F0
F0
F0
F0
F0
F0
ENDCHAR
STARTCHAR U+006A
ENCODING 106
SWIDTH 500 0
DWIDTH 11 0
BBX 12 38 -4 -9
BITMAP
00E0
01F0
01F0
01F0
00E0
0000
0000
0000
01E0
01E0
01E0
01E0
01E0
01E0
01E0
01E0
01E0
01E0
01E0
01E0
01E0
01E0
01E0
01E0
01E0
01E0
01E0
01E0
01E0
01E0
01E0
01E0
01E0
01C0
67C0
FF80
FF00
3E00
ENDCHAR
STARTCHAR U+006B
ENCODING 107
SWIDTH 500 0
DWIDTH 21 0
BBX 18 30 3 0
BITMAP
F00000
F00000
F00000
F00000
F00000
F00000
F00000
F00000
F00000
F00780
F00F00
F01E00
F03C00
F07800
F0F000
F1E000
F1E000
F3C000
F7C000
FFE000
FFF000
FCF000
F87800
F07C00
F03C00
F01E00
F01F00
F00F00
F00780
F003C0
ENDCHAR
STARTCHAR U+006C
ENCODING 108
SWIDTH 500 0
DWIDTH 10 0
BBX 4 30 3 0
BITMAP
F0
F0
F0
F0
F0
F0
F0
F0
F0
F0
F0
F0
F0
F0
F0
F0
F0
F0
F0
F0
F0
F0
F0
F0
F0
F0
F0
F0
F0
F0
ENDCHAR
STARTCHAR U+006D
ENCODING 109
SWIDTH 500 0
DWIDTH 34 0
BBX 29 21 3 0
BITMAP
E1F01F00
E7FC3FC0
EFFCFFE0
FE3EE3F0
F81FC0F0
F80F80F0
F00F0070
F00F0078
F00F0078
F00F0078
F00F0078
F00F0078
F00F0078
F00F0078
F00F0078
F00F0078
F00F0078
F00F0078
F00F0078
F00F0078
F00F0078
ENDCHAR
STARTCHAR U+006E
ENCODING 110
SWIDTH 500 0
DWIDTH 23 0
BBX 18 21 3 0
BITMAP
E0F800
E3FE00
EFFF00
FF1F00
FC0780
F80780
F00380
F003C0
F003C0
F003C0
F003C0
F003C0
F003C0
F003C0
F003C0
F003C0
F003C0
F003C0
F003C0
F003C0
F003C0
ENDCHAR
STARTCHAR U+006F
ENCODING 111
SWIDTH 500 0
DWIDTH 24 0
BBX 20 21 2 0
BITMAP
01F800
07FE00
1FFF80
1F0FC0
3C03C0
7801E0
7801E0
F000F0
F000F0
F000F0
F000F0
F000F0
F000F0
F000F0
7801E0
7801E0
3C03C0
3F0FC0
1FFF80
07FE00
01F800
ENDCHAR
STARTCHAR U+0070
ENCODING 112
SWIDTH 500 0
DWIDTH 24 0
BBX 20 30 3 -9
BITMAP
E0F800
E3FE00
E7FF00
FF0F80
FC03C0
F801E0
F001E0
F000E0
F000E0
F000F0
F000F0
F000F0
F000E0
F000E0
F001E0
F801E0
FC03C0
FF0F80
F7FF80
F3FE00
F0F800
F00000
F00000
F00000
F00000
F00000
F00000
F00000
F00000
F00000
ENDCHAR
STARTCHAR U+0071
ENCODING 113
SWIDTH 500 0
DWIDTH 25 0
BBX 20 30 2 -9
BITMAP
03F0F0
0FFCF0
1FFEF0
3F0FF0
3C03F0
7803F0
7001F0
F000F0
F000F0
F000F0
F000F0
F000F0
F000F0
F000F0
7001F0
7801F0
3C03F0
3F0FF0
1FFEF0
0FFCF0
03F0F0
0000F0
0000F0
0000F0
0000F0
0000F0
0000F0
0000F0
0000F0
0000F0
ENDCHAR
STARTCHAR U+0072
ENCODING 114
SWIDTH 500 0
DWIDTH 15 0
BBX 12 21 3 0
BITMAP
E1F0
E7F0
EFE0
FE00
FC00
F800
F000
F000
F000
F000
F000
F000
F000
F000
F000
F000
F000
F000
F000
F000
F000
ENDCHAR
STARTCHAR U+0073
ENCODING 115
SWIDTH 500 0
DWIDTH 18 0
BBX 15 21 2 0
BITMAP
0FE0
3FF8
7FFC
787C
F01C
F008
F000
F800
7E00
3FC0
0FF0
01FC
003C
001E
001E
E01E
E01E
F87C
7FFC
3FF8
0FC0
ENDCHAR
STARTCHAR U+0074
ENCODING 116
SWIDTH 500 0
DWIDTH 15 0
BBX 14 27 1 0
BITMAP
1E00
1E00
1E00
1E00
1E00
1E00
FFF8
FFF8
FFF8
1E00
1E00
1E00
1E00
1E00
1E00
1E00
1E00
1E00
1E00
1E00
1E00
0E00
0F00
0F88
0FF8
07FC
01F8
ENDCHAR
STARTCHAR U+0075
ENCODING 117
SWIDTH 500 0
DWIDTH 24 0
BBX 18 21 3 0
BITMAP
F003C0
F003C0
F003C0
F003C0
F003C0
F003C0
F003C0
F003C0
F003C0
F003C0
F003C0
F003C0
F003C0
F003C0
F007C0
F007C0
780FC0
7C3FC0
3FFBC0
1FF3C0
07C3C0
ENDCHAR
STARTCHAR U+0076
ENCODING 118
SWIDTH 500 0
DWIDTH 21 0
BBX 19 21 1 0
BITMAP
E000E0
F001E0
F001C0
7803C0
780380
380380
3C0780
3C0700
1E0700
1E0E00
0E0E00
0F1E00
071C00
079C00
07B800
03B800
03F800
01F000
01F000
01E000
00E000
ENDCHAR
STARTCHAR U+0077
ENCODING 119
SWIDTH 500 0
DWIDTH 31 0
BBX 30 21 1 0
BITMAP
E007003C
E0078038
F0078038
700F8078
780FC070
780FC070
381DC0E0
3C1DE0E0
3C1CE0E0
1C38E0C0
1E38F1C0
0E3871C0
0E707180
0F707B80
07703B80
07E03F00
07E01F00
03E01F00
03C01E00
03C00E00
01C00E00
ENDCHAR
STARTCHAR U+0078
ENCODING 120
SWIDTH 500 0
DWIDTH 20 0
BBX 18 21 1 0
BITMAP
F003C0
780780
780780
3C0F00
1E1E00
1F1C00
0F3C00
07F800
03F000
03F000
01E000
03F000
03F000
07F800
0F3C00
1E3E00
1E1E00
3C0F00
780780
700780
F003C0
ENDCHAR
STARTCHAR U+0079
ENCODING 121
SWIDTH 500 0
DWIDTH 21 0
BBX 20 30 0 -9
BITMAP
F00070
7800F0
7800E0
3C00E0
3C01E0
1C01C0
1E03C0
1E0380
0F0380
0F0780
070700
078700
078E00
03CE00
03DE00
01DC00
01FC00
00F800
00F800
00F800
007000
00F000
00E000
00E000
01E000
03C000
47C000
7F8000
FF0000
7E0000
ENDCHAR
STARTCHAR U+007A
ENCODING 122
SWIDTH 500 0
DWIDTH 18 0
BBX 16 21 1 0
BITMAP
7FFF
7FFF
7FFF
001E
003C
003C
0078
00F0
00E0
01E0
03C0
0780
0780
0F00
1E00
1E00
3C00
7800
FFFF
FFFF
FFFF
ENDCHAR
STARTCHAR U+007B
ENCODING 123
SWIDTH 500 0
DWIDTH 15 0
BBX 12 37 2 -4
BITMAP
00F0
03F0
07F0
0780
0F00
0F00
0F00
0F00
0F00
0F00
0F00
0F00
0F00
0F00
0E00
1E00
3E00
FC00
F800
FC00
3E00
1E00
0E00
0F00
0F00
0F00
0F00
0F00
0F00
0F00
0F00
0F00
0F00
0780
07F0
03F0
00F0
ENDCHAR
STARTCHAR U+007C
ENCODING 124
SWIDTH 500 0
DWIDTH 8 0
BBX 4 37 2 -4
BITMAP
E0
F0
F0
F0
F0
F0
F0
F0
F0
F0
F0
F0
F0
F0
F0
F0
F0
F0
F0
F0
F0
F0
F0
F0
F0
F0
F0
F0
F0
F0
F0
F0
F0
F0
F0
F0
F0
ENDCHAR
STARTCHAR U+007D
ENCODING 125
SWIDTH 500 0
DWIDTH 15 0
BBX 13 37 0 -4
BITMAP
F800
FE00
FF00
1F00
0F00
0700
0780
0780
0780
0780
0780
0780
0780
0780
0780
0780
03C0
01F8
00F8
01F8
03E0
0380
0780
0780
0780
0780
0780
0780
0780
0780
0780
0700
0F00
1F00
FF00
FE00
F800
ENDCHAR
STARTCHAR U+007E
ENCODING 126
SWIDTH 500 0
DWIDTH 22 0
BBX 18 7 2 11
BITMAP
1F01C0
3F81C0
7FC3C0
71E380
F0FF80
E07F00
E03E00
ENDCHAR
STARTCHAR U+3002
ENCODING 12290
SWIDTH 500 0
DWIDTH 40 0
BBX 10 11 5 -4
BITMAP
1E00
7F80
7180
E1C0
C0C0
C0C0
C0C0
E1C0
7380
3F80
1E00
ENDCHAR
STARTCHAR U+4E1A
ENCODING 19994
SWIDTH 500 0
DWIDTH 40 0
BBX 36 34 2 -1
BITMAP
000E070000
000E070000
000E070000
000E070000
000E070000
000E070000
000E070000
380E0700C0
380E0701E0
3C0E0701E0
1C0E0701C0
1E0E0703C0
1E0E070380
0F0E070780
0F0E070780
070E070F00
078E070F00
038E071E00
03CE071E00
03CE073C00
01EE073C00
01EE077800
00FE07F800
00CE073000
000E070000
000E070000
000E070000
000E070000
000E070000
000E070000
000E078000
FFFFFFFFF0
FFFFFFFFF0
FFFFFFFFF0
ENDCHAR
STARTCHAR U+4F5C
ENCODING 20316
SWIDTH 500 0
DWIDTH 40 0
BBX 36 37 1 -3
BITMAP
0000180000
00703C0000
00F03C0000
00F0380000
00E0780000
01E0700000
01E0FFFFF0
03C0FFFFF0
03C1FFFFF0
0781E70000
0783C70000
0F83870000
0F87870000
1F8F070000
1F8F070000
3F9E070000
7F9C07FFE0
7B8807FFE0
F38007FFE0
6380070000
6380070000
0380070000
0380070000
0380070000
0380070000
038007FFE0
038007FFE0
038007FFE0
0380070000
0380070000
0380070000
0380070000
0380070000
0380070000
0380070000
0380070000
0380070000
ENDCHAR
STARTCHAR U+4F9D
ENCODING 20381
SWIDTH 500 0
DWIDTH 40 0
BBX 37 37 1 -3
BITMAP
0080060000
00E00F0000
01E0070000
01E0070000
01C0078000
03C0038000
03DFFFFFF0
039FFFFFF0
079FFFFFF0
07000F0000
0F000F0000
0F001F0000
1F001F0000
1F003F8000
3F003B81C0
3F007B83E0
7F00F387C0
F700F1CF80
F701E1DF00
E703E1FC00
4707E0F800
070FE0F000
071FE07000
073FE07800
073DE03800
0739E03C00
0711E01E00
0701E01F00
0701E00F80
0701E087C0
0701E383E0
0701EF81F0
0701FF80F8
0701FC0070
0703F00020
0701C00000
0701800000
ENDCHAR
STARTCHAR U+5143
ENCODING 20803
SWIDTH 500 0
DWIDTH 40 0
BBX 36 34 2 -3
BITMAP
0FFFFFFF80
0FFFFFFF80
0FFFFFFF80
0000000000
0000000000
0000000000
0000000000
0000000000
0000000000
0000000000
0000000000
7FFFFFFFF0
7FFFFFFFF0
7FFFFFFFF0
0038070000
0038070000
0038070000
0038070000
0038070000
0038070000
0038070000
0038070000
0078070070
0078070070
00F0070070
00F0070070
01E0070070
03E00700F0
07C00780F0
0F8007C1F0
3F0007FFE0
FE0003FFC0
780000FF80
3000000000
ENDCHAR
STARTCHAR U+5148
ENCODING 20808
SWIDTH 500 0
DWIDTH 40 0
BBX 35 37 3 -3
BITMAP
0000600000
0000F00000
01C0F00000
03C0F00000
03C0F00000
0380F00000
0780F00000
07FFFFFF00
0FFFFFFF00
0FFFFFFF00
1E00F00000
1E00F00000
3C00F00000
3800F00000
1800F00000
0000F00000
0000F00000
FFFFFFFFE0
FFFFFFFFE0
FFFFFFFFE0
003C0F0000
003C0F0000
003C0F0000
00380F0000
00380F0000
00380F0000
00780F0000
00700F00E0
00F00F00E0
01F00F00E0
03E00F00E0
07C00F01E0
1F800F83E0
7F000FFFC0
FE0007FFC0
780003FF00
7000000000
ENDCHAR
STARTCHAR U+5165
ENCODING 20837
SWIDTH 500 0
DWIDTH 40 0
BBX 36 34 2 -2
BITMAP
01FF800000
01FFE00000
01FFE00000
0001F00000
0000F00000
0000F00000
0000F00000
0000F00000
0000F00000
0001F80000
0001F80000
0001F80000
0003F80000
00039C0000
00039C0000
00079E0000
00070E0000
000F0F0000
000E0F0000
001E078000
003C078000
003803C000
007801E000
00F001E000
01E000F000
03E0007800
07C0003C00
0F80001E00
1F00001F00
3E00000FC0
7C000003E0
F8000001F0
F0000000E0
6000000060
ENDCHAR
STARTCHAR U+516D
ENCODING 20845
SWIDTH 500 0
DWIDTH 40 0
BBX 36 36 2 -3
BITMAP
0001800000
0003C00000
0003E00000
0001E00000
0000F00000
0000780000
00007C0000
0000380000
0000000000
0000000000
FFFFFFFFF0
FFFFFFFFF0
FFFFFFFFF0
0000000000
0000000000
0000000000
0000018000
0038038000
003C03C000
007801E000
007801E000
00F000F000
00F000F800
01E0007800
01E0003C00
03C0003C00
03C0001E00
0780001F00
0F80000F00
0F00000780
1E00000780
3E000003C0
3C000003E0
78000001E0
78000001C0
1000000000
ENDCHAR
STARTCHAR U+5199
ENCODING 20889
SWIDTH 500 0
DWIDTH 40 0
BBX 33 33 3 -2
BITMAP
7FFFFFFF80
7FFFFFFF80
7FFFFFFF80
7800000380
78E0000380
78E0000380
78E0000380
79E0000380
31FFFFF380
01FFFFF000
01FFFFF000
01C0000000
01C0000000
01C0000000
01C0000000
03C0000000
03FFFFFE00
03FFFFFE00
03FFFFFE00
0000000E00
0000000E00
0000000E00
0000000E00
FFFFFF8E00
FFFFFF8E00
FFFFFF8E00
0000001E00
0000001E00
0000001C00
0000003C00
00003FFC00
00003FF800
00003FE000
ENDCHAR
STARTCHAR U+5230
ENCODING 21040
SWIDTH 500 0
DWIDTH 40 0
BBX 34 36 2 -3
BITMAP
00000001C0
00000001C0
7FFFF801C0
7FFFF8E1C0
7FFFF8E1C0
01E000E1C0
01C000E1C0
03C180E1C0
038380E1C0
0783C0E1C0
0F01C0E1C0
0E00E0E1C0
1E00E0E1C0
3CFFF0E1C0
7FFFF0E1C0
7FFC38E1C0
3C7038E1C0
007000E1C0
007000E1C0
007000E1C0
007000E1C0
3FFFF0E1C0
7FFFF0E1C0
7FFFF0E1C0
007800E1C0
007000E1C0
007000E1C0
00700001C0
00700001C0
00701001C0
007FF801C0
03FFF801C0
7FFFF803C0
FFFC007FC0
7F00007F80
0000007F00
ENDCHAR
STARTCHAR U+5468
ENCODING 21608
SWIDTH 500 0
DWIDTH 40 0
BBX 34 35 2 -3
BITMAP
0FFFFFFFC0
0FFFFFFFC0
0FFFFFFFC0
0E000001C0
0E007001C0
0E007001C0
0E007001C0
0E3FFFE1C0
0E3FFFF1C0
0E3FFFF1C0
0E007001C0
0E007001C0
0E007001C0
0E007001C0
0E7FFFF9C0
0E7FFFF9C0
0E7FFFF9C0
0E000001C0
0E000001C0
0E1FFFC1C0
0E1FFFC1C0
0E1FFFC1C0
0E1C01C1C0
1E1C01C1C0
1E1C01C1C0
1C1C01C1C0
1C1C01C1C0
1C1FFFC1C0
3C1FFFC1C0
381FFFC1C0
78000001C0
78000003C0
F000007FC0
F000007F80
6000007F00
ENDCHAR
STARTCHAR U+5929
ENCODING 22825
SWIDTH 500 0
DWIDTH 40 0
BBX 36 34 2 -3
BITMAP
1FFFFFFF80
1FFFFFFF80
1FFFFFFF80
0000F00000
0000F00000
0000F00000
0000F00000
0000F00000
0000F00000
0000F00000
0000F00000
0000F00000
7FFFFFFFE0
7FFFFFFFE0
7FFFFFFFE0
0000F00000
0000F00000
0001F80000
0001F80000
0003FC0000
0003DC0000
00079E0000
000F0F0000
000F078000
001E07C000
007C03E000
00F801F000
01F000F800
07E0007E00
1FC0003F80
7F00000FE0
FE000007F0
78000001E0
6000000060
ENDCHAR
STARTCHAR U+5B66
ENCODING 23398
SWIDTH 500 0
DWIDTH 40 0
BBX 35 37 2 -3
BITMAP
0000800000
0603C01C00
0F01C01E00
0781E03C00
0780E03800
03C0F07800
01C0707000
018040F000
7FFFFFFFE0
7FFFFFFFE0
7FFFFFFFE0
70000001E0
70000001E0
70000001E0
70000001E0
73FFFFF9E0
03FFFFF800
01FFFFF800
000003F000
000007C000
00001F0000
00007E0000
0000780000
0000700000
FFFFFFFFE0
FFFFFFFFE0
FFFFFFFFE0
0000700000
0000700000
0000700000
0000700000
0000700000
0000F00000
0000F00000
007FF00000
007FE00000
003FC00000
ENDCHAR
STARTCHAR U+5B9D
ENCODING 23453
SWIDTH 500 0
DWIDTH 40 0
BBX 34 35 3 -2
BITMAP
0003C00000
0003C00000
0001C00000
0001E00000
7FFFFFFF80
7FFFFFFF80
7FFFFFFF80
7000000380
7000000380
7000000380
7000000380
0000000000
7FFFFFFF80
7FFFFFFF80
7FFFFFFF80
0001C00000
0001C00000
0001C00000
0001C00000
0001C00000
0001E00000
1FFFFFFE00
1FFFFFFE00
1FFFFFFE00
0001C00000
0001C04000
0001C1E000
0001C0F000
0001C07800
0001C07800
0001C03000
0001C00000
FFFFFFFFC0
FFFFFFFFC0
FFFFFFFFC0
ENDCHAR
STARTCHAR U+5C3D
ENCODING 23613
SWIDTH 500 0
DWIDTH 40 0
BBX 37 35 1 -3
BITMAP
03FFFFFF80
03FFFFFF80
03FFFFFF80
0380000380
0380000380
0380000380
0380000380
0380000380
0380000380
0380000380
03FFFFFF80
03FFFFFF80
03FFFFFF80
0380070000
0380078000
0380038000
038001C000
078001E000
078700F000
0707E07800
0707FC3C00
0F01FF1F00
0F003F8F80
0E000787E0
1E000103F8
1E000000F8
3C38000070
783F000010
783FE00000
F00FFC0000
7001FF8000
00003FF000
000007F000
000000F000
0000003000
ENDCHAR
STARTCHAR U+5C71
ENCODING 23665
SWIDTH 500 0
DWIDTH 40 0
BBX 31 36 5 -3
BITMAP
00038000
00038000
00038000
00038000
00038000
00038000
00038000
E003800E
E003800E
E003800E
E003800E
E003800E
E003800E
E003800E
E003800E
E003800E
E003800E
E003800E
E003800E
E003800E
E003800E
E003800E
E003800E
E003800E
E003800E
E003800E
E003800E
E003800E
E003800E
E003800E
FFFFFFFE
FFFFFFFE
FFFFFFFE
0000000E
0000000E
0000000E
ENDCHAR
STARTCHAR U+6539
ENCODING 25913
SWIDTH 500 0
DWIDTH 40 0
BBX 36 37 3 -3
BITMAP
0000040000
00000F0000
00000E0000
00000E0000
FFF81E0000
FFF81C0000
FFF81C0000
00383FFFE0
00383FFFE0
00387FFFE0
0038700700
0038F00700
0038F00700
0039F00F00
0039F00E00
003BF80E00
7FFBB80E00
7FF9381E00
7FF83C1C00
70001C3C00
70001C3800
70001E3800
70000F7800
70000FF000
700007E000
700003E000
700003E000
701C07E000
707C0FF000
71FC3F7C00
77F07C3E00
7FC0F81F00
FF03F00F80
FC0FE007E0
F01F8003F0
400F0000E0
0004000040
ENDCHAR
STARTCHAR U+653E
ENCODING 25918
SWIDTH 500 0
DWIDTH 40 0
BBX 37 36 1 -2
BITMAP
0000010000
01C001C000
01E001C000
00E003C000
00F0038000
0070038000
7FFFC78000
7FFFC7FFF8
7FFFCFFFF8
7FFFCFFFF8
07001E0380
07001E0380
07003E0380
07007E0380
07007E0380
07FF370780
07FF070700
07FF070700
0707070700
0707038F00
0F07038E00
0F0703CE00
0E0701DE00
0E0701FC00
0E0700FC00
0E0700F800
0E07007800
1E0700FC00
1C0701FE00
1C0E03DF00
3C0E078F80
381E1F07C0
79FE3E03F0
F1FC7C01F8
F1F8F800F8
6000700030
ENDCHAR
STARTCHAR U+65E5
ENCODING 26085
SWIDTH 500 0
DWIDTH 40 0
BBX 26 33 7 -2
BITMAP
FFFFFFC0
FFFFFFC0
FFFFFFC0
E00001C0
E00001C0
E00001C0
E00001C0
E00001C0
E00001C0
E00001C0
E00001C0
E00001C0
E00001C0
E00001C0
FFFFFFC0
FFFFFFC0
FFFFFFC0
E00001C0
E00001C0
E00001C0
E00001C0
E00001C0
E00001C0
E00001C0
E00001C0
E00001C0
E00001C0
F00001C0
FFFFFFC0
FFFFFFC0
FFFFFFC0
E00001C0
E00001C0
ENDCHAR
STARTCHAR U+65E6
ENCODING 26086
SWIDTH 500 0
DWIDTH 40 0
BBX 35 32 2 -1
BITMAP
07FFFFFC00
07FFFFFC00
07FFFFFC00
0700001C00
0700001C00
0700001C00
0700001C00
0700001C00
0700001C00
0700001C00
07FFFFFC00
07FFFFFC00
07FFFFFC00
0700001C00
0700001C00
0700001C00
0700001C00
0700001C00
0700001C00
0700001C00
0700001C00
07FFFFFC00
07FFFFFC00
07FFFFFC00
0000000000
0000000000
0000000000
0000000000
0000000000
FFFFFFFFE0
FFFFFFFFE0
FFFFFFFFE0
ENDCHAR
STARTCHAR U+6709
ENCODING 26377
SWIDTH 500 0
DWIDTH 40 0
BBX 36 37 2 -3
BITMAP
0003000000
0003800000
0007800000
0007800000
0007000000
7FFFFFFFF0
7FFFFFFFF0
7FFFFFFFF0
003C000000
0038000000
0078000000
00F0000000
00FFFFFE00
01FFFFFE00
03FFFFFE00
07C0000E00
0FC0000E00
1FC0000E00
3FC0000E00
F9FFFFFE00
F1FFFFFE00
E1FFFFFE00
C1C0000E00
01C0000E00
01C0000E00
01C0000E00
01FFFFFE00
01FFFFFE00
01FFFFFE00
01C0000E00
01C0000E00
01C0000E00
01C0000E00
01C0000E00
01C003FE00
01C003FE00
01C003FC00
ENDCHAR
STARTCHAR U+6CB3
ENCODING 27827
SWIDTH 500 0
DWIDTH 40 0
BBX 36 35 2 -2
BITMAP
1000000000
3C00000000
3E1FFFFFF0
1F9FFFFFF0
0FDFFFFFF0
03C0000780
0180000780
0000000780
0000000780
0000000780
6000000780
F00FFF8780
F80FFF8780
7E0FFF8780
1F0E038780
0F8E038780
030E038780
000E038780
000E038780
000E038780
000E038780
070E038780
070E038780
0F0FFF8780
0F0FFF8780
0E0FFF8780
1E00000780
1E00000780
1C00000780
3C00000780
3800000780
7800000700
780007FF00
700003FF00
300003FC00
ENDCHAR
STARTCHAR U+6D41
ENCODING 27969
SWIDTH 500 0
DWIDTH 40 0
BBX 37 37 1 -3
BITMAP
00000E0000
00000F0000
38000F0000
3C00078000
3F00078000
0F9FFFFFF0
07DFFFFFF0
039FFFFFF0
01003C0000
00007C1800
0000783C00
6000F01E00
F801E00E00
7C03C00F00
3E07807F80
1F9FFFFFC0
071FFFFFE0
031FC000E0
0000000040
0003000E00
0003070E00
0203070E00
0703070E00
0703070E00
0703070E00
0E03070E00
0E07070E00
0E07070E18
1C07070E18
1C07070E18
1C0E070E18
3C0E070E18
381C070E38
3838070FF8
78F8070FF8
70F00707F0
0040000000
ENDCHAR
STARTCHAR U+6D77
ENCODING 28023
SWIDTH 500 0
DWIDTH 40 0
BBX 37 37 1 -3
BITMAP
0000400000
0000E00000
1800E00000
3C01E00000
1F03FFFFF0
0F83FFFFF0
07C7FFFFF0
01EF000000
00CF000000
001E000000
003FFFFFC0
703FFFFFC0
F837FFFFC0
7C070401C0
1F070F01C0
0F870F81C0
078703C1C0
030701C1C0
00070081C0
007FFFFFF8
007FFFFFF8
007FFFFFF8
030E080380
070E0E0380
070E0F0380
070E07C380
0E0E03C380
0E0E008380
0E0FFFFFF0
1C0FFFFFF0
1C0FFFFFF0
3C00000380
3800000780
3800000700
780007FF00
700007FF00
100003FC00
ENDCHAR
STARTCHAR U+7434
ENCODING 29748
SWIDTH 500 0
DWIDTH 40 0
BBX 37 36 2 -4
BITMAP
3FFF9FFFE0
3FFF9FFFE0
3FFF9FFFC0
00F0007000
00F0007000
00F000F000
3FFF9FFFC0
3FFF9FFFC0
00F0007000
00F0007000
00F0007000
7FFF9FFFE0
7FFF9FFFE0
0000F80000
0001F80000
0007FE0000
000F9F0000
003F07C000
01FC03F800
07F060FE00
3FE0E03FC0
FF00F00FF8
FC007003F8
F0007800F0
03FFFFF800
03FFFFF800
03FFFFF800
000000F800
000001F000
000003E000
00000FC000
00001F0000
00007E0000
0000FC0000
0000700000
0000200000
ENDCHAR
STARTCHAR U+767D
ENCODING 30333
SWIDTH 500 0
DWIDTH 40 0
BBX 29 37 5 -3
BITMAP
000E0000
000F0000
000E0000
001E0000
001E0000
003C0000
FFFFFFF8
FFFFFFF8
FFFFFFF8
E0000038
E0000038
E0000038
E0000038
E0000038
E0000038
E0000038
E0000038
E0000038
E0000038
FFFFFFF8
FFFFFFF8
FFFFFFF8
E0000038
E0000038
E0000038
E0000038
E0000038
E0000038
E0000038
E0000038
E0000038
FFFFFFF8
FFFFFFF8
FFFFFFF8
E0000038
E0000038
E0000038
ENDCHAR
STARTCHAR U+8BFE
ENCODING 35838
SWIDTH 500 0
DWIDTH 40 0
BBX 38 35 1 -3
BITMAP
0C03FFFFC0
1E03FFFFE0
0F03FFFFE0
078381C0E0
07C381C0E0
03E381C0E0
01E381C0E0
0083FFFFE0
0003FFFFE0
0003FFFFE0
000381C0E0
7F0381C0E0
FF0381C0E0
FF03FFFFE0
7F03FFFFE0
0703FFFFE0
070001C000
070001C000
070001C000
070FFFFFF8
070FFFFFF8
070FFFFFF8
07000FF800
07001FF800
07103DDC00
073879CF00
0778F1C780
07F1E1C3C0
07E3C1C1E0
07CF81C0F8
0F9F01C07C
0F1E01C038
060C01C018
000001C000
000001C000
ENDCHAR
STARTCHAR U+8D1D
ENCODING 36125
SWIDTH 500 0
DWIDTH 40 0
BBX 33 34 3 -3
BITMAP
0FFFFFFC00
0FFFFFFC00
0FFFFFFC00
0E00001C00
0E00001C00
0E00001C00
0E01C01C00
0E01C01C00
0E01C01C00
0E01C01C00
0E01C01C00
0E01C01C00
0E01C01C00
0E01C01C00
0E01C01C00
0E01C01C00
0E01C01C00
0E01C01C00
0E01C01C00
0E01C01C00
0E03C01C00
0E03C01C00
0E03E01C00
0007F80000
0007FC0000
000F3F0000
003E0FC000
007C07E000
01F801F800
0FF000FE00
3FC0003F00
FF00001F80
FC00000780
7000000300
ENDCHAR
STARTCHAR U+8FD8
ENCODING 36824
SWIDTH 500 0
DWIDTH 40 0
BBX 37 34 1 -1
BITMAP
0C00000000
1E00000000
1E07FFFFF0
0F07FFFFF0
0787FFFFF0
03C001E000
03E001C000
01E003C000
00C0038000
0000078000
00000F8000
00000F8000
00001F9000
7F803FB800
7F807FBC00
7F80FB9E00
0380F38F00
0381E38780
0383C383C0
038F8381E0
039F0380F0
039E038078
038C038038
0380038030
0380038000
0380038000
07C0038000
0FE0038000
1FF0038000
3E7C000000
7C3F800000
F81FFFFFF8
7007FFFFF8
6000FFFFF8
ENDCHAR
STARTCHAR U+94A2
ENCODING 38050
SWIDTH 500 0
DWIDTH 40 0
BBX 35 36 2 -2
BITMAP
0E00000000
0E00000000
0E01FFFFC0
1E03FFFFE0
1C03FFFFE0
3FF38000E0
3FF38000E0
7FF38000E0
70038008E0
F003B80EE0
E003BC1EE0
E0039C1CE0
40039E1CE0
1FF38E38E0
1FF38738E0
1FF38770E0
070383F0E0
070383E0E0
070381E0E0
070381E0E0
7FFB81E0E0
7FFB83F0E0
7FFB83F0E0
07038738E0
07038F38E0
07038E1CE0
07039C1CE0
0703BC0EE0
0713B80EE0
07739800E0
07FB8000E0
07F38000E0
07C38001E0
0F83801FE0
0703801FC0
0003801F80
ENDCHAR
STARTCHAR U+9EC4
ENCODING 40644
SWIDTH 500 0
DWIDTH 40 0
BBX 35 37 2 -3
BITMAP
0030018000
003801C000
003801C000
003801C000
3FFFFFFFC0
3FFFFFFFC0
3FFFFFFFC0
003801C000
003801C000
003801C000
FFFFFFFFE0
FFFFFFFFE0
FFFFFFFFE0
0000E00000
0000E00000
0000E00000
0FFFFFFE00
0FFFFFFE00
0E00E00E00
0E00E00E00
0E00E00E00
0F00F00E00
0FFFFFFE00
0FFFFFFE00
0E00E00E00
0E00E00E00
0E00E00E00
0FFFFFFE00
0FFFFFFE00
0000000000
000C030000
007C07E000
03FC07FC00
0FF000FF80
7F80001FE0
7E000003E0
70000000C0
ENDCHAR
STARTCHAR U+FF0C
ENCODING 65292
SWIDTH 500 0
DWIDTH 40 0
BBX 5 10 6 -6
BITMAP
70
78
F8
78
38
18
38
30
E0
C0
ENDCHAR
ENDFONT
