STARTFONT 2.1
FONT harmony-32
SIZE 32 75 75
FONTBOUNDINGBOX 64 38 0 -8
STARTPROPERTIES 3
PIXEL_SIZE 32
FONT_ASCENT 30
FONT_DESCENT 8
ENDPROPERTIES
CHARS 127
STARTCHAR U+0020
ENCODING 32
SWIDTH 500 0
DWIDTH 9 0
BBX 0 0 0 0
BITMAP
ENDCHAR
STARTCHAR U+0021
ENCODING 33
SWIDTH 500 0
DWIDTH 8 0
BBX 4 24 2 0
BITMAP
E0
E0
E0
E0
E0
E0
E0
E0
E0
E0
E0
E0
E0
E0
E0
E0
E0
E0
00
00
60
F0
F0
60
ENDCHAR
STARTCHAR U+0022
ENCODING 34
SWIDTH 500 0
DWIDTH 12 0
BBX 8 8 2 18
BITMAP
E7
E7
E7
E7
E7
E7
E7
E7
ENDCHAR
STARTCHAR U+0023
ENCODING 35
SWIDTH 500 0
DWIDTH 22 0
BBX 20 23 1 0
BITMAP
01C1C0
01C1C0
01C1C0
018180
038380
3FFFF0
3FFFF0
3FFFF0
070700
070700
070700
060600
0E0E00
0E0E00
FFFFC0
FFFFC0
FFFFC0
1C1C00
1C1C00
181800
383800
383800
383800
ENDCHAR
STARTCHAR U+0024
ENCODING 36
SWIDTH 500 0
DWIDTH 18 0
BBX 16 33 1 -5
BITMAP
00C0
01C0
01C0
01C0
01C0
0FF8
1FFC
3DDE
79CE
71C6
71C4
71C0
71C0
39C0
3FC0
1FC0
0FF0
01FC
01FE
01CE
01C7
01C7
E1C7
E1C7
71C7
7DCE
3FFC
0FF8
03E0
01C0
01C0
01C0
01C0
ENDCHAR
STARTCHAR U+0025
ENCODING 37
SWIDTH 500 0
DWIDTH 26 0
BBX 24 23 1 0
BITMAP
1F0070
7F8060
7FC0E0
E1E1C0
E0E1C0
E0E380
F1E300
7FC700
3F8E00
040E00
001C00
003800
003800
0071F8
0073FE
00E38E
01C707
01C707
038707
03878F
0703FE
0E01FC
0E00F8
ENDCHAR
STARTCHAR U+0026
ENCODING 38
SWIDTH 500 0
DWIDTH 23 0
BBX 21 25 2 0
BITMAP
03F000
07F800
0FFC00
1E1E00
1C0E00
1C0E00
1C0E00
1C1C00
0E3C00
0FF800
07E000
07C0E0
1FC0E0
3CE0C0
7870C0
7079C0
E03DC0
E01F80
E00F80
E00780
F00FC0
781FC0
3FFCE0
1FF8F0
07C078
ENDCHAR
STARTCHAR U+0027
ENCODING 39
SWIDTH 500 0
DWIDTH 7 0
BBX 3 8 2 18
BITMAP
E0
E0
E0
E0
E0
E0
E0
E0
ENDCHAR
STARTCHAR U+0028
ENCODING 40
SWIDTH 500 0
DWIDTH 11 0
BBX 8 30 2 -4
BITMAP
02
06
0E
1C
1C
38
38
70
70
70
E0
E0
E0
E0
E0
E0
E0
E0
E0
E0
60
70
70
30
38
38
1C
0C
0E
07
ENDCHAR
STARTCHAR U+0029
ENCODING 41
SWIDTH 500 0
DWIDTH 11 0
BBX 8 30 1 -4
BITMAP
40
E0
70
38
38
1C
1C
0E
0E
0E
06
07
07
07
07
07
07
07
07
06
0E
0E
0E
0C
1C
18
38
70
70
E0
ENDCHAR
STARTCHAR U+002A
ENCODING 42
SWIDTH 500 0
DWIDTH 14 0
BBX 11 12 1 11
BITMAP
0600
0600
4620
F6E0
7FE0
1F80
1F80
7FE0
F6E0
4620
0600
0600
ENDCHAR
STARTCHAR U+002B
ENCODING 43
SWIDTH 500 0
DWIDTH 19 0
BBX 15 15 2 4
BITMAP
0380
0380
0380
0380
0380
0380
FFFE
FFFE
FFFE
0380
0380
0380
0380
0380
0380
ENDCHAR
STARTCHAR U+002C
ENCODING 44
SWIDTH 500 0
DWIDTH 8 0
BBX 4 8 2 -4
BITMAP
60
F0
F0
70
30
20
60
C0
ENDCHAR
STARTCHAR U+002D
ENCODING 45
SWIDTH 500 0
DWIDTH 16 0
BBX 12 3 2 9
BITMAP
FFF0
FFF0
FFF0
ENDCHAR
STARTCHAR U+002E
ENCODING 46
SWIDTH 500 0
DWIDTH 8 0
BBX 4 4 2 0
BITMAP
60
F0
F0
60
ENDCHAR
STARTCHAR U+002F
ENCODING 47
SWIDTH 500 0
DWIDTH 12 0
BBX 11 23 1 0
BITMAP
00E0
00C0
01C0
01C0
0180
0380
0380
0700
0700
0600
0E00
0E00
1C00
1C00
1800
3800
3800
3000
7000
7000
E000
E000
C000
ENDCHAR
STARTCHAR U+0030
ENCODING 48
SWIDTH 500 0
DWIDTH 18 0
BBX 15 23 2 0
BITMAP
07C0
1FF0
3FF8
3838
701C
701C
600C
E00E
E00E
E00E
E00E
E00E
E00E
E00E
E00E
E00E
600C
701C
701C
3838
3FF8
1FF0
07C0
ENDCHAR
STARTCHAR U+0031
ENCODING 49
SWIDTH 500 0
DWIDTH 18 0
BBX 9 23 3 0
BITMAP
0380
0F80
3F80
7F80
F380
C380
0380
0380
0380
0380
0380
0380
0380
0380
0380
0380
0380
0380
0380
0380
0380
0380
0380
ENDCHAR
STARTCHAR U+0032
ENCODING 50
SWIDTH 500 0
DWIDTH 18 0
BBX 15 23 2 0
BITMAP
07C0
1FF0
3FF8
7838
F01C
601C
001C
001C
001C
0038
0038
0070
00E0
01E0
03C0
0780
0F00
1E00
3C00
3800
7FFE
FFFE
FFFE
ENDCHAR
STARTCHAR U+0033
ENCODING 51
SWIDTH 500 0
DWIDTH 18 0
BBX 15 23 2 0
BITMAP
0FC0
3FF0
7FF8
7038
E01C
201C
001C
0038
0078
07F0
07F0
07F8
003C
001C
000E
000E
000E
E00E
E01C
703C
7FF8
3FF0
0FC0
ENDCHAR
STARTCHAR U+0034
ENCODING 52
SWIDTH 500 0
DWIDTH 18 0
BBX 17 23 1 0
BITMAP
00E000
00E000
01C000
01C000
038000
038000
070000
070000
0E0000
1E3800
1C3800
383800
383800
703800
703800
F03800
FFFF80
FFFF80
003800
003800
003800
003800
003800
ENDCHAR
STARTCHAR U+0035
ENCODING 53
SWIDTH 500 0
DWIDTH 18 0
BBX 14 23 2 0
BITMAP
3FF8
3FF8
3FF0
7000
7000
7000
7000
7200
7FE0
7FF0
F078
E038
0038
001C
001C
001C
001C
401C
E038
F078
7FF0
3FE0
0F80
ENDCHAR
STARTCHAR U+0036
ENCODING 54
SWIDTH 500 0
DWIDTH 18 0
BBX 15 23 2 0
BITMAP
00E0
01C0
01C0
0380
0700
0700
0E00
0C00
1FC0
3FF0
3FF8
783C
701C
E00E
E00E
E00E
E00E
E00E
701C
783C
3FF8
1FF0
07C0
ENDCHAR
STARTCHAR U+0037
ENCODING 55
SWIDTH 500 0
DWIDTH 18 0
BBX 15 23 2 0
BITMAP
FFFE
FFFE
FFFE
001C
001C
0038
0038
0038
0070
0070
00E0
00E0
01C0
01C0
03C0
0380
0380
0700
0700
0E00
0E00
1E00
1C00
ENDCHAR
STARTCHAR U+0038
ENCODING 56
SWIDTH 500 0
DWIDTH 18 0
BBX 15 23 2 0
BITMAP
07C0
1FF0
3FF8
783C
701C
701C
701C
3838
3FF8
0FE0
1FF0
3838
701C
E00E
E00E
E00E
E00E
E00E
701C
783C
3FF8
1FF0
07C0
ENDCHAR
STARTCHAR U+0039
ENCODING 57
SWIDTH 500 0
DWIDTH 18 0
BBX 15 23 1 0
BITMAP
07C0
1FF0
3FF8
783C
701C
E00E
E00E
E00E
E00E
F01E
703C
3FFC
1FF8
0FF8
0070
00E0
01E0
01C0
03C0
0380
0700
0F00
0E00
ENDCHAR
STARTCHAR U+003A
ENCODING 58
SWIDTH 500 0
DWIDTH 8 0
BBX 4 17 2 0
BITMAP
60
F0
F0
60
00
00
00
00
00
00
00
00
00
60
F0
F0
60
ENDCHAR
STARTCHAR U+003B
ENCODING 59
SWIDTH 500 0
DWIDTH 9 0
BBX 4 21 3 -4
BITMAP
60
F0
F0
60
00
00
00
00
00
00
00
00
00
60
F0
F0
70
30
20
60
C0
ENDCHAR
STARTCHAR U+003C
ENCODING 60
SWIDTH 500 0
DWIDTH 19 0
BBX 15 15 2 4
BITMAP
0002
001E
007E
01F8
0FE0
3F00
FC00
F000
FC00
3F80
07E0
01F8
007E
000E
0002
ENDCHAR
STARTCHAR U+003D
ENCODING 61
SWIDTH 500 0
DWIDTH 19 0
BBX 15 10 2 7
BITMAP
FFFE
FFFE
FFFE
0000
0000
0000
0000
FFFE
FFFE
FFFE
ENDCHAR
STARTCHAR U+003E
ENCODING 62
SWIDTH 500 0
DWIDTH 19 0
BBX 15 15 2 4
BITMAP
8000
F000
FC00
3F00
0FE0
01F8
007E
001E
007E
03F8
0FC0
3F00
FC00
E000
8000
ENDCHAR
STARTCHAR U+003F
ENCODING 63
SWIDTH 500 0
DWIDTH 14 0
BBX 14 25 0 0
BITMAP
0FC0
1FF0
7FF8
7038
E01C
601C
001C
0038
0038
00F0
01E0
03C0
0380
0700
0700
0700
0700
0300
0000
0000
0000
0300
0780
0780
0300
ENDCHAR
STARTCHAR U+0040
ENCODING 64
SWIDTH 500 0
DWIDTH 32 0
BBX 29 29 2 -4
BITMAP
001FE000
00FFFC00
03FFFE00
07C00F80
0F0007C0
1E0001C0
3C0000E0
381F18F0
703FB870
707FF870
E0E0F830
E0E07838
E1C03838
E1C03838
E1C03838
E1C03838
E1C03838
E1C03838
E0E07870
70F0FC70
707FDFE0
383F8FC0
3C040100
1E000000
0F000000
07C01800
03FFFC00
00FFF800
003FC000
ENDCHAR
STARTCHAR U+0041
ENCODING 65
SWIDTH 500 0
DWIDTH 21 0
BBX 21 23 0 0
BITMAP
007000
007000
00F800
00F800
01D800
01DC00
019C00
038E00
038E00
070600
070700
060700
0E0380
0E0380
0FFFC0
1FFFC0
1FFFC0
3800E0
3800E0
3000F0
700070
700070
E00038
ENDCHAR
STARTCHAR U+0042
ENCODING 66
SWIDTH 500 0
DWIDTH 21 0
BBX 17 23 3 0
BITMAP
FFC000
FFF800
FFFC00
E01C00
E00E00
E00E00
E00E00
E00E00
E01C00
FFF800
FFF800
FFFE00
E01F00
E00700
E00380
E00380
E00380
E00380
E00780
E00F00
FFFE00
FFFC00
FFF000
ENDCHAR
STARTCHAR U+0043
ENCODING 67
SWIDTH 500 0
DWIDTH 21 0
BBX 18 23 2 0
BITMAP
01FC00
07FF00
0FFF80
1E03C0
3C01C0
780080
700000
700000
E00000
E00000
E00000
E00000
E00000
E00000
E00000
700000
700000
780080
3C01C0
1E03C0
0FFF80
07FF00
01FC00
ENDCHAR
STARTCHAR U+0044
ENCODING 68
SWIDTH 500 0
DWIDTH 23 0
BBX 18 23 3 0
BITMAP
FFC000
FFF000
FFFC00
E01E00
E00F00
E00780
E00380
E00380
E001C0
E001C0
E001C0
E001C0
E001C0
E001C0
E001C0
E00380
E00380
E00780
E00F00
E01E00
FFFC00
FFF800
FFC000
ENDCHAR
STARTCHAR U+0045
ENCODING 69
SWIDTH 500 0
DWIDTH 19 0
BBX 15 23 3 0
BITMAP
FFFE
FFFE
FFFC
E000
E000
E000
E000
E000
E000
FFF8
FFF8
FFF8
E000
E000
E000
E000
E000
E000
E000
E000
FFFC
FFFE
FFFE
ENDCHAR
STARTCHAR U+0046
ENCODING 70
SWIDTH 500 0
DWIDTH 18 0
BBX 15 23 3 0
BITMAP
FFFE
FFFE
FFFC
E000
E000
E000
E000
E000
E000
E000
FFF8
FFF8
FFF8
E000
E000
E000
E000
E000
E000
E000
E000
E000
E000
ENDCHAR
STARTCHAR U+0047
ENCODING 71
SWIDTH 500 0
DWIDTH 23 0
BBX 19 23 2 0
BITMAP
00FC00
07FF00
0FFFC0
1E03C0
3C00C0
780000
700000
700000
E00000
E00000
E00FE0
E01FE0
E01FE0
E000E0
E000E0
7000E0
7000E0
7800E0
3C00E0
1E01E0
0FFFC0
07FF80
00FC00
ENDCHAR
STARTCHAR U+0048
ENCODING 72
SWIDTH 500 0
DWIDTH 24 0
BBX 18 23 3 0
BITMAP
E001C0
E001C0
E001C0
E001C0
E001C0
E001C0
E001C0
E001C0
E001C0
FFFFC0
FFFFC0
FFFFC0
E001C0
E001C0
E001C0
E001C0
E001C0
E001C0
E001C0
E001C0
E001C0
E001C0
E001C0
ENDCHAR
STARTCHAR U+0049
ENCODING 73
SWIDTH 500 0
DWIDTH 9 0
BBX 3 23 3 0
BITMAP
E0
E0
E0
E0
E0
E0
E0
E0
E0
E0
E0
E0
E0
E0
E0
E0
E0
E0
E0
E0
E0
E0
E0
ENDCHAR
STARTCHAR U+004A
ENCODING 74
SWIDTH 500 0
DWIDTH 14 0
BBX 12 23 0 0
BITMAP
0070
0070
0070
0070
0070
0070
0070
0070
0070
0070
0070
0070
0070
0070
0070
0070
0070
0070
4070
E0E0
FFE0
7FC0
1F00
ENDCHAR
STARTCHAR U+004B
ENCODING 75
SWIDTH 500 0
DWIDTH 22 0
BBX 18 23 3 0
BITMAP
E003C0
E00780
E00F00
E01E00
E03C00
E07800
E0F000
E1E000
E3C000
E78000
EF8000
EFC000
FDE000
F8E000
F07000
E07800
E03C00
E01E00
E00E00
E00F00
E00780
E003C0
E001C0
ENDCHAR
STARTCHAR U+004C
ENCODING 76
SWIDTH 500 0
DWIDTH 18 0
BBX 15 23 3 0
BITMAP
E000
E000
E000
E000
E000
E000
E000
E000
E000
E000
E000
E000
E000
E000
E000
E000
E000
E000
E000
E000
FFFC
FFFE
FFFE
ENDCHAR
STARTCHAR U+004D
ENCODING 77
SWIDTH 500 0
DWIDTH 28 0
BBX 22 23 3 0
BITMAP
E0001C
F0001C
F0003C
F8007C
F8007C
FC00FC
EE00DC
EE01DC
E7039C
E7839C
E3871C
E1CE1C
E1CE1C
E0FC1C
E0781C
E0781C
E0301C
E0001C
E0001C
E0001C
E0001C
E0001C
E0001C
ENDCHAR
STARTCHAR U+004E
ENCODING 78
SWIDTH 500 0
DWIDTH 24 0
BBX 18 23 3 0
BITMAP
E001C0
F001C0
F001C0
F801C0
FC01C0
FC01C0
EE01C0
E701C0
E701C0
E381C0
E1C1C0
E1E1C0
E0E1C0
E071C0
E039C0
E039C0
E01DC0
E00FC0
E00FC0
E007C0
E003C0
E003C0
E001C0
ENDCHAR
STARTCHAR U+004F
ENCODING 79
SWIDTH 500 0
DWIDTH 25 0
BBX 21 23 2 0
BITMAP
01FC00
07FF00
0FFF80
1E03C0
3C01E0
7800F0
700070
700070
E00038
E00038
E00038
E00038
E00038
E00038
E00038
700070
700070
7800F0
3C01E0
1E03C0
0FFF80
07FF00
01FC00
ENDCHAR
STARTCHAR U+0050
ENCODING 80
SWIDTH 500 0
DWIDTH 19 0
BBX 15 23 3 0
BITMAP
FFC0
FFF0
FFF8
E03C
E01E
E00E
E00E
E00E
E00E
E01E
E03C
FFF8
FFF0
FFC0
E000
E000
E000
E000
E000
E000
E000
E000
E000
ENDCHAR
STARTCHAR U+0051
ENCODING 81
SWIDTH 500 0
DWIDTH 25 0
BBX 22 28 2 -5
BITMAP
01FC00
07FF00
0FFF80
1E03C0
3C01E0
7800F0
700070
700070
E00038
E00038
E00038
E00038
E00038
E00038
E00038
700070
700070
7800F0
3C01E0
1E03C0
0FFF80
07FF00
01FF80
0007C0
0001E0
0000F0
00007C
00001C
ENDCHAR
STARTCHAR U+0052
ENCODING 82
SWIDTH 500 0
DWIDTH 20 0
BBX 17 23 3 0
BITMAP
FFC000
FFF000
FFF800
E03C00
E01E00
E00E00
E00E00
E00E00
E00E00
E01C00
E03C00
FFF800
FFE000
FFE000
E0E000
E07000
E07800
E03800
E01C00
E01E00
E00F00
E00700
E00380
ENDCHAR
STARTCHAR U+0053
ENCODING 83
SWIDTH 500 0
DWIDTH 19 0
BBX 17 23 1 0
BITMAP
03F000
1FFC00
3FFE00
380F00
700700
700200
700000
700000
380000
3F0000
0FE000
03FC00
007E00
000F00
000780
000380
000380
E00380
F00380
780700
3FFE00
1FFC00
03F000
ENDCHAR
STARTCHAR U+0054
ENCODING 84
SWIDTH 500 0
DWIDTH 19 0
BBX 17 23 1 0
BITMAP
FFFF80
FFFF80
FFFF80
01C000
01C000
01C000
01C000
01C000
01C000
01C000
01C000
01C000
01C000
01C000
01C000
01C000
01C000
01C000
01C000
01C000
01C000
01C000
01C000
ENDCHAR
STARTCHAR U+0055
ENCODING 85
SWIDTH 500 0
DWIDTH 24 0
BBX 18 23 3 0
BITMAP
E001C0
E001C0
E001C0
E001C0
E001C0
E001C0
E001C0
E001C0
E001C0
E001C0
E001C0
E001C0
E001C0
E001C0
E001C0
E001C0
E001C0
700380
700380
3C0F00
3FFF00
0FFC00
03F000
ENDCHAR
STARTCHAR U+0056
ENCODING 86
SWIDTH 500 0
DWIDTH 21 0
BBX 21 23 0 0
BITMAP
F00038
700070
700070
380060
3800E0
3C00E0
1C00C0
1C01C0
0E01C0
0E0380
0E0380
070300
070700
038700
038600
038E00
01CC00
01DC00
00FC00
00F800
007800
007800
007000
ENDCHAR
STARTCHAR U+0057
ENCODING 87
SWIDTH 500 0
DWIDTH 31 0
BBX 30 23 0 0
BITMAP
E003800C
7003801C
7003C01C
7007C01C
3807C018
3807E038
3806E038
1C0EE030
1C0C6070
1C0C7070
0E1C7060
0E1C3060
0E1838E0
073838C0
073818C0
07301DC0
03301DC0
03F01D80
03E00F80
01E00F80
01E00F00
01C00700
00C00700
ENDCHAR
STARTCHAR U+0058
ENCODING 88
SWIDTH 500 0
DWIDTH 21 0
BBX 19 23 1 0
BITMAP
E000E0
7001C0
7803C0
3C0380
1C0700
0E0E00
0F0E00
071C00
03B800
01F800
01F000
00E000
01F000
03F800
03B800
071C00
0E1E00
1E0F00
1C0700
380380
7003C0
F001E0
E000E0
ENDCHAR
STARTCHAR U+0059
ENCODING 89
SWIDTH 500 0
DWIDTH 20 0
BBX 19 23 1 0
BITMAP
E000E0
7001C0
780380
380380
3C0700
1C0700
0E0E00
0F1C00
071C00
03B800
03F800
01F000
00E000
00E000
00E000
00E000
00E000
00E000
00E000
00E000
00E000
00E000
00E000
ENDCHAR
STARTCHAR U+005A
ENCODING 90
SWIDTH 500 0
DWIDTH 19 0
BBX 17 23 1 0
BITMAP
7FFF80
7FFF80
7FFF00
000F00
000E00
001C00
003C00
003800
007000
00E000
00E000
01C000
038000
078000
070000
0E0000
1E0000
1C0000
380000
780000
7FFF80
FFFF80
FFFF80
ENDCHAR
STARTCHAR U+005B
ENCODING 91
SWIDTH 500 0
DWIDTH 11 0
BBX 8 30 3 -4
BITMAP
FE
FF
FF
E0
E0
E0
E0
E0
E0
E0
E0
E0
E0
E0
E0
E0
E0
E0
E0
E0
E0
E0
E0
E0
E0
E0
E0
FE
FF
FF
ENDCHAR
STARTCHAR U+005C
ENCODING 92
SWIDTH 500 0
DWIDTH 12 0
BBX 11 23 1 0
BITMAP
C000
E000
E000
7000
7000
3000
3800
3800
1800
1C00
1C00
0E00
0E00
0600
0700
0700
0380
0380
0180
01C0
01C0
00C0
00E0
ENDCHAR
STARTCHAR U+005D
ENCODING 93
SWIDTH 500 0
DWIDTH 12 0
BBX 8 30 1 -4
BITMAP
FE
FF
FF
07
07
07
07
07
07
07
07
07
07
07
07
07
07
07
07
07
07
07
07
07
07
07
07
FF
FF
FF
ENDCHAR
STARTCHAR U+005E
ENCODING 94
SWIDTH 500 0
DWIDTH 15 0
BBX 13 12 1 12
BITMAP
0700
0700
0F80
0F80
1DC0
1DC0
38E0
38E0
3070
7070
6030
E038
ENDCHAR
STARTCHAR U+005F
ENCODING 95
SWIDTH 500 0
DWIDTH 13 0
BBX 13 3 0 -5
BITMAP
FFF8
FFF8
FFF8
ENDCHAR
STARTCHAR U+0060
ENCODING 96
SWIDTH 500 0
DWIDTH 10 0
BBX 5 5 2 19
BITMAP
E0
70
30
38
18
ENDCHAR
STARTCHAR U+0061
ENCODING 97
SWIDTH 500 0
DWIDTH 18 0
BBX 14 17 2 0
BITMAP
0FC0
1FF0
3FF8
7038
201C
001C
031C
1FFC
7FFC
781C
E01C
E01C
E03C
F07C
7FFC
3FDC
1F9C
ENDCHAR
STARTCHAR U+0062
ENCODING 98
SWIDTH 500 0
DWIDTH 19 0
BBX 16 24 2 0
BITMAP
E000
E000
E000
E000
E000
E000
E000
E3E0
EFF8
FFFC
F81C
F00E
E00E
E007
E007
E007
E007
E007
E00E
F00E
F81E
FFFC
EFF8
E3E0
ENDCHAR
STARTCHAR U+0063
ENCODING 99
SWIDTH 500 0
DWIDTH 15 0
BBX 14 17 1 0
BITMAP
07E0
1FF0
3FF8
781C
7000
E000
E000
E000
E000
E000
E000
E000
7000
781C
3FF8
1FF0
07E0
ENDCHAR
STARTCHAR U+0064
ENCODING 100
SWIDTH 500 0
DWIDTH 19 0
BBX 16 24 1 0
BITMAP
0007
0007
0007
0007
0007
0007
0007
07C7
1FF7
3FFF
781F
700F
E00F
E007
E007
E007
E007
E007
E00F
700F
781F
3FFF
1FF7
07C7
ENDCHAR
STARTCHAR U+0065
ENCODING 101
SWIDTH 500 0
DWIDTH 17 0
BBX 15 17 1 0
BITMAP
07C0
1FF0
3FF8
781C
700C
E00E
FFFE
FFFE
FFFE
E000
E000
E000
7008
781C
3FFC
1FF8
07E0
ENDCHAR
STARTCHAR U+0066
ENCODING 102
SWIDTH 500 0
DWIDTH 12 0
BBX 11 25 1 0
BITMAP
0080
07E0
0FE0
1E00
1C00
1C00
1C00
1C00
FFC0
FFC0
FFC0
1C00
1C00
1C00
1C00
1C00
1C00
1C00
1C00
1C00
1C00
1C00
1C00
1C00
1C00
ENDCHAR
STARTCHAR U+0067
ENCODING 103
SWIDTH 500 0
DWIDTH 19 0
BBX 16 24 1 -7
BITMAP
07C7
1FF7
3FFF
781F
700F
E00F
E007
E007
E007
E007
E007
E00F
700F
781F
3FFF
1FF7
07C7
0007
0006
200E
701E
3FFC
1FF8
07E0
ENDCHAR
STARTCHAR U+0068
ENCODING 104
SWIDTH 500 0
DWIDTH 18 0
BBX 14 24 2 0
BITMAP
E000
E000
E000
E000
E000
E000
E000
E3E0
EFF0
FFF8
F838
F01C
E01C
E01C
E01C
E01C
E01C
E01C
E01C
E01C
E01C
E01C
E01C
E01C
ENDCHAR
STARTCHAR U+0069
ENCODING 105
SWIDTH 500 0
DWIDTH 8 0
BBX 4 23 2 0
BITMAP
60
F0
F0
60
00
00
E0
E0
E0
E0
E0
E0
E0
E0
E0
E0
E0
E0
E0
E0
E0
E0
E0
ENDCHAR
STARTCHAR U+006A
ENCODING 106
SWIDTH 500 0
DWIDTH 8 0
BBX 10 30 -4 -7
BITMAP
0180
03C0
03C0
0180
0000
0000
0380
0380
0380
0380
0380
0380
0380
0380
0380
0380
0380
0380
0380
0380
0380
0380
0380
0380
0380
0380
0780
7F00
FE00
7C00
ENDCHAR
STARTCHAR U+006B
ENCODING 107
SWIDTH 500 0
DWIDTH 16 0
BBX 14 24 2 0
BITMAP
E000
E000
E000
E000
E000
E000
E000
E038
E070
E0F0
E1E0
E1C0
E380
E700
EF00
FF80
FF80
F9C0
F1E0
E0E0
E070
E078
E038
E01C
ENDCHAR
STARTCHAR U+006C
ENCODING 108
SWIDTH 500 0
DWIDTH 7 0
BBX 3 24 2 0
BITMAP
E0
E0
E0
E0
E0
E0
E0
E0
E0
E0
E0
E0
E0
E0
E0
E0
E0
E0
E0
E0
E0
E0
E0
E0
ENDCHAR
STARTCHAR U+006D
ENCODING 109
SWIDTH 500 0
DWIDTH 27 0
BBX 23 17 2 0
BITMAP
E7C1F0
EFE3F8
FFF7FC
F07C1C
F07C0E
E0380E
E0380E
E0380E
E0380E
E0380E
E0380E
E0380E
E0380E
E0380E
E0380E
E0380E
E0380E
ENDCHAR
STARTCHAR U+006E
ENCODING 110
SWIDTH 500 0
DWIDTH 18 0
BBX 14 17 2 0
BITMAP
E3E0
EFF0
FFF8
F838
F01C
E01C
E01C
E01C
E01C
E01C
E01C
E01C
E01C
E01C
E01C
E01C
E01C
ENDCHAR
STARTCHAR U+006F
ENCODING 111
SWIDTH 500 0
DWIDTH 18 0
BBX 16 17 1 0
BITMAP
07E0
0FF0
3FFC
381C
700E
F00E
E007
E007
E007
E007
E007
F00E
700E
381C
3FFC
1FF0
07E0
ENDCHAR
STARTCHAR U+0070
ENCODING 112
SWIDTH 500 0
DWIDTH 19 0
BBX 16 24 2 -7
BITMAP
E3E0
EFF8
FFFC
F81C
F00E
E00E
E007
E007
E007
E007
E007
E00E
F00E
F81E
FFFC
EFF8
E3E0
E000
E000
E000
E000
E000
E000
E000
ENDCHAR
STARTCHAR U+0071
ENCODING 113
SWIDTH 500 0
DWIDTH 19 0
BBX 16 24 1 -7
BITMAP
07C7
1FF7
3FFF
781F
700F
E00F
E007
E007
E007
E007
E007
E00F
700F
781F
3FFF
1FF7
07C7
0007
0007
0007
0007
0007
0007
0007
ENDCHAR
STARTCHAR U+0072
ENCODING 114
SWIDTH 500 0
DWIDTH 12 0
BBX 9 17 2 0
BITMAP
E780
EF80
FF80
F800
F000
E000
E000
E000
E000
E000
E000
E000
E000
E000
E000
E000
E000
ENDCHAR
STARTCHAR U+0073
ENCODING 115
SWIDTH 500 0
DWIDTH 14 0
BBX 12 17 1 0
BITMAP
1F80
3FC0
7FE0
E070
E000
E000
F000
7E00
1FC0
03E0
00F0
0070
C070
E070
FFE0
7FC0
1F80
ENDCHAR
STARTCHAR U+0074
ENCODING 116
SWIDTH 500 0
DWIDTH 12 0
BBX 11 22 1 0
BITMAP
1800
1C00
1C00
1C00
1C00
FFC0
FFC0
FFC0
1C00
1C00
1C00
1C00
1C00
1C00
1C00
1C00
1C00
1C00
1C00
0FC0
0FE0
07C0
ENDCHAR
STARTCHAR U+0075
ENCODING 117
SWIDTH 500 0
DWIDTH 19 0
BBX 14 17 2 0
BITMAP
E01C
E01C
E01C
E01C
E01C
E01C
E01C
E01C
E01C
E01C
E01C
E01C
E03C
707C
7FFC
3FDC
1F1C
ENDCHAR
STARTCHAR U+0076
ENCODING 118
SWIDTH 500 0
DWIDTH 16 0
BBX 15 17 1 0
BITMAP
E00E
E00E
E01C
701C
7018
3838
3838
3830
1C70
1C60
0C60
0EE0
0EC0
07C0
0780
0380
0380
ENDCHAR
STARTCHAR U+0077
ENCODING 119
SWIDTH 500 0
DWIDTH 25 0
BBX 24 17 0 0
BITMAP
E01C03
701C03
701C07
303E06
383E06
38360E
18770C
1C730C
1C639C
0C6398
0EC198
0EC1F8
07C1F0
0780F0
0380F0
0380E0
030060
ENDCHAR
STARTCHAR U+0078
ENCODING 120
SWIDTH 500 0
DWIDTH 16 0
BBX 14 17 1 0
BITMAP
E01C
F038
7038
3870
1CE0
1EE0
0FC0
0780
0780
0780
0FC0
1DE0
1CE0
3870
7038
F038
E01C
ENDCHAR
STARTCHAR U+0079
ENCODING 121
SWIDTH 500 0
DWIDTH 17 0
BBX 16 24 0 -7
BITMAP
F007
7007
7006
380E
380C
3C1C
1C1C
1C18
0E38
0E30
0730
0770
07E0
03E0
03C0
01C0
01C0
0180
0380
0300
0700
7E00
FE00
7800
ENDCHAR
STARTCHAR U+007A
ENCODING 122
SWIDTH 500 0
DWIDTH 15 0
BBX 13 17 1 0
BITMAP
7FF8
7FF8
7FF0
0070
00E0
01C0
03C0
0380
0700
0F00
0E00
1C00
3C00
7800
7FF8
FFF8
FFF8
ENDCHAR
STARTCHAR U+007B
ENCODING 123
SWIDTH 500 0
DWIDTH 12 0
BBX 11 30 1 -4
BITMAP
0040
03E0
07E0
0F00
0E00
0E00
0E00
0E00
0E00
0E00
0E00
0E00
0E00
1C00
F800
F000
7C00
1C00
0E00
0E00
0E00
0E00
0E00
0E00
0E00
0E00
0E00
07C0
07E0
01E0
ENDCHAR
STARTCHAR U+007C
ENCODING 124
SWIDTH 500 0
DWIDTH 7 0
BBX 3 30 2 -4
BITMAP
C0
E0
E0
E0
E0
E0
E0
E0
E0
E0
E0
E0
E0
E0
E0
E0
E0
E0
E0
E0
E0
E0
E0
E0
E0
E0
E0
E0
E0
E0
ENDCHAR
STARTCHAR U+007D
ENCODING 125
SWIDTH 500 0
DWIDTH 12 0
BBX 11 30 0 -4
BITMAP
4000
F800
FC00
1E00
0E00
0E00
0E00
0E00
0E00
0E00
0E00
0E00
0E00
0700
03E0
03E0
07C0
0F00
0E00
0E00
0E00
0E00
0E00
0E00
0E00
0E00
1E00
7C00
FC00
F000
ENDCHAR
STARTCHAR U+007E
ENCODING 126
SWIDTH 500 0
DWIDTH 18 0
BBX 14 6 2 9
BITMAP
3C0C
7E0C
7F0C
E3FC
E1F8
C0F0
ENDCHAR
STARTCHAR U+3002
ENCODING 12290
SWIDTH 500 0
DWIDTH 32 0
BBX 9 9 4 -3
BITMAP
1C00
7F00
6300
C180
C180
C180
E300
7F00
3C00
ENDCHAR
STARTCHAR U+4E1A
ENCODING 19994
SWIDTH 500 0
DWIDTH 32 0
BBX 29 27 2 -1
BITMAP
00706000
00706000
00706000
00706000
00706000
20706040
70706070
707060E0
387060E0
387060E0
1C7061C0
1C7061C0
0E706380
0E706380
07706700
07706700
07706E00
03F07E00
03706C00
00706000
00706000
00706000
00706000
00706000
0070F000
FFFFFFF8
FFFFFFF8
ENDCHAR
STARTCHAR U+4F5C
ENCODING 20316
SWIDTH 500 0
DWIDTH 32 0
BBX 29 29 1 -2
BITMAP
00010000
01838000
03838000
03838000
03870000
0707FFF8
070FFFF8
0E0FFFF8
0E1CE000
1E3CE000
1E38E000
3E70E000
7EF0FFE0
7E60FFE0
EE00FFE0
4E00E000
4E00E000
0E00E000
0E00E000
0E00E000
0E00FFF0
0E00FFF0
0E00FFF0
0E00E000
0E00E000
0E00E000
0E00E000
0E00E000
0600E000
ENDCHAR
STARTCHAR U+4F9D
ENCODING 20381
SWIDTH 500 0
DWIDTH 32 0
BBX 30 29 1 -2
BITMAP
0380E000
0380E000
03007000
07007000
073FFFF8
067FFFF8
0E7FFFF8
0E00E000
1E00E000
1E01F000
3E01F020
3E03B070
7E07B0F0
EE0739C0
EE0E1F80
CE1E1F00
0E3E1E00
0E7E0E00
0EFE0E00
0EE60700
0E460780
0E0603C0
0E0601E0
0E0630F0
0E06F878
0E0FF03C
0E0FC018
0E0E0000
0E0C0000
ENDCHAR
STARTCHAR U+5143
ENCODING 20803
SWIDTH 500 0
DWIDTH 32 0
BBX 28 28 2 -3
BITMAP
3FFFFFC0
3FFFFFC0
1FFFFF80
00000000
00000000
00000000
00000000
00000000
FFFFFFF0
FFFFFFF0
FFFFFFF0
01C0E000
01C0E000
01C0E000
01C0E000
01C0E000
01C0E000
01C0E000
01C0E030
0380E030
0380E070
0700E070
0F00E070
1E00E070
3C00FFF0
F8007FE0
F0003FC0
40000000
ENDCHAR
STARTCHAR U+5148
ENCODING 20808
SWIDTH 500 0
DWIDTH 32 0
BBX 28 30 2 -3
BITMAP
00060000
00070000
07070000
07070000
06070000
0F070000
0FFFFFC0
1FFFFFC0
1C070000
38070000
38070000
10070000
00070000
00070000
FFFFFFF0
FFFFFFF0
00E0E000
00E0E000
00E0E000
00E0E000
00C0E000
01C0E000
01C0E030
0380E070
0780E070
0F00E070
3E00FFF0
FC007FE0
70003FC0
60000000
ENDCHAR
STARTCHAR U+5165
ENCODING 20837
SWIDTH 500 0
DWIDTH 32 0
BBX 29 27 1 -1
BITMAP
01FC0000
01FF0000
01FF0000
00070000
00030000
00038000
00078000
00078000
00078000
0007C000
000FC000
000CC000
001CE000
001CE000
00387000
00387000
00703800
00E03800
00E01C00
01C00E00
03800F00
07000780
0F0003C0
1E0001E0
7C0000F0
F8000078
60000038
ENDCHAR
STARTCHAR U+516D
ENCODING 20845
SWIDTH 500 0
DWIDTH 32 0
BBX 29 28 2 -2
BITMAP
001C0000
001E0000
000F0000
00070000
00038000
00038000
00000000
FFFFFFF0
FFFFFFF8
FFFFFFF8
00000000
00000000
00000000
00C03000
00E03800
01C03C00
01C01C00
03801E00
03800E00
07000700
07000780
0E000380
1E0003C0
1C0001C0
380000E0
780000F0
70000070
20000060
ENDCHAR
STARTCHAR U+5199
ENCODING 20889
SWIDTH 500 0
DWIDTH 32 0
BBX 27 27 2 -2
BITMAP
7FFFFFE0
7FFFFFE0
700000E0
700000E0
718000E0
738000E0
738000E0
03FFFE00
03FFFE00
03800000
03000000
03000000
07000000
07FFFFC0
07FFFFC0
000001C0
00000180
00000180
00000180
FFFFF180
FFFFF180
00000180
00000380
00000380
00000700
0003FF00
0001FE00
ENDCHAR
STARTCHAR U+5230
ENCODING 21040
SWIDTH 500 0
DWIDTH 32 0
BBX 27 29 2 -2
BITMAP
000000C0
000000E0
FFFF00E0
FFFF18E0
078018E0
070018E0
0E1818E0
0E1818E0
1C1C18E0
380C18E0
380E18E0
7FFE18E0
FFFF18E0
7F8318E0
018018E0
018018E0
018018E0
03C018E0
7FFE18E0
7FFE18E0
018018E0
018018E0
018000E0
018000E0
01DF00E0
0FFF00C0
FFFC19C0
FF001FC0
80000F80
ENDCHAR
STARTCHAR U+5468
ENCODING 21608
SWIDTH 500 0
DWIDTH 32 0
BBX 28 27 1 -2
BITMAP
1FFFFFF0
1FFFFFF0
1C000070
1C030070
1C030070
1CFFFC70
1CFFFC70
1C030070
1C030070
1C030070
1C030070
1DFFFE70
1DFFFE70
1C000070
1C000070
1C7FF870
1C7FF870
1C701870
1C601870
1C601870
18601870
387FF870
387FF860
30000060
700000E0
F0000FE0
60000FC0
ENDCHAR
STARTCHAR U+5929
ENCODING 22825
SWIDTH 500 0
DWIDTH 32 0
BBX 28 27 2 -2
BITMAP
3FFFFF80
7FFFFFC0
7FFFFFC0
000E0000
000E0000
000E0000
000E0000
000E0000
000E0000
000E0000
FFFFFFE0
FFFFFFE0
000E0000
000F0000
001F0000
001F0000
003B8000
0039C000
0071E000
00E0F000
01C07800
07803C00
0F001F00
3E000F80
FC0003E0
F00001F0
C0000060
ENDCHAR
STARTCHAR U+5B66
ENCODING 23398
SWIDTH 500 0
DWIDTH 32 0
BBX 28 29 2 -2
BITMAP
040C0200
1C1C0700
0E0E0700
0F060E00
07070E00
02001C00
7FFFFFF0
7FFFFFF0
60000070
60000070
60000070
60000070
07FFFE00
07FFFE00
00003C00
0000F000
0003E000
00078000
00070000
FFFFFFF0
FFFFFFF0
00070000
00070000
00070000
00070000
00070000
01CF0000
01FE0000
00FC0000
ENDCHAR
STARTCHAR U+5B9D
ENCODING 23453
SWIDTH 500 0
DWIDTH 32 0
BBX 27 28 2 -1
BITMAP
000C0000
000C0000
000E0000
000F0000
7FFFFFE0
7FFFFFE0
600000E0
600000E0
600000E0
00000000
7FFFFFC0
7FFFFFC0
3FFFFFC0
000E0000
000E0000
000E0000
000E0000
1FFFFF80
1FFFFF80
1FFFFF00
000E0800
000E1C00
000E1E00
000E0E00
000E0600
000E0000
FFFFFFE0
FFFFFFE0
ENDCHAR
STARTCHAR U+5C3D
ENCODING 23613
SWIDTH 500 0
DWIDTH 32 0
BBX 30 28 1 -2
BITMAP
07FFFFC0
07FFFFE0
07FFFFE0
060000E0
060000E0
060000E0
060000E0
060000E0
07FFFFE0
07FFFFE0
07FFFFC0
06007000
06003000
06003800
0E001C00
0E3C0E00
0E3F8700
0C07F3C0
1C00F1E0
1C0030F8
3800007C
38E00018
70FC0000
F07F8000
600FF000
0001FE00
00003E00
00000400
ENDCHAR
STARTCHAR U+5C71
ENCODING 23665
SWIDTH 500 0
DWIDTH 32 0
BBX 25 29 4 -2
BITMAP
00180000
001C0000
001C0000
001C0000
001C0000
C01C0300
E01C0380
E01C0380
E01C0380
E01C0380
E01C0380
E01C0380
E01C0380
E01C0380
E01C0380
E01C0380
E01C0380
E01C0380
E01C0380
E01C0380
E01C0380
E01C0380
E01C0380
E01C0380
FFFFFF80
FFFFFF80
FFFFFF80
00000380
00000380
ENDCHAR
STARTCHAR U+6539
ENCODING 25913
SWIDTH 500 0
DWIDTH 32 0
BBX 29 29 2 -2
BITMAP
0000E000
0000E000
7FC0E000
FFC1C000
FFC1C000
00C1FFF0
00C3FFF0
00C3FFF0
00C701C0
00C70180
00CF0180
00CF0380
7FDF8380
7FCB8380
7FC18300
7001C700
7001C600
7000EE00
7000FE00
70007C00
70003800
70207C00
70E0FE00
73E1EF00
7F87C780
FE0F03C0
F83E01F0
607C00F8
00300030
ENDCHAR
STARTCHAR U+653E
ENCODING 25918
SWIDTH 500 0
DWIDTH 32 0
BBX 30 29 1 -2
BITMAP
03001800
03803800
03803800
01C03000
01C07000
7FFE7FF8
7FFEFFF8
7FFCFFF8
0E01C0E0
0E01C0E0
0E03E0E0
0E03E0C0
0FF960C0
0FF861C0
0E3871C0
0C183180
0C183180
0C183B80
0C181F00
1C181F00
1C380E00
1C380F00
18381F80
38383FC0
383079E0
7070F0F0
73F3E078
E3E7803C
60030018
ENDCHAR
STARTCHAR U+65E5
ENCODING 26085
SWIDTH 500 0
DWIDTH 32 0
BBX 22 27 5 -2
BITMAP
FFFFFC
FFFFFC
FFFFFC
E0001C
E0001C
E0001C
E0001C
E0001C
E0001C
E0001C
E0001C
FFFFFC
FFFFFC
FFFFFC
E0001C
E0001C
E0001C
E0001C
E0001C
E0001C
E0001C
E0001C
FFFFFC
FFFFFC
FFFFFC
E0001C
E0001C
ENDCHAR
STARTCHAR U+65E6
ENCODING 26086
SWIDTH 500 0
DWIDTH 32 0
BBX 28 26 2 -1
BITMAP
0FFFFF00
0FFFFF00
0E000700
0C000300
0C000300
0C000300
0C000300
0C000300
0E000700
0FFFFF00
0FFFFF00
0C000300
0C000300
0C000300
0C000300
0C000300
0FFFFF00
0FFFFF00
0FFFFF00
00000000
00000000
00000000
00000000
00000000
FFFFFFF0
FFFFFFF0
ENDCHAR
STARTCHAR U+6709
ENCODING 26377
SWIDTH 500 0
DWIDTH 32 0
BBX 29 29 1 -2
BITMAP
000C0000
001C0000
001C0000
003C0000
7FFFFFF8
7FFFFFF8
00700000
00E00000
01E00000
01C00000
03FFFFC0
07FFFFC0
0F0001C0
1F0001C0
3F0001C0
7BFFFFC0
F3FFFFC0
438001C0
030001C0
030001C0
030001C0
03FFFFC0
03FFFFC0
038001C0
030001C0
030001C0
03000380
03003F80
03003F00
ENDCHAR
STARTCHAR U+6CB3
ENCODING 27827
SWIDTH 500 0
DWIDTH 32 0
BBX 29 28 2 -2
BITMAP
30000000
78000000
3C7FFFF8
1F7FFFF8
070001C0
020001C0
000001C0
C00001C0
E03FF1C0
F83FF1C0
3C3871C0
1E3071C0
0C3071C0
003071C0
003071C0
003071C0
0C3071C0
0C3071C0
1C3FF1C0
1C3FF1C0
1C0001C0
380001C0
380001C0
380001C0
700001C0
700043C0
60007F80
60007F00
ENDCHAR
STARTCHAR U+6D41
ENCODING 27969
SWIDTH 500 0
DWIDTH 32 0
BBX 30 30 1 -3
BITMAP
0000C000
2000E000
7800E000
3C007000
1E7FFFF8
0E7FFFF8
0203C000
00038200
00070700
E00E0780
F01E0380
783C03C0
1E7FFFE0
0C7FFFF0
00600030
00000000
0018E300
0C18E300
0E18E300
0C18E300
1C18E300
1C18E300
1838E30C
3838E30C
3830E30C
3070E30C
70E0E39C
71C0E3F8
6380E1F8
01000000
ENDCHAR
STARTCHAR U+6D77
ENCODING 28023
SWIDTH 500 0
DWIDTH 32 0
BBX 29 29 2 -2
BITMAP
000E0000
200E0000
781C0000
3C1FFFF0
1E3FFFF0
07300000
02700000
00E00000
41FFFFE0
E1FFFFC0
F03880C0
3C30E0C0
1C30F0C0
0C3030C0
003010C0
01FFFFF8
01FFFFF8
0C7080C0
0C71C0C0
1C71E0C0
1860F1C0
386071C0
386021C0
307FFFF0
707FFFF0
700001C0
60000380
E000FF80
60007F00
ENDCHAR
STARTCHAR U+7434
ENCODING 29748
SWIDTH 500 0
DWIDTH 32 0
BBX 30 29 1 -3
BITMAP
3FFCFFF0
3FFCFFF0
01C00E00
01C00E00
01C00E00
3FFCFFE0
3FFCFFE0
01C00E00
01C00E00
7FFCFFF8
7FFCFFF8
00078000
000FC000
003CF000
00F87800
03E03F00
1FC60FC0
FF0703F8
F80380FC
E0038038
07FFFF00
07FFFF00
00000E00
00003C00
00007800
0000F000
0003E000
00078000
00030000
ENDCHAR
STARTCHAR U+767D
ENCODING 30333
SWIDTH 500 0
DWIDTH 32 0
BBX 23 29 5 -2
BITMAP
007000
007000
007000
00E000
FFFFFE
FFFFFE
FFFFFE
C00006
C00006
C00006
C00006
C00006
C00006
C00006
C0000E
FFFFFE
FFFFFE
C00006
C00006
C00006
C00006
C00006
C00006
C00006
C0000E
FFFFFE
FFFFFE
C0000E
C00006
ENDCHAR
STARTCHAR U+8BFE
ENCODING 35838
SWIDTH 500 0
DWIDTH 32 0
BBX 30 28 1 -2
BITMAP
18000000
381FFFE0
1C1FFFE0
0E183060
07183060
07183060
021FFFE0
001FFFE0
00183060
7C183060
FC183060
FC1FFFE0
0C1FFFE0
0C003000
0C003000
0C003000
0C7FFFF8
0C7FFFF8
0C01FE00
0C01FE00
0CC3B380
0FC733C0
0F9E30E0
0F3C3078
1E78303C
0C703018
00403000
00003000
ENDCHAR
STARTCHAR U+8D1D
ENCODING 36125
SWIDTH 500 0
DWIDTH 32 0
BBX 26 27 2 -2
BITMAP
1FFFFF00
1FFFFF00
1FFFFF00
1C000700
1C000700
1C0E0700
1C0E0700
1C0E0700
1C0E0700
1C0E0700
1C0E0700
1C0E0700
1C0E0700
1C0E0700
1C0E0700
1C0E0700
1C0E0700
1C1E0700
0C1F0200
003FC000
0079E000
00F0F800
03E03E00
0FC01F00
7F0007C0
FC0003C0
F00000C0
ENDCHAR
STARTCHAR U+8FD8
ENCODING 36824
SWIDTH 500 0
DWIDTH 32 0
BBX 30 27 1 -1
BITMAP
18000000
3C3FFFF0
1C3FFFF8
0E3FFFF8
07003800
07803800
03007000
00007000
0000F000
0001F000
7E03F600
7E03F700
7E077380
060E71C0
061E70E0
063C7070
06787078
06707038
06007018
06007000
06007000
0F007000
1F807000
39E00000
70FC0000
E07FFFFC
600FFFF8
ENDCHAR
STARTCHAR U+94A2
ENCODING 38050
SWIDTH 500 0
DWIDTH 32 0
BBX 27 29 2 -2
BITMAP
1C000000
18000000
381FFFE0
381FFFE0
3F980060
7F980060
E0180260
E01B8360
C0198760
C019C660
3F98CE60
3F98EC60
0C187C60
0C187C60
0C183860
0C183860
7FD83860
7FD87C60
0C186C60
0C18EE60
0C19C660
0C198760
0C1B8360
0CD90060
0FD80060
0F980060
1F1800E0
1C1807E0
081807C0
ENDCHAR
STARTCHAR U+9EC4
ENCODING 40644
SWIDTH 500 0
DWIDTH 32 0
BBX 28 29 2 -2
BITMAP
00C03000
00C03000
00C03000
7FFFFFE0
7FFFFFE0
01C03800
00C03000
01C03800
FFFFFFF0
FFFFFFF0
00060000
00060000
1FFFFF80
1FFFFF80
1C060380
1C060380
1C060380
1FFFFF80
1FFFFF80
1C060380
1C060380
1FFFFF80
1FFFFF80
00000000
00E07800
07E07F00
3F800FE0
FE0003F0
70000060
ENDCHAR
STARTCHAR U+FF0C
ENCODING 65292
SWIDTH 500 0
DWIDTH 32 0
BBX 4 8 5 -5
BITMAP
60
F0
F0
70
30
20
E0
C0
ENDCHAR
ENDFONT
