STARTFONT 2.1
FONT sans-m-40
SIZE 40 75 75
FONTBOUNDINGBOX 80 59 0 -12
STARTPROPERTIES 3
PIXEL_SIZE 40
FONT_ASCENT 47
FONT_DESCENT 12
ENDPROPERTIES
CHARS 127
STARTCHAR U+0020
ENCODING 32
SWIDTH 500 0
DWIDTH 9 0
BBX 0 0 0 0
BITMAP
ENDCHAR
STARTCHAR U+0021
ENCODING 33
SWIDTH 500 0
DWIDTH 14 0
BBX 6 31 4 -1
BITMAP
78
78
78
78
78
78
78
78
78
78
78
78
78
78
78
78
78
78
70
70
70
00
00
00
00
78
FC
FC
FC
F8
70
ENDCHAR
STARTCHAR U+0022
ENCODING 34
SWIDTH 500 0
DWIDTH 21 0
BBX 13 13 4 18
BITMAP
F0F8
F0F8
F0F8
F0F8
F0F8
F078
F078
F078
F078
F070
F070
E070
6030
ENDCHAR
STARTCHAR U+0023
ENCODING 35
SWIDTH 500 0
DWIDTH 23 0
BBX 19 29 2 0
BITMAP
030380
070380
070380
070300
070700
070700
070700
070700
FFFFE0
FFFFE0
FFFFE0
0E0600
0E0E00
0E0E00
0E0E00
0C0E00
0C0E00
FFFFE0
FFFFE0
FFFFE0
1C1C00
1C1C00
1C1C00
1C1C00
181C00
381C00
381C00
381800
383800
ENDCHAR
STARTCHAR U+0024
ENCODING 36
SWIDTH 500 0
DWIDTH 23 0
BBX 18 38 2 -5
BITMAP
00E000
00E000
00E000
00E000
00F000
07FE00
0FFF00
1FFF80
3F0F80
3E0300
3C0000
7C0000
7C0000
7C0000
3E0000
3F0000
1F8000
0FE000
07F800
01FE00
00FF00
003F80
000F80
0007C0
0007C0
0003C0
0003C0
0007C0
3007C0
7C0F80
FFFF80
7FFF00
1FFE00
07F800
00E000
00E000
00E000
00E000
ENDCHAR
STARTCHAR U+0025
ENCODING 37
SWIDTH 500 0
DWIDTH 38 0
BBX 35 31 1 -1
BITMAP
07C000E000
1FE000C000
3FF001C000
3C78018000
7838038000
703C070000
701C070000
701C0E0000
F01C0E0000
F01C1C0000
701C1C0000
701C380000
701C383E00
703C70FF00
783871FF80
3C78E1E3C0
3FF0E3C1C0
1FE1C381E0
07C1C381E0
00038780E0
00038780E0
00070780E0
00070780E0
000E0780E0
000E0381E0
001C0381E0
001803C1C0
003801C3C0
003001FF80
007000FF00
00E0003E00
ENDCHAR
STARTCHAR U+0026
ENCODING 38
SWIDTH 500 0
DWIDTH 28 0
BBX 26 31 1 -1
BITMAP
007C0000
01FF0000
03FF0000
07CF8000
07878000
0F038000
0F038000
0F038000
0F078000
0F0F8000
079F0000
07BE0000
07FC0000
03F80000
07F003C0
0FE007C0
1FF00780
3FF80780
3E7C0F80
7C3E0F00
783F1F00
781F9E00
F80FFC00
F807FC00
7803F800
7C01FE00
7E07FF00
3FFFFFC0
1FFF8FC0
0FFF07C0
03F80080
ENDCHAR
STARTCHAR U+0027
ENCODING 39
SWIDTH 500 0
DWIDTH 12 0
BBX 4 13 4 18
BITMAP
F0
F0
F0
F0
F0
F0
F0
F0
F0
F0
F0
E0
60
ENDCHAR
STARTCHAR U+0028
ENCODING 40
SWIDTH 500 0
DWIDTH 14 0
BBX 8 41 4 -8
BITMAP
04
07
0F
0E
1E
1C
3C
3C
38
78
78
70
F0
F0
F0
F0
F0
E0
E0
E0
E0
E0
E0
E0
F0
F0
F0
F0
F0
70
78
78
38
3C
3C
1C
1E
0E
0F
07
06
ENDCHAR
STARTCHAR U+0029
ENCODING 41
SWIDTH 500 0
DWIDTH 14 0
BBX 9 41 2 -8
BITMAP
2000
E000
F000
7800
7800
3C00
3C00
1C00
1E00
1E00
0E00
0F00
0F00
0F00
0F00
0700
0700
0700
0780
0780
0780
0780
0780
0700
0700
0700
0F00
0F00
0F00
0F00
0E00
1E00
1E00
1C00
3C00
3C00
7800
7800
F000
F000
2000
ENDCHAR
STARTCHAR U+002A
ENCODING 42
SWIDTH 500 0
DWIDTH 19 0
BBX 14 14 3 18
BITMAP
0700
0700
0700
0700
E718
FFFC
FFFC
3FE0
0FC0
1FC0
1FE0
3CE0
7870
3060
ENDCHAR
STARTCHAR U+002B
ENCODING 43
SWIDTH 500 0
DWIDTH 23 0
BBX 19 21 2 4
BITMAP
00E000
00E000
00E000
00E000
00E000
00E000
00E000
00E000
01E000
FFFFE0
FFFFE0
FFFFE0
00E000
00E000
00E000
00E000
00E000
00E000
00E000
00E000
00E000
ENDCHAR
STARTCHAR U+002C
ENCODING 44
SWIDTH 500 0
DWIDTH 12 0
BBX 8 14 2 -8
BITMAP
1C
7E
7E
7F
7F
3F
0E
0E
0E
1C
3C
F8
70
40
ENDCHAR
STARTCHAR U+002D
ENCODING 45
SWIDTH 500 0
DWIDTH 14 0
BBX 10 3 2 10
BITMAP
FFC0
FFC0
FFC0
ENDCHAR
STARTCHAR U+002E
ENCODING 46
SWIDTH 500 0
DWIDTH 12 0
BBX 6 6 3 -1
BITMAP
78
FC
FC
FC
FC
78
ENDCHAR
STARTCHAR U+002F
ENCODING 47
SWIDTH 500 0
DWIDTH 16 0
BBX 14 39 1 -7
BITMAP
003C
0038
0038
0038
0078
0070
0070
00F0
00E0
00E0
00E0
01E0
01C0
01C0
03C0
0380
0380
0380
0780
0700
0700
0F00
0E00
0E00
0E00
1E00
1C00
1C00
3C00
3800
3800
3800
7800
7000
7000
7000
E000
E000
E000
ENDCHAR
STARTCHAR U+0030
ENCODING 48
SWIDTH 500 0
DWIDTH 23 0
BBX 19 31 2 -1
BITMAP
01F000
07FC00
0FFE00
1FFF00
3E0F80
3C0780
7C07C0
7803C0
7803C0
F803C0
F803E0
F003E0
F003E0
F003E0
F003E0
F001E0
F003E0
F003E0
F003E0
F003E0
F803E0
F803C0
7803C0
7803C0
7C07C0
3C0780
3E0F80
1FFF00
0FFE00
07FC00
01F000
ENDCHAR
STARTCHAR U+0031
ENCODING 49
SWIDTH 500 0
DWIDTH 23 0
BBX 17 29 3 0
BITMAP
01E000
07E000
3FE000
3FE000
3FE000
01E000
01E000
01E000
01E000
01E000
01E000
01E000
01E000
01E000
01E000
01E000
01E000
01E000
01E000
01E000
01E000
01E000
01E000
01E000
01E000
7FFF80
FFFF80
FFFF80
FFFF80
ENDCHAR
STARTCHAR U+0032
ENCODING 50
SWIDTH 500 0
DWIDTH 23 0
BBX 19 30 2 0
BITMAP
07F000
1FFC00
3FFE00
FFFF00
F81F00
700F80
200F80
000780
000780
000780
000780
000780
000F80
000F00
001F00
001E00
003E00
007C00
00FC00
00F800
01F000
03E000
07C000
0F8000
1F0000
3E0000
7FFFE0
FFFFE0
FFFFE0
FFFFE0
ENDCHAR
STARTCHAR U+0033
ENCODING 51
SWIDTH 500 0
DWIDTH 23 0
BBX 20 31 1 -1
BITMAP
03F800
0FFE00
3FFF00
7FFF80
3C0FC0
1807C0
0003C0
0003E0
0003C0
0003C0
0007C0
0007C0
000F80
00FF00
03FE00
03FC00
03FF00
001F80
0007C0
0003E0
0001E0
0001E0
0001F0
0001E0
2003E0
7003E0
FC0FE0
7FFFC0
3FFF80
1FFF00
03F800
ENDCHAR
STARTCHAR U+0034
ENCODING 52
SWIDTH 500 0
DWIDTH 23 0
BBX 21 29 1 0
BITMAP
001F80
001F80
003F80
007F80
007F80
00F780
01F780
01E780
03C780
07C780
078780
0F0780
1F0780
1E0780
3C0780
7C0780
780780
FFFFF0
FFFFF8
FFFFF8
FFFFF8
000780
000780
000780
000780
000780
000780
000780
000780
ENDCHAR
STARTCHAR U+0035
ENCODING 53
SWIDTH 500 0
DWIDTH 23 0
BBX 19 30 2 -1
BITMAP
3FFF80
3FFF80
3FFF80
3FFF80
3C0000
3C0000
3C0000
3C0000
3C0000
3C0000
3C0000
3FFC00
3FFE00
7FFF80
3C1F80
000FC0
0007C0
0003C0
0003E0
0003E0
0003E0
0003C0
0003C0
4007C0
E00FC0
F81F80
FFFF00
7FFE00
3FFC00
07F000
ENDCHAR
STARTCHAR U+0036
ENCODING 54
SWIDTH 500 0
DWIDTH 23 0
BBX 19 31 2 -1
BITMAP
00FC00
03FF00
07FFC0
0FFFC0
1F8380
3E0100
3C0000
7C0000
780000
780000
780000
F80000
F8FE00
F3FF00
FFFF80
FF0FC0
FC07C0
F803E0
F803E0
F801E0
F801E0
7801E0
7801E0
7803E0
3C03E0
3E03C0
1E07C0
1FFF80
0FFF00
07FE00
01F800
ENDCHAR
STARTCHAR U+0037
ENCODING 55
SWIDTH 500 0
DWIDTH 23 0
BBX 19 29 2 0
BITMAP
FFFFE0
FFFFE0
FFFFE0
FFFFC0
0007C0
000780
000F00
001F00
001E00
003C00
003C00
007800
007800
007800
00F000
00F000
00F000
01F000
01E000
01E000
01E000
03E000
03E000
03E000
03E000
03E000
03E000
03E000
03C000
ENDCHAR
STARTCHAR U+0038
ENCODING 56
SWIDTH 500 0
DWIDTH 23 0
BBX 19 31 2 -1
BITMAP
03F800
07FE00
1FFF00
3FBF80
3E0F80
7C07C0
7803C0
7803C0
7803C0
7C03C0
3C0380
3E0780
1F8F00
0FEF00
07FE00
0FFC00
1EFF00
3C3F80
780FC0
7807C0
F003E0
F003E0
F001E0
F001E0
F003E0
F803E0
7C07C0
7F1F80
3FFF80
0FFE00
03F800
ENDCHAR
STARTCHAR U+0039
ENCODING 57
SWIDTH 500 0
DWIDTH 23 0
BBX 19 31 2 -1
BITMAP
03E000
0FF800
1FFE00
3FFF00
7C1F00
780F80
F80780
F007C0
F003C0
F003C0
F003C0
F003C0
F003E0
F807E0
780FE0
7E1FE0
3FFFE0
1FFBC0
0FE3C0
0003C0
0003C0
0003C0
0007C0
000780
000F80
200F00
783F00
7FFE00
7FFC00
3FF800
07E000
ENDCHAR
STARTCHAR U+003A
ENCODING 58
SWIDTH 500 0
DWIDTH 12 0
BBX 6 22 3 -1
BITMAP
78
F8
FC
FC
FC
78
00
00
00
00
00
00
00
00
00
00
78
FC
FC
FC
FC
78
ENDCHAR
STARTCHAR U+003B
ENCODING 59
SWIDTH 500 0
DWIDTH 12 0
BBX 8 29 2 -8
BITMAP
3C
7E
7E
7E
7E
3C
00
00
00
00
00
00
00
00
00
1C
7E
7E
7F
7F
3F
0E
0E
0E
1C
3C
F8
70
40
ENDCHAR
STARTCHAR U+003C
ENCODING 60
SWIDTH 500 0
DWIDTH 23 0
BBX 19 19 2 5
BITMAP
000020
0001E0
0007E0
003FE0
00FFC0
07FE00
1FF000
FF8000
FE0000
F80000
FE0000
FFC000
1FF000
03FE00
00FFC0
001FE0
0007E0
0000E0
000020
ENDCHAR
STARTCHAR U+003D
ENCODING 61
SWIDTH 500 0
DWIDTH 23 0
BBX 19 13 2 8
BITMAP
FFFFE0
FFFFE0
FFFFE0
000000
000000
000000
000000
000000
000000
000000
FFFFE0
FFFFE0
FFFFE0
ENDCHAR
STARTCHAR U+003E
ENCODING 62
SWIDTH 500 0
DWIDTH 23 0
BBX 19 18 2 6
BITMAP
800000
E00000
FC0000
FF0000
7FE000
0FFC00
01FF00
003FE0
000FE0
0003E0
000FE0
007FC0
03FF00
0FF800
7FE000
FF0000
FC0000
E00000
ENDCHAR
STARTCHAR U+003F
ENCODING 63
SWIDTH 500 0
DWIDTH 20 0
BBX 16 31 2 -1
BITMAP
07E0
1FF8
7FFC
FFFE
F83E
203E
001F
001F
001E
001E
003E
007C
0078
00F8
01F0
03E0
03C0
07C0
0780
0780
0780
0000
0000
0000
0000
0780
0FC0
0FC0
0FC0
07C0
0380
ENDCHAR
STARTCHAR U+0040
ENCODING 64
SWIDTH 500 0
DWIDTH 39 0
BBX 35 36 2 -7
BITMAP
0001FF0000
000FFFC000
003FFFF000
00FE01FC00
01F8003E00
03E0001F00
07C0000F00
0F80000780
0F00000380
1E000003C0
3C01F381C0
3C03FB81C0
380FFF81C0
780F0F81C0
701E0701E0
703C0700E0
703C0F01E0
F0380F01C0
F0780F01C0
F0780E01C0
F0780E03C0
F0780E0380
F0381E0780
703C7F0F00
703FF7FE00
781FE7FC00
780781F000
3C00000000
3C00000000
1E00000000
0F00000000
07C0010000
03F8078000
01FFFF8000
007FFF0000
000FF80000
ENDCHAR
STARTCHAR U+0041
ENCODING 65
SWIDTH 500 0
DWIDTH 25 0
BBX 25 29 0 0
BITMAP
003E0000
007F0000
007F0000
007F0000
00F78000
00F78000
00E78000
01E3C000
01E3C000
01E3C000
03C3E000
03C1E000
03C1E000
0781F000
0780F000
0780F000
0F00F800
0FFFF800
0FFFF800
1FFFFC00
1FFFFC00
1E003C00
3E003E00
3C003E00
3C001E00
7C001F00
78001F00
78000F00
F8000F80
ENDCHAR
STARTCHAR U+0042
ENCODING 66
SWIDTH 500 0
DWIDTH 27 0
BBX 21 29 4 0
BITMAP
FFFC00
FFFF00
FFFFC0
FFFFC0
F807E0
F803E0
F801E0
F801E0
F801E0
F803E0
F803C0
F80FC0
FFFF80
FFFF00
FFFFC0
F87FE0
F803F0
F801F0
F800F8
F800F8
F800F8
F800F8
F800F8
F801F0
F803F0
FFFFE0
FFFFC0
FFFF80
FFFC00
ENDCHAR
STARTCHAR U+0043
ENCODING 67
SWIDTH 500 0
DWIDTH 26 0
BBX 22 31 2 -1
BITMAP
003F80
00FFE0
03FFF8
07FFFC
0FE0F8
1F8030
3F0000
3E0000
3E0000
7C0000
7C0000
780000
780000
F80000
F80000
F80000
F80000
F80000
F80000
780000
7C0000
7C0000
7E0000
3E0000
3F0018
1F8038
0FE0FC
07FFFC
03FFF8
01FFE0
003F80
ENDCHAR
STARTCHAR U+0044
ENCODING 68
SWIDTH 500 0
DWIDTH 28 0
BBX 22 29 4 0
BITMAP
FFF000
FFFE00
FFFF00
FFFFC0
F81FE0
F807E0
F803F0
F801F0
F800F8
F800F8
F800F8
F80078
F8007C
F8007C
F8007C
F8007C
F8007C
F80078
F800F8
F800F8
F800F8
F801F0
F803F0
F807E0
F81FE0
FFFFC0
FFFF00
FFFE00
FFF000
ENDCHAR
STARTCHAR U+0045
ENCODING 69
SWIDTH 500 0
DWIDTH 24 0
BBX 18 29 4 0
BITMAP
FFFF80
FFFF80
FFFF80
FFFF80
F80000
F80000
F80000
F80000
F80000
F80000
F80000
F80000
FFFE00
FFFE00
FFFE00
FFFE00
F80000
F80000
F80000
F80000
F80000
F80000
F80000
F80000
F80000
FFFFC0
FFFFC0
FFFFC0
FFFFC0
ENDCHAR
STARTCHAR U+0046
ENCODING 70
SWIDTH 500 0
DWIDTH 23 0
BBX 17 29 4 0
BITMAP
FFFF80
FFFF80
FFFF80
FFFF80
F80000
F80000
F80000
F80000
F80000
F80000
F80000
F80000
F80000
FFFE00
FFFE00
FFFE00
FFFE00
F80000
F80000
F80000
F80000
F80000
F80000
F80000
F80000
F80000
F80000
F80000
F80000
ENDCHAR
STARTCHAR U+0047
ENCODING 71
SWIDTH 500 0
DWIDTH 28 0
BBX 23 31 2 -1
BITMAP
003F80
00FFF0
03FFF8
07FFFC
0FE07C
1F8018
3F0000
3E0000
7E0000
7C0000
7C0000
780000
F80000
F80000
F807FE
F807FE
F807FE
F807FE
78001E
7C001E
7C001E
7C001E
3E001E
3E001E
3F001E
1F801E
0FE07E
07FFFE
03FFFC
00FFF0
003FC0
ENDCHAR
STARTCHAR U+0048
ENCODING 72
SWIDTH 500 0
DWIDTH 30 0
BBX 22 29 4 0
BITMAP
F8007C
F8007C
F8007C
F8007C
F8007C
F8007C
F8007C
F8007C
F8007C
F8007C
F8007C
F8007C
FFFFFC
FFFFFC
FFFFFC
FFFFFC
F8007C
F8007C
F8007C
F8007C
F8007C
F8007C
F8007C
F8007C
F8007C
F8007C
F8007C
F8007C
F8007C
ENDCHAR
STARTCHAR U+0049
ENCODING 73
SWIDTH 500 0
DWIDTH 12 0
BBX 5 29 4 0
BITMAP
F8
F8
F8
F8
F8
F8
F8
F8
F8
F8
F8
F8
F8
F8
F8
F8
F8
F8
F8
F8
F8
F8
F8
F8
F8
F8
F8
F8
F8
ENDCHAR
STARTCHAR U+004A
ENCODING 74
SWIDTH 500 0
DWIDTH 22 0
BBX 17 30 1 -1
BITMAP
000780
000780
000780
000780
000780
000780
000780
000780
000780
000780
000780
000780
000780
000780
000780
000780
000780
000780
000780
000780
000780
000F80
000F80
300F80
780F80
FC3F00
7FFF00
3FFE00
1FFC00
07F000
ENDCHAR
STARTCHAR U+004B
ENCODING 75
SWIDTH 500 0
DWIDTH 27 0
BBX 22 29 4 0
BITMAP
F801F8
F801F0
F803E0
F807C0
F80F80
F81F80
F81F00
F83E00
F87C00
F8F800
F9F000
FBF000
FBF800
FFF800
FFFC00
FF7C00
FF3E00
FE1F00
FC1F00
F80F80
F80F80
F807C0
F803E0
F803E0
F801F0
F801F0
F800F8
F800FC
F8007C
ENDCHAR
STARTCHAR U+004C
ENCODING 76
SWIDTH 500 0
DWIDTH 22 0
BBX 17 29 4 0
BITMAP
F80000
F80000
F80000
F80000
F80000
F80000
F80000
F80000
F80000
F80000
F80000
F80000
F80000
F80000
F80000
F80000
F80000
F80000
F80000
F80000
F80000
F80000
F80000
F80000
F80000
FFFF80
FFFF80
FFFF80
FFFF80
ENDCHAR
STARTCHAR U+004D
ENCODING 77
SWIDTH 500 0
DWIDTH 33 0
BBX 25 29 4 0
BITMAP
F8000F80
FC001F80
FC001F80
FC001F80
FE003F80
FE003F80
FF003F80
FF007F80
F7007780
F7807780
F780F780
F380E780
F3C1E780
F3C1E780
F1E1C780
F1E3C780
F0E3C780
F0F38780
F0F78780
F0770780
F07F0780
F07F0780
F03E0780
F03E0780
F01E0780
F01C0780
F0000780
F0000780
F0000780
ENDCHAR
STARTCHAR U+004E
ENCODING 78
SWIDTH 500 0
DWIDTH 29 0
BBX 21 29 4 0
BITMAP
F80078
F80078
FC0078
FE0078
FE0078
FF0078
FF0078
F78078
F7C078
F3C078
F3E078
F1E078
F1F078
F0F078
F0F878
F07C78
F03C78
F03E78
F01E78
F01F78
F00F78
F00FB8
F007F8
F003F8
F003F8
F001F8
F001F8
F000F8
F000F8
ENDCHAR
STARTCHAR U+004F
ENCODING 79
SWIDTH 500 0
DWIDTH 30 0
BBX 26 31 2 -1
BITMAP
003F8000
01FFE000
03FFF800
0FFFFC00
0FE1FE00
1F807E00
3F003F00
3E001F00
7C000F80
7C000F80
7C000F80
780007C0
F80007C0
F80007C0
F80007C0
F80007C0
F80007C0
F80007C0
F80007C0
780007C0
7C000F80
7C000F80
7C000F80
3E001F00
3F003F00
1F807E00
0FE1FE00
07FFFC00
03FFF800
01FFE000
003F0000
ENDCHAR
STARTCHAR U+0050
ENCODING 80
SWIDTH 500 0
DWIDTH 26 0
BBX 20 29 4 0
BITMAP
FFF800
FFFF00
FFFF80
FFFFC0
F807E0
F803E0
F801F0
F801F0
F801F0
F801F0
F801F0
F801F0
F803E0
F807E0
FFFFC0
FFFF80
FFFF00
FFF800
F80000
F80000
F80000
F80000
F80000
F80000
F80000
F80000
F80000
F80000
F80000
ENDCHAR
STARTCHAR U+0051
ENCODING 81
SWIDTH 500 0
DWIDTH 30 0
BBX 27 37 2 -7
BITMAP
003F8000
01FFE000
07FFF800
0FFFFC00
1FE0FE00
1F807E00
3F003F00
3E001F00
7C000F80
7C000F80
7C000780
780007C0
F80007C0
F80007C0
F80007C0
F80007C0
F80007C0
F80007C0
780007C0
7C000780
7C000F80
7C000F80
3E001F80
3E001F00
1F003E00
1F807E00
0FFFFC00
07FFF800
01FFF000
007F8000
001F0000
000F8000
000FE000
0007FFC0
0001FFC0
0000FFE0
00001FC0
ENDCHAR
STARTCHAR U+0052
ENCODING 82
SWIDTH 500 0
DWIDTH 26 0
BBX 21 29 4 0
BITMAP
FFFC00
FFFF00
FFFFC0
FFFFE0
F807E0
F803F0
F801F0
F801F0
F801F0
F801F0
F801F0
F801F0
F803E0
F80FE0
FFFFC0
FFFF80
FFFE00
FFFC00
F83E00
F83E00
F81F00
F80F80
F80F80
F807C0
F807C0
F803E0
F803F0
F801F0
F800F8
ENDCHAR
STARTCHAR U+0053
ENCODING 83
SWIDTH 500 0
DWIDTH 24 0
BBX 21 31 2 -1
BITMAP
01FC00
07FF80
0FFFC0
1FFFE0
3F07E0
3E00C0
7C0000
7C0000
7C0000
7C0000
7E0000
3F0000
1FE000
1FF800
0FFE00
03FF80
00FFC0
003FE0
000FF0
0003F0
0001F0
0000F0
0000F8
0000F8
3001F0
7801F0
FF07E0
7FFFE0
3FFFC0
0FFF00
01FC00
ENDCHAR
STARTCHAR U+0054
ENCODING 84
SWIDTH 500 0
DWIDTH 24 0
BBX 22 29 1 0
BITMAP
FFFFFC
FFFFFC
FFFFFC
FFFFFC
007C00
007C00
007C00
007C00
007C00
007C00
007C00
007C00
007C00
007C00
007C00
007C00
007C00
007C00
007C00
007C00
007C00
007C00
007C00
007C00
007C00
007C00
007C00
007C00
007C00
ENDCHAR
STARTCHAR U+0055
ENCODING 85
SWIDTH 500 0
DWIDTH 29 0
BBX 22 30 4 -1
BITMAP
F0007C
F0007C
F0007C
F0007C
F0007C
F0007C
F0007C
F0007C
F0007C
F0007C
F0007C
F0007C
F0007C
F0007C
F0007C
F0007C
F0007C
F0007C
F00078
F00078
F80078
F80078
F800F8
7C00F8
7E01F0
3F07F0
3FFFE0
1FFFC0
07FF80
01FC00
ENDCHAR
STARTCHAR U+0056
ENCODING 86
SWIDTH 500 0
DWIDTH 24 0
BBX 24 29 0 0
BITMAP
F8001F
F8001E
7C003E
7C003E
7C003C
3C003C
3E007C
3E0078
1E0078
1F00F8
1F00F0
0F00F0
0F01F0
0F81F0
0781E0
0781E0
07C3E0
07C3C0
03C3C0
03C7C0
03E780
01E780
01E780
01FF00
00FF00
00FF00
00FE00
007E00
007E00
ENDCHAR
STARTCHAR U+0057
ENCODING 87
SWIDTH 500 0
DWIDTH 36 0
BBX 34 29 1 0
BITMAP
F801E007C0
F801E00780
F803F00780
7803F00780
7803F00780
7C03F00F80
7C07F80F00
7C07F80F00
3C07780F00
3C07380F00
3E0F3C1F00
3E0F3C1E00
3E0E3C1E00
1E0E3C1E00
1E1E1E1E00
1E1E1E3E00
1F1E1E3C00
0F1C1E3C00
0F3C0F3C00
0F3C0F3C00
0F3C0F3C00
0FB80F3800
07B8077800
07F807F800
07F807F800
07F007F800
07F003F000
03F003F000
03F003F000
ENDCHAR
STARTCHAR U+0058
ENCODING 88
SWIDTH 500 0
DWIDTH 24 0
BBX 22 29 1 0
BITMAP
FC0078
7C00F8
3E00F0
3E01F0
1F03E0
1F03E0
0F87C0
0F87C0
07C780
03CF00
03EF00
01FE00
01FE00
00FC00
00FC00
01FC00
01FE00
03DF00
03DF00
078F80
0F8780
0F07C0
1F03C0
1E03E0
3E01F0
3C01F0
7C00F8
F800F8
F8007C
ENDCHAR
STARTCHAR U+0059
ENCODING 89
SWIDTH 500 0
DWIDTH 22 0
BBX 22 29 0 0
BITMAP
F8007C
780078
7C00F8
3C00F8
3E01F0
1E01F0
1F03E0
0F03E0
0F83C0
0787C0
078780
03CF80
03CF00
03FF00
01FE00
01FE00
00FC00
00FC00
007800
007800
007800
007800
007800
007800
007800
007800
007800
007800
007800
ENDCHAR
STARTCHAR U+005A
ENCODING 90
SWIDTH 500 0
DWIDTH 24 0
BBX 21 29 2 0
BITMAP
7FFFF0
7FFFF0
7FFFF0
7FFFF0
0003E0
0003E0
0007C0
000F80
000F80
001F00
003E00
003E00
007C00
00F800
00F800
01F000
03E000
03E000
07C000
0F8000
0F8000
1F0000
3E0000
3E0000
7C0000
FFFFF0
FFFFF8
FFFFF8
FFFFF8
ENDCHAR
STARTCHAR U+005B
ENCODING 91
SWIDTH 500 0
DWIDTH 14 0
BBX 9 39 4 -7
BITMAP
FF80
FF80
FF00
F000
F000
F000
F000
F000
F000
F000
F000
F000
F000
F000
F000
F000
F000
F000
F000
F000
F000
F000
F000
F000
F000
F000
F000
F000
F000
F000
F000
F000
F000
F000
F000
F000
FF00
FF80
FF80
ENDCHAR
STARTCHAR U+005C
ENCODING 92
SWIDTH 500 0
DWIDTH 16 0
BBX 14 39 1 -7
BITMAP
E000
E000
7000
7000
7000
7800
3800
3800
3800
3C00
1C00
1C00
1E00
0E00
0E00
0E00
0F00
0700
0700
0780
0380
0380
0380
03C0
01C0
01C0
01E0
00E0
00E0
00E0
00F0
0070
0070
0070
0038
0038
0038
003C
001C
ENDCHAR
STARTCHAR U+005D
ENCODING 93
SWIDTH 500 0
DWIDTH 14 0
BBX 8 39 2 -7
BITMAP
FF
FF
FF
07
07
07
07
07
07
07
07
07
07
07
07
07
07
07
07
07
07
07
07
07
07
07
07
07
07
07
07
07
07
07
07
07
FF
FF
FF
ENDCHAR
STARTCHAR U+005E
ENCODING 94
SWIDTH 500 0
DWIDTH 23 0
BBX 17 17 3 13
BITMAP
03E000
03E000
07E000
07F000
077000
0F7800
0E7800
1E3800
1E3C00
1C3C00
3C1E00
3C1E00
780E00
780F00
700F00
F00780
F00780
ENDCHAR
STARTCHAR U+005F
ENCODING 95
SWIDTH 500 0
DWIDTH 22 0
BBX 21 3 1 -6
BITMAP
FFFFF8
FFFFF8
FFFFF8
ENDCHAR
STARTCHAR U+0060
ENCODING 96
SWIDTH 500 0
DWIDTH 25 0
BBX 9 10 6 26
BITMAP
2000
7000
F000
F800
7C00
3E00
1F00
0F80
0700
0200
ENDCHAR
STARTCHAR U+0061
ENCODING 97
SWIDTH 500 0
DWIDTH 23 0
BBX 18 24 2 -1
BITMAP
01F800
0FFE00
3FFF00
7FFF80
3C0F80
300780
0007C0
0007C0
0007C0
00FFC0
07FFC0
1FFFC0
3FC7C0
7E07C0
7C07C0
F807C0
F807C0
F807C0
F80FC0
7C1FC0
7FFFC0
3FFBC0
3FF3C0
0F8000
ENDCHAR
STARTCHAR U+0062
ENCODING 98
SWIDTH 500 0
DWIDTH 25 0
BBX 20 33 3 -1
BITMAP
F80000
F80000
F80000
F80000
F80000
F80000
F80000
F80000
F80000
F87C00
F9FF00
FFFF80
FFFFC0
FF07E0
FC03E0
F803E0
F801F0
F801F0
F801F0
F801F0
F801F0
F801F0
F801F0
F801F0
F801F0
F801F0
F803E0
FC07E0
FE0FC0
FFFFC0
FFFF80
F3FE00
00F800
ENDCHAR
STARTCHAR U+0063
ENCODING 99
SWIDTH 500 0
DWIDTH 21 0
BBX 17 24 2 -1
BITMAP
00FC00
07FF00
0FFF80
1FFF80
3F0700
7E0000
7C0000
7C0000
F80000
F80000
F80000
F80000
F80000
F80000
F80000
F80000
7C0000
7C0000
7E0100
3F0380
1FFF80
0FFF80
07FF00
01FC00
ENDCHAR
STARTCHAR U+0064
ENCODING 100
SWIDTH 500 0
DWIDTH 25 0
BBX 20 33 2 -1
BITMAP
0001F0
0001F0
0001F0
0001F0
0001F0
0001F0
0001F0
0001F0
0001F0
01F1F0
07FDF0
0FFFF0
1FFFF0
3F07F0
7E01F0
7C01F0
7C01F0
F801F0
F801F0
F801F0
F801F0
F801F0
F801F0
F801F0
F801F0
7C01F0
7C01F0
7E03F0
3F07F0
3FFFF0
1FFEF0
0FFCF0
03F000
ENDCHAR
STARTCHAR U+0065
ENCODING 101
SWIDTH 500 0
DWIDTH 23 0
BBX 19 24 2 -1
BITMAP
01F800
07FE00
0FFF00
1FFF80
3E07C0
7C03C0
7C03C0
7801E0
F801E0
F801E0
FFFFE0
FFFFE0
FFFFE0
F80000
F80000
F80000
780000
7C0000
7E0000
3F0180
1FFF80
0FFFC0
07FF00
01FC00
ENDCHAR
STARTCHAR U+0066
ENCODING 102
SWIDTH 500 0
DWIDTH 14 0
BBX 14 33 1 0
BITMAP
0060
03FC
07FC
0FF8
0F80
0F00
1F00
1F00
1F00
1F00
1F00
FFF0
FFF0
FFF0
FFF0
1F00
1F00
1F00
1F00
1F00
1F00
1F00
1F00
1F00
1F00
1F00
1F00
1F00
1F00
1F00
1F00
1F00
1F00
ENDCHAR
STARTCHAR U+0067
ENCODING 103
SWIDTH 500 0
DWIDTH 23 0
BBX 20 33 2 -10
BITMAP
03E000
0FFFF0
1FFFF0
3F3FF0
7C0F80
7C0780
780780
780780
780780
780780
7C0780
7C0F80
3E1F00
1FFE00
1FFC00
3DF000
380000
780000
780000
7C0000
7FFC00
3FFFC0
1FFFE0
39FFF0
7001F0
F000F0
F000F0
F000F0
F801F0
FE07E0
7FFFC0
3FFF00
07F800
ENDCHAR
STARTCHAR U+0068
ENCODING 104
SWIDTH 500 0
DWIDTH 25 0
BBX 19 32 3 0
BITMAP
F80000
F80000
F80000
F80000
F80000
F80000
F80000
F80000
F80000
F87E00
F9FF00
FBFF80
FFFFC0
FF0FC0
FE07C0
FC03E0
F803E0
F803E0
F803E0
F803E0
F803E0
F803E0
F803E0
F803E0
F803E0
F803E0
F803E0
F803E0
F803E0
F803E0
F803E0
F803E0
ENDCHAR
STARTCHAR U+0069
ENCODING 105
SWIDTH 500 0
DWIDTH 11 0
BBX 6 31 3 0
BITMAP
78
F8
FC
F8
70
00
00
00
00
F8
F8
F8
F8
F8
F8
F8
F8
F8
F8
F8
F8
F8
F8
F8
F8
F8
F8
F8
F8
F8
F8
ENDCHAR
STARTCHAR U+006A
ENCODING 106
SWIDTH 500 0
DWIDTH 12 0
BBX 11 41 -2 -10
BITMAP
03C0
07C0
07E0
07C0
0380
0000
0000
0000
0000
03C0
03C0
03C0
03C0
03C0
03C0
03C0
03C0
03C0
03C0
03C0
03C0
03C0
03C0
03C0
03C0
03C0
03C0
03C0
03C0
03C0
03C0
03C0
03C0
07C0
07C0
07C0
07C0
7F80
FF80
FF00
7C00
ENDCHAR
STARTCHAR U+006B
ENCODING 107
SWIDTH 500 0
DWIDTH 23 0
BBX 19 32 3 0
BITMAP
780000
F80000
F80000
F80000
F80000
F80000
F80000
F80000
F80000
F80000
F807C0
F80FC0
F80F80
F81F00
F83E00
F87C00
F8F800
F8F800
F9F000
FBF000
FFF000
FFF800
FF7C00
FE3C00
FE3E00
FC1E00
F81F00
F80F80
F80780
F807C0
F803E0
F803E0
ENDCHAR
STARTCHAR U+006C
ENCODING 108
SWIDTH 500 0
DWIDTH 12 0
BBX 7 32 3 -1
BITMAP
F8
F8
F8
F8
F8
F8
F8
F8
F8
F8
F8
F8
F8
F8
F8
F8
F8
F8
F8
F8
F8
F8
F8
F8
F8
F8
F8
78
7E
7E
3E
1E
ENDCHAR
STARTCHAR U+006D
ENCODING 109
SWIDTH 500 0
DWIDTH 38 0
BBX 31 23 3 0
BITMAP
007C03E0
F1FF0FF8
F3FF9FFC
FFFFBFFE
FF0FF87E
FE07F03E
FC07E01E
F807C01E
F803C01E
F803C01E
F803C01E
F803C01E
F803C01E
F803C01E
F803C01E
F803C01E
F803C01E
F803C01E
F803C01E
F803C01E
F803C01E
F803C01E
F803C01E
ENDCHAR
STARTCHAR U+006E
ENCODING 110
SWIDTH 500 0
DWIDTH 25 0
BBX 19 23 3 0
BITMAP
007E00
F1FF00
F3FF80
FFFFC0
FF0FC0
FE07C0
FC03E0
F803E0
F803E0
F803E0
F803E0
F803E0
F803E0
F803E0
F803E0
F803E0
F803E0
F803E0
F803E0
F803E0
F803E0
F803E0
F803E0
ENDCHAR
STARTCHAR U+006F
ENCODING 111
SWIDTH 500 0
DWIDTH 25 0
BBX 21 24 2 -1
BITMAP
01F800
07FE00
0FFF80
1FFFC0
3F07E0
7E03E0
7C01F0
7C01F0
F801F0
F800F0
F800F0
F800F8
F800F8
F800F8
F800F0
F801F0
7C01F0
7C01F0
7E03E0
3F07E0
1FFFC0
0FFF80
07FE00
01F800
ENDCHAR
STARTCHAR U+0070
ENCODING 112
SWIDTH 500 0
DWIDTH 25 0
BBX 20 32 3 -9
BITMAP
007C00
F1FF00
FFFF80
FFFFC0
FF07E0
FC03E0
F803E0
F801F0
F801F0
F801F0
F801F0
F801F0
F801F0
F801F0
F801F0
F801F0
F801F0
F803E0
FC07E0
FE0FC0
FFFFC0
FFFF80
FBFE00
F8F800
F80000
F80000
F80000
F80000
F80000
F80000
F80000
F80000
ENDCHAR
STARTCHAR U+0071
ENCODING 113
SWIDTH 500 0
DWIDTH 25 0
BBX 20 32 2 -9
BITMAP
01F000
07FCF0
0FFFF0
1FFFF0
3F07F0
7E01F0
7C01F0
7C01F0
F801F0
F801F0
F801F0
F801F0
F801F0
F801F0
F801F0
F801F0
FC01F0
7C01F0
7E03F0
3F07F0
3FFFF0
1FFFF0
0FFDF0
03F1F0
0001F0
0001F0
0001F0
0001F0
0001F0
0001F0
0001F0
0001F0
ENDCHAR
STARTCHAR U+0072
ENCODING 114
SWIDTH 500 0
DWIDTH 16 0
BBX 13 23 3 0
BITMAP
0078
F1F8
F3F8
F7F8
FF80
FE00
FE00
FC00
F800
F800
F800
F800
F800
F800
F800
F800
F800
F800
F800
F800
F800
F800
F800
ENDCHAR
STARTCHAR U+0073
ENCODING 115
SWIDTH 500 0
DWIDTH 19 0
BBX 17 24 1 -1
BITMAP
03F000
0FFC00
1FFF00
3FFF00
3E0E00
3C0000
7C0000
7C0000
3E0000
3F8000
1FE000
0FF800
03FE00
00FF00
003F00
001F80
000F80
000F80
200F80
780F00
FF7F00
7FFE00
1FFC00
07F000
ENDCHAR
STARTCHAR U+0074
ENCODING 116
SWIDTH 500 0
DWIDTH 16 0
BBX 14 29 1 -1
BITMAP
0F00
0F00
0F00
0F00
0F00
1F00
FFFC
FFFC
FFFC
FFF8
1F00
1F00
1F00
1F00
1F00
1F00
1F00
1F00
1F00
1F00
1F00
1F00
1F00
1F00
0F80
0FFC
07FC
07FC
01F8
ENDCHAR
STARTCHAR U+0075
ENCODING 117
SWIDTH 500 0
DWIDTH 25 0
BBX 18 23 3 -1
BITMAP
F803C0
F803C0
F803C0
F803C0
F803C0
F803C0
F803C0
F803C0
F803C0
F803C0
F803C0
F803C0
F803C0
F803C0
F803C0
F803C0
F807C0
FC0FC0
7E1FC0
7FFFC0
3FFBC0
1FF1C0
0FC000
ENDCHAR
STARTCHAR U+0076
ENCODING 118
SWIDTH 500 0
DWIDTH 22 0
BBX 20 22 1 0
BITMAP
F000F0
F801F0
F801E0
7801E0
7C03E0
7C03C0
3C03C0
3E07C0
1E0780
1E0780
1F0F80
0F0F00
0F0F00
0F0F00
079E00
079E00
079E00
03FC00
03FC00
03F800
01F800
01F800
ENDCHAR
STARTCHAR U+0077
ENCODING 119
SWIDTH 500 0
DWIDTH 33 0
BBX 31 22 1 0
BITMAP
F807C01E
F807C03E
7807C03C
7C07E03C
7C0FE03C
3C0EE07C
3C0EF078
3E0EF078
3E1EF078
1E1C70F8
1E1C78F0
1F1C78F0
1F3C78F0
0F3838F0
0F383DE0
0F383DE0
07F83DE0
07F01FE0
07F01FC0
07F01FC0
03F01FC0
03E00F80
ENDCHAR
STARTCHAR U+0078
ENCODING 120
SWIDTH 500 0
DWIDTH 21 0
BBX 19 22 1 0
BITMAP
F803E0
7C07C0
3E0780
3E0F80
1F0F00
0F1F00
0F9E00
07BC00
07FC00
03F800
01F800
03F800
07F800
07FC00
0F3E00
0F3E00
1E1F00
3E0F00
3C0F80
7C07C0
7807C0
F803E0
ENDCHAR
STARTCHAR U+0079
ENCODING 121
SWIDTH 500 0
DWIDTH 22 0
BBX 20 32 1 -10
BITMAP
F000F0
F801F0
F801E0
7801E0
7C03E0
3C03C0
3E03C0
3E07C0
1E0780
1F0780
0F0780
0F0F00
0F8F00
078F00
079E00
03DE00
03DE00
03DC00
01FC00
01FC00
01F800
00F800
00F800
00F000
00F000
01F000
01E000
07E000
7FC000
7F8000
7F0000
7C0000
ENDCHAR
STARTCHAR U+007A
ENCODING 122
SWIDTH 500 0
DWIDTH 20 0
BBX 17 22 1 0
BITMAP
3FFF80
3FFF80
3FFF80
3FFF00
001F00
003E00
007C00
007C00
00F800
01F000
01F000
03E000
07C000
07C000
0F8000
1F0000
1F0000
3E0000
7FFF80
7FFF80
FFFF80
FFFF80
ENDCHAR
STARTCHAR U+007B
ENCODING 123
SWIDTH 500 0
DWIDTH 14 0
BBX 11 39 2 -7
BITMAP
03E0
0FE0
0FC0
1E00
1E00
1E00
1E00
1E00
1E00
1E00
1E00
1E00
1E00
1E00
1E00
1E00
1E00
3C00
FC00
F000
FC00
3C00
1E00
1E00
1E00
1E00
1E00
1E00
1E00
1E00
1E00
1E00
1E00
1E00
1E00
1E00
0FC0
0FE0
03E0
ENDCHAR
STARTCHAR U+007C
ENCODING 124
SWIDTH 500 0
DWIDTH 11 0
BBX 3 45 4 -11
BITMAP
E0
E0
E0
E0
E0
E0
E0
E0
E0
E0
E0
E0
E0
E0
E0
E0
E0
E0
E0
E0
E0
E0
E0
E0
E0
E0
E0
E0
E0
E0
E0
E0
E0
E0
E0
E0
E0
E0
E0
E0
E0
E0
E0
E0
E0
ENDCHAR
STARTCHAR U+007D
ENCODING 125
SWIDTH 500 0
DWIDTH 14 0
BBX 11 39 2 -7
BITMAP
F800
FC00
FE00
1E00
1E00
1E00
0E00
1E00
1E00
1E00
1E00
1E00
1E00
1E00
1E00
1E00
0E00
0F80
07E0
03E0
07E0
0F00
0E00
1E00
1E00
1E00
1E00
1E00
1E00
1E00
1E00
1E00
0E00
1E00
1E00
1E00
FE00
FC00
F800
ENDCHAR
STARTCHAR U+007E
ENCODING 126
SWIDTH 500 0
DWIDTH 23 0
BBX 19 7 2 11
BITMAP
1F0000
7FC0C0
7FE1E0
F1FBE0
E0FFC0
003F80
001E00
ENDCHAR
STARTCHAR U+3002
ENCODING 12290
SWIDTH 500 0
DWIDTH 40 0
BBX 12 12 2 -3
BITMAP
1F80
7FC0
71E0
E060
C070
C070
C070
C070
E060
71E0
7FC0
1F80
ENDCHAR
STARTCHAR U+4E1A
ENCODING 19994
SWIDTH 500 0
DWIDTH 40 0
BBX 36 35 2 -2
BITMAP
001E078000
001E078000
001E078000
001E078000
001E078000
001E078000
001E078000
001E078000
081E078000
781E0781C0
3C1E0781E0
3C1E0783C0
3C1E0783C0
1E1E0783C0
1E1E078780
0F1E078780
0F1E078F00
0F1E078F00
079E079E00
079E079E00
079E07BC00
03DE07BC00
03DE07B800
031E079800
001E078000
001E078000
001E078000
001E078000
001E078000
001E078000
001E078000
FFFFFFFFF0
FFFFFFFFF0
FFFFFFFFF0
7FFFFFFFE0
ENDCHAR
STARTCHAR U+4F5C
ENCODING 20316
SWIDTH 500 0
DWIDTH 40 0
BBX 36 37 2 -4
BITMAP
00F01C0000
00F03C0000
00F03C0000
01E0780000
01E0780000
03C0780000
03C0FFFFF0
0780FFFFF0
0781FFFFF0
0F83FFFFF0
1F83C78000
1F87878000
3F87878000
7F8F078000
FF9F078000
FFBE07FFE0
F78C07FFE0
678007FFE0
4780078000
0780078000
0780078000
0780078000
0780078000
0780078000
078007FFF0
078007FFF0
078007FFF0
0780078000
0780078000
0780078000
0780078000
0780078000
0780078000
0780078000
0780078000
0780078000
0700070000
ENDCHAR
STARTCHAR U+4F9D
ENCODING 20381
SWIDTH 500 0
DWIDTH 40 0
BBX 36 38 2 -4
BITMAP
0000020000
00F00F0000
01E00F0000
01E0078000
01E0078000
03C0038000
03C0038000
0780030000
07BFFFFFF0
0F3FFFFFF0
1F3FFFFFF0
1F001F0000
3F003F0000
7F007F0000
7F007F8000
FF00F780C0
FF01F380E0
EF03E3C3F0
4F07C3C7E0
0F1FC1CF80
0F3FC1FF00
0F7FC1FE00
0FFFC0FC00
0F7BC0F800
0F63C07800
0F03C07800
0F03C03C00
0F03C03E00
0F03C01E00
0F03C01F00
0F03C08F80
0F03C787C0
0F03FF83E0
0F03FF81F0
0F07FC01F0
0F0FF00060
0F07800000
0F02000000
ENDCHAR
STARTCHAR U+5143
ENCODING 20803
SWIDTH 500 0
DWIDTH 40 0
BBX 36 34 2 -3
BITMAP
0FFFFFFF00
0FFFFFFF00
0FFFFFFF00
0FFFFFFF00
0000000000
0000000000
0000000000
0000000000
0000000000
0000000000
0000000000
7FFFFFFFE0
FFFFFFFFF0
FFFFFFFFF0
FFFFFFFFF0
003C078000
003C078000
003C078000
003C078000
0038078000
0078078000
0078078000
0078078000
00F8078000
00F0078060
01F0078070
01E0078070
03E0078070
07C0078070
0F800780F0
3F8007FFF0
FE0007FFE0
7C0003FFE0
700001FFC0
ENDCHAR
STARTCHAR U+5148
ENCODING 20808
SWIDTH 500 0
DWIDTH 40 0
BBX 36 38 2 -4
BITMAP
0000F00000
01C0F00000
01E0F00000
01E0F00000
01C0F00000
03C0F00000
03FFFFFF80
07FFFFFF80
07FFFFFF80
07FFFFFF00
0F00F00000
1F00F00000
1E00F00000
3E00F00000
1C00F00000
0000F00000
0000F00000
7FFFFFFFE0
7FFFFFFFF0
7FFFFFFFF0
7FFFFFFFF0
003C078000
003C078000
003C078000
003C078000
003C078000
0078078000
0078078000
00F8078040
00F0078070
01F00780F0
03E00780F0
0FC00780F0
1F8007FFE0
FF0007FFE0
7E0003FFE0
780001FFC0
2000000000
ENDCHAR
STARTCHAR U+5165
ENCODING 20837
SWIDTH 500 0
DWIDTH 40 0
BBX 36 35 2 -3
BITMAP
0018000000
003E000000
003F000000
001F000000
000F800000
0007C00000
0003E00000
0001F00000
0000F00000
0000F80000
0001F80000
0001FC0000
0001FC0000
0003FE0000
0003FF0000
0003CF0000
0007CF8000
0007878000
000F87C000
000F83C000
001F03E000
001F01F000
003E01F000
003E00F800
007C007C00
00F8007E00
01F0003E00
03F0001F00
07E0001F80
0FC0000FE0
3F800007F0
FF000003F0
FC000001F0
3800000060
1000000020
ENDCHAR
STARTCHAR U+516D
ENCODING 20845
SWIDTH 500 0
DWIDTH 40 0
BBX 36 36 2 -3
BITMAP
0001C00000
0003E00000
0001E00000
0001F00000
0000F00000
0000F80000
0000F80000
0000780000
0000700000
0000000000
FFFFFFFFF0
FFFFFFFFF0
FFFFFFFFF0
FFFFFFFFF0
0000000000
0000000000
0000000000
0000000000
003001C000
007C03C000
007C03E000
00F801F000
00F800F000
01F000F800
01F0007C00
03E0003C00
07C0003E00
07C0001F00
0F80001F00
1F80000F80
1F000007C0
3E000007C0
7E000003E0
FC000003E0
78000001E0
3000000080
ENDCHAR
STARTCHAR U+5199
ENCODING 20889
SWIDTH 500 0
DWIDTH 40 0
BBX 34 34 3 -3
BITMAP
FFFFFFFFC0
FFFFFFFFC0
FFFFFFFFC0
F0000003C0
F0700003C0
F0F00003C0
F0F00003C0
00F0000000
00FFFFF800
00FFFFF800
01FFFFF800
01E0000000
01E0000000
01E0000000
01C0000000
03C0000000
03FFFFFC00
03FFFFFC00
03FFFFFC00
0000003C00
0000003C00
0000003C00
0000003C00
7FFFFE3800
7FFFFE3800
7FFFFE7800
0000007800
0000007800
0000007800
000000F000
000000F000
0000FFF000
0000FFE000
0000FFC000
ENDCHAR
STARTCHAR U+5230
ENCODING 21040
SWIDTH 500 0
DWIDTH 40 0
BBX 34 36 3 -3
BITMAP
00000003C0
00000003C0
FFFFF003C0
FFFFF3C3C0
FFFFF3C3C0
078003C3C0
078603C3C0
0F0F03C3C0
0F0783C3C0
1E0783C3C0
1C03C3C3C0
3CFFE3C3C0
7FFFE3C3C0
7FFFF3C3C0
3FE073C3C0
000063C3C0
00F003C3C0
00F003C3C0
00F003C3C0
00F003C3C0
7FFFE3C3C0
7FFFE3C3C0
7FFFE3C3C0
00F003C3C0
00F003C3C0
00F003C3C0
00F003C3C0
00F00003C0
00F0F003C0
00FFF003C0
07FFF003C0
FFFFC003C0
FFF800FFC0
FF0000FF80
E000007F80
0000007E00
ENDCHAR
STARTCHAR U+5468
ENCODING 21608
SWIDTH 500 0
DWIDTH 40 0
BBX 33 36 2 -4
BITMAP
0FFFFFFF80
0FFFFFFF80
0FFFFFFF80
0F00000780
0E00700380
0E00F00380
0E00F00380
0E00F00380
0E3FFFE380
0E3FFFE380
0E3FFFE380
0E00F00380
0E00F00380
0E00F00380
0E7FFFF380
0E7FFFF380
0E7FFFF380
0E00000380
0E00000380
0E00000380
1E1FFFC380
1E1FFFC380
1E1FFFC380
1E1C01C380
1E1C01C380
1C1C01C380
3C1C01C380
3C1C01C380
3C1FFFC380
381FFFC380
781FFFC380
781C000380
F01C000780
F00000FF80
E00000FF80
600000FE00
ENDCHAR
STARTCHAR U+5929
ENCODING 22825
SWIDTH 500 0
DWIDTH 40 0
BBX 36 34 2 -3
BITMAP
3FFFFFFFC0
3FFFFFFFC0
3FFFFFFFC0
3FFFFFFFC0
0000F00000
0000F00000
0000F00000
0000F00000
0000F00000
0000F00000
0000F00000
0000E00000
7FFFFFFFE0
7FFFFFFFE0
7FFFFFFFE0
7FFFFFFFE0
0001F80000
0003F80000
0003FC0000
0003FC0000
0007DE0000
000F9E0000
000F8F0000
001F0F8000
003E07C000
007E03E000
00FC01F000
01F801F800
07F000FE00
0FE0007F80
3FC0001FE0
FF00000FF0
7C000003E0
78000000E0
ENDCHAR
STARTCHAR U+5B66
ENCODING 23398
SWIDTH 500 0
DWIDTH 40 0
BBX 35 38 3 -4
BITMAP
0001800000
0603C01E00
0F03E01E00
0F81E03C00
0780F03C00
03C0F07800
03C0E0F000
FFFFFFFFC0
FFFFFFFFC0
FFFFFFFFC0
F0000003C0
F0000003C0
F0000003C0
F0000003C0
F3FFFFE3C0
03FFFFF000
03FFFFE000
00000FC000
00001F8000
00007E0000
0001F80000
0001E00000
0001E00000
FFFFFFFFE0
FFFFFFFFE0
FFFFFFFFE0
0001E00000
0001E00000
0001E00000
0001E00000
0001E00000
0001E00000
0001E00000
0001E00000
00FFE00000
00FFC00000
007FC00000
0078000000
ENDCHAR
STARTCHAR U+5B9D
ENCODING 23453
SWIDTH 500 0
DWIDTH 40 0
BBX 34 36 3 -2
BITMAP
0001C00000
0003C00000
0001E00000
0001E00000
0000F00000
FFFFFFFFC0
FFFFFFFFC0
FFFFFFFFC0
FFFFFFFFC0
F0000003C0
F0000003C0
F0000003C0
F0000003C0
FFFFFFFFC0
0FFFFFFC00
0FFFFFFC00
0003E00000
0001E00000
0001E00000
0001E00000
0001E00000
0001E00000
0001E00000
07FFFFF800
07FFFFF800
07FFFFF800
0001E18000
0001E3C000
0001E3E000
0001E1F000
0001E0F800
0001E07C00
0001E03000
FFFFFFFFC0
FFFFFFFFC0
FFFFFFFFC0
ENDCHAR
STARTCHAR U+5C3D
ENCODING 23613
SWIDTH 500 0
DWIDTH 40 0
BBX 36 36 2 -4
BITMAP
07FFFFFF00
07FFFFFF00
07FFFFFF00
07FFFFFF00
0780000700
0780000700
0780000700
0780000700
0780000700
07FFFFFF00
07FFFFFF00
07FFFFFF00
07FFFFFF00
078001E000
078000F000
0F0000F000
0F0000F000
0F0F007800
0F0FE07C00
1E1FF83C00
1E03FE1E00
1E00FF1F00
3C001F0F80
7C000607C0
78000007E0
F8000003F0
F0000001F0
6078000060
20FF800000
00FFF00000
001FFE0000
0003FFC000
00007FF000
00000FE000
000001E000
0000004000
ENDCHAR
STARTCHAR U+5C71
ENCODING 23665
SWIDTH 500 0
DWIDTH 40 0
BBX 32 37 4 -4
BITMAP
0003C000
0003C000
0003C000
0003C000
0003C000
0003C000
0003C000
0003C000
F003C00F
F003C00F
F003C00F
F003C00F
F003C00F
F003C00F
F003C00F
F003C00F
F003C00F
F003C00F
F003C00F
F003C00F
F003C00F
F003C00F
F003C00F
F003C00F
F003C00F
F003C00F
F003C00F
F003C00F
F003C00F
F003C00F
FFFFFFFF
FFFFFFFF
FFFFFFFF
FFFFFFFF
0000000F
0000000F
0000000F
ENDCHAR
STARTCHAR U+6539
ENCODING 25913
SWIDTH 500 0
DWIDTH 40 0
BBX 36 38 2 -4
BITMAP
0000020000
0000078000
0000078000
7FFE078000
7FFE070000
7FFE0F0000
7FFE0F0000
000E0F0000
000E1FFFF0
000E1FFFF0
000E1FFFF0
000E3C03C0
000E3E0380
000E7E0780
3FFE7E0780
3FFEFE0780
3FFFFF0780
3FFFEF0F00
3800E70F00
3800478F00
3800079E00
380003DE00
380003DE00
380001FC00
380001FC00
380001F800
380000F800
380E00F800
387F01FC00
39FF03FC00
7FFC07FE00
7FF00F9F00
FF803F0FC0
7E007E07E0
7801FC03F0
6000F801F0
0000F00060
0000400000
ENDCHAR
STARTCHAR U+653E
ENCODING 25918
SWIDTH 500 0
DWIDTH 40 0
BBX 37 38 1 -4
BITMAP
0060018000
01E001E000
00E001C000
00F003C000
00F003C000
007003C000
006003C000
7FFFC7C000
7FFFC7FFF8
7FFFC7FFF8
07800FFFF8
07800F01C0
07800F01C0
07801F83C0
07801F83C0
07FFBF83C0
07FFBF8380
07FFFFC380
0787FBC780
0787B1C780
078791EF00
078781EF00
078780FF00
070780FE00
070780FE00
0707807C00
0F07807C00
0F07807C00
0F0700FE00
1E0701FF00
1E0703FF80
1E0707CFC0
3C0F0F87E0
7C0F3F03F0
F8FF7E01F8
70FE7C00F8
30FC380030
0000200000
ENDCHAR
STARTCHAR U+65E5
ENCODING 26085
SWIDTH 500 0
DWIDTH 40 0
BBX 26 34 7 -3
BITMAP
FFFFFFC0
FFFFFFC0
FFFFFFC0
FFFFFFC0
F00003C0
F00003C0
F00003C0
F00003C0
F00003C0
F00003C0
F00003C0
F00003C0
F00003C0
F00003C0
FFFFFFC0
FFFFFFC0
FFFFFFC0
FFFFFFC0
F00003C0
F00003C0
F00003C0
F00003C0
F00003C0
F00003C0
F00003C0
F00003C0
F00003C0
F00003C0
FFFFFFC0
FFFFFFC0
FFFFFFC0
FFFFFFC0
F00003C0
F00003C0
ENDCHAR
STARTCHAR U+65E6
ENCODING 26086
SWIDTH 500 0
DWIDTH 40 0
BBX 34 34 3 -2
BITMAP
07FFFFF800
07FFFFF800
07FFFFF800
07FFFFF800
0780007800
0780007800
0780007800
0780007800
0780007800
0780007800
0780007800
07FFFFF800
07FFFFF800
07FFFFF800
07FFFFF800
0780007800
0780007800
0780007800
0780007800
0780007800
0780007800
07FFFFF800
07FFFFF800
07FFFFF800
07FFFFF800
0000000000
0000000000
0000000000
0000000000
0000000000
FFFFFFFFC0
FFFFFFFFC0
FFFFFFFFC0
FFFFFFFFC0
ENDCHAR
STARTCHAR U+6709
ENCODING 26377
SWIDTH 500 0
DWIDTH 40 0
BBX 35 38 2 -4
BITMAP
0004000000
0007800000
0007800000
000F000000
000F000000
001F000000
7FFFFFFFE0
7FFFFFFFE0
7FFFFFFFE0
003C000000
0078000000
0078000000
00F0000000
01FFFFFE00
01FFFFFE00
03FFFFFE00
07F0001E00
0FF0001E00
1FF0001E00
3FF0001E00
7EFFFFFE00
FCFFFFFE00
F8FFFFFE00
60F0001E00
00F0001E00
00F0001E00
00F0001E00
00FFFFFE00
00FFFFFE00
00FFFFFE00
00F0001E00
00F0001E00
00F0001E00
00F0001E00
00F007FE00
00F003FE00
00F003FC00
00E0038000
ENDCHAR
STARTCHAR U+6CB3
ENCODING 27827
SWIDTH 500 0
DWIDTH 40 0
BBX 36 37 2 -4
BITMAP
1000000000
3C00000000
7F1FFFFFF0
1F9FFFFFF0
07FFFFFFF0
03DFFFFFF0
0080000380
0000000380
0000000380
0000000380
0000000380
4007FF8380
F007FF8380
FC07FF8380
7F07038380
3F07038380
0F07038380
0207038380
0007038380
0007038380
0007038380
0087038380
01C7FF8380
01C7FF8380
03C7FF8380
07C7000380
0787000380
0F87000380
0F00000380
1F00000380
1E00000380
3C00000380
7C00000780
780007FF80
780007FF80
300003FF00
000003FC00
ENDCHAR
STARTCHAR U+6D41
ENCODING 27969
SWIDTH 500 0
DWIDTH 40 0
BBX 36 36 2 -3
BITMAP
18000F0000
3C00078000
3F00078000
1F80078000
0FC007C000
03DFFFFFF0
019FFFFFF0
001FFFFFF0
00003C0000
0000781C00
0000F81E00
6001F00F00
7801E00780
FE07FFFFC0
7F1FFFFFC0
1F8FFFFFE0
070FFE00F0
02000000E0
0000000000
0003870E00
0003870E00
0083870E00
01C3870E00
01E3870E00
03C3870E00
03C3870E00
0783870E00
0F87870E00
0F07870E20
1F07070E30
1E0F070E30
3C1F070E30
7C1E070E30
787C070FF0
787C070FF0
10380007E0
ENDCHAR
STARTCHAR U+6D77
ENCODING 28023
SWIDTH 500 0
DWIDTH 40 0
BBX 36 37 2 -3
BITMAP
0000800000
1801E00000
1E01E00000
3F83C00000
0FC3C00000
07E7FFFFE0
01C7FFFFE0
0087FFFFE0
000F000000
001F000000
001E000000
003E000000
007FFFFFC0
603BFFFFC0
F803FFFFC0
FE03C603C0
3F038783C0
0F0383C3C0
060381C3C0
000780C3C0
003FFFFFF0
003FFFFFF0
023FFFFFF0
03878C0380
07870E0380
0787070380
0707038380
0F0703C380
0F0F018780
1E0FFFFFE0
1E0FFFFFE0
1C0FFFFFE0
3C00000700
3C00000F00
780001FF00
380001FE00
000001FC00
ENDCHAR
STARTCHAR U+7434
ENCODING 29748
SWIDTH 500 0
DWIDTH 40 0
BBX 36 36 2 -4
BITMAP
7FFF9FFFE0
7FFF9FFFE0
7FFF9FFFE0
01E0007800
01E0007800
3FFF0FFFC0
3FFF0FFFE0
3FFF0FFFE0
01E0007800
01E0007800
01E0007800
7FFF9FFFE0
7FFF9FFFF0
7FFFFFFFF0
0001F00000
0003FC0000
000FFF0000
003F1FC000
00FE07F000
03F8E1FE00
1FF1F0FFC0
FFC0F81FF0
FF007C07E0
78003800E0
07FFFFF800
07FFFFFC00
07FFFFF800
000000F800
000001F000
000003E000
000007C000
00000F8000
00000F0000
00001F0000
00003E0000
00000C0000
ENDCHAR
STARTCHAR U+767D
ENCODING 30333
SWIDTH 500 0
DWIDTH 40 0
BBX 28 38 6 -4
BITMAP
001C0000
001F0000
001E0000
003E0000
003C0000
003C0000
FFFFFFF0
FFFFFFF0
FFFFFFF0
FFFFFFF0
E0000070
E0000070
E0000070
E0000070
E0000070
E0000070
E0000070
E0000070
E0000070
FFFFFFF0
FFFFFFF0
FFFFFFF0
FFFFFFF0
E0000070
E0000070
E0000070
E0000070
E0000070
E0000070
E0000070
E0000070
FFFFFFF0
FFFFFFF0
FFFFFFF0
FFFFFFF0
E0000070
E0000070
E0000070
ENDCHAR
STARTCHAR U+8BFE
ENCODING 35838
SWIDTH 500 0
DWIDTH 40 0
BBX 36 37 2 -4
BITMAP
0800000000
1C03FFFFC0
3E03FFFFC0
1F03FFFFC0
0F8383C3C0
07C383C3C0
038383C3C0
0103FFFFC0
0003FFFFC0
0003FFFFC0
000383C3C0
000383C3C0
FF8383C3C0
FF8383C3C0
FF83FFFFC0
0783FFFFC0
0783FFFFC0
078003C000
078003C000
078003C000
078FFFFFF0
078FFFFFF0
078FFFFFF0
07800FF000
07801FF800
07901FF800
07B83FDC00
07F87BDE00
07F0F3CF00
07E1E3C780
0FC7C3C3E0
0F8FC3C1F0
1F1F03C0F0
1E1E03C060
0C0C03C020
000003C000
000003C000
ENDCHAR
STARTCHAR U+8D1D
ENCODING 36125
SWIDTH 500 0
DWIDTH 40 0
BBX 33 35 3 -3
BITMAP
0FFFFFFC00
0FFFFFFC00
0FFFFFFC00
0F00003C00
0F00003C00
0F00003C00
0F01E03C00
0F01E03C00
0F01E03C00
0F01E03C00
0F01E03C00
0F01E03C00
0F01E03C00
0F01E03C00
0F01E03C00
0F01E03C00
0F01E03C00
0F01E03C00
0F01E03C00
0F01E03C00
0F03C03C00
0F03C03C00
0F03C03C00
0F07803C00
000F800000
000F000000
001F1C0000
007E1F8000
00FC1FE000
01F807F000
07F001FC00
3FC0007F00
FF80003F80
FE00000F80
7800000300
ENDCHAR
STARTCHAR U+8FD8
ENCODING 36824
SWIDTH 500 0
DWIDTH 40 0
BBX 38 37 1 -4
BITMAP
0C00000000
1E00000000
1F0FFFFFF0
0F8FFFFFF0
07CFFFFFF0
03EFFFFFF0
03E001E000
01C003E000
008003C000
000007C000
0000078000
00000F8000
00001F8800
7F803F9C00
7F807FBE00
7F80FF9F00
7F81FB8F80
0383F387C0
0387E383E0
038FC381F0
03BF8381F8
039F0380F0
038C038060
0380038000
0380038000
0380038000
0380038000
0380038000
0380038000
0FC0038000
1FE0038000
3FF8000000
7C7F00003C
F83FFFFFF8
781FFFFFF8
7003FFFFF8
20003FFF00
ENDCHAR
STARTCHAR U+94A2
ENCODING 38050
SWIDTH 500 0
DWIDTH 40 0
BBX 35 38 2 -4
BITMAP
0400000000
0F00000000
0F01FFFFE0
1E01FFFFE0
1FF9FFFFE0
3FFDE000E0
3FFDE000E0
7FFDE01CE0
F801E01CE0
F001E41CE0
F001FC3CE0
E001FE38E0
5FF9EE38E0
1FF9EF38E0
1FF9E778E0
03C1E3F0E0
0381E3F0E0
0381E1F0E0
0381E1E0E0
0381E0E0E0
7FFDE1F0E0
7FFDE1F0E0
7FFDE3F0E0
03C1E3F8E0
0381E3B8E0
0381E73CE0
0381E71CE0
0381EF1CE0
0381EE1EE0
0381FE0CE0
039DFC00E0
03FDFC00E0
03FDE000E0
07F9E000E0
0FE1E01FE0
0781E01FE0
0601E00FC0
0001C00000
ENDCHAR
STARTCHAR U+9EC4
ENCODING 40644
SWIDTH 500 0
DWIDTH 40 0
BBX 36 38 2 -4
BITMAP
003801C000
003C03C000
003C03C000
003C03C000
1FFFFFFF80
1FFFFFFF80
1FFFFFFF80
003C03C000
003C03C000
003C03C000
FFFFFFFFF0
FFFFFFFFF0
FFFFFFFFF0
0000F00000
0000F00000
0000F00000
07FFFFFF00
0FFFFFFF00
0FFFFFFF00
0F00F00F00
0F00F00F00
0F00F00F00
0FFFFFFF00
0FFFFFFF00
0FFFFFFF00
0F00F00F00
0F00F00F00
0FFFFFFF00
0FFFFFFF00
0FFFFFFF00
0000010000
003C03E000
00FE03F800
07FC01FF00
3FF0003FC0
7FC0000FE0
3E000003C0
1000000080
ENDCHAR
STARTCHAR U+FF0C
ENCODING 65292
SWIDTH 500 0
DWIDTH 40 0
BBX 8 14 6 -5
BITMAP
1C
3E
7F
7F
7F
3F
07
07
0F
0E
3C
7C
F8
60
ENDCHAR
ENDFONT
