STARTFONT 2.1
FONT sans-r-40
SIZE 40 75 75
FONTBOUNDINGBOX 80 59 0 -12
STARTPROPERTIES 3
PIXEL_SIZE 40
FONT_ASCENT 47
FONT_DESCENT 12
ENDPROPERTIES
CHARS 127
STARTCHAR U+0020
ENCODING 32
SWIDTH 500 0
DWIDTH 9 0
BBX 0 0 0 0
BITMAP
ENDCHAR
STARTCHAR U+0021
ENCODING 33
SWIDTH 500 0
DWIDTH 13 0
BBX 5 30 4 -1
BITMAP
70
70
70
70
70
70
70
70
70
70
70
70
70
70
70
70
70
70
70
70
60
00
00
00
20
F0
F8
F8
F8
70
ENDCHAR
STARTCHAR U+0022
ENCODING 34
SWIDTH 500 0
DWIDTH 19 0
BBX 11 12 4 19
BITMAP
E1E0
E1E0
E0E0
E0E0
E0E0
E0E0
E0E0
E0E0
E0E0
E0E0
E0E0
4040
ENDCHAR
STARTCHAR U+0023
ENCODING 35
SWIDTH 500 0
DWIDTH 22 0
BBX 19 29 2 0
BITMAP
070300
070300
070300
060700
060700
060700
060600
060600
FFFFE0
FFFFE0
7FFFC0
0E0E00
0C0E00
0C0E00
0C0E00
0C0C00
0C0C00
FFFFC0
FFFFC0
FFFFC0
181C00
181C00
181C00
181800
181800
381800
381800
381800
303800
ENDCHAR
STARTCHAR U+0024
ENCODING 36
SWIDTH 500 0
DWIDTH 22 0
BBX 16 38 3 -5
BITMAP
01C0
01C0
01C0
01C0
01C0
0FF0
1FFC
3F7E
780F
7806
7000
7000
F000
7000
7800
7C00
3F00
1FC0
07E0
03F8
00FC
003E
001F
000F
0007
0007
0007
0007
400F
E00F
F83E
7FFC
3FF8
07E0
01C0
01C0
01C0
01C0
ENDCHAR
STARTCHAR U+0025
ENCODING 37
SWIDTH 500 0
DWIDTH 37 0
BBX 33 31 2 -1
BITMAP
0F80018000
3FC0038000
79E0030000
7070070000
E070060000
E0300E0000
E0380C0000
C0381C0000
C038180000
C038380000
C038300000
E038700000
E03860F800
E070E1FC00
E070C3DE00
70F1C70700
79E1870300
3FC38E0380
0F830E0380
00070E0380
00060E0380
000C0E0380
000C0E0380
00180E0380
00380E0380
00300E0380
0070070300
0060070700
00E003CE00
00C001FE00
01C000F800
ENDCHAR
STARTCHAR U+0026
ENCODING 38
SWIDTH 500 0
DWIDTH 27 0
BBX 25 31 1 -1
BITMAP
00F80000
01FE0000
03FF0000
07870000
07038000
07038000
0F038000
0F078000
0F070000
070F0000
071E0000
07BC0000
03F80000
03F00000
03E00380
0FE00780
1FE00700
3EF00700
3C780F00
783C0E00
701E1E00
701F1C00
F00FBC00
7007F800
7003F000
7801F800
7C03FC00
3E0FFF00
1FFF9F80
0FFE0780
03F80180
ENDCHAR
STARTCHAR U+0027
ENCODING 39
SWIDTH 500 0
DWIDTH 11 0
BBX 3 12 4 19
BITMAP
E0
E0
E0
E0
E0
E0
E0
E0
E0
E0
E0
40
ENDCHAR
STARTCHAR U+0028
ENCODING 40
SWIDTH 500 0
DWIDTH 14 0
BBX 8 40 4 -8
BITMAP
07
0E
0E
1C
1C
18
38
38
70
70
70
70
E0
E0
E0
E0
E0
E0
E0
E0
E0
E0
E0
E0
E0
E0
E0
70
70
70
70
38
38
38
1C
1C
0E
0E
07
06
ENDCHAR
STARTCHAR U+0029
ENCODING 41
SWIDTH 500 0
DWIDTH 14 0
BBX 8 40 2 -8
BITMAP
E0
E0
70
70
38
38
38
1C
1C
1C
0E
0E
0E
0E
0F
07
07
07
07
07
07
07
07
07
07
0E
0E
0E
0E
0E
1C
1C
1C
38
38
70
70
E0
E0
40
ENDCHAR
STARTCHAR U+002A
ENCODING 42
SWIDTH 500 0
DWIDTH 19 0
BBX 13 13 3 19
BITMAP
0600
0700
0700
0700
E778
FFF8
7FE0
0F80
1F80
1FC0
39C0
30E0
3040
ENDCHAR
STARTCHAR U+002B
ENCODING 43
SWIDTH 500 0
DWIDTH 22 0
BBX 19 20 2 5
BITMAP
00C000
00E000
00E000
00E000
00E000
00E000
00E000
00E000
00E000
FFFFE0
FFFFE0
FFFFC0
00E000
00E000
00E000
00E000
00E000
00E000
00E000
00E000
ENDCHAR
STARTCHAR U+002C
ENCODING 44
SWIDTH 500 0
DWIDTH 11 0
BBX 7 12 2 -7
BITMAP
38
7C
7E
7E
3E
0E
0C
1C
1C
38
F0
60
ENDCHAR
STARTCHAR U+002D
ENCODING 45
SWIDTH 500 0
DWIDTH 14 0
BBX 10 3 2 10
BITMAP
FFC0
FFC0
FFC0
ENDCHAR
STARTCHAR U+002E
ENCODING 46
SWIDTH 500 0
DWIDTH 11 0
BBX 5 6 3 -1
BITMAP
20
78
F8
F8
F8
70
ENDCHAR
STARTCHAR U+002F
ENCODING 47
SWIDTH 500 0
DWIDTH 16 0
BBX 14 39 1 -7
BITMAP
001C
001C
0018
0038
0038
0030
0070
0070
0060
0060
00E0
00E0
00C0
01C0
01C0
0180
0380
0380
0300
0700
0700
0600
0600
0E00
0E00
0C00
1C00
1C00
1800
3800
3800
3000
7000
7000
6000
6000
E000
E000
C000
ENDCHAR
STARTCHAR U+0030
ENCODING 48
SWIDTH 500 0
DWIDTH 22 0
BBX 18 31 2 -1
BITMAP
03F000
07FC00
1FFE00
1E1F00
3C0F00
380780
780780
700380
7003C0
F003C0
F003C0
F003C0
F001C0
F001C0
F001C0
F001C0
F001C0
F001C0
F001C0
F003C0
F003C0
F003C0
7003C0
700380
780780
380780
3C0F00
1E1E00
1FFE00
07FC00
03F000
ENDCHAR
STARTCHAR U+0031
ENCODING 49
SWIDTH 500 0
DWIDTH 22 0
BBX 16 29 4 0
BITMAP
03C0
1FC0
7FC0
7FC0
03C0
03C0
03C0
03C0
03C0
03C0
03C0
03C0
03C0
03C0
03C0
03C0
03C0
03C0
03C0
03C0
03C0
03C0
03C0
03C0
03C0
03C0
FFFF
FFFF
FFFF
ENDCHAR
STARTCHAR U+0032
ENCODING 50
SWIDTH 500 0
DWIDTH 22 0
BBX 18 30 2 0
BITMAP
07E000
1FF800
3FFE00
FC3E00
F00F00
600F00
000780
000780
000780
000780
000780
000700
000F00
000F00
000E00
001E00
003C00
003C00
007800
00F000
01E000
03E000
07C000
0F8000
1F0000
3E0000
7C0000
FFFFC0
FFFFC0
FFFFC0
ENDCHAR
STARTCHAR U+0033
ENCODING 51
SWIDTH 500 0
DWIDTH 22 0
BBX 19 31 1 -1
BITMAP
03F800
0FFE00
3FFF00
7E0F80
380780
1003C0
0003C0
0003C0
0003C0
0003C0
000780
000F80
001F00
03FC00
03F800
03FE00
003F00
000780
0003C0
0001C0
0001E0
0001E0
0001E0
0001E0
0001E0
6003C0
F007C0
7E0F80
3FFF00
1FFE00
03F800
ENDCHAR
STARTCHAR U+0034
ENCODING 52
SWIDTH 500 0
DWIDTH 22 0
BBX 20 29 1 0
BITMAP
000F00
001F00
003F00
003F00
007F00
00F700
00E700
01E700
03C700
038700
078700
0F0700
0E0700
1E0700
3C0700
380700
780700
700700
FFFFF0
FFFFF0
FFFFF0
000700
000700
000700
000700
000700
000700
000700
000700
ENDCHAR
STARTCHAR U+0035
ENCODING 53
SWIDTH 500 0
DWIDTH 22 0
BBX 18 30 2 -1
BITMAP
3FFF80
3FFF80
3FFF80
3C0000
380000
380000
380000
380000
380000
380000
39E000
3FFC00
3FFE00
3C1F00
100F80
000780
0003C0
0003C0
0003C0
0003C0
0003C0
0003C0
0003C0
000780
C00780
E00F80
F83F00
7FFE00
3FFC00
07E000
ENDCHAR
STARTCHAR U+0036
ENCODING 54
SWIDTH 500 0
DWIDTH 22 0
BBX 18 31 2 -1
BITMAP
00FC00
03FF00
07FF80
0F8780
1E0180
3C0000
3C0000
380000
780000
700000
700000
700000
F0F800
F3FE00
F7FF00
FE0F80
FC03C0
F803C0
F001C0
F001C0
7001C0
7001C0
7001C0
7801C0
3803C0
3C03C0
1C0780
1F0F80
0FFF00
07FE00
01F800
ENDCHAR
STARTCHAR U+0037
ENCODING 55
SWIDTH 500 0
DWIDTH 22 0
BBX 18 29 2 0
BITMAP
FFFFC0
FFFFC0
FFFFC0
000380
000780
000700
000E00
001E00
001C00
003C00
003800
007800
007000
007000
00F000
00E000
00E000
01E000
01E000
01E000
01C000
01C000
03C000
03C000
03C000
03C000
03C000
03C000
03C000
ENDCHAR
STARTCHAR U+0038
ENCODING 56
SWIDTH 500 0
DWIDTH 22 0
BBX 18 31 2 -1
BITMAP
03F000
0FFC00
1FFE00
1E0F00
3C0780
380380
780380
780380
780380
380380
3C0380
3C0700
1F0700
0FCE00
07FC00
0FFC00
1CFE00
381F00
700F80
700780
E003C0
E001C0
E001C0
E001C0
E001C0
F003C0
7803C0
7C0F80
3FFF00
0FFE00
03F800
ENDCHAR
STARTCHAR U+0039
ENCODING 57
SWIDTH 500 0
DWIDTH 22 0
BBX 18 31 2 -1
BITMAP
03E000
0FF800
3FFC00
3C1E00
780F00
700700
F00780
E00380
E00380
E003C0
E003C0
E003C0
F003C0
F003C0
7807C0
7C1FC0
3FFDC0
1FF3C0
07C3C0
0003C0
000380
000380
000780
000780
000700
000F00
201E00
787C00
7FFC00
3FF000
0FC000
ENDCHAR
STARTCHAR U+003A
ENCODING 58
SWIDTH 500 0
DWIDTH 11 0
BBX 5 22 3 -1
BITMAP
20
78
F8
F8
F8
70
00
00
00
00
00
00
00
00
00
00
20
78
F8
F8
F8
70
ENDCHAR
STARTCHAR U+003B
ENCODING 59
SWIDTH 500 0
DWIDTH 11 0
BBX 7 28 2 -7
BITMAP
38
7C
7C
7C
7C
10
00
00
00
00
00
00
00
00
00
00
38
7C
7E
7E
3E
0E
0C
1C
1C
38
F0
60
ENDCHAR
STARTCHAR U+003C
ENCODING 60
SWIDTH 500 0
DWIDTH 22 0
BBX 19 18 2 6
BITMAP
000060
0001E0
000FE0
003FC0
01FE00
07F000
3FC000
FE0000
F00000
F00000
FE0000
3FC000
07F000
01FE00
003FC0
000FE0
0001E0
000060
ENDCHAR
STARTCHAR U+003D
ENCODING 61
SWIDTH 500 0
DWIDTH 22 0
BBX 19 13 2 8
BITMAP
FFFFE0
FFFFE0
FFFFC0
000000
000000
000000
000000
000000
000000
000000
FFFFE0
FFFFE0
FFFFC0
ENDCHAR
STARTCHAR U+003E
ENCODING 62
SWIDTH 500 0
DWIDTH 22 0
BBX 19 18 2 6
BITMAP
800000
E00000
FC0000
FF0000
1FE000
03F800
00FF00
001FC0
0003E0
0003E0
001FC0
00FF00
03FC00
1FE000
FF0000
FC0000
E00000
800000
ENDCHAR
STARTCHAR U+003F
ENCODING 63
SWIDTH 500 0
DWIDTH 19 0
BBX 15 31 2 -1
BITMAP
0FC0
3FF0
7FF8
F87C
603C
001E
001E
001E
001E
001C
003C
0038
0078
00F0
01E0
01C0
03C0
0380
0780
0700
0700
0700
0000
0000
0000
0200
0780
0F80
0F80
0780
0700
ENDCHAR
STARTCHAR U+0040
ENCODING 64
SWIDTH 500 0
DWIDTH 38 0
BBX 34 36 2 -7
BITMAP
0001FE0000
000FFFC000
003FDFE000
00F800F800
01E0003C00
03C0001E00
0780000E00
0F00000700
0E00000700
1C00000380
3801F30380
3807FB0380
300FFF0180
701E0F0180
701C0E0180
70380E01C0
60380E0180
E0300E0180
E0700E0180
E0700C0380
E0700C0380
E0701C0700
E0783C0700
603C7E0E00
703FEFFC00
701FC7F800
700003E000
3800000000
3800000000
1C00000000
0E00000000
0F80000000
03E0070000
01FE7F0000
007FFE0000
000FF00000
ENDCHAR
STARTCHAR U+0041
ENCODING 65
SWIDTH 500 0
DWIDTH 24 0
BBX 24 29 0 0
BITMAP
003C00
003E00
007E00
007E00
007700
00E700
00E700
01E380
01C380
01C380
03C3C0
0381C0
0381C0
0781E0
0700E0
0700F0
0F00F0
0FFFF0
0FFFF8
1FFFF8
1E0038
1C003C
3C003C
3C001C
38001E
78001E
78001E
70000F
F0000F
ENDCHAR
STARTCHAR U+0042
ENCODING 66
SWIDTH 500 0
DWIDTH 26 0
BBX 20 29 4 0
BITMAP
FFF800
FFFF00
FFFF80
F00FC0
F003C0
F001E0
F001E0
F001E0
F001E0
F001C0
F003C0
F00F80
FFFF00
FFFE00
FFFF80
F007E0
F001E0
F000F0
F000F0
F00070
F00070
F00070
F000F0
F000F0
F001E0
F007E0
FFFFC0
FFFF00
FFFC00
ENDCHAR
STARTCHAR U+0043
ENCODING 67
SWIDTH 500 0
DWIDTH 26 0
BBX 22 31 2 -1
BITMAP
003F00
01FFE0
03FFF0
07E1F8
0F8078
1F0010
3E0000
3C0000
380000
780000
780000
780000
700000
F00000
F00000
F00000
F00000
F00000
700000
780000
780000
780000
780000
3C0000
3E0000
1F0018
0F803C
07E1F8
03FFF0
01FFE0
003F00
ENDCHAR
STARTCHAR U+0044
ENCODING 68
SWIDTH 500 0
DWIDTH 27 0
BBX 21 29 4 0
BITMAP
FFE000
FFFC00
FFFF00
F03F80
F007C0
F003E0
F001E0
F000F0
F000F0
F00078
F00078
F00078
F00078
F00078
F00078
F00078
F00078
F00078
F00078
F00078
F000F0
F000F0
F001E0
F003E0
F007C0
F03F80
FFFF00
FFFC00
FFF000
ENDCHAR
STARTCHAR U+0045
ENCODING 69
SWIDTH 500 0
DWIDTH 24 0
BBX 17 29 4 0
BITMAP
FFFF80
FFFF80
FFFF80
F00000
F00000
F00000
F00000
F00000
F00000
F00000
F00000
F00000
FFFE00
FFFE00
FFFE00
F00000
F00000
F00000
F00000
F00000
F00000
F00000
F00000
F00000
F00000
F00000
FFFF80
FFFF80
FFFF80
ENDCHAR
STARTCHAR U+0046
ENCODING 70
SWIDTH 500 0
DWIDTH 22 0
BBX 17 29 4 0
BITMAP
FFFF80
FFFF80
FFFF80
F00000
F00000
F00000
F00000
F00000
F00000
F00000
F00000
F00000
F00000
FFFE00
FFFE00
FFFE00
F00000
F00000
F00000
F00000
F00000
F00000
F00000
F00000
F00000
F00000
F00000
F00000
F00000
ENDCHAR
STARTCHAR U+0047
ENCODING 71
SWIDTH 500 0
DWIDTH 28 0
BBX 23 31 2 -1
BITMAP
003F80
00FFE0
03FFF8
07F0FC
0F803C
1F0018
3E0000
3C0000
3C0000
780000
780000
780000
700000
F00000
F00000
F007FE
F007FE
F007FE
70001E
78001E
78001E
78001E
78001E
3C001E
3E001E
1F001E
0F803E
07F0FC
03FFFC
01FFF0
003F80
ENDCHAR
STARTCHAR U+0048
ENCODING 72
SWIDTH 500 0
DWIDTH 29 0
BBX 21 29 4 0
BITMAP
F00078
F00078
F00078
F00078
F00078
F00078
F00078
F00078
F00078
F00078
F00078
F00078
FFFFF8
FFFFF8
FFFFF8
F00078
F00078
F00078
F00078
F00078
F00078
F00078
F00078
F00078
F00078
F00078
F00078
F00078
F00078
ENDCHAR
STARTCHAR U+0049
ENCODING 73
SWIDTH 500 0
DWIDTH 12 0
BBX 4 29 4 0
BITMAP
F0
F0
F0
F0
F0
F0
F0
F0
F0
F0
F0
F0
F0
F0
F0
F0
F0
F0
F0
F0
F0
F0
F0
F0
F0
F0
F0
F0
F0
ENDCHAR
STARTCHAR U+004A
ENCODING 74
SWIDTH 500 0
DWIDTH 21 0
BBX 16 30 2 -1
BITMAP
000F
000F
000F
000F
000F
000F
000F
000F
000F
000F
000F
000F
000F
000F
000F
000F
000F
000F
000F
000F
000F
000E
000E
001E
601E
F03E
F87C
7FF8
3FF0
0FC0
ENDCHAR
STARTCHAR U+004B
ENCODING 75
SWIDTH 500 0
DWIDTH 26 0
BBX 21 29 4 0
BITMAP
F000F0
F001E0
F003C0
F00780
F00F80
F01F00
F01E00
F03C00
F07800
F0F000
F1F000
F3E000
F3F000
F7F000
FF7800
FE3C00
FE3C00
FC1E00
F81E00
F00F00
F00780
F00780
F003C0
F003C0
F001E0
F000F0
F000F0
F00078
F00078
ENDCHAR
STARTCHAR U+004C
ENCODING 76
SWIDTH 500 0
DWIDTH 22 0
BBX 17 29 4 0
BITMAP
F00000
F00000
F00000
F00000
F00000
F00000
F00000
F00000
F00000
F00000
F00000
F00000
F00000
F00000
F00000
F00000
F00000
F00000
F00000
F00000
F00000
F00000
F00000
F00000
F00000
F00000
FFFF80
FFFF80
FFFF80
ENDCHAR
STARTCHAR U+004D
ENCODING 77
SWIDTH 500 0
DWIDTH 32 0
BBX 24 29 4 0
BITMAP
F8000F
F8001F
F8001F
FC001F
FC003F
FC003F
EE003F
EE0077
EF0077
E70077
E700E7
E380E7
E381C7
E381C7
E1C1C7
E1C387
E1C387
E0E387
E0E707
E07707
E07607
E07E07
E03E07
E03C07
E03C07
E01C07
E00007
E00007
E00007
ENDCHAR
STARTCHAR U+004E
ENCODING 78
SWIDTH 500 0
DWIDTH 29 0
BBX 21 29 4 0
BITMAP
F00078
F80078
F80078
FC0078
FC0078
FE0078
EF0078
E70078
E78078
E38078
E3C078
E1E078
E1E078
F0F078
F07078
F07878
F03878
F03C78
F01E38
F00E38
F00F38
F00738
F007B8
F003B8
F003F8
F001F8
F000F8
F000F8
F00078
ENDCHAR
STARTCHAR U+004F
ENCODING 79
SWIDTH 500 0
DWIDTH 30 0
BBX 25 31 2 -1
BITMAP
007F0000
01FFE000
07FFF000
0FE1F800
0F807C00
1E003E00
3E001E00
3C000F00
78000F00
78000780
78000780
78000780
70000780
F0000780
F0000780
F0000380
F0000780
F0000780
70000780
78000780
78000780
78000780
78000F00
3C000F00
3E001E00
1E003E00
0F807C00
0FE1F800
03FFF000
01FFE000
007F0000
ENDCHAR
STARTCHAR U+0050
ENCODING 80
SWIDTH 500 0
DWIDTH 25 0
BBX 19 29 4 0
BITMAP
FFF800
FFFF00
FFFF80
F00FC0
F003C0
F001E0
F001E0
F000E0
F000E0
F000E0
F001E0
F001E0
F001E0
F003C0
F00FC0
FFFF80
FFFE00
FFF800
F00000
F00000
F00000
F00000
F00000
F00000
F00000
F00000
F00000
F00000
F00000
ENDCHAR
STARTCHAR U+0051
ENCODING 81
SWIDTH 500 0
DWIDTH 30 0
BBX 26 38 2 -8
BITMAP
007F0000
01FFE000
03FFF000
0FE1F800
0F807C00
1E003E00
3E001E00
3C000F00
78000F00
78000780
78000780
78000780
70000780
F0000780
F0000780
F0000380
F0000780
F0000780
70000780
70000780
78000780
78000780
78000F00
3C000F00
3C001E00
1E003E00
1F007C00
0FC0F800
07FFF000
01FFE000
007F8000
001E0000
000F0000
000F8000
0007E000
0003FFC0
0000FFC0
00003F80
ENDCHAR
STARTCHAR U+0052
ENCODING 82
SWIDTH 500 0
DWIDTH 25 0
BBX 20 29 4 0
BITMAP
FFF800
FFFF00
FFFF80
F00FC0
F003E0
F001E0
F001E0
F000E0
F000E0
F000E0
F001E0
F001E0
F003C0
F00FC0
FFFF80
FFFF00
FFF800
F07800
F03C00
F03E00
F01E00
F00F00
F00F00
F00780
F007C0
F003C0
F001E0
F001E0
F000F0
ENDCHAR
STARTCHAR U+0053
ENCODING 83
SWIDTH 500 0
DWIDTH 24 0
BBX 20 31 2 -1
BITMAP
01FC00
07FF00
0FFFC0
1F87E0
3E01C0
3C00C0
780000
780000
780000
7C0000
3C0000
3F0000
1F8000
0FF000
07FC00
01FF00
007F80
001FC0
0007E0
0001F0
0000F0
0000F0
0000F0
0000F0
2000F0
7001F0
F803E0
7F0FC0
3FFF80
0FFF00
01FC00
ENDCHAR
STARTCHAR U+0054
ENCODING 84
SWIDTH 500 0
DWIDTH 24 0
BBX 22 29 1 0
BITMAP
FFFFFC
FFFFFC
FFFFFC
007800
007800
007800
007800
007800
007800
007800
007800
007800
007800
007800
007800
007800
007800
007800
007800
007800
007800
007800
007800
007800
007800
007800
007800
007800
007800
ENDCHAR
STARTCHAR U+0055
ENCODING 85
SWIDTH 500 0
DWIDTH 29 0
BBX 21 30 4 -1
BITMAP
F00078
F00078
F00078
F00078
F00078
F00078
F00078
F00078
F00078
F00078
F00078
F00078
F00078
F00078
F00078
F00078
F00078
F00078
F00078
F00078
F00078
F00078
700070
7800F0
7800F0
3C01E0
3F8FC0
1FFFC0
07FF00
01FC00
ENDCHAR
STARTCHAR U+0056
ENCODING 86
SWIDTH 500 0
DWIDTH 23 0
BBX 23 29 0 0
BITMAP
F0001E
70001C
78003C
78003C
78003C
3C0038
3C0078
3C0078
1C0070
1E00F0
1E00F0
0E00E0
0F01E0
0F01E0
0701C0
0781C0
0783C0
038380
038380
03C780
01C700
01C700
01EF00
00EE00
00EE00
00FE00
007C00
007C00
007C00
ENDCHAR
STARTCHAR U+0057
ENCODING 87
SWIDTH 500 0
DWIDTH 35 0
BBX 33 29 1 0
BITMAP
F001C00780
F001E00780
7003E00780
7803E00700
7803F00700
7803F00F00
7807700F00
3807700E00
3807780E00
3C06380E00
3C0E381E00
3C0E381E00
1C0E3C1C00
1C1C1C1C00
1E1C1C1C00
1E1C1C3C00
0E1C1E3C00
0E180E3800
0E380E3800
0F380E3800
0F380E3800
0730077800
0770077000
0770077000
07F007F000
07E003F000
03E003E000
03E003E000
03E003E000
ENDCHAR
STARTCHAR U+0058
ENCODING 88
SWIDTH 500 0
DWIDTH 23 0
BBX 21 29 1 0
BITMAP
780070
7800F0
3C01E0
3C01E0
1E03C0
1E03C0
0F0780
070700
078F00
038E00
03DE00
01FC00
01FC00
00F800
00F800
01F800
01FC00
03DE00
039E00
078F00
070F00
0F0780
1E0380
1E03C0
3C01E0
3801E0
7800F0
7000F0
F00078
ENDCHAR
STARTCHAR U+0059
ENCODING 89
SWIDTH 500 0
DWIDTH 21 0
BBX 21 29 0 0
BITMAP
F00078
780078
7800F0
3C00F0
3C01E0
1C01E0
1E03C0
0E03C0
0F0380
070780
078700
038F00
03CE00
01DE00
01FC00
00FC00
00F800
007800
007000
007000
007000
007000
007000
007000
007000
007000
007000
007000
007000
ENDCHAR
STARTCHAR U+005A
ENCODING 90
SWIDTH 500 0
DWIDTH 24 0
BBX 20 29 2 0
BITMAP
7FFFF0
7FFFF0
7FFFF0
0001E0
0001E0
0003C0
000780
000780
000F00
001E00
001E00
003C00
007800
007800
00F000
01E000
01E000
03C000
078000
078000
0F0000
1E0000
1E0000
3C0000
780000
780000
FFFFF0
FFFFF0
FFFFF0
ENDCHAR
STARTCHAR U+005B
ENCODING 91
SWIDTH 500 0
DWIDTH 14 0
BBX 8 39 4 -7
BITMAP
FF
FF
E0
E0
E0
E0
E0
E0
E0
E0
E0
E0
E0
E0
E0
E0
E0
E0
E0
E0
E0
E0
E0
E0
E0
E0
E0
E0
E0
E0
E0
E0
E0
E0
E0
E0
E0
FF
FF
ENDCHAR
STARTCHAR U+005C
ENCODING 92
SWIDTH 500 0
DWIDTH 16 0
BBX 14 39 1 -7
BITMAP
C000
E000
E000
6000
7000
7000
3000
3800
3800
3800
1800
1C00
1C00
0C00
0E00
0E00
0600
0700
0700
0300
0380
0380
0180
0180
01C0
01C0
00C0
00E0
00E0
0060
0070
0070
0030
0030
0038
0018
0018
001C
001C
ENDCHAR
STARTCHAR U+005D
ENCODING 93
SWIDTH 500 0
DWIDTH 14 0
BBX 8 39 1 -7
BITMAP
FF
FF
03
03
03
03
03
03
03
03
03
03
03
03
03
03
03
03
03
03
03
03
03
03
03
03
03
03
03
03
03
03
03
03
03
03
03
FF
FF
ENDCHAR
STARTCHAR U+005E
ENCODING 94
SWIDTH 500 0
DWIDTH 22 0
BBX 16 17 3 13
BITMAP
03C0
03C0
07E0
07E0
0760
0E70
0E70
0C38
1C38
1C38
381C
381C
380E
700E
700E
F007
E007
ENDCHAR
STARTCHAR U+005F
ENCODING 95
SWIDTH 500 0
DWIDTH 22 0
BBX 21 2 1 -5
BITMAP
FFFFF8
FFFFF8
ENDCHAR
STARTCHAR U+0060
ENCODING 96
SWIDTH 500 0
DWIDTH 24 0
BBX 8 9 6 26
BITMAP
20
70
F0
78
3C
1E
0F
07
03
ENDCHAR
STARTCHAR U+0061
ENCODING 97
SWIDTH 500 0
DWIDTH 23 0
BBX 17 24 2 -1
BITMAP
03F800
0FFE00
3FFE00
3E1F00
300F00
000780
000780
000380
000380
007F80
03FF80
0FFF80
3F8380
7C0380
780380
700380
F00380
F00380
700780
700F80
783F80
3FFB80
3FF380
0F8000
ENDCHAR
STARTCHAR U+0062
ENCODING 98
SWIDTH 500 0
DWIDTH 25 0
BBX 19 34 4 -1
BITMAP
E00000
E00000
E00000
E00000
E00000
E00000
E00000
E00000
E00000
E00000
E0F800
E7FE00
EFFF00
FE1F80
F80780
F003C0
E003C0
E003C0
E001C0
E001E0
E001E0
E001E0
E001E0
E001E0
E001C0
E003C0
E003C0
E003C0
E00780
F80F80
FC1F00
FFFE00
E7FC00
01F000
ENDCHAR
STARTCHAR U+0063
ENCODING 99
SWIDTH 500 0
DWIDTH 20 0
BBX 17 24 2 -1
BITMAP
00F800
07FE00
0FFF80
1F0700
3E0200
3C0000
780000
780000
F00000
F00000
F00000
F00000
F00000
F00000
F00000
F00000
780000
780000
7C0000
3E0300
1F0780
0FFF80
07FF00
01F800
ENDCHAR
STARTCHAR U+0064
ENCODING 100
SWIDTH 500 0
DWIDTH 25 0
BBX 19 34 2 -1
BITMAP
0000E0
0001E0
0001E0
0001E0
0001E0
0001E0
0001E0
0001E0
0001E0
0001E0
01F0E0
07FCE0
0FFFE0
1F0FE0
3E03E0
7C01E0
7801E0
7801E0
F001E0
F001E0
F001E0
F001E0
F001E0
F001E0
F001E0
F001E0
7001E0
7801E0
7801E0
3C03E0
3F0FE0
1FFEE0
0FFCE0
03F000
ENDCHAR
STARTCHAR U+0065
ENCODING 101
SWIDTH 500 0
DWIDTH 22 0
BBX 18 24 2 -1
BITMAP
01F800
07FE00
0FFF00
1F0F80
3C0780
3803C0
7801C0
7001C0
F001C0
F001C0
FFFFC0
FFFFC0
FFFFC0
F00000
F00000
F00000
700000
780000
7C0000
3C0000
1F0380
0FFF80
07FF00
01FC00
ENDCHAR
STARTCHAR U+0066
ENCODING 102
SWIDTH 500 0
DWIDTH 13 0
BBX 13 33 1 0
BITMAP
01F0
03F8
07F8
0F00
0F00
0E00
1E00
1E00
1E00
1E00
1E00
FFF0
FFF0
FFE0
1E00
1E00
1E00
1E00
1E00
1E00
1E00
1E00
1E00
1E00
1E00
1E00
1E00
1E00
1E00
1E00
1E00
1E00
1E00
ENDCHAR
STARTCHAR U+0067
ENCODING 103
SWIDTH 500 0
DWIDTH 23 0
BBX 20 33 2 -10
BITMAP
03E000
0FFFF0
1FFFF0
3E1FE0
3C0F00
780700
780780
700780
700380
780780
780780
780700
3C0F00
1E1E00
1FFC00
1FF800
380000
380000
700000
780000
3C0000
1FFF00
1FFFC0
3BFFE0
7001F0
E000F0
E000F0
E000F0
F001E0
7803C0
7FBF80
1FFF00
07F800
ENDCHAR
STARTCHAR U+0068
ENCODING 104
SWIDTH 500 0
DWIDTH 24 0
BBX 17 33 4 0
BITMAP
E00000
E00000
E00000
E00000
E00000
E00000
E00000
E00000
E00000
E00000
E0F800
E3FE00
EFFF00
FF1F00
FC0F00
F80780
F00780
E00780
E00780
E00780
E00780
E00780
E00780
E00780
E00780
E00780
E00780
E00780
E00780
E00780
E00780
E00780
E00780
ENDCHAR
STARTCHAR U+0069
ENCODING 105
SWIDTH 500 0
DWIDTH 11 0
BBX 5 31 3 0
BITMAP
70
F8
F8
F8
70
00
00
00
00
70
70
70
70
70
70
70
70
70
70
70
70
70
70
70
70
70
70
70
70
70
70
ENDCHAR
STARTCHAR U+006A
ENCODING 106
SWIDTH 500 0
DWIDTH 11 0
BBX 10 41 -2 -10
BITMAP
0380
07C0
07C0
07C0
0380
0000
0000
0000
0000
0380
0380
0380
0380
0380
0380
0380
0380
0380
0380
0380
0380
0380
0380
0380
0380
0380
0380
0380
0380
0380
0380
0380
0380
0380
0380
0380
0780
0780
7F00
FE00
7C00
ENDCHAR
STARTCHAR U+006B
ENCODING 107
SWIDTH 500 0
DWIDTH 22 0
BBX 17 32 4 0
BITMAP
E00000
E00000
E00000
E00000
E00000
E00000
E00000
E00000
E00000
E00000
E00F00
E01E00
E01E00
E03C00
E07800
E0F000
E1E000
E1E000
E3C000
E7C000
EFC000
FFE000
FCF000
FC7000
F87800
F03C00
E03C00
E01E00
E00E00
E00F00
E00780
E00780
ENDCHAR
STARTCHAR U+006C
ENCODING 108
SWIDTH 500 0
DWIDTH 11 0
BBX 5 32 4 -1
BITMAP
E0
E0
E0
E0
E0
E0
E0
E0
E0
E0
E0
E0
E0
E0
E0
E0
E0
E0
E0
E0
E0
E0
E0
E0
E0
E0
E0
E0
F0
F8
F8
38
ENDCHAR
STARTCHAR U+006D
ENCODING 109
SWIDTH 500 0
DWIDTH 37 0
BBX 30 23 4 0
BITMAP
00F007C0
E3FC1FE0
EFFE3FF0
FE3F79F8
FC0FE078
F00FC078
F0078038
E007003C
E007003C
E007003C
E007003C
E007003C
E007003C
E007003C
E007003C
E007003C
E007003C
E007003C
E007003C
E007003C
E007003C
E007003C
E007003C
ENDCHAR
STARTCHAR U+006E
ENCODING 110
SWIDTH 500 0
DWIDTH 24 0
BBX 17 23 4 0
BITMAP
00F800
E3FE00
EFFF00
FF1F00
FC0F00
F80780
F00780
E00780
E00780
E00780
E00780
E00780
E00780
E00780
E00780
E00780
E00780
E00780
E00780
E00780
E00780
E00780
E00780
ENDCHAR
STARTCHAR U+006F
ENCODING 111
SWIDTH 500 0
DWIDTH 24 0
BBX 20 24 2 -1
BITMAP
01F800
07FE00
0FFF00
1F0F80
3E03C0
3C01E0
7801E0
7800F0
F000F0
F000F0
F000F0
F000F0
F000F0
F000F0
F000F0
F000F0
7800F0
7801E0
7C01E0
3C03C0
1F0F80
0FFF00
07FE00
01F800
ENDCHAR
STARTCHAR U+0070
ENCODING 112
SWIDTH 500 0
DWIDTH 25 0
BBX 19 32 4 -9
BITMAP
00F800
E7FE00
EFFF00
FE1F80
F80780
F003C0
E003C0
E003C0
E001C0
E001E0
E001E0
E001E0
E001E0
E001E0
E001C0
E003C0
E003C0
E003C0
E00780
F80F80
FC1F00
FFFE00
E7FC00
E1F000
E00000
E00000
E00000
E00000
E00000
E00000
E00000
E00000
ENDCHAR
STARTCHAR U+0071
ENCODING 113
SWIDTH 500 0
DWIDTH 25 0
BBX 19 32 2 -9
BITMAP
01F000
07FCE0
0FFFE0
1F0FE0
3E03E0
3C01E0
7801E0
7801E0
7001E0
F001E0
F001E0
F001E0
F001E0
F001E0
F001E0
F001E0
7001E0
7801E0
7801E0
3C03E0
3F0FE0
1FFFE0
0FFCE0
03F0E0
0001E0
0001E0
0001E0
0001E0
0001E0
0001E0
0001E0
0001E0
ENDCHAR
STARTCHAR U+0072
ENCODING 114
SWIDTH 500 0
DWIDTH 16 0
BBX 11 23 4 0
BITMAP
01E0
E3E0
E7E0
EF20
FC00
F800
F000
F000
E000
E000
E000
E000
E000
E000
E000
E000
E000
E000
E000
E000
E000
E000
E000
ENDCHAR
STARTCHAR U+0073
ENCODING 115
SWIDTH 500 0
DWIDTH 19 0
BBX 15 24 2 -1
BITMAP
07E0
1FF8
3FFC
7C1C
7808
7000
F000
7000
7800
7E00
3F80
0FE0
07F8
00FC
003E
001E
001E
000E
000E
C01E
F03C
FFFC
3FF0
0FE0
ENDCHAR
STARTCHAR U+0074
ENCODING 116
SWIDTH 500 0
DWIDTH 15 0
BBX 13 29 1 -1
BITMAP
0E00
0E00
0E00
0E00
0E00
0E00
FFF8
FFF8
FFF8
1E00
1E00
1E00
1E00
1E00
1E00
1E00
1E00
1E00
1E00
1E00
1E00
1E00
1E00
0E00
0F00
0F00
0FF8
07F8
01F0
ENDCHAR
STARTCHAR U+0075
ENCODING 117
SWIDTH 500 0
DWIDTH 24 0
BBX 18 23 3 -1
BITMAP
F003C0
F003C0
F003C0
F003C0
F003C0
F003C0
F003C0
F003C0
F003C0
F003C0
F003C0
F003C0
F003C0
F003C0
F003C0
F003C0
7003C0
7807C0
780FC0
7C3FC0
3FFBC0
1FF1C0
0FC000
ENDCHAR
STARTCHAR U+0076
ENCODING 118
SWIDTH 500 0
DWIDTH 21 0
BBX 19 22 1 0
BITMAP
E000E0
F001E0
F001C0
7001C0
7803C0
780380
380380
3C0780
1C0700
1C0700
1E0F00
0E0E00
0E0E00
0F1E00
071C00
071C00
07BC00
03B800
03F800
03F000
01F000
01F000
ENDCHAR
STARTCHAR U+0077
ENCODING 119
SWIDTH 500 0
DWIDTH 32 0
BBX 30 22 1 0
BITMAP
F007803C
F007803C
7007C038
780FC038
780FC078
380EC078
380CE070
3C1CE070
3C1CE0F0
1C1CE0E0
1C1870E0
1E3870E0
0E3871E0
0E3871C0
0E3039C0
0F7039C0
077039C0
07701B80
07E01F80
07E01F80
03E01F80
03E00F00
ENDCHAR
STARTCHAR U+0078
ENCODING 120
SWIDTH 500 0
DWIDTH 20 0
BBX 18 22 1 0
BITMAP
F00380
780780
3C0700
3C0F00
1E1E00
0E1C00
0F3C00
07B800
07F800
03F000
01E000
03F000
03F000
077800
0F3800
0E3C00
1E1E00
3C0E00
380F00
780780
700780
F003C0
ENDCHAR
STARTCHAR U+0079
ENCODING 121
SWIDTH 500 0
DWIDTH 21 0
BBX 19 31 1 -9
BITMAP
E000E0
F001E0
7001C0
7801C0
7803C0
380380
3C0380
1C0780
1C0700
1E0700
0E0F00
0F0E00
070E00
071E00
079C00
039C00
039C00
01F800
01F800
01F000
00F000
00F000
00E000
00E000
01E000
01C000
03C000
078000
7F0000
7E0000
7C0000
ENDCHAR
STARTCHAR U+007A
ENCODING 122
SWIDTH 500 0
DWIDTH 19 0
BBX 17 22 1 0
BITMAP
3FFF00
3FFF00
3FFF00
001E00
001E00
003C00
007800
007800
00F000
01E000
01E000
03C000
078000
078000
0F0000
1E0000
1E0000
3C0000
780000
7FFF80
FFFF80
FFFF80
ENDCHAR
STARTCHAR U+007B
ENCODING 123
SWIDTH 500 0
DWIDTH 14 0
BBX 10 39 2 -7
BITMAP
03C0
0FC0
0E00
1C00
1C00
1C00
1C00
1C00
1C00
1C00
1C00
1C00
1C00
1C00
1C00
1C00
1C00
1C00
7800
F000
F800
3C00
1C00
1C00
1C00
1C00
1C00
1C00
1C00
1C00
1C00
1C00
1C00
1C00
1C00
1C00
0E00
0FC0
07C0
ENDCHAR
STARTCHAR U+007C
ENCODING 124
SWIDTH 500 0
DWIDTH 11 0
BBX 3 45 4 -11
BITMAP
C0
E0
E0
E0
E0
E0
E0
E0
E0
E0
E0
E0
E0
E0
E0
E0
E0
E0
E0
E0
E0
E0
E0
E0
E0
E0
E0
E0
E0
E0
E0
E0
E0
E0
E0
E0
E0
E0
E0
E0
E0
E0
E0
E0
E0
ENDCHAR
STARTCHAR U+007D
ENCODING 125
SWIDTH 500 0
DWIDTH 14 0
BBX 11 39 1 -7
BITMAP
F800
FC00
1E00
0E00
0E00
0F00
0700
0600
0E00
0E00
0E00
0E00
0E00
0E00
0E00
0E00
0E00
0700
07C0
03E0
03E0
0780
0700
0E00
0E00
0E00
0E00
0E00
0E00
0E00
0E00
0600
0700
0700
0E00
0E00
1E00
FC00
F800
ENDCHAR
STARTCHAR U+007E
ENCODING 126
SWIDTH 500 0
DWIDTH 22 0
BBX 18 7 2 11
BITMAP
1E0000
3F8000
7FC0C0
E1F1C0
C0FF80
003F00
000C00
ENDCHAR
STARTCHAR U+3002
ENCODING 12290
SWIDTH 500 0
DWIDTH 40 0
BBX 12 12 2 -3
BITMAP
1F00
3FC0
70E0
E060
C070
C030
C030
C070
E060
70E0
3FC0
1F00
ENDCHAR
STARTCHAR U+4E1A
ENCODING 19994
SWIDTH 500 0
DWIDTH 40 0
BBX 34 35 3 -2
BITMAP
001C0E0000
001C0E0000
001C0E0000
001C0E0000
001C0E0000
001C0E0000
001C0E0000
001C0E0000
001C0E0000
601C0E0100
701C0E03C0
701C0E0380
381C0E0380
381C0E0700
3C1C0E0700
1C1C0E0E00
1C1C0E0E00
0E1C0E1E00
0E1C0E1C00
0F1C0E3C00
071C0E3800
071C0E7800
079C0E7000
031C0E6000
001C0E0000
001C0E0000
001C0E0000
001C0E0000
001C0E0000
001C0E0000
001C0E0000
001C0E0000
FFFFFFFFC0
FFFFFFFFC0
FFFFFFFFC0
ENDCHAR
STARTCHAR U+4F5C
ENCODING 20316
SWIDTH 500 0
DWIDTH 40 0
BBX 36 37 2 -4
BITMAP
0070180000
00703C0000
00E0380000
00E0380000
01E0700000
01C0700000
03C0FFFFF0
0380FFFFF0
0781FFFFF0
0F01C70000
0F03870000
1F07870000
3F07070000
3F0F070000
7F1E070000
F73C07FFE0
E71807FFE0
470007FFE0
0700070000
0700070000
0700070000
0700070000
0700070000
0700070000
070007FFF0
070007FFF0
070007FFF0
0700070000
0700070000
0700070000
0700070000
0700070000
0700070000
0700070000
0700070000
0700070000
0300070000
ENDCHAR
STARTCHAR U+4F9D
ENCODING 20381
SWIDTH 500 0
DWIDTH 40 0
BBX 36 37 2 -4
BITMAP
00E00E0000
00E00F0000
00E0070000
01C0070000
01C0038000
0380038000
0380010000
073FFFFFF0
073FFFFFF0
0E3FFFFFF0
1E001E0000
1E001E0000
3E003F0000
7E007F0000
FE00F30060
F601E380F0
E603C381E0
4607C183C0
060F81C780
061F81DF00
063F80FC00
06FB80F800
06F3807000
0663807000
0603807800
0603803800
0603803C00
0603801E00
0603800F00
0603800F00
0603838780
06039F83E0
0603FF01F0
0603FC00F0
0607E00060
0607800000
0602000000
ENDCHAR
STARTCHAR U+5143
ENCODING 20803
SWIDTH 500 0
DWIDTH 40 0
BBX 36 34 2 -3
BITMAP
0FFFFFFF00
0FFFFFFF00
0FFFFFFF00
0000000000
0000000000
0000000000
0000000000
0000000000
0000000000
0000000000
0000000000
0000000000
7FFFFFFFF0
7FFFFFFFF0
7FFFFFFFE0
001C070000
003C070000
0038070000
0038070000
0038070000
0038070000
0038070000
0078070000
0070070000
0070070060
00F0070070
00E0070070
01E0070070
03C0070070
0780070070
0F00078070
3E0003FFE0
FC0003FFE0
700001FFC0
ENDCHAR
STARTCHAR U+5148
ENCODING 20808
SWIDTH 500 0
DWIDTH 40 0
BBX 36 38 2 -4
BITMAP
0000600000
0000600000
00E0600000
01C0600000
01C0600000
01C0600000
03C0600000
03FFFFFF80
03FFFFFF80
07FFFFFF80
0700600000
0E00600000
0E00600000
1C00600000
3C00600000
0800600000
0000600000
0000600000
7FFFFFFFE0
7FFFFFFFE0
7FFFFFFFE0
001C038000
001C038000
001C038000
0038038000
0038038000
0038038000
0078038000
0070038040
00F0038070
00E0038070
01E0038070
03C0038070
0F80038070
3F0003FFE0
FE0003FFE0
780001FFC0
2000000000
ENDCHAR
STARTCHAR U+5165
ENCODING 20837
SWIDTH 500 0
DWIDTH 40 0
BBX 36 35 2 -3
BITMAP
0018000000
003C000000
003E000000
001F000000
0007800000
0003C00000
0003C00000
0001E00000
0000F00000
0000F00000
0000F80000
0001F80000
0001FC0000
0001DE0000
0001CE0000
0003CF0000
0003870000
0007878000
0007038000
000F03C000
000F01C000
001E01E000
001E00E000
003C00F000
0078007800
0078007C00
00F0003C00
01E0001E00
03C0000F00
0780000F80
1F000007E0
3E000003F0
FC000001F0
7800000060
2000000020
ENDCHAR
STARTCHAR U+516D
ENCODING 20845
SWIDTH 500 0
DWIDTH 40 0
BBX 36 36 2 -3
BITMAP
0001C00000
0001C00000
0001E00000
0000E00000
0000F00000
0000700000
0000780000
0000780000
0000200000
0000000000
FFFFFFFFF0
FFFFFFFFF0
FFFFFFFFF0
0000000000
0000000000
0000000000
0000000000
0000000000
003001C000
003801C000
007801E000
007000F000
00F0007000
01E0007800
01E0003C00
03C0001C00
03C0001E00
0780000F00
0F00000F00
0F00000780
1E000003C0
3C000003C0
7C000001E0
78000001E0
F0000000F0
30000000C0
ENDCHAR
STARTCHAR U+5199
ENCODING 20889
SWIDTH 500 0
DWIDTH 40 0
BBX 34 35 3 -3
BITMAP
FFFFFFFFC0
FFFFFFFFC0
FFFFFFFFC0
E0000001C0
E0700001C0
E0700001C0
E0700001C0
E0E00001C0
00E0000000
00FFFFF800
00FFFFF800
00FFFFF800
01C0000000
01C0000000
01C0000000
01C0000000
0380000000
03FFFFFC00
03FFFFFC00
03FFFFFC00
0000001C00
0000001800
0000003800
0000003800
7FFFFE3800
7FFFFE3800
7FFFFE3800
0000003800
0000007000
0000007000
0000007000
000000F000
0000F3E000
0000FFE000
00007FC000
ENDCHAR
STARTCHAR U+5230
ENCODING 21040
SWIDTH 500 0
DWIDTH 40 0
BBX 33 36 3 -3
BITMAP
0000000380
0000000380
FFFFF00380
FFFFF18380
FFFFF18380
0380018380
0782018380
070E018380
0E07018380
0E03818380
1C01C18380
3807C18380
7FFFE18380
7FFFF18380
3F00718380
0000218380
0070018380
0070018380
0070018380
0070018380
7FFFE18380
7FFFF18380
7FFFF18380
0070018380
0070018380
0070018380
0070018380
0070000380
0070300380
0077F00380
01FFF00380
3FFF800380
FFF0000380
FE00007F80
C000007F80
0000007E00
ENDCHAR
STARTCHAR U+5468
ENCODING 21608
SWIDTH 500 0
DWIDTH 40 0
BBX 33 36 2 -4
BITMAP
0FFFFFFF80
0FFFFFFF80
0FFFFFFF80
0E00000380
0E00700380
0E00700380
0E00700380
0E00F00380
0E3FFFE380
0E3FFFE380
0E00700380
0E00700380
0E00700380
0E00700380
0E7FFFF380
0E7FFFF380
0E00000380
0E00000380
0E00000380
0E00000380
0E1FFFC380
0C1FFFC380
1C1C01C380
1C1801C380
1C1801C380
1C1801C380
1C1801C380
381801C380
381FFFC380
381FFFC380
781C000380
7018000380
F018000380
E00000FF80
E00000FF00
400000FC00
ENDCHAR
STARTCHAR U+5929
ENCODING 22825
SWIDTH 500 0
DWIDTH 40 0
BBX 36 34 2 -3
BITMAP
3FFFFFFFC0
3FFFFFFFC0
3FFFFFFFC0
0000E00000
0000E00000
0000E00000
0000E00000
0000E00000
0000E00000
0000E00000
0000E00000
0000E00000
0000E00000
7FFFFFFFE0
7FFFFFFFE0
7FFFFFFFE0
0001F00000
0001F80000
0001F80000
0003DC0000
00039C0000
00078E0000
000F0F0000
000F070000
001E078000
003C03C000
007C01E000
00F800F000
03F0007800
07C0003E00
1F80001F80
7F00000FE0
FC000003F0
70000000E0
ENDCHAR
STARTCHAR U+5B66
ENCODING 23398
SWIDTH 500 0
DWIDTH 40 0
BBX 35 38 3 -4
BITMAP
0001800000
0E03800E00
0E01C01E00
0701E01C00
0780E03800
0380F07800
0180607000
FFFFFFFFC0
FFFFFFFFC0
FFFFFFFFC0
E0000001C0
E0000001C0
E0000001C0
E0000001C0
E3FFFFE1C0
03FFFFF000
03FFFFE000
000007C000
00001F0000
00007C0000
0000F00000
0001E00000
0001C00000
FFFFFFFFE0
FFFFFFFFE0
FFFFFFFFE0
0001C00000
0001C00000
0001C00000
0001C00000
0001C00000
0001C00000
0001C00000
0001C00000
0001C00000
00FFC00000
007FC00000
007F000000
ENDCHAR
STARTCHAR U+5B9D
ENCODING 23453
SWIDTH 500 0
DWIDTH 40 0
BBX 34 37 3 -3
BITMAP
0001800000
0001C00000
0001C00000
0000E00000
0000E00000
7FFFFFFF80
FFFFFFFF80
FFFFFFFF80
E000000380
E000000380
E000000380
E000000380
E000000380
FFFFFFFF80
0FFFFFFC00
0FFFFFFC00
0001C00000
0001C00000
0001C00000
0001C00000
0001C00000
0001C00000
0001C00000
07FFFFFC00
07FFFFFC00
07FFFFF800
0001C00000
0001C38000
0001C3C000
0001C1E000
0001C07800
0001C03C00
0001C01800
0001C00000
FFFFFFFFC0
FFFFFFFFC0
FFFFFFFFC0
ENDCHAR
STARTCHAR U+5C3D
ENCODING 23613
SWIDTH 500 0
DWIDTH 40 0
BBX 36 36 2 -4
BITMAP
07FFFFFF00
07FFFFFF00
07FFFFFF00
0700000700
0700000700
0700000700
0700000700
0700000700
0700000700
07FFFFFF00
07FFFFFF00
07FFFFFF00
070001C000
070000E000
070000E000
0700007000
0E00007000
0E0E007800
0E1FC03800
0E0FF81C00
1C01FE1E00
1C003F0F00
3C000F0780
38000207C0
78000003E0
F0000001F0
E0000000F0
6060000060
00FE000000
00FFC00000
000FF80000
0001FF0000
00003FE000
000007F000
000000F000
0000002000
ENDCHAR
STARTCHAR U+5C71
ENCODING 23665
SWIDTH 500 0
DWIDTH 40 0
BBX 32 37 4 -4
BITMAP
00038000
00038000
00038000
00038000
00038000
00038000
00038000
00038000
E0038007
E0038007
E0038007
E0038007
E0038007
E0038007
E0038007
E0038007
E0038007
E0038007
E0038007
E0038007
E0038007
E0038007
E0038007
E0038007
E0038007
E0038007
E0038007
E0038007
E0038007
E0038007
E0038007
FFFFFFFF
FFFFFFFF
FFFFFFFF
00000007
00000007
00000006
ENDCHAR
STARTCHAR U+6539
ENCODING 25913
SWIDTH 500 0
DWIDTH 40 0
BBX 35 38 3 -4
BITMAP
0000040000
0000070000
00000E0000
FFFC0E0000
FFFC0E0000
FFFC0E0000
001C1C0000
001C1C0000
001C1FFFE0
001C3FFFE0
001C3FFFE0
001C380700
001C780700
001C780700
001CFC0F00
7FFCFC0E00
7FFDFC0E00
7FFFCC0E00
70038E1E00
70018E1C00
7000071C00
7000073C00
7000073800
700003B800
700003F000
700001F000
700001E000
700401E000
703C03F000
71FC03F800
7FF807F800
7FC01F3C00
FF003E1F00
F8007C0F80
E001F807E0
0003E003E0
0001C000C0
0001000000
ENDCHAR
STARTCHAR U+653E
ENCODING 25918
SWIDTH 500 0
DWIDTH 40 0
BBX 37 37 1 -3
BITMAP
0040008000
00C001C000
00E001C000
00E001C000
007001C000
0070038000
0000038000
7FFFE38000
7FFFE7FFF8
7FFFC7FFF8
030007FFF8
03000F01C0
03000F01C0
03000F01C0
03001F81C0
03FF9F8180
03FFBF8380
03FFFB8380
0303F1C380
0303B1C700
030381C700
070380E700
070380EE00
070380FE00
0703007E00
0703007C00
0703003C00
0603007C00
0E07007C00
0E0700FE00
1E0701EF00
1C0703C780
3C070F83C0
38071F03E0
78FF7E01F8
F0FE780078
60FC700030
ENDCHAR
STARTCHAR U+65E5
ENCODING 26085
SWIDTH 500 0
DWIDTH 40 0
BBX 26 34 7 -3
BITMAP
FFFFFFC0
FFFFFFC0
FFFFFFC0
E00001C0
E00001C0
E00001C0
E00001C0
E00001C0
E00001C0
E00001C0
E00001C0
E00001C0
E00001C0
E00001C0
FFFFFFC0
FFFFFFC0
FFFFFFC0
E00001C0
E00001C0
E00001C0
E00001C0
E00001C0
E00001C0
E00001C0
E00001C0
E00001C0
E00001C0
E00001C0
E00001C0
FFFFFFC0
FFFFFFC0
FFFFFFC0
E00001C0
E00001C0
ENDCHAR
STARTCHAR U+65E6
ENCODING 26086
SWIDTH 500 0
DWIDTH 40 0
BBX 34 33 3 -2
BITMAP
07FFFFF800
07FFFFF800
07FFFFF800
0700003800
0700003800
0700003800
0700003800
0700003800
0700003800
0700003800
07FFFFF800
07FFFFF800
07FFFFF800
0700003800
0700003800
0700003800
0700003800
0700003800
0700003800
0700003800
0700003800
07FFFFF800
07FFFFF800
07FFFFF800
0000000000
0000000000
0000000000
0000000000
0000000000
0000000000
FFFFFFFFC0
FFFFFFFFC0
FFFFFFFFC0
ENDCHAR
STARTCHAR U+6709
ENCODING 26377
SWIDTH 500 0
DWIDTH 40 0
BBX 35 38 2 -4
BITMAP
0002000000
0007000000
0007000000
0007000000
000E000000
7FFFFFFFE0
7FFFFFFFE0
7FFFFFFFE0
003C000000
0038000000
0078000000
0070000000
00F0000000
00FFFFFE00
01FFFFFE00
03FFFFFE00
03E0000E00
07E0000E00
0FE0000E00
1EE0000E00
3CFFFFFE00
F8FFFFFE00
F0FFFFFE00
60E0000E00
00E0000E00
00E0000E00
00E0000E00
00FFFFFE00
00FFFFFE00
00FFFFFE00
00E0000E00
00E0000E00
00E0000E00
00E0000E00
00E0000E00
00E007FE00
00E003FC00
00E003F000
ENDCHAR
STARTCHAR U+6CB3
ENCODING 27827
SWIDTH 500 0
DWIDTH 40 0
BBX 36 37 2 -4
BITMAP
1000000000
3C00000000
3F3FFFFFF0
0FBFFFFFF0
07FFFFFFF0
01C0000380
0000000380
0000000380
0000000380
0000000380
0007FF8380
C007FF8380
F007FF8380
FC07018380
3F07018380
0F07018380
0607018380
0007018380
0007018380
0007018380
0007018380
0087018380
01C7FF8380
01C7FF8380
0387FF8380
0387000380
0707000380
0707000380
0E00000380
0E00000380
1C00000380
3C00000380
3800000380
7800000380
700007FF80
300003FF80
000003FE00
ENDCHAR
STARTCHAR U+6D41
ENCODING 27969
SWIDTH 500 0
DWIDTH 40 0
BBX 36 37 2 -3
BITMAP
0000020000
1000070000
3C00070000
1F00070000
0F80038000
03DFFFFFE0
019FFFFFF0
001FFFFFF0
00003C0000
0000781800
0000701C00
0000E00E00
6001E00700
F803C00780
7E07FFFFC0
1F1FFFFFC0
0F0FFFF9E0
030E0000E0
0000000040
0000000000
0003870E00
0003870E00
0083870E00
01C3870E00
01C3870E00
03C3870E00
0383870E00
0783070E00
0707070E00
0F07070E00
0E07070E30
1E0E070E30
3C0E070E30
381E070E30
783C070E70
7078070FF0
30300007E0
ENDCHAR
STARTCHAR U+6D77
ENCODING 28023
SWIDTH 500 0
DWIDTH 40 0
BBX 36 36 2 -3
BITMAP
1801C00000
3E01C00000
1F01C00000
07C3800000
03C3FFFFE0
0087FFFFE0
0007FFFFE0
000E000000
001E000000
001C000000
003DFFFF80
007BFFFFC0
6033FFFFC0
F803840180
7E03870180
1F03838180
0E03818180
020300C180
0003008380
007FFFFFF0
007FFFFFF0
023FFFFFF0
03070C0380
03070E0380
0706070380
0706038380
0E0E01C380
0E0E008380
0E0FFFFFE0
1C0FFFFFE0
1C0FFFFFE0
3800000700
3800000700
7800000F00
700001FE00
100001FC00
ENDCHAR
STARTCHAR U+7434
ENCODING 29748
SWIDTH 500 0
DWIDTH 40 0
BBX 36 36 2 -4
BITMAP
7FFF1FFFE0
7FFF1FFFE0
01E0003800
01C0003800
01C0003800
01C0003800
3FFF0FFFC0
3FFF0FFFC0
01C0003800
01C0003800
01C0003800
01E0003800
7FFF9FFFF0
7FFFFFFFF0
0000F00000
0001F80000
0007FC0000
001F1F0000
007E07E000
01F8C1F800
07E0E07F00
3FC0781FE0
FE003807F0
78001800E0
07FFFFF800
07FFFFFC00
07FFFFF800
0000007800
000000F000
000001E000
000003C000
0000078000
00000F0000
00001E0000
00001C0000
0000080000
ENDCHAR
STARTCHAR U+767D
ENCODING 30333
SWIDTH 500 0
DWIDTH 40 0
BBX 28 38 6 -4
BITMAP
00080000
001E0000
001E0000
001C0000
001C0000
003C0000
00380000
FFFFFFF0
FFFFFFF0
FFFFFFF0
E0000070
E0000070
E0000070
E0000070
E0000070
E0000070
E0000070
E0000070
E0000070
FFFFFFF0
FFFFFFF0
FFFFFFF0
E0000070
E0000070
E0000070
E0000070
E0000070
E0000070
E0000070
E0000070
E0000070
E0000070
FFFFFFF0
FFFFFFF0
FFFFFFF0
E0000070
E0000070
E0000070
ENDCHAR
STARTCHAR U+8BFE
ENCODING 35838
SWIDTH 500 0
DWIDTH 40 0
BBX 36 36 2 -4
BITMAP
3803FFFFC0
1E03FFFFC0
0F0383C3C0
07030381C0
03830381C0
03830381C0
010383C3C0
0003FFFFC0
0003FFFFC0
00030381C0
00030381C0
FF030381C0
FF030381C0
FF0383C3C0
0703FFFFC0
0703FFFFC0
0700038000
0700038000
0700038000
070FFFFFF0
070FFFFFF0
070FFFFFF0
07000FE000
07000FF000
07001FB800
07183B9C00
0778739E00
07F0F38F00
07E1E38780
07C3C383C0
078F8381F0
0F1F0380F0
0E1C038070
0408038000
0000038000
0000018000
ENDCHAR
STARTCHAR U+8D1D
ENCODING 36125
SWIDTH 500 0
DWIDTH 40 0
BBX 33 36 3 -4
BITMAP
0FFFFFFC00
0FFFFFFC00
0FFFFFFC00
0E00001C00
0E00001C00
0E00001C00
0E00E01C00
0E00E01C00
0E00E01C00
0E00E01C00
0E00E01C00
0E00E01C00
0E00E01C00
0E00E01C00
0E00E01C00
0E00E01C00
0E01E01C00
0E01C01C00
0E01C01C00
0E01C01C00
0E01C01C00
0E01C01C00
0E03801C00
0E03801C00
0007000000
000F000000
001E180000
003C1E0000
007C1F8000
01F007E000
03E001F800
0FC0007E00
7F00001F80
FC00000780
7000000300
4000000000
ENDCHAR
STARTCHAR U+8FD8
ENCODING 36824
SWIDTH 500 0
DWIDTH 40 0
BBX 37 36 1 -3
BITMAP
0800000000
1C00000000
1E0FFFFFF0
0F0FFFFFF0
078FFFFFF0
03C000E000
01E001E000
00C001C000
000003C000
0000038000
0000078000
00000F8000
00001F9800
7F801FBC00
7F803F9E00
7F807B8F00
0380F38780
0381E383C0
0387C381E0
038F8380F0
039F0380F0
039E038070
0388038020
0380038000
0380038000
0380038000
0380038000
0380038000
0380038000
07C0038000
1FE0038000
3EF8000000
783F000018
F81FFFFFF8
7007FFFFF8
2000FFFFF8
ENDCHAR
STARTCHAR U+94A2
ENCODING 38050
SWIDTH 500 0
DWIDTH 40 0
BBX 35 37 2 -4
BITMAP
0600000000
0E01FFFFE0
0E01FFFFE0
1C01FFFFE0
1FFDC000E0
3FFDC000E0
3FFDC00CE0
7001C01CE0
F001C01CE0
E001DC1CE0
C001CC18E0
1FF9CE38E0
1FF9C638E0
1FF9C730E0
0381C3F0E0
0381C3F0E0
0381C1E0E0
0381C1E0E0
0381C0E0E0
7FFDC0E0E0
7FFDC1F0E0
7FFDC1F0E0
0381C3B8E0
0381C3B8E0
0381C71CE0
0381C71CE0
0381CE0CE0
0381CE0EE0
0381DC0CE0
038DDC00E0
03BDD800E0
03FDC000E0
03F1C000E0
07C1C01FE0
0781C01FE0
0601C00F80
0000C00000
ENDCHAR
STARTCHAR U+9EC4
ENCODING 40644
SWIDTH 500 0
DWIDTH 40 0
BBX 36 38 2 -4
BITMAP
003801C000
003801C000
003801C000
003801C000
1FFFFFFF80
1FFFFFFF80
1FFFFFFF80
003801C000
003801C000
003801C000
7FFFFFFFF0
FFFFFFFFF0
FFFFFFFFF0
0000E00000
0000E00000
0000E00000
07FFFFFF00
07FFFFFF00
0700F00700
0700E00700
0700E00700
0700E00700
07FFFFFF00
07FFFFFF00
0700F00700
0700E00700
0700E00700
0700E00700
07FFFFFF00
07FFFFFF00
0000000000
0018018000
007C03F000
01F801FC00
0FE0003F80
7F80000FE0
7E000001E0
3000000000
ENDCHAR
STARTCHAR U+FF0C
ENCODING 65292
SWIDTH 500 0
DWIDTH 40 0
BBX 7 14 6 -5
BITMAP
38
7C
7E
7E
7E
1E
0E
0E
1C
1C
38
F0
E0
80
ENDCHAR
ENDFONT
