STARTFONT 2.1
FONT sans-m-32
SIZE 32 75 75
FONTBOUNDINGBOX 64 48 0 -10
STARTPROPERTIES 3
PIXEL_SIZE 32
FONT_ASCENT 38
FONT_DESCENT 10
ENDPROPERTIES
CHARS 127
STARTCHAR U+0020
ENCODING 32
SWIDTH 500 0
DWIDTH 7 0
BBX 0 0 0 0
BITMAP
ENDCHAR
STARTCHAR U+0021
ENCODING 33
SWIDTH 500 0
DWIDTH 11 0
BBX 5 25 3 0
BITMAP
70
70
70
70
70
70
70
70
70
70
70
70
70
70
70
70
70
00
00
00
70
F8
F8
F8
70
ENDCHAR
STARTCHAR U+0022
ENCODING 34
SWIDTH 500 0
DWIDTH 17 0
BBX 11 10 3 15
BITMAP
F1E0
F1E0
F1E0
F1E0
E1E0
E1C0
E1C0
E1C0
E0C0
60C0
ENDCHAR
STARTCHAR U+0023
ENCODING 35
SWIDTH 500 0
DWIDTH 18 0
BBX 16 23 1 0
BITMAP
060C
060C
061C
061C
0E18
0E18
7FFF
7FFF
0E38
0C18
0C38
0C38
1C30
1C38
FFFE
FFFE
1830
1830
1870
1870
3870
3860
3860
ENDCHAR
STARTCHAR U+0024
ENCODING 36
SWIDTH 500 0
DWIDTH 18 0
BBX 14 31 2 -4
BITMAP
0300
0300
0300
03C0
0FF0
3FF8
3FF8
7830
7000
7000
7000
7800
7C00
3F00
1FC0
07E0
01F8
00F8
003C
003C
003C
003C
603C
F078
FFF8
3FF0
0FC0
0300
0300
0300
0300
ENDCHAR
STARTCHAR U+0025
ENCODING 37
SWIDTH 500 0
DWIDTH 30 0
BBX 28 24 1 0
BITMAP
0F001800
3F803800
79C03000
70C07000
E0E06000
E0E0E000
E0E0C000
E0E1C000
E0E18000
E0E38F00
60E31FC0
71C63DE0
3BC638E0
3F8C7060
0F1C7070
00187070
00387070
00307070
00707070
00607070
00E030E0
00C039E0
01C01FC0
01800F00
ENDCHAR
STARTCHAR U+0026
ENCODING 38
SWIDTH 500 0
DWIDTH 23 0
BBX 21 24 1 0
BITMAP
03E000
07F800
0FF800
0E1C00
1C1C00
1C1C00
1C3800
1E3800
0EF000
0FE000
0FC000
0F8078
1F8070
3FC0F0
79E0E0
F0F1E0
F079C0
F03FC0
F01F80
F00FC0
7C3FF0
3FFFF8
1FF8F8
07E010
ENDCHAR
STARTCHAR U+0027
ENCODING 39
SWIDTH 500 0
DWIDTH 10 0
BBX 4 10 3 15
BITMAP
F0
F0
F0
F0
E0
E0
E0
E0
E0
60
ENDCHAR
STARTCHAR U+0028
ENCODING 40
SWIDTH 500 0
DWIDTH 11 0
BBX 7 32 3 -6
BITMAP
0C
0E
1C
1C
38
38
30
70
70
70
E0
E0
E0
E0
E0
E0
E0
E0
E0
E0
E0
E0
60
70
70
70
38
38
38
1C
1C
0E
ENDCHAR
STARTCHAR U+0029
ENCODING 41
SWIDTH 500 0
DWIDTH 11 0
BBX 7 33 2 -7
BITMAP
40
E0
E0
70
70
30
38
38
18
1C
1C
1C
1C
1C
1C
1C
1E
1C
1C
1C
1C
1C
1C
1C
38
38
38
70
70
70
E0
C0
40
ENDCHAR
STARTCHAR U+002A
ENCODING 42
SWIDTH 500 0
DWIDTH 15 0
BBX 11 11 2 14
BITMAP
0600
0600
0E00
EEE0
FFE0
3FC0
1F00
1F80
3B80
31C0
3080
ENDCHAR
STARTCHAR U+002B
ENCODING 43
SWIDTH 500 0
DWIDTH 18 0
BBX 16 17 1 3
BITMAP
0180
01C0
01C0
01C0
01C0
01C0
01C0
FFFF
FFFF
FFFF
01C0
01C0
01C0
01C0
01C0
01C0
0180
ENDCHAR
STARTCHAR U+002C
ENCODING 44
SWIDTH 500 0
DWIDTH 10 0
BBX 6 11 2 -6
BITMAP
30
78
FC
7C
7C
1C
18
38
70
E0
C0
ENDCHAR
STARTCHAR U+002D
ENCODING 45
SWIDTH 500 0
DWIDTH 11 0
BBX 8 3 2 8
BITMAP
FF
FF
FF
ENDCHAR
STARTCHAR U+002E
ENCODING 46
SWIDTH 500 0
DWIDTH 10 0
BBX 5 5 2 0
BITMAP
70
78
F8
78
70
ENDCHAR
STARTCHAR U+002F
ENCODING 47
SWIDTH 500 0
DWIDTH 12 0
BBX 11 31 1 -6
BITMAP
00E0
00C0
01C0
01C0
0180
0180
0380
0380
0300
0700
0700
0600
0600
0E00
0E00
0C00
1C00
1C00
1800
1800
3800
3800
3000
3000
7000
6000
6000
E000
E000
C000
C000
ENDCHAR
STARTCHAR U+0030
ENCODING 48
SWIDTH 500 0
DWIDTH 18 0
BBX 15 24 2 0
BITMAP
07C0
1FE0
3FF0
7878
7038
F03C
F01C
E01C
E01C
E01E
E01E
E01E
E01E
E01E
E01E
E01C
E01C
F01C
F03C
7038
7878
3FF0
1FE0
07C0
ENDCHAR
STARTCHAR U+0031
ENCODING 49
SWIDTH 500 0
DWIDTH 18 0
BBX 13 24 3 0
BITMAP
0780
3F80
7F80
7F80
0780
0780
0780
0780
0780
0780
0780
0780
0780
0780
0780
0780
0780
0780
0780
0780
0780
FFF8
FFF8
FFF8
ENDCHAR
STARTCHAR U+0032
ENCODING 50
SWIDTH 500 0
DWIDTH 18 0
BBX 16 24 1 0
BITMAP
07C0
1FF0
7FF8
F87C
703C
001C
001C
001C
001C
001C
003C
0038
0078
00F0
00F0
01E0
03C0
0780
0F00
1E00
3C00
7FFF
FFFF
FFFF
ENDCHAR
STARTCHAR U+0033
ENCODING 51
SWIDTH 500 0
DWIDTH 18 0
BBX 15 24 1 0
BITMAP
07C0
1FF0
7FF8
787C
203C
001E
001E
001C
003C
0078
07F0
07E0
07F8
007C
001E
001E
000E
000E
001E
601E
F83E
7FFC
3FF8
0FE0
ENDCHAR
STARTCHAR U+0034
ENCODING 52
SWIDTH 500 0
DWIDTH 18 0
BBX 16 24 1 0
BITMAP
0078
00F8
01F8
01F8
03B8
03B8
0738
0F38
0E38
1E38
1C38
3C38
7838
7038
F038
FFFF
FFFF
FFFF
0038
0038
0038
0038
0038
0038
ENDCHAR
STARTCHAR U+0035
ENCODING 53
SWIDTH 500 0
DWIDTH 18 0
BBX 15 24 1 0
BITMAP
3FFC
3FFC
3FFC
3C00
3C00
3800
3800
3800
3980
3FF0
3FFC
387C
001E
001E
000E
000E
000E
000E
001E
601E
F87C
7FF8
3FF0
0FC0
ENDCHAR
STARTCHAR U+0036
ENCODING 54
SWIDTH 500 0
DWIDTH 18 0
BBX 15 24 2 0
BITMAP
03E0
0FF8
1FFC
3E1C
7800
7800
7000
F000
E000
E3E0
EFF8
FFF8
F83C
F01C
E01E
E01E
F01E
F01E
701E
781C
3C3C
3FF8
1FF0
07C0
ENDCHAR
STARTCHAR U+0037
ENCODING 55
SWIDTH 500 0
DWIDTH 18 0
BBX 15 24 2 0
BITMAP
FFFE
FFFE
FFFE
003C
0038
0070
0070
00E0
00E0
01C0
01C0
03C0
0380
0380
0780
0780
0780
0700
0700
0700
0F00
0F00
0F00
0F00
ENDCHAR
STARTCHAR U+0038
ENCODING 56
SWIDTH 500 0
DWIDTH 18 0
BBX 15 24 2 0
BITMAP
07C0
1FF0
3FF8
7838
703C
701C
701C
701C
7838
3C38
1F70
1FE0
3FF0
70F8
F07C
E03C
E01E
E01E
E01E
E01C
F03C
7FF8
3FF0
0FC0
ENDCHAR
STARTCHAR U+0039
ENCODING 57
SWIDTH 500 0
DWIDTH 18 0
BBX 16 24 1 0
BITMAP
07C0
1FF0
3FF8
3C7C
781C
701E
F00E
F00E
F00E
700E
701E
783F
3FFE
1FEE
0F8E
000E
000E
001E
001C
003C
3878
7FF0
3FE0
0F80
ENDCHAR
STARTCHAR U+003A
ENCODING 58
SWIDTH 500 0
DWIDTH 10 0
BBX 5 18 2 0
BITMAP
70
78
F8
F8
70
00
00
00
00
00
00
00
00
70
78
F8
78
70
ENDCHAR
STARTCHAR U+003B
ENCODING 59
SWIDTH 500 0
DWIDTH 10 0
BBX 6 23 2 -6
BITMAP
70
78
F8
78
70
00
00
00
00
00
00
00
30
78
FC
7C
7C
1C
18
38
70
E0
C0
ENDCHAR
STARTCHAR U+003C
ENCODING 60
SWIDTH 500 0
DWIDTH 18 0
BBX 16 15 1 4
BITMAP
0001
000F
007F
01FE
0FF0
3F80
FC00
F000
FE00
3F80
0FF0
01FE
003F
000F
0001
ENDCHAR
STARTCHAR U+003D
ENCODING 61
SWIDTH 500 0
DWIDTH 18 0
BBX 16 11 1 6
BITMAP
FFFF
FFFF
FFFF
0000
0000
0000
0000
0000
FFFF
FFFF
FFFF
ENDCHAR
STARTCHAR U+003E
ENCODING 62
SWIDTH 500 0
DWIDTH 18 0
BBX 16 15 1 4
BITMAP
C000
F000
FE00
7F80
0FF0
01FE
003F
000F
003F
01FC
0FF0
7F80
FE00
F000
8000
ENDCHAR
STARTCHAR U+003F
ENCODING 63
SWIDTH 500 0
DWIDTH 16 0
BBX 12 25 2 0
BITMAP
1F00
7FC0
FFE0
E1F0
40F0
00F0
00F0
00F0
00E0
01E0
03C0
0780
0780
0F00
0E00
0E00
0E00
0000
0000
0000
0E00
1F00
1F00
1F00
0E00
ENDCHAR
STARTCHAR U+0040
ENCODING 64
SWIDTH 500 0
DWIDTH 31 0
BBX 27 30 2 -6
BITMAP
001FE000
007FF800
01FCFE00
03C00F00
0F000780
0E0001C0
1C0001C0
380000C0
380F20E0
703FF0E0
707FE060
6070E060
E0E0E060
E0E0E060
E1C0E060
C1C0C0E0
C1C1C0E0
C1C1C0C0
E1C3C1C0
E0F7E380
E0FEFF00
60387E00
70000000
70000000
38000000
1C000000
0F002000
07E3E000
03FFE000
007F0000
ENDCHAR
STARTCHAR U+0041
ENCODING 65
SWIDTH 500 0
DWIDTH 20 0
BBX 20 24 0 0
BITMAP
00F000
01F800
01F800
01F800
03BC00
039C00
039C00
079E00
071E00
070E00
0F0F00
0E0F00
0E0700
1E0700
1FFF80
1FFF80
3FFF80
3C03C0
3803C0
7801C0
7801E0
7001E0
F000E0
F000F0
ENDCHAR
STARTCHAR U+0042
ENCODING 66
SWIDTH 500 0
DWIDTH 21 0
BBX 17 24 3 0
BITMAP
FFE000
FFFC00
FFFE00
F03E00
F01F00
F00F00
F00F00
F00E00
F01E00
F03C00
FFF800
FFF800
FFFE00
F01F00
F00700
F00780
F00780
F00780
F00780
F00F80
F01F00
FFFE00
FFFC00
FFF000
ENDCHAR
STARTCHAR U+0043
ENCODING 67
SWIDTH 500 0
DWIDTH 21 0
BBX 17 24 2 0
BITMAP
01F800
07FE00
0FFF80
1F8F80
3E0300
7C0000
780000
780000
F00000
F00000
F00000
F00000
F00000
F00000
F00000
F00000
F80000
780000
7C0000
3E0380
1F8F80
0FFF80
07FE00
01F800
ENDCHAR
STARTCHAR U+0044
ENCODING 68
SWIDTH 500 0
DWIDTH 22 0
BBX 18 24 3 0
BITMAP
FFC000
FFF800
FFFC00
F07E00
F01F00
F00F00
F00780
F00780
F00780
F00380
F00380
F003C0
F003C0
F00380
F00380
F00780
F00780
F00780
F00F00
F01F00
F07E00
FFFC00
FFF800
FFC000
ENDCHAR
STARTCHAR U+0045
ENCODING 69
SWIDTH 500 0
DWIDTH 19 0
BBX 14 24 3 0
BITMAP
FFFC
FFFC
FFFC
F000
F000
F000
F000
F000
F000
F000
FFF0
FFF0
FFF0
F000
F000
F000
F000
F000
F000
F000
F000
FFFC
FFFC
FFFC
ENDCHAR
STARTCHAR U+0046
ENCODING 70
SWIDTH 500 0
DWIDTH 18 0
BBX 14 24 3 0
BITMAP
FFFC
FFFC
FFFC
F000
F000
F000
F000
F000
F000
F000
F000
FFF8
FFF8
FFF8
F000
F000
F000
F000
F000
F000
F000
F000
F000
F000
ENDCHAR
STARTCHAR U+0047
ENCODING 71
SWIDTH 500 0
DWIDTH 22 0
BBX 18 24 2 0
BITMAP
00FC00
07FF00
0FFF80
1F8780
3E0100
7C0000
780000
F80000
F00000
F00000
F00000
F03FC0
F03FC0
F03FC0
F001C0
F001C0
F001C0
7801C0
7C01C0
3E01C0
1F87C0
0FFFC0
07FF00
01FC00
ENDCHAR
STARTCHAR U+0048
ENCODING 72
SWIDTH 500 0
DWIDTH 24 0
BBX 18 24 3 0
BITMAP
F003C0
F003C0
F003C0
F003C0
F003C0
F003C0
F003C0
F003C0
F003C0
F003C0
FFFFC0
FFFFC0
FFFFC0
F003C0
F003C0
F003C0
F003C0
F003C0
F003C0
F003C0
F003C0
F003C0
F003C0
F003C0
ENDCHAR
STARTCHAR U+0049
ENCODING 73
SWIDTH 500 0
DWIDTH 10 0
BBX 4 24 3 0
BITMAP
F0
F0
F0
F0
F0
F0
F0
F0
F0
F0
F0
F0
F0
F0
F0
F0
F0
F0
F0
F0
F0
F0
F0
F0
ENDCHAR
STARTCHAR U+004A
ENCODING 74
SWIDTH 500 0
DWIDTH 18 0
BBX 14 24 1 0
BITMAP
003C
003C
003C
003C
003C
003C
003C
003C
003C
003C
003C
003C
003C
003C
003C
003C
003C
0038
2038
6078
F8F8
7FF0
3FE0
0FC0
ENDCHAR
STARTCHAR U+004B
ENCODING 75
SWIDTH 500 0
DWIDTH 21 0
BBX 18 24 3 0
BITMAP
F00F80
F00F00
F01E00
F03C00
F07800
F07800
F0F000
F1E000
F3C000
F7C000
F7C000
FFE000
FFF000
FCF000
FC7800
F87800
F03C00
F03C00
F01E00
F00F00
F00F00
F00780
F00780
F003C0
ENDCHAR
STARTCHAR U+004C
ENCODING 76
SWIDTH 500 0
DWIDTH 18 0
BBX 14 24 3 0
BITMAP
F000
F000
F000
F000
F000
F000
F000
F000
F000
F000
F000
F000
F000
F000
F000
F000
F000
F000
F000
F000
F000
FFFC
FFFC
FFFC
ENDCHAR
STARTCHAR U+004D
ENCODING 77
SWIDTH 500 0
DWIDTH 27 0
BBX 20 24 3 0
BITMAP
F800F0
F800F0
F801F0
FC01F0
FC01F0
FC03F0
EE03F0
EE0370
EE0770
E70770
E70670
E70E70
E38E70
E38C70
E39C70
E1DC70
E1F870
E0F870
E0F870
E0F070
E07070
E06070
E00070
E00070
ENDCHAR
STARTCHAR U+004E
ENCODING 78
SWIDTH 500 0
DWIDTH 23 0
BBX 17 24 3 0
BITMAP
F00380
F80380
F80380
FC0380
FC0380
FE0380
EE0380
E70380
E78380
E38380
F3C380
F1C380
F1E380
F0E380
F0F380
F07380
F07B80
F03B80
F01F80
F01F80
F00F80
F00F80
F00780
F00780
ENDCHAR
STARTCHAR U+004F
ENCODING 79
SWIDTH 500 0
DWIDTH 24 0
BBX 20 24 2 0
BITMAP
01F800
07FE00
1FFF80
3F0FC0
3C03C0
7801E0
7801E0
F000F0
F000F0
F000F0
F000F0
F000F0
F000F0
F000F0
F000F0
F000F0
F800F0
7801E0
7C01E0
3C03C0
1F0FC0
1FFF80
07FE00
01F800
ENDCHAR
STARTCHAR U+0050
ENCODING 80
SWIDTH 500 0
DWIDTH 21 0
BBX 16 24 3 0
BITMAP
FFE0
FFF8
FFFE
F03E
F00F
F00F
F00F
F007
F00F
F00F
F01F
F03E
FFFC
FFF8
FFE0
F000
F000
F000
F000
F000
F000
F000
F000
F000
ENDCHAR
STARTCHAR U+0051
ENCODING 81
SWIDTH 500 0
DWIDTH 24 0
BBX 21 30 2 -6
BITMAP
01F800
07FE00
1FFF80
3F0FC0
3C03C0
7801E0
7801E0
F000F0
F000F0
F000F0
F000F0
F000F0
F000F0
F000F0
F000F0
F000F0
F000F0
7801E0
7801E0
3C03C0
3E07C0
1FFF80
0FFF00
03FC00
007800
007C00
003E00
001FF8
000FF8
0003F8
ENDCHAR
STARTCHAR U+0052
ENCODING 82
SWIDTH 500 0
DWIDTH 21 0
BBX 17 24 3 0
BITMAP
FFF000
FFFC00
FFFE00
F03F00
F00F00
F00F00
F00700
F00700
F00F00
F00F00
F03E00
FFFE00
FFF800
FFF000
F0F000
F0F000
F07800
F07C00
F03C00
F01E00
F01E00
F00F00
F00F00
F00780
ENDCHAR
STARTCHAR U+0053
ENCODING 83
SWIDTH 500 0
DWIDTH 19 0
BBX 16 24 2 0
BITMAP
07E0
1FF8
3FFE
7E3E
780C
7000
7000
7800
7C00
7F00
3FC0
1FF0
07FC
00FE
003E
001F
000F
000F
400F
F01F
FC3E
7FFC
3FF8
07E0
ENDCHAR
STARTCHAR U+0054
ENCODING 84
SWIDTH 500 0
DWIDTH 20 0
BBX 18 24 1 0
BITMAP
FFFFC0
FFFFC0
FFFFC0
01E000
01E000
01E000
01E000
01E000
01E000
01E000
01E000
01E000
01E000
01E000
01E000
01E000
01E000
01E000
01E000
01E000
01E000
01E000
01E000
01E000
ENDCHAR
STARTCHAR U+0055
ENCODING 85
SWIDTH 500 0
DWIDTH 23 0
BBX 17 24 3 0
BITMAP
F00380
F00380
F00380
F00380
F00380
F00380
F00380
F00380
F00380
F00380
F00380
F00380
F00380
F00380
F00380
F00380
F00380
F00780
780780
780F00
3E3F00
3FFE00
1FFC00
07F000
ENDCHAR
STARTCHAR U+0056
ENCODING 86
SWIDTH 500 0
DWIDTH 19 0
BBX 19 24 0 0
BITMAP
F001E0
F001E0
7801C0
7803C0
7803C0
380380
3C0780
3C0780
1C0700
1E0700
1E0F00
1E0F00
0E0E00
0F0E00
0F1E00
071C00
071C00
07BC00
03B800
03B800
03F800
01F000
01F000
01F000
ENDCHAR
STARTCHAR U+0057
ENCODING 87
SWIDTH 500 0
DWIDTH 29 0
BBX 27 24 1 0
BITMAP
F00E01E0
F01E01E0
F01F01C0
F01F01C0
701F03C0
783F03C0
783B83C0
783B8380
783B8380
38738380
3873C780
3C71C780
3C71C700
3C61C700
1CE1E700
1CE0E700
1CE0EF00
1EE0EE00
1FC0EE00
0FC07E00
0FC07E00
0FC07E00
0F807C00
0F807C00
ENDCHAR
STARTCHAR U+0058
ENCODING 88
SWIDTH 500 0
DWIDTH 19 0
BBX 17 24 1 0
BITMAP
F00780
780F00
780F00
3C0E00
3C1E00
1E1C00
1E3C00
0F3800
077800
07F000
03F000
03E000
03E000
07F000
07F000
0F7800
0E3800
1E3C00
1C1E00
3C1E00
780F00
780F00
F00780
F00780
ENDCHAR
STARTCHAR U+0059
ENCODING 89
SWIDTH 500 0
DWIDTH 18 0
BBX 18 24 0 0
BITMAP
F003C0
700780
780780
380F00
3C0F00
3C0E00
1E1E00
1E1C00
0E3C00
0F3800
077800
07F000
03F000
03E000
01E000
01E000
01E000
01E000
01E000
01E000
01E000
01E000
01E000
01E000
ENDCHAR
STARTCHAR U+005A
ENCODING 90
SWIDTH 500 0
DWIDTH 19 0
BBX 16 24 2 0
BITMAP
7FFF
7FFF
7FFF
001E
003C
003C
0078
0078
00F0
01E0
01E0
03C0
0780
0780
0F00
1F00
1E00
3C00
3C00
7800
F000
FFFF
FFFF
FFFF
ENDCHAR
STARTCHAR U+005B
ENCODING 91
SWIDTH 500 0
DWIDTH 11 0
BBX 7 30 3 -5
BITMAP
FE
FE
E0
E0
E0
E0
E0
E0
E0
E0
E0
E0
E0
E0
E0
E0
E0
E0
E0
E0
E0
E0
E0
E0
E0
E0
E0
E0
FE
FE
ENDCHAR
STARTCHAR U+005C
ENCODING 92
SWIDTH 500 0
DWIDTH 12 0
BBX 11 31 1 -6
BITMAP
C000
E000
E000
6000
7000
7000
3000
3000
3800
3800
1800
1C00
1C00
0C00
0C00
0E00
0E00
0600
0700
0700
0300
0300
0380
0380
0180
01C0
01C0
00C0
00C0
00E0
00E0
ENDCHAR
STARTCHAR U+005D
ENCODING 93
SWIDTH 500 0
DWIDTH 11 0
BBX 7 30 1 -5
BITMAP
FE
FE
0E
0E
0E
0E
0E
0E
0E
0E
0E
0E
0E
0E
0E
0E
0E
0E
0E
0E
0E
0E
0E
0E
0E
0E
0E
0E
FE
FE
ENDCHAR
STARTCHAR U+005E
ENCODING 94
SWIDTH 500 0
DWIDTH 18 0
BBX 14 14 2 10
BITMAP
0780
0780
07C0
0FC0
0EC0
1CE0
1CE0
1C70
3870
3870
7038
7038
703C
E01C
ENDCHAR
STARTCHAR U+005F
ENCODING 95
SWIDTH 500 0
DWIDTH 18 0
BBX 18 2 0 -5
BITMAP
FFFFC0
FFFFC0
ENDCHAR
STARTCHAR U+0060
ENCODING 96
SWIDTH 500 0
DWIDTH 20 0
BBX 8 8 4 21
BITMAP
20
70
F8
7C
3C
1E
0F
02
ENDCHAR
STARTCHAR U+0061
ENCODING 97
SWIDTH 500 0
DWIDTH 18 0
BBX 14 18 2 0
BITMAP
0FC0
3FF0
7FF8
7078
003C
003C
003C
03FC
1FFC
3E3C
783C
F03C
E03C
E03C
F0FC
FFFC
7F9C
1E1C
ENDCHAR
STARTCHAR U+0062
ENCODING 98
SWIDTH 500 0
DWIDTH 20 0
BBX 16 25 3 0
BITMAP
E000
E000
E000
E000
E000
E000
E000
E3E0
E7F8
FFFC
FC7C
F01E
E01E
E01E
E00E
E00F
E00E
E00E
E01E
E01E
F03E
F87C
FFF8
EFF0
E3C0
ENDCHAR
STARTCHAR U+0063
ENCODING 99
SWIDTH 500 0
DWIDTH 17 0
BBX 13 18 2 0
BITMAP
07E0
1FF8
3FF8
7C30
7800
F000
F000
F000
E000
E000
F000
F000
F000
7800
7C38
3FF8
1FF8
07E0
ENDCHAR
STARTCHAR U+0064
ENCODING 100
SWIDTH 500 0
DWIDTH 20 0
BBX 15 25 2 0
BITMAP
000E
000E
000E
000E
000E
000E
000E
07CE
1FEE
3FFE
7C3E
781E
F00E
F00E
F00E
E00E
E00E
F00E
F00E
F00E
F81E
7C3E
3FFE
3FEE
0F8E
ENDCHAR
STARTCHAR U+0065
ENCODING 101
SWIDTH 500 0
DWIDTH 18 0
BBX 15 18 2 0
BITMAP
07C0
1FF0
3FF8
7C3C
701C
F01C
E01E
FFFE
FFFE
FFFE
E000
F000
F000
7800
7C18
3FFC
1FF8
07E0
ENDCHAR
STARTCHAR U+0066
ENCODING 102
SWIDTH 500 0
DWIDTH 11 0
BBX 11 26 1 0
BITMAP
07E0
0FE0
1FE0
1E00
1C00
3C00
3C00
3C00
FFC0
FFC0
FFC0
3C00
3C00
3C00
3C00
3C00
3C00
3C00
3C00
3C00
3C00
3C00
3C00
3C00
3C00
3C00
ENDCHAR
STARTCHAR U+0067
ENCODING 103
SWIDTH 500 0
DWIDTH 19 0
BBX 16 25 2 -7
BITMAP
0FFF
3FFF
7FFF
7878
F038
F038
F038
F038
7078
3CF0
3FE0
3FC0
7000
7000
7000
7FF8
3FFE
7FFF
F00F
E00F
E00F
E01E
FCFC
7FF8
1FE0
ENDCHAR
STARTCHAR U+0068
ENCODING 104
SWIDTH 500 0
DWIDTH 20 0
BBX 14 25 3 0
BITMAP
E000
E000
E000
E000
E000
E000
E000
E1E0
E7F8
FFF8
FC7C
F83C
F01C
E01C
E01C
E01C
E01C
E01C
E01C
E01C
E01C
E01C
E01C
E01C
E01C
ENDCHAR
STARTCHAR U+0069
ENCODING 105
SWIDTH 500 0
DWIDTH 9 0
BBX 5 25 2 0
BITMAP
70
F8
F8
70
00
00
00
70
70
70
70
70
70
70
70
70
70
70
70
70
70
70
70
70
70
ENDCHAR
STARTCHAR U+006A
ENCODING 106
SWIDTH 500 0
DWIDTH 9 0
BBX 8 32 -1 -7
BITMAP
0E
1F
1F
0E
00
00
00
0E
0E
0E
0E
0E
0E
0E
0E
0E
0E
0E
0E
0E
0E
0E
0E
0E
0E
0E
0E
0E
1E
FE
FC
F8
ENDCHAR
STARTCHAR U+006B
ENCODING 107
SWIDTH 500 0
DWIDTH 18 0
BBX 15 26 3 0
BITMAP
E000
E000
E000
E000
E000
E000
E000
E000
E03C
E078
E0F0
E0F0
E1E0
E3C0
E780
EF80
FF80
FFC0
FDC0
F9E0
F0F0
E0F0
E078
E03C
E03C
E01E
ENDCHAR
STARTCHAR U+006C
ENCODING 108
SWIDTH 500 0
DWIDTH 10 0
BBX 5 26 3 0
BITMAP
E0
E0
E0
E0
E0
E0
E0
E0
E0
E0
E0
E0
E0
E0
E0
E0
E0
E0
E0
E0
E0
E0
F0
F8
F8
38
ENDCHAR
STARTCHAR U+006D
ENCODING 109
SWIDTH 500 0
DWIDTH 30 0
BBX 25 18 3 0
BITMAP
E3E07C00
E7F1FE00
EFFBFF00
FC7F9F00
F83E0F00
F03C0700
E03C0780
E03C0780
E03C0780
E03C0780
E03C0780
E03C0780
E03C0780
E03C0780
E03C0780
E03C0780
E03C0780
E03C0780
ENDCHAR
STARTCHAR U+006E
ENCODING 110
SWIDTH 500 0
DWIDTH 20 0
BBX 14 18 3 0
BITMAP
E1E0
E7F8
EFF8
FC7C
F83C
F01C
E01C
E01C
E01C
E01C
E01C
E01C
E01C
E01C
E01C
E01C
E01C
E01C
ENDCHAR
STARTCHAR U+006F
ENCODING 111
SWIDTH 500 0
DWIDTH 20 0
BBX 16 18 2 0
BITMAP
07E0
1FF0
3FFC
7C3C
781E
F01E
F00F
F00F
E00F
E00F
F00F
F00F
F00F
781E
7C3C
3FFC
1FF8
07E0
ENDCHAR
STARTCHAR U+0070
ENCODING 112
SWIDTH 500 0
DWIDTH 20 0
BBX 16 25 3 -7
BITMAP
E3E0
E7F8
FFFC
FC7C
F01E
E01E
E01E
E00E
E00F
E00E
E00E
E01E
E01E
F03E
F87C
FFF8
FFF0
E3C0
E000
E000
E000
E000
E000
E000
E000
ENDCHAR
STARTCHAR U+0071
ENCODING 113
SWIDTH 500 0
DWIDTH 20 0
BBX 15 25 2 -7
BITMAP
07CE
1FEE
3FFE
7C3E
781E
F00E
F00E
F00E
E00E
E00E
F00E
F00E
F00E
F81E
7C3E
3FFE
3FEE
0F8E
000E
000E
000E
000E
000E
000E
000E
ENDCHAR
STARTCHAR U+0072
ENCODING 114
SWIDTH 500 0
DWIDTH 13 0
BBX 10 18 3 0
BITMAP
E3C0
E7C0
EFC0
FE00
F800
F000
F000
E000
E000
E000
E000
E000
E000
E000
E000
E000
E000
E000
ENDCHAR
STARTCHAR U+0073
ENCODING 115
SWIDTH 500 0
DWIDTH 15 0
BBX 13 18 1 0
BITMAP
0FC0
1FF0
3FF8
7830
7000
7800
7800
3F00
1FC0
07F0
01F8
0078
0038
0038
7078
FFF0
3FE0
0FC0
ENDCHAR
STARTCHAR U+0074
ENCODING 116
SWIDTH 500 0
DWIDTH 13 0
BBX 11 23 1 0
BITMAP
1C00
1C00
1C00
1C00
1C00
FFE0
FFE0
FFE0
3C00
3C00
3C00
3C00
3C00
3C00
3C00
3C00
3C00
3C00
1C00
1E00
1FE0
0FE0
07E0
ENDCHAR
STARTCHAR U+0075
ENCODING 117
SWIDTH 500 0
DWIDTH 20 0
BBX 14 18 3 0
BITMAP
E03C
E03C
E03C
E03C
E03C
E03C
E03C
E03C
E03C
E03C
E03C
E03C
E03C
F07C
F8FC
7FDC
7F9C
1E1C
ENDCHAR
STARTCHAR U+0076
ENCODING 118
SWIDTH 500 0
DWIDTH 17 0
BBX 16 18 1 0
BITMAP
E00F
F00E
F00E
701E
781C
781C
383C
3838
3C38
1C78
1C70
1E70
0E70
0EE0
0FE0
07E0
07C0
07C0
ENDCHAR
STARTCHAR U+0077
ENCODING 119
SWIDTH 500 0
DWIDTH 27 0
BBX 24 18 1 0
BITMAP
F01C07
F03C07
703E07
703E0F
787E0E
78760E
38770E
38671E
3CE71C
3CE39C
1CE39C
1CC39C
1CC3B8
1FC1B8
0FC1F8
0F81F8
0F81F0
0F80F0
ENDCHAR
STARTCHAR U+0078
ENCODING 120
SWIDTH 500 0
DWIDTH 17 0
BBX 15 18 1 0
BITMAP
F01E
783C
7838
3C78
1C70
1EF0
0FE0
0FE0
07C0
07C0
0FE0
1FE0
1CF0
3C70
3878
783C
F03C
F01E
ENDCHAR
STARTCHAR U+0079
ENCODING 121
SWIDTH 500 0
DWIDTH 17 0
BBX 16 25 1 -7
BITMAP
E00F
F00E
F00E
701E
781C
381C
3C3C
3C38
1C38
1E78
0E70
0E70
0F70
07E0
07E0
03E0
03C0
03C0
03C0
0380
0780
0F00
7E00
7E00
7800
ENDCHAR
STARTCHAR U+007A
ENCODING 122
SWIDTH 500 0
DWIDTH 16 0
BBX 14 18 1 0
BITMAP
7FF8
7FF8
7FF8
0070
00F0
01E0
01C0
03C0
0780
0700
0F00
1E00
1E00
3C00
7800
7FFC
FFFC
FFFC
ENDCHAR
STARTCHAR U+007B
ENCODING 123
SWIDTH 500 0
DWIDTH 11 0
BBX 9 30 1 -5
BITMAP
0780
0F80
1E00
1C00
1C00
1C00
1C00
1C00
1C00
1C00
1C00
1C00
1C00
3C00
F800
F800
3C00
1C00
1C00
1C00
1C00
1C00
1C00
1C00
1C00
1C00
1C00
1E00
0F80
0780
ENDCHAR
STARTCHAR U+007C
ENCODING 124
SWIDTH 500 0
DWIDTH 9 0
BBX 3 36 3 -9
BITMAP
E0
E0
E0
E0
E0
E0
E0
E0
E0
E0
E0
E0
E0
E0
E0
E0
E0
E0
E0
E0
E0
E0
E0
E0
E0
E0
E0
E0
E0
E0
E0
E0
E0
E0
E0
E0
ENDCHAR
STARTCHAR U+007D
ENCODING 125
SWIDTH 500 0
DWIDTH 11 0
BBX 9 30 1 -5
BITMAP
F000
FC00
1C00
1C00
1C00
1C00
1C00
1C00
1C00
1C00
1C00
1C00
1C00
0F00
0780
0780
0E00
1C00
1C00
1C00
1C00
1C00
1C00
1C00
1C00
1C00
1C00
1C00
FC00
F800
ENDCHAR
STARTCHAR U+007E
ENCODING 126
SWIDTH 500 0
DWIDTH 18 0
BBX 16 6 1 9
BITMAP
0C00
3F02
7F87
F3FE
60FC
0078
ENDCHAR
STARTCHAR U+3002
ENCODING 12290
SWIDTH 500 0
DWIDTH 32 0
BBX 10 11 1 -3
BITMAP
1E00
3F80
7180
60C0
C0C0
C0C0
C0C0
60C0
7180
3F80
1E00
ENDCHAR
STARTCHAR U+4E1A
ENCODING 19994
SWIDTH 500 0
DWIDTH 32 0
BBX 28 29 2 -2
BITMAP
00606000
0070E000
0070E000
0070E000
0070E000
0070E000
0070E000
0070E000
7070E060
7070E0E0
7870E0E0
3870E1C0
3870E1C0
1C70E1C0
1C70E380
1C70E380
0E70E700
0E70E700
0E70EE00
0E70EE00
0070E000
0070E000
0070E000
0070E000
0070E000
0070E000
FFFFFFF0
FFFFFFF0
FFFFFFF0
ENDCHAR
STARTCHAR U+4F5C
ENCODING 20316
SWIDTH 500 0
DWIDTH 32 0
BBX 30 30 1 -3
BITMAP
00808000
01C1C000
01C1C000
0383C000
03838000
0787FFFC
0707FFFC
0F0FFFFC
1E0E7000
1E1E7000
3E3C7000
7E387000
FE787FF8
7E307FF8
6E007FF8
0E007000
0E007000
0E007000
0E007000
0E007000
0E007FF8
0E007FF8
0E007FF8
0E007000
0E007000
0E007000
0E007000
0E007000
0E007000
0E007000
ENDCHAR
STARTCHAR U+4F9D
ENCODING 20381
SWIDTH 500 0
DWIDTH 32 0
BBX 30 30 1 -3
BITMAP
01806000
01C07000
03807000
03803800
07803800
07003000
0F7FFFF8
0E7FFFF8
1E7FFFF8
1E01F000
3E01F000
7E03F000
FE07B830
FE0F3878
6E1E38F8
0E3E1DE0
0E7E1FC0
0FFE1F80
0FEE0F00
0ECE0F00
0E0E0700
0E0E0780
0E0E03C0
0E0E01C0
0E0E11E0
0E0EF0F0
0E0FF87C
0E1FC038
0E1F0010
0E180000
ENDCHAR
STARTCHAR U+5143
ENCODING 20803
SWIDTH 500 0
DWIDTH 32 0
BBX 29 28 2 -3
BITMAP
1FFFFF80
1FFFFF80
1FFFFF80
00000000
00000000
00000000
00000000
00000000
00000000
FFFFFFF0
FFFFFFF0
FFFFFFF0
00E0E000
00E0E000
01E0E000
01C0E000
01C0E000
01C0E000
01C0E000
03C0E020
0380E030
0780E038
0F00E030
1F00E030
3E00F070
FC007FF0
F8007FE0
60003FC0
ENDCHAR
STARTCHAR U+5148
ENCODING 20808
SWIDTH 500 0
DWIDTH 32 0
BBX 28 30 2 -3
BITMAP
00070000
07070000
07070000
07070000
07070000
0FFFFFC0
0FFFFFC0
1FFFFFC0
1C070000
3C070000
38070000
38070000
10070000
00070000
FFFFFFF0
FFFFFFF0
FFFFFFF0
00E0E000
00E0E000
00E0E000
01C0E000
01C0E000
03C0E000
0380E030
0780E030
0F00F070
1F007070
7E007FF0
F8007FE0
70003FC0
ENDCHAR
STARTCHAR U+5165
ENCODING 20837
SWIDTH 500 0
DWIDTH 32 0
BBX 29 28 2 -2
BITMAP
00400000
00E00000
01F00000
00F80000
003C0000
003C0000
001E0000
000F0000
000F0000
000F8000
001FC000
001FC000
001DE000
003CE000
0038F000
00787000
00787800
00F03800
00F03C00
01E01E00
03C01F00
03C00F00
07800780
1F0007E0
3E0003F0
7C0001F8
F80000F0
70000030
ENDCHAR
STARTCHAR U+516D
ENCODING 20845
SWIDTH 500 0
DWIDTH 32 0
BBX 28 30 2 -3
BITMAP
000C0000
001E0000
001E0000
000F0000
000F0000
00078000
00070000
00000000
FFFFFFF0
FFFFFFF0
FFFFFFF0
00000000
00000000
00000000
00001000
01C07800
01E07800
03C03C00
03C01C00
07801E00
07000F00
0F000F00
1E000780
1E0003C0
3C0003C0
780001E0
F80001E0
F00000F0
60000060
20000000
ENDCHAR
STARTCHAR U+5199
ENCODING 20889
SWIDTH 500 0
DWIDTH 32 0
BBX 27 29 2 -3
BITMAP
7FFFFFE0
FFFFFFE0
FFFFFFE0
E00000E0
E1C000E0
E1C000E0
E1C000E0
01FFFE00
01FFFE00
03FFFE00
03800000
03800000
03800000
07FFFF00
07FFFF00
07FFFF00
00000700
00000700
00000700
7FFFE700
7FFFE700
7FFFE700
00000700
00000E00
00000E00
00001E00
0007FC00
0007FC00
0003F000
ENDCHAR
STARTCHAR U+5230
ENCODING 21040
SWIDTH 500 0
DWIDTH 32 0
BBX 27 30 2 -3
BITMAP
00000060
000000E0
FFFF80E0
FFFFB8E0
7FFF38E0
0F0038E0
0E3838E0
1E1C38E0
1C1C38E0
381E38E0
7FFF38E0
7FFF38E0
3F0338E0
000238E0
01C038E0
01C038E0
01C038E0
7FFF38E0
7FFF38E0
7FFF38E0
01C038E0
01C038E0
01C038E0
01C100E0
01FF00E0
0FFF00E0
FFFC00E0
FF800FE0
F0000FE0
00000780
ENDCHAR
STARTCHAR U+5468
ENCODING 21608
SWIDTH 500 0
DWIDTH 32 0
BBX 27 29 1 -3
BITMAP
0FFFFFE0
0FFFFFE0
0FFFFFE0
0E0000E0
0E0380E0
0E0380E0
0E0780E0
0EFFFCE0
0EFFFCE0
0E0380E0
0E0380E0
0E0780E0
0CFFFEE0
0CFFFEE0
1C0000E0
1C0000E0
1C0000E0
1C7FF8E0
1C7FF8E0
1C7018E0
1C7018E0
1C7018E0
387038E0
387FF8E0
387FF8E0
707000E0
70700FE0
F0000FE0
20000FC0
ENDCHAR
STARTCHAR U+5929
ENCODING 22825
SWIDTH 500 0
DWIDTH 32 0
BBX 29 28 2 -3
BITMAP
7FFFFFC0
7FFFFFC0
7FFFFFC0
000E0000
000E0000
000E0000
000E0000
000E0000
000E0000
000E0000
FFFFFFF0
FFFFFFF0
FFFFFFF0
001F0000
001F8000
001F8000
003DC000
0039C000
0078E000
00F0F000
01E07800
03E03C00
07C01E00
1F801F80
7E0007E0
FC0003F8
F00000F0
40000020
ENDCHAR
STARTCHAR U+5B66
ENCODING 23398
SWIDTH 500 0
DWIDTH 32 0
BBX 28 30 2 -3
BITMAP
040E0300
1E0E0380
0E0F0780
07070700
07070E00
7FFFFFE0
7FFFFFF0
7FFFFFF0
60000070
60000070
60000070
67FFFC70
07FFFE00
03FFFC00
0000F000
0003E000
000F8000
000E0000
FFFFFFF0
FFFFFFF0
FFFFFFF0
000E0000
000E0000
000E0000
000E0000
000E0000
000E0000
01FE0000
01FE0000
00FC0000
ENDCHAR
STARTCHAR U+5B9D
ENCODING 23453
SWIDTH 500 0
DWIDTH 32 0
BBX 28 29 2 -2
BITMAP
000E0000
000E0000
000F0000
00070000
7FFFFFE0
7FFFFFE0
7FFFFFE0
700000E0
700000E0
700000E0
7FFFFFE0
1FFFFF80
1FFFFF80
000F0000
000F0000
000F0000
000F0000
000F0000
0FFFFF00
0FFFFF00
0FFFFF00
000F1800
000F3C00
000F1E00
000F0F00
000F0700
7FFFFFE0
FFFFFFF0
FFFFFFF0
ENDCHAR
STARTCHAR U+5C3D
ENCODING 23613
SWIDTH 500 0
DWIDTH 32 0
BBX 30 29 1 -3
BITMAP
07FFFFC0
07FFFFE0
07FFFFE0
070000E0
070000E0
070000E0
070000E0
070000E0
07FFFFE0
07FFFFE0
07FFFFC0
0F001C00
0E000E00
0E000E00
0E100F00
1E3E0700
1C3FC780
1C07F3C0
3C01F1E0
380060F0
780000F8
F000007C
60E00018
21FC0000
01FFC000
001FF000
0003FE00
00007C00
00000C00
ENDCHAR
STARTCHAR U+5C71
ENCODING 23665
SWIDTH 500 0
DWIDTH 32 0
BBX 26 30 3 -3
BITMAP
000C0000
001E0000
001E0000
001E0000
001E0000
001E0000
001E0000
E01E01C0
E01E01C0
E01E01C0
E01E01C0
E01E01C0
E01E01C0
E01E01C0
E01E01C0
E01E01C0
E01E01C0
E01E01C0
E01E01C0
E01E01C0
E01E01C0
E01E01C0
E01E01C0
E01E01C0
E01E01C0
FFFFFFC0
FFFFFFC0
FFFFFFC0
000001C0
000001C0
ENDCHAR
STARTCHAR U+6539
ENCODING 25913
SWIDTH 500 0
DWIDTH 32 0
BBX 29 30 2 -3
BITMAP
00007000
00007000
FFF0E000
FFF0E000
FFF0E000
0071E000
0071FFF0
0071FFF0
0073FFF0
0073C1C0
0073C1C0
7FF7C1C0
7FFFC1C0
7FFEE380
700EE380
70046380
70007780
70007700
70003F00
70003E00
70001E00
70301E00
71F03E00
7FF07F00
7FC0F780
FF01E3C0
F807C1F0
600F80F8
000F0070
00040020
ENDCHAR
STARTCHAR U+653E
ENCODING 25918
SWIDTH 500 0
DWIDTH 32 0
BBX 30 30 1 -3
BITMAP
03003800
03803800
03803800
01C03800
01807000
7FFE7000
7FFE7FFC
7FFCFFFC
0E00FFFC
0E00E0E0
0E01E0E0
0E01F0E0
0FFBF0E0
0FFFF0C0
0FFFB1C0
0E3B39C0
0E3939C0
0E383B80
0E381F80
0C381F80
1C380F00
1C380F00
1C381F00
1C383F80
38383FC0
383879E0
7839F1F0
F3FFE0FC
E3F78038
63E30010
ENDCHAR
STARTCHAR U+65E5
ENCODING 26085
SWIDTH 500 0
DWIDTH 32 0
BBX 22 28 5 -3
BITMAP
FFFFFC
FFFFFC
FFFFFC
F0001C
E0001C
E0001C
E0001C
E0001C
E0001C
E0001C
E0001C
FFFFFC
FFFFFC
FFFFFC
E0001C
E0001C
E0001C
E0001C
E0001C
E0001C
E0001C
E0001C
E0001C
FFFFFC
FFFFFC
FFFFFC
E0001C
E0001C
ENDCHAR
STARTCHAR U+65E6
ENCODING 26086
SWIDTH 500 0
DWIDTH 32 0
BBX 28 27 2 -2
BITMAP
0FFFFF00
0FFFFF00
0FFFFF00
0E000700
0E000700
0E000700
0E000700
0E000700
0FFFFF00
0FFFFF00
0FFFFF00
0E000700
0E000700
0E000700
0E000700
0E000700
0E000700
0FFFFF00
0FFFFF00
0FFFFF00
00000000
00000000
00000000
00000000
FFFFFFF0
FFFFFFF0
FFFFFFF0
ENDCHAR
STARTCHAR U+6709
ENCODING 26377
SWIDTH 500 0
DWIDTH 32 0
BBX 28 30 2 -3
BITMAP
00380000
00380000
00780000
00700000
FFFFFFF0
FFFFFFF0
FFFFFFF0
01E00000
01C00000
03C00000
07FFFF00
07FFFF00
0FFFFF00
1F800700
3F800700
7B800700
F3FFFF00
E3FFFF00
43800700
03800700
03800700
03FFFF00
03FFFF00
03800700
03800700
03800700
03800700
03807F00
03807F00
03807E00
ENDCHAR
STARTCHAR U+6CB3
ENCODING 27827
SWIDTH 500 0
DWIDTH 32 0
BBX 30 29 1 -3
BITMAP
38000000
3E7FFFFC
1FFFFFFC
07FFFFFC
030000E0
000000E0
000000E0
000000E0
001FF8E0
701FF8E0
FC1FF8E0
3E1838E0
1E1838E0
041838E0
001838E0
001838E0
001838E0
031FF8E0
039FF8E0
079FF8E0
071800E0
0F1800E0
0E0000E0
1C0000E0
3C0000E0
380000E0
78007FE0
30003FE0
00003F80
ENDCHAR
STARTCHAR U+6D41
ENCODING 27969
SWIDTH 500 0
DWIDTH 32 0
BBX 29 30 2 -3
BITMAP
0000E000
7000E000
7C00F000
3E007000
0FFFFFF0
06FFFFF0
007FFFF0
00038200
00070700
400E0380
F01E03C0
F87FFFE0
7E7FFFF0
1C7FE070
00000060
00000000
0018E300
0018E300
0618E300
0718E300
0F18E300
0E18E300
1C38E300
1C38E310
3878E318
7870E318
70F0E398
F1E0E3F8
61C063F0
00800000
ENDCHAR
STARTCHAR U+6D77
ENCODING 28023
SWIDTH 500 0
DWIDTH 32 0
BBX 29 30 2 -3
BITMAP
000C0000
381E0000
7E1C0000
1F1FFFF0
073FFFF0
023FFFF0
00700000
00F00000
00E00000
01FFFFE0
40DFFFE0
F01FFFE0
7C1CE0E0
3C1870C0
081838C0
01FFFFF8
01FFFFF8
01FFFFF8
0E38C1C0
0E38E1C0
1C3871C0
1C3031C0
1C7FFFF0
387FFFF0
387FFFF0
78000180
70000380
70002780
60003F80
00003E00
ENDCHAR
STARTCHAR U+7434
ENCODING 29748
SWIDTH 500 0
DWIDTH 32 0
BBX 28 29 2 -3
BITMAP
FFF9FFF0
FFF9FFF0
07000E00
07000E00
07000E00
7FF0FFE0
7FF0FFE0
07000E00
07000E00
07000E00
FFF9FFF0
FFFFFFF0
000F0000
003FC000
00FBF000
03F0FC00
0FCE3F80
7F0F0FF0
FC0783F0
F0030060
0FFFFE00
0FFFFE00
0FFFFE00
00003C00
00007800
0000F000
0001E000
0003C000
00018000
ENDCHAR
STARTCHAR U+767D
ENCODING 30333
SWIDTH 500 0
DWIDTH 32 0
BBX 24 30 4 -3
BITMAP
003800
007800
007800
007000
00F000
FFFFFF
FFFFFF
FFFFFF
E0000F
E0000F
E0000F
E0000F
E0000F
E0000F
E0000F
FFFFFF
FFFFFF
FFFFFF
E0000F
E0000F
E0000F
E0000F
E0000F
E0000F
E0000F
FFFFFF
FFFFFF
FFFFFF
E0000F
E0000F
ENDCHAR
STARTCHAR U+8BFE
ENCODING 35838
SWIDTH 500 0
DWIDTH 32 0
BBX 30 29 1 -3
BITMAP
180FFFF0
1C0FFFF0
1E0E3C70
0F0C3870
070C3870
020C3870
000FFFF0
000FFFF0
000C3870
FE0C3870
FE0C3870
7E0FFFF0
060FFFF0
06003C00
06003800
06003800
063FFFF8
063FFFF8
063FFFF8
0600FE00
0661FF00
07E1FB80
07E3B9C0
0F8F38E0
0F1E3878
1E7C387C
1C383818
08303800
00003800
ENDCHAR
STARTCHAR U+8D1D
ENCODING 36125
SWIDTH 500 0
DWIDTH 32 0
BBX 27 29 2 -3
BITMAP
0FFFFF00
0FFFFF80
0FFFFF80
0C000780
0C000780
0C060780
0C0F0780
0C0F0780
0C0F0780
0C0F0780
0C0F0780
0C0F0780
0C0F0780
0C0F0780
0C0E0780
0C0E0780
0C0E0780
0C0E0780
0C1E0780
0C1C0300
003C0000
0078C000
00F1F000
01E0FC00
07C03F00
1F800FC0
FE0003E0
7C0001E0
60000040
ENDCHAR
STARTCHAR U+8FD8
ENCODING 36824
SWIDTH 500 0
DWIDTH 32 0
BBX 30 29 1 -3
BITMAP
38000000
3C3FFFF8
1E3FFFF8
0F3FFFF8
07803C00
03003800
00007800
0000F000
0000F000
0001F000
FE03F700
FE07F780
FE0FF3C0
0E1F71E0
0E3E70F0
0E7C7078
0EF87078
0E607030
0E007000
0E007000
0E007000
0E007000
0E007000
1F007000
3FC00000
7BF0000C
F0FFFFFC
603FFFF8
600FFFF8
ENDCHAR
STARTCHAR U+94A2
ENCODING 38050
SWIDTH 500 0
DWIDTH 32 0
BBX 29 30 1 -3
BITMAP
0E000000
0E07FFF0
1C07FFF8
1FE7FFF8
3FF60038
3FF60138
700603B8
F0064338
6006E338
5FE6E738
1FE67738
1FE63638
07063E38
07061E38
07061C38
07061C38
7FF61E38
7FF61E38
7FF63F38
07063F38
07067338
070673B8
0706E3B8
0707E1B8
0777C038
07F64038
07E60038
0F8603F8
060601F0
04060180
ENDCHAR
STARTCHAR U+9EC4
ENCODING 40644
SWIDTH 500 0
DWIDTH 32 0
BBX 28 30 2 -3
BITMAP
00E03800
00E03800
3FFFFFC0
3FFFFFC0
3FFFFFC0
00E03800
00E03800
00E03800
FFFFFFF0
FFFFFFF0
FFFFFFF0
000F0000
000F0000
1FFFFF80
1FFFFF80
1C0F0380
1C0F0380
1FFFFF80
1FFFFF80
1C0F0380
1C0F0380
1C0F0380
1FFFFF80
1FFFFF80
00402000
01E07C00
07E07F00
3F800FE0
FE0003F0
70000060
ENDCHAR
STARTCHAR U+FF0C
ENCODING 65292
SWIDTH 500 0
DWIDTH 32 0
BBX 6 11 5 -4
BITMAP
38
7C
7C
7C
3C
0C
1C
18
78
F0
E0
ENDCHAR
ENDFONT
