STARTFONT 2.1
FONT sans-b-40
SIZE 40 75 75
FONTBOUNDINGBOX 80 59 0 -12
STARTPROPERTIES 3
PIXEL_SIZE 40
FONT_ASCENT 47
FONT_DESCENT 12
ENDPROPERTIES
CHARS 127
STARTCHAR U+0020
ENCODING 32
SWIDTH 500 0
DWIDTH 9 0
BBX 0 0 0 0
BITMAP
ENDCHAR
STARTCHAR U+0021
ENCODING 33
SWIDTH 500 0
DWIDTH 15 0
BBX 7 31 4 -1
BITMAP
FC
FC
7C
7C
7C
7C
7C
7C
7C
7C
7C
7C
7C
7C
7C
7C
7C
78
78
78
00
00
00
10
7C
FE
FE
FE
FE
7C
38
ENDCHAR
STARTCHAR U+0022
ENCODING 34
SWIDTH 500 0
DWIDTH 23 0
BBX 16 14 3 17
BITMAP
FC3F
7C1F
7C1F
7C1F
7C1F
7C1F
7C1F
7C1F
7C1F
7C1F
7C1F
781E
380E
380E
ENDCHAR
STARTCHAR U+0023
ENCODING 35
SWIDTH 500 0
DWIDTH 24 0
BBX 20 30 2 0
BITMAP
038380
078380
078380
078380
078380
070780
070780
070780
7FFFF0
FFFFF0
FFFFF0
FFFFF0
0F0700
0E0F00
0E0F00
0E0F00
0E0F00
FFFFE0
FFFFE0
FFFFE0
FFFFE0
1C1E00
1C1E00
1C1E00
1C1E00
3C1E00
3C1C00
3C1C00
3C1C00
381C00
ENDCHAR
STARTCHAR U+0024
ENCODING 36
SWIDTH 500 0
DWIDTH 24 0
BBX 19 39 2 -5
BITMAP
00F000
00F000
00F000
00F000
00F000
07FE00
0FFF00
1FFFC0
3FFFC0
3F8F80
7E0300
7E0000
7E0000
7E0000
7E0000
3F0000
3FC000
1FF000
0FFC00
07FE00
01FF00
00FF80
003FC0
000FC0
0007E0
0007E0
0007E0
0007E0
3007C0
7C1FC0
FFFFC0
FFFF80
7FFF00
1FFE00
03F800
00F000
00F000
00F000
00F000
ENDCHAR
STARTCHAR U+0025
ENCODING 37
SWIDTH 500 0
DWIDTH 39 0
BBX 36 32 1 -1
BITMAP
07C000F000
1FF000E000
3FF801E000
3EF801C000
7C7C03C000
783C038000
783C078000
F83E070000
F01E0F0000
F01E0E0000
F83E1E0000
F83E1C0000
783C3C0000
783C383F00
783C78FFC0
7C7870FFC0
3FF8F1F3E0
1FF0E1E1E0
0FE1E3C0F0
0001C3C0F0
0003C3C0F0
000383C0F0
000783C0F0
000703C0F0
000F03C0F0
000E03C0F0
001E03E1F0
001C01E1E0
003C01FFE0
003800FFC0
0078007F80
0070003E00
ENDCHAR
STARTCHAR U+0026
ENCODING 38
SWIDTH 500 0
DWIDTH 30 0
BBX 28 32 1 -1
BITMAP
007C0000
01FF0000
03FF8000
07FFC000
07C7C000
0F83C000
0F83C000
0F83C000
0F87C000
0F87C000
0F8F8000
07FF8000
07FF0000
07FE0000
03FC03E0
0FF003E0
1FF807E0
3FFC07C0
3FFE07C0
7E7F0FC0
7E3F8F80
FC1FDF80
FC1FFF00
FC0FFE00
FC07FE00
FE03FF00
7F03FFC0
7FFFFFF0
3FFFFFE0
1FFFCFE0
0FFF03E0
03FC0040
ENDCHAR
STARTCHAR U+0027
ENCODING 39
SWIDTH 500 0
DWIDTH 13 0
BBX 6 14 3 17
BITMAP
FC
7C
7C
7C
7C
7C
7C
7C
7C
7C
7C
78
38
38
ENDCHAR
STARTCHAR U+0028
ENCODING 40
SWIDTH 500 0
DWIDTH 15 0
BBX 10 41 3 -8
BITMAP
0300
07C0
0780
0F80
0F00
1F00
1F00
1E00
3E00
3E00
3C00
7C00
7C00
7C00
7C00
7800
7800
7800
7800
F800
F800
F800
7800
7800
7800
7800
7C00
7C00
7C00
3C00
3C00
3E00
3E00
1E00
1F00
0F00
0F80
0F80
07C0
03C0
0300
ENDCHAR
STARTCHAR U+0029
ENCODING 41
SWIDTH 500 0
DWIDTH 15 0
BBX 10 41 2 -8
BITMAP
3000
F800
7800
7C00
3C00
3E00
1E00
1E00
1F00
1F00
0F00
0F80
0F80
0F80
0780
0780
0780
07C0
07C0
07C0
07C0
07C0
07C0
0780
0780
0780
0F80
0F80
0F80
0F80
0F00
1F00
1F00
1E00
3E00
3E00
7C00
7C00
7800
F800
1000
ENDCHAR
STARTCHAR U+002A
ENCODING 42
SWIDTH 500 0
DWIDTH 20 0
BBX 16 16 2 17
BITMAP
0180
03C0
03C0
03C0
03C0
7BDF
FFFF
FFFF
3FFC
0FF0
0FF0
0FF8
1F78
3E7C
1C3C
0810
ENDCHAR
STARTCHAR U+002B
ENCODING 43
SWIDTH 500 0
DWIDTH 24 0
BBX 20 22 2 4
BITMAP
00E000
00F000
00F000
00F000
00F000
00F000
00F000
00F000
00F000
FFFFF0
FFFFF0
FFFFF0
FFFFF0
01F000
00F000
00F000
00F000
00F000
00F000
00F000
00F000
00F000
ENDCHAR
STARTCHAR U+002C
ENCODING 44
SWIDTH 500 0
DWIDTH 13 0
BBX 9 15 2 -8
BITMAP
1E00
3F00
7F00
7F80
7F80
3F80
1F80
0780
0780
0F00
1F00
3E00
FC00
7800
7000
ENDCHAR
STARTCHAR U+002D
ENCODING 45
SWIDTH 500 0
DWIDTH 15 0
BBX 11 4 2 9
BITMAP
FFE0
FFE0
FFE0
FFE0
ENDCHAR
STARTCHAR U+002E
ENCODING 46
SWIDTH 500 0
DWIDTH 13 0
BBX 7 8 3 -1
BITMAP
10
7C
FE
FE
FE
FE
7C
38
ENDCHAR
STARTCHAR U+002F
ENCODING 47
SWIDTH 500 0
DWIDTH 16 0
BBX 13 40 1 -8
BITMAP
0078
0078
0078
0078
00F0
00F0
00F0
00F0
01E0
01E0
01E0
01C0
03C0
03C0
03C0
0380
0780
0780
0780
0700
0F00
0F00
0F00
0E00
1E00
1E00
1E00
1C00
3C00
3C00
3C00
3800
7800
7800
7800
7000
F000
F000
F000
E000
ENDCHAR
STARTCHAR U+0030
ENCODING 48
SWIDTH 500 0
DWIDTH 24 0
BBX 20 32 2 -1
BITMAP
01F800
07FE00
0FFF00
1FFF80
3FFF80
3F0FC0
7E07C0
7C07E0
7C07E0
FC03E0
FC03E0
FC03E0
F803F0
F803F0
F803F0
F803F0
F803F0
F803F0
F803F0
F803F0
FC03E0
FC03E0
FC03E0
7C07E0
7C07E0
7E07C0
3F0FC0
3FFF80
1FFF80
0FFF00
07FE00
01F800
ENDCHAR
STARTCHAR U+0031
ENCODING 49
SWIDTH 500 0
DWIDTH 24 0
BBX 18 30 3 0
BITMAP
01F800
07F800
3FF800
7FF800
7FF800
7FF800
01F800
01F800
01F800
01F800
01F800
01F800
01F800
01F800
01F800
01F800
01F800
01F800
01F800
01F800
01F800
01F800
01F800
01F800
01F800
FFFFC0
FFFFC0
FFFFC0
FFFFC0
FFFFC0
ENDCHAR
STARTCHAR U+0032
ENCODING 50
SWIDTH 500 0
DWIDTH 24 0
BBX 20 31 2 0
BITMAP
07F000
1FFC00
3FFF00
FFFF00
FFFF80
F81F80
700FC0
200FC0
000FC0
000FC0
000FC0
000FC0
000FC0
000F80
001F80
001F80
003F00
007E00
00FE00
00FC00
01F800
03F800
07F000
0FE000
1FC000
3F8000
7FFFF0
FFFFF0
FFFFF0
FFFFF0
FFFFF0
ENDCHAR
STARTCHAR U+0033
ENCODING 51
SWIDTH 500 0
DWIDTH 24 0
BBX 20 32 1 -1
BITMAP
01FC00
0FFF00
3FFF80
7FFFC0
3FFFE0
3C0FE0
1807E0
0007E0
0007E0
0007E0
0007E0
0007E0
000FC0
007F80
03FF00
03FE00
03FF00
03FFC0
001FE0
0007E0
0003F0
0003F0
0003F0
0003F0
0003F0
3007F0
7C0FF0
FFFFE0
7FFFC0
3FFF80
1FFF00
03FC00
ENDCHAR
STARTCHAR U+0034
ENCODING 52
SWIDTH 500 0
DWIDTH 24 0
BBX 21 30 1 0
BITMAP
001FC0
003FC0
007FC0
007FC0
00FFC0
00FFC0
01F7C0
03E7C0
03E7C0
07C7C0
0FCFC0
0F8FC0
1F8FC0
1F0FC0
3E0FC0
7E0FC0
7C0FC0
FC0FC0
FFFFF8
FFFFF8
FFFFF8
FFFFF8
000FC0
000FC0
000FC0
000FC0
000FC0
000FC0
000FC0
000FC0
ENDCHAR
STARTCHAR U+0035
ENCODING 53
SWIDTH 500 0
DWIDTH 24 0
BBX 20 31 1 -1
BITMAP
1FFFE0
1FFFE0
1FFFE0
1FFFE0
1FFFE0
1F0000
1F0000
1F0000
1F0000
1F0000
1F0000
1FFE00
1FFF80
3FFFC0
3FFFE0
1E0FE0
0007F0
0003F0
0003F0
0003F0
0003F0
0003F0
0003F0
0003F0
3807F0
7C0FE0
FFFFE0
7FFFC0
3FFF80
0FFF00
03F800
ENDCHAR
STARTCHAR U+0036
ENCODING 54
SWIDTH 500 0
DWIDTH 24 0
BBX 20 32 2 -1
BITMAP
00FE00
03FF80
07FFC0
0FFFE0
1FFFE0
3F83C0
3F0080
7E0000
7E0000
7C0000
7C0000
FC0000
FC7E00
F9FF80
FBFFC0
FFFFC0
FF8FE0
FE07E0
FC03F0
FC03F0
FC03F0
FC01F0
7C03F0
7C03F0
7E03F0
3E03E0
3F07E0
1FDFC0
1FFFC0
0FFF80
03FF00
00FC00
ENDCHAR
STARTCHAR U+0037
ENCODING 55
SWIDTH 500 0
DWIDTH 24 0
BBX 20 30 2 0
BITMAP
FFFFF0
FFFFF0
FFFFF0
FFFFF0
FFFFE0
0007C0
000FC0
000F80
001F00
003F00
003E00
007E00
007C00
007C00
00FC00
00F800
01F800
01F800
01F000
01F000
01F000
03F000
03F000
03F000
03F000
03F000
03F000
03F000
03E000
07E000
ENDCHAR
STARTCHAR U+0038
ENCODING 56
SWIDTH 500 0
DWIDTH 24 0
BBX 20 32 2 -1
BITMAP
01F800
0FFE00
1FFF00
3FFF80
3F1FC0
7E07C0
7E07C0
7C03C0
7C03C0
7E03C0
7E07C0
3F07C0
3F8780
1FEF00
0FFF00
07FE00
0FFF00
1FFF80
3E3FC0
7C0FE0
7C07E0
F803E0
F803F0
F803F0
F803F0
FC03F0
FC07E0
7F0FE0
7FFFC0
3FFF80
0FFF00
03F800
ENDCHAR
STARTCHAR U+0039
ENCODING 57
SWIDTH 500 0
DWIDTH 24 0
BBX 20 32 2 -1
BITMAP
03F000
0FFC00
1FFE00
3FFF00
7FFF80
7E0FC0
FC0FC0
F807C0
F807E0
F803E0
F803E0
F803E0
F803E0
FC07E0
FC0FE0
7F1FF0
7FFFE0
3FFBE0
1FF3E0
07C3E0
0003E0
0003E0
0007E0
0007C0
000FC0
100FC0
383F80
7FFF00
FFFF00
7FFE00
1FF800
07E000
ENDCHAR
STARTCHAR U+003A
ENCODING 58
SWIDTH 500 0
DWIDTH 13 0
BBX 7 23 3 -1
BITMAP
38
7C
FE
FE
FE
FE
7C
10
00
00
00
00
00
00
00
10
7C
FE
FE
FE
FE
7C
38
ENDCHAR
STARTCHAR U+003B
ENCODING 59
SWIDTH 500 0
DWIDTH 13 0
BBX 9 30 2 -8
BITMAP
1C00
3E00
7F00
7F00
7F00
7F00
3E00
0800
0000
0000
0000
0000
0000
0000
0000
1E00
3F00
7F00
7F80
7F80
3F80
1F80
0780
0780
0F00
1F00
3E00
FC00
7800
7000
ENDCHAR
STARTCHAR U+003C
ENCODING 60
SWIDTH 500 0
DWIDTH 24 0
BBX 20 20 2 5
BITMAP
000010
0000F0
0007F0
001FF0
00FFF0
03FFC0
1FFE00
7FF000
FF8000
FE0000
FE0000
FFC000
7FF000
1FFE00
03FFC0
00FFF0
001FF0
0003F0
0000F0
000010
ENDCHAR
STARTCHAR U+003D
ENCODING 61
SWIDTH 500 0
DWIDTH 24 0
BBX 20 14 2 8
BITMAP
FFFFF0
FFFFF0
FFFFF0
FFFFF0
000000
000000
000000
000000
000000
000000
FFFFF0
FFFFF0
FFFFF0
FFFFF0
ENDCHAR
STARTCHAR U+003E
ENCODING 62
SWIDTH 500 0
DWIDTH 24 0
BBX 20 20 2 5
BITMAP
800000
E00000
FC0000
FF8000
FFE000
7FFC00
0FFF00
01FFE0
003FF0
0007F0
0007F0
003FF0
01FFE0
0FFF00
7FFC00
FFE000
FF8000
FC0000
E00000
800000
ENDCHAR
STARTCHAR U+003F
ENCODING 63
SWIDTH 500 0
DWIDTH 21 0
BBX 17 32 2 -1
BITMAP
03C000
1FF800
3FFC00
7FFE00
FFFF00
787F00
303F00
001F80
001F00
001F00
003F00
007E00
007E00
00FC00
01F800
03F000
03F000
07E000
07E000
07C000
07C000
000000
000000
000000
010000
07C000
0FE000
0FE000
0FE000
0FE000
07E000
038000
ENDCHAR
STARTCHAR U+0040
ENCODING 64
SWIDTH 500 0
DWIDTH 40 0
BBX 36 39 2 -8
BITMAP
0000FF0000
0007FFE000
001FFFF800
007FFFFE00
00FE007F00
01F8001F80
03E0000F80
07C00007C0
0F800003C0
1F000001E0
1E007001E0
3E01FBC0E0
3C07FFC0F0
3C0FFFC0F0
780F8FC0F0
781F0780F0
781E0780F0
783E0780F0
F03C0780F0
F03C0F80F0
F03C0F80E0
F03C0F01E0
F03C0F01E0
F03C1F03C0
783E3F87C0
783FFFFF80
781FF7FF00
780FE3FE00
7C0380F800
3E00000000
3E00000000
1F00000000
0F80000000
07E0008000
07FC078000
01FFFFC000
00FFFFC000
001FFF0000
0001E00000
ENDCHAR
STARTCHAR U+0041
ENCODING 65
SWIDTH 500 0
DWIDTH 26 0
BBX 26 30 0 0
BITMAP
007F0000
007F8000
007F8000
00FF8000
00FFC000
00F7C000
01F7C000
01F3E000
01F3E000
03E3E000
03E3F000
03E1F000
07E1F000
07C1F800
07C1F800
0FC0F800
0F80F800
0FFFFC00
1FFFFC00
1FFFFC00
1FFFFE00
1FFFFE00
3F003E00
3F003F00
3E003F00
7E003F00
7E001F80
7C001F80
FC001F80
FC001FC0
ENDCHAR
STARTCHAR U+0042
ENCODING 66
SWIDTH 500 0
DWIDTH 27 0
BBX 22 30 4 0
BITMAP
FFFC00
FFFF80
FFFFC0
FFFFE0
FFFFF0
FC07F0
FC03F0
FC03F0
FC03F0
FC03F0
FC07E0
FC0FE0
FFFFC0
FFFF00
FFFFC0
FFFFE0
FC1FF0
FC03F8
FC01F8
FC00F8
FC00FC
FC00FC
FC00FC
FC01F8
FC03F8
FFFFF8
FFFFF0
FFFFE0
FFFF80
FFFE00
ENDCHAR
STARTCHAR U+0043
ENCODING 67
SWIDTH 500 0
DWIDTH 26 0
BBX 23 32 2 -1
BITMAP
003F80
00FFF0
03FFF8
07FFFC
0FFFFC
1FF0F8
1FC030
3F8000
3F0000
7F0000
7E0000
7E0000
FE0000
FC0000
FC0000
FC0000
FC0000
FC0000
FC0000
FE0000
7E0000
7E0000
7E0000
7F0000
3F8018
3FC038
1FF0FC
0FFFFE
07FFFC
03FFF8
00FFF0
003F80
ENDCHAR
STARTCHAR U+0044
ENCODING 68
SWIDTH 500 0
DWIDTH 29 0
BBX 22 30 4 0
BITMAP
FFF000
FFFE00
FFFF80
FFFFC0
FFFFE0
FC0FF0
FC07F8
FC03F8
FC01F8
FC01FC
FC00FC
FC00FC
FC00FC
FC00FC
FC00FC
FC00FC
FC00FC
FC00FC
FC00FC
FC00FC
FC01FC
FC01F8
FC03F8
FC07F0
FC1FF0
FFFFE0
FFFFC0
FFFF80
FFFE00
FFF000
ENDCHAR
STARTCHAR U+0045
ENCODING 69
SWIDTH 500 0
DWIDTH 25 0
BBX 18 30 4 0
BITMAP
FFFFC0
FFFFC0
FFFFC0
FFFFC0
FFFFC0
FC0000
FC0000
FC0000
FC0000
FC0000
FC0000
FC0000
FFFF00
FFFF00
FFFF00
FFFF00
FFFF00
FC0000
FC0000
FC0000
FC0000
FC0000
FC0000
FC0000
FC0000
FFFFC0
FFFFC0
FFFFC0
FFFFC0
FFFFC0
ENDCHAR
STARTCHAR U+0046
ENCODING 70
SWIDTH 500 0
DWIDTH 23 0
BBX 18 30 4 0
BITMAP
FFFFC0
FFFFC0
FFFFC0
FFFFC0
FFFFC0
FC0000
FC0000
FC0000
FC0000
FC0000
FC0000
FC0000
FC0000
FFFF00
FFFF00
FFFF00
FFFF00
FFFF00
FC0000
FC0000
FC0000
FC0000
FC0000
FC0000
FC0000
FC0000
FC0000
FC0000
FC0000
FC0000
ENDCHAR
STARTCHAR U+0047
ENCODING 71
SWIDTH 500 0
DWIDTH 29 0
BBX 24 32 2 -1
BITMAP
001FC0
00FFF0
03FFFC
07FFFE
0FFFFE
1FF07C
1FC018
3F8000
3F0000
7F0000
7E0000
7E0000
FE0000
FC0000
FC03FF
FC07FF
FC07FF
FC07FF
FC07FF
FE001F
7E001F
7E001F
7F001F
3F001F
3F801F
3FC01F
1FF07F
0FFFFF
07FFFF
03FFFE
00FFF8
001FC0
ENDCHAR
STARTCHAR U+0048
ENCODING 72
SWIDTH 500 0
DWIDTH 30 0
BBX 23 30 4 0
BITMAP
FC007E
FC007E
FC007E
FC007E
FC007E
FC007E
FC007E
FC007E
FC007E
FC007E
FC007E
FC007E
FFFFFE
FFFFFE
FFFFFE
FFFFFE
FFFFFE
FC007E
FC007E
FC007E
FC007E
FC007E
FC007E
FC007E
FC007E
FC007E
FC007E
FC007E
FC007E
FC007E
ENDCHAR
STARTCHAR U+0049
ENCODING 73
SWIDTH 500 0
DWIDTH 13 0
BBX 6 30 4 0
BITMAP
FC
FC
FC
FC
FC
FC
FC
FC
FC
FC
FC
FC
FC
FC
FC
FC
FC
FC
FC
FC
FC
FC
FC
FC
FC
FC
FC
FC
FC
FC
ENDCHAR
STARTCHAR U+004A
ENCODING 74
SWIDTH 500 0
DWIDTH 23 0
BBX 18 31 1 -1
BITMAP
000FC0
000FC0
000FC0
000FC0
000FC0
000FC0
000FC0
000FC0
000FC0
000FC0
000FC0
000FC0
000FC0
000FC0
000FC0
000FC0
000FC0
000FC0
000FC0
000FC0
000FC0
000FC0
000FC0
100FC0
381FC0
FE3F80
FFFF80
7FFF00
3FFF00
1FFC00
03F000
ENDCHAR
STARTCHAR U+004B
ENCODING 75
SWIDTH 500 0
DWIDTH 27 0
BBX 23 30 4 0
BITMAP
FC01FC
FC03F8
FC03F0
FC07E0
FC0FE0
FC1FC0
FC1F80
FC3F00
FC7E00
FCFE00
FCFC00
FDF800
FFF800
FFFC00
FFFE00
FFFE00
FFFF00
FFBF00
FF1F80
FE1F80
FC0FC0
FC0FE0
FC07E0
FC07F0
FC03F0
FC01F8
FC01FC
FC00FC
FC00FE
FC007E
ENDCHAR
STARTCHAR U+004C
ENCODING 76
SWIDTH 500 0
DWIDTH 23 0
BBX 18 30 4 0
BITMAP
FC0000
FC0000
FC0000
FC0000
FC0000
FC0000
FC0000
FC0000
FC0000
FC0000
FC0000
FC0000
FC0000
FC0000
FC0000
FC0000
FC0000
FC0000
FC0000
FC0000
FC0000
FC0000
FC0000
FC0000
FC0000
FFFFC0
FFFFC0
FFFFC0
FFFFC0
FFFFC0
ENDCHAR
STARTCHAR U+004D
ENCODING 77
SWIDTH 500 0
DWIDTH 34 0
BBX 26 30 4 0
BITMAP
FC000FC0
FE001FC0
FE001FC0
FE001FC0
FF003FC0
FF003FC0
FF803FC0
FF807FC0
FF807FC0
F7C07BC0
F7C0FBC0
FBC0F7C0
FBE0F7C0
FBE1F7C0
F9E1E7C0
F9F1E7C0
F9F3E7C0
F8F3C7C0
F8FBC7C0
F8FFC7C0
F87F87C0
F87F87C0
F83F07C0
F83F07C0
F83F07C0
F81E07C0
F81E07C0
F80007C0
F80007C0
F80007C0
ENDCHAR
STARTCHAR U+004E
ENCODING 78
SWIDTH 500 0
DWIDTH 30 0
BBX 22 30 4 0
BITMAP
FC007C
FC007C
FE007C
FF007C
FF007C
FF807C
FF807C
FFC07C
FFC07C
FBE07C
FBE07C
F9F07C
F9F07C
F8F87C
F8F87C
F87C7C
F87C7C
F83E7C
F83E7C
F81F7C
F81F7C
F80FFC
F80FFC
F807FC
F807FC
F803FC
F803FC
F801FC
F801FC
F800FC
ENDCHAR
STARTCHAR U+004F
ENCODING 79
SWIDTH 500 0
DWIDTH 31 0
BBX 27 32 2 -1
BITMAP
003F8000
01FFF000
03FFF800
0FFFFC00
0FFFFE00
1FE0FF00
3F807F80
3F803F80
7F001F80
7E001FC0
7E000FC0
7E000FC0
FC000FC0
FC000FC0
FC0007E0
FC0007E0
FC0007E0
FC0007E0
FC000FC0
FE000FC0
7E000FC0
7E000FC0
7E001FC0
7F001F80
3F803F80
3FC07F00
1FE1FF00
0FFFFE00
07FFFC00
03FFF800
01FFE000
003F8000
ENDCHAR
STARTCHAR U+0050
ENCODING 80
SWIDTH 500 0
DWIDTH 27 0
BBX 21 30 4 0
BITMAP
FFFC00
FFFF80
FFFFC0
FFFFE0
FFFFF0
FC07F0
FC03F8
FC01F8
FC01F8
FC01F8
FC01F8
FC01F8
FC03F0
FC07F0
FFFFF0
FFFFE0
FFFFC0
FFFF00
FFFC00
FC0000
FC0000
FC0000
FC0000
FC0000
FC0000
FC0000
FC0000
FC0000
FC0000
FC0000
ENDCHAR
STARTCHAR U+0051
ENCODING 81
SWIDTH 500 0
DWIDTH 31 0
BBX 28 39 2 -8
BITMAP
003F8000
01FFF000
03FFF800
0FFFFC00
0FFFFE00
1FE0FF00
3F807F80
3F003F80
7F001F80
7E001FC0
7E000FC0
7E000FC0
FC000FC0
FC000FC0
FC0007E0
FC0007E0
FC0007E0
FC000FE0
FC000FC0
7E000FC0
7E000FC0
7E000FC0
7F001F80
3F001F80
3F803F80
1FC07F00
1FFFFE00
0FFFFE00
07FFFC00
03FFF000
00FFC000
001F8000
001FC000
000FF000
0007FFE0
0003FFE0
0001FFF0
00007FF0
00001FE0
ENDCHAR
STARTCHAR U+0052
ENCODING 82
SWIDTH 500 0
DWIDTH 27 0
BBX 22 30 4 0
BITMAP
FFFC00
FFFF80
FFFFC0
FFFFE0
FFFFF0
FC07F0
FC03F8
FC01F8
FC01F8
FC01F8
FC01F8
FC01F8
FC03F8
FC0FF0
FFFFF0
FFFFE0
FFFFC0
FFFF00
FFFF00
FC3F00
FC1F80
FC1FC0
FC0FC0
FC0FE0
FC07E0
FC07F0
FC03F0
FC03F8
FC01F8
FC01FC
ENDCHAR
STARTCHAR U+0053
ENCODING 83
SWIDTH 500 0
DWIDTH 25 0
BBX 21 32 2 -1
BITMAP
00FE00
07FF80
0FFFE0
1FFFF0
3FFFF0
3F83E0
7F00C0
7E0000
7E0000
7E0000
7F0000
7F8000
3FE000
3FFC00
1FFF00
0FFFC0
03FFE0
01FFF0
003FF0
000FF8
0003F8
0001F8
0001F8
0001F8
3001F8
7C03F8
7F07F8
FFFFF0
7FFFE0
3FFFC0
0FFF80
01FC00
ENDCHAR
STARTCHAR U+0054
ENCODING 84
SWIDTH 500 0
DWIDTH 25 0
BBX 23 30 1 0
BITMAP
FFFFFE
FFFFFE
FFFFFE
FFFFFE
FFFFFE
007C00
007C00
007C00
007C00
007C00
007C00
007C00
007C00
007C00
007C00
007C00
007C00
007C00
007C00
007C00
007C00
007C00
007C00
007C00
007C00
007C00
007C00
007C00
007C00
007C00
ENDCHAR
STARTCHAR U+0055
ENCODING 85
SWIDTH 500 0
DWIDTH 30 0
BBX 23 31 3 -1
BITMAP
FC003E
FC003E
FC003E
FC003E
FC003E
FC003E
FC003E
FC003E
FC003E
FC003E
FC003E
FC003E
FC003E
FC003E
FC003E
FC003E
FC003E
7C003E
7C003E
7C003E
7E007E
7E007E
7E007E
7F00FE
3F00FC
3FC3FC
1FFFF8
1FFFF8
0FFFF0
03FFC0
00FF00
ENDCHAR
STARTCHAR U+0056
ENCODING 86
SWIDTH 500 0
DWIDTH 25 0
BBX 25 30 0 0
BITMAP
FC001F80
FC001F00
7E003F00
7E003F00
7E003F00
7E003E00
3F007E00
3F007E00
3F007C00
1F80FC00
1F80FC00
1F80F800
0F80F800
0FC1F800
0FC1F800
0FC1F000
07C1F000
07E3F000
07E3E000
03E3E000
03E3E000
03F7C000
01F7C000
01F7C000
01FFC000
01FF8000
00FF8000
00FF8000
00FF0000
007F0000
ENDCHAR
STARTCHAR U+0057
ENCODING 87
SWIDTH 500 0
DWIDTH 37 0
BBX 35 30 1 0
BITMAP
FC01F007E0
FC01F007E0
FC03F807C0
FC03F807C0
7C03F80FC0
7E03F80FC0
7E07FC0FC0
7E07FC0F80
7E07FC0F80
3E07BC0F80
3E0FBC0F80
3F0FBE1F80
3F0F3E1F00
3F0F3E1F00
3F0F3E1F00
1F1F1F1F00
1F1F1F1F00
1F9E1F3F00
1F9E1F3E00
1F9E0F3E00
0FBE0FBE00
0FBE0FBE00
0FBC0FBE00
0FFC0FFC00
0FFC07FC00
07FC07FC00
07F807FC00
07F807FC00
07F803FC00
07F803F800
ENDCHAR
STARTCHAR U+0058
ENCODING 88
SWIDTH 500 0
DWIDTH 25 0
BBX 23 30 1 0
BITMAP
FE007E
7E00FC
7F00FC
3F01F8
3F81F8
1F83F0
0FC3F0
0FC7E0
07E7E0
07E7C0
03FF80
03FF80
01FF00
01FF00
00FE00
01FF00
01FF00
03FF80
03FF80
07EFC0
07CFC0
0FC7E0
0F87E0
1F83F0
1F03F0
3F01F8
7E01FC
7E00FC
FE00FE
FC007E
ENDCHAR
STARTCHAR U+0059
ENCODING 89
SWIDTH 500 0
DWIDTH 23 0
BBX 23 30 0 0
BITMAP
FC007E
FE007E
7E00FC
7E00FC
3F01F8
3F01F8
1F81F0
1F83F0
0F83E0
0FC7E0
07C7E0
07E7C0
03EFC0
03EF80
01FF80
01FF00
01FF00
00FE00
00FE00
007E00
007E00
007E00
007E00
007E00
007E00
007E00
007E00
007E00
007E00
007E00
ENDCHAR
STARTCHAR U+005A
ENCODING 90
SWIDTH 500 0
DWIDTH 25 0
BBX 21 30 2 0
BITMAP
7FFFF8
7FFFF8
7FFFF8
7FFFF8
7FFFF0
0007F0
0007E0
000FC0
001FC0
001F80
003F00
007F00
007E00
00FC00
01FC00
01F800
03F000
07F000
07E000
0FE000
0FC000
1F8000
3F8000
3F0000
7E0000
FFFFF8
FFFFF8
FFFFF8
FFFFF8
FFFFF8
ENDCHAR
STARTCHAR U+005B
ENCODING 91
SWIDTH 500 0
DWIDTH 15 0
BBX 9 39 4 -7
BITMAP
FF80
FF80
FF80
F000
F000
F000
F000
F000
F000
F000
F000
F000
F000
F000
F000
F000
F000
F000
F000
F000
F000
F000
F000
F000
F000
F000
F000
F000
F000
F000
F000
F000
F000
F000
F000
F800
FF80
FF80
FF80
ENDCHAR
STARTCHAR U+005C
ENCODING 92
SWIDTH 500 0
DWIDTH 16 0
BBX 14 40 1 -8
BITMAP
F000
F000
7800
7800
7800
7800
3C00
3C00
3C00
1C00
1E00
1E00
1E00
0E00
0F00
0F00
0F00
0700
0780
0780
0780
0380
03C0
03C0
03C0
01C0
01E0
01E0
01E0
00E0
00F0
00F0
00F0
0070
0078
0078
0078
0038
003C
0038
ENDCHAR
STARTCHAR U+005D
ENCODING 93
SWIDTH 500 0
DWIDTH 15 0
BBX 9 39 2 -7
BITMAP
FF80
FF80
FF80
0780
0780
0780
0780
0780
0780
0780
0780
0780
0780
0780
0780
0780
0780
0780
0780
0780
0780
0780
0780
0780
0780
0780
0780
0780
0780
0780
0780
0780
0780
0780
0780
0780
FF80
FF80
FF80
ENDCHAR
STARTCHAR U+005E
ENCODING 94
SWIDTH 500 0
DWIDTH 24 0
BBX 18 18 3 12
BITMAP
03F000
03F000
07F000
07F800
0FF800
0FF800
0F7C00
1F3C00
1E3E00
1E3E00
3E1E00
3C1F00
7C1F00
7C0F80
780F80
F80780
F807C0
F003C0
ENDCHAR
STARTCHAR U+005F
ENCODING 95
SWIDTH 500 0
DWIDTH 23 0
BBX 21 3 1 -6
BITMAP
FFFFF8
FFFFF8
FFFFF8
ENDCHAR
STARTCHAR U+0060
ENCODING 96
SWIDTH 500 0
DWIDTH 25 0
BBX 10 11 5 26
BITMAP
1000
3800
7800
FC00
FE00
7F00
3F80
1FC0
07C0
0380
0100
ENDCHAR
STARTCHAR U+0061
ENCODING 97
SWIDTH 500 0
DWIDTH 24 0
BBX 19 24 2 -1
BITMAP
01F800
0FFE00
3FFF80
7FFF80
3FFFC0
3C0FC0
100FC0
0007E0
0007E0
00FFE0
07FFE0
1FFFE0
3FFFE0
7F87E0
FE07E0
FC07E0
FC07E0
FC07E0
FC1FE0
FFFFE0
7FFFE0
3FFBE0
3FE3E0
0F8000
ENDCHAR
STARTCHAR U+0062
ENCODING 98
SWIDTH 500 0
DWIDTH 26 0
BBX 21 33 3 -1
BITMAP
FC0000
FC0000
FC0000
FC0000
FC0000
FC0000
FC0000
FC0000
FC0000
FC3E00
FDFF80
FFFFC0
FFFFE0
FFFFE0
FF07F0
FE03F0
FC03F0
FC01F8
FC01F8
FC01F8
FC01F8
FC01F8
FC01F8
FC01F8
FC03F0
FC03F0
FC07F0
FF0FE0
FFFFE0
FFFFC0
FBFF80
F9FF00
007C00
ENDCHAR
STARTCHAR U+0063
ENCODING 99
SWIDTH 500 0
DWIDTH 21 0
BBX 18 24 2 -1
BITMAP
00FC00
07FF00
0FFF80
1FFF80
3FFF00
7F8300
7F0000
7E0000
FC0000
FC0000
FC0000
FC0000
FC0000
FC0000
FC0000
FC0000
FE0000
7F0000
7F8300
3FFF80
1FFFC0
0FFFC0
07FF00
01FC00
ENDCHAR
STARTCHAR U+0064
ENCODING 100
SWIDTH 500 0
DWIDTH 26 0
BBX 21 33 2 -1
BITMAP
0001F8
0001F8
0001F8
0001F8
0001F8
0001F8
0001F8
0001F8
0001F8
01F1F8
07FDF8
1FFFF8
1FFFF8
3FFFF8
7F87F8
7E01F8
7E01F8
FC01F8
FC01F8
FC01F8
FC01F8
FC01F8
FC01F8
FC01F8
FC01F8
FE01F8
7E03F8
7F07F8
3FFFF8
3FFFF8
1FFFF8
0FF8F8
03E000
ENDCHAR
STARTCHAR U+0065
ENCODING 101
SWIDTH 500 0
DWIDTH 23 0
BBX 20 24 2 -1
BITMAP
01F800
07FE00
0FFF80
1FFF80
3FFFC0
7F07E0
7E03E0
7C03E0
FC03E0
FC03E0
FFFFE0
FFFFF0
FFFFE0
FFFFE0
FC0000
FC0000
FC0000
7E0000
7F0080
3FFFC0
1FFFC0
0FFFC0
07FF80
00FC00
ENDCHAR
STARTCHAR U+0066
ENCODING 102
SWIDTH 500 0
DWIDTH 15 0
BBX 15 32 1 0
BITMAP
00FC
03FE
07FE
0FFE
0FFC
0FC0
1F80
1F80
1F80
1F80
FFF8
FFF8
FFF8
FFF8
FFF8
1F80
1F80
1F80
1F80
1F80
1F80
1F80
1F80
1F80
1F80
1F80
1F80
1F80
1F80
1F80
1F80
1F80
ENDCHAR
STARTCHAR U+0067
ENCODING 103
SWIDTH 500 0
DWIDTH 24 0
BBX 21 33 2 -10
BITMAP
03F000
0FFFF8
1FFFF8
3FFFF8
7F1FF8
7E0F80
7C07C0
FC07C0
FC07C0
FC07C0
7C07C0
7E0FC0
7F1F80
3FFF80
1FFF00
1FFC00
3CC000
7C0000
7C0000
7E0000
7FFFC0
3FFFF0
1FFFF0
3FFFF8
7CFFF8
F801F8
F801F8
F801F8
FC03F0
FFFFE0
7FFFC0
3FFF80
07FC00
ENDCHAR
STARTCHAR U+0068
ENCODING 104
SWIDTH 500 0
DWIDTH 26 0
BBX 20 32 3 0
BITMAP
FC0000
FC0000
FC0000
FC0000
FC0000
FC0000
FC0000
FC0000
FC0000
FC3F00
FCFF80
FDFFC0
FFFFE0
FFFFE0
FF8FE0
FE07E0
FC03F0
FC03F0
FC03F0
FC03F0
FC03F0
FC03F0
FC03F0
FC03F0
FC03F0
FC03F0
FC03F0
FC03F0
FC03F0
FC03F0
FC03F0
FC03F0
ENDCHAR
STARTCHAR U+0069
ENCODING 105
SWIDTH 500 0
DWIDTH 12 0
BBX 6 32 3 0
BITMAP
78
FC
FC
FC
FC
7C
00
00
00
00
FC
FC
FC
FC
FC
FC
FC
FC
FC
FC
FC
FC
FC
FC
FC
FC
FC
FC
FC
FC
FC
FC
ENDCHAR
STARTCHAR U+006A
ENCODING 106
SWIDTH 500 0
DWIDTH 12 0
BBX 11 42 -2 -10
BITMAP
03C0
07E0
07E0
07E0
07E0
03E0
0000
0000
0000
0000
07E0
07E0
07E0
07E0
07E0
07E0
07E0
07E0
07E0
07E0
07E0
07E0
07E0
07E0
07E0
07E0
07E0
07E0
07E0
07E0
07E0
07E0
07E0
07E0
07E0
07E0
07E0
7FC0
FFC0
FF80
FF00
7E00
ENDCHAR
STARTCHAR U+006B
ENCODING 107
SWIDTH 500 0
DWIDTH 24 0
BBX 21 32 3 0
BITMAP
780000
FC0000
FC0000
FC0000
FC0000
FC0000
FC0000
FC0000
FC0000
FC0000
FC07F0
FC07E0
FC0FC0
FC1F80
FC3F00
FC7F00
FC7E00
FCFC00
FDF800
FFF800
FFF800
FFFC00
FFFE00
FFFE00
FF3F00
FE1F80
FC1F80
FC0FC0
FC0FE0
FC07E0
FC03F0
FC03F8
ENDCHAR
STARTCHAR U+006C
ENCODING 108
SWIDTH 500 0
DWIDTH 13 0
BBX 9 32 3 -1
BITMAP
FC00
FC00
FC00
FC00
FC00
FC00
FC00
FC00
FC00
FC00
FC00
FC00
FC00
FC00
FC00
FC00
FC00
FC00
FC00
FC00
FC00
FC00
FC00
FC00
FC00
FC00
FC00
FF00
7F00
7F00
3F80
1F00
ENDCHAR
STARTCHAR U+006D
ENCODING 109
SWIDTH 500 0
DWIDTH 39 0
BBX 33 23 3 0
BITMAP
003E01F000
F8FF87FC00
F9FFCFFE00
FFFFDFFF00
FFFFFFFF00
FF8FFC7F00
FE07F03F00
FC07E01F00
FC07E01F80
FC07E01F80
FC07E01F80
FC07E01F80
FC07E01F80
FC07E01F80
FC07E01F80
FC07E01F80
FC07E01F80
FC07E01F80
FC07E01F80
FC07E01F80
FC07E01F80
FC07E01F80
FC07E01F80
ENDCHAR
STARTCHAR U+006E
ENCODING 110
SWIDTH 500 0
DWIDTH 26 0
BBX 20 23 3 0
BITMAP
003F00
F8FF80
F9FFC0
FFFFE0
FFFFE0
FF8FE0
FE07E0
FC03F0
FC03F0
FC03F0
FC03F0
FC03F0
FC03F0
FC03F0
FC03F0
FC03F0
FC03F0
FC03F0
FC03F0
FC03F0
FC03F0
FC03F0
FC03F0
ENDCHAR
STARTCHAR U+006F
ENCODING 111
SWIDTH 500 0
DWIDTH 25 0
BBX 21 24 2 -1
BITMAP
01FC00
07FF00
0FFF80
1FFFC0
3FFFE0
7F07F0
7E03F0
FE03F8
FC01F8
FC01F8
FC01F8
FC01F8
FC01F8
FC01F8
FC01F8
FC01F8
FE03F8
7E03F0
7F07F0
3FFFE0
1FFFC0
0FFF80
07FF00
01FC00
ENDCHAR
STARTCHAR U+0070
ENCODING 112
SWIDTH 500 0
DWIDTH 26 0
BBX 21 32 3 -9
BITMAP
003E00
F8FF80
FBFFC0
FFFFE0
FFFFE0
FF07F0
FE03F0
FC03F0
FC01F8
FC01F8
FC01F8
FC01F8
FC01F8
FC01F8
FC01F8
FC03F0
FC03F0
FC07F0
FF0FE0
FFFFE0
FFFFC0
FFFF80
FDFF00
FC7C00
FC0000
FC0000
FC0000
FC0000
FC0000
FC0000
FC0000
FC0000
ENDCHAR
STARTCHAR U+0071
ENCODING 113
SWIDTH 500 0
DWIDTH 26 0
BBX 21 32 2 -9
BITMAP
01F000
07FCF8
1FFFF8
1FFFF8
3FFFF8
7F87F8
7E01F8
7E01F8
FC01F8
FC01F8
FC01F8
FC01F8
FC01F8
FC01F8
FC01F8
FC01F8
FE01F8
7E03F8
7F07F8
3FFFF8
3FFFF8
1FFFF8
0FFDF8
03F1F8
0001F8
0001F8
0001F8
0001F8
0001F8
0001F8
0001F8
0001F8
ENDCHAR
STARTCHAR U+0072
ENCODING 114
SWIDTH 500 0
DWIDTH 17 0
BBX 14 23 3 0
BITMAP
003C
F8FC
F9FC
FBFC
FFFC
FFC0
FF00
FE00
FE00
FC00
FC00
FC00
FC00
FC00
FC00
FC00
FC00
FC00
FC00
FC00
FC00
FC00
FC00
ENDCHAR
STARTCHAR U+0073
ENCODING 115
SWIDTH 500 0
DWIDTH 20 0
BBX 17 24 1 -1
BITMAP
03F800
0FFE00
1FFF80
3FFF80
3F9F00
7E0600
7E0000
7E0000
7F0000
3FC000
1FF800
1FFC00
07FF00
01FF00
007F80
001F80
000F80
200F80
381F80
7F3F80
FFFF00
7FFF00
1FFC00
07F000
ENDCHAR
STARTCHAR U+0074
ENCODING 116
SWIDTH 500 0
DWIDTH 17 0
BBX 15 29 1 -1
BITMAP
0F80
0F80
0F80
0F80
1F80
1F80
FFFC
FFFC
FFFC
FFFC
FFFC
1F80
1F80
1F80
1F80
1F80
1F80
1F80
1F80
1F80
1F80
1F80
1F80
1FC0
0FFC
0FFC
07FE
03FE
01FC
ENDCHAR
STARTCHAR U+0075
ENCODING 117
SWIDTH 500 0
DWIDTH 25 0
BBX 19 23 3 -1
BITMAP
FC07E0
FC07E0
FC07E0
FC07E0
FC07E0
FC07E0
FC07E0
FC07E0
FC07E0
FC07E0
FC07E0
FC07E0
FC07E0
FC07E0
FC07E0
FC07E0
FC0FE0
FE1FE0
7FFFE0
7FFFE0
3FFBE0
3FE3E0
0FC000
ENDCHAR
STARTCHAR U+0076
ENCODING 118
SWIDTH 500 0
DWIDTH 23 0
BBX 21 22 1 0
BITMAP
FC00F8
FC01F8
FC01F8
7E01F0
7E03F0
7E03F0
3E03E0
3F03E0
3F07E0
1F07C0
1F87C0
0F8FC0
0F8F80
0F8F80
07CF80
07DF00
07DF00
03FF00
03FE00
03FE00
01FC00
01FC00
ENDCHAR
STARTCHAR U+0077
ENCODING 119
SWIDTH 500 0
DWIDTH 35 0
BBX 32 22 1 0
BITMAP
FC03E01F
FC07E01F
7E07F03F
7E07F03F
7E07F03E
3E0FF03E
3E0FF87E
3F0F787E
3F0F787C
1F1E787C
1F1E7C7C
1F1E7CFC
1F9E3CF8
0FBE3CF8
0FBC3EF8
0FBC3EF8
0FFC1FF0
07FC1FF0
07F81FF0
07F81FE0
07F80FE0
03F80FE0
ENDCHAR
STARTCHAR U+0078
ENCODING 120
SWIDTH 500 0
DWIDTH 22 0
BBX 21 22 1 0
BITMAP
FE03F0
7E03F0
3F07E0
3F07C0
1F8FC0
1F8F80
0FDF80
07FF00
07FE00
03FE00
03FC00
03FC00
07FE00
07FE00
0FFF00
0F9F80
1F9F80
3F0FC0
3F0FE0
7E07E0
7C03F0
FC03F8
ENDCHAR
STARTCHAR U+0079
ENCODING 121
SWIDTH 500 0
DWIDTH 23 0
BBX 21 32 1 -10
BITMAP
FC00F8
FC01F8
7C01F8
7E01F0
7E03F0
3E03F0
3F03E0
3F03E0
1F07E0
1F87C0
0F87C0
0F8FC0
0FCF80
07CF80
07CF80
03CF00
03FF00
03FF00
01FE00
01FE00
01FE00
00FC00
00FC00
00F800
00F800
01F800
03F000
3FF000
3FE000
7FC000
7F8000
3E0000
ENDCHAR
STARTCHAR U+007A
ENCODING 122
SWIDTH 500 0
DWIDTH 20 0
BBX 17 22 2 0
BITMAP
7FFF80
7FFF80
7FFF80
7FFF80
7FFF00
007E00
00FE00
00FC00
01F800
03F800
03F000
07E000
0FC000
1FC000
1F8000
3F0000
7F0000
7FFF80
FFFF80
FFFF80
FFFF80
FFFF80
ENDCHAR
STARTCHAR U+007B
ENCODING 123
SWIDTH 500 0
DWIDTH 15 0
BBX 12 39 1 -7
BITMAP
01F0
07F0
07F0
0FC0
0F80
0F80
0F80
0F80
0F80
0F80
0F80
0F80
0F80
0F80
0F80
0F80
1F80
7F00
FE00
FC00
FF00
1F00
0F80
0F80
0F80
0F80
0F80
0F80
0F80
0F80
0F80
0F80
0F80
0F80
0F80
0FC0
07F0
07F0
01F0
ENDCHAR
STARTCHAR U+007C
ENCODING 124
SWIDTH 500 0
DWIDTH 12 0
BBX 4 45 4 -11
BITMAP
F0
F0
F0
F0
F0
F0
F0
F0
F0
F0
F0
F0
F0
F0
F0
F0
F0
F0
F0
F0
F0
F0
F0
F0
F0
F0
F0
F0
F0
F0
F0
F0
F0
F0
F0
F0
F0
F0
F0
F0
F0
F0
F0
F0
F0
ENDCHAR
STARTCHAR U+007D
ENCODING 125
SWIDTH 500 0
DWIDTH 15 0
BBX 12 39 2 -7
BITMAP
FC00
FE00
FF00
1F00
1F00
1F00
1F00
1F00
1F00
1F00
1F00
1F00
1F00
1F00
1F00
1F00
0F80
0FE0
07F0
03F0
0FF0
0FC0
1F00
1F00
1F00
1F00
1F00
1F00
1F00
1F00
1F00
1F00
1F00
1F00
1F00
3F00
FF00
FE00
F800
ENDCHAR
STARTCHAR U+007E
ENCODING 126
SWIDTH 500 0
DWIDTH 24 0
BBX 20 8 2 11
BITMAP
0F0000
3FC000
7FE0E0
FFF9F0
F9FFE0
60FFE0
203FC0
001F00
ENDCHAR
STARTCHAR U+3002
ENCODING 12290
SWIDTH 500 0
DWIDTH 40 0
BBX 13 14 1 -4
BITMAP
0780
1FC0
3FF0
78F0
7078
E038
E038
E038
E038
7078
78F0
3FF0
1FC0
0780
ENDCHAR
STARTCHAR U+4E1A
ENCODING 19994
SWIDTH 500 0
DWIDTH 40 0
BBX 36 36 2 -2
BITMAP
001E078000
003E07C000
003E07C000
003E07C000
003E07C000
003E07C000
003E07C000
003E07C000
003E07C000
783E07C180
7C3E07C1E0
7C3E07C3E0
3E3E07C3E0
3E3E07C3C0
3E3E07C7C0
1F3E07C7C0
1F3E07CF80
1F3E07CF80
0FBE07CF00
0FBE07DF00
0FBE07DF00
0FFE07FE00
07FE07FE00
07FE07FC00
063E07DC00
003E07C000
003E07C000
003E07C000
003E07C000
003E07C000
003E07C000
FFFFFFFFF0
FFFFFFFFF0
FFFFFFFFF0
FFFFFFFFF0
FFFFFFFFF0
ENDCHAR
STARTCHAR U+4F5C
ENCODING 20316
SWIDTH 500 0
DWIDTH 40 0
BBX 38 38 1 -4
BITMAP
0060080000
00F81F0000
00F81F0000
00F83E0000
01F03E0000
01F03E0000
03F07FFFF8
03E07FFFFC
07E0FFFFFC
0FC0FFFFFC
0FC1FFFFFC
1FC3F3C000
3FC3E3C000
3FC7E3C000
7FCFC3C000
FFDF83E000
7FCF83FFF8
7FC703FFF8
37C203FFF8
37C003FFF8
07C003C000
07C003C000
07C003C000
07C003C000
07C003E000
07C003FFF8
07C003FFF8
07C003FFF8
07C003FFF8
07C003C000
07C003C000
07C003C000
07C003C000
07C003C000
07C003C000
07C003C000
07C003C000
07C003C000
ENDCHAR
STARTCHAR U+4F9D
ENCODING 20381
SWIDTH 500 0
DWIDTH 40 0
BBX 38 38 1 -4
BITMAP
0040018000
00F807C000
00F807C000
01F007E000
01F003E000
03F003E000
03E001C000
07FFFFFFF8
07DFFFFFF8
0FDFFFFFF8
0F9FFFFFF8
1F801FC000
3F801FC000
7F803FC000
7F807FC000
FF80FFE060
7F81FBE0F0
7F83F1E1F8
3787F1F3F8
278FF1F7F0
07BFF0FFC0
07FFF0FF80
07FFF07F00
07BDF07E00
0799F07E00
0781F03E00
0781F03F00
0781F01F80
0781F00F80
0781F00FC0
0781F1C7E0
0781FFC3F0
0783FFC3F8
0783FFC1FC
0787FF00F8
0787FC0070
0783E00020
0781000000
ENDCHAR
STARTCHAR U+5143
ENCODING 20803
SWIDTH 500 0
DWIDTH 40 0
BBX 37 35 2 -4
BITMAP
0FFFFFFF00
0FFFFFFF00
0FFFFFFF00
0FFFFFFF00
0FFFFFFF00
0000000000
0000000000
0000000000
0000000000
0000000000
0000000000
FFFFFFFFF0
FFFFFFFFF0
FFFFFFFFF0
FFFFFFFFF0
FFFFFFFFF0
007C0F8000
007C0F8000
007C0F8000
007C0F8000
007C0F8000
00FC0F8000
00F80F8000
00F80F8080
01F80F80E0
01F00F80F8
03F00F80F0
07E00F80F0
0FE00F80F0
1FC00FC1F0
7F8007FFF0
FF0007FFF0
7E0007FFE0
780003FFC0
2000000000
ENDCHAR
STARTCHAR U+5148
ENCODING 20808
SWIDTH 500 0
DWIDTH 40 0
BBX 36 38 2 -4
BITMAP
0000F00000
03E0F00000
03E0F00000
03E0F00000
03E0F00000
07FFFFFF00
07FFFFFF80
07FFFFFF80
0FFFFFFF80
0FFFFFFF80
1F00F00000
1F00F00000
3F00F00000
3E00F00000
1C00F00000
0400F00000
0000F00000
FFFFFFFFF0
FFFFFFFFF0
FFFFFFFFF0
FFFFFFFFF0
7FFFFFFFF0
003E078000
007C078000
007C078000
007C078000
007C078000
00F8078000
00F80780C0
01F80780F0
03F00780F0
07F00780F0
1FE007C1F0
7FC007FFF0
FF8007FFE0
7F0007FFE0
3C0003FFC0
3800000000
ENDCHAR
STARTCHAR U+5165
ENCODING 20837
SWIDTH 500 0
DWIDTH 40 0
BBX 37 36 2 -3
BITMAP
0018000000
003E000000
007F000000
007F800000
003F800000
000FC00000
0007E00000
0007F00000
0003F00000
0001F80000
0001FC0000
0001FC0000
0003FE0000
0003FE0000
0003FF0000
0007FF0000
0007FF8000
0007CFC000
000FCFC000
000F87E000
001F83E000
001F83F000
003F01F800
007E01F800
007E00FC00
00FC00FE00
01FC007F00
03F8003F80
07F0003FC0
1FE0001FF0
3FC0000FF8
FF800007F0
FF000003F0
7E000001F0
3C000000E0
1000000020
ENDCHAR
STARTCHAR U+516D
ENCODING 20845
SWIDTH 500 0
DWIDTH 40 0
BBX 36 37 2 -3
BITMAP
0000600000
0003E00000
0003F00000
0003F00000
0001F80000
0001F80000
0000FC0000
0000FC0000
0000F80000
0000600000
FFFFFFFFF0
FFFFFFFFF0
FFFFFFFFF0
FFFFFFFFF0
FFFFFFFFF0
0000000000
0000000000
0000000000
0000000000
007001C000
007E07E000
00FC07F000
00FC03F000
01F801F800
01F801FC00
03F000FC00
07F0007E00
07E0007F00
0FE0003F00
1FC0003F80
1F80001FC0
3F80000FC0
7F00000FE0
FE000007E0
FE000007F0
7C000003E0
1800000380
ENDCHAR
STARTCHAR U+5199
ENCODING 20889
SWIDTH 500 0
DWIDTH 40 0
BBX 34 36 3 -4
BITMAP
FFFFFFFFC0
FFFFFFFFC0
FFFFFFFFC0
FFFFFFFFC0
F0000007C0
F0F80007C0
F0F80007C0
F0F80007C0
F0F80007C0
01FFFFF800
01FFFFF800
01FFFFF800
01FFFFF800
01F0000000
03E0000000
03E0000000
03FFFFFE00
03FFFFFE00
03FFFFFE00
07FFFFFE00
0000003C00
0000003C00
0000007C00
7FFFFE7C00
7FFFFE7C00
7FFFFE7C00
7FFFFE7C00
0000007C00
000000F800
000000F800
000000F800
000001F800
0000FFF000
0000FFF000
0000FFE000
0000FF8000
ENDCHAR
STARTCHAR U+5230
ENCODING 21040
SWIDTH 500 0
DWIDTH 40 0
BBX 35 37 2 -3
BITMAP
00000001E0
00000001E0
7FFFF801E0
7FFFF801E0
7FFFF9E1E0
7FFFF9E1E0
07E101E1E0
07C781E1E0
0F8F81E1E0
0F87C1E1E0
1F03E1E1E0
1F03E1E1E0
3FFFF1E1E0
3FFFF1E1E0
3FFFF9E1E0
3FFFF9E1E0
1C0061E1E0
007801E1E0
007801E1E0
007801E1E0
007801E1E0
7FFFF1E1E0
7FFFF1E1E0
7FFFF1E1E0
7FFFF1E1E0
007801E1E0
007801E1E0
007801E1E0
00780001E0
0078F801E0
007FF801E0
07FFF801E0
FFFFF803E0
FFFFC07FE0
7FF8007FE0
7E00003FC0
0000003F80
ENDCHAR
STARTCHAR U+5468
ENCODING 21608
SWIDTH 500 0
DWIDTH 40 0
BBX 35 36 1 -4
BITMAP
0FFFFFFFE0
0FFFFFFFE0
0FFFFFFFE0
0FFFFFFFE0
0F800003E0
0F807803E0
0F807803E0
0F9FFFE3E0
0F9FFFF3E0
0F9FFFF3E0
0F9FFFF3E0
0F807803E0
0F807803E0
0F807803E0
0FBFFFFBE0
0FBFFFFBE0
0FBFFFFBE0
0FBFFFF3E0
0F800003E0
0F800003E0
0F8FFFE3E0
0F0FFFE3E0
0F0FFFE3E0
0F0FFFE3E0
1F0F01E3E0
1F0F01E3E0
1F0F01E3E0
1F0FFFE3E0
3E0FFFE3E0
3E0FFFE3E0
7E0FFFE3E0
7C0F0003E0
FC0F007FE0
7800007FE0
3800007FC0
1000003F00
ENDCHAR
STARTCHAR U+5929
ENCODING 22825
SWIDTH 500 0
DWIDTH 40 0
BBX 37 35 2 -4
BITMAP
3FFFFFFFC0
3FFFFFFFC0
3FFFFFFFC0
3FFFFFFFC0
3FFFFFFFC0
0001F00000
0001F00000
0001F00000
0001F00000
0001F00000
0001F00000
0001F00000
7FFFFFFFE0
7FFFFFFFE0
7FFFFFFFE0
7FFFFFFFE0
7FFFFFFFE0
0003FC0000
0007FC0000
0007FE0000
000FFE0000
000FFF0000
001F9F8000
003F8FC000
003F0FE000
00FF07F000
01FE03F800
03FC01FE00
0FF800FF00
3FF000FFE0
FFE0003FF8
FF80001FF0
7F000007E0
7C000001E0
3000000040
ENDCHAR
STARTCHAR U+5B66
ENCODING 23398
SWIDTH 500 0
DWIDTH 40 0
BBX 36 38 2 -4
BITMAP
0100E00800
0781F01F80
07C1F81F00
07E0F83E00
03E0FC3E00
01E0787C00
7FFFFFFFE0
7FFFFFFFE0
7FFFFFFFE0
7FFFFFFFE0
78000001E0
78000001E0
78000001E0
78000001E0
79FFFFF1E0
01FFFFF800
01FFFFF800
01FFFFF000
00001FC000
00007F8000
0000FE0000
0001FC0000
0001F00000
FFFFFFFFF0
FFFFFFFFF0
FFFFFFFFF0
FFFFFFFFF0
0001F80000
0001F00000
0001F00000
0001F00000
0001F00000
0001F00000
0063F00000
007FF00000
007FF00000
003FE00000
003F800000
ENDCHAR
STARTCHAR U+5B9D
ENCODING 23453
SWIDTH 500 0
DWIDTH 40 0
BBX 34 37 3 -3
BITMAP
0003E00000
0003E00000
0003F00000
0001F00000
FFFFFFFF80
FFFFFFFFC0
FFFFFFFFC0
FFFFFFFFC0
FFFFFFFFC0
F8000007C0
F8000007C0
F8000007C0
F8000007C0
FFFFFFFFC0
1FFFFFFC00
1FFFFFFC00
1FFFFFFC00
0003F00000
0003F00000
0003F00000
0003F00000
0003F00000
07FFFFF800
07FFFFF800
07FFFFF800
07FFFFF800
0003F1C000
0003F3E000
0003F3F000
0003F1F800
0003F0FC00
0003F07C00
0003F07800
FFFFFFFFC0
FFFFFFFFC0
FFFFFFFFC0
FFFFFFFFC0
ENDCHAR
STARTCHAR U+5C3D
ENCODING 23613
SWIDTH 500 0
DWIDTH 40 0
BBX 38 37 1 -4
BITMAP
03FFFFFF80
03FFFFFFC0
03FFFFFFC0
03FFFFFFC0
03FFFFFFC0
03E00007C0
03E00007C0
03E00007C0
03E00007C0
03E00007C0
03FFFFFFC0
03FFFFFFC0
03FFFFFFC0
03FFFFFFC0
07C000F800
07C000F800
07C0007C00
07C0007C00
07C3807E00
0FC7F03E00
0F8FFE3F00
0F87FF9F80
1F81FF9FC0
3F003F0FE0
3F000F07F0
7E000203F8
FE000003FC
7C100001F8
383F000070
187FE00020
007FFC0000
003FFF8000
0003FFF000
00007FF000
00001FF000
000003E000
000000E000
ENDCHAR
STARTCHAR U+5C71
ENCODING 23665
SWIDTH 500 0
DWIDTH 40 0
BBX 32 38 4 -4
BITMAP
0003C000
0007C000
0007C000
0007C000
0007C000
0007C000
0007C000
0007C000
0007C000
F807C01F
F807C01F
F807C01F
F807C01F
F807C01F
F807C01F
F807C01F
F807C01F
F807C01F
F807C01F
F807C01F
F807C01F
F807C01F
F807C01F
F807C01F
F807C01F
F807C01F
F807C01F
F807C01F
F807C01F
F807C01F
FFFFFFFF
FFFFFFFF
FFFFFFFF
FFFFFFFF
FFFFFFFF
0000001F
0000001F
0000001F
ENDCHAR
STARTCHAR U+6539
ENCODING 25913
SWIDTH 500 0
DWIDTH 40 0
BBX 37 38 2 -4
BITMAP
0000078000
000007C000
7FFE07C000
7FFF078000
7FFF0F8000
7FFF0F8000
7FFF0F8000
001F0FFFF0
001F1FFFF0
001F1FFFF0
001F3FFFF0
001F3E07E0
001F3E07C0
001F7F07C0
7FFF7F07C0
7FFFFF07C0
7FFFFF07C0
7FFFFF8F80
7FFFFF8F80
7C00678F80
7C0027DF00
7C0007DF00
7C0003FF00
7C0003FE00
7C0003FE00
7C0001FC00
7C0301FC00
7C1F01FC00
7CFF01FC00
7FFF03FE00
7FFF0FFF00
FFFC1FFFC0
FFE03FDFE0
FF80FF8FF8
7C00FE07F0
7000FC03F0
40007800E0
0000600040
ENDCHAR
STARTCHAR U+653E
ENCODING 25918
SWIDTH 500 0
DWIDTH 40 0
BBX 38 38 1 -4
BITMAP
00E001C000
01F003E000
01F003E000
00F003E000
00F803E000
00E003E000
7FFFC7C000
7FFFC7E000
7FFFC7FFFC
7FFFC7FFFC
0F800FFFFC
07800FFFFC
07801F83E0
07801F83C0
07803F83C0
07FFBFC7C0
07FFFFC7C0
07FFFFC7C0
07FFFFC780
078FBBEF80
078F99EF80
0F8F91FF80
0F8F81FF00
0F8F81FF00
0F8F80FE00
0F8F80FE00
0F0F807E00
0F0F807E00
1F0F80FE00
1F0F81FF00
3E0F83FF80
3E0F07FFC0
7E0F1FCFF0
7C1F3F87F8
FCFF7F03FC
F8FF7E01F8
30FE3C0070
10FC100020
ENDCHAR
STARTCHAR U+65E5
ENCODING 26085
SWIDTH 500 0
DWIDTH 40 0
BBX 28 36 6 -4
BITMAP
FFFFFFF0
FFFFFFF0
FFFFFFF0
FFFFFFF0
FFFFFFF0
F80001F0
F80001F0
F80001F0
F80001F0
F80001F0
F80001F0
F80001F0
F80001F0
F80001F0
FFFFFFF0
FFFFFFF0
FFFFFFF0
FFFFFFF0
FFFFFFF0
F80001F0
F80001F0
F80001F0
F80001F0
F80001F0
F80001F0
F80001F0
F80001F0
F80001F0
FFFFFFF0
FFFFFFF0
FFFFFFF0
FFFFFFF0
FFFFFFF0
F80001F0
F80001F0
F80001F0
ENDCHAR
STARTCHAR U+65E6
ENCODING 26086
SWIDTH 500 0
DWIDTH 40 0
BBX 36 34 2 -2
BITMAP
07FFFFFE00
07FFFFFE00
07FFFFFE00
07FFFFFE00
07FFFFFE00
07C0003E00
07C0003E00
07C0003E00
07C0003E00
07C0003E00
07FFFFFE00
07FFFFFE00
07FFFFFE00
07FFFFFE00
07FFFFFE00
07C0003E00
07C0003E00
07C0003E00
07C0003E00
07C0003E00
07FFFFFE00
07FFFFFE00
07FFFFFE00
07FFFFFE00
07FFFFFE00
0000000000
0000000000
0000000000
0000000000
7FFFFFFFE0
FFFFFFFFF0
FFFFFFFFF0
FFFFFFFFF0
FFFFFFFFF0
ENDCHAR
STARTCHAR U+6709
ENCODING 26377
SWIDTH 500 0
DWIDTH 40 0
BBX 36 38 2 -4
BITMAP
000E000000
000F800000
000F800000
000F800000
001F000000
FFFFFFFFF0
FFFFFFFFF0
FFFFFFFFF0
FFFFFFFFF0
00FE000000
007C000000
00F8000000
01F8000000
01FFFFFE00
03FFFFFE00
07FFFFFE00
07FFFFFE00
0FF0001E00
1FF0001E00
3FF0001E00
7FFFFFFE00
FFFFFFFE00
FCFFFFFE00
78FFFFFE00
20F0001E00
00F0001E00
00FFFFFE00
00FFFFFE00
00FFFFFE00
00FFFFFE00
00F0001E00
00F0001E00
00F0001E00
00F0063E00
00F007FE00
00F007FE00
00F003FC00
00F003F000
ENDCHAR
STARTCHAR U+6CB3
ENCODING 27827
SWIDTH 500 0
DWIDTH 40 0
BBX 38 37 1 -4
BITMAP
0C00000000
1F0FFFFFF8
3FCFFFFFFC
3FFFFFFFFC
0FFFFFFFFC
07EFFFFFFC
01C00003E0
00800003E0
00000003E0
00000003E0
00000003E0
2007FFE3E0
7807FFE3E0
7E07FFE3E0
FF87FFE3E0
3FC7C3E3E0
0F87C3E3E0
0707C3E3E0
0007C3E3E0
0007C3E3E0
0007C3E3E0
00C7FFE3E0
01E7FFE3E0
01F7FFE3E0
03F7FFE3E0
03E7C003E0
07E7C003E0
07C7C003E0
0FC00003E0
1F800003E0
1F000003E0
3F000003E0
3E0007FFE0
7E0003FFC0
3C0003FFC0
0C0003FF80
000001FE00
ENDCHAR
STARTCHAR U+6D41
ENCODING 27969
SWIDTH 500 0
DWIDTH 40 0
BBX 37 37 2 -3
BITMAP
0000078000
1C000F8000
3F0007C000
7F8007C000
3FE007C000
0FDFFFFFF0
07DFFFFFF0
019FFFFFF0
001FFFFFF0
00007E0E00
00007C1F00
0000F81F00
7001F00F80
FC03F3FFC0
FF0FFFFFE0
FF8FFFFFE0
3F8FFFFFF0
0F0FFF01F0
020C0000C0
0000000000
0003C79F00
0003C79F00
0183C79F00
03C3C79F00
03E3C79F00
07E3C79F00
07C3C79F00
0FC7C79F00
0F87C79F00
1F07879F30
3F0F879F38
3E0F879F38
7E1F079F38
FC3F079FF8
7C7E079FF0
383C078FF0
18180007E0
ENDCHAR
STARTCHAR U+6D77
ENCODING 28023
SWIDTH 500 0
DWIDTH 40 0
BBX 37 38 2 -4
BITMAP
0001C00000
0C01F00000
1F03E00000
3FC3E00000
1FE7FFFFF0
07E7FFFFF0
03C7FFFFF0
008FFFFFF0
001F800000
001F000000
003F000000
007FFFFFC0
203FFFFFC0
781FFFFFC0
FC03FFFFC0
FF03E703C0
7F03C783C0
1F03C3C3C0
0E03C1C3C0
003FFFFFF8
003FFFFFF8
003FFFFFF8
023FFFFFF8
0787CF07C0
07C78F07C0
07878787C0
0F8783C780
0F8783C780
1F0FFFFFF0
1F0FFFFFF0
1F0FFFFFF0
3E0FFFFFF0
3E00000F80
7C00001F80
7C0003FF00
3C0001FF00
180001FE00
000001F800
ENDCHAR
STARTCHAR U+7434
ENCODING 29748
SWIDTH 500 0
DWIDTH 40 0
BBX 36 37 2 -4
BITMAP
7FFF9FFFE0
FFFF9FFFE0
FFFF9FFFE0
FFFF9FFFE0
01E0007C00
01E0007C00
7FFF0FFFE0
7FFF0FFFE0
7FFF0FFFE0
03E0007C00
01E0007C00
01E0007C00
FFFF9FFFF0
FFFF9FFFF0
FFFFFFFFF0
7FFFFFFFE0
0007FC0000
000FFF0000
003FFFC000
01FF0FF800
07FE67FF00
7FF9F1FFF0
FFE1F87FF0
FF80FC0FE0
7C007803C0
37FFFFF800
07FFFFFC00
07FFFFFC00
07FFFFF800
000003F000
000007F000
000007E000
00000FC000
00001F8000
00003F0000
00003E0000
00000E0000
ENDCHAR
STARTCHAR U+767D
ENCODING 30333
SWIDTH 500 0
DWIDTH 40 0
BBX 30 38 5 -4
BITMAP
001F8000
001F8000
001F8000
001F8000
003F0000
003F0000
FFFFFFFC
FFFFFFFC
FFFFFFFC
FFFFFFFC
FFFFFFFC
F800007C
F800007C
F800007C
F800007C
F800007C
F800007C
F800007C
FFFFFFFC
FFFFFFFC
FFFFFFFC
FFFFFFFC
FFFFFFFC
F800007C
F800007C
F800007C
F800007C
F800007C
F800007C
F800007C
FFFFFFFC
FFFFFFFC
FFFFFFFC
FFFFFFFC
FFFFFFFC
F800007C
F800007C
F800007C
ENDCHAR
STARTCHAR U+8BFE
ENCODING 35838
SWIDTH 500 0
DWIDTH 40 0
BBX 38 38 1 -4
BITMAP
0400000000
0E01FFFFE0
1F01FFFFF0
1F81FFFFF0
0FC1FFFFF0
07E1E1E1F0
07E1E1E1F0
03C1E1E1F0
0181FFFFF0
0001FFFFF0
0001FFFFF0
0001FFFFF0
0001E1E1F0
FFC1E1E1F0
FFC1FFFFF0
FFC1FFFFF0
FFC1FFFFF0
07C1FFFFF0
07C001F000
07C001F000
07C001F000
07C7FFFFF8
07C7FFFFF8
07C7FFFFF8
07C7FFFFF8
07C80FFC00
07D80FFE00
07FC1FFF00
07FC3FFF80
07FC7DF7C0
07F9F9F7E0
07F3F9F3F0
0FE7F1F1FC
0FCFE1F0FC
1F07C1F078
0E0301F030
040201F000
000001F000
ENDCHAR
STARTCHAR U+8D1D
ENCODING 36125
SWIDTH 500 0
DWIDTH 40 0
BBX 35 36 2 -4
BITMAP
0FFFFFFF00
0FFFFFFF00
0FFFFFFF00
0FFFFFFF00
0FC0003F00
0F80001F00
0F80001F00
0F81F01F00
0F81F01F00
0F81F01F00
0F81F01F00
0F81F01F00
0F81F01F00
0F81F01F00
0F81F01F00
0F81F01F00
0F81F01F00
0F81F01F00
0F81F01F00
0F81F01F00
0F81F01F00
0F81F01F00
0F83E01F00
0F83E01F00
0787E01E00
000FC00000
001F870000
003F8FC000
00FF1FF800
01FE0FFE00
0FFC01FF00
3FF0007FC0
FFE0001FE0
7F80000FC0
3E00000380
1800000080
ENDCHAR
STARTCHAR U+8FD8
ENCODING 36824
SWIDTH 500 0
DWIDTH 40 0
BBX 38 38 1 -4
BITMAP
0400000000
0E00000000
3F0FFFFFF0
1F8FFFFFF0
1FCFFFFFF0
0FEFFFFFF0
07EFFFFFF0
03E003F000
018003E000
010007E000
00000FC000
00000FC000
00001FC000
7FC03FC400
FFC07FDE00
FFC0FFFF00
FFC1FFFF80
FFC3FFDFC0
07C7F7CFE0
07CFE7C7F0
07FFC7C3F8
07FF87C1F8
07DF07C0F0
07CE07C060
07C407C040
07C007C000
07C007C000
07C007C000
07C007C000
0FC007C000
1FE007C000
3FF8000000
7FFF00007C
FEFFFFFFFC
FC3FFFFFF8
781FFFFFF8
3007FFFFF8
30003FFF00
ENDCHAR
STARTCHAR U+94A2
ENCODING 38050
SWIDTH 500 0
DWIDTH 40 0
BBX 37 38 1 -4
BITMAP
0600000000
0780000000
0F80FFFFF8
0F80FFFFF8
0FFEFFFFF8
1FFEFFFFF8
3FFEF000F8
3FFEF000F8
7FFCF01EF8
FC00F21EF8
7800FF1EF8
7800FF1EF8
3FFCF79CF8
2FFCF7BCF8
0FFCF3FCF8
0FFCF3FCF8
03E0F1F8F8
03E0F1F8F8
03E0F0F8F8
03E0F0F8F8
3FFEF0F8F8
3FFEF0F8F8
3FFEF1FCF8
3FFEF1FCF8
03E0F3FEF8
03E0F3FEF8
03E0F3DEF8
03E0F79FF8
03E0FF8FF8
03E0FF8EF8
03EEFF0CF8
03FEFF00F8
03FEF600F8
03FEF000F8
07FCF00FF0
07F0F00FF0
03C0F007F0
0300F007C0
ENDCHAR
STARTCHAR U+9EC4
ENCODING 40644
SWIDTH 500 0
DWIDTH 40 0
BBX 36 38 2 -4
BITMAP
007C03E000
007C03E000
007C03E000
1FFFFFFF80
1FFFFFFF80
1FFFFFFF80
1FFFFFFF80
007C03E000
007C03E000
007E03E000
FFFFFFFFF0
FFFFFFFFF0
FFFFFFFFF0
FFFFFFFFF0
0000F00000
0000F00000
0FFFFFFF00
0FFFFFFF00
0FFFFFFF00
0F81F81F00
0F80F00F00
0F80F80F00
0FFFFFFF00
0FFFFFFF00
0FFFFFFF00
0F80F00F00
0F80F00F00
0FFFFFFF00
0FFFFFFF00
0FFFFFFF00
003801C000
007C03F000
01FE07FE00
0FFE03FF80
7FF8007FE0
7FE0001FE0
3F000007C0
1C00000180
ENDCHAR
STARTCHAR U+FF0C
ENCODING 65292
SWIDTH 500 0
DWIDTH 40 0
BBX 9 15 7 -6
BITMAP
3E00
7F00
7F00
FF00
7F80
7F80
3F80
0F00
0F00
1F00
3E00
FC00
F800
F000
C000
ENDCHAR
ENDFONT
