STARTFONT 2.1
FONT sans-r-24
SIZE 24 75 75
FONTBOUNDINGBOX 48 35 0 -7
STARTPROPERTIES 3
PIXEL_SIZE 24
FONT_ASCENT 28
FONT_DESCENT 7
ENDPROPERTIES
CHARS 127
STARTCHAR U+0020
ENCODING 32
SWIDTH 500 0
DWIDTH 5 0
BBX 0 0 0 0
BITMAP
ENDCHAR
STARTCHAR U+0021
ENCODING 33
SWIDTH 500 0
DWIDTH 8 0
BBX 3 18 2 0
BITMAP
60
60
60
60
60
60
60
60
60
60
60
60
00
00
00
60
E0
60
ENDCHAR
STARTCHAR U+0022
ENCODING 34
SWIDTH 500 0
DWIDTH 11 0
BBX 7 7 2 12
BITMAP
C6
C6
C6
C6
C6
C6
46
ENDCHAR
STARTCHAR U+0023
ENCODING 35
SWIDTH 500 0
DWIDTH 13 0
BBX 12 17 1 0
BITMAP
18C0
18C0
18C0
1080
39C0
FFF0
1080
1080
3180
3180
FFE0
FFE0
2100
2100
2100
2100
6300
ENDCHAR
STARTCHAR U+0024
ENCODING 36
SWIDTH 500 0
DWIDTH 13 0
BBX 10 22 2 -2
BITMAP
0C00
0C00
1C00
7F00
6180
C000
C000
C000
E000
7800
3C00
0F00
0380
0180
01C0
00C0
0180
C180
FF00
3E00
0C00
0C00
ENDCHAR
STARTCHAR U+0025
ENCODING 37
SWIDTH 500 0
DWIDTH 22 0
BBX 20 18 1 0
BITMAP
3C0200
6E0600
420400
C30C00
C30800
C31800
C31000
C333C0
422760
6E4430
3CCC30
008C30
018C30
010C30
030C30
020430
060760
0403C0
ENDCHAR
STARTCHAR U+0026
ENCODING 38
SWIDTH 500 0
DWIDTH 16 0
BBX 15 18 1 0
BITMAP
0F00
1F80
18C0
30C0
3080
3180
1B00
1E00
1C04
3C0C
660C
E318
C398
C1F0
C0F0
60F8
7FDE
1F04
ENDCHAR
STARTCHAR U+0027
ENCODING 39
SWIDTH 500 0
DWIDTH 7 0
BBX 2 7 2 12
BITMAP
C0
C0
C0
C0
C0
C0
40
ENDCHAR
STARTCHAR U+0028
ENCODING 40
SWIDTH 500 0
DWIDTH 8 0
BBX 5 24 2 -5
BITMAP
18
10
30
30
60
60
60
40
C0
C0
C0
C0
C0
C0
C0
40
60
60
60
20
30
30
18
18
ENDCHAR
STARTCHAR U+0029
ENCODING 41
SWIDTH 500 0
DWIDTH 8 0
BBX 5 24 1 -5
BITMAP
C0
40
60
20
30
30
30
10
18
18
18
18
18
18
18
18
10
30
30
30
60
60
C0
C0
ENDCHAR
STARTCHAR U+002A
ENCODING 42
SWIDTH 500 0
DWIDTH 11 0
BBX 7 8 2 11
BITMAP
10
10
9A
FE
38
3C
6C
44
ENDCHAR
STARTCHAR U+002B
ENCODING 43
SWIDTH 500 0
DWIDTH 13 0
BBX 11 12 1 3
BITMAP
0400
0600
0600
0600
0600
FFE0
FFE0
0600
0600
0600
0600
0600
ENDCHAR
STARTCHAR U+002C
ENCODING 44
SWIDTH 500 0
DWIDTH 7 0
BBX 4 7 1 -4
BITMAP
70
70
70
10
30
60
C0
ENDCHAR
STARTCHAR U+002D
ENCODING 45
SWIDTH 500 0
DWIDTH 8 0
BBX 6 2 1 6
BITMAP
FC
FC
ENDCHAR
STARTCHAR U+002E
ENCODING 46
SWIDTH 500 0
DWIDTH 7 0
BBX 3 3 2 0
BITMAP
E0
E0
C0
ENDCHAR
STARTCHAR U+002F
ENCODING 47
SWIDTH 500 0
DWIDTH 9 0
BBX 8 23 1 -4
BITMAP
03
03
02
06
06
04
0C
0C
08
08
18
18
10
30
30
20
60
60
40
C0
C0
80
80
ENDCHAR
STARTCHAR U+0030
ENCODING 48
SWIDTH 500 0
DWIDTH 13 0
BBX 11 18 1 0
BITMAP
0F00
3F80
31C0
60C0
60E0
E060
C060
C060
C060
C060
C060
C060
E060
60E0
60C0
31C0
3F80
0F00
ENDCHAR
STARTCHAR U+0031
ENCODING 49
SWIDTH 500 0
DWIDTH 13 0
BBX 10 18 2 0
BITMAP
1C00
7C00
7C00
0C00
0C00
0C00
0C00
0C00
0C00
0C00
0C00
0C00
0C00
0C00
0C00
0C00
FFC0
FFC0
ENDCHAR
STARTCHAR U+0032
ENCODING 50
SWIDTH 500 0
DWIDTH 13 0
BBX 11 18 1 0
BITMAP
1E00
7F80
E1C0
40C0
00C0
00C0
00C0
00C0
0180
0180
0300
0700
0E00
1C00
3800
7000
FFE0
FFE0
ENDCHAR
STARTCHAR U+0033
ENCODING 51
SWIDTH 500 0
DWIDTH 13 0
BBX 11 18 1 0
BITMAP
1F00
7F80
61C0
00C0
00C0
00C0
01C0
0380
1F00
1F80
01C0
00E0
0060
0060
00E0
E1C0
7F80
1F00
ENDCHAR
STARTCHAR U+0034
ENCODING 52
SWIDTH 500 0
DWIDTH 13 0
BBX 13 18 0 0
BITMAP
01C0
01C0
03C0
03C0
06C0
0CC0
0CC0
18C0
38C0
30C0
60C0
7FF0
FFF8
00C0
00C0
00C0
00C0
00C0
ENDCHAR
STARTCHAR U+0035
ENCODING 53
SWIDTH 500 0
DWIDTH 13 0
BBX 11 18 1 0
BITMAP
3FC0
3FC0
6000
6000
6000
6000
6600
7F80
61C0
00E0
0060
0060
0060
0060
00C0
C1C0
7F80
1F00
ENDCHAR
STARTCHAR U+0036
ENCODING 54
SWIDTH 500 0
DWIDTH 13 0
BBX 11 18 1 0
BITMAP
0780
1FC0
3840
3000
6000
6000
6000
CF80
FFC0
F0E0
E060
E060
6060
6060
6060
30C0
1FC0
0F00
ENDCHAR
STARTCHAR U+0037
ENCODING 55
SWIDTH 500 0
DWIDTH 13 0
BBX 11 18 1 0
BITMAP
FFE0
FFE0
00C0
00C0
0180
0180
0300
0300
0600
0600
0600
0600
0C00
0C00
0C00
0C00
0C00
0C00
ENDCHAR
STARTCHAR U+0038
ENCODING 56
SWIDTH 500 0
DWIDTH 13 0
BBX 11 18 1 0
BITMAP
0F00
3F80
70C0
60C0
6060
6040
30C0
3980
1F80
3780
61C0
40E0
C060
C060
C060
60E0
3FC0
1F00
ENDCHAR
STARTCHAR U+0039
ENCODING 57
SWIDTH 500 0
DWIDTH 13 0
BBX 11 18 1 0
BITMAP
1E00
3F80
61C0
E0C0
C0C0
C060
C060
C060
60E0
7F60
1E60
0060
00C0
00C0
00C0
4380
7F00
3E00
ENDCHAR
STARTCHAR U+003A
ENCODING 58
SWIDTH 500 0
DWIDTH 7 0
BBX 3 13 2 0
BITMAP
C0
E0
E0
00
00
00
00
00
00
00
E0
E0
C0
ENDCHAR
STARTCHAR U+003B
ENCODING 59
SWIDTH 500 0
DWIDTH 7 0
BBX 4 17 1 -4
BITMAP
60
70
70
00
00
00
00
00
00
00
70
70
70
10
30
60
C0
ENDCHAR
STARTCHAR U+003C
ENCODING 60
SWIDTH 500 0
DWIDTH 13 0
BBX 11 10 1 4
BITMAP
0020
00E0
07C0
1E00
F000
E000
F800
1F00
03C0
00E0
ENDCHAR
STARTCHAR U+003D
ENCODING 61
SWIDTH 500 0
DWIDTH 13 0
BBX 11 8 1 5
BITMAP
FFE0
FFE0
0000
0000
0000
0000
FFE0
FFE0
ENDCHAR
STARTCHAR U+003E
ENCODING 62
SWIDTH 500 0
DWIDTH 13 0
BBX 11 11 1 3
BITMAP
8000
F000
7C00
0F80
01E0
0060
03E0
0F00
7C00
E000
8000
ENDCHAR
STARTCHAR U+003F
ENCODING 63
SWIDTH 500 0
DWIDTH 11 0
BBX 9 19 1 0
BITMAP
1C00
7F00
E380
0180
0180
0180
0380
0300
0600
0E00
0C00
1800
1800
0000
0000
0000
1C00
1C00
1800
ENDCHAR
STARTCHAR U+0040
ENCODING 64
SWIDTH 500 0
DWIDTH 23 0
BBX 20 21 1 -4
BITMAP
01FF00
078380
0E00C0
180060
300030
300030
60FE30
618C10
410C10
430C10
C30C10
C20C30
C30C20
431C60
41E7C0
600000
300000
300000
1C0000
0FBE00
01F800
ENDCHAR
STARTCHAR U+0041
ENCODING 65
SWIDTH 500 0
DWIDTH 15 0
BBX 14 18 0 0
BITMAP
0380
0380
0780
06C0
04C0
0CC0
0C60
0C60
1860
1870
1830
3FF0
3FF8
3018
6018
601C
600C
C00C
ENDCHAR
STARTCHAR U+0042
ENCODING 66
SWIDTH 500 0
DWIDTH 16 0
BBX 13 18 2 0
BITMAP
FF80
FFC0
E0E0
E060
E070
E070
E060
E0E0
FFC0
FFE0
E070
E030
E038
E038
E030
E070
FFE0
FF80
ENDCHAR
STARTCHAR U+0043
ENCODING 67
SWIDTH 500 0
DWIDTH 15 0
BBX 13 18 1 0
BITMAP
07E0
0FF0
1C38
3800
7000
6000
6000
6000
E000
E000
E000
6000
6000
7000
3808
1C38
0FF0
07E0
ENDCHAR
STARTCHAR U+0044
ENCODING 68
SWIDTH 500 0
DWIDTH 16 0
BBX 13 18 2 0
BITMAP
FF00
FFC0
E0E0
E070
E030
E038
E038
E018
E018
E018
E018
E038
E038
E030
E070
E0E0
FFC0
FF00
ENDCHAR
STARTCHAR U+0045
ENCODING 69
SWIDTH 500 0
DWIDTH 14 0
BBX 11 18 2 0
BITMAP
FFE0
FFC0
E000
E000
E000
E000
E000
E000
FF80
FF80
E000
E000
E000
E000
E000
E000
FFE0
FFE0
ENDCHAR
STARTCHAR U+0046
ENCODING 70
SWIDTH 500 0
DWIDTH 13 0
BBX 11 18 2 0
BITMAP
FFE0
FFC0
E000
E000
E000
E000
E000
E000
FF80
FF80
E000
E000
E000
E000
E000
E000
E000
E000
ENDCHAR
STARTCHAR U+0047
ENCODING 71
SWIDTH 500 0
DWIDTH 17 0
BBX 14 18 1 0
BITMAP
03E0
0FF8
1C18
3800
7000
6000
6000
6000
E000
E0FC
E0FC
600C
600C
700C
380C
1C1C
0FF8
07E0
ENDCHAR
STARTCHAR U+0048
ENCODING 72
SWIDTH 500 0
DWIDTH 17 0
BBX 13 18 2 0
BITMAP
E018
E018
E018
E018
E018
E018
E018
E018
FFF8
FFF8
E018
E018
E018
E018
E018
E018
E018
E018
ENDCHAR
STARTCHAR U+0049
ENCODING 73
SWIDTH 500 0
DWIDTH 7 0
BBX 3 18 2 0
BITMAP
E0
E0
E0
E0
E0
E0
E0
E0
E0
E0
E0
E0
E0
E0
E0
E0
E0
E0
ENDCHAR
STARTCHAR U+004A
ENCODING 74
SWIDTH 500 0
DWIDTH 13 0
BBX 9 18 1 0
BITMAP
0180
0180
0180
0180
0180
0180
0180
0180
0180
0180
0180
0180
0180
0180
4180
E380
7F00
3E00
ENDCHAR
STARTCHAR U+004B
ENCODING 75
SWIDTH 500 0
DWIDTH 16 0
BBX 13 18 2 0
BITMAP
E030
E060
E0E0
E1C0
E380
E300
E600
EE00
FF00
FB80
F180
E1C0
E0C0
E0E0
E060
E030
E038
E018
ENDCHAR
STARTCHAR U+004C
ENCODING 76
SWIDTH 500 0
DWIDTH 13 0
BBX 10 18 2 0
BITMAP
E000
E000
E000
E000
E000
E000
E000
E000
E000
E000
E000
E000
E000
E000
E000
E000
FFC0
FFC0
ENDCHAR
STARTCHAR U+004D
ENCODING 77
SWIDTH 500 0
DWIDTH 19 0
BBX 15 18 2 0
BITMAP
E00E
F00E
F00E
F01E
D81E
D836
C836
CC36
CC66
C466
C646
C6C6
C2C6
C386
C386
C186
C006
C006
ENDCHAR
STARTCHAR U+004E
ENCODING 78
SWIDTH 500 0
DWIDTH 17 0
BBX 13 18 2 0
BITMAP
E018
F018
F018
F818
D818
CC18
CC18
C618
C618
C318
C398
C198
C0D8
C0D8
C078
C078
C038
C038
ENDCHAR
STARTCHAR U+004F
ENCODING 79
SWIDTH 500 0
DWIDTH 18 0
BBX 15 18 1 0
BITMAP
07E0
1FF0
3C38
301C
700C
600E
6006
E006
E006
E006
E006
6006
600E
700C
381C
1C38
0FF0
07E0
ENDCHAR
STARTCHAR U+0050
ENCODING 80
SWIDTH 500 0
DWIDTH 15 0
BBX 12 18 2 0
BITMAP
FF80
FFC0
E0E0
E070
E030
E030
E030
E070
E0E0
FFC0
FF00
E000
E000
E000
E000
E000
E000
E000
ENDCHAR
STARTCHAR U+0051
ENCODING 81
SWIDTH 500 0
DWIDTH 18 0
BBX 16 22 1 -4
BITMAP
07E0
1FF0
3C38
381C
700E
600E
6006
E006
E006
E006
6006
6006
6006
700C
301C
3838
0FF0
07C0
01C0
00E0
007F
001F
ENDCHAR
STARTCHAR U+0052
ENCODING 82
SWIDTH 500 0
DWIDTH 15 0
BBX 12 18 2 0
BITMAP
FF80
FFE0
E060
E070
E030
E030
E070
E0E0
FFC0
FF80
E300
E180
E1C0
E0C0
E0E0
E060
E070
E030
ENDCHAR
STARTCHAR U+0053
ENCODING 83
SWIDTH 500 0
DWIDTH 14 0
BBX 12 18 1 0
BITMAP
0F80
3FE0
3060
6000
6000
7000
7000
3C00
1F80
03C0
00E0
0070
0030
0030
4030
F060
7FE0
1F80
ENDCHAR
STARTCHAR U+0054
ENCODING 84
SWIDTH 500 0
DWIDTH 14 0
BBX 13 18 1 0
BITMAP
FFF8
FFF8
0600
0600
0600
0600
0600
0600
0600
0600
0600
0600
0600
0600
0600
0600
0600
0600
ENDCHAR
STARTCHAR U+0055
ENCODING 85
SWIDTH 500 0
DWIDTH 17 0
BBX 13 18 2 0
BITMAP
E018
E018
E018
E018
E018
E018
E018
E018
E018
E018
E018
E018
E018
6038
7030
3870
3FE0
0F80
ENDCHAR
STARTCHAR U+0056
ENCODING 86
SWIDTH 500 0
DWIDTH 14 0
BBX 14 18 0 0
BITMAP
C01C
E018
6018
6018
7030
3030
3030
3860
1860
1860
1860
0CC0
0CC0
0CC0
0780
0780
0780
0700
ENDCHAR
STARTCHAR U+0057
ENCODING 87
SWIDTH 500 0
DWIDTH 21 0
BBX 19 18 1 0
BITMAP
C0E060
C0E060
C0E060
E0E060
61B0E0
61B0C0
61B0C0
6190C0
6318C0
331980
331980
330980
320D80
360D80
1E0D00
1E0F00
1C0700
1C0700
ENDCHAR
STARTCHAR U+0058
ENCODING 88
SWIDTH 500 0
DWIDTH 14 0
BBX 12 18 1 0
BITMAP
C070
6060
60E0
30C0
39C0
1980
1F00
0F00
0E00
0F00
0F00
1B80
3980
31C0
70C0
6060
E060
C030
ENDCHAR
STARTCHAR U+0059
ENCODING 89
SWIDTH 500 0
DWIDTH 13 0
BBX 13 18 0 0
BITMAP
E038
6030
6070
3060
30E0
18C0
18C0
0D80
0D80
0700
0700
0600
0600
0600
0600
0600
0600
0600
ENDCHAR
STARTCHAR U+005A
ENCODING 90
SWIDTH 500 0
DWIDTH 14 0
BBX 12 18 1 0
BITMAP
7FF0
7FF0
0060
00E0
00C0
01C0
0180
0300
0700
0600
0C00
1C00
1800
3800
3000
6000
FFF0
FFF0
ENDCHAR
STARTCHAR U+005B
ENCODING 91
SWIDTH 500 0
DWIDTH 8 0
BBX 4 23 3 -4
BITMAP
F0
80
80
80
80
80
80
80
80
80
80
80
80
80
80
80
80
80
80
80
80
80
F0
ENDCHAR
STARTCHAR U+005C
ENCODING 92
SWIDTH 500 0
DWIDTH 9 0
BBX 8 23 1 -4
BITMAP
80
80
C0
C0
40
60
60
20
30
30
10
10
18
08
08
0C
0C
04
06
06
02
03
03
ENDCHAR
STARTCHAR U+005D
ENCODING 93
SWIDTH 500 0
DWIDTH 8 0
BBX 5 23 1 -4
BITMAP
F8
18
18
18
18
18
18
18
18
18
18
18
18
18
18
18
18
18
18
18
18
18
F8
ENDCHAR
STARTCHAR U+005E
ENCODING 94
SWIDTH 500 0
DWIDTH 13 0
BBX 9 10 2 8
BITMAP
1C00
1C00
1E00
3600
3200
2300
6300
6180
C180
C180
ENDCHAR
STARTCHAR U+005F
ENCODING 95
SWIDTH 500 0
DWIDTH 13 0
BBX 13 1 0 -3
BITMAP
FFF8
ENDCHAR
STARTCHAR U+0060
ENCODING 96
SWIDTH 500 0
DWIDTH 15 0
BBX 5 5 4 16
BITMAP
80
C0
60
30
18
ENDCHAR
STARTCHAR U+0061
ENCODING 97
SWIDTH 500 0
DWIDTH 14 0
BBX 11 13 1 0
BITMAP
1F00
7F80
61C0
00C0
00C0
07E0
1EE0
70E0
60E0
E0E0
61E0
7FE0
3C60
ENDCHAR
STARTCHAR U+0062
ENCODING 98
SWIDTH 500 0
DWIDTH 15 0
BBX 12 19 2 0
BITMAP
C000
C000
C000
C000
C000
C000
CF80
FFC0
F0E0
E060
C060
C060
C070
C060
C060
C0E0
E0C0
FFC0
CF00
ENDCHAR
STARTCHAR U+0063
ENCODING 99
SWIDTH 500 0
DWIDTH 12 0
BBX 10 13 1 0
BITMAP
0F80
1FC0
3840
6000
6000
E000
E000
E000
6000
6000
7040
3FC0
0F80
ENDCHAR
STARTCHAR U+0064
ENCODING 100
SWIDTH 500 0
DWIDTH 15 0
BBX 12 19 1 0
BITMAP
0020
0070
0070
0070
0070
0070
0F30
3FF0
30F0
6070
6070
E070
E070
E070
6070
6070
70F0
3FF0
1F30
ENDCHAR
STARTCHAR U+0065
ENCODING 101
SWIDTH 500 0
DWIDTH 13 0
BBX 11 13 1 0
BITMAP
0F00
3FC0
30C0
6060
6060
FFE0
FFE0
E000
6000
6000
3000
3FE0
0F80
ENDCHAR
STARTCHAR U+0066
ENCODING 102
SWIDTH 500 0
DWIDTH 8 0
BBX 7 20 1 0
BITMAP
0E
1E
30
30
30
30
30
FC
FC
30
30
30
30
30
30
30
30
30
30
30
ENDCHAR
STARTCHAR U+0067
ENCODING 103
SWIDTH 500 0
DWIDTH 14 0
BBX 12 19 1 -6
BITMAP
1FF0
3FF0
70C0
60C0
60C0
60C0
31C0
3F80
2000
6000
6000
7FC0
3FF0
6070
4030
C030
E060
7FC0
1F80
ENDCHAR
STARTCHAR U+0068
ENCODING 104
SWIDTH 500 0
DWIDTH 15 0
BBX 11 19 2 0
BITMAP
C000
C000
C000
C000
C000
C000
C780
DFC0
F0C0
E0C0
C0E0
C0E0
C0E0
C0E0
C0E0
C0E0
C0E0
C0E0
C0E0
ENDCHAR
STARTCHAR U+0069
ENCODING 105
SWIDTH 500 0
DWIDTH 7 0
BBX 3 19 2 0
BITMAP
C0
E0
C0
00
00
00
C0
C0
C0
C0
C0
C0
C0
C0
C0
C0
C0
C0
C0
ENDCHAR
STARTCHAR U+006A
ENCODING 106
SWIDTH 500 0
DWIDTH 7 0
BBX 6 25 -1 -6
BITMAP
18
1C
18
00
00
00
18
18
18
18
18
18
18
18
18
18
18
18
18
18
18
18
18
F8
F0
ENDCHAR
STARTCHAR U+006B
ENCODING 107
SWIDTH 500 0
DWIDTH 13 0
BBX 11 19 2 0
BITMAP
C000
C000
C000
C000
C000
C000
C0C0
C180
C300
C700
CE00
CC00
FE00
F700
E300
E380
C180
C0C0
C0E0
ENDCHAR
STARTCHAR U+006C
ENCODING 108
SWIDTH 500 0
DWIDTH 7 0
BBX 4 19 2 0
BITMAP
C0
C0
C0
C0
C0
C0
C0
C0
C0
C0
C0
C0
C0
C0
C0
C0
C0
E0
70
ENDCHAR
STARTCHAR U+006D
ENCODING 109
SWIDTH 500 0
DWIDTH 22 0
BBX 18 13 2 0
BITMAP
CF0F00
DF9F80
F1F1C0
E0E0C0
C0C0C0
C0C0C0
C0C0C0
C0C0C0
C0C0C0
C0C0C0
C0C0C0
C0C0C0
C0C0C0
ENDCHAR
STARTCHAR U+006E
ENCODING 110
SWIDTH 500 0
DWIDTH 15 0
BBX 11 13 2 0
BITMAP
C780
DFC0
F0C0
E0C0
C0E0
C0E0
C0E0
C0E0
C0E0
C0E0
C0E0
C0E0
C0E0
ENDCHAR
STARTCHAR U+006F
ENCODING 111
SWIDTH 500 0
DWIDTH 15 0
BBX 12 13 1 0
BITMAP
0F80
3FC0
30E0
6070
6030
E030
E030
E030
6030
6070
30E0
3FC0
0F80
ENDCHAR
STARTCHAR U+0070
ENCODING 112
SWIDTH 500 0
DWIDTH 15 0
BBX 12 19 2 -6
BITMAP
CF80
DFC0
F0E0
E060
C060
C060
C070
C060
C060
C0E0
E1C0
FFC0
CF00
C000
C000
C000
C000
C000
C000
ENDCHAR
STARTCHAR U+0071
ENCODING 113
SWIDTH 500 0
DWIDTH 15 0
BBX 12 19 1 -6
BITMAP
0F30
3FF0
30F0
6070
6070
E070
E070
E070
6070
6070
70F0
3FF0
1F30
0070
0070
0070
0070
0070
0070
ENDCHAR
STARTCHAR U+0072
ENCODING 114
SWIDTH 500 0
DWIDTH 9 0
BBX 7 13 2 0
BITMAP
CE
DE
F0
E0
E0
C0
C0
C0
C0
C0
C0
C0
C0
ENDCHAR
STARTCHAR U+0073
ENCODING 115
SWIDTH 500 0
DWIDTH 11 0
BBX 9 13 1 0
BITMAP
1E00
7F80
6100
6000
6000
7800
1E00
0780
0180
0180
C180
FF00
3E00
ENDCHAR
STARTCHAR U+0074
ENCODING 116
SWIDTH 500 0
DWIDTH 9 0
BBX 7 17 1 0
BITMAP
30
30
30
30
FE
FE
30
30
30
30
30
30
30
30
30
3E
1E
ENDCHAR
STARTCHAR U+0075
ENCODING 117
SWIDTH 500 0
DWIDTH 15 0
BBX 10 13 2 0
BITMAP
C0C0
C0C0
C0C0
C0C0
C0C0
C0C0
C0C0
C0C0
C0C0
C0C0
E1C0
7EC0
3C40
ENDCHAR
STARTCHAR U+0076
ENCODING 118
SWIDTH 500 0
DWIDTH 13 0
BBX 12 13 0 0
BITMAP
E030
6030
6060
3060
3060
30C0
18C0
18C0
1980
0D80
0D00
0F00
0700
ENDCHAR
STARTCHAR U+0077
ENCODING 119
SWIDTH 500 0
DWIDTH 19 0
BBX 17 13 1 0
BITMAP
C1C180
C1C180
E1C180
616180
636300
636300
733300
323300
363600
363600
1C1E00
1C1C00
1C1C00
ENDCHAR
STARTCHAR U+0078
ENCODING 120
SWIDTH 500 0
DWIDTH 12 0
BBX 10 13 1 0
BITMAP
C0C0
6180
7180
3300
1E00
1E00
1C00
1E00
3700
3300
6180
E1C0
C0C0
ENDCHAR
STARTCHAR U+0079
ENCODING 121
SWIDTH 500 0
DWIDTH 13 0
BBX 12 19 0 -6
BITMAP
E030
6030
6060
3060
3060
38C0
18C0
18C0
0D80
0D80
0D80
0700
0700
0700
0600
0600
0C00
7C00
7000
ENDCHAR
STARTCHAR U+007A
ENCODING 122
SWIDTH 500 0
DWIDTH 11 0
BBX 10 13 1 0
BITMAP
7F80
7F80
0380
0300
0600
0E00
1C00
1800
3000
7000
6000
FFC0
FFC0
ENDCHAR
STARTCHAR U+007B
ENCODING 123
SWIDTH 500 0
DWIDTH 8 0
BBX 6 23 1 -4
BITMAP
1C
38
30
30
30
30
30
30
30
30
70
E0
60
30
30
30
30
30
30
30
30
38
1C
ENDCHAR
STARTCHAR U+007C
ENCODING 124
SWIDTH 500 0
DWIDTH 6 0
BBX 2 27 2 -7
BITMAP
C0
C0
C0
C0
C0
C0
C0
C0
C0
C0
C0
C0
C0
C0
C0
C0
C0
C0
C0
C0
C0
C0
C0
C0
C0
C0
40
ENDCHAR
STARTCHAR U+007D
ENCODING 125
SWIDTH 500 0
DWIDTH 8 0
BBX 6 23 1 -4
BITMAP
E0
70
30
30
30
30
30
30
30
30
18
1C
18
30
30
30
30
30
30
30
30
30
E0
ENDCHAR
STARTCHAR U+007E
ENCODING 126
SWIDTH 500 0
DWIDTH 13 0
BBX 11 4 1 7
BITMAP
3800
7C20
C7E0
03C0
ENDCHAR
STARTCHAR U+3002
ENCODING 12290
SWIDTH 500 0
DWIDTH 24 0
BBX 7 7 1 -2
BITMAP
3C
46
82
82
C2
66
38
ENDCHAR
STARTCHAR U+4E1A
ENCODING 19994
SWIDTH 500 0
DWIDTH 24 0
BBX 20 21 2 -1
BITMAP
030C00
030C00
030C00
030C00
030C00
430C00
C30C30
630C20
630C60
230C60
330CC0
330CC0
1B0D80
1B0D80
030D00
030C00
030C00
030C00
030C00
FFFFF0
FFFFF0
ENDCHAR
STARTCHAR U+4F5C
ENCODING 20316
SWIDTH 500 0
DWIDTH 24 0
BBX 22 22 1 -2
BITMAP
021800
061800
061800
0C3000
0C3FFC
187FFC
386600
38C600
798600
D987F8
5807F8
180600
180600
180600
1807FC
1807FC
180600
180600
180600
180600
180600
180600
ENDCHAR
STARTCHAR U+4F9D
ENCODING 20381
SWIDTH 500 0
DWIDTH 24 0
BBX 22 22 1 -2
BITMAP
060C00
060600
0C0600
0C0200
1BFFF8
1BFFFC
380C00
781C00
783600
D87618
D8E238
19E370
1BE3C0
1F6180
1A6180
1860C0
1860E0
186060
186230
187E38
18F80C
18E000
ENDCHAR
STARTCHAR U+5143
ENCODING 20803
SWIDTH 500 0
DWIDTH 24 0
BBX 21 21 2 -2
BITMAP
3FFFC0
3FFFE0
000000
000000
000000
000000
000000
FFFFF0
FFFFF8
020C00
060C00
060C00
060C00
060C00
040C00
0C0C18
0C0C18
180C18
300C18
E00FF0
C007F0
ENDCHAR
STARTCHAR U+5148
ENCODING 20808
SWIDTH 500 0
DWIDTH 24 0
BBX 21 22 2 -2
BITMAP
086000
186000
186000
1FFFE0
3FFFE0
306000
206000
606000
406000
006000
FFFFF0
FFFFF0
030C00
020C00
060C00
060C00
060C00
0C0C18
1C0C18
380C18
F00FF0
E007F0
ENDCHAR
STARTCHAR U+5165
ENCODING 20837
SWIDTH 500 0
DWIDTH 24 0
BBX 22 21 1 -2
BITMAP
010000
038000
00C000
006000
007000
003000
003800
007800
006C00
006C00
00C600
00C600
018300
018380
030180
0700C0
0E00E0
1C0070
380038
F0001C
400000
ENDCHAR
STARTCHAR U+516D
ENCODING 20845
SWIDTH 500 0
DWIDTH 24 0
BBX 22 22 1 -2
BITMAP
006000
006000
003000
003000
001800
000000
7FFFF8
FFFFFC
000000
000000
000000
030300
030300
060180
0601C0
0C00C0
1C0060
180070
380030
700038
E00018
400008
ENDCHAR
STARTCHAR U+5199
ENCODING 20889
SWIDTH 500 0
DWIDTH 24 0
BBX 20 21 2 -2
BITMAP
FFFFF0
FFFFF0
C60030
C60030
860030
07FF80
0FFF80
0C0000
0C0000
0C0000
1FFFC0
0FFFC0
0000C0
000080
7FF880
FFFD80
000180
000180
000180
003700
003E00
ENDCHAR
STARTCHAR U+5230
ENCODING 21040
SWIDTH 500 0
DWIDTH 24 0
BBX 20 22 2 -2
BITMAP
000030
FFF030
FFF630
180630
198630
30C630
204630
7FE630
7FB630
000630
060630
060630
7FE630
FFF630
060630
060630
060230
067030
0FF030
FF0030
E001F0
0001C0
ENDCHAR
STARTCHAR U+5468
ENCODING 21608
SWIDTH 500 0
DWIDTH 24 0
BBX 20 22 1 -3
BITMAP
1FFFF0
1FFFF0
103030
103030
13FF30
103030
103030
103030
17FFB0
100030
100030
300030
31FF30
310330
310330
310330
210330
61FF30
610030
C10030
C003F0
0001C0
ENDCHAR
STARTCHAR U+5929
ENCODING 22825
SWIDTH 500 0
DWIDTH 24 0
BBX 21 21 2 -2
BITMAP
7FFFE0
7FFFE0
006000
006000
006000
006000
006000
006000
FFFFF0
FFFFF0
00F000
00F000
01D000
019800
038C00
070E00
0E0700
1C0380
3801C0
F000F8
C00030
ENDCHAR
STARTCHAR U+5B66
ENCODING 23398
SWIDTH 500 0
DWIDTH 24 0
BBX 21 22 2 -2
BITMAP
30C0C0
3860C0
186180
082180
FFFFF0
FFFFF0
C00030
C00030
8FFF10
0FFF00
000C00
003800
006000
FFFFF0
FFFFF8
006000
006000
006000
006000
006000
07E000
07C000
ENDCHAR
STARTCHAR U+5B9D
ENCODING 23453
SWIDTH 500 0
DWIDTH 24 0
BBX 20 22 2 -2
BITMAP
006000
006000
006000
FFFFF0
FFFFF0
C00030
C00030
C00030
3FFFC0
006000
006000
006000
006000
1FFF80
1FFFC0
006000
006600
006300
006180
006080
FFFFF0
FFFFF0
ENDCHAR
STARTCHAR U+5C3D
ENCODING 23613
SWIDTH 500 0
DWIDTH 24 0
BBX 22 22 1 -2
BITMAP
0FFFE0
1FFFF0
180030
180030
180030
180030
1FFFF0
1FFFF0
180300
180180
180180
19C0C0
31F0C0
303C60
700470
600038
C0001C
460008
07E000
00FC00
001F00
000380
ENDCHAR
STARTCHAR U+5C71
ENCODING 23665
SWIDTH 500 0
DWIDTH 24 0
BBX 18 22 3 -2
BITMAP
00C000
00C000
00C000
00C000
00C000
80C040
80C040
80C040
80C040
80C040
80C040
80C040
80C040
80C040
80C040
80C040
80C040
80C040
80C040
FFFFC0
FFFFC0
000040
ENDCHAR
STARTCHAR U+6539
ENCODING 25913
SWIDTH 500 0
DWIDTH 24 0
BBX 21 22 2 -2
BITMAP
000C00
FF0C00
FF1800
011800
011FF0
011FF8
013060
013860
FF7860
FFE840
C048C0
C00CC0
C00D80
C00780
C00780
C00300
C30700
DF0F80
FC1CC0
F038E0
80F078
00E010
ENDCHAR
STARTCHAR U+653E
ENCODING 25918
SWIDTH 500 0
DWIDTH 24 0
BBX 22 22 1 -2
BITMAP
0C0600
040600
060600
FFC600
FFEFFC
180FFC
180C30
181C30
181C30
1FDE30
1FF620
18F660
18C360
18C3C0
1081C0
108180
3081C0
3083C0
608660
619C30
C7B81C
C7300C
ENDCHAR
STARTCHAR U+65E5
ENCODING 26085
SWIDTH 500 0
DWIDTH 24 0
BBX 16 21 4 -2
BITMAP
FFFF
FFFF
C003
C003
C003
C003
C003
C003
C003
FFFF
FFFF
C003
C003
C003
C003
C003
C003
C003
FFFF
FFFF
C003
ENDCHAR
STARTCHAR U+65E6
ENCODING 26086
SWIDTH 500 0
DWIDTH 24 0
BBX 20 20 2 -1
BITMAP
1FFF80
1FFF80
180180
180180
180180
180180
1FFF80
1FFF80
180180
180180
180180
180180
180180
1FFF80
1FFF80
000000
000000
000000
FFFFF0
FFFFF0
ENDCHAR
STARTCHAR U+6709
ENCODING 26377
SWIDTH 500 0
DWIDTH 24 0
BBX 21 22 1 -2
BITMAP
00C000
00C000
008000
7FFFF8
7FFFF8
030000
070000
07FFC0
0FFFE0
1E0060
1E0060
77FFE0
E7FFE0
460060
060060
060060
07FFE0
07FFE0
060060
060060
0607E0
0607C0
ENDCHAR
STARTCHAR U+6CB3
ENCODING 27827
SWIDTH 500 0
DWIDTH 24 0
BBX 22 22 1 -2
BITMAP
200000
39FFFC
1FFFFC
040030
000030
000030
00FE30
C0FE30
70C230
38C230
00C230
00C230
00C230
04C230
0CFE30
0CFE30
18C030
180030
300030
600030
6007F0
0007E0
ENDCHAR
STARTCHAR U+6D41
ENCODING 27969
SWIDTH 500 0
DWIDTH 24 0
BBX 22 22 1 -2
BITMAP
200400
700600
1C0600
0DFFFC
01FFF8
001840
003060
C06070
70FFF0
39FFF8
080008
000000
004460
044460
0C4460
0C4460
18C460
18C460
30C464
318464
63046C
430038
ENDCHAR
STARTCHAR U+6D77
ENCODING 28023
SWIDTH 500 0
DWIDTH 24 0
BBX 21 22 2 -2
BITMAP
40C000
70C000
19FFF0
01FFF0
030000
030000
06FFE0
86FFE0
E08820
708C20
018660
07FFF8
07FFF8
119060
319860
310C60
210460
63FFF0
61FFF0
C00040
C000C0
000780
ENDCHAR
STARTCHAR U+7434
ENCODING 29748
SWIDTH 500 0
DWIDTH 24 0
BBX 22 21 1 -2
BITMAP
7FCFF8
040080
040080
7FCFF8
0E01C0
040080
0E01C0
7FCFFC
007000
00FC00
038F00
0F23C0
3C30F8
F0183C
0FFF80
1FFFC0
000180
000300
000600
000E00
000C00
ENDCHAR
STARTCHAR U+767D
ENCODING 30333
SWIDTH 500 0
DWIDTH 24 0
BBX 17 22 4 -2
BITMAP
038000
030000
030000
030000
FFFF80
FFFF80
800180
800180
800180
800180
800180
FFFF80
FFFF80
800180
800180
800180
800180
800180
800180
FFFF80
FFFF80
800180
ENDCHAR
STARTCHAR U+8BFE
ENCODING 35838
SWIDTH 500 0
DWIDTH 24 0
BBX 22 22 1 -2
BITMAP
200000
30FFF0
18C210
0CC210
00C730
00FFF0
00C210
F8C210
F8C210
18FFF0
180700
180200
19FFFC
19FFFC
180F80
180FC0
1B1260
1E3260
1C6238
19C21C
31820C
000200
ENDCHAR
STARTCHAR U+8D1D
ENCODING 36125
SWIDTH 500 0
DWIDTH 24 0
BBX 19 21 2 -2
BITMAP
3FFFC0
3FFFC0
3000C0
3000C0
3060C0
3060C0
3060C0
3060C0
3060C0
3060C0
3060C0
3060C0
3060C0
30C0C0
10C080
018000
031C00
060F00
1C03C0
F800E0
E00020
ENDCHAR
STARTCHAR U+8FD8
ENCODING 36824
SWIDTH 500 0
DWIDTH 24 0
BBX 22 22 1 -2
BITMAP
200000
31FFF8
19FFF8
1C0300
0C0600
000600
000E00
001E80
F83FC0
F836E0
186670
19C638
1B8618
190608
180600
180600
180600
180600
3C0400
670000
C3FFFC
C0FFFC
ENDCHAR
STARTCHAR U+94A2
ENCODING 38050
SWIDTH 500 0
DWIDTH 24 0
BBX 21 22 1 -2
BITMAP
180000
307FF8
3F7FF8
7FE008
606048
C068C8
C06CC8
3F6C88
3F6688
0C6388
0C6308
0C6308
7FE388
7F6388
0C66C8
0C64C8
0C6C48
0C6C48
0DF808
0F6008
1C6078
186078
ENDCHAR
STARTCHAR U+9EC4
ENCODING 40644
SWIDTH 500 0
DWIDTH 24 0
BBX 22 22 1 -2
BITMAP
030300
030300
3FFFF0
3FFFF0
030300
030300
FFFFFC
7FFFF8
003000
003000
1FFFE0
183060
183060
1FFFE0
183060
183060
183060
1FFFE0
000000
078380
1E00F0
780038
ENDCHAR
STARTCHAR U+FF0C
ENCODING 65292
SWIDTH 500 0
DWIDTH 24 0
BBX 4 8 4 -3
BITMAP
E0
F0
70
30
20
60
C0
80
ENDCHAR
ENDFONT
