STARTFONT 2.1
FONT sans-r-32
SIZE 32 75 75
FONTBOUNDINGBOX 64 48 0 -10
STARTPROPERTIES 3
PIXEL_SIZE 32
FONT_ASCENT 38
FONT_DESCENT 10
ENDPROPERTIES
CHARS 127
STARTCHAR U+0020
ENCODING 32
SWIDTH 500 0
DWIDTH 7 0
BBX 0 0 0 0
BITMAP
ENDCHAR
STARTCHAR U+0021
ENCODING 33
SWIDTH 500 0
DWIDTH 10 0
BBX 4 24 3 0
BITMAP
70
70
70
70
70
60
60
60
60
60
60
60
60
60
60
60
20
00
00
00
F0
F0
F0
60
ENDCHAR
STARTCHAR U+0022
ENCODING 34
SWIDTH 500 0
DWIDTH 15 0
BBX 9 9 3 16
BITMAP
E380
E380
E380
E380
E380
E380
E180
C180
C180
ENDCHAR
STARTCHAR U+0023
ENCODING 35
SWIDTH 500 0
DWIDTH 18 0
BBX 16 24 1 0
BITMAP
0608
060C
0618
0618
0418
0C18
0C18
7FFF
7FFF
0C18
0C10
0C30
0C30
0830
1830
FFFE
FFFE
1830
1820
1860
1860
1060
3060
3060
ENDCHAR
STARTCHAR U+0024
ENCODING 36
SWIDTH 500 0
DWIDTH 18 0
BBX 14 31 2 -4
BITMAP
0300
0300
0300
0300
0FE0
3FF0
3838
7010
7000
7000
7000
7000
3C00
3E00
0F80
07E0
01F0
0078
0038
0038
001C
0018
0038
E038
FDF0
3FE0
0FC0
0300
0300
0300
0300
ENDCHAR
STARTCHAR U+0025
ENCODING 37
SWIDTH 500 0
DWIDTH 29 0
BBX 27 24 1 0
BITMAP
1F001800
3F803000
71C03000
60C06000
60E06000
E060C000
E060C000
C0618000
E0618000
60E30E00
60C21F80
60C639C0
31CC70C0
3F8C60E0
0E186060
00186060
00306060
00306060
00606060
00606060
00C070E0
00C030C0
01803F80
01000F00
ENDCHAR
STARTCHAR U+0026
ENCODING 38
SWIDTH 500 0
DWIDTH 22 0
BBX 20 24 1 0
BITMAP
03E000
07F000
0E3800
0C1800
1C1800
1C1800
1C3800
0C7000
0CE000
0FC000
078000
0F0070
1F8060
3BC0E0
71C0E0
70E1C0
E071C0
E03B80
E01F00
F00F00
701FC0
3EFFF0
1FF0F0
0FC030
ENDCHAR
STARTCHAR U+0027
ENCODING 39
SWIDTH 500 0
DWIDTH 9 0
BBX 3 9 3 16
BITMAP
E0
E0
E0
E0
E0
E0
E0
C0
C0
ENDCHAR
STARTCHAR U+0028
ENCODING 40
SWIDTH 500 0
DWIDTH 11 0
BBX 6 32 3 -6
BITMAP
0C
0C
1C
18
38
30
30
70
60
60
60
E0
E0
E0
C0
C0
C0
C0
E0
E0
E0
E0
60
60
60
70
30
30
18
18
0C
0C
ENDCHAR
STARTCHAR U+0029
ENCODING 41
SWIDTH 500 0
DWIDTH 11 0
BBX 6 32 2 -6
BITMAP
80
C0
E0
60
60
30
30
38
18
18
18
1C
1C
1C
1C
1C
1C
1C
1C
1C
1C
18
18
18
38
30
30
70
60
E0
C0
C0
ENDCHAR
STARTCHAR U+002A
ENCODING 42
SWIDTH 500 0
DWIDTH 15 0
BBX 11 10 2 15
BITMAP
0400
0C00
0E00
FFE0
7FC0
1F00
1F00
3B00
3180
2080
ENDCHAR
STARTCHAR U+002B
ENCODING 43
SWIDTH 500 0
DWIDTH 18 0
BBX 16 16 1 4
BITMAP
0180
0180
0180
0180
0180
0180
0180
FFFF
FFFF
0180
0180
0180
0180
0180
0180
0180
ENDCHAR
STARTCHAR U+002C
ENCODING 44
SWIDTH 500 0
DWIDTH 9 0
BBX 5 10 2 -6
BITMAP
70
F8
78
78
18
18
30
70
E0
80
ENDCHAR
STARTCHAR U+002D
ENCODING 45
SWIDTH 500 0
DWIDTH 11 0
BBX 9 2 1 8
BITMAP
FF80
FF80
ENDCHAR
STARTCHAR U+002E
ENCODING 46
SWIDTH 500 0
DWIDTH 9 0
BBX 4 4 2 0
BITMAP
70
F0
F0
70
ENDCHAR
STARTCHAR U+002F
ENCODING 47
SWIDTH 500 0
DWIDTH 13 0
BBX 12 31 0 -6
BITMAP
0030
0070
0060
0060
0060
00C0
00C0
00C0
0180
0180
0180
0300
0300
0300
0700
0600
0600
0600
0C00
0C00
0C00
1800
1800
1800
3000
3000
3000
7000
6000
6000
E000
ENDCHAR
STARTCHAR U+0030
ENCODING 48
SWIDTH 500 0
DWIDTH 18 0
BBX 14 24 2 0
BITMAP
0F80
1FE0
3CF0
7070
7038
E038
E01C
E01C
E01C
E01C
C01C
C01C
C01C
C01C
E01C
E01C
E01C
E01C
E038
7038
7070
3CF0
1FE0
0F80
ENDCHAR
STARTCHAR U+0031
ENCODING 49
SWIDTH 500 0
DWIDTH 18 0
BBX 13 24 3 0
BITMAP
0700
3F00
7F00
7F00
0700
0700
0700
0700
0700
0700
0700
0700
0700
0700
0700
0700
0700
0700
0700
0700
0700
0700
FFF8
FFF8
ENDCHAR
STARTCHAR U+0032
ENCODING 50
SWIDTH 500 0
DWIDTH 18 0
BBX 15 24 1 0
BITMAP
0FC0
1FF0
7DF8
7038
601C
001C
001C
001C
001C
001C
0038
0038
0070
0070
00E0
01C0
03C0
0780
0F00
1E00
3C00
78FE
FFFE
FFFE
ENDCHAR
STARTCHAR U+0033
ENCODING 51
SWIDTH 500 0
DWIDTH 18 0
BBX 15 24 1 0
BITMAP
07C0
1FF0
7CF8
703C
201C
001C
001C
001C
003C
0038
01F0
07C0
07F0
0078
001C
001E
000E
000E
000E
401E
E03C
7CF8
3FF0
0FC0
ENDCHAR
STARTCHAR U+0034
ENCODING 52
SWIDTH 500 0
DWIDTH 18 0
BBX 16 24 1 0
BITMAP
0078
00F8
00F8
01F8
01B8
03B8
0738
0738
0E38
1C38
1C38
3838
7038
7038
E038
FFFF
FFFF
0038
0038
0038
0038
0038
0038
0038
ENDCHAR
STARTCHAR U+0035
ENCODING 53
SWIDTH 500 0
DWIDTH 18 0
BBX 15 24 1 0
BITMAP
3FFC
3FFC
3FF8
3800
3800
3800
3800
3800
3800
3FE0
3FF8
387C
001C
001E
000E
000E
000E
000E
000E
401C
E03C
7DF8
3FF0
0FC0
ENDCHAR
STARTCHAR U+0036
ENCODING 54
SWIDTH 500 0
DWIDTH 18 0
BBX 14 24 2 0
BITMAP
03E0
0FF8
1F7C
3818
7000
7000
6000
E000
E000
E3C0
EFF0
FC78
F03C
E01C
E01C
E00C
E00C
E01C
701C
701C
3838
3E78
1FF0
07C0
ENDCHAR
STARTCHAR U+0037
ENCODING 55
SWIDTH 500 0
DWIDTH 18 0
BBX 14 24 2 0
BITMAP
FFFC
FFFC
FFFC
0038
0030
0070
00E0
00E0
00C0
01C0
0180
0380
0380
0380
0300
0700
0700
0700
0700
0700
0700
0E00
0E00
0E00
ENDCHAR
STARTCHAR U+0038
ENCODING 56
SWIDTH 500 0
DWIDTH 18 0
BBX 15 24 1 0
BITMAP
07E0
0FF0
1C38
381C
380C
300C
300C
380C
381C
1E18
0F38
0FF0
1DF0
3878
701C
700E
600E
E00E
600E
700E
701E
3C3C
1FF8
07E0
ENDCHAR
STARTCHAR U+0039
ENCODING 57
SWIDTH 500 0
DWIDTH 18 0
BBX 15 24 1 0
BITMAP
07C0
1FE0
3CF0
3838
701C
601C
E00C
E00E
600E
600E
700E
701E
3C7E
1FEE
0F8E
000E
000C
001C
001C
0038
2078
7DF0
3FE0
0F80
ENDCHAR
STARTCHAR U+003A
ENCODING 58
SWIDTH 500 0
DWIDTH 9 0
BBX 4 17 2 0
BITMAP
70
F0
F0
70
00
00
00
00
00
00
00
00
00
70
F0
F0
70
ENDCHAR
STARTCHAR U+003B
ENCODING 59
SWIDTH 500 0
DWIDTH 9 0
BBX 5 23 2 -6
BITMAP
70
F0
F0
70
00
00
00
00
00
00
00
00
00
70
F8
78
78
18
18
30
70
E0
80
ENDCHAR
STARTCHAR U+003C
ENCODING 60
SWIDTH 500 0
DWIDTH 18 0
BBX 16 14 1 5
BITMAP
0002
000F
007E
01F8
0FC0
3F00
F800
F000
7C00
1F80
03F0
00FE
001F
0007
ENDCHAR
STARTCHAR U+003D
ENCODING 61
SWIDTH 500 0
DWIDTH 18 0
BBX 16 10 1 7
BITMAP
FFFF
FFFF
0000
0000
0000
0000
0000
0000
FFFF
FFFF
ENDCHAR
STARTCHAR U+003E
ENCODING 62
SWIDTH 500 0
DWIDTH 18 0
BBX 16 14 1 5
BITMAP
8000
F000
FE00
1F80
07F0
00FC
001F
000F
007E
01F8
0FC0
7F00
F800
E000
ENDCHAR
STARTCHAR U+003F
ENCODING 63
SWIDTH 500 0
DWIDTH 15 0
BBX 11 25 2 0
BITMAP
1F00
7FC0
FFC0
C0E0
00E0
0060
0060
00E0
00E0
01C0
0380
0380
0700
0E00
0E00
0C00
0C00
0000
0000
0000
0000
1E00
1E00
1E00
0C00
ENDCHAR
STARTCHAR U+0040
ENCODING 64
SWIDTH 500 0
DWIDTH 30 0
BBX 26 29 2 -6
BITMAP
001FC000
00FFF800
01E03C00
07800E00
0E000700
1C000380
18000180
300001C0
701E60C0
603FE0C0
6071E0C0
E0E0C0C0
C0C0C0C0
C1C0C0C0
C180C0C0
C181C0C0
C1818180
C1C18380
C1C7C700
E0FCFE00
60787C00
60000000
70000000
38000000
1C000000
0E000000
0780E000
03FFC000
007F0000
ENDCHAR
STARTCHAR U+0041
ENCODING 65
SWIDTH 500 0
DWIDTH 19 0
BBX 19 24 0 0
BITMAP
00F000
00F000
01F000
01B800
01B800
039800
031800
031C00
070C00
070C00
060E00
0E0E00
0E0600
0C0700
1FFF00
1FFF00
1C0380
380380
380180
3001C0
7001C0
7001C0
7000E0
E000E0
ENDCHAR
STARTCHAR U+0042
ENCODING 66
SWIDTH 500 0
DWIDTH 21 0
BBX 17 24 3 0
BITMAP
FFE000
FFF800
E0FC00
E01E00
E00E00
E00E00
E00E00
E00E00
E01E00
E03C00
FFF000
FFF800
E03E00
E00F00
E00700
E00700
E00380
E00380
E00700
E00700
E00F00
E07E00
FFFC00
FFE000
ENDCHAR
STARTCHAR U+0043
ENCODING 67
SWIDTH 500 0
DWIDTH 20 0
BBX 17 24 2 0
BITMAP
01F800
07FE00
0FFF00
1E0700
3C0000
780000
700000
700000
E00000
E00000
E00000
E00000
E00000
E00000
E00000
E00000
F00000
700000
780000
380100
1E0380
1FFF00
07FE00
01F800
ENDCHAR
STARTCHAR U+0044
ENCODING 68
SWIDTH 500 0
DWIDTH 22 0
BBX 17 24 3 0
BITMAP
FFC000
FFF000
F1FC00
E03E00
E00E00
E00F00
E00700
E00780
E00380
E00380
E00380
E00380
E00380
E00380
E00380
E00380
E00780
E00700
E00F00
E00E00
E03E00
F1FC00
FFF000
FFC000
ENDCHAR
STARTCHAR U+0045
ENCODING 69
SWIDTH 500 0
DWIDTH 19 0
BBX 14 24 3 0
BITMAP
FFFC
FFFC
FFF8
E000
E000
E000
E000
E000
E000
E000
FFF0
FFF0
FFF0
E000
E000
E000
E000
E000
E000
E000
E000
FFFC
FFFC
FFFC
ENDCHAR
STARTCHAR U+0046
ENCODING 70
SWIDTH 500 0
DWIDTH 18 0
BBX 14 24 3 0
BITMAP
FFFC
FFFC
FFF8
E000
E000
E000
E000
E000
E000
E000
F000
FFF0
FFF0
E000
E000
E000
E000
E000
E000
E000
E000
E000
E000
E000
ENDCHAR
STARTCHAR U+0047
ENCODING 71
SWIDTH 500 0
DWIDTH 22 0
BBX 18 24 2 0
BITMAP
01FC00
07FF00
0FFF80
1E0380
3C0100
780000
700000
700000
E00000
E00000
E00000
E00000
E03FC0
E03FC0
E001C0
E001C0
F001C0
7001C0
7801C0
3C01C0
1E03C0
0FFF80
07FF00
01FC00
ENDCHAR
STARTCHAR U+0048
ENCODING 72
SWIDTH 500 0
DWIDTH 23 0
BBX 17 24 3 0
BITMAP
E00380
E00380
E00380
E00380
E00380
E00380
E00380
E00380
E00380
E00380
FFFF80
FFFF80
FFFF80
E00380
E00380
E00380
E00380
E00380
E00380
E00380
E00380
E00380
E00380
E00380
ENDCHAR
STARTCHAR U+0049
ENCODING 73
SWIDTH 500 0
DWIDTH 9 0
BBX 3 24 3 0
BITMAP
E0
E0
E0
E0
E0
E0
E0
E0
E0
E0
E0
E0
E0
E0
E0
E0
E0
E0
E0
E0
E0
E0
E0
E0
ENDCHAR
STARTCHAR U+004A
ENCODING 74
SWIDTH 500 0
DWIDTH 17 0
BBX 13 24 1 0
BITMAP
0038
0038
0038
0038
0038
0038
0038
0038
0038
0038
0038
0038
0038
0038
0038
0038
0038
0038
0038
6078
F070
7FF0
3FE0
0F80
ENDCHAR
STARTCHAR U+004B
ENCODING 75
SWIDTH 500 0
DWIDTH 21 0
BBX 17 24 3 0
BITMAP
E00700
E00E00
E01C00
E03C00
E07800
E07000
E0E000
E1C000
E3C000
E78000
E7C000
EFC000
FCE000
FCF000
F87000
F07800
E03800
E01C00
E01C00
E00E00
E00F00
E00700
E00780
E00380
ENDCHAR
STARTCHAR U+004C
ENCODING 76
SWIDTH 500 0
DWIDTH 17 0
BBX 13 24 3 0
BITMAP
E000
E000
E000
E000
E000
E000
E000
E000
E000
E000
E000
E000
E000
E000
E000
E000
E000
E000
E000
E000
E000
FFF8
FFF8
FFF8
ENDCHAR
STARTCHAR U+004D
ENCODING 77
SWIDTH 500 0
DWIDTH 26 0
BBX 20 24 3 0
BITMAP
F000F0
F000F0
F801F0
F801F0
F801F0
FC03F0
EC0370
EC0370
EE0770
E60670
E60670
E70E70
E30C70
E30C70
E39870
E19870
E19870
E1F070
E0F070
E0F070
E06070
E06070
E00070
E00070
ENDCHAR
STARTCHAR U+004E
ENCODING 78
SWIDTH 500 0
DWIDTH 23 0
BBX 17 24 3 0
BITMAP
F00380
F00380
F80380
F80380
FC0380
EC0380
EE0380
E60380
E70380
E38380
E38380
E1C380
E1C380
E0E380
E06380
E07380
E03380
E03B80
E01B80
E01F80
E00F80
E00F80
E00780
E00380
ENDCHAR
STARTCHAR U+004F
ENCODING 79
SWIDTH 500 0
DWIDTH 24 0
BBX 20 24 2 0
BITMAP
01F800
07FE00
1FFF00
3E0780
3803C0
7801E0
7000E0
F000E0
E000E0
E00070
E00070
E00070
E00070
E00070
E00070
E000E0
F000E0
7000E0
7801C0
3803C0
3E0780
1FFF00
07FE00
01F800
ENDCHAR
STARTCHAR U+0050
ENCODING 80
SWIDTH 500 0
DWIDTH 20 0
BBX 16 24 3 0
BITMAP
FFE0
FFF8
F1FC
E01E
E00E
E00F
E007
E007
E00F
E00E
E01E
E03C
FFF8
FFF0
F000
E000
E000
E000
E000
E000
E000
E000
E000
E000
ENDCHAR
STARTCHAR U+0051
ENCODING 81
SWIDTH 500 0
DWIDTH 24 0
BBX 20 29 2 -5
BITMAP
01F800
07FE00
1FFF00
3E0780
3803C0
7801C0
7000E0
F000E0
E000E0
E00070
E00070
E00070
E00070
E00070
E00070
E000E0
F000E0
7000E0
7001E0
3801C0
3C0780
1F1F00
0FFE00
03F800
007000
007800
003E00
001FF0
0007F0
ENDCHAR
STARTCHAR U+0052
ENCODING 82
SWIDTH 500 0
DWIDTH 20 0
BBX 16 24 3 0
BITMAP
FFE0
FFF8
F0FC
E01E
E00E
E007
E007
E007
E007
E00E
E01E
E0FC
FFF8
FFE0
E0E0
E0E0
E070
E078
E038
E01C
E01C
E00E
E00F
E007
ENDCHAR
STARTCHAR U+0053
ENCODING 83
SWIDTH 500 0
DWIDTH 19 0
BBX 16 24 2 0
BITMAP
07E0
1FF8
3FFC
781C
7000
7000
7000
7000
7800
3E00
1F80
0FE0
03F8
007C
001E
000E
000F
0007
000F
C00E
F01E
7FFC
3FF8
07E0
ENDCHAR
STARTCHAR U+0054
ENCODING 84
SWIDTH 500 0
DWIDTH 19 0
BBX 17 24 1 0
BITMAP
FFFF80
FFFF80
FFFF80
01C000
01C000
01C000
01C000
01C000
01C000
01C000
01C000
01C000
01C000
01C000
01C000
01C000
01C000
01C000
01C000
01C000
01C000
01C000
01C000
01C000
ENDCHAR
STARTCHAR U+0055
ENCODING 85
SWIDTH 500 0
DWIDTH 23 0
BBX 17 24 3 0
BITMAP
E00380
E00380
E00380
E00380
E00380
E00380
E00380
E00380
E00380
E00380
E00380
E00380
E00380
E00380
E00380
E00380
E00380
F00380
700700
700700
3C0E00
3FFE00
1FFC00
07F000
ENDCHAR
STARTCHAR U+0056
ENCODING 86
SWIDTH 500 0
DWIDTH 18 0
BBX 18 24 0 0
BITMAP
E001C0
F001C0
7001C0
700380
700380
380380
380300
380700
1C0700
1C0600
1C0E00
0C0E00
0E0E00
0E1C00
061C00
071C00
071800
073800
033800
03B000
03F000
01F000
01E000
01E000
ENDCHAR
STARTCHAR U+0057
ENCODING 87
SWIDTH 500 0
DWIDTH 28 0
BBX 26 24 1 0
BITMAP
E00E01C0
E01E01C0
E01E01C0
701E01C0
701F0180
703F0380
70330380
70330380
30338300
38738300
38738700
38618700
3861C700
18E1C600
1CE1C600
1CC0CE00
1CC0CE00
1CC0EE00
0DC0EC00
0D806C00
0F807C00
0F807C00
0F807C00
07003800
ENDCHAR
STARTCHAR U+0058
ENCODING 88
SWIDTH 500 0
DWIDTH 18 0
BBX 16 24 1 0
BITMAP
F007
700F
780E
381C
3C1C
1C38
0E38
0E70
0770
07E0
03E0
03C0
03C0
07E0
07E0
0E70
0E38
1C38
1C1C
381C
700E
700E
E007
E007
ENDCHAR
STARTCHAR U+0059
ENCODING 89
SWIDTH 500 0
DWIDTH 17 0
BBX 17 24 0 0
BITMAP
E00380
700700
700700
380E00
380E00
1C1C00
1C1C00
0C1800
0E3800
063000
077000
076000
03E000
03E000
01C000
01C000
01C000
01C000
01C000
01C000
01C000
01C000
01C000
01C000
ENDCHAR
STARTCHAR U+005A
ENCODING 90
SWIDTH 500 0
DWIDTH 19 0
BBX 16 24 2 0
BITMAP
7FFF
7FFF
7FFE
001E
001C
0038
0078
0070
00E0
00E0
01C0
03C0
0380
0700
0F00
0E00
1C00
1C00
3800
7000
7000
FFFE
FFFF
FFFF
ENDCHAR
STARTCHAR U+005B
ENCODING 91
SWIDTH 500 0
DWIDTH 11 0
BBX 7 31 3 -6
BITMAP
FE
FC
E0
E0
E0
E0
E0
E0
E0
E0
E0
E0
E0
E0
E0
E0
E0
E0
E0
E0
E0
E0
E0
E0
E0
E0
E0
E0
E0
FE
7C
ENDCHAR
STARTCHAR U+005C
ENCODING 92
SWIDTH 500 0
DWIDTH 13 0
BBX 11 31 1 -6
BITMAP
C000
C000
C000
6000
6000
6000
3000
3000
3000
3800
1800
1800
1800
0C00
0C00
0C00
0600
0600
0600
0300
0300
0300
0380
0180
0180
0180
00C0
00C0
00C0
0060
0060
ENDCHAR
STARTCHAR U+005D
ENCODING 93
SWIDTH 500 0
DWIDTH 11 0
BBX 6 31 1 -6
BITMAP
FC
FC
0C
0C
0C
0C
0C
0C
0C
0C
0C
0C
0C
0C
0C
0C
0C
0C
0C
0C
0C
0C
0C
0C
0C
0C
0C
0C
0C
FC
FC
ENDCHAR
STARTCHAR U+005E
ENCODING 94
SWIDTH 500 0
DWIDTH 18 0
BBX 13 14 2 10
BITMAP
0700
0780
0780
0FC0
0CC0
1CC0
18E0
1860
3870
3070
7030
7038
6018
E018
ENDCHAR
STARTCHAR U+005F
ENCODING 95
SWIDTH 500 0
DWIDTH 18 0
BBX 17 2 0 -5
BITMAP
FFFF80
FFFF80
ENDCHAR
STARTCHAR U+0060
ENCODING 96
SWIDTH 500 0
DWIDTH 19 0
BBX 6 7 5 21
BITMAP
40
E0
F0
78
38
1C
0C
ENDCHAR
STARTCHAR U+0061
ENCODING 97
SWIDTH 500 0
DWIDTH 18 0
BBX 13 17 2 0
BITMAP
0FC0
3FE0
7DF0
6038
0038
0038
0038
07F8
1F38
7818
E018
E018
E038
E078
F9F8
7F98
1E18
ENDCHAR
STARTCHAR U+0062
ENCODING 98
SWIDTH 500 0
DWIDTH 20 0
BBX 15 25 3 0
BITMAP
E000
E000
E000
E000
E000
E000
E000
E000
E3E0
EFF0
FFF8
F03C
E01C
E00E
E00E
E00E
E00E
E00E
E00E
E01E
E01C
F03C
FFF8
CFF0
C7C0
ENDCHAR
STARTCHAR U+0063
ENCODING 99
SWIDTH 500 0
DWIDTH 16 0
BBX 13 17 2 0
BITMAP
07E0
1FF0
3FF8
7810
7000
E000
E000
E000
E000
E000
E000
E000
F000
7810
3FF8
1FF0
07E0
ENDCHAR
STARTCHAR U+0064
ENCODING 100
SWIDTH 500 0
DWIDTH 20 0
BBX 15 25 2 0
BITMAP
000E
000E
000E
000E
000E
000E
000E
000E
07CE
1FEE
3FFE
781E
700E
E00E
E00E
E00E
E00E
E00E
E00E
E00E
F00E
781E
7EFE
3FEE
0F8E
ENDCHAR
STARTCHAR U+0065
ENCODING 101
SWIDTH 500 0
DWIDTH 18 0
BBX 14 17 2 0
BITMAP
07C0
1FF0
3EF8
7018
601C
E00C
E00C
FFFC
FFFC
E000
E000
E000
7000
7800
3E38
1FF8
07E0
ENDCHAR
STARTCHAR U+0066
ENCODING 102
SWIDTH 500 0
DWIDTH 10 0
BBX 10 25 1 0
BITMAP
07C0
0FC0
1C00
1C00
1800
3800
3800
3800
FF80
FF80
3C00
3800
3800
3800
3800
3800
3800
3800
3800
3800
3800
3800
3800
3800
3800
ENDCHAR
STARTCHAR U+0067
ENCODING 103
SWIDTH 500 0
DWIDTH 18 0
BBX 16 24 2 -7
BITMAP
0FFE
3FFE
78F0
7038
E038
E038
E038
7038
3870
3FE0
3F80
6000
6000
6000
7800
3FFC
3FFE
600E
E007
C006
E00E
F03C
7FF8
1FC0
ENDCHAR
STARTCHAR U+0068
ENCODING 104
SWIDTH 500 0
DWIDTH 19 0
BBX 14 25 3 0
BITMAP
E000
E000
E000
E000
E000
E000
E000
E000
E3E0
E7F0
FFF8
F838
F01C
E01C
E01C
E01C
E01C
E01C
E01C
E01C
E01C
E01C
E01C
E01C
E01C
ENDCHAR
STARTCHAR U+0069
ENCODING 105
SWIDTH 500 0
DWIDTH 9 0
BBX 3 25 3 0
BITMAP
C0
E0
E0
E0
00
00
00
00
E0
E0
E0
E0
E0
E0
E0
E0
E0
E0
E0
E0
E0
E0
E0
E0
E0
ENDCHAR
STARTCHAR U+006A
ENCODING 106
SWIDTH 500 0
DWIDTH 9 0
BBX 7 32 -1 -7
BITMAP
0C
0E
0E
0E
00
00
00
00
0E
0E
0E
0E
0E
0E
0E
0E
0E
0E
0E
0E
0E
0E
0E
0E
0E
0E
0E
0E
0E
BC
FC
F0
ENDCHAR
STARTCHAR U+006B
ENCODING 107
SWIDTH 500 0
DWIDTH 18 0
BBX 14 25 3 0
BITMAP
E000
E000
E000
E000
E000
E000
E000
E000
E038
E070
E0E0
E1E0
E1C0
E380
E700
EF00
FF80
F980
F9C0
F0E0
E0E0
E070
E038
E038
E01C
ENDCHAR
STARTCHAR U+006C
ENCODING 108
SWIDTH 500 0
DWIDTH 9 0
BBX 5 26 3 0
BITMAP
E0
E0
E0
E0
E0
E0
E0
E0
E0
E0
E0
E0
E0
E0
E0
E0
E0
E0
E0
E0
E0
E0
E0
F0
F0
78
ENDCHAR
STARTCHAR U+006D
ENCODING 109
SWIDTH 500 0
DWIDTH 30 0
BBX 24 17 3 0
BITMAP
C3C078
CFF1FC
FFF3FE
F87E0E
E03C07
E03807
E03807
E03807
E03807
E03807
E03807
E03807
E03807
E03807
E03807
E03807
E03807
ENDCHAR
STARTCHAR U+006E
ENCODING 110
SWIDTH 500 0
DWIDTH 20 0
BBX 14 17 3 0
BITMAP
C3E0
C7F0
FFF8
F838
F01C
E01C
E01C
E01C
E01C
E01C
E01C
E01C
E01C
E01C
E01C
E01C
E01C
ENDCHAR
STARTCHAR U+006F
ENCODING 111
SWIDTH 500 0
DWIDTH 19 0
BBX 16 17 2 0
BITMAP
07C0
1FF0
3FF8
781C
700E
E00E
E00F
E007
E007
E007
E00F
E00E
700E
781C
3EF8
1FF0
07C0
ENDCHAR
STARTCHAR U+0070
ENCODING 112
SWIDTH 500 0
DWIDTH 20 0
BBX 15 24 3 -7
BITMAP
C3E0
CFF8
FFF8
F03C
E01C
E00E
E00E
E00E
E00E
E00E
E00E
E01E
E01C
F03C
FFF8
EFF0
E7C0
E000
E000
E000
E000
E000
E000
E000
ENDCHAR
STARTCHAR U+0071
ENCODING 113
SWIDTH 500 0
DWIDTH 20 0
BBX 15 24 2 -7
BITMAP
07CE
1FEE
3FFE
781E
700E
E00E
E00E
E00E
E00E
E00E
E00E
E00E
F00E
781E
3EFE
3FEE
0F8E
000E
000E
000E
000E
000E
000E
000E
ENDCHAR
STARTCHAR U+0072
ENCODING 114
SWIDTH 500 0
DWIDTH 12 0
BBX 9 17 3 0
BITMAP
C380
CF80
FF80
F800
F000
E000
E000
E000
E000
E000
E000
E000
E000
E000
E000
E000
E000
ENDCHAR
STARTCHAR U+0073
ENCODING 115
SWIDTH 500 0
DWIDTH 15 0
BBX 13 17 1 0
BITMAP
0FC0
1FF0
3CF0
7000
7000
7000
3800
3F00
0FC0
01F0
0070
0038
0038
6030
F8F0
7FE0
0F80
ENDCHAR
STARTCHAR U+0074
ENCODING 116
SWIDTH 500 0
DWIDTH 12 0
BBX 10 22 1 0
BITMAP
1800
1800
1800
1800
1800
FFC0
FFC0
3C00
3800
3800
3800
3800
3800
3800
3800
3800
3800
1800
1C00
1E40
0FC0
07C0
ENDCHAR
STARTCHAR U+0075
ENCODING 117
SWIDTH 500 0
DWIDTH 19 0
BBX 13 17 3 0
BITMAP
E018
E018
E018
E018
E018
E018
E018
E018
E018
E018
E018
E018
E038
F078
7FD8
7F98
1E18
ENDCHAR
STARTCHAR U+0076
ENCODING 118
SWIDTH 500 0
DWIDTH 17 0
BBX 15 17 1 0
BITMAP
E00E
E00E
E00C
701C
701C
7038
3838
3838
1870
1C70
1C60
0CE0
0EE0
0EC0
07C0
07C0
0380
ENDCHAR
STARTCHAR U+0077
ENCODING 119
SWIDTH 500 0
DWIDTH 26 0
BBX 24 17 1 0
BITMAP
E03807
E03C06
603C0E
703C0E
706E0E
706E0C
38661C
38E61C
38C718
18C318
1CC338
1DC338
1D83B0
0D81B0
0F81F0
0F81F0
0701E0
ENDCHAR
STARTCHAR U+0078
ENCODING 120
SWIDTH 500 0
DWIDTH 16 0
BBX 14 17 1 0
BITMAP
E01C
7038
3830
3870
1CE0
1CE0
0FC0
0780
0780
0F80
0DC0
1CE0
38E0
3870
7038
E038
E01C
ENDCHAR
STARTCHAR U+0079
ENCODING 121
SWIDTH 500 0
DWIDTH 17 0
BBX 15 24 1 -7
BITMAP
E00E
E00E
E00C
701C
701C
3818
3838
1838
1C30
1C70
0C60
0E60
06E0
07C0
07C0
03C0
0380
0380
0380
0700
0700
5E00
FC00
F000
ENDCHAR
STARTCHAR U+007A
ENCODING 122
SWIDTH 500 0
DWIDTH 15 0
BBX 13 17 1 0
BITMAP
7FF8
7FF8
0070
00F0
00E0
01C0
0380
0380
0700
0E00
0E00
1C00
3800
7800
7000
FFF8
FFF8
ENDCHAR
STARTCHAR U+007B
ENCODING 123
SWIDTH 500 0
DWIDTH 11 0
BBX 9 31 1 -6
BITMAP
0780
0F00
1C00
1800
1800
1800
1800
1800
1800
1800
1C00
1C00
1800
3800
F000
F000
3800
1800
1800
1C00
1C00
1800
1800
1800
1800
1800
1800
1C00
1C00
0F80
0300
ENDCHAR
STARTCHAR U+007C
ENCODING 124
SWIDTH 500 0
DWIDTH 9 0
BBX 2 36 3 -9
BITMAP
C0
C0
C0
C0
C0
C0
C0
C0
C0
C0
C0
C0
C0
C0
C0
C0
C0
C0
C0
C0
C0
C0
C0
C0
C0
C0
C0
C0
C0
C0
C0
C0
C0
C0
C0
C0
ENDCHAR
STARTCHAR U+007D
ENCODING 125
SWIDTH 500 0
DWIDTH 11 0
BBX 9 31 1 -6
BITMAP
F000
F800
1C00
1C00
1C00
1C00
1C00
1C00
1C00
1C00
1C00
1C00
1C00
0C00
0F80
0780
0E00
1C00
1C00
1C00
1C00
1C00
1C00
1C00
1C00
1C00
1C00
1C00
1800
F800
E000
ENDCHAR
STARTCHAR U+007E
ENCODING 126
SWIDTH 500 0
DWIDTH 18 0
BBX 14 5 2 9
BITMAP
3C00
FE0C
C79C
81F8
00F0
ENDCHAR
STARTCHAR U+3002
ENCODING 12290
SWIDTH 500 0
DWIDTH 32 0
BBX 10 11 1 -3
BITMAP
0400
3F00
7180
60C0
40C0
C0C0
40C0
60C0
7180
3F00
0400
ENDCHAR
STARTCHAR U+4E1A
ENCODING 19994
SWIDTH 500 0
DWIDTH 32 0
BBX 28 28 2 -1
BITMAP
00606000
00606000
00606000
00606000
00606000
00606000
00606000
00606000
60606060
706060E0
306060E0
386060C0
186061C0
18606180
1C606380
0C606300
0E606700
0E606600
06606E00
04606400
00606000
00606000
00606000
00606000
00606000
00606000
FFFFFFF0
FFFFFFF0
ENDCHAR
STARTCHAR U+4F5C
ENCODING 20316
SWIDTH 500 0
DWIDTH 32 0
BBX 30 30 1 -3
BITMAP
00800000
00C1C000
01C1C000
01818000
03838000
03838000
0707FFFC
0607FFFC
0E0E7000
1E0C7000
1E1C7000
3E387000
7E707000
F6707FF8
66207FF8
06007000
06007000
06007000
06007000
06007000
06007FF8
06007FF8
06007000
06007000
06007000
06007000
06007000
06007000
06007000
06007000
ENDCHAR
STARTCHAR U+4F9D
ENCODING 20381
SWIDTH 500 0
DWIDTH 32 0
BBX 30 30 1 -3
BITMAP
01806000
01806000
01807000
03803000
03003800
07001000
067FFFF8
0E7FFFF8
1C00E000
1C00E000
3C01F000
7C03B000
7C073018
EC0E3838
4C1E1870
0C3C19E0
0C7C1F80
0FEC0F00
0FCC0E00
0C8C0600
0C0C0700
0C0C0300
0C0C0380
0C0C01C0
0C0C00E0
0C0C70F0
0C0FF078
0C1FC03C
0C1E0018
0C180000
ENDCHAR
STARTCHAR U+5143
ENCODING 20803
SWIDTH 500 0
DWIDTH 32 0
BBX 28 27 2 -3
BITMAP
1FFFFF80
1FFFFF80
00000000
00000000
00000000
00000000
00000000
00000000
00000000
FFFFFFF0
FFFFFFF0
00E06000
00C06000
00C06000
00C06000
00C06000
01C06000
01C06000
01806000
03806030
07006030
07006030
0E006030
3C006030
78007FF0
F0003FE0
40000000
ENDCHAR
STARTCHAR U+5148
ENCODING 20808
SWIDTH 500 0
DWIDTH 32 0
BBX 28 30 2 -3
BITMAP
00060000
03060000
07060000
07060000
06060000
0FFFFFC0
0FFFFFC0
0C060000
1C060000
38060000
38060000
30060000
00060000
00060000
FFFFFFF0
FFFFFFF0
00E06000
00E06000
00C06000
00C06000
00C06000
01C06000
01806020
03806030
07006030
0F006030
1E006030
7C007FF0
F0003FE0
40000000
ENDCHAR
STARTCHAR U+5165
ENCODING 20837
SWIDTH 500 0
DWIDTH 32 0
BBX 28 28 2 -2
BITMAP
00400000
00E00000
00F00000
00780000
00380000
001C0000
000E0000
000F0000
000F0000
000F8000
000F8000
001DC000
001CC000
0018E000
00386000
00387000
00703000
00703800
00E01C00
01C01C00
01C00E00
03800F00
07000780
0E0003C0
3C0001E0
780000F0
F0000070
60000030
ENDCHAR
STARTCHAR U+516D
ENCODING 20845
SWIDTH 500 0
DWIDTH 32 0
BBX 28 30 2 -3
BITMAP
000C0000
001C0000
000E0000
000E0000
00070000
00070000
00070000
00020000
00000000
FFFFFFF0
FFFFFFF0
00000000
00000000
00000000
00000000
00C03000
01C03800
01C01C00
03801C00
03800E00
07000F00
0E000700
0E000380
1C000380
3C0001C0
380000E0
700000E0
F0000070
E0000070
40000000
ENDCHAR
STARTCHAR U+5199
ENCODING 20889
SWIDTH 500 0
DWIDTH 32 0
BBX 26 27 3 -2
BITMAP
FFFFFFC0
FFFFFFC0
C00000C0
C38000C0
C38000C0
C38000C0
03000000
03FFFC00
03FFFC00
07000000
06000000
06000000
06000000
0FFFFE00
0FFFFE00
00000600
00000600
00000600
00000E00
FFFFCE00
FFFFCC00
00000C00
00000C00
00001C00
00001C00
000FF800
0007F000
ENDCHAR
STARTCHAR U+5230
ENCODING 21040
SWIDTH 500 0
DWIDTH 32 0
BBX 27 28 2 -2
BITMAP
00000060
FFFF8060
FFFFB860
07003860
06103860
0E383860
0C1C3860
1C0C3860
380E3860
7FFF3860
7FFF3860
30033860
00803860
01C03860
01C03860
01C03860
7FFF3860
7FFF3860
01C03860
01C03860
01C03860
01C01060
01C30060
01FF0060
0FFE0060
FFC00060
F8000FE0
000007C0
ENDCHAR
STARTCHAR U+5468
ENCODING 21608
SWIDTH 500 0
DWIDTH 32 0
BBX 27 28 1 -3
BITMAP
0FFFFFE0
0FFFFFE0
0C000060
0C030060
0C030060
0CFFFC60
0CFFFC60
0C030060
0C030060
0C030060
0DFFFE60
0DFFFE60
0C000060
0C000060
0C000060
0C7FF860
1C7FF860
1C601860
1C601860
18601860
18601860
38601860
387FF860
307FF860
70600060
706000E0
E0000FE0
40000FC0
ENDCHAR
STARTCHAR U+5929
ENCODING 22825
SWIDTH 500 0
DWIDTH 32 0
BBX 28 27 2 -3
BITMAP
7FFFFFC0
7FFFFFC0
00060000
00060000
00060000
00060000
00060000
000E0000
000E0000
000E0000
FFFFFFF0
FFFFFFF0
000F0000
001F0000
001F8000
00198000
0039C000
0070E000
0070E000
00E07000
01C03800
03801E00
0F000F00
3E0007C0
FC0003F0
F00000F0
40000020
ENDCHAR
STARTCHAR U+5B66
ENCODING 23398
SWIDTH 500 0
DWIDTH 32 0
BBX 28 30 2 -3
BITMAP
080C0100
0C0E0380
0E060300
07070600
03030E00
7FFFFFF0
7FFFFFF0
60000070
60000070
60000070
60000070
67FFFC70
07FFFE00
00003800
0000F000
0003C000
00078000
00060000
00060000
FFFFFFF0
FFFFFFF0
00060000
00060000
00060000
00060000
00060000
00060000
000E0000
01FE0000
00FC0000
ENDCHAR
STARTCHAR U+5B9D
ENCODING 23453
SWIDTH 500 0
DWIDTH 32 0
BBX 28 29 2 -2
BITMAP
000C0000
000E0000
00070000
00070000
7FFFFFE0
7FFFFFE0
60000060
60000060
60000060
60000060
600000E0
1FFFFF80
1FFFFF80
00060000
00060000
00060000
00060000
00060000
0FFFFF00
0FFFFF00
00060000
00063000
00063800
00061E00
00060700
00060300
00060000
FFFFFFF0
FFFFFFF0
ENDCHAR
STARTCHAR U+5C3D
ENCODING 23613
SWIDTH 500 0
DWIDTH 32 0
BBX 30 29 1 -3
BITMAP
07FFFFC0
07FFFFC0
060000C0
060000C0
060000C0
060000C0
060000C0
060000C0
07FFFFC0
07FFFFC0
06001C00
0E000C00
0E000E00
0E000E00
0C300700
0C3E0700
1C1FC380
1C03F1C0
380071E0
380000F0
70000078
F000003C
60800018
01F80000
00FF0000
000FE000
0001FC00
00003E00
00000C00
ENDCHAR
STARTCHAR U+5C71
ENCODING 23665
SWIDTH 500 0
DWIDTH 32 0
BBX 24 30 4 -3
BITMAP
001800
001800
001800
001800
001800
001800
001800
C01803
C01803
C01803
C01803
C01803
C01803
C01803
C01803
C01803
C01803
C01803
C01803
C01803
C01803
C01803
C01803
C01803
C01803
FFFFFF
FFFFFF
000003
000003
000003
ENDCHAR
STARTCHAR U+6539
ENCODING 25913
SWIDTH 500 0
DWIDTH 32 0
BBX 28 30 2 -3
BITMAP
00006000
00006000
7FF0E000
7FF0E000
0070C000
0070C000
0071FFF0
0071FFF0
007181C0
007381C0
0073C1C0
0077C1C0
7FF7C180
7FFEC180
600CE380
60046380
60006300
60007700
60003600
60003E00
60001E00
60001C00
60F03E00
63F03E00
7FC0F700
FE01E380
F803C1E0
600F80F0
000F0070
000C0000
ENDCHAR
STARTCHAR U+653E
ENCODING 25918
SWIDTH 500 0
DWIDTH 32 0
BBX 30 30 1 -3
BITMAP
03003800
03003800
01803000
01803000
01003000
7FFE7000
7FFE7FFC
0E007FFC
0E00E060
0E00E060
0E01E060
0E01E0E0
0FFBF0E0
0FFBB0C0
0E1F30C0
0E1B39C0
0C181980
0C181980
0C181F80
0C180F00
0C180F00
0C180E00
1C180F00
18181F00
18383B80
383871C0
3038E0E0
7033E078
E3F7803C
43E30018
ENDCHAR
STARTCHAR U+65E5
ENCODING 26085
SWIDTH 500 0
DWIDTH 32 0
BBX 21 28 6 -3
BITMAP
FFFFF8
FFFFF8
C00038
C00038
C00038
C00038
C00038
C00038
C00038
C00038
C00038
C00038
FFFFF8
FFFFF8
C00038
C00038
C00038
C00038
C00038
C00038
C00038
C00038
C00038
FFFFF8
FFFFF8
C00038
C00038
C00000
ENDCHAR
STARTCHAR U+65E6
ENCODING 26086
SWIDTH 500 0
DWIDTH 32 0
BBX 28 26 2 -1
BITMAP
07FFFF00
07FFFF00
06000700
06000700
06000700
06000700
06000700
06000700
06000700
07FFFF00
07FFFF00
06000700
06000700
06000700
06000700
06000700
06000700
07FFFF00
07FFFF00
00000000
00000000
00000000
00000000
00000000
FFFFFFF0
FFFFFFF0
ENDCHAR
STARTCHAR U+6709
ENCODING 26377
SWIDTH 500 0
DWIDTH 32 0
BBX 28 30 2 -3
BITMAP
00380000
00380000
00300000
00700000
FFFFFFF0
FFFFFFF0
00E00000
01C00000
01C00000
03800000
03FFFF00
07FFFF00
0F800300
0F800300
1F800300
3B800300
73FFFF00
E3FFFF00
C3800300
03800300
03800300
03FFFF00
03FFFF00
03800300
03800300
03800300
03800300
03800300
03807F00
03807E00
ENDCHAR
STARTCHAR U+6CB3
ENCODING 27827
SWIDTH 500 0
DWIDTH 32 0
BBX 29 29 2 -3
BITMAP
70000000
7CFFFFF8
1FFFFFF8
070000C0
020000C0
000000C0
000000C0
000000C0
003FF0C0
E03FF0C0
F03030C0
7C3030C0
1C3030C0
003030C0
003030C0
003030C0
003030C0
023030C0
073FF0C0
063FF0C0
0E3000C0
1C3000C0
1C0000C0
380000C0
380000C0
700000C0
E00001C0
60007FC0
00007F80
ENDCHAR
STARTCHAR U+6D41
ENCODING 27969
SWIDTH 500 0
DWIDTH 32 0
BBX 29 30 2 -3
BITMAP
0000C000
7000E000
3C006000
1E007000
0EFFFFF0
02FFFFF0
00038000
00070600
00060700
800E0380
E01C01C0
F83FFFC0
3C7FFFE0
0C7F8070
00000030
00000000
0018E300
0018E300
0218E300
0718E300
0618E300
0E18E300
0C38E300
1C38E300
1830E318
3870E318
7060E318
70E0E318
E1C0E3F0
018001F0
ENDCHAR
STARTCHAR U+6D77
ENCODING 28023
SWIDTH 500 0
DWIDTH 32 0
BBX 29 30 2 -3
BITMAP
000C0000
300C0000
3C1C0000
1F1C0000
073FFFF0
003FFFF0
00700000
00600000
00E00000
01DFFFC0
C09FFFC0
F018C0C0
7818E0C0
1C1870C0
081830C0
003810C0
01FFFFF8
01FFFFF8
0C3080C0
0C30C0C0
0C3060C0
1C3030C0
187031C0
387FFFF0
387FFFF0
30000180
70000180
60000380
60003F00
00003E00
ENDCHAR
STARTCHAR U+7434
ENCODING 29748
SWIDTH 500 0
DWIDTH 32 0
BBX 28 29 2 -3
BITMAP
FFF9FFF0
FFF9FFF0
03000E00
03000E00
03000E00
7FF0FFE0
7FF0FFE0
03000E00
03000E00
FFF9FFF0
FFFDFFF0
000F0000
001F8000
007BC000
00F0F000
03E47C00
0F8E1F80
7E0707F0
F80381F0
C0010020
0FFFFE00
0FFFFE00
00001C00
00003800
00003800
00007000
0000E000
0001C000
00018000
ENDCHAR
STARTCHAR U+767D
ENCODING 30333
SWIDTH 500 0
DWIDTH 32 0
BBX 22 30 5 -3
BITMAP
007000
007000
00E000
00E000
00C000
FFFFFC
FFFFFC
C0000C
C0000C
C0000C
C0000C
C0000C
C0000C
C0000C
C0000C
FFFFFC
FFFFFC
C0000C
C0000C
C0000C
C0000C
C0000C
C0000C
C0000C
C0000C
FFFFFC
FFFFFC
C0000C
C0000C
C0000C
ENDCHAR
STARTCHAR U+8BFE
ENCODING 35838
SWIDTH 500 0
DWIDTH 32 0
BBX 29 29 2 -3
BITMAP
301FFFC0
381FFFC0
1C1830C0
0E1830C0
0E1830C0
041830C0
001FFFC0
001FFFC0
001830C0
FC1830C0
FC1830C0
0C1FFFC0
0C1FFFC0
0C003000
0C003000
0C003000
0C7FFFF0
0C7FFFF0
0C00FC00
0C01FC00
0CC3B600
0DC33700
0F863380
0F1C31C0
1E3830E0
1C703078
18E03030
00403000
00003000
ENDCHAR
STARTCHAR U+8D1D
ENCODING 36125
SWIDTH 500 0
DWIDTH 32 0
BBX 27 28 2 -3
BITMAP
0FFFFF00
0FFFFF00
0C000300
0C000300
0C060300
0C060300
0C060300
0C060300
0C060300
0C060300
0C060300
0C060300
0C060300
0C060300
0C060300
0C0E0300
0C0E0300
0C0C0300
0C1C0300
00380000
00388000
0071E000
01E0F800
03C03E00
0F800F80
7E0003C0
F80000E0
60000040
ENDCHAR
STARTCHAR U+8FD8
ENCODING 36824
SWIDTH 500 0
DWIDTH 32 0
BBX 30 29 1 -3
BITMAP
38000000
1C7FFFF8
0E7FFFF8
0F001C00
07001800
03003800
00007000
00007000
0000F000
0001F200
FE03F700
FE03F380
0E0771C0
060E71E0
063C70F0
06787070
06F07038
06607010
06007000
06007000
06007000
06007000
06007000
0E007000
3F803000
79C00000
70FC01FC
E07FFFFC
400FFFF8
ENDCHAR
STARTCHAR U+94A2
ENCODING 38050
SWIDTH 500 0
DWIDTH 32 0
BBX 29 30 1 -3
BITMAP
0C000000
0C000000
0C07FFF8
1C07FFF8
1FF60038
3FF60138
700601B8
E0060338
6006C338
4006E338
1FE66338
1FE63638
07063638
07061E38
07061C38
07060C38
7FF61E38
7FF61E38
07063E38
07063338
07063338
070661B8
070661B8
0706C1B8
0707C038
07768038
07E60038
07C60038
0F0603F0
040601E0
ENDCHAR
STARTCHAR U+9EC4
ENCODING 40644
SWIDTH 500 0
DWIDTH 32 0
BBX 28 30 2 -3
BITMAP
00C03000
00C03000
00C03000
3FFFFFC0
3FFFFFC0
00C03000
00C03000
00C03000
FFFFFFF0
FFFFFFF0
00060000
00060000
00060000
1FFFFF80
1FFFFF80
1C060180
1C060180
1FFFFF80
1FFFFF80
1C060180
1C060180
1C060180
1FFFFF80
1FFFFF80
00000000
00E07800
07E03F00
1F800FC0
FC0001F0
60000060
ENDCHAR
STARTCHAR U+FF0C
ENCODING 65292
SWIDTH 500 0
DWIDTH 32 0
BBX 6 11 5 -4
BITMAP
70
78
F8
7C
38
18
18
30
70
E0
80
ENDCHAR
ENDFONT
