STARTFONT 2.1
FONT sans-b-32
SIZE 32 75 75
FONTBOUNDINGBOX 64 48 0 -10
STARTPROPERTIES 3
PIXEL_SIZE 32
FONT_ASCENT 38
FONT_DESCENT 10
ENDPROPERTIES
CHARS 127
STARTCHAR U+0020
ENCODING 32
SWIDTH 500 0
DWIDTH 7 0
BBX 0 0 0 0
BITMAP
ENDCHAR
STARTCHAR U+0021
ENCODING 33
SWIDTH 500 0
DWIDTH 12 0
BBX 6 25 3 0
BITMAP
78
78
78
78
78
78
78
78
78
78
78
78
78
78
78
78
00
00
00
78
F8
FC
FC
F8
70
ENDCHAR
STARTCHAR U+0022
ENCODING 34
SWIDTH 500 0
DWIDTH 18 0
BBX 13 11 3 14
BITMAP
F8F8
F8F8
F0F0
F0F0
F0F0
F0F0
F0F0
F0F0
F0F0
7070
7070
ENDCHAR
STARTCHAR U+0023
ENCODING 35
SWIDTH 500 0
DWIDTH 19 0
BBX 17 23 1 0
BITMAP
070E00
070C00
060C00
061C00
0E1C00
0E1C00
7FFF80
7FFF80
7FFF80
0E1800
0C3800
0C3800
1C3800
FFFF00
FFFF00
FFFF00
1C3800
1C3000
1C3000
187000
387000
387000
387000
ENDCHAR
STARTCHAR U+0024
ENCODING 36
SWIDTH 500 0
DWIDTH 19 0
BBX 15 30 2 -3
BITMAP
0380
0380
0380
0380
0FF0
3FF8
3FFC
7EFC
7818
7800
F800
7C00
7E00
3F80
1FE0
0FF0
03F8
00FC
007C
003E
003E
603C
707C
FFFC
FFF8
3FF0
0FC0
0380
0380
0380
ENDCHAR
STARTCHAR U+0025
ENCODING 37
SWIDTH 500 0
DWIDTH 31 0
BBX 29 24 1 0
BITMAP
0F001C00
3F801800
7FC03800
71E03000
F0E07000
F0E0E000
E0E0E000
E0F1C000
E0E1C000
F0E38300
70E38FC0
79E71FE0
3FC73CF0
1F8E3870
060C3870
001C7878
00187878
00387878
00307878
00703870
00E03CF0
00E01FE0
01C01FE0
01C00780
ENDCHAR
STARTCHAR U+0026
ENCODING 38
SWIDTH 500 0
DWIDTH 24 0
BBX 22 24 1 0
BITMAP
01F000
07F800
0FFC00
1F3C00
1E1C00
1E1E00
1E1C00
1E3C00
1EF800
0FF000
0FE000
0FC078
3FC078
7FE0F8
7DF0F0
F8F9F0
F87FE0
F83FC0
F81FC0
FC1FF0
7FFFFC
3FFFFC
1FF878
07E018
ENDCHAR
STARTCHAR U+0027
ENCODING 39
SWIDTH 500 0
DWIDTH 10 0
BBX 5 11 3 14
BITMAP
F8
F8
F0
F0
F0
F0
F0
F0
F0
70
70
ENDCHAR
STARTCHAR U+0028
ENCODING 40
SWIDTH 500 0
DWIDTH 12 0
BBX 7 33 3 -6
BITMAP
0C
0E
1E
1C
3C
38
78
78
78
70
F0
F0
F0
F0
F0
F0
F0
F0
F0
F0
F0
F0
F0
70
70
78
78
38
3C
1C
1E
0E
0C
ENDCHAR
STARTCHAR U+0029
ENCODING 41
SWIDTH 500 0
DWIDTH 12 0
BBX 7 33 2 -6
BITMAP
60
E0
F0
70
78
38
3C
3C
1C
1C
1E
1E
1E
1E
1E
1E
0E
0E
1E
1E
1E
1E
1E
1E
1C
3C
3C
38
78
78
F0
E0
60
ENDCHAR
STARTCHAR U+002A
ENCODING 42
SWIDTH 500 0
DWIDTH 16 0
BBX 12 12 2 14
BITMAP
0600
0700
0700
8F10
FFF0
FFF0
7FE0
1F80
1F80
3FC0
39E0
30C0
ENDCHAR
STARTCHAR U+002B
ENCODING 43
SWIDTH 500 0
DWIDTH 19 0
BBX 17 17 1 3
BITMAP
01C000
01C000
01C000
01C000
01C000
01C000
03C000
FFFF80
FFFF80
FFFF80
01C000
01C000
01C000
01C000
01C000
01C000
01C000
ENDCHAR
STARTCHAR U+002C
ENCODING 44
SWIDTH 500 0
DWIDTH 10 0
BBX 7 13 2 -7
BITMAP
10
7C
FC
FE
7E
3E
1E
1C
1C
78
F8
E0
40
ENDCHAR
STARTCHAR U+002D
ENCODING 45
SWIDTH 500 0
DWIDTH 12 0
BBX 8 3 2 8
BITMAP
FF
FF
FF
ENDCHAR
STARTCHAR U+002E
ENCODING 46
SWIDTH 500 0
DWIDTH 10 0
BBX 6 6 2 0
BITMAP
78
7C
FC
FC
7C
38
ENDCHAR
STARTCHAR U+002F
ENCODING 47
SWIDTH 500 0
DWIDTH 12 0
BBX 10 32 1 -6
BITMAP
00C0
01C0
01C0
01C0
0380
0380
0380
0380
0700
0700
0700
0700
0E00
0E00
0E00
0E00
1C00
1C00
1C00
1C00
3800
3800
3800
3800
7000
7000
7000
7000
E000
E000
E000
E000
ENDCHAR
STARTCHAR U+0030
ENCODING 48
SWIDTH 500 0
DWIDTH 19 0
BBX 16 24 1 0
BITMAP
03E0
0FF8
1FFC
3FFE
3E3E
7C1E
781F
780F
780F
780F
F80F
F80F
F80F
F80F
780F
780F
780F
781F
7C1E
3E3E
3FFC
1FFC
0FF8
03E0
ENDCHAR
STARTCHAR U+0031
ENCODING 49
SWIDTH 500 0
DWIDTH 19 0
BBX 14 24 3 0
BITMAP
0780
3F80
FF80
FF80
FF80
0780
0780
0780
0780
0780
0780
0780
0780
0780
0780
0780
0780
0780
0780
0780
FFFC
FFFC
FFFC
FFFC
ENDCHAR
STARTCHAR U+0032
ENCODING 50
SWIDTH 500 0
DWIDTH 19 0
BBX 16 24 1 0
BITMAP
07E0
1FF0
7FF8
FFFC
787E
203E
003E
001E
003E
003E
003C
007C
0078
00F8
01F0
03F0
07E0
0FC0
1F80
3F00
7FFF
FFFF
FFFF
FFFF
ENDCHAR
STARTCHAR U+0033
ENCODING 51
SWIDTH 500 0
DWIDTH 19 0
BBX 16 24 1 0
BITMAP
07E0
3FF8
7FFC
7FFE
383E
003E
001E
003E
003E
00FC
07F8
07F0
07F8
01FE
003E
001F
001F
001F
201F
703F
FFFE
7FFC
3FF8
0FE0
ENDCHAR
STARTCHAR U+0034
ENCODING 52
SWIDTH 500 0
DWIDTH 19 0
BBX 17 24 1 0
BITMAP
00FC00
00FC00
01FC00
03FC00
03FC00
07BC00
07BC00
0F3C00
1F3C00
1E3C00
3C3C00
7C3C00
783C00
F83C00
FFFF80
FFFF80
FFFF80
FFFF80
003C00
003C00
003C00
003C00
003C00
003C00
ENDCHAR
STARTCHAR U+0035
ENCODING 53
SWIDTH 500 0
DWIDTH 19 0
BBX 16 24 1 0
BITMAP
3FFE
3FFE
3FFE
3FFE
3C00
3C00
3C00
3C00
3FF0
3FF8
3FFC
3EFE
003F
001F
001F
001F
001F
001F
601F
707E
FFFE
7FFC
3FF8
0FE0
ENDCHAR
STARTCHAR U+0036
ENCODING 54
SWIDTH 500 0
DWIDTH 19 0
BBX 16 24 2 0
BITMAP
03F0
0FFC
1FFE
3FFC
7E1C
7C00
F800
F800
F000
F1E0
F7F8
FFFC
FE7E
F83E
F01E
F01E
F01F
F81E
781E
7C3E
3FFC
3FFC
0FF0
07E0
ENDCHAR
STARTCHAR U+0037
ENCODING 55
SWIDTH 500 0
DWIDTH 19 0
BBX 15 24 2 0
BITMAP
FFFE
FFFE
FFFE
FFFE
003C
0078
0078
00F0
01F0
01E0
01E0
03C0
03C0
03C0
07C0
07C0
0780
0780
0F80
0F80
0F80
0F80
0F80
0F80
ENDCHAR
STARTCHAR U+0038
ENCODING 56
SWIDTH 500 0
DWIDTH 19 0
BBX 15 24 2 0
BITMAP
07C0
1FF0
3FF8
7C7C
783C
F83C
F81C
783C
7C3C
7E78
3FF8
1FF0
3FF8
79FC
F07C
F03E
F01E
F01E
F01E
F83E
FC7E
7FFC
3FF8
0FE0
ENDCHAR
STARTCHAR U+0039
ENCODING 57
SWIDTH 500 0
DWIDTH 19 0
BBX 16 24 1 0
BITMAP
07C0
1FF0
3FF8
3FFC
7C3E
781E
F81F
F80F
F80F
F80F
781F
7E7F
3FFF
1FEF
0F8F
000F
001F
001E
003E
387C
7FFC
7FF8
3FF0
0FC0
ENDCHAR
STARTCHAR U+003A
ENCODING 58
SWIDTH 500 0
DWIDTH 10 0
BBX 6 18 2 0
BITMAP
78
7C
FC
FC
7C
38
00
00
00
00
00
00
78
7C
FC
FC
7C
38
ENDCHAR
STARTCHAR U+003B
ENCODING 59
SWIDTH 500 0
DWIDTH 10 0
BBX 7 25 2 -7
BITMAP
38
7C
FC
FC
7C
78
00
00
00
00
00
00
10
7C
FC
FE
7E
3E
1E
1C
1C
78
F8
E0
40
ENDCHAR
STARTCHAR U+003C
ENCODING 60
SWIDTH 500 0
DWIDTH 19 0
BBX 17 16 1 4
BITMAP
000180
000780
003F80
00FF80
07FE00
3FF000
FF8000
FC0000
FC0000
FF8000
3FF000
07FE00
00FF80
003F80
000780
000180
ENDCHAR
STARTCHAR U+003D
ENCODING 61
SWIDTH 500 0
DWIDTH 19 0
BBX 17 12 1 6
BITMAP
FFFF80
FFFF80
FFFF80
000000
000000
000000
000000
000000
000000
FFFF80
FFFF80
FFFF80
ENDCHAR
STARTCHAR U+003E
ENCODING 62
SWIDTH 500 0
DWIDTH 19 0
BBX 17 16 1 4
BITMAP
C00000
F00000
FE0000
FF8000
3FF000
07FE00
00FF80
001F80
001F80
00FF00
07FC00
3FF000
FF8000
FE0000
F00000
C00000
ENDCHAR
STARTCHAR U+003F
ENCODING 63
SWIDTH 500 0
DWIDTH 16 0
BBX 13 25 2 0
BITMAP
1F80
7FE0
FFF0
FFF0
61F8
00F8
00F8
00F8
01F0
01F0
03E0
07C0
0780
0F00
0F00
0F00
0E00
0000
0000
0E00
1F00
1F80
1F80
1F00
0E00
ENDCHAR
STARTCHAR U+0040
ENCODING 64
SWIDTH 500 0
DWIDTH 32 0
BBX 28 30 2 -6
BITMAP
000FE000
007FFC00
01FFFF00
03F01F80
07C007C0
0F0001E0
1E0000E0
3C0000E0
380F3070
781FF870
703FF070
7078F070
F0F0F070
E0F0F070
E0E0F070
E1E0E070
E1E0E070
E1E1E0F0
E1F3E0E0
E0FFF3C0
F07E7FC0
703C7F80
70003E00
78000000
3C000000
1E000000
0FC07000
07FFF000
01FFF000
007F8000
ENDCHAR
STARTCHAR U+0041
ENCODING 65
SWIDTH 500 0
DWIDTH 21 0
BBX 20 24 0 0
BITMAP
01F800
01F800
01FC00
03FC00
03FC00
03DE00
079E00
079E00
078F00
0F8F00
0F0F00
0F0F80
1F0780
1E0780
1FFFC0
1FFFC0
3FFFC0
3FFFE0
3C03E0
7C03E0
7C01F0
7801F0
F801F0
F800F0
ENDCHAR
STARTCHAR U+0042
ENCODING 66
SWIDTH 500 0
DWIDTH 22 0
BBX 17 24 3 0
BITMAP
FFF000
FFFC00
FFFE00
FFFF00
F81F00
F81F00
F80F00
F80F00
F81F00
F83E00
FFFC00
FFF800
FFFE00
F9FF00
F80F80
F80780
F80780
F80780
F80F80
F81F80
FFFF80
FFFF00
FFFC00
FFF000
ENDCHAR
STARTCHAR U+0043
ENCODING 67
SWIDTH 500 0
DWIDTH 21 0
BBX 18 24 2 0
BITMAP
00FC00
07FF00
0FFF80
1FFF80
3F8700
7E0100
7C0000
FC0000
F80000
F80000
F80000
F80000
F80000
F80000
F80000
F80000
FC0000
7C0000
7E0100
3F8780
1FFFC0
0FFF80
07FF00
01FC00
ENDCHAR
STARTCHAR U+0044
ENCODING 68
SWIDTH 500 0
DWIDTH 23 0
BBX 18 24 3 0
BITMAP
FFC000
FFF800
FFFC00
FFFE00
F83F00
F81F80
F80F80
F80FC0
F807C0
F807C0
F807C0
F807C0
F807C0
F807C0
F807C0
F807C0
F80F80
F80F80
F81F80
F83F00
FFFE00
FFFC00
FFF800
FFC000
ENDCHAR
STARTCHAR U+0045
ENCODING 69
SWIDTH 500 0
DWIDTH 20 0
BBX 15 24 3 0
BITMAP
FFFC
FFFC
FFFC
FFFC
F800
F800
F800
F800
F800
F800
FFF8
FFF8
FFF8
FFF8
F800
F800
F800
F800
F800
F800
FFFE
FFFE
FFFE
FFFE
ENDCHAR
STARTCHAR U+0046
ENCODING 70
SWIDTH 500 0
DWIDTH 19 0
BBX 14 24 3 0
BITMAP
FFFC
FFFC
FFFC
FFFC
F800
F800
F800
F800
F800
F800
FFF8
FFF8
FFF8
FFF8
F800
F800
F800
F800
F800
F800
F800
F800
F800
F800
ENDCHAR
STARTCHAR U+0047
ENCODING 71
SWIDTH 500 0
DWIDTH 23 0
BBX 19 24 2 0
BITMAP
00FC00
07FF00
0FFFC0
1FFFC0
3F8780
7E0100
7C0000
7C0000
F80000
F80000
F80000
F83FE0
F83FE0
F83FE0
F83FE0
F801E0
FC01E0
7C01E0
7E01E0
3F83E0
1FFFE0
0FFFC0
07FF80
00FC00
ENDCHAR
STARTCHAR U+0048
ENCODING 72
SWIDTH 500 0
DWIDTH 24 0
BBX 18 24 3 0
BITMAP
F803C0
F803C0
F803C0
F803C0
F803C0
F803C0
F803C0
F803C0
F803C0
F803C0
FFFFC0
FFFFC0
FFFFC0
FFFFC0
F803C0
F803C0
F803C0
F803C0
F803C0
F803C0
F803C0
F803C0
F803C0
F803C0
ENDCHAR
STARTCHAR U+0049
ENCODING 73
SWIDTH 500 0
DWIDTH 11 0
BBX 5 24 3 0
BITMAP
F8
F8
F8
F8
F8
F8
F8
F8
F8
F8
F8
F8
F8
F8
F8
F8
F8
F8
F8
F8
F8
F8
F8
F8
ENDCHAR
STARTCHAR U+004A
ENCODING 74
SWIDTH 500 0
DWIDTH 18 0
BBX 14 24 1 0
BITMAP
003C
003C
003C
003C
003C
003C
003C
003C
003C
003C
003C
003C
003C
003C
003C
003C
003C
007C
307C
F8FC
FFF8
7FF8
3FF0
0FC0
ENDCHAR
STARTCHAR U+004B
ENCODING 75
SWIDTH 500 0
DWIDTH 22 0
BBX 19 24 3 0
BITMAP
F80F80
F81F80
F81F00
F83E00
F87C00
F8FC00
F8F800
F9F000
FBE000
FFE000
FFE000
FFF000
FFF000
FFF800
FEFC00
FC7C00
F83E00
F83E00
F81F00
F81F00
F80F80
F80FC0
F807C0
F803E0
ENDCHAR
STARTCHAR U+004C
ENCODING 76
SWIDTH 500 0
DWIDTH 19 0
BBX 14 24 3 0
BITMAP
F800
F800
F800
F800
F800
F800
F800
F800
F800
F800
F800
F800
F800
F800
F800
F800
F800
F800
F800
F800
FFFC
FFFC
FFFC
FFFC
ENDCHAR
STARTCHAR U+004D
ENCODING 77
SWIDTH 500 0
DWIDTH 27 0
BBX 21 24 3 0
BITMAP
F800F8
FC00F8
FC01F8
FC01F8
FE01F8
FE03F8
FE03F8
FF03F8
FF07F8
F78778
F78F78
F78F78
F3CE78
F3CE78
F1DE78
F1FC78
F1FC78
F0FC78
F0F878
F0F878
F07078
F07078
F00078
F00078
ENDCHAR
STARTCHAR U+004E
ENCODING 78
SWIDTH 500 0
DWIDTH 24 0
BBX 18 24 3 0
BITMAP
F803C0
FC03C0
FC03C0
FE03C0
FE03C0
FF03C0
FF03C0
F783C0
F783C0
F3C3C0
F3C3C0
F1E3C0
F1E3C0
F0F3C0
F0F3C0
F07BC0
F07BC0
F03FC0
F03FC0
F01FC0
F01FC0
F00FC0
F00FC0
F007C0
ENDCHAR
STARTCHAR U+004F
ENCODING 79
SWIDTH 500 0
DWIDTH 25 0
BBX 21 24 2 0
BITMAP
01FC00
07FF00
1FFF80
3FFFC0
3F0FE0
7E03E0
7C01F0
F801F0
F800F8
F800F8
F800F8
F800F8
F800F8
F800F8
F800F8
F800F0
FC01F0
7C01F0
7E03E0
3F0FE0
1FFFC0
0FFF80
07FF00
01FC00
ENDCHAR
STARTCHAR U+0050
ENCODING 80
SWIDTH 500 0
DWIDTH 21 0
BBX 17 24 3 0
BITMAP
FFF000
FFFC00
FFFE00
FFFF00
F81F00
F80F80
F80F80
F80F80
F80F80
F80F80
F81F00
F83F00
FFFF00
FFFE00
FFF800
FFC000
F80000
F80000
F80000
F80000
F80000
F80000
F80000
F80000
ENDCHAR
STARTCHAR U+0051
ENCODING 81
SWIDTH 500 0
DWIDTH 25 0
BBX 22 30 2 -6
BITMAP
01FC00
07FF00
1FFF80
3FFFC0
3F0FE0
7E03E0
7C01F0
FC01F0
F800F0
F800F8
F800F8
F800F8
F800F8
F800F8
F800F8
F800F8
F801F0
7C01F0
7C03E0
3E07E0
3FFFC0
1FFFC0
0FFF00
03FE00
00FC00
007E00
003FF8
001FF8
000FFC
0001F8
ENDCHAR
STARTCHAR U+0052
ENCODING 82
SWIDTH 500 0
DWIDTH 22 0
BBX 18 24 3 0
BITMAP
FFF000
FFFC00
FFFE00
FFFF00
F81F80
F80F80
F80F80
F80F80
F80F80
F80F80
F81F00
FFFF00
FFFE00
FFFC00
FFF800
F8F800
F87C00
F87C00
F83E00
F83F00
F81F00
F81F80
F80F80
F807C0
ENDCHAR
STARTCHAR U+0053
ENCODING 83
SWIDTH 500 0
DWIDTH 20 0
BBX 17 24 2 0
BITMAP
07F000
1FFC00
3FFE00
7FFF00
7E1E00
F80400
F80000
F80000
7E0000
7F8000
3FE000
1FF800
0FFE00
01FF00
007F00
001F00
000F80
000F80
701F00
FC3F00
FFFF00
7FFE00
3FF800
07E000
ENDCHAR
STARTCHAR U+0054
ENCODING 84
SWIDTH 500 0
DWIDTH 20 0
BBX 18 24 1 0
BITMAP
FFFFC0
FFFFC0
FFFFC0
FFFFC0
01E000
01E000
01E000
01E000
01E000
01E000
01E000
01E000
01E000
01E000
01E000
01E000
01E000
01E000
01E000
01E000
01E000
01E000
01E000
01E000
ENDCHAR
STARTCHAR U+0055
ENCODING 85
SWIDTH 500 0
DWIDTH 24 0
BBX 18 24 3 0
BITMAP
F803C0
F803C0
F803C0
F803C0
F803C0
F803C0
F803C0
F803C0
F803C0
F803C0
F803C0
F803C0
F803C0
F803C0
F803C0
F807C0
F807C0
F807C0
7C0F80
7E1F80
3FFF00
3FFF00
0FFC00
03F000
ENDCHAR
STARTCHAR U+0056
ENCODING 86
SWIDTH 500 0
DWIDTH 20 0
BBX 20 24 0 0
BITMAP
F801F0
F801E0
7801E0
7C03E0
7C03E0
7C03C0
3E07C0
3E07C0
3E0780
1E0780
1F0F80
1F0F00
0F0F00
0F0F00
0F9F00
0F9E00
079E00
079E00
07FC00
03FC00
03FC00
03F800
01F800
01F800
ENDCHAR
STARTCHAR U+0057
ENCODING 87
SWIDTH 500 0
DWIDTH 29 0
BBX 28 24 1 0
BITMAP
F00F01F0
F81F01E0
F81F01E0
F81F81E0
F81F83E0
783F83E0
783F83C0
7C3FC3C0
7C3BC3C0
7C3BC3C0
3C7BC7C0
3C79C7C0
3C71E780
3E71E780
3EF1E780
1EF1E780
1EF0E780
1EE0FF00
1FE0FF00
1FE0FF00
1FE07F00
0FC07F00
0FC07F00
0FC07E00
ENDCHAR
STARTCHAR U+0058
ENCODING 88
SWIDTH 500 0
DWIDTH 20 0
BBX 18 24 1 0
BITMAP
F807C0
7C0780
7C0F80
3E0F00
3E1F00
1F1E00
1F3E00
0FBC00
0FFC00
07F800
07F800
03F000
03F000
07F800
07F800
0F7C00
1F3C00
1F3E00
3E1F00
3E1F00
7C0F80
7C0F80
F807C0
F807C0
ENDCHAR
STARTCHAR U+0059
ENCODING 89
SWIDTH 500 0
DWIDTH 19 0
BBX 19 24 0 0
BITMAP
F803E0
F807C0
7C07C0
7C0F80
3E0F80
3E0F00
1E1F00
1F1E00
0F3E00
0FBC00
07BC00
07F800
03F800
03F000
01F000
01F000
01F000
01F000
01F000
01F000
01F000
01F000
01F000
01F000
ENDCHAR
STARTCHAR U+005A
ENCODING 90
SWIDTH 500 0
DWIDTH 20 0
BBX 17 24 1 0
BITMAP
7FFF80
7FFF80
7FFF80
7FFF80
001F00
003F00
003E00
007C00
00FC00
00F800
01F000
01F000
03E000
07C000
07C000
0F8000
1F0000
1F0000
3E0000
7E0000
7FFF80
FFFF80
FFFF80
FFFF80
ENDCHAR
STARTCHAR U+005B
ENCODING 91
SWIDTH 500 0
DWIDTH 12 0
BBX 8 31 3 -6
BITMAP
FF
FF
F0
F0
F0
F0
F0
F0
F0
F0
F0
F0
F0
F0
F0
F0
F0
F0
F0
F0
F0
F0
F0
F0
F0
F0
F0
F0
FF
FF
7E
ENDCHAR
STARTCHAR U+005C
ENCODING 92
SWIDTH 500 0
DWIDTH 12 0
BBX 11 32 1 -6
BITMAP
E000
E000
F000
7000
7000
7000
7800
3800
3800
3800
3C00
1C00
1C00
1C00
1E00
0E00
0E00
0E00
0F00
0700
0700
0700
0780
0380
0380
0380
03C0
01C0
01C0
01C0
01E0
00E0
ENDCHAR
STARTCHAR U+005D
ENCODING 93
SWIDTH 500 0
DWIDTH 12 0
BBX 7 31 2 -6
BITMAP
FE
FE
1E
1E
1E
1E
1E
1E
1E
1E
1E
1E
1E
1E
1E
1E
1E
1E
1E
1E
1E
1E
1E
1E
1E
1E
1E
1E
FE
FE
FC
ENDCHAR
STARTCHAR U+005E
ENCODING 94
SWIDTH 500 0
DWIDTH 19 0
BBX 15 14 2 10
BITMAP
07C0
07C0
0FC0
0FE0
0EE0
1EF0
1CF0
3C70
3C78
3878
783C
783C
F03C
F01E
ENDCHAR
STARTCHAR U+005F
ENCODING 95
SWIDTH 500 0
DWIDTH 18 0
BBX 18 3 0 -5
BITMAP
7FFFC0
FFFFC0
FFFFC0
ENDCHAR
STARTCHAR U+0060
ENCODING 96
SWIDTH 500 0
DWIDTH 20 0
BBX 8 8 4 21
BITMAP
70
F8
F8
7C
3E
1F
0E
04
ENDCHAR
STARTCHAR U+0061
ENCODING 97
SWIDTH 500 0
DWIDTH 19 0
BBX 15 18 2 0
BITMAP
0FE0
3FF0
7FF8
7FFC
707C
003C
003C
03FE
1FFE
7FBE
FC3E
F03E
F03E
F07E
FFFE
FFFE
7F9E
1E1E
ENDCHAR
STARTCHAR U+0062
ENCODING 98
SWIDTH 500 0
DWIDTH 21 0
BBX 16 25 3 0
BITMAP
F000
F000
F000
F000
F000
F000
F000
F1F0
F7F8
FFFC
FFFE
FC3E
F01F
F01F
F01F
F01F
F01F
F01F
F01F
F03E
F87E
FFFE
FFFC
E7F8
E3E0
ENDCHAR
STARTCHAR U+0063
ENCODING 99
SWIDTH 500 0
DWIDTH 17 0
BBX 15 18 1 0
BITMAP
01F0
0FFC
1FFC
3FFC
3F08
7C00
7C00
7800
F800
F800
7800
7C00
7C00
7E0C
3FFC
1FFE
0FFC
03F0
ENDCHAR
STARTCHAR U+0064
ENCODING 100
SWIDTH 500 0
DWIDTH 21 0
BBX 16 25 2 0
BITMAP
001F
001F
001F
001F
001F
001F
001F
079F
1FFF
3FFF
7FFF
7C3F
F81F
F81F
F81F
F01F
F01F
F01F
F81F
F81F
FC3F
7FFF
7FFF
3FEF
0F8F
ENDCHAR
STARTCHAR U+0065
ENCODING 101
SWIDTH 500 0
DWIDTH 19 0
BBX 16 18 1 0
BITMAP
03F0
0FF8
1FFC
3FFE
3C1F
780F
780F
7FFF
FFFF
FFFF
7800
7800
7C00
3E04
3FFE
1FFE
0FFE
03F0
ENDCHAR
STARTCHAR U+0066
ENCODING 102
SWIDTH 500 0
DWIDTH 12 0
BBX 12 26 1 0
BITMAP
03E0
0FF0
1FE0
1FE0
1F00
3E00
3E00
3E00
FFC0
FFC0
FFC0
FFC0
3E00
3E00
3E00
3E00
3E00
3E00
3E00
3E00
3E00
3E00
3E00
3E00
3E00
3E00
ENDCHAR
STARTCHAR U+0067
ENCODING 103
SWIDTH 500 0
DWIDTH 19 0
BBX 17 25 1 -7
BITMAP
07FF80
1FFF80
3FFF80
3E7E00
7C3E00
781E00
781E00
7C1E00
3C3C00
3FFC00
1FF800
3FE000
380000
780000
7E0000
3FFE00
3FFF80
3FFF80
780F80
700780
F00780
FC1F80
7FFF00
3FFC00
0FF000
ENDCHAR
STARTCHAR U+0068
ENCODING 104
SWIDTH 500 0
DWIDTH 20 0
BBX 15 25 3 0
BITMAP
F000
F000
F000
F000
F000
F000
F000
F1F0
F3F8
FFFC
FFFE
FC7E
F83E
F03E
F03E
F03E
F03E
F03E
F03E
F03E
F03E
F03E
F03E
F03E
F03E
ENDCHAR
STARTCHAR U+0069
ENCODING 105
SWIDTH 500 0
DWIDTH 10 0
BBX 6 26 2 0
BITMAP
70
F8
FC
F8
78
00
00
00
78
78
78
78
78
78
78
78
78
78
78
78
78
78
78
78
78
78
ENDCHAR
STARTCHAR U+006A
ENCODING 106
SWIDTH 500 0
DWIDTH 10 0
BBX 10 33 -2 -7
BITMAP
0780
0F80
0FC0
0F80
0780
0000
0000
0000
0780
0780
0780
0780
0780
0780
0780
0780
0780
0780
0780
0780
0780
0780
0780
0780
0780
0780
0780
0F80
0F80
7F80
7F00
7E00
FC00
ENDCHAR
STARTCHAR U+006B
ENCODING 107
SWIDTH 500 0
DWIDTH 19 0
BBX 16 26 3 0
BITMAP
F000
F000
F000
F000
F000
F000
F000
F000
F03E
F07C
F0F8
F0F8
F1F0
F3E0
F7C0
FFC0
FFC0
FFE0
FFE0
FDF0
F8F8
F0F8
F07C
F03E
F03E
F01F
ENDCHAR
STARTCHAR U+006C
ENCODING 108
SWIDTH 500 0
DWIDTH 10 0
BBX 6 26 3 0
BITMAP
F0
F0
F0
F0
F0
F0
F0
F0
F0
F0
F0
F0
F0
F0
F0
F0
F0
F0
F0
F0
F0
F0
FC
FC
7C
3C
ENDCHAR
STARTCHAR U+006D
ENCODING 109
SWIDTH 500 0
DWIDTH 31 0
BBX 25 18 3 0
BITMAP
E1F03C00
F7F8FF00
FFFDFF00
FFFFFF80
FC7F8F80
F83E0F80
F03E0780
F03E0780
F03E0780
F03E0780
F03E0780
F03E0780
F03E0780
F03E0780
F03E0780
F03E0780
F03E0780
F03E0780
ENDCHAR
STARTCHAR U+006E
ENCODING 110
SWIDTH 500 0
DWIDTH 21 0
BBX 15 18 3 0
BITMAP
E1F0
F3F8
FFFC
FFFE
FC7E
F83E
F03E
F03E
F03E
F03E
F03E
F03E
F03E
F03E
F03E
F03E
F03E
F03E
ENDCHAR
STARTCHAR U+006F
ENCODING 111
SWIDTH 500 0
DWIDTH 20 0
BBX 18 18 1 0
BITMAP
03F000
0FFC00
1FFE00
3FFF00
3E1F00
7C0F80
7C0F80
780780
F807C0
F807C0
780780
7C0F80
7C0F80
3E1F00
3FFF00
1FFE00
0FFC00
03F000
ENDCHAR
STARTCHAR U+0070
ENCODING 112
SWIDTH 500 0
DWIDTH 21 0
BBX 16 25 3 -7
BITMAP
E1F0
F7F8
FFFC
FFFE
FC3E
F01F
F01F
F01F
F01F
F01F
F01F
F01F
F03E
F87E
FFFE
FFFC
F7F8
F3E0
F000
F000
F000
F000
F000
F000
F000
ENDCHAR
STARTCHAR U+0071
ENCODING 113
SWIDTH 500 0
DWIDTH 21 0
BBX 16 25 2 -7
BITMAP
078F
1FEF
3FFF
7FFF
7C3F
F81F
F81F
F81F
F01F
F01F
F01F
F81F
F81F
FC3F
7FFF
3FFF
3FFF
0F9F
001F
001F
001F
001F
001F
001F
001F
ENDCHAR
STARTCHAR U+0072
ENCODING 114
SWIDTH 500 0
DWIDTH 14 0
BBX 11 18 3 0
BITMAP
E1E0
F3E0
F7E0
FFC0
FE00
F800
F800
F000
F000
F000
F000
F000
F000
F000
F000
F000
F000
F000
ENDCHAR
STARTCHAR U+0073
ENCODING 115
SWIDTH 500 0
DWIDTH 16 0
BBX 14 18 1 0
BITMAP
07C0
1FF0
3FF8
7FF8
7810
7800
7C00
3F80
3FE0
0FF0
03F8
00FC
007C
607C
7FF8
FFF8
3FF0
0FC0
ENDCHAR
STARTCHAR U+0074
ENCODING 116
SWIDTH 500 0
DWIDTH 13 0
BBX 12 23 1 0
BITMAP
1E00
1E00
1E00
1E00
1E00
FFE0
FFE0
FFE0
FFE0
3E00
3E00
3E00
3E00
3E00
3E00
3E00
3E00
3E00
3F00
1FE0
1FE0
0FF0
07E0
ENDCHAR
STARTCHAR U+0075
ENCODING 117
SWIDTH 500 0
DWIDTH 20 0
BBX 16 18 2 0
BITMAP
F81F
F81F
F81F
F81F
F81F
F81F
F81F
F81F
F81F
F81F
F81F
F81F
F81F
7C7F
7FFF
7FEF
3FCF
1F0F
ENDCHAR
STARTCHAR U+0076
ENCODING 118
SWIDTH 500 0
DWIDTH 18 0
BBX 17 18 1 0
BITMAP
F00F80
F80F00
F80F00
781F00
781E00
7C1E00
3C1E00
3C3C00
3E3C00
1E3C00
1E7800
1E7800
0F7800
0F7000
0FF000
07F000
07E000
07E000
ENDCHAR
STARTCHAR U+0077
ENCODING 119
SWIDTH 500 0
DWIDTH 28 0
BBX 26 18 1 0
BITMAP
F81E07C0
F83E0780
783F0780
783F0780
7C3F0F80
7C7F0F00
3C778F00
3C778F00
3C739F00
3E739E00
1EF3DE00
1EE3DE00
1EE3DE00
1FE1FC00
0FE1FC00
0FC1FC00
0FC1FC00
0FC0F800
ENDCHAR
STARTCHAR U+0078
ENCODING 120
SWIDTH 500 0
DWIDTH 18 0
BBX 16 18 1 0
BITMAP
F81F
7C1E
7C3E
3E3C
1E7C
1F78
0FF0
0FF0
07E0
07E0
0FF0
1FF0
1EF8
3E7C
3C7C
7C3E
F81F
F81F
ENDCHAR
STARTCHAR U+0079
ENCODING 121
SWIDTH 500 0
DWIDTH 18 0
BBX 17 25 1 -7
BITMAP
F00F80
F80F00
F80F00
781F00
7C1E00
3C1E00
3C3E00
3E3C00
1E3C00
1E3C00
0F7800
0F7800
0F7800
07F000
07F000
03F000
03E000
03E000
03E000
03C000
07C000
7F8000
7F0000
7E0000
7C0000
ENDCHAR
STARTCHAR U+007A
ENCODING 122
SWIDTH 500 0
DWIDTH 16 0
BBX 14 18 1 0
BITMAP
7FFC
7FFC
7FFC
7FFC
00F8
01F0
03E0
03E0
07C0
0F80
0F80
1F00
3E00
3E00
7FFC
FFFC
FFFC
FFFC
ENDCHAR
STARTCHAR U+007B
ENCODING 123
SWIDTH 500 0
DWIDTH 12 0
BBX 10 31 1 -6
BITMAP
0FC0
0FC0
1E00
1E00
1E00
1E00
1E00
1E00
1E00
1E00
1E00
1E00
3E00
FC00
F800
FC00
3C00
1E00
1E00
1E00
1E00
1E00
1E00
1E00
1E00
1E00
1E00
1E00
0FC0
0FC0
0180
ENDCHAR
STARTCHAR U+007C
ENCODING 124
SWIDTH 500 0
DWIDTH 9 0
BBX 3 36 3 -9
BITMAP
E0
E0
E0
E0
E0
E0
E0
E0
E0
E0
E0
E0
E0
E0
E0
E0
E0
E0
E0
E0
E0
E0
E0
E0
E0
E0
E0
E0
E0
E0
E0
E0
E0
E0
E0
E0
ENDCHAR
STARTCHAR U+007D
ENCODING 125
SWIDTH 500 0
DWIDTH 12 0
BBX 9 31 2 -6
BITMAP
F800
FC00
3C00
3C00
3C00
3C00
3C00
3C00
3C00
3C00
3C00
3C00
3E00
1F80
0F80
1F80
1E00
3C00
3C00
3C00
3C00
3C00
3C00
3C00
3C00
3C00
3C00
3C00
FC00
F800
C000
ENDCHAR
STARTCHAR U+007E
ENCODING 126
SWIDTH 500 0
DWIDTH 19 0
BBX 16 6 1 9
BITMAP
1E00
3F83
7FEF
FBFF
60FE
0038
ENDCHAR
STARTCHAR U+3002
ENCODING 12290
SWIDTH 500 0
DWIDTH 32 0
BBX 10 10 1 -3
BITMAP
1F00
7F80
71C0
E0C0
C0C0
C0C0
E1C0
7380
3F80
1E00
ENDCHAR
STARTCHAR U+4E1A
ENCODING 19994
SWIDTH 500 0
DWIDTH 32 0
BBX 28 29 2 -2
BITMAP
00F0F000
00F0F000
00F0F000
00F0F000
00F0F000
00F0F000
00F0F000
70F0F0C0
F0F0F0F0
78F0F0F0
78F0F1E0
78F0F1E0
3CF0F1C0
3CF0F3C0
3CF0F3C0
1EF0F780
1EF0F780
1EF0FF00
0FF0FF00
0CF0F600
00F0F000
00F0F000
00F0F000
00F0F000
00F0F000
FFFFFFF0
FFFFFFF0
FFFFFFF0
FFFFFFF0
ENDCHAR
STARTCHAR U+4F5C
ENCODING 20316
SWIDTH 500 0
DWIDTH 32 0
BBX 30 30 1 -3
BITMAP
0181C000
03E1E000
03C1E000
07C3C000
0783C000
0F87FFFC
0F07FFFC
1F0FFFFC
1F1FFFFC
3F1E7800
7F3E7800
FF7C7800
FF787FF8
7F387FF8
6F107FF8
0F007800
0F007800
0F007800
0F007800
0F007FF8
0F007FFC
0F007FFC
0F007FFC
0F007800
0F007800
0F007800
0F007800
0F007800
0F007800
0F007800
ENDCHAR
STARTCHAR U+4F9D
ENCODING 20381
SWIDTH 500 0
DWIDTH 32 0
BBX 30 30 1 -3
BITMAP
01807000
03C07800
03C07800
07807800
07803800
0FFFFFF8
0F7FFFF8
1F7FFFF8
1E7FFFF8
3E01F000
7E03F800
FE07F800
FE0FF830
7E1F3C78
7E3F3CF8
0E7E1DF0
0FFE1FE0
0FFE1FC0
0FFE0F80
0ECE0F00
0E0E0780
0E0E07C0
0E0E03C0
0E0E03E0
0E0F39F0
0E0FF8F8
0E1FF8FC
0E3FE078
0E1F8010
0E1C0000
ENDCHAR
STARTCHAR U+5143
ENCODING 20803
SWIDTH 500 0
DWIDTH 32 0
BBX 30 28 1 -3
BITMAP
0FFFFFC0
0FFFFFC0
0FFFFFC0
0FFFFFC0
00000000
00000000
00000000
00000000
00000000
7FFFFFF8
7FFFFFF8
7FFFFFF8
7FFFFFF8
00F07800
00F07800
00F07800
00F07800
01E07800
01E07800
01E07830
03E0783C
03C0783C
07C0783C
1F80783C
3F007FF8
FE007FF8
7C003FF8
30001FF0
ENDCHAR
STARTCHAR U+5148
ENCODING 20808
SWIDTH 500 0
DWIDTH 32 0
BBX 28 30 2 -3
BITMAP
060F0000
078F0000
0F0F0000
0F0F0000
0FFFFFC0
1FFFFFC0
1FFFFFC0
1FFFFFC0
3C0F0000
7C0F0000
780F0000
180F0000
000F0000
FFFFFFF0
FFFFFFF0
FFFFFFF0
FFFFFFF0
01E0F000
01E0F000
01E0F000
01E0F000
03E0F000
03C0F040
07C0F070
0F80F070
1F80F070
7F00FFF0
FE00FFF0
FC007FE0
70003FC0
ENDCHAR
STARTCHAR U+5165
ENCODING 20837
SWIDTH 500 0
DWIDTH 32 0
BBX 30 29 1 -2
BITMAP
00200000
00700000
00F80000
00FC0000
007E0000
003F0000
001F0000
000F8000
0007C000
000FC000
000FE000
000FE000
001FF000
001FF000
001EF800
003E7C00
003C3C00
007C3E00
007C1E00
00F81F00
01F00F80
03F00FC0
07E007E0
0FC003F0
1F8001F8
7F0000FC
FE0000F8
3C000038
18000018
ENDCHAR
STARTCHAR U+516D
ENCODING 20845
SWIDTH 500 0
DWIDTH 32 0
BBX 29 30 1 -3
BITMAP
00070000
000F0000
000F8000
000F8000
0007C000
0007C000
0003C000
00030000
7FFFFFF8
7FFFFFF8
7FFFFFF8
7FFFFFF8
00000000
00000000
00000000
00C01C00
01F03C00
01F03E00
03E01F00
03E01F00
07C00F80
07C007C0
0F8007C0
1F8003E0
1F0003F0
3E0001F0
7E0000F8
FC0000F8
38000070
18000040
ENDCHAR
STARTCHAR U+5199
ENCODING 20889
SWIDTH 500 0
DWIDTH 32 0
BBX 28 29 2 -3
BITMAP
FFFFFFF0
FFFFFFF0
FFFFFFF0
FFFFFFF0
F1E000F0
F1E000F0
F1E000F0
03FFFF00
03FFFF00
03FFFF00
03C00000
03C00000
03800000
07800000
07FFFF80
07FFFF80
07FFFF80
00000780
00000780
7FFFE700
7FFFE700
7FFFEF00
7FFFCF00
00000F00
00000F00
00003E00
0007FE00
0007FC00
0003F800
ENDCHAR
STARTCHAR U+5230
ENCODING 21040
SWIDTH 500 0
DWIDTH 32 0
BBX 28 30 2 -3
BITMAP
000000F0
000000F0
FFFF80F0
FFFFB8F0
FFFFB8F0
0F1038F0
1E3838F0
1E3C38F0
3C1E38F0
7C7E38F0
7FFF38F0
7FFF38F0
7FE738F0
000038F0
01C038F0
01C038F0
03C038F0
7FFF38F0
7FFF38F0
7FFF38F0
01C038F0
01C038F0
01C038F0
01C700F0
03FF00F0
7FFF00F0
FFFF0FF0
FFC00FF0
F8000FE0
00000F80
ENDCHAR
STARTCHAR U+5468
ENCODING 21608
SWIDTH 500 0
DWIDTH 32 0
BBX 28 29 1 -3
BITMAP
1FFFFFF0
1FFFFFF0
1FFFFFF0
1FFFFFF0
1E0780F0
1E0780F0
1E7FFCF0
1E7FFCF0
1E7FFCF0
1E0780F0
1E0780F0
1E0780F0
1EFFFEF0
1EFFFEF0
1EFFFEF0
1E0000F0
1E7FF8F0
1E7FF8F0
1C7FF8F0
1C7838F0
3C7838F0
3C7838F0
3C7FF8F0
787FF8F0
787FF8F0
F87800F0
F0781FF0
70000FE0
20000FE0
ENDCHAR
STARTCHAR U+5929
ENCODING 22825
SWIDTH 500 0
DWIDTH 32 0
BBX 30 28 1 -3
BITMAP
3FFFFFF0
3FFFFFF0
3FFFFFF0
3FFFFFF0
00078000
00078000
00078000
00078000
00078000
00078000
7FFFFFF8
7FFFFFF8
7FFFFFF8
7FFFFFF8
000FC000
001FE000
001FE000
003FF000
007CF800
007C7C00
00F87C00
03F03F00
07F01F80
1FE00FE0
7F8007FC
FF0003F8
7C0000F8
30000030
ENDCHAR
STARTCHAR U+5B66
ENCODING 23398
SWIDTH 500 0
DWIDTH 32 0
BBX 28 30 2 -3
BITMAP
060E0300
1E0F07C0
0F0F0780
0F878F00
07870F00
FFFFFFF0
FFFFFFF0
FFFFFFF0
F00000F0
F00000F0
F00000F0
F3FFFCF0
03FFFE00
03FFFC00
0001F800
0007E000
000FC000
000F0000
FFFFFFF0
FFFFFFF0
FFFFFFF0
FFFFFFF0
000F0000
000F0000
000F0000
000F0000
01FF0000
01FF0000
01FE0000
01F80000
ENDCHAR
STARTCHAR U+5B9D
ENCODING 23453
SWIDTH 500 0
DWIDTH 32 0
BBX 28 31 2 -3
BITMAP
00020000
001F0000
000F0000
000F0000
7FFFFFE0
FFFFFFF0
FFFFFFF0
FFFFFFF0
F00000F0
F00000F0
F00000F0
FFFFFFF0
1FFFFF80
1FFFFF80
0FFFFF00
000F0000
000F0000
000F0000
07FFFE00
0FFFFF00
0FFFFF00
0FFFFF00
000F1800
000F3C00
000F1E00
000F0F00
000F0F00
FFFFFFF0
FFFFFFF0
FFFFFFF0
7FFFFFE0
ENDCHAR
STARTCHAR U+5C3D
ENCODING 23613
SWIDTH 500 0
DWIDTH 32 0
BBX 30 29 1 -3
BITMAP
0FFFFFE0
0FFFFFE0
0FFFFFE0
0FFFFFE0
0F0001E0
0F0001E0
0F0001E0
0FFFFFE0
0FFFFFE0
0FFFFFE0
0FFFFFE0
0F001E00
0F001E00
0F000F00
0F180F00
1E3F0F80
1E3FE7C0
3E1FF3C0
3C03E3E0
7C00E1F8
F80000FC
F800007C
70F00038
21FF0010
01FFE000
003FF800
0007FE00
0000FC00
00003800
ENDCHAR
STARTCHAR U+5C71
ENCODING 23665
SWIDTH 500 0
DWIDTH 32 0
BBX 26 30 3 -3
BITMAP
001E0000
001E0000
001E0000
001E0000
001E0000
001E0000
001E0000
F01E03C0
F01E03C0
F01E03C0
F01E03C0
F01E03C0
F01E03C0
F01E03C0
F01E03C0
F01E03C0
F01E03C0
F01E03C0
F01E03C0
F01E03C0
F01E03C0
F01E03C0
F01E03C0
F01E03C0
FFFFFFC0
FFFFFFC0
FFFFFFC0
FFFFFFC0
000003C0
000003C0
ENDCHAR
STARTCHAR U+6539
ENCODING 25913
SWIDTH 500 0
DWIDTH 32 0
BBX 30 30 1 -3
BITMAP
00003800
00007800
7FF87800
7FF87800
7FF87800
7FF8FFF8
0078FFFC
0078FFFC
0079FFFC
0079E0F0
007BE0F0
7FFBF0F0
7FFFF0F0
7FFFF1E0
7FFFF9E0
780379E0
78003BC0
78003FC0
78003FC0
78001F80
78001F80
78381F00
78F81F80
7FF83FC0
7FF87FE0
FFC1FBF0
7F07F1FC
7807E0FC
6003C078
00038010
ENDCHAR
STARTCHAR U+653E
ENCODING 25918
SWIDTH 500 0
DWIDTH 32 0
BBX 30 30 1 -3
BITMAP
07803C00
03803C00
03C07800
03C07800
7FFC7800
FFFC7FFC
FFFCFFFC
FFFCFFFC
1E00FFFC
1E01F0F0
1E01F0E0
1E03F1E0
1FFFF1E0
1FFFF9E0
1FFFF9E0
1E3BBBC0
1E393FC0
1E383FC0
1E381F80
1E381F80
1E381F00
1C380F00
3C381F80
3C783FC0
3C787FE0
7879FBF0
F87BF1FC
F3FFE0FC
73F3C038
21E10010
ENDCHAR
STARTCHAR U+65E5
ENCODING 26085
SWIDTH 500 0
DWIDTH 32 0
BBX 22 28 5 -3
BITMAP
FFFFFC
FFFFFC
FFFFFC
FFFFFC
F0003C
F0003C
F0003C
F0003C
F0003C
F0003C
F0003C
FFFFFC
FFFFFC
FFFFFC
FFFFFC
F0003C
F0003C
F0003C
F0003C
F0003C
F0003C
F0003C
FFFFFC
FFFFFC
FFFFFC
FFFFFC
F0003C
F0003C
ENDCHAR
STARTCHAR U+65E6
ENCODING 26086
SWIDTH 500 0
DWIDTH 32 0
BBX 28 28 2 -2
BITMAP
0FFFFF00
0FFFFF00
0FFFFF00
0FFFFF00
0F000F00
0F000F00
0F000F00
0F000F00
0FFFFF00
0FFFFF00
0FFFFF00
0FFFFF00
0F000F00
0F000F00
0F000F00
0F000F00
0F000F00
0FFFFF00
0FFFFF00
0FFFFF00
0FFFFF00
00000000
00000000
00000000
FFFFFFF0
FFFFFFF0
FFFFFFF0
FFFFFFF0
ENDCHAR
STARTCHAR U+6709
ENCODING 26377
SWIDTH 500 0
DWIDTH 32 0
BBX 29 31 1 -4
BITMAP
003C0000
003C0000
003C0000
7FFFFFF8
7FFFFFF8
7FFFFFF8
7FFFFFF8
00F00000
01E00000
01E00000
03FFFFC0
07FFFFC0
07FFFFC0
0FE003C0
1FC003C0
3FC003C0
7FFFFFC0
FDFFFFC0
71FFFFC0
21C003C0
01C003C0
01FFFFC0
01FFFFC0
01FFFFC0
01C003C0
01C003C0
01C003C0
01C07FC0
01C03F80
01C03F80
01C01C00
ENDCHAR
STARTCHAR U+6CB3
ENCODING 27827
SWIDTH 500 0
DWIDTH 32 0
BBX 30 30 1 -3
BITMAP
10000000
3C7FFFFC
3F7FFFFC
3FFFFFFC
1FFFFFFC
070000F0
020000F0
000000F0
000000F0
003FF8F0
703FF8F0
FC3FF8F0
7F3C78F0
3E3C38F0
0C3C38F0
003C38F0
003C38F0
023C78F0
033FF8F0
07BFF8F0
07BFF8F0
0F3C00F0
0F3C00F0
1E0000F0
3E0000F0
3C0000F0
7C007FE0
78007FE0
30003FE0
00003F80
ENDCHAR
STARTCHAR U+6D41
ENCODING 27969
SWIDTH 500 0
DWIDTH 32 0
BBX 30 30 1 -3
BITMAP
10007000
3C007800
3F007800
3F807C00
0FFFFFF8
037FFFF8
007FFFF8
0003E180
0003C3C0
200781E0
780F87F0
FE3FFFF0
7F3FFFF8
1E3FFFFC
063C0038
00000000
000E73C0
000E73C0
030E73C0
078E73C0
078E73C0
0F9E73C0
0F1E73C0
1F1E73C8
1E3C73CC
3E3C73DC
7C7C73DC
78F873FC
38F071FC
106000F8
ENDCHAR
STARTCHAR U+6D77
ENCODING 28023
SWIDTH 500 0
DWIDTH 32 0
BBX 29 30 2 -3
BITMAP
101E0000
3C1E0000
7E1E0000
3F3FFFF0
0F3FFFF0
067FFFF0
00780000
00F00000
01F00000
01FFFFE0
60FFFFE0
F81FFFE0
FC1CE1E0
7C1C71E0
181C39E0
01FFFFF8
01FFFFF8
09FFFFF8
0C3DE1E0
0E39E1C0
1E38F1C0
1E3871C0
3C7FFFF0
3C7FFFF0
787FFFF0
780003C0
780003C0
F0003F80
70003F80
00003F00
ENDCHAR
STARTCHAR U+7434
ENCODING 29748
SWIDTH 500 0
DWIDTH 32 0
BBX 30 29 1 -3
BITMAP
7FFCFFF8
7FFCFFF8
7FFCFFF8
03800700
3FF87FF0
3FFCFFF8
3FFCFFF8
03800700
03800700
7FFCFFF8
7FFCFFF8
7FFFFFF8
000FC000
003FE000
00FFFC00
03F8FF00
1FF73FF0
FFCF8FFC
7F07C3F8
3C038070
2FFFFF00
07FFFF80
07FFFF00
00003E00
00003C00
00007C00
0000F800
0001F000
0000E000
ENDCHAR
STARTCHAR U+767D
ENCODING 30333
SWIDTH 500 0
DWIDTH 32 0
BBX 24 30 4 -3
BITMAP
007C00
007C00
007800
00F800
FFFFFF
FFFFFF
FFFFFF
FFFFFF
F0000F
F0000F
F0000F
F0000F
F0000F
F0000F
FFFFFF
FFFFFF
FFFFFF
FFFFFF
F0000F
F0000F
F0000F
F0000F
F0000F
F0000F
FFFFFF
FFFFFF
FFFFFF
FFFFFF
F0000F
F0000F
ENDCHAR
STARTCHAR U+8BFE
ENCODING 35838
SWIDTH 500 0
DWIDTH 32 0
BBX 30 30 1 -3
BITMAP
08000000
3C1FFFF0
3E1FFFF0
1F1FFFF0
0F1E3C70
0F1E3C70
061FFFF0
001FFFF0
001FFFF0
001E3C70
FF1E3C70
FF1FFFF0
FF1FFFF0
0F1FFFF0
0F003C00
0F003C00
0F003C00
0F3FFFFC
0F3FFFFC
0F3FFFFC
0F40FF00
0FE1FF80
0FE3FFC0
0FE7BDE0
0FCFBDF0
1F9F3CF8
1E7E3C7C
3C3C3C38
18183C10
00003C00
ENDCHAR
STARTCHAR U+8D1D
ENCODING 36125
SWIDTH 500 0
DWIDTH 32 0
BBX 27 29 2 -3
BITMAP
1FFFFF80
1FFFFF80
1FFFFF80
1FFFFF80
1E000780
1E0F0780
1E0F0780
1E0F0780
1E0F0780
1E0F0780
1E0F0780
1E0F0780
1E0F0780
1E0F0780
1E0F0780
1E0F0780
1E0F0780
1E1E0780
1E1E0780
1E3E0780
007C0000
00FCE000
01F8F800
03F1FE00
0FE07F80
7FC01FE0
FF0007E0
7C0001E0
700000C0
ENDCHAR
STARTCHAR U+8FD8
ENCODING 36824
SWIDTH 500 0
DWIDTH 32 0
BBX 30 30 1 -3
BITMAP
18000000
3C3FFFF8
3E3FFFF8
1F3FFFF8
0FBFFFF8
07003C00
06007800
0000F800
0000F800
0001F800
FE03F900
FF07FF80
FF0FFFC0
FF1FFFE0
0F3F7BF0
0F7E79F8
0FFC78F8
0F787878
0F707830
0F007800
0F007800
0F007800
0F007800
1F007800
3F807800
7FE00004
FFFFFFFC
F0FFFFFC
607FFFF8
600FFFF8
ENDCHAR
STARTCHAR U+94A2
ENCODING 38050
SWIDTH 500 0
DWIDTH 32 0
BBX 29 30 1 -3
BITMAP
0C000000
1E0FFFF8
1E0FFFF8
1FEFFFF8
3FEF0078
7FEF0038
FFEF03B8
F00F67B8
F00FE738
7FEFF738
5FEF7738
1FEF7F38
078F3E38
078F3E38
078F1E38
078F1E38
7FFF1E38
7FFF3E38
7FFF3F38
078F3F38
078F7FB8
078F73B8
078FF3F8
07AFE3B8
07FFE038
07FF4038
0FFF0078
0FCF03F8
0F0F01F0
0C0F01E0
ENDCHAR
STARTCHAR U+9EC4
ENCODING 40644
SWIDTH 500 0
DWIDTH 32 0
BBX 28 30 2 -3
BITMAP
01E07800
01E07800
3FFFFFC0
3FFFFFC0
3FFFFFC0
01E07800
01E07800
01E07800
FFFFFFF0
FFFFFFF0
FFFFFFF0
000F0000
000F0000
1FFFFFC0
1FFFFFC0
1FFFFFC0
1C0F03C0
1FFFFFC0
1FFFFFC0
1E0F07C0
1C0F03C0
1FFFFFC0
1FFFFFC0
1FFFFFC0
00C03800
03E07E00
1FF07FC0
FFC01FF0
FF0003E0
780000C0
ENDCHAR
STARTCHAR U+FF0C
ENCODING 65292
SWIDTH 500 0
DWIDTH 32 0
BBX 6 12 6 -5
BITMAP
78
FC
FC
FC
FC
3C
1C
3C
78
F0
E0
80
ENDCHAR
ENDFONT
