STARTFONT 2.1
FONT sans-b-24
SIZE 24 75 75
FONTBOUNDINGBOX 48 35 0 -7
STARTPROPERTIES 3
PIXEL_SIZE 24
FONT_ASCENT 28
FONT_DESCENT 7
ENDPROPERTIES
CHARS 127
STARTCHAR U+0020
ENCODING 32
SWIDTH 500 0
DWIDTH 5 0
BBX 0 0 0 0
BITMAP
ENDCHAR
STARTCHAR U+0021
ENCODING 33
SWIDTH 500 0
DWIDTH 9 0
BBX 5 19 2 0
BITMAP
70
70
70
70
70
70
70
70
70
70
70
70
20
00
20
70
F8
F0
70
ENDCHAR
STARTCHAR U+0022
ENCODING 34
SWIDTH 500 0
DWIDTH 14 0
BBX 10 8 2 10
BITMAP
F3C0
F3C0
F3C0
E380
E380
6180
6180
6180
ENDCHAR
STARTCHAR U+0023
ENCODING 35
SWIDTH 500 0
DWIDTH 14 0
BBX 12 18 1 0
BITMAP
0840
1860
18C0
18C0
18C0
FFF0
FFF0
38C0
18C0
30C0
39C0
FFF0
FFF0
3180
3180
3180
3180
7180
ENDCHAR
STARTCHAR U+0024
ENCODING 36
SWIDTH 500 0
DWIDTH 14 0
BBX 11 24 1 -3
BITMAP
0600
0600
0600
0F00
3FC0
3FE0
78C0
7000
7000
7800
3E00
1F80
0FC0
03E0
01E0
00E0
00E0
71E0
FFE0
7FC0
1F80
0600
0600
0600
ENDCHAR
STARTCHAR U+0025
ENCODING 37
SWIDTH 500 0
DWIDTH 23 0
BBX 21 18 1 0
BITMAP
3C0300
7E0300
E70600
E30E00
C30C00
C31800
C31800
E331E0
E733F0
7E6738
3C6618
00C618
00C618
018618
018618
030738
0703F0
0601E0
ENDCHAR
STARTCHAR U+0026
ENCODING 38
SWIDTH 500 0
DWIDTH 18 0
BBX 16 18 1 0
BITMAP
0F80
1FC0
3DC0
38E0
38E0
39C0
3FC0
1F00
1E07
7F0F
7F8E
F7DE
E3FC
E1F8
F0FC
FFFF
7FCF
1F03
ENDCHAR
STARTCHAR U+0027
ENCODING 39
SWIDTH 500 0
DWIDTH 8 0
BBX 4 8 2 10
BITMAP
F0
F0
F0
E0
E0
60
60
60
ENDCHAR
STARTCHAR U+0028
ENCODING 40
SWIDTH 500 0
DWIDTH 9 0
BBX 6 24 2 -4
BITMAP
18
1C
38
38
70
70
70
60
E0
E0
E0
E0
E0
E0
E0
E0
E0
60
70
70
30
38
38
1C
ENDCHAR
STARTCHAR U+0029
ENCODING 41
SWIDTH 500 0
DWIDTH 9 0
BBX 6 25 1 -5
BITMAP
60
60
70
70
38
38
38
18
1C
1C
1C
1C
1C
1C
1C
1C
1C
18
38
38
38
70
70
E0
20
ENDCHAR
STARTCHAR U+002A
ENCODING 42
SWIDTH 500 0
DWIDTH 12 0
BBX 10 9 1 10
BITMAP
0C00
0C00
4C80
FFC0
3F80
1E00
3F00
3300
2100
ENDCHAR
STARTCHAR U+002B
ENCODING 43
SWIDTH 500 0
DWIDTH 14 0
BBX 12 13 1 2
BITMAP
0600
0600
0600
0600
0600
FFF0
FFF0
FFF0
0600
0600
0600
0600
0600
ENDCHAR
STARTCHAR U+002C
ENCODING 44
SWIDTH 500 0
DWIDTH 8 0
BBX 6 9 1 -5
BITMAP
78
78
78
3C
18
18
38
F0
40
ENDCHAR
STARTCHAR U+002D
ENCODING 45
SWIDTH 500 0
DWIDTH 9 0
BBX 7 3 1 5
BITMAP
FE
FE
7C
ENDCHAR
STARTCHAR U+002E
ENCODING 46
SWIDTH 500 0
DWIDTH 8 0
BBX 4 5 2 0
BITMAP
40
F0
F0
F0
60
ENDCHAR
STARTCHAR U+002F
ENCODING 47
SWIDTH 500 0
DWIDTH 9 0
BBX 8 24 1 -5
BITMAP
07
06
06
0E
0E
0C
0C
1C
1C
18
18
38
30
30
30
70
60
60
60
E0
C0
C0
C0
C0
ENDCHAR
STARTCHAR U+0030
ENCODING 48
SWIDTH 500 0
DWIDTH 14 0
BBX 12 18 1 0
BITMAP
0F00
3FC0
3FE0
78E0
70E0
F0F0
F070
E070
E070
E070
E070
F070
F0F0
70E0
79E0
3FE0
3FC0
0F00
ENDCHAR
STARTCHAR U+0031
ENCODING 49
SWIDTH 500 0
DWIDTH 14 0
BBX 11 18 2 0
BITMAP
0E00
7E00
7E00
7E00
0E00
0E00
0E00
0E00
0E00
0E00
0E00
0E00
0E00
0E00
0E00
FFE0
FFE0
FFE0
ENDCHAR
STARTCHAR U+0032
ENCODING 50
SWIDTH 500 0
DWIDTH 14 0
BBX 12 18 1 0
BITMAP
1F00
7F80
FFC0
61E0
01E0
00E0
00E0
01E0
01C0
03C0
0780
0700
0F00
1E00
3C00
7FF0
FFF0
FFF0
ENDCHAR
STARTCHAR U+0033
ENCODING 51
SWIDTH 500 0
DWIDTH 14 0
BBX 12 18 1 0
BITMAP
1F00
7FC0
FFE0
61E0
00E0
00E0
01E0
0FC0
1F80
1FC0
01E0
00F0
00F0
00F0
E1E0
FFE0
7FC0
1F00
ENDCHAR
STARTCHAR U+0034
ENCODING 52
SWIDTH 500 0
DWIDTH 14 0
BBX 12 18 1 0
BITMAP
03C0
07C0
07C0
0FC0
1DC0
1DC0
39C0
79C0
71C0
E1C0
FFF0
FFF0
FFF0
01C0
01C0
01C0
01C0
01C0
ENDCHAR
STARTCHAR U+0035
ENCODING 53
SWIDTH 500 0
DWIDTH 14 0
BBX 12 18 1 0
BITMAP
7FE0
7FE0
7FE0
7800
7000
7000
7F80
7FC0
7FE0
01E0
00F0
00F0
00F0
00F0
E1E0
FFE0
7FC0
1F00
ENDCHAR
STARTCHAR U+0036
ENCODING 54
SWIDTH 500 0
DWIDTH 14 0
BBX 12 18 1 0
BITMAP
07C0
1FE0
3FE0
7840
7000
7000
F000
E7C0
FFE0
F8F0
F070
F070
7070
7070
78F0
3FE0
1FC0
0F80
ENDCHAR
STARTCHAR U+0037
ENCODING 55
SWIDTH 500 0
DWIDTH 14 0
BBX 12 18 1 0
BITMAP
FFF0
FFF0
FFF0
00E0
01C0
01C0
0380
0380
0700
0700
0700
0F00
0E00
0E00
0E00
0E00
0E00
1E00
ENDCHAR
STARTCHAR U+0038
ENCODING 56
SWIDTH 500 0
DWIDTH 14 0
BBX 12 18 1 0
BITMAP
0F80
3FC0
7FE0
70E0
70E0
70E0
78E0
3FC0
1F80
3FC0
73E0
70F0
E070
E070
F0F0
7FE0
3FC0
1F80
ENDCHAR
STARTCHAR U+0039
ENCODING 57
SWIDTH 500 0
DWIDTH 14 0
BBX 12 18 1 0
BITMAP
1F00
3F80
7FC0
F1E0
E0E0
E0F0
E070
E0F0
F1F0
7FF0
3F70
00F0
00E0
00E0
21E0
7FC0
7F80
1E00
ENDCHAR
STARTCHAR U+003A
ENCODING 58
SWIDTH 500 0
DWIDTH 8 0
BBX 4 13 2 0
BITMAP
F0
F0
F0
60
00
00
00
00
40
F0
F0
F0
60
ENDCHAR
STARTCHAR U+003B
ENCODING 59
SWIDTH 500 0
DWIDTH 8 0
BBX 6 18 1 -5
BITMAP
78
78
78
30
00
00
00
00
00
78
78
78
3C
18
18
38
F0
40
ENDCHAR
STARTCHAR U+003C
ENCODING 60
SWIDTH 500 0
DWIDTH 14 0
BBX 12 12 1 3
BITMAP
0010
00F0
03F0
1FC0
7F00
F800
F800
7F00
1FE0
03F0
00F0
0010
ENDCHAR
STARTCHAR U+003D
ENCODING 61
SWIDTH 500 0
DWIDTH 14 0
BBX 12 9 1 4
BITMAP
FFF0
FFF0
0000
0000
0000
0000
FFF0
FFF0
FFF0
ENDCHAR
STARTCHAR U+003E
ENCODING 62
SWIDTH 500 0
DWIDTH 14 0
BBX 12 12 1 3
BITMAP
8000
F000
FC00
3F80
07F0
01F0
01F0
07F0
3F80
FC00
F000
8000
ENDCHAR
STARTCHAR U+003F
ENCODING 63
SWIDTH 500 0
DWIDTH 12 0
BBX 10 19 1 0
BITMAP
1E00
7F80
FFC0
63C0
01C0
01C0
03C0
0780
0700
0E00
1E00
1C00
0C00
0000
0800
1E00
1E00
1E00
1C00
ENDCHAR
STARTCHAR U+0040
ENCODING 64
SWIDTH 500 0
DWIDTH 24 0
BBX 22 22 1 -4
BITMAP
007F00
01FFC0
07C3E0
0F0070
1C0038
380038
307B18
70FF1C
61EF1C
61C60C
63861C
E38E1C
E38E18
E38E38
639E70
61F7E0
70E3C0
300000
3C0000
1F0200
0FFF00
03FC00
ENDCHAR
STARTCHAR U+0041
ENCODING 65
SWIDTH 500 0
DWIDTH 15 0
BBX 15 18 0 0
BITMAP
07C0
07C0
07E0
0EE0
0EE0
0EF0
0E70
1C70
1C70
1C38
3FF8
3FF8
3FFC
781C
701C
701E
F01E
F00E
ENDCHAR
STARTCHAR U+0042
ENCODING 66
SWIDTH 500 0
DWIDTH 16 0
BBX 13 18 2 0
BITMAP
FF80
FFE0
FFF0
F0F0
F070
F070
F0F0
FFE0
FFC0
FFF0
F078
F038
F038
F038
F078
FFF8
FFF0
FFC0
ENDCHAR
STARTCHAR U+0043
ENCODING 67
SWIDTH 500 0
DWIDTH 16 0
BBX 14 18 1 0
BITMAP
03E0
0FF8
1FF8
3E38
7800
7800
7000
F000
F000
F000
F000
7000
7800
7800
3E38
1FFC
0FF8
03E0
ENDCHAR
STARTCHAR U+0044
ENCODING 68
SWIDTH 500 0
DWIDTH 17 0
BBX 14 18 2 0
BITMAP
FF00
FFE0
FFF0
F0F0
F078
F078
F03C
F03C
F03C
F03C
F03C
F03C
F078
F078
F0F0
FFF0
FFE0
FF80
ENDCHAR
STARTCHAR U+0045
ENCODING 69
SWIDTH 500 0
DWIDTH 15 0
BBX 11 18 2 0
BITMAP
FFE0
FFE0
FFE0
F000
F000
F000
F000
FFC0
FFC0
FFC0
F000
F000
F000
F000
F000
FFE0
FFE0
FFE0
ENDCHAR
STARTCHAR U+0046
ENCODING 70
SWIDTH 500 0
DWIDTH 14 0
BBX 11 18 2 0
BITMAP
FFE0
FFE0
FFE0
F000
F000
F000
F000
F000
FFC0
FFC0
FFC0
F000
F000
F000
F000
F000
F000
F000
ENDCHAR
STARTCHAR U+0047
ENCODING 71
SWIDTH 500 0
DWIDTH 17 0
BBX 15 18 1 0
BITMAP
03E0
0FF8
1FFC
3E18
7C00
7800
7000
F000
F0FE
F0FE
F0FE
701E
781E
781E
3E1E
1FFE
0FFC
03F0
ENDCHAR
STARTCHAR U+0048
ENCODING 72
SWIDTH 500 0
DWIDTH 18 0
BBX 14 18 2 0
BITMAP
F03C
F03C
F03C
F03C
F03C
F03C
F03C
FFFC
FFFC
FFFC
F03C
F03C
F03C
F03C
F03C
F03C
F03C
F03C
ENDCHAR
STARTCHAR U+0049
ENCODING 73
SWIDTH 500 0
DWIDTH 8 0
BBX 4 18 2 0
BITMAP
F0
F0
F0
F0
F0
F0
F0
F0
F0
F0
F0
F0
F0
F0
F0
F0
F0
F0
ENDCHAR
STARTCHAR U+004A
ENCODING 74
SWIDTH 500 0
DWIDTH 14 0
BBX 11 18 1 0
BITMAP
01E0
01E0
01E0
01E0
01E0
01E0
01E0
01E0
01E0
01E0
01E0
01E0
01C0
41C0
E3C0
FFC0
7F80
3E00
ENDCHAR
STARTCHAR U+004B
ENCODING 75
SWIDTH 500 0
DWIDTH 16 0
BBX 14 18 2 0
BITMAP
F078
F070
F0F0
F1E0
F3C0
F380
F780
FF00
FF80
FFC0
FFC0
F9E0
F0E0
F0F0
F070
F078
F03C
F03C
ENDCHAR
STARTCHAR U+004C
ENCODING 76
SWIDTH 500 0
DWIDTH 14 0
BBX 11 18 2 0
BITMAP
F000
F000
F000
F000
F000
F000
F000
F000
F000
F000
F000
F000
F000
F000
F000
FFE0
FFE0
FFE0
ENDCHAR
STARTCHAR U+004D
ENCODING 77
SWIDTH 500 0
DWIDTH 21 0
BBX 16 18 2 0
BITMAP
F00F
F80F
F80F
F81F
FC1F
FC3F
EC3F
EE37
EE77
E677
E767
E7E7
E3E7
E3C7
E3C7
E1C7
E007
E007
ENDCHAR
STARTCHAR U+004E
ENCODING 78
SWIDTH 500 0
DWIDTH 18 0
BBX 14 18 2 0
BITMAP
F03C
F83C
F83C
FC3C
FC3C
EE3C
EE3C
E73C
E73C
E39C
F39C
F1DC
F1FC
F0FC
F0FC
F07C
F07C
F03C
ENDCHAR
STARTCHAR U+004F
ENCODING 79
SWIDTH 500 0
DWIDTH 18 0
BBX 16 18 1 0
BITMAP
07E0
0FF8
3FFC
3E3E
781E
780F
700F
F00F
F00F
F00F
F00F
700F
780F
781E
3E3E
1FFC
0FF8
07E0
ENDCHAR
STARTCHAR U+0050
ENCODING 80
SWIDTH 500 0
DWIDTH 16 0
BBX 13 18 2 0
BITMAP
FF80
FFE0
FFF0
F0F8
F078
F078
F078
F078
F0F0
FFF0
FFE0
FF00
F000
F000
F000
F000
F000
F000
ENDCHAR
STARTCHAR U+0051
ENCODING 81
SWIDTH 500 0
DWIDTH 18 0
BBX 17 23 1 -5
BITMAP
07E000
0FF800
3FFC00
3E3E00
781E00
780F00
700F00
F00F00
F00F00
F00F00
F00F00
700F00
780F00
781E00
3C1E00
3FFC00
1FF800
07E000
01E000
01F000
00FF80
007F80
000F00
ENDCHAR
STARTCHAR U+0052
ENCODING 82
SWIDTH 500 0
DWIDTH 16 0
BBX 14 18 2 0
BITMAP
FFC0
FFE0
FFF0
F078
F078
F038
F078
F078
FFF0
FFE0
FFC0
F3C0
F1E0
F0E0
F0F0
F070
F078
F03C
ENDCHAR
STARTCHAR U+0053
ENCODING 83
SWIDTH 500 0
DWIDTH 15 0
BBX 13 18 1 0
BITMAP
0FC0
1FE0
3FF0
7860
7000
7800
7C00
3F00
3FC0
0FF0
03F0
00F8
0078
2078
70F8
FFF0
7FE0
0F80
ENDCHAR
STARTCHAR U+0054
ENCODING 84
SWIDTH 500 0
DWIDTH 15 0
BBX 13 18 1 0
BITMAP
FFF8
FFF8
FFF8
0700
0700
0700
0700
0700
0700
0700
0700
0700
0700
0700
0700
0700
0700
0700
ENDCHAR
STARTCHAR U+0055
ENCODING 85
SWIDTH 500 0
DWIDTH 18 0
BBX 14 18 2 0
BITMAP
F03C
F03C
F03C
F03C
F03C
F03C
F03C
F03C
F03C
F03C
F03C
F03C
F03C
7038
7878
3FF0
3FF0
0FC0
ENDCHAR
STARTCHAR U+0056
ENCODING 86
SWIDTH 500 0
DWIDTH 15 0
BBX 15 18 0 0
BITMAP
F01E
F01E
701C
783C
783C
3838
3838
3C78
3C70
1C70
1C70
1EF0
0EE0
0EE0
0FE0
07C0
07C0
07C0
ENDCHAR
STARTCHAR U+0057
ENCODING 87
SWIDTH 500 0
DWIDTH 22 0
BBX 20 18 1 0
BITMAP
E0F070
E0F070
E0F070
F0F070
F0F8F0
F1F8E0
71F8E0
71B8E0
719CE0
7B9CE0
7B9DE0
3B9DC0
3B0DC0
3F0FC0
3F0FC0
3F0FC0
1F0F80
1E0780
ENDCHAR
STARTCHAR U+0058
ENCODING 88
SWIDTH 500 0
DWIDTH 15 0
BBX 13 18 1 0
BITMAP
F078
F078
7870
38F0
3CE0
1DC0
1FC0
0F80
0F80
0F80
1FC0
1FC0
3DE0
38E0
78F0
7070
F078
E038
ENDCHAR
STARTCHAR U+0059
ENCODING 89
SWIDTH 500 0
DWIDTH 14 0
BBX 14 18 0 0
BITMAP
F03C
7038
7878
7870
3870
3CF0
1CE0
1FE0
0FC0
0FC0
0780
0780
0780
0780
0780
0780
0780
0780
ENDCHAR
STARTCHAR U+005A
ENCODING 90
SWIDTH 500 0
DWIDTH 15 0
BBX 13 18 1 0
BITMAP
7FF8
7FF8
7FF0
00F0
01E0
01E0
03C0
0780
0780
0F00
1E00
1E00
3C00
3800
7800
FFF8
FFF8
FFF8
ENDCHAR
STARTCHAR U+005B
ENCODING 91
SWIDTH 500 0
DWIDTH 9 0
BBX 6 23 2 -4
BITMAP
FC
FC
E0
E0
E0
E0
E0
E0
E0
E0
E0
E0
E0
E0
E0
E0
E0
E0
E0
E0
E0
FC
FC
ENDCHAR
STARTCHAR U+005C
ENCODING 92
SWIDTH 500 0
DWIDTH 9 0
BBX 8 24 1 -5
BITMAP
C0
C0
E0
60
60
60
70
30
30
30
38
18
18
18
1C
0C
0C
0C
0E
06
06
06
07
03
ENDCHAR
STARTCHAR U+005D
ENCODING 93
SWIDTH 500 0
DWIDTH 9 0
BBX 6 23 1 -4
BITMAP
FC
FC
1C
1C
1C
1C
1C
1C
1C
1C
1C
1C
1C
1C
1C
1C
1C
1C
1C
1C
1C
FC
FC
ENDCHAR
STARTCHAR U+005E
ENCODING 94
SWIDTH 500 0
DWIDTH 14 0
BBX 10 11 2 7
BITMAP
1E00
1E00
1F00
3F00
3300
7380
7380
61C0
E1C0
E1C0
C0C0
ENDCHAR
STARTCHAR U+005F
ENCODING 95
SWIDTH 500 0
DWIDTH 14 0
BBX 13 2 0 -4
BITMAP
FFF8
FFF8
ENDCHAR
STARTCHAR U+0060
ENCODING 96
SWIDTH 500 0
DWIDTH 15 0
BBX 6 5 3 16
BITMAP
60
F0
78
3C
1C
ENDCHAR
STARTCHAR U+0061
ENCODING 97
SWIDTH 500 0
DWIDTH 14 0
BBX 11 14 1 0
BITMAP
1F80
7FC0
7FE0
21E0
00E0
03E0
1FE0
7EE0
70E0
F0E0
F1E0
FFE0
7FE0
3C60
ENDCHAR
STARTCHAR U+0062
ENCODING 98
SWIDTH 500 0
DWIDTH 15 0
BBX 12 19 2 0
BITMAP
E000
E000
E000
E000
E000
E780
FFC0
FFE0
F0F0
E0F0
E070
E070
E070
E070
E0F0
F1E0
FFE0
FFC0
E780
ENDCHAR
STARTCHAR U+0063
ENCODING 99
SWIDTH 500 0
DWIDTH 13 0
BBX 11 14 1 0
BITMAP
0F80
1FE0
3FC0
7800
F000
F000
F000
F000
F000
F000
7840
3FC0
3FE0
0F80
ENDCHAR
STARTCHAR U+0064
ENCODING 100
SWIDTH 500 0
DWIDTH 15 0
BBX 13 19 1 0
BITMAP
0078
0078
0078
0078
0078
0F78
3FF8
3FF8
78F8
7078
F078
F078
F078
F078
F078
78F8
7FF8
3FF8
1F38
ENDCHAR
STARTCHAR U+0065
ENCODING 101
SWIDTH 500 0
DWIDTH 14 0
BBX 12 14 1 0
BITMAP
0F80
1FC0
3FE0
78E0
F070
F070
FFF0
FFF0
F000
F000
7800
3FE0
1FE0
0F80
ENDCHAR
STARTCHAR U+0066
ENCODING 102
SWIDTH 500 0
DWIDTH 9 0
BBX 8 20 1 0
BITMAP
0F
1F
3F
38
38
78
FF
FF
FE
78
78
78
78
78
78
78
78
78
78
78
ENDCHAR
STARTCHAR U+0067
ENCODING 103
SWIDTH 500 0
DWIDTH 14 0
BBX 13 19 1 -5
BITMAP
1FF8
3FF8
7BF0
70E0
F0E0
70E0
79E0
3FC0
3F80
7000
7000
7F80
7FF0
3FF8
6078
E078
F0F0
7FE0
3FC0
ENDCHAR
STARTCHAR U+0068
ENCODING 104
SWIDTH 500 0
DWIDTH 15 0
BBX 12 19 2 0
BITMAP
E000
E000
E000
E000
E000
E780
FFE0
FFE0
F9E0
F0F0
E0F0
E0F0
E0F0
E0F0
E0F0
E0F0
E0F0
E0F0
E0F0
ENDCHAR
STARTCHAR U+0069
ENCODING 105
SWIDTH 500 0
DWIDTH 7 0
BBX 4 20 2 0
BITMAP
E0
F0
F0
E0
00
00
E0
E0
E0
E0
E0
E0
E0
E0
E0
E0
E0
E0
E0
E0
ENDCHAR
STARTCHAR U+006A
ENCODING 106
SWIDTH 500 0
DWIDTH 7 0
BBX 7 25 -1 -5
BITMAP
1C
1E
1E
1C
00
00
1C
1C
1C
1C
1C
1C
1C
1C
1C
1C
1C
1C
1C
1C
1C
1C
FC
F8
F0
ENDCHAR
STARTCHAR U+006B
ENCODING 107
SWIDTH 500 0
DWIDTH 15 0
BBX 12 20 2 0
BITMAP
E000
E000
E000
E000
E000
E000
E0F0
E1E0
E3C0
E780
E700
FF00
FF00
FF00
FF80
F3C0
E1C0
E1E0
E0E0
E0F0
ENDCHAR
STARTCHAR U+006C
ENCODING 108
SWIDTH 500 0
DWIDTH 8 0
BBX 5 19 2 0
BITMAP
E0
E0
E0
E0
E0
E0
E0
E0
E0
E0
E0
E0
E0
E0
E0
F0
F8
F8
78
ENDCHAR
STARTCHAR U+006D
ENCODING 109
SWIDTH 500 0
DWIDTH 23 0
BBX 19 14 2 0
BITMAP
E78780
EFCFC0
FFFFE0
F9F9E0
F0F0E0
E0E0E0
E0E0E0
E0E0E0
E0E0E0
E0E0E0
E0E0E0
E0E0E0
E0E0E0
E0E0E0
ENDCHAR
STARTCHAR U+006E
ENCODING 110
SWIDTH 500 0
DWIDTH 15 0
BBX 12 14 2 0
BITMAP
E780
EFE0
FFE0
F9E0
F0F0
E0F0
E0F0
E0F0
E0F0
E0F0
E0F0
E0F0
E0F0
E0F0
ENDCHAR
STARTCHAR U+006F
ENCODING 111
SWIDTH 500 0
DWIDTH 15 0
BBX 13 14 1 0
BITMAP
0F80
1FC0
3FE0
78F0
F078
F078
F078
F078
F078
F078
78F0
3FE0
1FC0
0F80
ENDCHAR
STARTCHAR U+0070
ENCODING 112
SWIDTH 500 0
DWIDTH 15 0
BBX 12 19 2 -5
BITMAP
E780
FFC0
FFE0
F0F0
E0F0
E070
E070
E070
E070
E0F0
F1E0
FFE0
FFC0
E780
E000
E000
E000
E000
E000
ENDCHAR
STARTCHAR U+0071
ENCODING 113
SWIDTH 500 0
DWIDTH 15 0
BBX 13 19 1 -5
BITMAP
0F38
3FF8
3FF8
78F8
7078
F078
F078
F078
F078
F078
78F8
7FF8
3FF8
1F78
0078
0078
0078
0078
0078
ENDCHAR
STARTCHAR U+0072
ENCODING 114
SWIDTH 500 0
DWIDTH 10 0
BBX 8 14 2 0
BITMAP
E7
EF
FF
F8
F0
F0
E0
E0
E0
E0
E0
E0
E0
E0
ENDCHAR
STARTCHAR U+0073
ENCODING 115
SWIDTH 500 0
DWIDTH 12 0
BBX 10 14 1 0
BITMAP
1F00
7FC0
7F80
F000
F000
7C00
7F00
1F80
07C0
01C0
41C0
FFC0
FF80
3E00
ENDCHAR
STARTCHAR U+0074
ENCODING 116
SWIDTH 500 0
DWIDTH 10 0
BBX 8 18 1 0
BITMAP
38
38
38
38
FF
FF
FF
78
78
78
78
78
78
78
38
3F
3F
0F
ENDCHAR
STARTCHAR U+0075
ENCODING 117
SWIDTH 500 0
DWIDTH 15 0
BBX 11 14 2 0
BITMAP
E0E0
E0E0
E0E0
E0E0
E0E0
E0E0
E0E0
E0E0
E0E0
E0E0
F1E0
FFE0
7EE0
3CE0
ENDCHAR
STARTCHAR U+0076
ENCODING 118
SWIDTH 500 0
DWIDTH 14 0
BBX 13 14 0 0
BITMAP
F038
7038
7878
7870
3870
3870
3CE0
1CE0
1CE0
1CC0
0FC0
0FC0
0F80
0780
ENDCHAR
STARTCHAR U+0077
ENCODING 119
SWIDTH 500 0
DWIDTH 21 0
BBX 19 14 1 0
BITMAP
E0E0E0
E0E1E0
F1F1C0
71F1C0
71F1C0
71B1C0
7BBB80
3BBB80
3B3B80
3B1B80
3F1F80
1F1F00
1E1F00
1E1F00
ENDCHAR
STARTCHAR U+0078
ENCODING 120
SWIDTH 500 0
DWIDTH 13 0
BBX 12 14 1 0
BITMAP
F0F0
70E0
79C0
39C0
3F80
1F80
1F00
1F00
1F80
3B80
7BC0
71E0
F1E0
E0F0
ENDCHAR
STARTCHAR U+0079
ENCODING 121
SWIDTH 500 0
DWIDTH 14 0
BBX 12 19 1 -5
BITMAP
E070
E070
F0F0
70E0
70E0
79E0
39C0
39C0
1DC0
1F80
1F80
0F80
0F00
0F00
0E00
1E00
7C00
7C00
F000
ENDCHAR
STARTCHAR U+007A
ENCODING 122
SWIDTH 500 0
DWIDTH 12 0
BBX 11 14 1 0
BITMAP
7FC0
7FC0
7FC0
0380
0780
0F00
0E00
1E00
3C00
3800
7800
FFC0
FFE0
FFE0
ENDCHAR
STARTCHAR U+007B
ENCODING 123
SWIDTH 500 0
DWIDTH 9 0
BBX 7 23 1 -4
BITMAP
1E
3E
38
38
38
38
38
38
38
78
F0
F0
78
38
38
38
38
38
38
38
38
3E
1E
ENDCHAR
STARTCHAR U+007C
ENCODING 124
SWIDTH 500 0
DWIDTH 7 0
BBX 3 27 2 -7
BITMAP
E0
E0
E0
E0
E0
E0
E0
E0
E0
E0
E0
E0
E0
E0
E0
E0
E0
E0
E0
E0
E0
E0
E0
E0
E0
E0
E0
ENDCHAR
STARTCHAR U+007D
ENCODING 125
SWIDTH 500 0
DWIDTH 9 0
BBX 7 23 1 -4
BITMAP
F0
F8
38
38
38
38
38
38
38
3C
1E
1E
3C
38
38
38
38
38
38
38
38
F8
F0
ENDCHAR
STARTCHAR U+007E
ENCODING 126
SWIDTH 500 0
DWIDTH 14 0
BBX 12 4 1 7
BITMAP
7C00
FF30
E7F0
03E0
ENDCHAR
STARTCHAR U+3002
ENCODING 12290
SWIDTH 500 0
DWIDTH 24 0
BBX 7 9 1 -3
BITMAP
18
7C
C6
C2
C2
C2
C6
7C
18
ENDCHAR
STARTCHAR U+4E1A
ENCODING 19994
SWIDTH 500 0
DWIDTH 24 0
BBX 22 22 1 -2
BITMAP
038700
038700
038700
038700
038700
638710
738738
738738
3B8738
3B8770
3B8770
3F8760
1F87E0
1F87E0
1B87C0
038700
038700
038700
038700
FFFFFC
FFFFFC
FFFFFC
ENDCHAR
STARTCHAR U+4F5C
ENCODING 20316
SWIDTH 500 0
DWIDTH 24 0
BBX 22 23 1 -3
BITMAP
071C00
0E1C00
0E3800
1C3FFC
1C7FFC
3C7FFC
7CE600
7DE600
FDC600
FDC7FC
FC87FC
5C07F8
1C0600
1C0600
1C07FC
1C07FC
1C07FC
1C0600
1C0600
1C0600
1C0600
1C0600
180600
ENDCHAR
STARTCHAR U+4F9D
ENCODING 20381
SWIDTH 500 0
DWIDTH 24 0
BBX 22 23 1 -3
BITMAP
0E0E00
0E0E00
0E0700
1C0700
1FFFFC
3BFFFC
79FFFC
781E00
F83E00
F87F18
F8F73C
7BE3F8
3FE3F0
3FE3C0
3B61C0
3861E0
3860E0
386070
38FE78
38FE3C
39FC1C
38E008
180000
ENDCHAR
STARTCHAR U+5143
ENCODING 20803
SWIDTH 500 0
DWIDTH 24 0
BBX 22 21 1 -2
BITMAP
1FFFE0
3FFFF0
3FFFF0
000000
000000
000000
000000
FFFFFC
FFFFFC
FFFFFC
038E00
038E00
070E00
070E00
070E00
0F0E1C
0E0E1C
1E0E1C
7C07FC
F807F8
6003F0
ENDCHAR
STARTCHAR U+5148
ENCODING 20808
SWIDTH 500 0
DWIDTH 24 0
BBX 22 23 1 -2
BITMAP
003000
0E3000
0E3000
1E3000
1FFFF0
1FFFF0
3FFFF0
383000
783000
303000
003000
FFFFFC
FFFFFC
7FFFFC
038600
038600
070600
070600
0F061C
1E061C
7C07FC
F807F8
7003F0
ENDCHAR
STARTCHAR U+5165
ENCODING 20837
SWIDTH 500 0
DWIDTH 24 0
BBX 22 22 1 -2
BITMAP
010000
038000
03C000
01E000
00F000
007000
007800
007C00
007C00
00FE00
00EE00
01EF00
01C780
03C380
0383C0
0781E0
0F01F0
1E00F8
7E007C
FC003C
70001C
200008
ENDCHAR
STARTCHAR U+516D
ENCODING 20845
SWIDTH 500 0
DWIDTH 24 0
BBX 22 22 1 -2
BITMAP
007000
007000
007800
003800
003800
003000
FFFFFC
FFFFFC
FFFFFC
000000
000000
020300
078780
070380
0F03C0
0E01E0
1E01E0
3C00F0
3C0078
780078
F0003C
700030
ENDCHAR
STARTCHAR U+5199
ENCODING 20889
SWIDTH 500 0
DWIDTH 24 0
BBX 20 23 2 -3
BITMAP
FFFFF0
FFFFF0
FFFFF0
C40070
C70070
CF0070
0FFF80
0FFF80
0E0000
0E0000
1E0000
1FFFC0
1FFFC0
0001C0
0001C0
FFF9C0
FFF9C0
FFF9C0
000380
000380
007F80
003F00
003C00
ENDCHAR
STARTCHAR U+5230
ENCODING 21040
SWIDTH 500 0
DWIDTH 24 0
BBX 21 22 1 -2
BITMAP
000018
7FF818
7FFB98
1E4398
1CC398
38E398
38F398
7FF398
7FFB98
201398
070398
070398
7FF398
7FF398
078398
070398
070018
07F818
3FF838
FFF1F8
7C01F8
0000F0
ENDCHAR
STARTCHAR U+5468
ENCODING 21608
SWIDTH 500 0
DWIDTH 24 0
BBX 21 23 1 -3
BITMAP
3FFFF0
3FFFF8
3FFFF8
383038
383038
3BFF38
3BFF38
383838
383038
3BFFB8
3BFFB8
380038
380038
39FF38
39FF38
318738
718738
718738
71FF38
F1FF38
E183F8
E001F0
0001C0
ENDCHAR
STARTCHAR U+5929
ENCODING 22825
SWIDTH 500 0
DWIDTH 24 0
BBX 22 21 1 -2
BITMAP
3FFFF0
7FFFF0
7FFFF0
007000
007000
007000
007000
007000
7FFFF8
7FFFF8
7FFFF8
00F800
00FC00
01FE00
01CE00
03CF00
0787C0
1F03E0
7E01FC
FC00FC
700038
ENDCHAR
STARTCHAR U+5B66
ENCODING 23398
SWIDTH 500 0
DWIDTH 24 0
BBX 22 24 1 -3
BITMAP
003000
1C7070
1C38E0
0E38E0
7FFFF8
7FFFF8
7FFFF8
600018
600018
67FF98
07FF80
001F00
003E00
007800
7FFFF8
FFFFFC
FFFFFC
007000
007000
007000
007000
07F000
03F000
03C000
ENDCHAR
STARTCHAR U+5B9D
ENCODING 23453
SWIDTH 500 0
DWIDTH 24 0
BBX 20 23 2 -2
BITMAP
006000
00E000
007000
FFFFF0
FFFFF0
FFFFF0
E00070
E00070
FFFFF0
3FFFC0
3FFFC0
00E000
00E000
00E000
1FFF80
1FFF80
1FFF80
00E700
00E780
00E3C0
FFFFF0
FFFFF0
FFFFF0
ENDCHAR
STARTCHAR U+5C3D
ENCODING 23613
SWIDTH 500 0
DWIDTH 24 0
BBX 22 22 1 -2
BITMAP
1FFFF0
1FFFF0
1FFFF0
1C0070
1C0070
1C0070
1FFFF0
1FFFF0
1FFFF0
1C0380
1C0380
38C1C0
39F9E0
38FEE0
781CF0
F0007C
F0003C
638018
07F800
03FE00
003F80
000F00
ENDCHAR
STARTCHAR U+5C71
ENCODING 23665
SWIDTH 500 0
DWIDTH 24 0
BBX 20 23 2 -3
BITMAP
00E000
00E000
00E000
00E000
00E000
E0E070
E0E070
E0E070
E0E070
E0E070
E0E070
E0E070
E0E070
E0E070
E0E070
E0E070
E0E070
E0E070
FFFFF0
FFFFF0
FFFFF0
000070
000070
ENDCHAR
STARTCHAR U+6539
ENCODING 25913
SWIDTH 500 0
DWIDTH 24 0
BBX 22 23 1 -2
BITMAP
000400
000700
7FC700
7FCE00
7FCE00
01CFFC
01DFFC
01DFFC
01DC38
7FFE30
7FFE70
7FFE70
703670
7007E0
7007E0
7003E0
7003C0
73C3C0
7FC7E0
FF8FF0
FC3E7C
703C3C
403818
ENDCHAR
STARTCHAR U+653E
ENCODING 25918
SWIDTH 500 0
DWIDTH 24 0
BBX 22 24 1 -3
BITMAP
040400
0E0700
0E0700
0E0700
FFCE00
FFEFFC
FFEFFC
381FFC
381E70
3FBE70
3FFE70
3FFE70
39F760
39C7E0
39C3E0
39C3C0
39C3C0
31C3C0
71C7E0
718FF0
E39E7C
EFFC3C
C7B818
040000
ENDCHAR
STARTCHAR U+65E5
ENCODING 26085
SWIDTH 500 0
DWIDTH 24 0
BBX 16 21 4 -2
BITMAP
FFFF
FFFF
FFFF
E007
E007
E007
E007
E007
FFFF
FFFF
FFFF
E007
E007
E007
E007
E007
E007
FFFF
FFFF
FFFF
E007
ENDCHAR
STARTCHAR U+65E6
ENCODING 26086
SWIDTH 500 0
DWIDTH 24 0
BBX 22 21 1 -2
BITMAP
1FFFE0
1FFFE0
1FFFE0
1C00E0
1C00E0
1C00E0
1FFFE0
1FFFE0
1FFFE0
1C00E0
1C00E0
1C00E0
1FFFE0
1FFFE0
1FFFE0
000000
000000
000000
FFFFFC
FFFFFC
7FFFF8
ENDCHAR
STARTCHAR U+6709
ENCODING 26377
SWIDTH 500 0
DWIDTH 24 0
BBX 22 24 1 -3
BITMAP
008000
01E000
01C000
7FFFF8
FFFFFC
FFFFFC
078000
070000
0FFFE0
0FFFE0
1F00E0
3F00E0
7F00E0
FFFFE0
E7FFE0
4700E0
0700E0
07FFE0
07FFE0
0700E0
0700E0
0707E0
0707C0
060380
ENDCHAR
STARTCHAR U+6CB3
ENCODING 27827
SWIDTH 500 0
DWIDTH 24 0
BBX 22 23 1 -3
BITMAP
200000
79FFFC
7FFFFC
1DFFFC
000030
000030
00FE30
E0FF30
F8FF30
78C730
18C730
00C730
00C730
0CFF30
0EFF30
1CFE30
1CC030
380030
380030
700070
F00FF0
6007F0
0007E0
ENDCHAR
STARTCHAR U+6D41
ENCODING 27969
SWIDTH 500 0
DWIDTH 24 0
BBX 22 23 1 -2
BITMAP
000200
300E00
7C0700
3FFFF8
1DFFFC
01FFFC
003C60
0038F0
607070
F9FFF8
79FFFC
18E018
000000
006660
0CE660
0EE660
1CE660
1CE660
38E668
39C66C
71C66C
F3867C
63067C
ENDCHAR
STARTCHAR U+6D77
ENCODING 28023
SWIDTH 500 0
DWIDTH 24 0
BBX 22 22 1 -2
BITMAP
307000
3CF000
3EFFFC
0CFFFC
01FFF8
03C000
03FFF8
61FFF8
F87E38
786638
10E338
03FFFC
03FFFC
1BFFFC
1CEE30
1CC730
38E778
39FFFC
39FFFC
700070
7003E0
2003E0
ENDCHAR
STARTCHAR U+7434
ENCODING 29748
SWIDTH 500 0
DWIDTH 24 0
BBX 22 23 1 -3
BITMAP
FFCFF8
FFCFF8
0E01C0
0E01C0
7FCFF8
7FCFF8
0E01C0
FFCFFC
FFFFFC
00F800
01FE00
07DF80
1FA7F0
FE71FC
F83878
703818
1FFFC0
1FFFC0
000780
000700
000E00
001E00
000C00
ENDCHAR
STARTCHAR U+767D
ENCODING 30333
SWIDTH 500 0
DWIDTH 24 0
BBX 18 24 3 -3
BITMAP
018000
01C000
03C000
03C000
FFFFC0
FFFFC0
FFFFC0
E001C0
E001C0
E001C0
E001C0
FFFFC0
FFFFC0
FFFFC0
E001C0
E001C0
E001C0
E001C0
E001C0
FFFFC0
FFFFC0
FFFFC0
E001C0
E001C0
ENDCHAR
STARTCHAR U+8BFE
ENCODING 35838
SWIDTH 500 0
DWIDTH 24 0
BBX 22 23 1 -3
BITMAP
200000
70FFF8
38FFF8
1CE738
08FFF8
00FFF8
00E738
F8E738
F8FFF8
F8FFF8
180700
180700
19FFFC
19FFFC
19FFFC
1F1FC0
1F3FE0
1F7F70
3EF738
3DE73C
39C71C
308700
000300
ENDCHAR
STARTCHAR U+8D1D
ENCODING 36125
SWIDTH 500 0
DWIDTH 24 0
BBX 21 22 1 -2
BITMAP
1FFFE0
1FFFE0
1FFFE0
1C00E0
1C30E0
1C70E0
1C70E0
1C70E0
1C70E0
1C70E0
1C70E0
1C70E0
1C70E0
1C70E0
1C70E0
18E060
01E400
03CF00
0F8FC0
3F03F0
FE00F8
780030
ENDCHAR
STARTCHAR U+8FD8
ENCODING 36824
SWIDTH 500 0
DWIDTH 24 0
BBX 23 22 0 -2
BITMAP
180000
3CFFFC
1EFFFC
0EFFFC
0E0380
000780
000700
000F00
7C1F60
7C3FF0
7C7F78
0CF73C
0FE71E
0DC70C
0C0700
0C0700
0C0700
1E0700
7F8000
FFFFFE
71FFFE
203FFE
ENDCHAR
STARTCHAR U+94A2
ENCODING 38050
SWIDTH 500 0
DWIDTH 24 0
BBX 22 23 1 -3
BITMAP
383FF8
387FFC
3F7FFC
7F701C
FF70DC
E07CDC
FF7CDC
7F7FDC
3F779C
1C779C
1C739C
7F739C
7FF39C
7FF7DC
1C77DC
1C76DC
1C7EFC
1C7CDC
1F7C1C
1FF01C
3E70F8
1C7078
006000
ENDCHAR
STARTCHAR U+9EC4
ENCODING 40644
SWIDTH 500 0
DWIDTH 24 0
BBX 22 24 1 -3
BITMAP
038700
038700
3FFFF0
3FFFF0
3FFFF0
038700
7FFFF8
FFFFFC
FFFFFC
003000
1FFFF0
1FFFF0
183070
183070
1FFFF0
1FFFF0
183070
1FFFF0
1FFFF0
030300
0F87E0
7F01F8
7C0078
200000
ENDCHAR
STARTCHAR U+FF0C
ENCODING 65292
SWIDTH 500 0
DWIDTH 24 0
BBX 5 9 4 -4
BITMAP
78
78
78
78
18
38
70
E0
40
ENDCHAR
ENDFONT
