STARTFONT 2.1
FONT sans-m-24
SIZE 24 75 75
FONTBOUNDINGBOX 48 35 0 -7
STARTPROPERTIES 3
PIXEL_SIZE 24
FONT_ASCENT 28
FONT_DESCENT 7
ENDPROPERTIES
CHARS 127
STARTCHAR U+0020
ENCODING 32
SWIDTH 500 0
DWIDTH 5 0
BBX 0 0 0 0
BITMAP
ENDCHAR
STARTCHAR U+0021
ENCODING 33
SWIDTH 500 0
DWIDTH 8 0
BBX 4 18 2 0
BITMAP
60
60
60
60
60
60
60
60
60
60
60
60
00
00
60
F0
F0
60
ENDCHAR
STARTCHAR U+0022
ENCODING 34
SWIDTH 500 0
DWIDTH 12 0
BBX 8 8 2 11
BITMAP
E3
E7
E7
E3
E3
E3
63
43
ENDCHAR
STARTCHAR U+0023
ENCODING 35
SWIDTH 500 0
DWIDTH 14 0
BBX 12 18 1 0
BITMAP
0840
18C0
18C0
18C0
18C0
7FF0
FFF0
1080
1080
3180
3180
FFE0
FFE0
3180
3180
2100
2100
6300
ENDCHAR
STARTCHAR U+0024
ENCODING 36
SWIDTH 500 0
DWIDTH 14 0
BBX 10 23 2 -3
BITMAP
0C00
0C00
0E00
3F80
7F80
E180
E000
E000
E000
7000
3C00
1F00
0780
03C0
01C0
01C0
81C0
E380
FF80
3E00
0C00
0C00
0C00
ENDCHAR
STARTCHAR U+0025
ENCODING 37
SWIDTH 500 0
DWIDTH 23 0
BBX 21 18 1 0
BITMAP
3C0300
7E0600
E70600
C30C00
C30C00
C31800
C31000
C331C0
E623E0
7E6630
3C4630
00C618
018C18
018618
030630
030630
0603E0
0601C0
ENDCHAR
STARTCHAR U+0026
ENCODING 38
SWIDTH 500 0
DWIDTH 17 0
BBX 15 18 1 0
BITMAP
0F00
1F80
39C0
38C0
30C0
39C0
1B80
1F00
1E06
3E0E
770C
E39C
E3D8
E1F8
E0F8
71FE
7FDE
1F06
ENDCHAR
STARTCHAR U+0027
ENCODING 39
SWIDTH 500 0
DWIDTH 7 0
BBX 3 8 2 11
BITMAP
E0
E0
E0
E0
E0
E0
60
40
ENDCHAR
STARTCHAR U+0028
ENCODING 40
SWIDTH 500 0
DWIDTH 9 0
BBX 5 24 2 -4
BITMAP
18
18
38
30
30
60
60
60
E0
E0
C0
C0
C0
C0
E0
E0
60
60
60
70
30
30
18
18
ENDCHAR
STARTCHAR U+0029
ENCODING 41
SWIDTH 500 0
DWIDTH 9 0
BBX 5 24 1 -4
BITMAP
40
E0
60
70
30
30
38
18
18
18
18
18
18
18
18
18
18
18
38
30
30
60
60
C0
ENDCHAR
STARTCHAR U+002A
ENCODING 42
SWIDTH 500 0
DWIDTH 12 0
BBX 8 8 2 11
BITMAP
18
18
98
FF
7E
3C
7C
66
ENDCHAR
STARTCHAR U+002B
ENCODING 43
SWIDTH 500 0
DWIDTH 14 0
BBX 12 12 1 3
BITMAP
0600
0600
0600
0600
0600
FFF0
FFF0
0600
0600
0600
0600
0600
ENDCHAR
STARTCHAR U+002C
ENCODING 44
SWIDTH 500 0
DWIDTH 7 0
BBX 5 8 1 -5
BITMAP
70
78
78
18
30
30
E0
40
ENDCHAR
STARTCHAR U+002D
ENCODING 45
SWIDTH 500 0
DWIDTH 9 0
BBX 6 2 1 6
BITMAP
FC
FC
ENDCHAR
STARTCHAR U+002E
ENCODING 46
SWIDTH 500 0
DWIDTH 7 0
BBX 3 4 2 0
BITMAP
60
E0
E0
E0
ENDCHAR
STARTCHAR U+002F
ENCODING 47
SWIDTH 500 0
DWIDTH 9 0
BBX 8 23 1 -4
BITMAP
03
02
06
06
06
0C
0C
0C
08
18
18
18
30
30
30
20
60
60
60
C0
C0
C0
80
ENDCHAR
STARTCHAR U+0030
ENCODING 48
SWIDTH 500 0
DWIDTH 14 0
BBX 12 18 1 0
BITMAP
0F00
3F80
39C0
70E0
60E0
E060
E060
E060
E070
E070
E060
E060
E060
60E0
70E0
39C0
3F80
0F00
ENDCHAR
STARTCHAR U+0031
ENCODING 49
SWIDTH 500 0
DWIDTH 14 0
BBX 10 18 2 0
BITMAP
0E00
7E00
7E00
0E00
0E00
0E00
0E00
0E00
0E00
0E00
0E00
0E00
0E00
0E00
0E00
0E00
FFC0
FFC0
ENDCHAR
STARTCHAR U+0032
ENCODING 50
SWIDTH 500 0
DWIDTH 14 0
BBX 11 18 1 0
BITMAP
1F00
7F80
F3C0
41C0
00C0
00E0
00C0
00C0
01C0
0380
0380
0700
0E00
1C00
3800
7800
FFE0
FFE0
ENDCHAR
STARTCHAR U+0033
ENCODING 51
SWIDTH 500 0
DWIDTH 14 0
BBX 11 18 1 0
BITMAP
1F00
7F80
73C0
40E0
00E0
00E0
01C0
03C0
1F00
1F80
01C0
00E0
00E0
00E0
40E0
F1E0
7FC0
1F00
ENDCHAR
STARTCHAR U+0034
ENCODING 52
SWIDTH 500 0
DWIDTH 14 0
BBX 13 18 0 0
BITMAP
01E0
01E0
03E0
07E0
06E0
0EE0
1CE0
18E0
38E0
30E0
70E0
FFF8
FFF8
00E0
00E0
00E0
00E0
00E0
ENDCHAR
STARTCHAR U+0035
ENCODING 53
SWIDTH 500 0
DWIDTH 14 0
BBX 11 18 1 0
BITMAP
3FE0
7FE0
7000
7000
7000
7000
7F00
7FC0
21E0
00E0
00E0
0060
00E0
00E0
C0E0
F3C0
7F80
1F00
ENDCHAR
STARTCHAR U+0036
ENCODING 54
SWIDTH 500 0
DWIDTH 14 0
BBX 12 18 1 0
BITMAP
0780
1FE0
3CE0
7000
7000
6000
6000
E780
FFC0
F8E0
E060
E070
6070
6060
7060
38E0
1FC0
0F00
ENDCHAR
STARTCHAR U+0037
ENCODING 55
SWIDTH 500 0
DWIDTH 14 0
BBX 12 18 1 0
BITMAP
FFF0
FFF0
00E0
00C0
01C0
0180
0380
0300
0700
0600
0600
0E00
0E00
0E00
0E00
0E00
0E00
0C00
ENDCHAR
STARTCHAR U+0038
ENCODING 56
SWIDTH 500 0
DWIDTH 14 0
BBX 12 18 1 0
BITMAP
0F00
3FC0
71C0
70E0
6060
70E0
70C0
3DC0
1F80
3F80
71E0
60E0
E060
E070
E060
70E0
3FC0
1F00
ENDCHAR
STARTCHAR U+0039
ENCODING 57
SWIDTH 500 0
DWIDTH 14 0
BBX 11 18 1 0
BITMAP
1F00
3F80
71C0
E0C0
E0E0
E060
E060
E0E0
71E0
7F60
1E60
0060
00E0
00E0
01C0
73C0
7F80
3E00
ENDCHAR
STARTCHAR U+003A
ENCODING 58
SWIDTH 500 0
DWIDTH 7 0
BBX 3 13 2 0
BITMAP
E0
E0
E0
60
00
00
00
00
00
60
E0
E0
E0
ENDCHAR
STARTCHAR U+003B
ENCODING 59
SWIDTH 500 0
DWIDTH 7 0
BBX 5 18 1 -5
BITMAP
70
70
70
30
00
00
00
00
00
00
70
78
78
18
30
30
E0
40
ENDCHAR
STARTCHAR U+003C
ENCODING 60
SWIDTH 500 0
DWIDTH 14 0
BBX 12 11 1 3
BITMAP
0030
01F0
07C0
3F00
F800
E000
FC00
1F00
07E0
00F0
0030
ENDCHAR
STARTCHAR U+003D
ENCODING 61
SWIDTH 500 0
DWIDTH 14 0
BBX 12 8 1 5
BITMAP
FFF0
FFF0
0000
0000
0000
0000
FFF0
FFF0
ENDCHAR
STARTCHAR U+003E
ENCODING 62
SWIDTH 500 0
DWIDTH 14 0
BBX 12 11 1 3
BITMAP
C000
F800
7E00
0FC0
01F0
00F0
03E0
1F80
FC00
F000
8000
ENDCHAR
STARTCHAR U+003F
ENCODING 63
SWIDTH 500 0
DWIDTH 12 0
BBX 10 19 1 0
BITMAP
1E00
7F00
F380
4180
01C0
0180
0380
0700
0700
0E00
0C00
1C00
1C00
0000
0000
1C00
1C00
1C00
1C00
ENDCHAR
STARTCHAR U+0040
ENCODING 64
SWIDTH 500 0
DWIDTH 23 0
BBX 21 22 1 -4
BITMAP
007E00
03FF80
0701C0
0E0060
180030
380030
307218
60FE18
61CE18
618618
430C18
C30C18
C30C30
C30C30
639C60
61F7C0
60C380
300000
380000
1E0200
0FFE00
01F800
ENDCHAR
STARTCHAR U+0041
ENCODING 65
SWIDTH 500 0
DWIDTH 15 0
BBX 15 18 0 0
BITMAP
0380
07C0
07C0
06C0
0EE0
0CE0
0C60
1C70
1C70
1870
3830
3FF8
3FF8
7018
701C
701C
E00C
E00E
ENDCHAR
STARTCHAR U+0042
ENCODING 66
SWIDTH 500 0
DWIDTH 16 0
BBX 13 18 2 0
BITMAP
FF80
FFE0
E0F0
E070
E070
E070
E070
E0E0
FFC0
FFE0
E070
E038
E038
E038
E038
E0F0
FFE0
FF80
ENDCHAR
STARTCHAR U+0043
ENCODING 67
SWIDTH 500 0
DWIDTH 16 0
BBX 13 18 1 0
BITMAP
03E0
0FF0
1F78
3C10
7800
7000
7000
E000
E000
E000
E000
7000
7000
7000
3818
1F78
0FF8
07E0
ENDCHAR
STARTCHAR U+0044
ENCODING 68
SWIDTH 500 0
DWIDTH 17 0
BBX 13 18 2 0
BITMAP
FF00
FFC0
E3E0
E0F0
E078
E038
E038
E038
E038
E038
E038
E038
E038
E078
E0F0
E3E0
FFC0
FF00
ENDCHAR
STARTCHAR U+0045
ENCODING 69
SWIDTH 500 0
DWIDTH 14 0
BBX 11 18 2 0
BITMAP
FFE0
FFE0
E000
E000
E000
E000
E000
E000
FFC0
FFC0
E000
E000
E000
E000
E000
E000
FFE0
FFE0
ENDCHAR
STARTCHAR U+0046
ENCODING 70
SWIDTH 500 0
DWIDTH 14 0
BBX 11 18 2 0
BITMAP
FFE0
FFE0
E000
E000
E000
E000
E000
E000
FFC0
FFC0
E000
E000
E000
E000
E000
E000
E000
E000
ENDCHAR
STARTCHAR U+0047
ENCODING 71
SWIDTH 500 0
DWIDTH 17 0
BBX 14 18 1 0
BITMAP
03E0
0FF8
1F7C
3C08
7800
7000
7000
6000
E000
E0FC
E0FC
700C
700C
700C
380C
1F7C
0FF8
03E0
ENDCHAR
STARTCHAR U+0048
ENCODING 72
SWIDTH 500 0
DWIDTH 18 0
BBX 13 18 2 0
BITMAP
E018
E018
E018
E018
E018
E018
E018
E038
FFF8
FFF8
E018
E018
E018
E018
E018
E018
E018
E018
ENDCHAR
STARTCHAR U+0049
ENCODING 73
SWIDTH 500 0
DWIDTH 7 0
BBX 3 18 2 0
BITMAP
E0
E0
E0
E0
E0
E0
E0
E0
E0
E0
E0
E0
E0
E0
E0
E0
E0
E0
ENDCHAR
STARTCHAR U+004A
ENCODING 74
SWIDTH 500 0
DWIDTH 13 0
BBX 10 18 1 0
BITMAP
01C0
01C0
01C0
01C0
01C0
01C0
01C0
01C0
01C0
01C0
01C0
01C0
01C0
01C0
41C0
F780
7F00
3E00
ENDCHAR
STARTCHAR U+004B
ENCODING 75
SWIDTH 500 0
DWIDTH 16 0
BBX 14 18 2 0
BITMAP
E078
E070
E0E0
E1C0
E380
E380
E700
EF00
FF00
FF80
F9C0
F1C0
E0E0
E0E0
E070
E070
E038
E01C
ENDCHAR
STARTCHAR U+004C
ENCODING 76
SWIDTH 500 0
DWIDTH 13 0
BBX 11 18 2 0
BITMAP
E000
E000
E000
E000
E000
E000
E000
E000
E000
E000
E000
E000
E000
E000
E000
E000
FFE0
FFE0
ENDCHAR
STARTCHAR U+004D
ENCODING 77
SWIDTH 500 0
DWIDTH 20 0
BBX 16 18 2 0
BITMAP
F00F
F00F
F00F
F81F
F81F
F83F
EC37
EC37
EE77
E667
E667
E7C7
E3C7
E3C7
E187
E187
E007
E007
ENDCHAR
STARTCHAR U+004E
ENCODING 78
SWIDTH 500 0
DWIDTH 18 0
BBX 13 18 2 0
BITMAP
E018
F018
F818
F818
FC18
EC18
EE18
E618
E718
E318
E398
E198
E1D8
E0D8
E0F8
E078
E038
E038
ENDCHAR
STARTCHAR U+004F
ENCODING 79
SWIDTH 500 0
DWIDTH 18 0
BBX 16 18 1 0
BITMAP
07E0
0FF8
3FFC
381C
700E
700E
7006
E007
E007
E007
E007
7006
700E
700E
381C
1FFC
0FF8
07E0
ENDCHAR
STARTCHAR U+0050
ENCODING 80
SWIDTH 500 0
DWIDTH 16 0
BBX 12 18 2 0
BITMAP
FF80
FFE0
E1F0
E070
E030
E030
E030
E070
E0F0
FFE0
FF80
E000
E000
E000
E000
E000
E000
E000
ENDCHAR
STARTCHAR U+0051
ENCODING 81
SWIDTH 500 0
DWIDTH 18 0
BBX 16 22 1 -4
BITMAP
07E0
0FF8
3FFC
381C
700E
700E
7006
E007
E007
E007
6007
7006
700E
700E
381C
3C3C
1FF8
07E0
01C0
00F0
007F
003F
ENDCHAR
STARTCHAR U+0052
ENCODING 82
SWIDTH 500 0
DWIDTH 16 0
BBX 13 18 2 0
BITMAP
FF80
FFE0
E0F0
E070
E030
E030
E030
E070
E0F0
FFE0
FF80
E380
E1C0
E1C0
E0E0
E070
E070
E038
ENDCHAR
STARTCHAR U+0053
ENCODING 83
SWIDTH 500 0
DWIDTH 15 0
BBX 13 18 1 0
BITMAP
0F80
3FE0
3DF0
7020
7000
7000
7800
3E00
1F80
07E0
01F0
0070
0038
0030
6070
FDF0
7FE0
0F80
ENDCHAR
STARTCHAR U+0054
ENCODING 84
SWIDTH 500 0
DWIDTH 15 0
BBX 13 18 1 0
BITMAP
FFF8
FFF8
0700
0700
0700
0700
0700
0700
0700
0700
0700
0700
0700
0700
0700
0700
0700
0700
ENDCHAR
STARTCHAR U+0055
ENCODING 85
SWIDTH 500 0
DWIDTH 18 0
BBX 13 18 2 0
BITMAP
E018
E018
E018
E018
E018
E018
E018
E018
E018
E018
E018
E018
E038
7038
7078
3DF0
3FE0
0FC0
ENDCHAR
STARTCHAR U+0056
ENCODING 86
SWIDTH 500 0
DWIDTH 14 0
BBX 14 18 0 0
BITMAP
E01C
E01C
701C
7038
7038
3038
3830
3870
1870
1C60
1C60
1CE0
0CC0
0EC0
0FC0
07C0
0780
0780
ENDCHAR
STARTCHAR U+0057
ENCODING 87
SWIDTH 500 0
DWIDTH 21 0
BBX 20 18 1 0
BITMAP
C0E070
E0E070
E0F060
E0F060
E1F0E0
61B0E0
71B8E0
71B8C0
7398C0
7318C0
331DC0
331DC0
3B0D80
3F0D80
3E0F80
1E0F80
1E0780
1E0700
ENDCHAR
STARTCHAR U+0058
ENCODING 88
SWIDTH 500 0
DWIDTH 14 0
BBX 13 18 1 0
BITMAP
E070
7070
70E0
38E0
39C0
1DC0
1F80
0F80
0F00
0F00
1F80
1F80
39C0
38C0
70E0
7070
E070
E038
ENDCHAR
STARTCHAR U+0059
ENCODING 89
SWIDTH 500 0
DWIDTH 13 0
BBX 13 18 0 0
BITMAP
E038
7038
7070
3070
3860
18E0
1CC0
1DC0
0F80
0F80
0700
0700
0700
0700
0700
0700
0700
0700
ENDCHAR
STARTCHAR U+005A
ENCODING 90
SWIDTH 500 0
DWIDTH 15 0
BBX 12 18 1 0
BITMAP
7FF0
7FF0
00F0
00E0
00E0
01C0
0380
0380
0700
0E00
0E00
1C00
1C00
3800
7000
7000
FFF0
FFF0
ENDCHAR
STARTCHAR U+005B
ENCODING 91
SWIDTH 500 0
DWIDTH 9 0
BBX 6 23 2 -4
BITMAP
FC
F8
E0
E0
E0
E0
E0
E0
E0
E0
E0
E0
E0
E0
E0
E0
E0
E0
E0
E0
E0
F8
FC
ENDCHAR
STARTCHAR U+005C
ENCODING 92
SWIDTH 500 0
DWIDTH 9 0
BBX 8 23 1 -4
BITMAP
C0
C0
C0
C0
60
60
60
30
30
30
30
18
18
18
0C
0C
0C
0C
06
06
06
02
03
ENDCHAR
STARTCHAR U+005D
ENCODING 93
SWIDTH 500 0
DWIDTH 9 0
BBX 5 23 1 -4
BITMAP
F8
F8
18
18
18
18
18
18
18
18
18
18
18
18
18
18
18
18
18
18
18
F8
F8
ENDCHAR
STARTCHAR U+005E
ENCODING 94
SWIDTH 500 0
DWIDTH 14 0
BBX 10 11 2 7
BITMAP
1C00
1E00
1E00
3600
3300
7300
6380
6180
E180
C1C0
80C0
ENDCHAR
STARTCHAR U+005F
ENCODING 95
SWIDTH 500 0
DWIDTH 13 0
BBX 13 2 0 -4
BITMAP
FFF8
FFF8
ENDCHAR
STARTCHAR U+0060
ENCODING 96
SWIDTH 500 0
DWIDTH 15 0
BBX 6 6 3 15
BITMAP
40
E0
70
38
1C
08
ENDCHAR
STARTCHAR U+0061
ENCODING 97
SWIDTH 500 0
DWIDTH 14 0
BBX 11 13 1 0
BITMAP
1F00
7FC0
71C0
00E0
00E0
07E0
3FE0
70E0
60E0
E0E0
F3E0
7FE0
3C60
ENDCHAR
STARTCHAR U+0062
ENCODING 98
SWIDTH 500 0
DWIDTH 15 0
BBX 12 19 2 0
BITMAP
C000
E000
E000
E000
E000
E000
E780
FFC0
F9E0
E0E0
E070
E070
E070
E070
E070
E0E0
F9E0
FFC0
CF00
ENDCHAR
STARTCHAR U+0063
ENCODING 99
SWIDTH 500 0
DWIDTH 12 0
BBX 10 13 1 0
BITMAP
0F80
1FC0
3CC0
7000
E000
E000
E000
E000
E000
7000
7CC0
3FC0
0F80
ENDCHAR
STARTCHAR U+0064
ENCODING 100
SWIDTH 500 0
DWIDTH 15 0
BBX 12 19 1 0
BITMAP
0030
0070
0070
0070
0070
0070
0F70
3FF0
3DF0
7070
6070
E070
E070
E070
E070
7070
79F0
3FF0
1F30
ENDCHAR
STARTCHAR U+0065
ENCODING 101
SWIDTH 500 0
DWIDTH 14 0
BBX 12 13 1 0
BITMAP
0F00
3FC0
78E0
7060
E060
FFF0
FFE0
E000
6000
7000
3840
3FE0
0F80
ENDCHAR
STARTCHAR U+0066
ENCODING 102
SWIDTH 500 0
DWIDTH 8 0
BBX 8 19 1 0
BITMAP
1F
3F
38
30
30
30
FE
FE
70
30
30
30
30
30
30
30
30
30
30
ENDCHAR
STARTCHAR U+0067
ENCODING 103
SWIDTH 500 0
DWIDTH 14 0
BBX 12 19 1 -6
BITMAP
1FF0
3FF0
71C0
60C0
60E0
60C0
71C0
3F80
3E00
6000
7000
7FE0
3FF0
6070
E030
E030
E070
7FE0
1F80
ENDCHAR
STARTCHAR U+0068
ENCODING 104
SWIDTH 500 0
DWIDTH 15 0
BBX 11 19 2 0
BITMAP
C000
E000
E000
E000
E000
E000
E780
FFC0
FDE0
F0E0
E0E0
E0E0
E0E0
E0E0
E0E0
E0E0
E0E0
E0E0
E0E0
ENDCHAR
STARTCHAR U+0069
ENCODING 105
SWIDTH 500 0
DWIDTH 7 0
BBX 3 19 2 0
BITMAP
E0
E0
E0
00
00
00
E0
E0
E0
E0
E0
E0
E0
E0
E0
E0
E0
E0
E0
ENDCHAR
STARTCHAR U+006A
ENCODING 106
SWIDTH 500 0
DWIDTH 7 0
BBX 6 25 -1 -6
BITMAP
1C
1C
1C
00
00
00
1C
1C
1C
1C
1C
1C
1C
1C
1C
1C
1C
1C
1C
1C
1C
1C
3C
F8
F0
ENDCHAR
STARTCHAR U+006B
ENCODING 107
SWIDTH 500 0
DWIDTH 14 0
BBX 11 19 2 0
BITMAP
E000
E000
E000
E000
E000
E000
E0E0
E1C0
E380
E700
EE00
EE00
FE00
FF00
F380
E380
E1C0
E0E0
E0E0
ENDCHAR
STARTCHAR U+006C
ENCODING 108
SWIDTH 500 0
DWIDTH 7 0
BBX 4 19 2 0
BITMAP
E0
E0
E0
E0
E0
E0
E0
E0
E0
E0
E0
E0
E0
E0
E0
E0
E0
F0
70
ENDCHAR
STARTCHAR U+006D
ENCODING 109
SWIDTH 500 0
DWIDTH 23 0
BBX 19 13 2 0
BITMAP
C78780
DFDFC0
FBFBC0
F0E0E0
E0E0E0
E0E0E0
E0E0E0
E0E0E0
E0E0E0
E0E0E0
E0E0E0
E0E0E0
E0E0E0
ENDCHAR
STARTCHAR U+006E
ENCODING 110
SWIDTH 500 0
DWIDTH 15 0
BBX 11 13 2 0
BITMAP
C780
DFC0
FDE0
F0E0
E0E0
E0E0
E0E0
E0E0
E0E0
E0E0
E0E0
E0E0
E0E0
ENDCHAR
STARTCHAR U+006F
ENCODING 111
SWIDTH 500 0
DWIDTH 15 0
BBX 13 13 1 0
BITMAP
0F80
3FC0
39E0
7070
E070
E030
E038
E030
E070
7070
39E0
3FC0
0F80
ENDCHAR
STARTCHAR U+0070
ENCODING 112
SWIDTH 500 0
DWIDTH 15 0
BBX 12 19 2 -6
BITMAP
C780
FFC0
F9E0
E0E0
E070
E070
E070
E070
E070
E0E0
F9E0
FFC0
EF00
E000
E000
E000
E000
E000
E000
ENDCHAR
STARTCHAR U+0071
ENCODING 113
SWIDTH 500 0
DWIDTH 15 0
BBX 12 19 1 -6
BITMAP
0F30
3FF0
7DF0
7070
6070
E070
E070
E070
E070
7070
79F0
3FF0
1F70
0070
0070
0070
0070
0070
0070
ENDCHAR
STARTCHAR U+0072
ENCODING 114
SWIDTH 500 0
DWIDTH 10 0
BBX 8 13 2 0
BITMAP
C7
CF
FE
F0
E0
E0
E0
E0
E0
E0
E0
E0
E0
ENDCHAR
STARTCHAR U+0073
ENCODING 115
SWIDTH 500 0
DWIDTH 12 0
BBX 10 13 1 0
BITMAP
1E00
7F80
7180
6000
7000
7C00
1F00
0780
01C0
01C0
E380
FF80
3E00
ENDCHAR
STARTCHAR U+0074
ENCODING 116
SWIDTH 500 0
DWIDTH 10 0
BBX 8 17 1 0
BITMAP
30
30
30
30
FF
FF
70
30
30
30
30
30
30
30
38
3F
1F
ENDCHAR
STARTCHAR U+0075
ENCODING 117
SWIDTH 500 0
DWIDTH 15 0
BBX 11 13 2 0
BITMAP
E0E0
E0E0
E0E0
E0E0
E0E0
E0E0
E0E0
E0E0
E0E0
E1E0
F7E0
7EE0
3C60
ENDCHAR
STARTCHAR U+0076
ENCODING 118
SWIDTH 500 0
DWIDTH 13 0
BBX 13 13 0 0
BITMAP
E038
7030
7070
3070
3860
38E0
18C0
1CC0
1DC0
0D80
0F80
0F80
0700
ENDCHAR
STARTCHAR U+0077
ENCODING 119
SWIDTH 500 0
DWIDTH 20 0
BBX 18 13 1 0
BITMAP
E0C0C0
E1E1C0
E1E1C0
61E180
716180
733380
733380
333300
333B00
3E1F00
1E1E00
1E1E00
1E1E00
ENDCHAR
STARTCHAR U+0078
ENCODING 120
SWIDTH 500 0
DWIDTH 13 0
BBX 11 13 1 0
BITMAP
E0E0
71C0
7180
3B80
1F00
1F00
1E00
1F00
3F00
3380
71C0
E1C0
E0E0
ENDCHAR
STARTCHAR U+0079
ENCODING 121
SWIDTH 500 0
DWIDTH 13 0
BBX 13 19 0 -6
BITMAP
E038
7030
7070
3070
3860
38E0
18E0
1CC0
0CC0
0D80
0F80
0780
0700
0700
0700
0600
0E00
7C00
7800
ENDCHAR
STARTCHAR U+007A
ENCODING 122
SWIDTH 500 0
DWIDTH 12 0
BBX 10 13 1 0
BITMAP
7FC0
7FC0
0380
0300
0700
0E00
1C00
1C00
3800
7000
7000
FFC0
FFC0
ENDCHAR
STARTCHAR U+007B
ENCODING 123
SWIDTH 500 0
DWIDTH 9 0
BBX 7 23 1 -4
BITMAP
1E
3C
30
30
30
30
30
30
30
30
F0
E0
70
30
30
30
30
30
30
30
30
3C
1E
ENDCHAR
STARTCHAR U+007C
ENCODING 124
SWIDTH 500 0
DWIDTH 7 0
BBX 2 27 2 -7
BITMAP
C0
C0
C0
C0
C0
C0
C0
C0
C0
C0
C0
C0
C0
C0
C0
C0
C0
C0
C0
C0
C0
C0
C0
C0
C0
C0
C0
ENDCHAR
STARTCHAR U+007D
ENCODING 125
SWIDTH 500 0
DWIDTH 9 0
BBX 7 23 1 -4
BITMAP
E0
F0
30
38
38
30
30
30
30
38
1C
1E
38
30
30
30
30
30
38
38
30
F0
E0
ENDCHAR
STARTCHAR U+007E
ENCODING 126
SWIDTH 500 0
DWIDTH 14 0
BBX 11 5 1 6
BITMAP
3800
7C20
CE60
03E0
01C0
ENDCHAR
STARTCHAR U+3002
ENCODING 12290
SWIDTH 500 0
DWIDTH 24 0
BBX 7 7 1 -2
BITMAP
7C
C6
C2
82
C2
6E
38
ENDCHAR
STARTCHAR U+4E1A
ENCODING 19994
SWIDTH 500 0
DWIDTH 24 0
BBX 22 21 1 -1
BITMAP
018600
018600
018600
018600
018600
218610
718618
318638
318630
398630
198660
198660
1D86C0
0D86C0
098680
018600
018600
018600
018600
FFFFFC
FFFFFC
ENDCHAR
STARTCHAR U+4F5C
ENCODING 20316
SWIDTH 500 0
DWIDTH 24 0
BBX 22 23 1 -3
BITMAP
061800
061800
0E1800
0C3800
1C3FFC
187FFC
38E600
78C600
79C600
F987F8
5807F8
180600
180600
180600
180600
1807FC
1807FC
180600
180600
180600
180600
180600
000400
ENDCHAR
STARTCHAR U+4F9D
ENCODING 20381
SWIDTH 500 0
DWIDTH 24 0
BBX 22 22 1 -2
BITMAP
060C00
0E0600
0C0600
0C0600
1BFFFC
3BFFFC
381E00
781E00
F83E00
F87618
58E338
19E370
1FE3E0
1F61C0
1A61C0
1860C0
1860E0
186070
186678
18FE3C
18F81C
18E000
ENDCHAR
STARTCHAR U+5143
ENCODING 20803
SWIDTH 500 0
DWIDTH 24 0
BBX 22 20 1 -2
BITMAP
1FFFE0
1FFFE0
000000
000000
000000
000000
FFFFFC
FFFFFC
038600
030600
030600
030600
030600
070600
06060C
0E060C
1C060C
3C061C
F807F8
6003F8
ENDCHAR
STARTCHAR U+5148
ENCODING 20808
SWIDTH 500 0
DWIDTH 24 0
BBX 21 22 2 -2
BITMAP
0C6000
1C6000
186000
1FFFE0
3FFFE0
306000
706000
606000
606000
006000
FFFFF8
FFFFF8
070C00
070C00
060C00
060C00
0E0C00
0C0C18
1C0C18
380C38
F00FF0
E007F0
ENDCHAR
STARTCHAR U+5165
ENCODING 20837
SWIDTH 500 0
DWIDTH 24 0
BBX 22 21 1 -2
BITMAP
010000
038000
01C000
00E000
007000
003000
007800
007C00
007C00
00EE00
00E600
01C700
01C300
038380
0381C0
0701E0
0E00F0
1C0078
78003C
F0001C
200008
ENDCHAR
STARTCHAR U+516D
ENCODING 20845
SWIDTH 500 0
DWIDTH 24 0
BBX 22 22 1 -2
BITMAP
006000
007000
007000
003800
003800
000000
FFFFFC
FFFFFC
000000
000000
000000
030300
070300
070380
0E01C0
0E01C0
1C00E0
1C0070
380070
700038
F00038
600018
ENDCHAR
STARTCHAR U+5199
ENCODING 20889
SWIDTH 500 0
DWIDTH 24 0
BBX 20 21 2 -2
BITMAP
FFFFF0
FFFFF0
C40030
C60030
C60030
07FF80
0FFF80
0C0000
0C0000
0C0000
1FFFC0
1FFFC0
0001C0
0001C0
FFFD80
FFFD80
000180
000180
000380
007F00
003E00
ENDCHAR
STARTCHAR U+5230
ENCODING 21040
SWIDTH 500 0
DWIDTH 24 0
BBX 20 22 2 -2
BITMAP
000030
FFF030
FFF630
180630
398630
30C630
60E630
FFE630
7FF630
002630
060630
060630
FFE630
FFE630
060630
060630
060230
06F030
1FF030
FFC030
F803F0
0001E0
ENDCHAR
STARTCHAR U+5468
ENCODING 21608
SWIDTH 500 0
DWIDTH 24 0
BBX 20 21 1 -2
BITMAP
3FFFF0
3FFFF0
383030
383030
3BFF30
3BFF30
383030
383030
3BFFB0
3BFFB0
380030
300030
31FF30
31FF30
318330
318330
71FF30
61FF30
E18030
E003F0
4001E0
ENDCHAR
STARTCHAR U+5929
ENCODING 22825
SWIDTH 500 0
DWIDTH 24 0
BBX 22 20 1 -2
BITMAP
3FFFF0
3FFFF0
003000
003000
003000
003000
003000
7FFFF8
7FFFF8
007800
007800
00FC00
00CC00
01CE00
038700
070380
0F01C0
3C00F0
F8007C
600018
ENDCHAR
STARTCHAR U+5B66
ENCODING 23398
SWIDTH 500 0
DWIDTH 24 0
BBX 21 22 2 -2
BITMAP
30E0C0
3860C0
187180
1C3380
FFFFF0
FFFFF0
C00030
C00030
CFFF30
0FFF00
001E00
003C00
007000
006000
FFFFF8
FFFFF8
006000
006000
006000
006000
07E000
07C000
ENDCHAR
STARTCHAR U+5B9D
ENCODING 23453
SWIDTH 500 0
DWIDTH 24 0
BBX 20 22 2 -2
BITMAP
00E000
006000
007000
FFFFF0
FFFFF0
C00030
C00030
FFFFF0
3FFFC0
006000
006000
006000
006000
1FFF80
1FFF80
006200
006700
006380
0061C0
006080
FFFFF0
FFFFF0
ENDCHAR
STARTCHAR U+5C3D
ENCODING 23613
SWIDTH 500 0
DWIDTH 24 0
BBX 22 21 1 -2
BITMAP
1FFFF0
1FFFF0
1C0070
1C0070
1C0070
1FFFF0
1FFFF0
1C0300
180380
180180
39C1C0
39F8E0
303EE0
700C70
600038
E0001C
478008
07F000
00FE00
001F80
000700
ENDCHAR
STARTCHAR U+5C71
ENCODING 23665
SWIDTH 500 0
DWIDTH 24 0
BBX 18 22 3 -2
BITMAP
00C000
00C000
00C000
00C000
00C000
C0C0C0
C0C0C0
C0C0C0
C0C0C0
C0C0C0
C0C0C0
C0C0C0
C0C0C0
C0C0C0
C0C0C0
C0C0C0
C0C0C0
C0C0C0
FFFFC0
FFFFC0
0000C0
0000C0
ENDCHAR
STARTCHAR U+6539
ENCODING 25913
SWIDTH 500 0
DWIDTH 24 0
BBX 21 22 2 -2
BITMAP
000C00
FF0C00
FF1C00
031C00
031FF8
033FF8
033860
033860
FF7860
FFF8E0
C06CC0
C00CC0
C00FC0
C00780
C00780
C00300
C70780
FF0FC0
FC1DE0
F078F0
C0F078
006010
ENDCHAR
STARTCHAR U+653E
ENCODING 25918
SWIDTH 500 0
DWIDTH 24 0
BBX 22 22 1 -2
BITMAP
0C0700
0E0600
060600
040E00
FFEFFC
FFEFFC
180C30
181C30
181C30
1FFE70
1FFE60
18F660
18C760
19C3E0
39C3C0
31C1C0
3183C0
3187E0
718F70
E19E78
CFB83C
473008
ENDCHAR
STARTCHAR U+65E5
ENCODING 26085
SWIDTH 500 0
DWIDTH 24 0
BBX 16 21 4 -2
BITMAP
FFFF
FFFF
E003
C003
C003
C003
C003
C003
E003
FFFF
FFFF
C003
C003
C003
C003
C003
C003
FFFF
FFFF
E003
C003
ENDCHAR
STARTCHAR U+65E6
ENCODING 26086
SWIDTH 500 0
DWIDTH 24 0
BBX 20 20 2 -1
BITMAP
1FFF80
1FFF80
180180
180180
180180
180180
1FFF80
1FFF80
180180
180180
180180
180180
180180
1FFF80
1FFF80
000000
000000
000000
FFFFF0
FFFFF0
ENDCHAR
STARTCHAR U+6709
ENCODING 26377
SWIDTH 500 0
DWIDTH 24 0
BBX 21 22 1 -2
BITMAP
00C000
00C000
01C000
7FFFF8
7FFFF8
030000
070000
07FFE0
0FFFE0
1E0060
3E0060
3E0060
77FFE0
E7FFE0
460060
060060
07FFE0
07FFE0
060060
060060
0607E0
0607C0
ENDCHAR
STARTCHAR U+6CB3
ENCODING 27827
SWIDTH 500 0
DWIDTH 24 0
BBX 22 22 1 -2
BITMAP
200000
79FFFC
1FFFFC
0C0030
000030
000030
40FE30
F0FE30
78C630
18C630
00C630
00C630
00C630
0CFE30
0CFE30
1CC030
18C030
380030
300030
700030
6007F0
2007E0
ENDCHAR
STARTCHAR U+6D41
ENCODING 27969
SWIDTH 500 0
DWIDTH 24 0
BBX 22 22 1 -2
BITMAP
200E00
780600
3C0600
0DFFFC
01FFFC
001840
0038E0
607070
F0FFF8
39FFF8
18C018
000000
006660
046660
0C6660
0CE660
1CC660
38C660
38C664
71866C
63867C
230078
ENDCHAR
STARTCHAR U+6D77
ENCODING 28023
SWIDTH 500 0
DWIDTH 24 0
BBX 21 22 2 -2
BITMAP
60C000
78C000
3DFFF0
09FFF0
038000
030000
07FFE0
C2FFE0
E0C860
70CC60
218660
07FFF8
07FFF8
119860
319C60
318C60
318460
63FFF0
63FFF0
E000C0
C007C0
400780
ENDCHAR
STARTCHAR U+7434
ENCODING 29748
SWIDTH 500 0
DWIDTH 24 0
BBX 22 22 1 -2
BITMAP
7FCFF8
7FCFF8
0E01C0
0E01C0
7FCFF8
3F8FF8
0E01C0
7FCFF8
7FFFFC
007800
01FC00
038F00
1F33E0
FC38FC
701838
1FFFC0
1FFFC0
000380
000700
000700
000E00
001C00
ENDCHAR
STARTCHAR U+767D
ENCODING 30333
SWIDTH 500 0
DWIDTH 24 0
BBX 18 23 3 -3
BITMAP
01C000
01C000
018000
038000
FFFFC0
FFFFC0
E001C0
E001C0
E001C0
E001C0
E001C0
FFFFC0
FFFFC0
E001C0
E001C0
E001C0
E001C0
E001C0
E001C0
FFFFC0
FFFFC0
E001C0
400000
ENDCHAR
STARTCHAR U+8BFE
ENCODING 35838
SWIDTH 500 0
DWIDTH 24 0
BBX 22 21 1 -2
BITMAP
30FFF8
38FFF8
1CC338
08FFF8
00FFF8
00C338
F8C338
F8FFF8
18FFF8
180300
180300
19FFFC
19FFFC
180F80
191FC0
1F3BE0
1E7370
1CE338
39C31C
318308
000300
ENDCHAR
STARTCHAR U+8D1D
ENCODING 36125
SWIDTH 500 0
DWIDTH 24 0
BBX 20 21 2 -2
BITMAP
3FFFC0
3FFFC0
3000C0
3000C0
3060C0
3060C0
3060C0
3060C0
3060C0
3060C0
3060C0
3060C0
30E0C0
30C0C0
31C0C0
018000
079C00
0F0F80
3E03C0
F800F0
E00060
ENDCHAR
STARTCHAR U+8FD8
ENCODING 36824
SWIDTH 500 0
DWIDTH 24 0
BBX 22 22 1 -2
BITMAP
200000
71FFF8
39FFF8
1C0700
080700
000E00
000E00
001E00
F83FC0
F87EE0
18E670
19E638
1BC61C
190618
180600
180600
180600
180600
7C0600
FF8000
E3FFFC
C0FFFC
ENDCHAR
STARTCHAR U+94A2
ENCODING 38050
SWIDTH 500 0
DWIDTH 24 0
BBX 21 22 1 -2
BITMAP
180000
387FF8
3F7FF8
7F6018
E060D8
E060D8
C07CD8
3F6CD8
3F6798
0C6798
0C6398
0C6318
7FE398
7FE398
0C67D8
0C66D8
0C6C58
0C7C58
0FF818
1F6018
1E60F8
186070
ENDCHAR
STARTCHAR U+9EC4
ENCODING 40644
SWIDTH 500 0
DWIDTH 24 0
BBX 22 22 1 -2
BITMAP
030300
030300
3FFFF0
3FFFF0
030300
030300
FFFFFC
FFFFFC
003000
1FFFE0
1FFFE0
183060
183060
1FFFE0
1FFFE0
183060
1FFFE0
1FFFE0
010200
0787C0
3E01F0
780038
ENDCHAR
STARTCHAR U+FF0C
ENCODING 65292
SWIDTH 500 0
DWIDTH 24 0
BBX 4 8 4 -3
BITMAP
70
F0
F0
70
30
30
60
C0
ENDCHAR
ENDFONT
