STARTFONT 2.1
FONT serif-r-24
SIZE 24 75 75
FONTBOUNDINGBOX 48 35 0 -7
STARTPROPERTIES 3
PIXEL_SIZE 24
FONT_ASCENT 28
FONT_DESCENT 7
ENDPROPERTIES
CHARS 127
STARTCHAR U+0020
ENCODING 32
SWIDTH 500 0
DWIDTH 6 0
BBX 0 0 0 0
BITMAP
ENDCHAR
STARTCHAR U+0021
ENCODING 33
SWIDTH 500 0
DWIDTH 7 0
BBX 3 18 2 0
BITMAP
60
E0
E0
60
60
60
40
40
40
40
40
40
40
00
00
00
E0
E0
ENDCHAR
STARTCHAR U+0022
ENCODING 34
SWIDTH 500 0
DWIDTH 9 0
BBX 7 7 1 12
BITMAP
C6
C6
C6
46
44
44
44
ENDCHAR
STARTCHAR U+0023
ENCODING 35
SWIDTH 500 0
DWIDTH 14 0
BBX 12 17 1 0
BITMAP
0840
0840
0840
1040
1040
FFF0
1080
1080
1080
0080
FFE0
FFE0
2100
2100
2100
2100
0100
ENDCHAR
STARTCHAR U+0024
ENCODING 36
SWIDTH 500 0
DWIDTH 13 0
BBX 11 22 1 -3
BITMAP
0400
0400
1F80
24C0
64C0
6460
6400
6400
7400
3C00
0F00
07C0
04C0
0460
0460
C460
6460
64C0
3780
0400
0400
0400
ENDCHAR
STARTCHAR U+0025
ENCODING 37
SWIDTH 500 0
DWIDTH 22 0
BBX 20 18 1 0
BITMAP
180000
640100
460200
C60200
C20400
C20800
C20800
C21000
462360
442220
384630
008610
008610
010610
020630
000630
040220
080140
ENDCHAR
STARTCHAR U+0026
ENCODING 38
SWIDTH 500 0
DWIDTH 19 0
BBX 16 18 1 0
BITMAP
0F00
1880
30C0
3040
30C0
3080
1900
1E0F
0E02
3604
6304
C184
C0C8
C068
C030
E038
705C
3F8F
ENDCHAR
STARTCHAR U+0027
ENCODING 39
SWIDTH 500 0
DWIDTH 5 0
BBX 2 7 1 12
BITMAP
C0
C0
C0
40
40
40
40
ENDCHAR
STARTCHAR U+0028
ENCODING 40
SWIDTH 500 0
DWIDTH 9 0
BBX 6 24 2 -5
BITMAP
04
08
10
30
20
60
60
40
C0
C0
C0
C0
C0
C0
C0
40
40
60
20
30
10
18
08
04
ENDCHAR
STARTCHAR U+0029
ENCODING 41
SWIDTH 500 0
DWIDTH 9 0
BBX 6 24 1 -5
BITMAP
80
40
20
20
10
10
18
18
08
08
0C
0C
0C
08
08
08
18
18
10
30
20
40
40
80
ENDCHAR
STARTCHAR U+002A
ENCODING 42
SWIDTH 500 0
DWIDTH 11 0
BBX 10 9 1 10
BITMAP
0C00
0800
0800
C9C0
7F00
0C00
1600
3300
6300
ENDCHAR
STARTCHAR U+002B
ENCODING 43
SWIDTH 500 0
DWIDTH 14 0
BBX 12 12 1 3
BITMAP
0400
0600
0600
0600
0600
0600
FFF0
0600
0600
0600
0600
0600
ENDCHAR
STARTCHAR U+002C
ENCODING 44
SWIDTH 500 0
DWIDTH 8 0
BBX 3 6 2 -4
BITMAP
60
60
20
20
40
80
ENDCHAR
STARTCHAR U+002D
ENCODING 45
SWIDTH 500 0
DWIDTH 8 0
BBX 6 1 1 6
BITMAP
FC
ENDCHAR
STARTCHAR U+002E
ENCODING 46
SWIDTH 500 0
DWIDTH 8 0
BBX 2 3 3 0
BITMAP
80
C0
C0
ENDCHAR
STARTCHAR U+002F
ENCODING 47
SWIDTH 500 0
DWIDTH 8 0
BBX 8 22 0 -4
BITMAP
01
01
02
02
02
04
04
04
08
08
08
18
10
10
10
20
20
20
40
40
40
C0
ENDCHAR
STARTCHAR U+0030
ENCODING 48
SWIDTH 500 0
DWIDTH 13 0
BBX 11 18 1 0
BITMAP
0E00
1180
20C0
60C0
6060
C060
C060
C060
C060
C060
C060
C060
C060
4060
6040
60C0
3080
1B00
ENDCHAR
STARTCHAR U+0031
ENCODING 49
SWIDTH 500 0
DWIDTH 11 0
BBX 8 18 2 0
BITMAP
08
F8
18
18
18
18
18
18
18
18
18
18
18
18
18
18
18
FF
ENDCHAR
STARTCHAR U+0032
ENCODING 50
SWIDTH 500 0
DWIDTH 13 0
BBX 10 18 2 0
BITMAP
1E00
4300
C180
C180
81C0
0180
0180
0180
0300
0200
0400
0800
1000
2000
4000
4000
FFC0
FFC0
ENDCHAR
STARTCHAR U+0033
ENCODING 51
SWIDTH 500 0
DWIDTH 13 0
BBX 11 18 1 0
BITMAP
1F00
2180
60C0
60C0
00C0
00C0
00C0
0180
0E00
0380
00C0
00C0
0060
0060
4060
C0C0
60C0
3380
ENDCHAR
STARTCHAR U+0034
ENCODING 52
SWIDTH 500 0
DWIDTH 13 0
BBX 12 18 1 0
BITMAP
0080
0180
0380
0580
0580
0980
0180
1180
2180
0180
4180
8180
FFF0
0180
0180
0180
0180
0180
ENDCHAR
STARTCHAR U+0035
ENCODING 53
SWIDTH 500 0
DWIDTH 13 0
BBX 11 17 1 0
BITMAP
3FE0
2000
2000
2000
2000
0000
0400
3780
00C0
00E0
0060
0060
0060
C060
C0C0
60C0
3300
ENDCHAR
STARTCHAR U+0036
ENCODING 54
SWIDTH 500 0
DWIDTH 13 0
BBX 11 18 1 0
BITMAP
0040
0300
0600
0800
1000
3000
6000
6200
79C0
60C0
C060
C060
C060
6060
6060
6060
30C0
1980
ENDCHAR
STARTCHAR U+0037
ENCODING 55
SWIDTH 500 0
DWIDTH 13 0
BBX 11 17 1 0
BITMAP
FFE0
0040
0040
0040
0080
0080
0100
0100
0300
0200
0600
0600
0C00
0C00
0800
1800
1800
ENDCHAR
STARTCHAR U+0038
ENCODING 56
SWIDTH 500 0
DWIDTH 13 0
BBX 11 18 1 0
BITMAP
0F00
3180
60C0
6040
6040
60C0
70C0
3980
1E00
0F00
31C0
60C0
4060
C060
C060
4060
60C0
3980
ENDCHAR
STARTCHAR U+0039
ENCODING 57
SWIDTH 500 0
DWIDTH 13 0
BBX 11 18 1 0
BITMAP
0F00
3180
60C0
6040
C060
C060
C060
6060
6060
30E0
1F60
00C0
00C0
0180
0100
0600
0C00
3000
ENDCHAR
STARTCHAR U+003A
ENCODING 58
SWIDTH 500 0
DWIDTH 8 0
BBX 3 12 2 0
BITMAP
60
E0
60
00
00
00
00
00
00
40
60
60
ENDCHAR
STARTCHAR U+003B
ENCODING 59
SWIDTH 500 0
DWIDTH 8 0
BBX 3 16 2 -4
BITMAP
60
E0
60
00
00
00
00
00
00
00
60
60
20
20
40
80
ENDCHAR
STARTCHAR U+003C
ENCODING 60
SWIDTH 500 0
DWIDTH 14 0
BBX 10 12 2 3
BITMAP
0040
0180
0300
0C00
3000
C000
8000
6000
1000
0C00
0300
00C0
ENDCHAR
STARTCHAR U+003D
ENCODING 61
SWIDTH 500 0
DWIDTH 14 0
BBX 12 7 1 5
BITMAP
FFF0
0000
0000
0000
0000
FFF0
FFF0
ENDCHAR
STARTCHAR U+003E
ENCODING 62
SWIDTH 500 0
DWIDTH 14 0
BBX 10 12 2 3
BITMAP
8000
6000
3000
0C00
0300
00C0
0040
0180
0600
0C00
3000
C000
ENDCHAR
STARTCHAR U+003F
ENCODING 63
SWIDTH 500 0
DWIDTH 10 0
BBX 7 18 2 0
BITMAP
E0
F8
3C
00
02
02
02
0C
3C
70
40
40
40
00
00
00
60
60
ENDCHAR
STARTCHAR U+0040
ENCODING 64
SWIDTH 500 0
DWIDTH 22 0
BBX 20 21 1 -4
BITMAP
01FE00
060180
080040
100020
200020
207E10
408410
410410
830C10
820C10
860C10
860820
860820
861840
83EC80
418600
400000
200000
300000
0C0000
03F800
ENDCHAR
STARTCHAR U+0041
ENCODING 65
SWIDTH 500 0
DWIDTH 17 0
BBX 17 18 0 0
BITMAP
008000
00C000
01C000
01C000
006000
026000
026000
003000
043000
043000
001800
0FF800
081800
000C00
100C00
100C00
100600
F83F80
ENDCHAR
STARTCHAR U+0042
ENCODING 66
SWIDTH 500 0
DWIDTH 16 0
BBX 14 18 1 0
BITMAP
1800
3860
1830
1818
1818
1818
1818
1830
19C0
1870
1818
180C
180C
180C
180C
1818
1838
FFE0
ENDCHAR
STARTCHAR U+0043
ENCODING 67
SWIDTH 500 0
DWIDTH 17 0
BBX 14 18 1 0
BITMAP
03F0
0E0C
1804
3004
7004
6000
6000
E000
E000
E000
E000
6000
6000
6004
3004
3804
1C04
07B8
ENDCHAR
STARTCHAR U+0044
ENCODING 68
SWIDTH 500 0
DWIDTH 18 0
BBX 16 18 1 0
BITMAP
1800
3870
1818
180C
1806
1806
1803
1803
1803
1803
1803
1803
1807
1806
180E
180C
1838
FFE0
ENDCHAR
STARTCHAR U+0045
ENCODING 69
SWIDTH 500 0
DWIDTH 16 0
BBX 14 18 1 0
BITMAP
1800
3818
1808
1808
1808
1800
1800
1840
1840
1FC0
1840
1840
1800
1800
180C
180C
180C
FFF8
ENDCHAR
STARTCHAR U+0046
ENCODING 70
SWIDTH 500 0
DWIDTH 15 0
BBX 13 18 1 0
BITMAP
1800
3818
1808
1808
1808
1800
1800
1840
1840
1FC0
1840
1840
1800
1800
1800
1800
1800
FE00
ENDCHAR
STARTCHAR U+0047
ENCODING 71
SWIDTH 500 0
DWIDTH 18 0
BBX 15 18 1 0
BITMAP
03F0
0E0C
1804
3004
7004
6000
6000
E000
E000
E004
E00E
6006
6006
6006
3006
3806
1C06
07B8
ENDCHAR
STARTCHAR U+0048
ENCODING 72
SWIDTH 500 0
DWIDTH 20 0
BBX 18 18 1 0
BITMAP
180300
380700
180300
180300
180300
180300
180300
180300
180700
180700
180300
180300
180300
180300
180300
180300
180300
FE1FC0
ENDCHAR
STARTCHAR U+0049
ENCODING 73
SWIDTH 500 0
DWIDTH 10 0
BBX 7 18 1 0
BITMAP
18
38
18
18
18
18
18
18
18
18
18
18
18
18
18
18
18
FE
ENDCHAR
STARTCHAR U+004A
ENCODING 74
SWIDTH 500 0
DWIDTH 10 0
BBX 7 21 0 -3
BITMAP
0C
0E
0C
0C
0C
0C
0C
0C
0C
0C
0C
0C
0C
0C
0C
0C
0C
0C
0C
C8
F0
ENDCHAR
STARTCHAR U+004B
ENCODING 75
SWIDTH 500 0
DWIDTH 18 0
BBX 16 18 1 0
BITMAP
1804
380C
1808
1810
1820
1840
1880
1880
19C0
1AC0
1C60
1860
1830
1830
1818
181C
180C
FE3F
ENDCHAR
STARTCHAR U+004C
ENCODING 76
SWIDTH 500 0
DWIDTH 15 0
BBX 13 18 1 0
BITMAP
1800
3800
1800
1800
1800
1800
1800
1800
1800
1800
1800
1800
1800
1808
1808
1808
1818
FFF8
ENDCHAR
STARTCHAR U+004D
ENCODING 77
SWIDTH 500 0
DWIDTH 23 0
BBX 21 18 1 0
BITMAP
000040
3800E0
3800E0
3C01E0
2C0160
2E0260
260260
260260
230460
230460
218860
218860
218860
20D060
20D060
2060E0
2060E0
FC63F8
ENDCHAR
STARTCHAR U+004E
ENCODING 78
SWIDTH 500 0
DWIDTH 19 0
BBX 15 18 1 0
BITMAP
0002
3806
3C02
2C02
2602
2702
2302
2182
21C2
20C2
2062
2072
2032
201A
201E
200E
2006
FC06
ENDCHAR
STARTCHAR U+004F
ENCODING 79
SWIDTH 500 0
DWIDTH 18 0
BBX 16 18 1 0
BITMAP
03E0
0C38
180C
300C
6006
6006
6007
E003
E003
E003
E003
6003
6007
6006
3006
300C
1818
0770
ENDCHAR
STARTCHAR U+0050
ENCODING 80
SWIDTH 500 0
DWIDTH 15 0
BBX 13 18 1 0
BITMAP
1800
3860
1830
1818
1818
1818
1818
1818
1838
1870
1F80
1800
1800
1800
1800
1800
1800
FE00
ENDCHAR
STARTCHAR U+0051
ENCODING 81
SWIDTH 500 0
DWIDTH 18 0
BBX 16 23 1 -5
BITMAP
03E0
0C38
180C
300C
6006
6006
6007
E003
E003
E003
E003
6003
6007
6006
3006
300C
1818
0770
0180
0180
00C0
00C0
007E
ENDCHAR
STARTCHAR U+0052
ENCODING 82
SWIDTH 500 0
DWIDTH 17 0
BBX 16 18 1 0
BITMAP
1800
3870
1818
1818
180C
180C
1818
1818
1830
1FC0
1860
1830
1830
1830
1818
1818
1818
FE0F
ENDCHAR
STARTCHAR U+0053
ENCODING 83
SWIDTH 500 0
DWIDTH 14 0
BBX 11 18 1 0
BITMAP
0F80
30C0
6060
6060
6040
6000
7000
3800
1E00
0F80
01C0
00E0
0060
0060
C060
C060
C0C0
7F80
ENDCHAR
STARTCHAR U+0054
ENCODING 84
SWIDTH 500 0
DWIDTH 16 0
BBX 14 18 1 0
BITMAP
0300
C70C
8304
8304
8304
0300
0300
0300
0300
0300
0300
0300
0300
0300
0300
0300
0300
1FE0
ENDCHAR
STARTCHAR U+0055
ENCODING 85
SWIDTH 500 0
DWIDTH 19 0
BBX 13 18 3 0
BITMAP
4008
E018
E008
E008
E008
E008
E008
E008
E008
E008
E008
E008
E008
6008
6010
7010
3820
1FC0
ENDCHAR
STARTCHAR U+0056
ENCODING 86
SWIDTH 500 0
DWIDTH 17 0
BBX 13 18 2 0
BITMAP
C008
E018
6010
6010
6010
3020
3020
3020
1840
1840
1840
0C80
0C80
0C80
0600
0700
0700
0200
ENDCHAR
STARTCHAR U+0057
ENCODING 87
SWIDTH 500 0
DWIDTH 25 0
BBX 21 18 2 0
BITMAP
C00008
E03018
603010
603810
605810
305810
305820
300C20
308C20
188C20
188640
190640
0D0640
0D0300
0E0380
0E0380
060180
040100
ENDCHAR
STARTCHAR U+0058
ENCODING 88
SWIDTH 500 0
DWIDTH 17 0
BBX 15 18 1 0
BITMAP
6008
7818
3810
1820
0C20
0C40
0600
0780
0300
0380
0380
04C0
00E0
0860
1070
1030
2018
F87E
ENDCHAR
STARTCHAR U+0059
ENCODING 89
SWIDTH 500 0
DWIDTH 16 0
BBX 12 18 2 0
BITMAP
C000
E030
6020
7020
3040
3840
1800
1C80
0C00
0F00
0700
0600
0600
0600
0600
0600
0600
1FC0
ENDCHAR
STARTCHAR U+005A
ENCODING 90
SWIDTH 500 0
DWIDTH 15 0
BBX 13 17 1 0
BITMAP
C030
C070
8060
80C0
01C0
0180
0300
0700
0600
0C00
1C00
1800
3008
7008
6018
C018
FFF8
ENDCHAR
STARTCHAR U+005B
ENCODING 91
SWIDTH 500 0
DWIDTH 8 0
BBX 4 23 3 -4
BITMAP
F0
C0
80
80
80
80
80
80
80
80
80
80
80
80
80
80
80
80
80
80
80
80
F0
ENDCHAR
STARTCHAR U+005C
ENCODING 92
SWIDTH 500 0
DWIDTH 8 0
BBX 7 22 1 -4
BITMAP
80
80
80
C0
40
40
40
20
20
20
10
10
10
18
08
08
0C
04
04
04
02
02
ENDCHAR
STARTCHAR U+005D
ENCODING 93
SWIDTH 500 0
DWIDTH 8 0
BBX 5 23 1 -4
BITMAP
F0
18
18
18
18
18
18
18
18
18
18
18
18
18
18
18
18
18
18
18
18
18
F8
ENDCHAR
STARTCHAR U+005E
ENCODING 94
SWIDTH 500 0
DWIDTH 14 0
BBX 8 7 3 6
BITMAP
18
18
24
66
42
81
81
ENDCHAR
STARTCHAR U+005F
ENCODING 95
SWIDTH 500 0
DWIDTH 14 0
BBX 13 1 0 -2
BITMAP
FFF8
ENDCHAR
STARTCHAR U+0060
ENCODING 96
SWIDTH 500 0
DWIDTH 10 0
BBX 4 4 2 15
BITMAP
C0
60
30
10
ENDCHAR
STARTCHAR U+0061
ENCODING 97
SWIDTH 500 0
DWIDTH 13 0
BBX 12 13 1 0
BITMAP
0E00
2180
6180
60C0
00C0
01C0
0CC0
30C0
60C0
C0C0
C1C0
E2C0
7CF0
ENDCHAR
STARTCHAR U+0062
ENCODING 98
SWIDTH 500 0
DWIDTH 15 0
BBX 13 19 1 0
BITMAP
F000
3000
3000
3000
3000
3000
31C0
34E0
3030
3038
3018
3018
3018
3018
3018
3018
3030
3870
F7E0
ENDCHAR
STARTCHAR U+0063
ENCODING 99
SWIDTH 500 0
DWIDTH 13 0
BBX 11 13 1 0
BITMAP
0700
18C0
3040
6060
6000
C000
C000
C000
C000
6000
6000
3040
1F80
ENDCHAR
STARTCHAR U+0064
ENCODING 100
SWIDTH 500 0
DWIDTH 15 0
BBX 13 19 1 0
BITMAP
01E0
0060
0060
0060
0060
0060
0E60
39E0
7060
6060
E060
C060
C060
C060
C060
6060
6060
30E0
1F78
ENDCHAR
STARTCHAR U+0065
ENCODING 101
SWIDTH 500 0
DWIDTH 13 0
BBX 11 13 1 0
BITMAP
0F00
10C0
2040
6060
4060
C060
FFE0
C000
C000
6000
6000
3040
1F80
ENDCHAR
STARTCHAR U+0066
ENCODING 102
SWIDTH 500 0
DWIDTH 9 0
BBX 10 20 1 0
BITMAP
0100
05C0
0880
1000
1000
3000
3000
3000
FE00
3000
3000
3000
3000
3000
3000
3000
3000
3000
3000
FC00
ENDCHAR
STARTCHAR U+0067
ENCODING 103
SWIDTH 500 0
DWIDTH 14 0
BBX 12 19 1 -6
BITMAP
0E00
31F0
60C0
60C0
40C0
60C0
60C0
3180
3E00
4000
4000
6000
3FE0
2070
4030
C030
C020
C040
7F80
ENDCHAR
STARTCHAR U+0068
ENCODING 104
SWIDTH 500 0
DWIDTH 16 0
BBX 14 19 1 0
BITMAP
F000
3000
3000
3000
3000
3000
31C0
37E0
3830
3030
3030
3030
3030
3030
3030
3030
3030
3030
FCFC
ENDCHAR
STARTCHAR U+0069
ENCODING 105
SWIDTH 500 0
DWIDTH 8 0
BBX 6 18 1 0
BITMAP
30
30
00
00
00
10
F0
30
30
30
30
30
30
30
30
30
30
FC
ENDCHAR
STARTCHAR U+006A
ENCODING 106
SWIDTH 500 0
DWIDTH 7 0
BBX 7 24 -2 -6
BITMAP
06
06
00
00
00
02
1E
06
06
06
06
06
06
06
06
06
06
06
06
06
06
04
4C
F8
ENDCHAR
STARTCHAR U+006B
ENCODING 107
SWIDTH 500 0
DWIDTH 15 0
BBX 13 19 1 0
BITMAP
F000
3000
3000
3000
3000
3000
3000
30E0
30C0
3100
3300
3700
3B00
3180
3180
30C0
30E0
3060
FC38
ENDCHAR
STARTCHAR U+006C
ENCODING 108
SWIDTH 500 0
DWIDTH 8 0
BBX 6 19 1 0
BITMAP
F0
30
30
30
30
30
30
30
30
30
30
30
30
30
30
30
30
30
FC
ENDCHAR
STARTCHAR U+006D
ENCODING 109
SWIDTH 500 0
DWIDTH 23 0
BBX 21 13 1 0
BITMAP
11C1C0
F7E7E0
387860
303030
303030
303030
303030
303030
303030
303030
303030
303030
FCFCF8
ENDCHAR
STARTCHAR U+006E
ENCODING 110
SWIDTH 500 0
DWIDTH 16 0
BBX 14 13 1 0
BITMAP
11C0
F7E0
3830
3030
3030
3030
3030
3030
3030
3030
3030
3030
FCFC
ENDCHAR
STARTCHAR U+006F
ENCODING 111
SWIDTH 500 0
DWIDTH 14 0
BBX 12 13 1 0
BITMAP
0F00
10C0
2060
6060
E030
C030
C030
C030
C030
6030
6060
3040
1980
ENDCHAR
STARTCHAR U+0070
ENCODING 112
SWIDTH 500 0
DWIDTH 15 0
BBX 13 19 1 -6
BITMAP
11C0
F4E0
3830
3038
3018
3018
3018
3018
3018
3018
3030
3870
37E0
3000
3000
3000
3000
3000
7C00
ENDCHAR
STARTCHAR U+0071
ENCODING 113
SWIDTH 500 0
DWIDTH 15 0
BBX 13 19 1 -6
BITMAP
0E00
39A0
7060
6060
E060
C060
C060
C060
C060
6060
6060
30E0
1F60
0060
0060
0060
0060
0060
00F8
ENDCHAR
STARTCHAR U+0072
ENCODING 114
SWIDTH 500 0
DWIDTH 11 0
BBX 10 13 1 0
BITMAP
1180
F7C0
3480
3800
3000
3000
3000
3000
3000
3000
3000
3000
FC00
ENDCHAR
STARTCHAR U+0073
ENCODING 115
SWIDTH 500 0
DWIDTH 11 0
BBX 9 13 1 0
BITMAP
1E00
6180
4180
4080
6000
7000
3E00
0F00
0380
0180
C180
C180
6700
ENDCHAR
STARTCHAR U+0074
ENCODING 116
SWIDTH 500 0
DWIDTH 9 0
BBX 7 16 1 0
BITMAP
30
30
30
30
FE
30
30
30
30
30
30
30
30
30
30
3E
ENDCHAR
STARTCHAR U+0075
ENCODING 117
SWIDTH 500 0
DWIDTH 16 0
BBX 13 12 1 0
BITMAP
F0F0
3030
3030
3030
3030
3030
3030
3030
3030
3070
38B0
1F38
ENDCHAR
STARTCHAR U+0076
ENCODING 118
SWIDTH 500 0
DWIDTH 13 0
BBX 11 13 1 0
BITMAP
4000
E060
6040
6040
3080
3080
3080
1900
1900
0C00
0E00
0E00
0400
ENDCHAR
STARTCHAR U+0077
ENCODING 119
SWIDTH 500 0
DWIDTH 20 0
BBX 18 13 1 0
BITMAP
404000
E0E0C0
60E080
60E080
202100
313100
313100
101000
1A1A00
1A1A00
0C0C00
0C0C00
0C0C00
ENDCHAR
STARTCHAR U+0078
ENCODING 120
SWIDTH 500 0
DWIDTH 14 0
BBX 13 13 0 0
BITMAP
2010
3830
1820
1C40
0C80
0700
0700
0700
0580
08C0
10E0
3060
F8F8
ENDCHAR
STARTCHAR U+0079
ENCODING 121
SWIDTH 500 0
DWIDTH 13 0
BBX 12 19 0 -6
BITMAP
2000
7030
3020
3020
1800
1840
1840
0C00
0C80
0680
0700
0700
0300
0200
0200
0000
0400
C800
F000
ENDCHAR
STARTCHAR U+007A
ENCODING 122
SWIDTH 500 0
DWIDTH 12 0
BBX 10 12 1 0
BITMAP
C1C0
8180
8300
0700
0600
0C00
1C00
1800
3040
6040
6040
FFC0
ENDCHAR
STARTCHAR U+007B
ENCODING 123
SWIDTH 500 0
DWIDTH 9 0
BBX 7 23 1 -4
BITMAP
06
18
30
30
30
30
10
10
10
10
30
E0
20
10
10
10
10
30
30
30
30
30
1E
ENDCHAR
STARTCHAR U+007C
ENCODING 124
SWIDTH 500 0
DWIDTH 8 0
BBX 1 25 3 -6
BITMAP
80
80
80
80
80
80
80
80
80
80
80
80
80
80
80
80
80
80
80
80
80
80
80
80
80
ENDCHAR
STARTCHAR U+007D
ENCODING 125
SWIDTH 500 0
DWIDTH 9 0
BBX 7 23 1 -4
BITMAP
C0
30
18
18
18
18
10
10
10
10
10
0E
08
10
10
10
10
18
18
18
18
18
F0
ENDCHAR
STARTCHAR U+007E
ENCODING 126
SWIDTH 500 0
DWIDTH 14 0
BBX 10 4 2 7
BITMAP
7000
9840
8640
0380
ENDCHAR
STARTCHAR U+3002
ENCODING 12290
SWIDTH 500 0
DWIDTH 24 0
BBX 7 7 1 -2
BITMAP
38
44
82
82
82
44
38
ENDCHAR
STARTCHAR U+4E1A
ENCODING 19994
SWIDTH 500 0
DWIDTH 24 0
BBX 20 20 3 0
BITMAP
021800
021800
021800
021800
021800
021840
8218E0
4218C0
421880
621980
321900
321B00
321A00
121C00
121C00
121800
021800
021800
021800
061870
ENDCHAR
STARTCHAR U+4F5C
ENCODING 20316
SWIDTH 500 0
DWIDTH 24 0
BBX 22 22 1 -2
BITMAP
031800
061800
061000
043000
0C301C
086E00
184400
188400
388400
790638
580600
980400
180400
180400
180418
1807F8
180400
180400
180400
180400
180400
180400
ENDCHAR
STARTCHAR U+4F9D
ENCODING 20381
SWIDTH 500 0
DWIDTH 24 0
BBX 22 22 1 -2
BITMAP
060800
060C00
0C0600
0C0608
0BFFFC
180C00
181C00
381A00
383218
582238
586060
98E1C0
196100
186180
186080
1860C0
186040
186060
186C30
18701C
18E00C
100000
ENDCHAR
STARTCHAR U+5143
ENCODING 20803
SWIDTH 500 0
DWIDTH 24 0
BBX 22 21 1 -2
BITMAP
000060
1FFFE0
000000
000000
000000
000000
000018
7FFFFC
018400
018400
010400
010400
030400
030400
020400
060404
040404
080404
10060C
2007FC
800000
ENDCHAR
STARTCHAR U+5148
ENCODING 20808
SWIDTH 500 0
DWIDTH 24 0
BBX 22 22 1 -2
BITMAP
003000
063000
043000
0C3040
0C30E0
083000
103000
103000
203000
003018
FFFFFC
018400
018400
018400
010400
030400
030400
060400
040400
18040C
3007FC
800000
ENDCHAR
STARTCHAR U+5165
ENCODING 20837
SWIDTH 500 0
DWIDTH 24 0
BBX 22 22 1 -2
BITMAP
010000
01C000
006000
002000
002000
003000
003000
007000
007800
006800
00C800
00CC00
018400
018600
030300
020300
040180
0C00C0
1800F0
200078
40003C
800008
ENDCHAR
STARTCHAR U+516D
ENCODING 20845
SWIDTH 500 0
DWIDTH 24 0
BBX 21 21 2 -1
BITMAP
010000
00C000
006000
003000
003000
000030
FFFFF8
000000
000000
020000
030400
060200
060100
0C0080
0800C0
180060
100060
200030
400030
800018
000010
ENDCHAR
STARTCHAR U+5199
ENCODING 20889
SWIDTH 500 0
DWIDTH 24 0
BBX 22 21 1 -2
BITMAP
000018
3FFFFC
220018
630030
E20000
0200C0
07FFE0
060000
060000
040040
0FFFE0
000040
0000C0
000CC0
7FFEC0
0000C0
000080
000180
000180
000F00
000600
ENDCHAR
STARTCHAR U+5230
ENCODING 21040
SWIDTH 500 0
DWIDTH 24 0
BBX 21 22 1 -2
BITMAP
000008
001818
FFF998
060118
0E0118
0C4118
183118
203118
7F9918
701918
030118
020118
023118
7FF918
020118
020118
020118
021818
07C018
FE0018
600078
000030
ENDCHAR
STARTCHAR U+5468
ENCODING 21608
SWIDTH 500 0
DWIDTH 24 0
BBX 19 21 2 -2
BITMAP
200060
300060
206060
206060
206660
206060
206060
206260
27FF60
200060
200060
23FE60
220460
220460
620460
420460
430C60
420460
800060
0001E0
0000C0
ENDCHAR
STARTCHAR U+5929
ENCODING 22825
SWIDTH 500 0
DWIDTH 24 0
BBX 22 21 1 -2
BITMAP
000020
3FFFF0
003000
003000
003000
002000
002000
002018
7FFFFC
007000
006000
006800
004800
00C400
008600
018300
030180
0600C0
080070
20003C
800008
ENDCHAR
STARTCHAR U+5B66
ENCODING 23398
SWIDTH 500 0
DWIDTH 24 0
BBX 22 22 1 -2
BITMAP
004040
0430C0
063180
021100
220208
3FFFFC
200018
600030
C7FF80
000300
000600
001800
003000
003018
7FFFF8
003000
003000
003000
003000
003000
00F000
006000
ENDCHAR
STARTCHAR U+5B9D
ENCODING 23453
SWIDTH 500 0
DWIDTH 24 0
BBX 22 21 1 -1
BITMAP
002000
003000
001800
101018
300018
600010
E00020
400060
1FFFE0
003000
003000
003000
003000
0FFFC0
003000
003200
003180
0030C0
0030C0
003018
7FFFFC
ENDCHAR
STARTCHAR U+5C3D
ENCODING 23613
SWIDTH 500 0
DWIDTH 24 0
BBX 21 21 2 -2
BITMAP
1FFFC0
1800C0
1800C0
1800C0
1800C0
1800C0
1FFFC0
1808C0
180800
100400
118600
30E300
203180
2010C0
400070
400038
838000
00F000
003C00
000E00
000200
ENDCHAR
STARTCHAR U+5C71
ENCODING 23665
SWIDTH 500 0
DWIDTH 24 0
BBX 20 21 2 -2
BITMAP
006000
006000
006000
006000
406030
606020
406020
406020
406020
406020
406020
406020
406020
406020
406020
406020
406020
406060
FFFFE0
000020
000020
ENDCHAR
STARTCHAR U+6539
ENCODING 25913
SWIDTH 500 0
DWIDTH 24 0
BBX 22 21 1 -1
BITMAP
000600
000600
7F8C00
018C00
018C00
01981C
019830
019030
41B060
61A860
604860
600040
6004C0
600480
600380
608300
660780
7C0CC0
F018E0
402078
00C01C
ENDCHAR
STARTCHAR U+653E
ENCODING 25918
SWIDTH 500 0
DWIDTH 24 0
BBX 21 22 2 -2
BITMAP
100600
080C00
0C0C00
040C00
04C810
FFDFF8
301860
301860
312860
3FA840
21C0C0
2104C0
210480
210580
610300
610300
410700
430580
8308C0
833070
0E4038
040010
ENDCHAR
STARTCHAR U+65E5
ENCODING 26085
SWIDTH 500 0
DWIDTH 24 0
BBX 15 21 5 -2
BITMAP
0004
FFFE
8004
8004
8004
8004
8004
8004
8004
FFFC
C004
8004
8004
8004
8004
8004
8004
C004
FFFC
8004
8000
ENDCHAR
STARTCHAR U+65E6
ENCODING 26086
SWIDTH 500 0
DWIDTH 24 0
BBX 18 19 5 0
BITMAP
800C00
C00C00
C00C00
C00C00
C00C00
C00C00
C00C00
FFFC00
C00C00
C00C00
C00C00
C00C00
C00C00
FFFC00
C00C00
C00C00
000000
000100
0003C0
ENDCHAR
STARTCHAR U+6709
ENCODING 26377
SWIDTH 500 0
DWIDTH 24 0
BBX 20 22 2 -2
BITMAP
00C000
00C000
018000
018030
030000
020000
060000
040180
0FFFC0
1C0080
240080
460180
840180
040080
040080
07FF80
040080
040080
040080
040180
040380
040100
ENDCHAR
STARTCHAR U+6CB3
ENCODING 27827
SWIDTH 500 0
DWIDTH 24 0
BBX 21 22 2 -2
BITMAP
400000
300030
1BFFF8
100060
000060
040060
C10C60
698C60
290C60
110C60
110C60
210C60
210C60
61FC60
610C60
C10060
400060
600060
600060
600060
6001C0
400080
ENDCHAR
STARTCHAR U+6D41
ENCODING 27969
SWIDTH 500 0
DWIDTH 24 0
BBX 21 22 2 -2
BITMAP
401800
300C00
180C10
0BFFF8
001800
043000
C06080
68C060
2BFF60
13C030
100000
1188C0
218880
218880
618880
C18880
418880
610880
630888
620888
6408F8
480000
ENDCHAR
STARTCHAR U+6D77
ENCODING 28023
SWIDTH 500 0
DWIDTH 24 0
BBX 21 22 2 -2
BITMAP
606000
30C000
18C030
00FFF8
018000
010000
CAFFE0
688060
108840
118C40
118440
218078
2180E0
611040
410840
C10C40
4300D0
43FFF8
6000C0
600080
600780
400300
ENDCHAR
STARTCHAR U+7434
ENCODING 29748
SWIDTH 500 0
DWIDTH 24 0
BBX 22 22 1 -2
BITMAP
008010
7FCFF8
040180
040180
04C1B0
0E0180
040180
04C198
FFEFFC
007000
00EC00
018700
0621F0
18307C
401808
000180
0001C0
000300
000200
000600
000C00
001800
ENDCHAR
STARTCHAR U+767D
ENCODING 30333
SWIDTH 500 0
DWIDTH 24 0
BBX 17 22 4 -2
BITMAP
018000
030000
020000
020000
C60380
C00380
800100
800100
800100
800100
800100
C00300
C00300
800100
800100
800100
800100
800100
800100
FFFF00
800100
800100
ENDCHAR
STARTCHAR U+8BFE
ENCODING 35838
SWIDTH 500 0
DWIDTH 24 0
BBX 22 22 1 -2
BITMAP
200000
18FFF0
0CC630
0CC630
00C630
00FFF0
F8C630
18C630
08C630
08FFF0
088600
080618
09FFFC
080E00
080F00
081680
0A3640
0C6670
18C638
19061C
000600
000400
ENDCHAR
STARTCHAR U+8D1D
ENCODING 36125
SWIDTH 500 0
DWIDTH 24 0
BBX 21 21 1 -2
BITMAP
1C00E0
180060
180040
180040
183040
183040
183040
183040
183040
183040
183040
182040
186040
186040
004C00
00C380
0181C0
030070
060038
180018
C00008
ENDCHAR
STARTCHAR U+8FD8
ENCODING 36824
SWIDTH 500 0
DWIDTH 24 0
BBX 22 20 1 -1
BITMAP
200018
19FFF8
180300
0C0600
080600
000C00
181E00
FC1CC0
182430
184418
188418
1A040C
180400
180400
180400
180400
140400
620000
E1E000
C07FF8
ENDCHAR
STARTCHAR U+94A2
ENCODING 38050
SWIDTH 500 0
DWIDTH 24 0
BBX 21 22 1 -2
BITMAP
380000
307FF8
306018
3F6018
6060D8
4068D8
4264D8
FF6298
186398
186198
186198
1BE198
1862D8
1862D8
186458
186458
196858
1A6018
1C6018
186018
086038
006030
ENDCHAR
STARTCHAR U+9EC4
ENCODING 40644
SWIDTH 500 0
DWIDTH 24 0
BBX 22 22 1 -2
BITMAP
018600
018620
018670
018600
018600
018618
FFFFFC
003000
003040
0FFFE0
083040
083040
0FFFC0
083040
083040
083040
0FFFC0
080040
018300
0700E0
1C0038
C00008
ENDCHAR
STARTCHAR U+FF0C
ENCODING 65292
SWIDTH 500 0
DWIDTH 24 0
BBX 3 7 2 -4
BITMAP
60
E0
60
20
20
20
40
ENDCHAR
ENDFONT
