STARTFONT 2.1
FONT serif-r-40
SIZE 40 75 75
FONTBOUNDINGBOX 80 59 0 -12
STARTPROPERTIES 3
PIXEL_SIZE 40
FONT_ASCENT 47
FONT_DESCENT 12
ENDPROPERTIES
CHARS 127
STARTCHAR U+0020
ENCODING 32
SWIDTH 500 0
DWIDTH 10 0
BBX 0 0 0 0
BITMAP
ENDCHAR
STARTCHAR U+0021
ENCODING 33
SWIDTH 500 0
DWIDTH 12 0
BBX 5 30 4 0
BITMAP
60
F0
F0
F0
F0
F0
F0
F0
70
70
70
60
60
60
60
60
60
60
60
20
20
00
00
00
00
00
70
F0
F8
F0
ENDCHAR
STARTCHAR U+0022
ENCODING 34
SWIDTH 500 0
DWIDTH 15 0
BBX 11 13 2 19
BITMAP
60E0
F1E0
F1E0
F1E0
F1E0
E0E0
60E0
60C0
60C0
60C0
60C0
60C0
4040
ENDCHAR
STARTCHAR U+0023
ENCODING 35
SWIDTH 500 0
DWIDTH 23 0
BBX 21 28 1 0
BITMAP
0180C0
0180C0
010080
010080
010080
030080
030180
3FFFF8
7FFFF8
7FFFF8
020100
020100
060300
060300
060300
040200
040200
FFFFF0
FFFFF0
FFFFE0
0C0600
0C0600
080400
080400
080400
180C00
180C00
180C00
ENDCHAR
STARTCHAR U+0024
ENCODING 36
SWIDTH 500 0
DWIDTH 22 0
BBX 18 38 2 -5
BITMAP
004000
004000
004000
004000
00F000
07FC00
1C4700
384700
304380
704380
704380
704180
704000
704000
384000
3C4000
1FC000
0FE000
07F800
01FC00
007F00
004F00
004780
004380
0041C0
0041C0
6041C0
F041C0
F04180
704380
704300
384E00
0FFC00
01C000
004000
004000
004000
004000
ENDCHAR
STARTCHAR U+0025
ENCODING 37
SWIDTH 500 0
DWIDTH 37 0
BBX 33 30 2 -1
BITMAP
1F80002000
30C0006000
60C000C000
6060008000
E060010000
E060030000
C070020000
C070040000
C0700C0000
C070180000
C060100000
E060300000
E06060FC00
6060418600
60C0C18300
31C1830300
1F01030380
0003030380
0006070180
0004070180
0008070180
0018070180
0010070180
0020030380
0060030380
00C0030300
0080018300
0180018600
030000FC00
0200000000
ENDCHAR
STARTCHAR U+0026
ENCODING 38
SWIDTH 500 0
DWIDTH 31 0
BBX 28 31 2 -1
BITMAP
00F00000
03FC0000
0E060000
0C070000
1C030000
1C030000
1C030000
1C030000
1C070000
0E060000
0E0C0000
07380000
07E01FE0
03C00300
07E00300
0CF00300
38780200
303C0200
601E0600
E01E0400
E00F0C00
E0078800
E003D800
E001F000
E000F000
F0007800
7800FC00
7C031E00
3FFE0F00
0FFC07F0
01C00000
ENDCHAR
STARTCHAR U+0027
ENCODING 39
SWIDTH 500 0
DWIDTH 8 0
BBX 4 13 2 19
BITMAP
60
F0
F0
F0
F0
E0
60
60
60
60
60
60
40
ENDCHAR
STARTCHAR U+0028
ENCODING 40
SWIDTH 500 0
DWIDTH 15 0
BBX 9 40 4 -8
BITMAP
0180
0100
0300
0600
0C00
0C00
1800
1800
3000
3000
7000
6000
6000
E000
E000
E000
E000
E000
E000
E000
E000
E000
E000
E000
E000
E000
E000
6000
7000
7000
3000
3800
1800
1800
0C00
0E00
0600
0300
0100
0080
ENDCHAR
STARTCHAR U+0029
ENCODING 41
SWIDTH 500 0
DWIDTH 15 0
BBX 9 40 2 -8
BITMAP
8000
C000
6000
3000
3000
1800
1C00
0C00
0E00
0E00
0600
0700
0700
0300
0300
0380
0380
0380
0380
0380
0380
0380
0380
0380
0380
0300
0300
0700
0700
0600
0E00
0C00
0C00
1800
1800
3000
6000
6000
C000
8000
ENDCHAR
STARTCHAR U+002A
ENCODING 42
SWIDTH 500 0
DWIDTH 19 0
BBX 17 17 1 16
BITMAP
008000
01C000
01C000
01C000
01C000
00C000
E08380
F88F80
7EBF00
01C000
01C000
036000
063000
0E3800
1C1C00
1C1C00
180C00
ENDCHAR
STARTCHAR U+002B
ENCODING 43
SWIDTH 500 0
DWIDTH 23 0
BBX 20 21 2 4
BITMAP
004000
006000
006000
006000
006000
006000
006000
006000
006000
006000
FFFFF0
00E000
006000
006000
006000
006000
006000
006000
006000
006000
006000
ENDCHAR
STARTCHAR U+002C
ENCODING 44
SWIDTH 500 0
DWIDTH 13 0
BBX 6 11 3 -7
BITMAP
38
7C
7C
3C
1C
0C
08
18
30
E0
80
ENDCHAR
STARTCHAR U+002D
ENCODING 45
SWIDTH 500 0
DWIDTH 14 0
BBX 10 2 2 10
BITMAP
FFC0
FFC0
ENDCHAR
STARTCHAR U+002E
ENCODING 46
SWIDTH 500 0
DWIDTH 13 0
BBX 5 5 4 -1
BITMAP
70
F8
F8
78
20
ENDCHAR
STARTCHAR U+002F
ENCODING 47
SWIDTH 500 0
DWIDTH 14 0
BBX 14 38 0 -7
BITMAP
000C
0008
0018
0018
0010
0030
0030
0030
0060
0060
0060
00C0
00C0
00C0
0080
0180
0180
0100
0300
0300
0300
0600
0600
0600
0C00
0C00
0C00
0800
1800
1800
1000
3000
3000
3000
6000
6000
6000
C000
ENDCHAR
STARTCHAR U+0030
ENCODING 48
SWIDTH 500 0
DWIDTH 22 0
BBX 18 31 2 -1
BITMAP
01E000
07F800
0E0C00
1C0600
380700
380380
700380
700380
7003C0
F001C0
E001C0
E001C0
E001C0
E001C0
E001C0
E001C0
E001C0
E001C0
E001C0
E001C0
E001C0
F001C0
7003C0
700380
700380
380300
380700
1C0E00
0E1C00
07F800
00C000
ENDCHAR
STARTCHAR U+0031
ENCODING 49
SWIDTH 500 0
DWIDTH 19 0
BBX 14 29 3 0
BITMAP
0F80
7F80
C380
0380
0380
0380
0380
0380
0380
0380
0380
0380
0380
0380
0380
0380
0380
0380
0380
0380
0380
0380
0380
0380
0380
0380
0780
0FE0
FFFC
ENDCHAR
STARTCHAR U+0032
ENCODING 50
SWIDTH 500 0
DWIDTH 22 0
BBX 17 30 3 0
BITMAP
03E000
1FF800
301C00
700E00
E00F00
E00700
E00700
400700
000700
000700
000F00
000E00
000E00
001C00
003800
003800
007000
00E000
01C000
018000
030000
060000
0C0000
180000
300000
200000
400000
FFFF80
FFFF80
FFFF80
ENDCHAR
STARTCHAR U+0033
ENCODING 51
SWIDTH 500 0
DWIDTH 22 0
BBX 18 31 2 -1
BITMAP
01E000
0FFC00
381E00
380F00
700700
700780
600780
000780
000780
000780
000700
000E00
001E00
003800
07E000
00F800
000E00
000700
000780
000380
0003C0
0003C0
0003C0
0003C0
E00380
E00380
F00780
700F00
301E00
1FF800
01C000
ENDCHAR
STARTCHAR U+0034
ENCODING 52
SWIDTH 500 0
DWIDTH 22 0
BBX 20 31 1 -1
BITMAP
000200
000700
000F00
001F00
001F00
002700
006700
004700
008700
018700
010700
030700
060700
040700
0C0700
080700
100700
300700
200700
400700
FFFFF0
FFFFF0
000F00
000700
000700
000700
000700
000700
000700
000700
000600
ENDCHAR
STARTCHAR U+0035
ENCODING 53
SWIDTH 500 0
DWIDTH 22 0
BBX 18 30 2 -1
BITMAP
1FFF80
1FFF80
1FFF80
100000
100000
100000
100000
300000
300000
300000
300000
308000
3FFC00
383E00
000F00
000780
000380
0003C0
0003C0
0001C0
0001C0
0001C0
0003C0
E003C0
E00380
F00780
700F00
301E00
1FF800
038000
ENDCHAR
STARTCHAR U+0036
ENCODING 54
SWIDTH 500 0
DWIDTH 22 0
BBX 18 31 2 -1
BITMAP
000080
000F00
003800
00F000
01C000
038000
070000
0E0000
1C0000
1C0000
380000
380000
787000
73FE00
760F00
780780
F00380
F003C0
F001C0
F001C0
F001C0
F001C0
7001C0
7001C0
7001C0
380380
380380
1C0700
0E0E00
07FC00
00E000
ENDCHAR
STARTCHAR U+0037
ENCODING 55
SWIDTH 500 0
DWIDTH 22 0
BBX 18 29 2 0
BITMAP
FFFFC0
FFFF80
FFFF80
000180
000100
000300
000300
000600
000600
000600
000C00
000C00
001800
001800
003800
003000
007000
006000
00E000
00E000
00C000
01C000
01C000
038000
038000
070000
070000
0F0000
0E0000
ENDCHAR
STARTCHAR U+0038
ENCODING 56
SWIDTH 500 0
DWIDTH 22 0
BBX 18 31 2 -1
BITMAP
01E000
07FC00
1C0E00
380700
380300
700380
700380
700380
700380
780300
380700
3C0600
1F0C00
0F9800
07F000
03F800
067E00
0C1F00
180F80
300780
7003C0
6001C0
E001C0
E001C0
E001C0
7001C0
700380
780380
3C0700
0FFC00
01E000
ENDCHAR
STARTCHAR U+0039
ENCODING 57
SWIDTH 500 0
DWIDTH 22 0
BBX 18 30 2 0
BITMAP
01E000
0FFC00
1C0E00
380700
700700
700380
700380
F003C0
E001C0
E001C0
F001C0
F001C0
7001C0
7001C0
7801C0
3C03C0
1F0FC0
07F380
000380
000380
000700
000700
000E00
001C00
003800
007000
00E000
03C000
070000
3C0000
ENDCHAR
STARTCHAR U+003A
ENCODING 58
SWIDTH 500 0
DWIDTH 13 0
BBX 5 21 4 -1
BITMAP
70
F8
F8
F8
70
00
00
00
00
00
00
00
00
00
00
00
70
F8
F8
78
20
ENDCHAR
STARTCHAR U+003B
ENCODING 59
SWIDTH 500 0
DWIDTH 13 0
BBX 6 27 3 -7
BITMAP
38
7C
7C
7C
38
00
00
00
00
00
00
00
00
00
00
00
38
7C
7C
3C
1C
0C
08
18
30
E0
80
ENDCHAR
STARTCHAR U+003C
ENCODING 60
SWIDTH 500 0
DWIDTH 23 0
BBX 18 21 2 4
BITMAP
000040
0001C0
000780
000E00
003800
00F000
03C000
070000
1C0000
700000
E00000
700000
1C0000
0F0000
038000
00E000
003800
001E00
000700
0001C0
000040
ENDCHAR
STARTCHAR U+003D
ENCODING 61
SWIDTH 500 0
DWIDTH 23 0
BBX 20 11 2 9
BITMAP
FFFFE0
FFFFF0
000000
000000
000000
000000
000000
000000
000000
FFFFF0
FFFFF0
ENDCHAR
STARTCHAR U+003E
ENCODING 62
SWIDTH 500 0
DWIDTH 23 0
BBX 18 21 3 4
BITMAP
800000
E00000
780000
1E0000
070000
01C000
00F000
003800
000E00
000380
0001C0
000380
000F00
001C00
007000
01C000
078000
0E0000
380000
E00000
C00000
ENDCHAR
STARTCHAR U+003F
ENCODING 63
SWIDTH 500 0
DWIDTH 17 0
BBX 12 30 3 0
BITMAP
7000
FC00
FF00
7F80
03C0
0060
0020
0030
0030
0030
0030
0070
00E0
07C0
1F80
3E00
3800
3000
3000
3000
1000
0000
0000
0000
0000
0000
3800
7C00
7C00
7800
ENDCHAR
STARTCHAR U+0040
ENCODING 64
SWIDTH 500 0
DWIDTH 36 0
BBX 33 36 2 -7
BITMAP
0000FC0000
000FFF8000
003800E000
00E0003000
0180001800
0300000C00
0600000600
0C00000200
1800600300
1001FB0100
30070F0100
200E070180
601C060180
6018060180
C0380E0180
C0300E0180
C0700E0180
C0600C0180
C0600C0100
80E01C0100
80E01C0300
80E01C0200
C0E01C0600
C070780C00
C078DC1800
C03F8FE000
601E078000
6000000000
3000000000
3000000000
1800000000
0C00000000
0700000000
03C0070000
00FFFC0000
000FC00000
ENDCHAR
STARTCHAR U+0041
ENCODING 65
SWIDTH 500 0
DWIDTH 29 0
BBX 28 29 0 0
BITMAP
00070000
00070000
000F0000
000F8000
000B8000
001B8000
0013C000
0011C000
0031C000
0021E000
0020E000
0060E000
0040F000
00407000
00C07000
00807800
00803800
01803800
01FFFC00
01001C00
03001C00
02001E00
02000E00
06000E00
04000F00
04000700
0C000700
1C000F80
FF807FF0
ENDCHAR
STARTCHAR U+0042
ENCODING 66
SWIDTH 500 0
DWIDTH 27 0
BBX 23 29 2 0
BITMAP
FFFF80
0F03E0
0F00F0
0F0078
0F0038
0F0038
0F0038
0F0038
0F0038
0F0038
0F0070
0F00E0
0F03C0
0FFF00
0F0FC0
0F00F0
0F0038
0F001C
0F001E
0F001E
0F001E
0F001E
0F001E
0F001E
0F001C
0F003C
0F0078
1F03E0
FFFF00
ENDCHAR
STARTCHAR U+0043
ENCODING 67
SWIDTH 500 0
DWIDTH 28 0
BBX 24 31 2 -1
BITMAP
000FC0
007FF8
01E00E
07800E
0F0006
1E0006
1C0006
3C0006
380006
780000
780000
700000
F00000
F00000
F00000
F00000
F00000
F00000
F00000
700000
780000
780000
380003
3C0003
1C0007
1E0007
0F0007
078007
01E00E
007FF8
000780
ENDCHAR
STARTCHAR U+0044
ENCODING 68
SWIDTH 500 0
DWIDTH 31 0
BBX 27 29 2 0
BITMAP
FFFF8000
0F03F000
0F007800
0F001E00
0F000E00
0F000700
0F000780
0F000380
0F0003C0
0F0003C0
0F0003C0
0F0001C0
0F0001C0
0F0001C0
0F0001E0
0F0001C0
0F0001C0
0F0001C0
0F0003C0
0F0003C0
0F000380
0F000780
0F000780
0F000F00
0F001E00
0F003C00
0F007800
1F03E000
FFFF0000
ENDCHAR
STARTCHAR U+0045
ENCODING 69
SWIDTH 500 0
DWIDTH 26 0
BBX 22 29 2 0
BITMAP
FFFFF8
0F0018
0F0018
0F001C
0F001C
0F000C
0F000C
0F0000
0F0000
0F0080
0F0180
0F0180
0F0180
0F0180
0FFF80
0F0180
0F0180
0F0180
0F0180
0F0000
0F0000
0F0000
0F000C
0F000C
0F000C
0F000C
0F000C
1F001C
FFFFFC
ENDCHAR
STARTCHAR U+0046
ENCODING 70
SWIDTH 500 0
DWIDTH 25 0
BBX 22 29 2 0
BITMAP
FFFFFC
0F001C
0F001C
0F001C
0F000C
0F000C
0F000C
0F0000
0F0000
0F0080
0F0180
0F0180
0F0180
0F0180
0FFF80
0F0180
0F0180
0F0180
0F0180
0F0000
0F0000
0F0000
0F0000
0F0000
0F0000
0F0000
0F0000
1F8000
FFF000
ENDCHAR
STARTCHAR U+0047
ENCODING 71
SWIDTH 500 0
DWIDTH 30 0
BBX 27 31 2 -1
BITMAP
000FC000
007FFC00
01E00E00
07800700
0F000700
1E000700
1C000700
3C000300
38000300
78000000
78000000
70000000
F0000000
F0000000
F0000000
F0000000
F000FFE0
F0001F80
F0000700
70000700
78000700
78000700
38000700
3C000700
1C000700
1E000700
0F000700
07800700
01E00E00
007FF800
00078000
ENDCHAR
STARTCHAR U+0048
ENCODING 72
SWIDTH 500 0
DWIDTH 34 0
BBX 30 29 2 0
BITMAP
FFF03FFC
0F0003C0
0F0003C0
0F0003C0
0F0003C0
0F0003C0
0F0003C0
0F0003C0
0F0003C0
0F0003C0
0F0003C0
0F0003C0
0F0003C0
0FFFFFC0
0FFFFFC0
0F0003C0
0F0003C0
0F0003C0
0F0003C0
0F0003C0
0F0003C0
0F0003C0
0F0003C0
0F0003C0
0F0003C0
0F0003C0
0F0003C0
1F8003E0
FFF03FFC
ENDCHAR
STARTCHAR U+0049
ENCODING 73
SWIDTH 500 0
DWIDTH 16 0
BBX 12 29 2 0
BITMAP
FFF0
0F00
0F00
0F00
0F00
0F00
0F00
0F00
0F00
0F00
0F00
0F00
0F00
0F00
0F00
0F00
0F00
0F00
0F00
0F00
0F00
0F00
0F00
0F00
0F00
0F00
0F00
1F80
FFF0
ENDCHAR
STARTCHAR U+004A
ENCODING 74
SWIDTH 500 0
DWIDTH 16 0
BBX 15 35 0 -6
BITMAP
3FFE
01E0
01C0
01C0
01C0
01C0
01C0
01C0
01C0
01C0
01C0
01C0
01C0
01C0
01C0
01C0
01C0
01C0
01C0
01C0
01C0
01C0
01C0
01C0
01C0
01C0
01C0
01C0
01C0
0180
0380
E300
F700
FE00
7000
ENDCHAR
STARTCHAR U+004B
ENCODING 75
SWIDTH 500 0
DWIDTH 29 0
BBX 27 29 2 0
BITMAP
FFF0FFC0
0F000E00
0F000C00
0F001800
0F003000
0F006000
0F00C000
0F008000
0F018000
0F030000
0F060000
0F0E0000
0F1E0000
0F1F0000
0F378000
0F678000
0FC3C000
0F81C000
0F01E000
0F00E000
0F00F000
0F007000
0F007800
0F003C00
0F003C00
0F001E00
0F000E00
1F801F00
FFF0FFE0
ENDCHAR
STARTCHAR U+004C
ENCODING 76
SWIDTH 500 0
DWIDTH 25 0
BBX 22 29 2 0
BITMAP
FFF000
0F0000
0F0000
0F0000
0F0000
0F0000
0F0000
0F0000
0F0000
0F0000
0F0000
0F0000
0F0000
0F0000
0F0000
0F0000
0F0000
0F0000
0F0000
0F0000
0F0000
0F0008
0F000C
0F0018
0F0018
0F0018
0F0018
1F0038
FFFFF8
ENDCHAR
STARTCHAR U+004D
ENCODING 77
SWIDTH 500 0
DWIDTH 39 0
BBX 35 29 2 0
BITMAP
FF00001FE0
1F00003E00
0F00003E00
0F80003E00
0B80007E00
0BC0005E00
0BC000DE00
09C000DE00
09E0009E00
08E0019E00
08F0011E00
08F0031E00
0870031E00
0878021E00
0838061E00
083C041E00
081C0C1E00
081C0C1E00
081E081E00
080E181E00
080F101E00
0807301E00
0807B01E00
0807A01E00
0803E01E00
0803C01E00
0801C01E00
3E01C03F00
FF8181FFE0
ENDCHAR
STARTCHAR U+004E
ENCODING 78
SWIDTH 500 0
DWIDTH 32 0
BBX 28 29 2 0
BITMAP
FE003FF0
1F000380
0F800100
0F800100
0BC00100
0BE00100
09E00100
08F00100
08780100
08780100
083C0100
081E0100
081E0100
080F0100
08078100
08078100
0803C100
0801E100
0801E100
0800F100
08007900
08007900
08003D00
08001F00
08001F00
08000F00
08000700
3E000700
FFC00300
ENDCHAR
STARTCHAR U+004F
ENCODING 79
SWIDTH 500 0
DWIDTH 31 0
BBX 26 31 2 -1
BITMAP
001F0000
00FFE000
03C07800
07003C00
0E001E00
1E000F00
3C000700
38000780
38000380
780003C0
780003C0
700003C0
F00003C0
F00001C0
F00001C0
F00001C0
F00001C0
F00003C0
F00003C0
700003C0
780003C0
78000380
38000780
3C000780
1C000700
1E000E00
0E001E00
07003C00
03C07000
00FFE000
001E0000
ENDCHAR
STARTCHAR U+0050
ENCODING 80
SWIDTH 500 0
DWIDTH 26 0
BBX 22 29 2 0
BITMAP
FFFF00
0F03E0
0F00F0
0F0078
0F0038
0F003C
0F001C
0F001C
0F001C
0F001C
0F003C
0F003C
0F0038
0F0070
0F00E0
0F07C0
0FFE00
0F0000
0F0000
0F0000
0F0000
0F0000
0F0000
0F0000
0F0000
0F0000
0F0000
1F8000
FFF000
ENDCHAR
STARTCHAR U+0051
ENCODING 81
SWIDTH 500 0
DWIDTH 31 0
BBX 26 39 2 -9
BITMAP
001F0000
00FFE000
03C07800
07003C00
0E001E00
1E000F00
3C000700
38000780
38000380
780003C0
780003C0
700003C0
F00003C0
F00001C0
F00001C0
F00001C0
F00001C0
F00003C0
F00003C0
700003C0
780003C0
78000380
38000780
3C000780
1C000700
1E000E00
0E001E00
07003C00
03C07000
00FFE000
001E0000
000E0000
000E0000
000E0000
000F0000
00070000
0003C000
0001FF00
00007C00
ENDCHAR
STARTCHAR U+0052
ENCODING 82
SWIDTH 500 0
DWIDTH 29 0
BBX 26 29 2 0
BITMAP
FFFF8000
0F01E000
0F007800
0F003800
0F003C00
0F001C00
0F001C00
0F001C00
0F001C00
0F001C00
0F003C00
0F003800
0F007000
0F01E000
0FFF0000
0F078000
0F01C000
0F01E000
0F00E000
0F00F000
0F007000
0F007000
0F007800
0F007800
0F003800
0F003C00
0F003C00
1F801C00
FFF01FC0
ENDCHAR
STARTCHAR U+0053
ENCODING 83
SWIDTH 500 0
DWIDTH 23 0
BBX 19 31 2 -1
BITMAP
01F800
07FF00
1E0380
380180
300180
700180
700180
700180
700000
700000
780000
3C0000
3F0000
1FC000
07F800
03FC00
00FF00
001F80
0007C0
0003C0
0001C0
0001E0
4001E0
C000E0
C001C0
E001C0
E001C0
E00380
700F00
1FFC00
03E000
ENDCHAR
STARTCHAR U+0054
ENCODING 84
SWIDTH 500 0
DWIDTH 26 0
BBX 24 29 1 0
BITMAP
FFFFFF
E03C07
E03C03
C03C03
C03C03
C03C03
C03C01
003C00
003C00
003C00
003C00
003C00
003C00
003C00
003C00
003C00
003C00
003C00
003C00
003C00
003C00
003C00
003C00
003C00
003C00
003C00
003C00
007E00
03FFE0
ENDCHAR
STARTCHAR U+0055
ENCODING 85
SWIDTH 500 0
DWIDTH 32 0
BBX 28 30 2 -1
BITMAP
FFF03FF0
1F000380
0E000100
0E000100
0E000100
0E000100
0E000100
0E000100
0E000100
0E000100
0E000100
0E000100
0E000100
0E000100
0E000100
0E000100
0E000100
0E000100
0E000100
0E000100
0E000100
0F000300
0F000300
0F000200
07800600
07C00C00
03E01C00
01FFF800
007FE000
000F0000
ENDCHAR
STARTCHAR U+0056
ENCODING 86
SWIDTH 500 0
DWIDTH 29 0
BBX 28 29 0 0
BITMAP
FFF03FF0
1F000380
0F000100
0F000300
07000300
07800200
07800600
03800600
03C00400
03C00C00
01C00C00
01E00800
00E01800
00E01800
00F01000
00703000
00703000
00782000
00386000
00386000
003C4000
001CC000
001CC000
001E8000
000F8000
000F8000
000F0000
00070000
00070000
ENDCHAR
STARTCHAR U+0057
ENCODING 87
SWIDTH 500 0
DWIDTH 42 0
BBX 42 29 0 0
BITMAP
FFF07FF0FFC0
0F000F000C00
0F000F000C00
07000F000800
07000F001800
07801F801800
07801F801000
038013801000
03C013803000
03C033C03000
01C021C02000
01C021C02000
01E061E06000
01E040E06000
00E040E04000
00E0C0E0C000
00F0C070C000
007080708000
007080708000
007180798000
007900398000
003900390000
003B003D0000
003E001F0000
001E001F0000
001E001E0000
001E000E0000
001C000E0000
000C000C0000
ENDCHAR
STARTCHAR U+0058
ENCODING 88
SWIDTH 500 0
DWIDTH 28 0
BBX 26 29 1 0
BITMAP
FFF0FFC0
1F000C00
0F001800
07801800
07803000
03C02000
01C06000
01E0C000
00F08000
00F18000
00790000
007A0000
003E0000
001E0000
001E0000
001F0000
003F0000
00278000
00638000
00C3C000
0081E000
0181E000
0300F000
03007000
06007800
04003C00
0C003C00
3E003E00
FF81FFC0
ENDCHAR
STARTCHAR U+0059
ENCODING 89
SWIDTH 500 0
DWIDTH 27 0
BBX 26 29 1 0
BITMAP
FFE0FFC0
1E000E00
0E000C00
0F000800
07001800
07801000
03803000
03C02000
01C06000
01E04000
00E0C000
00F08000
00718000
00790000
003B0000
003E0000
001E0000
001E0000
001E0000
001E0000
001E0000
001E0000
001E0000
001E0000
001E0000
001E0000
001E0000
003F0000
03FFE000
ENDCHAR
STARTCHAR U+005A
ENCODING 90
SWIDTH 500 0
DWIDTH 24 0
BBX 22 29 1 0
BITMAP
7FFFF8
700078
600070
6000F0
6001E0
6001E0
6003C0
000780
000780
000F00
001E00
001E00
003C00
007800
007800
00F000
01E000
01E000
03C000
078000
078000
0F000C
1E000C
1E000C
3C000C
38001C
78001C
F0001C
FFFFFC
ENDCHAR
STARTCHAR U+005B
ENCODING 91
SWIDTH 500 0
DWIDTH 14 0
BBX 8 38 4 -7
BITMAP
FF
F0
E0
E0
E0
E0
E0
E0
E0
E0
E0
E0
E0
E0
E0
E0
E0
E0
E0
E0
E0
E0
E0
E0
E0
E0
E0
E0
E0
E0
E0
E0
E0
E0
E0
E0
FE
FF
ENDCHAR
STARTCHAR U+005C
ENCODING 92
SWIDTH 500 0
DWIDTH 14 0
BBX 13 38 1 -7
BITMAP
8000
C000
C000
C000
4000
6000
6000
2000
3000
3000
3000
1800
1800
1800
0C00
0C00
0C00
0400
0600
0600
0200
0300
0300
0300
0180
0180
0180
00C0
00C0
00C0
0040
0060
0060
0020
0030
0030
0030
0018
ENDCHAR
STARTCHAR U+005D
ENCODING 93
SWIDTH 500 0
DWIDTH 14 0
BBX 7 38 2 -7
BITMAP
FE
0E
06
06
06
06
06
06
06
06
06
06
06
06
06
06
06
06
06
06
06
06
06
06
06
06
06
06
06
06
06
06
06
06
06
06
7E
FE
ENDCHAR
STARTCHAR U+005E
ENCODING 94
SWIDTH 500 0
DWIDTH 23 0
BBX 15 12 4 9
BITMAP
0380
03C0
06C0
0C60
0C70
1830
1818
3018
600C
6006
C006
8002
ENDCHAR
STARTCHAR U+005F
ENCODING 95
SWIDTH 500 0
DWIDTH 23 0
BBX 23 2 0 -3
BITMAP
FFFFFE
FFFFFE
ENDCHAR
STARTCHAR U+0060
ENCODING 96
SWIDTH 500 0
DWIDTH 17 0
BBX 7 8 4 25
BITMAP
C0
E0
F0
70
38
1C
0C
06
ENDCHAR
STARTCHAR U+0061
ENCODING 97
SWIDTH 500 0
DWIDTH 22 0
BBX 20 22 2 -1
BITMAP
07F800
181C00
380E00
700E00
700F00
700700
000700
000700
000F00
00FF00
078700
1C0700
380700
700700
F00700
E00700
E00F00
F01F00
F03700
7CE790
3F83E0
0E0080
ENDCHAR
STARTCHAR U+0062
ENCODING 98
SWIDTH 500 0
DWIDTH 26 0
BBX 22 33 2 -1
BITMAP
3C0000
FC0000
1C0000
1C0000
1C0000
1C0000
1C0000
1C0000
1C0000
1C0000
1C0000
1C3F80
1CFFC0
1F81E0
1E00F0
1C0070
1C0078
1C0038
1C0038
1C0038
1C003C
1C003C
1C003C
1C0038
1C0038
1C0038
1C0078
1C0070
1E00F0
1F01E0
1DC7C0
FC7F80
000C00
ENDCHAR
STARTCHAR U+0063
ENCODING 99
SWIDTH 500 0
DWIDTH 22 0
BBX 18 22 2 -1
BITMAP
03FC00
070600
1E0300
3C0380
3803C0
7003C0
700000
F00000
F00000
E00000
E00000
E00000
F00000
F00000
F00000
700000
780000
3C00C0
3E0180
0FCF00
07FE00
00E000
ENDCHAR
STARTCHAR U+0064
ENCODING 100
SWIDTH 500 0
DWIDTH 25 0
BBX 22 33 2 -1
BITMAP
0003C0
000FC0
0001C0
0001C0
0001C0
0001C0
0001C0
0001C0
0001C0
0001C0
0001C0
03F1C0
0FFDC0
1E07C0
3C01C0
7801C0
7001C0
7001C0
F001C0
F001C0
E001C0
E001C0
E001C0
F001C0
F001C0
F001C0
7001C0
7801C0
3801C0
3C03C0
1F1DE0
07F9FC
01C000
ENDCHAR
STARTCHAR U+0065
ENCODING 101
SWIDTH 500 0
DWIDTH 22 0
BBX 18 22 2 -1
BITMAP
03FC00
0F0E00
1C0700
380380
380380
7001C0
7001C0
F001C0
F001C0
FFFFC0
F00000
E00000
F00000
F00000
F00000
700000
780000
3C0040
3E0180
0FCF00
07FE00
007000
ENDCHAR
STARTCHAR U+0066
ENCODING 102
SWIDTH 500 0
DWIDTH 16 0
BBX 17 33 1 0
BITMAP
000E00
007F80
00CF80
018380
038000
030000
070000
070000
060000
0E0000
0E0000
0E0000
3FF800
FFFC00
0E0000
0E0000
0E0000
0E0000
0E0000
0E0000
0E0000
0E0000
0E0000
0E0000
0E0000
0E0000
0E0000
0E0000
0E0000
0E0000
0F0000
0F0000
FFF000
ENDCHAR
STARTCHAR U+0067
ENCODING 103
SWIDTH 500 0
DWIDTH 23 0
BBX 20 31 2 -10
BITMAP
07F060
1C1FF0
380E00
700F00
700700
700700
700700
700700
700700
700700
380E00
380E00
1E3C00
1FF000
300000
200000
600000
700000
780000
3FFF80
1FFFC0
1FFFE0
6001E0
E000E0
C000E0
C000E0
C000E0
E001C0
E00380
780F00
1FFC00
ENDCHAR
STARTCHAR U+0068
ENCODING 104
SWIDTH 500 0
DWIDTH 27 0
BBX 23 32 2 0
BITMAP
3C0000
FC0000
1C0000
1C0000
1C0000
1C0000
1C0000
1C0000
1C0000
1C0000
1C0000
1C1F80
1C7FC0
1CC1E0
1D80F0
1E00F0
1C0070
1C0070
1C0070
1C0070
1C0070
1C0070
1C0070
1C0070
1C0070
1C0070
1C0070
1C0070
1C0070
1C0070
1E00F0
FF87FE
ENDCHAR
STARTCHAR U+0069
ENCODING 105
SWIDTH 500 0
DWIDTH 13 0
BBX 10 31 2 0
BITMAP
0800
3E00
3E00
3E00
1C00
0000
0000
0000
0000
0000
1E00
FE00
FE00
1C00
1C00
1C00
1C00
1C00
1C00
1C00
1C00
1C00
1C00
1C00
1C00
1C00
1C00
1E00
1E00
1E00
FFC0
ENDCHAR
STARTCHAR U+006A
ENCODING 106
SWIDTH 500 0
DWIDTH 12 0
BBX 12 42 -3 -11
BITMAP
00C0
01E0
01F0
01E0
00C0
0000
0000
0000
0000
0000
00E0
07E0
07E0
00E0
00E0
00E0
00E0
00E0
00E0
00E0
00E0
00E0
00E0
00E0
00E0
00E0
00E0
00E0
00E0
00E0
00E0
00E0
00E0
00E0
00E0
00E0
00C0
01C0
6180
FB80
FE00
7C00
ENDCHAR
STARTCHAR U+006B
ENCODING 107
SWIDTH 500 0
DWIDTH 24 0
BBX 22 32 2 0
BITMAP
3C0000
FC0000
1C0000
1C0000
1C0000
1C0000
1C0000
1C0000
1C0000
1C0000
1C0000
1C0FF8
1C0FF8
1C0180
1C0300
1C0400
1C0800
1C1000
1C3000
1C7800
1CF800
1F3C00
1E1C00
1C1E00
1C0E00
1C0F00
1C0780
1C0380
1C03C0
1C01C0
1E01E0
FFC0FC
ENDCHAR
STARTCHAR U+006C
ENCODING 108
SWIDTH 500 0
DWIDTH 13 0
BBX 11 32 1 0
BITMAP
1E00
7E00
0E00
0E00
0E00
0E00
0E00
0E00
0E00
0E00
0E00
0E00
0E00
0E00
0E00
0E00
0E00
0E00
0E00
0E00
0E00
0E00
0E00
0E00
0E00
0E00
0E00
0E00
0E00
0E00
0F00
FFE0
ENDCHAR
STARTCHAR U+006D
ENCODING 109
SWIDTH 500 0
DWIDTH 39 0
BBX 36 21 2 0
BITMAP
1C1F80FC00
FC7FC3FE00
FCC1E60F00
1F81E80700
1E00F00700
1C00E00700
1C00E00700
1C00E00780
1C00E00780
1C00E00780
1C00E00780
1C00E00780
1C00E00780
1C00E00780
1C00E00780
1C00E00780
1C00E00780
1C00E00780
1C00E00780
1E00F00780
FF87FE3FF0
ENDCHAR
STARTCHAR U+006E
ENCODING 110
SWIDTH 500 0
DWIDTH 26 0
BBX 23 21 2 0
BITMAP
1C1F80
FC7FC0
FCC1E0
1D80E0
1E00F0
1C0070
1C0070
1C0070
1C0070
1C0070
1C0070
1C0070
1C0070
1C0070
1C0070
1C0070
1C0070
1C0070
1C0070
1E00F0
FF87FE
ENDCHAR
STARTCHAR U+006F
ENCODING 111
SWIDTH 500 0
DWIDTH 24 0
BBX 20 22 2 -1
BITMAP
03FC00
0F0F00
1C0380
3801C0
7801C0
7000E0
7000E0
F000F0
F000F0
F000F0
E000F0
F000F0
F000F0
F000F0
F000E0
7000E0
7001E0
3801C0
1C0380
0E0700
07FE00
00E000
ENDCHAR
STARTCHAR U+0070
ENCODING 112
SWIDTH 500 0
DWIDTH 26 0
BBX 22 32 2 -11
BITMAP
1C3F80
FCFFC0
FD81E0
1E00F0
1C0070
1C0078
1C0038
1C0038
1C0038
1C003C
1C003C
1C003C
1C0038
1C0038
1C0038
1C0078
1C0070
1E00F0
1F01E0
1DC7C0
1C7F80
1C0C00
1C0000
1C0000
1C0000
1C0000
1C0000
1C0000
1C0000
1C0000
FFC000
1C0000
ENDCHAR
STARTCHAR U+0071
ENCODING 113
SWIDTH 500 0
DWIDTH 24 0
BBX 22 32 2 -11
BITMAP
03F040
0FFC60
1E06E0
3C01C0
7801C0
7001C0
7001C0
F001C0
F001C0
E001C0
E001C0
E001C0
F001C0
F001C0
F001C0
7001C0
7801C0
3801C0
3C03C0
1F1DC0
07F9C0
01C1C0
0001C0
0001C0
0001C0
0001C0
0001C0
0001C0
0001C0
0001E0
001FFC
0000C0
ENDCHAR
STARTCHAR U+0072
ENCODING 114
SWIDTH 500 0
DWIDTH 18 0
BBX 16 21 2 0
BITMAP
1C3E
FC7F
FCCF
1D86
1D00
1F00
1E00
1E00
1C00
1C00
1C00
1C00
1C00
1C00
1C00
1C00
1C00
1C00
1C00
1E00
FFC0
ENDCHAR
STARTCHAR U+0073
ENCODING 115
SWIDTH 500 0
DWIDTH 19 0
BBX 15 22 2 -1
BITMAP
0FF0
3C3C
300C
700C
600C
E00C
7000
7800
7E00
3FC0
1FF0
03F8
00FC
003E
001E
C00E
C00E
C00E
E01C
E038
7FF0
0780
ENDCHAR
STARTCHAR U+0074
ENCODING 116
SWIDTH 500 0
DWIDTH 15 0
BBX 13 28 1 -1
BITMAP
0600
0600
0E00
0E00
0E00
0E00
7FF0
FFF8
0E00
0E00
0E00
0E00
0E00
0E00
0E00
0E00
0E00
0E00
0E00
0E00
0E00
0E00
0E00
0E00
0E00
0F18
07F0
01C0
ENDCHAR
STARTCHAR U+0075
ENCODING 117
SWIDTH 500 0
DWIDTH 26 0
BBX 23 22 1 -1
BITMAP
3E00F0
FE03F0
0E0070
0E0070
0E0070
0E0070
0E0070
0E0070
0E0070
0E0070
0E0070
0E0070
0E0070
0E0070
0E0070
0E0070
0E0070
0F01F0
0F0370
07FE78
03FC7E
00E000
ENDCHAR
STARTCHAR U+0076
ENCODING 118
SWIDTH 500 0
DWIDTH 22 0
BBX 21 21 0 0
BITMAP
FF83F8
FF83F8
1C0060
1E0040
1E0040
0E00C0
0F0080
070180
078100
078100
038300
03C200
01C200
01C600
01E400
00E400
00F800
007800
007800
007000
003000
ENDCHAR
STARTCHAR U+0077
ENCODING 119
SWIDTH 500 0
DWIDTH 34 0
BBX 33 21 0 0
BITMAP
FF87FC3F80
FF83FC3F80
1C00E00400
1C00E00C00
1E01F00C00
0E01700800
0E01300800
0F03381800
0702381000
07021C1000
07861C3000
03841C2000
03840E2000
01C80E6000
01C80E4000
01D8074000
00F007C000
00F0078000
00F0038000
0060038000
0060030000
ENDCHAR
STARTCHAR U+0078
ENCODING 120
SWIDTH 500 0
DWIDTH 23 0
BBX 22 21 0 0
BITMAP
7FC3F8
7FC3F8
0F0040
0700C0
078180
03C100
01C200
01E600
00F400
007800
007800
007C00
005E00
009E00
018F00
030780
020780
0603C0
0C01E0
1C01F0
FF0FFC
ENDCHAR
STARTCHAR U+0079
ENCODING 121
SWIDTH 500 0
DWIDTH 22 0
BBX 22 32 0 -11
BITMAP
FF83FC
FF83FC
1C0020
1E0060
1E0040
0E0040
0F00C0
070080
070180
078100
038100
03C300
01C200
01C200
01E600
00E400
00E400
007800
007800
007800
003000
003000
003000
002000
002000
004000
004000
008000
E18000
FB0000
FE0000
780000
ENDCHAR
STARTCHAR U+007A
ENCODING 122
SWIDTH 500 0
DWIDTH 20 0
BBX 17 21 2 0
BITMAP
FFFF00
FFFF00
C00E00
C01E00
C03C00
C03800
007800
00F000
00E000
01C000
03C000
038000
070000
0F0000
1E0100
1C0180
3C0180
780300
700300
F00300
FFFF00
ENDCHAR
STARTCHAR U+007B
ENCODING 123
SWIDTH 500 0
DWIDTH 15 0
BBX 12 38 2 -7
BITMAP
03F0
0F80
0E00
1C00
1C00
1C00
1C00
1C00
1C00
0C00
0E00
0E00
0600
0600
0600
0600
0C00
1C00
F000
F000
1C00
0C00
0600
0600
0600
0600
0E00
0C00
0C00
1C00
1C00
1C00
1C00
1C00
1C00
0E00
07C0
01F0
ENDCHAR
STARTCHAR U+007C
ENCODING 124
SWIDTH 500 0
DWIDTH 13 0
BBX 2 44 5 -11
BITMAP
40
C0
C0
C0
C0
C0
C0
C0
C0
C0
C0
C0
C0
C0
C0
C0
C0
C0
C0
C0
C0
C0
C0
C0
C0
C0
C0
C0
C0
C0
C0
C0
C0
C0
C0
C0
C0
C0
C0
C0
C0
C0
C0
C0
ENDCHAR
STARTCHAR U+007D
ENCODING 125
SWIDTH 500 0
DWIDTH 15 0
BBX 12 38 1 -7
BITMAP
FC00
1F00
0700
0380
0380
0380
0380
0380
0380
0300
0700
0700
0600
0600
0600
0600
0300
0380
00F0
00F0
0380
0700
0600
0600
0600
0600
0700
0700
0300
0380
0380
0380
0380
0380
0380
0700
3E00
F800
ENDCHAR
STARTCHAR U+007E
ENCODING 126
SWIDTH 500 0
DWIDTH 23 0
BBX 19 6 2 12
BITMAP
1F0020
3F8060
60C060
6070C0
C03FC0
400F00
ENDCHAR
STARTCHAR U+3002
ENCODING 12290
SWIDTH 500 0
DWIDTH 40 0
BBX 11 11 2 -3
BITMAP
1F00
3380
40C0
C040
8060
8020
8060
8060
40C0
6180
1F00
ENDCHAR
STARTCHAR U+4E1A
ENCODING 19994
SWIDTH 500 0
DWIDTH 40 0
BBX 37 34 2 -1
BITMAP
000F038000
000E038000
000E030000
000E030000
000E030000
000E030000
000E030000
000E030000
000E030100
100E0301C0
180E0303E0
080E030380
0C0E030380
060E030700
060E030700
070E030E00
038E030E00
038E030C00
018E031800
01CE031800
01CE033000
01CE032000
00CE036000
00CE03C000
00CE038000
00CE038000
000E030000
000E030000
000E030000
000E030000
000E030040
000E0300E0
000E0781F0
FFFFFFFFF8
ENDCHAR
STARTCHAR U+4F5C
ENCODING 20316
SWIDTH 500 0
DWIDTH 40 0
BBX 36 36 2 -3
BITMAP
00701C0000
00783C0000
00E0380000
00E0780000
00E0700000
01C0700040
01C0E000E0
0380E601F0
0381FFFFF0
0701870000
0703870000
0F83070000
0F06070000
1F04070000
1F0C070180
37180703C0
273007FFE0
4720070000
8700070000
0700070000
0700070000
0700070000
0700070080
07000701C0
070007FFE0
070007FFE0
0700070000
0700070000
0700070000
0700070000
0700070000
0700070000
0700070000
0700070000
0700070000
0700060000
ENDCHAR
STARTCHAR U+4F9D
ENCODING 20381
SWIDTH 500 0
DWIDTH 40 0
BBX 38 37 1 -3
BITMAP
0000100000
00700C0000
0078070000
00F0038000
00E0038000
00E0018000
01C0018060
01C0018070
01BFFFFFF8
0380078000
03000F8000
07800E8000
07801E8000
0F001C8020
0F00388070
1F007080F8
1B006041E0
3300E043C0
2301C04700
4303C06E00
8307C07800
030CC03000
0318C03000
0320C03000
0300C01800
0300C01C00
0300C00C00
0300C00E00
0300C00700
0300C00780
0300C0C3C0
0300C703E0
0300FC01F0
0301F800FC
0303E0007C
0301C00030
0300000000
ENDCHAR
STARTCHAR U+5143
ENCODING 20803
SWIDTH 500 0
DWIDTH 40 0
BBX 37 35 2 -3
BITMAP
0000000C00
0000001E00
0FFFFFFF00
0000000000
0000000000
0000000000
0000000000
0000000000
0000000000
0000000080
00000001C0
00000001E0
FFFFFFFFF0
001C070000
001C070000
001C070000
001C070000
001C070000
001C070000
0018070000
0038070000
0038070000
0038070000
0030070000
0070070000
0070070010
00E0070010
00C0070030
01C0070030
0380070030
0700070030
0E0007FFF0
180007FFF8
600003FFF0
8000000000
ENDCHAR
STARTCHAR U+5148
ENCODING 20808
SWIDTH 500 0
DWIDTH 40 0
BBX 36 36 2 -3
BITMAP
0000700000
00E0600000
00F0600000
00E0600000
01C0600000
01C0600C00
0180600E00
03FFFFFF00
0380F00000
0700600000
0600600000
0C00600000
0C00600000
1800600000
3000600080
00006001C0
0000F003E0
FFFFFFFFF0
000E060000
000E060000
001C060000
001C060000
001C060000
001C060000
0018060000
0038060000
0038060000
0070060020
0070060020
00E0060020
01C0060020
0380060020
0700070070
0C0007FFF0
300007FFF0
C000000000
ENDCHAR
STARTCHAR U+5165
ENCODING 20837
SWIDTH 500 0
DWIDTH 40 0
BBX 37 36 2 -3
BITMAP
001C000000
003E000000
000F800000
0001C00000
0000C00000
0000400000
0000600000
0000600000
0000E00000
0000E00000
0000F00000
0000F00000
0001F00000
0001F80000
0001D80000
0003980000
00039C0000
00070C0000
00070E0000
0007060000
000E070000
000C070000
001C038000
003803C000
003001C000
007000E000
00E000F000
00C0007800
0180003C00
0300003E00
0600001F00
0C00000FC0
18000007E0
30000003F8
60000001E0
8000000040
ENDCHAR
STARTCHAR U+516D
ENCODING 20845
SWIDTH 500 0
DWIDTH 40 0
BBX 36 35 2 -2
BITMAP
0006000000
0003800000
0001C00000
0000F00000
0000700000
0000780000
0000380000
0000380080
00001801C0
00000003E0
FFFFFFFFF0
0000000000
0000000000
0000000000
0000000000
0010000000
001E010000
001C008000
003C00E000
0038007000
0078003800
0070001C00
00E0001C00
00E0000E00
01C0000700
0180000780
0380000380
07000001C0
06000001C0
0C000000E0
18000000E0
1000000070
2000000070
4000000070
8000000020
ENDCHAR
STARTCHAR U+5199
ENCODING 20889
SWIDTH 500 0
DWIDTH 40 0
BBX 36 35 2 -3
BITMAP
0800000040
08000000E0
0FFFFFFFF0
08000001E0
18200001C0
3838000180
7870000300
F070000200
6070001800
0070001C00
007FFFFE00
0070000000
00E0000000
00E0000000
00E0000000
00C0000000
01C0001C00
03FFFFFE00
01C0001C00
0000001C00
0000001C00
0000041C00
00000E1C00
00000F1800
FFFFFF9800
0000003800
0000003800
0000003800
0000003800
0000007000
0000007000
000000F000
00003FE000
000007C000
0000078000
ENDCHAR
STARTCHAR U+5230
ENCODING 21040
SWIDTH 500 0
DWIDTH 40 0
BBX 35 36 2 -3
BITMAP
00000000E0
00003000E0
00003800C0
FFFFFC40C0
00C000F0C0
00F000E0C0
00E000E0C0
01C200E0C0
038300E0C0
0701C0E0C0
0600E0E0C0
0C0070E0C0
180070E0C0
7FFFB8E0C0
3FF038E0C0
3C0018E0C0
007800E0C0
007000E0C0
007000E0C0
007040E0C0
007070E0C0
7FFFF8E0C0
007000E0C0
007000E0C0
007000E0C0
007000E0C0
007000E0C0
00700040C0
00701C00C0
0073F000C0
00FF0000C0
3FF80000C0
FFC00000C0
FC00000FC0
60000003C0
0000000380
ENDCHAR
STARTCHAR U+5468
ENCODING 21608
SWIDTH 500 0
DWIDTH 40 0
BBX 34 35 2 -3
BITMAP
0000000300
0F00000780
0FFFFFFFC0
0E00000380
0E00F00380
0E00E00380
0E00E00380
0E00E1C380
0E3FFFE380
0E00E00380
0E00E00380
0E00E00380
0E00E04380
0E00E0E380
0E7FFFF380
0E00000380
0E00000380
0E00000380
0E18018380
0E1FFFC380
0E1C018380
0C18018380
0C18018380
0C18018380
0C18018380
1C18018380
181C038380
181FFF8380
1818018380
3018018380
3018000380
6000008380
4000003F00
C000000F00
8000000E00
ENDCHAR
STARTCHAR U+5929
ENCODING 22825
SWIDTH 500 0
DWIDTH 40 0
BBX 36 35 2 -3
BITMAP
0000000600
0000000700
1FFFFFFF80
0000E00000
0000E00000
0000E00000
0000E00000
0000E00000
0000E00000
0000E00000
0000E00000
0000E00080
0000E001C0
0000E003E0
7FFFFFFFF0
0001E00000
0001D00000
0001D00000
0001D00000
0001880000
0003880000
00038C0000
0007060000
0007060000
000E030000
000C038000
001C01C000
003800E000
0070007800
00E0003C00
0180001F00
0700000FC0
1C000007F0
30000001E0
C000000040
ENDCHAR
STARTCHAR U+5B66
ENCODING 23398
SWIDTH 500 0
DWIDTH 40 0
BBX 36 36 2 -3
BITMAP
0201801C00
0180C01E00
01C0E03C00
00E0703800
0070707000
0070306000
087030C040
08000180E0
1FFFFFFFF0
18000001F0
18000001C0
3800000380
7000006300
F00000F600
E1FFFFF800
000001E000
0000038000
0000070000
00001C0000
0000780000
0000700000
00007000C0
00007001E0
FFFFFFFFF0
0000700000
0000700000
0000700000
0000700000
0000700000
0000700000
0000700000
0000700000
0000600000
000FE00000
0003E00000
0001C00000
ENDCHAR
STARTCHAR U+5B9D
ENCODING 23453
SWIDTH 500 0
DWIDTH 40 0
BBX 36 34 2 -1
BITMAP
0000E00000
0000700000
0000780000
0000380000
0800380040
08001000E0
0FFFFFFFF0
18000001E0
38000001C0
7800000180
F000000300
F000000400
4000000E00
0FFFFFFF00
0000F00000
0000600000
0000600000
0000600000
0000600000
0000600000
0000601000
0000603C00
07FFFFFE00
0000F00000
0000600000
0000618000
000060E000
0000607000
0000603800
0000601C00
0000601800
00006000C0
00006001E0
FFFFFFFFF0
ENDCHAR
STARTCHAR U+5C3D
ENCODING 23613
SWIDTH 500 0
DWIDTH 40 0
BBX 36 35 2 -3
BITMAP
0180000600
01FFFFFF00
01C0000700
0180000600
0180000600
0180000600
0180000600
0180000600
0180000600
0180000600
01FFFFFE00
01FFFFFE00
0180040600
0180020600
0380020000
0380010000
0380018000
030E00C000
0307C0C000
0701F06000
0600787800
06003C3C00
0C001C1E00
0C00080F80
18000007C0
18000003F0
30000000F0
603E000060
C007E00000
8001FC0000
00007F0000
00001F8000
000007C000
000001E000
000000C000
ENDCHAR
STARTCHAR U+5C71
ENCODING 23665
SWIDTH 500 0
DWIDTH 40 0
BBX 33 35 3 -3
BITMAP
0001E00000
0001C00000
0001C00000
0001C00000
0001C00000
0001C00000
0001C00000
0001C00000
3801C00380
7001C00300
3001C00300
3001C00300
3001C00300
3001C00300
3001C00300
3001C00300
3001C00300
3001C00300
3001C00300
3001C00300
3001C00300
3001C00300
3001C00300
3001C00300
3001C00300
3001C00300
3001C00300
3001C00300
3001C00300
7001C00300
FFFFFFFF00
7000000300
0000000300
0000000300
0000000300
ENDCHAR
STARTCHAR U+6539
ENCODING 25913
SWIDTH 500 0
DWIDTH 40 0
BBX 37 36 2 -3
BITMAP
0000078000
0000070000
0008070000
001C0F0000
FFFE0E0000
001C0E0000
001C0E0000
001C1C0040
001C1C00F0
001C1FFFF8
001C380780
001C300700
001C700700
601C700700
7FFCF80700
701CC80E00
701D880E00
70010C0E00
70030C1C00
7006041C00
7004063800
7000063800
7000037000
700003F000
700001E000
700C01C000
703801E000
71E003F000
7780067800
7F000C3C00
FC00381E00
7000700F80
6001C007E0
00030003F0
000C0000E0
0030000040
ENDCHAR
STARTCHAR U+653E
ENCODING 25918
SWIDTH 500 0
DWIDTH 40 0
BBX 36 36 2 -3
BITMAP
030003C000
0180038000
01C0038000
00E0038000
0070070000
0070070000
0061870040
0003C600E0
FFFFEFFFF0
06000FFFF0
06000C0380
06001C0380
06001C0380
06021C0380
0607320700
07FFA20700
0607620700
0607430600
0E06010E00
0E06010E00
0E06019C00
0C06019C00
0C0600D800
0C0600F800
0C06007000
1C0E007000
180E00F000
180E01F800
180E019C00
300E031E00
300C060F00
201C0C0780
601C3803E0
41F86001F0
8078C000F0
8063000060
ENDCHAR
STARTCHAR U+65E5
ENCODING 26085
SWIDTH 500 0
DWIDTH 40 0
BBX 25 34 8 -3
BITMAP
80000300
FFFFFF80
FFFFFF80
E0000700
E0000700
E0000700
E0000700
E0000700
E0000700
E0000700
E0000700
E0000700
E0000700
E0000700
E0000700
FFFFFF00
E0000700
E0000700
E0000700
E0000700
E0000700
E0000700
E0000700
E0000700
E0000700
E0000700
E0000700
E0000700
E0000700
FFFFFF00
E0000700
E0000700
E0000700
C0000000
ENDCHAR
STARTCHAR U+65E6
ENCODING 26086
SWIDTH 500 0
DWIDTH 40 0
BBX 36 32 2 0
BITMAP
0000001800
03C0003C00
03FFFFFE00
0380001800
0380001800
0380001800
0380001800
0380001800
0380001800
0380001800
0380001800
0380001800
03FFFFF800
0380003800
0380001800
0380001800
0380001800
0380001800
0380001800
0380001800
0380001800
0380001800
0380003800
03FFFFF800
0380001800
0380001800
0380001800
0000000000
0000000000
00000000C0
00000001E0
FFFFFFFFF0
ENDCHAR
STARTCHAR U+6709
ENCODING 26377
SWIDTH 500 0
DWIDTH 40 0
BBX 36 36 2 -3
BITMAP
0001E00000
0003C00000
0003800000
0007800000
00070000C0
000F0001E0
FFFFFFFFF0
000E000000
001C000000
0018000000
0038000000
0070000800
0070001C00
00FFFFFE00
01F0001C00
03F0001C00
0370001C00
0670001C00
0C70001C00
107FFFFC00
6070001C00
C070001C00
0070001C00
0070001C00
0070001C00
007FFFFC00
0070001C00
0070001C00
0070001C00
0070001C00
0070001C00
0070001C00
0070001C00
007001FC00
0070007800
0060003000
ENDCHAR
STARTCHAR U+6CB3
ENCODING 27827
SWIDTH 500 0
DWIDTH 40 0
BBX 36 36 2 -3
BITMAP
1000000000
1E000000C0
07000000E0
07BFFFFFF0
0380000300
0180000300
0000000300
0020000300
0020000300
E040000300
7846038300
3C47FFC300
1C86038300
0C86038300
0186038300
0106038300
0306038300
0306038300
0606038300
0606038300
0606038300
0C07FF8300
0C07038300
1C06038300
1806030300
F806000300
3806000300
1800000300
1800000300
1C00000300
1C00000300
1C00000300
1C00000700
1C00007F00
1C00001F00
1800000C00
ENDCHAR
STARTCHAR U+6D41
ENCODING 27969
SWIDTH 500 0
DWIDTH 40 0
BBX 37 37 2 -3
BITMAP
0000180000
18000E0000
0E00070000
0780070000
0380030040
01C00300E0
019FFFFFF0
00001E0000
00001E0000
00203E0000
E020781000
7840F00C00
3C41C00600
1C43800780
0C8E0FFF80
008FFF81C0
018FE001C0
01080000C0
0300000000
0303870E00
0603060C00
0603060C00
0E03060C00
0C03060C00
1C03060C00
1C03060C00
F803060C00
3807060C00
1807060C00
1C06060C10
1C06060C10
1C0C060C10
1C0C060C30
1C18060C30
1C30060FF8
1C60060FF0
1C80000000
ENDCHAR
STARTCHAR U+6D77
ENCODING 28023
SWIDTH 500 0
DWIDTH 40 0
BBX 37 36 2 -3
BITMAP
1C00E00000
0E01E00000
0701C00000
0381C000C0
03838000E0
0003FFFFF0
0007000000
0006000000
0046000000
E04F000300
788BFFFF80
389B800780
1CB3800300
1DA38C0300
0103070300
0303038700
0303018700
0203018720
0607000770
06FFFFFFF8
0C07000700
0C06100700
1C060C0700
1806060700
380E070700
F80E030600
380E030600
180C0006C0
181E000FE0
1C1FFFFFF0
1C0C000E00
1C00000C00
1C00001C00
1C0003FC00
1C0000F800
1800007000
ENDCHAR
STARTCHAR U+7434
ENCODING 29748
SWIDTH 500 0
DWIDTH 40 0
BBX 37 36 2 -3
BITMAP
0002000080
00070001C0
7FFFBFFFE0
01C000E000
00C0006000
00C0006000
00C6006180
01EF00F3C0
3FFF8FFFC0
00C0006000
00C0006000
00C2006040
00C38060E0
FFFFDFFFF0
0000F80000
0001F80000
0003D80000
00078E0000
001F038000
003C01F800
00F0C07F80
03C0701FF8
0E007007F0
30003800E0
8000100000
0000003800
07FFFFFC00
0000007000
000000E000
000001C000
0000038000
0000078000
0000070000
00000E0000
00001C0000
0000380000
ENDCHAR
STARTCHAR U+767D
ENCODING 30333
SWIDTH 500 0
DWIDTH 40 0
BBX 30 36 6 -3
BITMAP
000F0000
001E0000
001C0000
00180000
00380000
00300000
C0200070
FFFFFFF8
E000007C
E0000070
E0000070
E0000070
E0000070
E0000070
E0000070
E0000070
E0000070
E0000070
E0000070
FFFFFFF0
E0000070
E0000070
E0000070
E0000070
E0000070
E0000070
E0000070
E0000070
E0000070
E0000070
E0000070
FFFFFFF0
FFFFFFF0
E0000070
E0000070
C0000060
ENDCHAR
STARTCHAR U+8BFE
ENCODING 35838
SWIDTH 500 0
DWIDTH 40 0
BBX 37 36 2 -3
BITMAP
1800000100
0E07000380
0707FFFFC0
0387030380
03C7030380
01C7030380
01C7030380
0007030380
0007FFFF80
0307038380
FF87030380
0787030380
0707030380
0307030380
0307078380
0307FFFF80
0307030300
0302030000
03000300C0
03000301E0
031FFFFFF0
03000F8000
03000FC000
03001F4000
03003B6000
0308333000
0310731800
0360E31C00
03E1C30F00
07C3830780
0F870303E0
070C0301F8
06180300E0
0060030020
0000030000
0000030000
ENDCHAR
STARTCHAR U+8D1D
ENCODING 36125
SWIDTH 500 0
DWIDTH 40 0
BBX 36 35 2 -3
BITMAP
0600000C00
07FFFFFF00
0700000E00
0700000C00
0700000C00
0700000C00
0700600C00
0700780C00
0700700C00
0700700C00
0700700C00
0700600C00
0700600C00
0700600C00
0700E00C00
0700E00C00
0700E00C00
0700E00C00
0700E00C00
0700E00C00
0700C00C00
0701C00C00
0701C00C00
0701C00C00
00038E0000
000383C000
000701F000
000E007C00
001C003E00
0038000F80
00F00007C0
01C00003E0
07000001E0
3C000000F0
E000000060
ENDCHAR
STARTCHAR U+8FD8
ENCODING 36824
SWIDTH 500 0
DWIDTH 40 0
BBX 36 36 2 -3
BITMAP
2000000000
10000000C0
1C000001E0
0E1FFFFFF0
070000E000
070001C000
038001C000
0380038000
0180070000
0000070000
00000E0000
02001F8000
07001F2000
FF803F1800
0700770E00
0700E70780
0701C703C0
07030701E0
07060700E0
070C0700F0
0730070070
0740070020
0700070000
0700070000
0700070000
0700070000
0700070000
0700070000
0780070000
1CC0060000
3870000000
703C000000
F01FFE07F0
E007FFFFE0
C000FFFFE0
4000000000
ENDCHAR
STARTCHAR U+94A2
ENCODING 38050
SWIDTH 500 0
DWIDTH 40 0
BBX 37 36 1 -3
BITMAP
0700000000
0F00C00060
0E00FFFFF8
0E08E00070
0C1CE00070
1FFEE00070
1C00E00F70
1800E00E70
3800E40C70
3000E61C70
2010E21C70
6038E11C70
5FFCE09870
8380E0D870
0380E07870
0380E07070
0380E03070
0388E07870
039EE07870
FFFEE07C70
0380E0DC70
0380E0CC70
0380E18E70
0380E18E70
0380E30670
0380E20670
0382E40670
038CEC0270
0398E80070
03B0E00070
03E0E00070
03C0E00070
0780E00070
0300E007E0
0100E001E0
0000C001C0
ENDCHAR
STARTCHAR U+9EC4
ENCODING 40644
SWIDTH 500 0
DWIDTH 40 0
BBX 36 36 2 -3
BITMAP
001E03C000
001C038000
001C038300
001C038780
1FFFFFFFC0
001C038000
001C038000
001C038000
001C0380C0
001C0381E0
FFFFFFFFF0
0000E00000
0000600000
0000600800
0300E01E00
03FFFFFF00
0300600E00
0300600C00
0300600C00
0300600C00
03FFFFFC00
03FFFFFC00
0300600C00
0300600C00
0300600C00
0300600C00
0380F01C00
03FFFFFC00
0300000C00
0308000000
001C03C000
007F00FC00
01F8001F80
07C00007C0
3E000001E0
E0000000E0
ENDCHAR
STARTCHAR U+FF0C
ENCODING 65292
SWIDTH 500 0
DWIDTH 40 0
BBX 5 12 4 -7
BITMAP
60
F0
F8
F8
F8
38
18
10
30
20
60
C0
ENDCHAR
ENDFONT
