STARTFONT 2.1
FONT serif-r-32
SIZE 32 75 75
FONTBOUNDINGBOX 64 47 0 -10
STARTPROPERTIES 3
PIXEL_SIZE 32
FONT_ASCENT 37
FONT_DESCENT 10
ENDPROPERTIES
CHARS 127
STARTCHAR U+0020
ENCODING 32
SWIDTH 500 0
DWIDTH 8 0
BBX 0 0 0 0
BITMAP
ENDCHAR
STARTCHAR U+0021
ENCODING 33
SWIDTH 500 0
DWIDTH 10 0
BBX 4 24 3 0
BITMAP
60
F0
F0
F0
E0
60
60
60
60
60
60
60
60
60
60
40
40
00
00
00
00
E0
F0
F0
ENDCHAR
STARTCHAR U+0022
ENCODING 34
SWIDTH 500 0
DWIDTH 12 0
BBX 8 10 2 16
BITMAP
C3
E7
E7
C3
C3
C3
C3
C3
C3
43
ENDCHAR
STARTCHAR U+0023
ENCODING 35
SWIDTH 500 0
DWIDTH 18 0
BBX 17 23 1 0
BITMAP
000400
020400
060400
040C00
040800
040800
0C0C00
7FFF80
7FFF00
080800
081800
081000
081000
081000
FFFE00
FFFE00
183000
102000
102000
102000
102000
102000
202000
ENDCHAR
STARTCHAR U+0024
ENCODING 36
SWIDTH 500 0
DWIDTH 18 0
BBX 14 30 2 -4
BITMAP
0100
0100
0100
07C0
1B30
3138
6118
611C
6118
6100
6100
7100
3F00
1F00
0FC0
03F0
03F8
0338
031C
031C
030C
C30C
E318
E318
6330
3FE0
0300
0300
0300
0300
ENDCHAR
STARTCHAR U+0025
ENCODING 37
SWIDTH 500 0
DWIDTH 30 0
BBX 27 24 1 0
BITMAP
0C000000
33000400
21800800
61800800
60C01000
60C02000
E0C06000
E0C04000
E0C08000
60C18000
60C10700
61821880
218610C0
33043060
0C083060
00183060
00103060
00203060
00403060
00403060
00803060
01003040
030018C0
02000F80
ENDCHAR
STARTCHAR U+0026
ENCODING 38
SWIDTH 500 0
DWIDTH 25 0
BBX 23 24 1 0
BITMAP
01E000
063000
0C1800
180C00
180C00
180C00
181800
1C1800
0E3000
0640FC
078030
078030
19C030
30E020
707020
603860
601C40
E01E80
E00F80
E00780
7003C0
7805E0
3E18F0
0FF07E
ENDCHAR
STARTCHAR U+0027
ENCODING 39
SWIDTH 500 0
DWIDTH 6 0
BBX 3 10 2 16
BITMAP
C0
E0
E0
C0
C0
C0
C0
C0
C0
40
ENDCHAR
STARTCHAR U+0028
ENCODING 40
SWIDTH 500 0
DWIDTH 12 0
BBX 7 32 3 -6
BITMAP
02
02
04
0C
18
18
30
30
60
60
60
E0
C0
C0
C0
C0
C0
C0
C0
C0
E0
60
60
60
60
30
30
18
08
0C
04
02
ENDCHAR
STARTCHAR U+0029
ENCODING 41
SWIDTH 500 0
DWIDTH 12 0
BBX 8 33 1 -7
BITMAP
80
40
60
30
10
18
08
0C
0C
06
06
06
06
07
07
07
07
07
07
07
06
06
06
06
0C
0C
18
18
30
20
60
40
80
ENDCHAR
STARTCHAR U+002A
ENCODING 42
SWIDTH 500 0
DWIDTH 15 0
BBX 14 13 1 13
BITMAP
0300
0300
0300
0200
C208
F27C
7FF0
0300
0500
0C80
18C0
3860
3060
ENDCHAR
STARTCHAR U+002B
ENCODING 43
SWIDTH 500 0
DWIDTH 19 0
BBX 16 17 1 3
BITMAP
0080
0080
0080
0080
0080
0080
0080
0180
FFFF
0180
0080
0080
0080
0080
0080
0080
0080
ENDCHAR
STARTCHAR U+002C
ENCODING 44
SWIDTH 500 0
DWIDTH 10 0
BBX 4 8 3 -5
BITMAP
70
F0
70
30
30
20
60
80
ENDCHAR
STARTCHAR U+002D
ENCODING 45
SWIDTH 500 0
DWIDTH 11 0
BBX 9 1 1 8
BITMAP
FF80
ENDCHAR
STARTCHAR U+002E
ENCODING 46
SWIDTH 500 0
DWIDTH 10 0
BBX 4 3 3 0
BITMAP
70
F0
70
ENDCHAR
STARTCHAR U+002F
ENCODING 47
SWIDTH 500 0
DWIDTH 11 0
BBX 10 30 1 -5
BITMAP
0040
00C0
0080
0080
0180
0100
0100
0300
0300
0200
0600
0600
0400
0400
0C00
0800
0800
1800
1000
1000
3000
3000
2000
6000
6000
4000
4000
C000
8000
8000
ENDCHAR
STARTCHAR U+0030
ENCODING 48
SWIDTH 500 0
DWIDTH 18 0
BBX 14 24 2 0
BITMAP
0780
1CE0
3070
7030
6018
E018
E01C
C01C
C01C
C00C
C00C
C00C
C00C
C00C
C00C
C01C
C01C
E01C
E01C
6018
6038
3030
1860
0FC0
ENDCHAR
STARTCHAR U+0031
ENCODING 49
SWIDTH 500 0
DWIDTH 15 0
BBX 12 23 2 0
BITMAP
1F00
FF00
0700
0700
0600
0600
0600
0600
0600
0600
0600
0600
0600
0600
0600
0600
0600
0600
0600
0700
0700
0700
FFF0
ENDCHAR
STARTCHAR U+0032
ENCODING 50
SWIDTH 500 0
DWIDTH 18 0
BBX 14 24 2 0
BITMAP
0780
30E0
6070
6038
E038
C018
0018
0018
0038
0038
0070
0060
00C0
01C0
0180
0300
0600
0C00
1800
3000
2000
4000
FFFC
FFFC
ENDCHAR
STARTCHAR U+0033
ENCODING 51
SWIDTH 500 0
DWIDTH 18 0
BBX 14 24 2 0
BITMAP
0F80
30E0
6070
6038
E038
0038
0038
0038
0030
0070
00E0
0F80
01E0
0070
0038
0018
001C
001C
001C
C01C
C018
E038
6070
3FC0
ENDCHAR
STARTCHAR U+0034
ENCODING 52
SWIDTH 500 0
DWIDTH 18 0
BBX 16 25 1 -1
BITMAP
0010
0030
0070
00F0
00B0
0130
0330
0230
0430
0430
0830
1030
1030
2030
4030
4030
FFFF
FFFF
0030
0030
0030
0030
0030
0030
0030
ENDCHAR
STARTCHAR U+0035
ENCODING 53
SWIDTH 500 0
DWIDTH 18 0
BBX 14 23 2 0
BITMAP
3FF8
3FF8
2000
2000
2000
2000
2000
6000
6000
7FC0
70F0
0038
0038
001C
001C
001C
001C
001C
C01C
C018
E038
6070
3FC0
ENDCHAR
STARTCHAR U+0036
ENCODING 54
SWIDTH 500 0
DWIDTH 18 0
BBX 14 24 2 0
BITMAP
0008
0070
0180
0700
0E00
1C00
1800
3000
7000
6000
67E0
EC70
F038
E01C
E01C
E00C
E00C
E00C
E00C
E01C
601C
7018
3830
0FE0
ENDCHAR
STARTCHAR U+0037
ENCODING 55
SWIDTH 500 0
DWIDTH 18 0
BBX 14 23 2 0
BITMAP
FFFC
FFF8
0008
0018
0010
0010
0030
0020
0060
0040
00C0
00C0
0180
0180
0380
0300
0300
0600
0600
0E00
0C00
1C00
1800
ENDCHAR
STARTCHAR U+0038
ENCODING 56
SWIDTH 500 0
DWIDTH 18 0
BBX 14 24 2 0
BITMAP
0780
1CE0
3030
6038
6018
6018
6018
6018
7030
7820
3C40
1F80
07C0
19F0
3078
6038
E01C
C01C
C00C
C00C
C01C
E018
7030
3FE0
ENDCHAR
STARTCHAR U+0039
ENCODING 57
SWIDTH 500 0
DWIDTH 18 0
BBX 14 24 2 0
BITMAP
0780
18E0
3030
6038
E018
E01C
C01C
C01C
C01C
E01C
E01C
701C
783C
1FDC
0718
0038
0038
0070
0060
00C0
0180
0300
0E00
3000
ENDCHAR
STARTCHAR U+003A
ENCODING 58
SWIDTH 500 0
DWIDTH 10 0
BBX 4 16 3 0
BITMAP
70
F0
F0
60
00
00
00
00
00
00
00
00
00
70
F0
70
ENDCHAR
STARTCHAR U+003B
ENCODING 59
SWIDTH 500 0
DWIDTH 10 0
BBX 4 21 3 -5
BITMAP
70
F0
F0
60
00
00
00
00
00
00
00
00
00
70
F0
70
30
30
20
60
80
ENDCHAR
STARTCHAR U+003C
ENCODING 60
SWIDTH 500 0
DWIDTH 19 0
BBX 14 17 2 3
BITMAP
0004
001C
0070
00C0
0380
0E00
3800
6000
C000
6000
1800
0E00
0380
00C0
0030
001C
0004
ENDCHAR
STARTCHAR U+003D
ENCODING 61
SWIDTH 500 0
DWIDTH 19 0
BBX 16 9 1 7
BITMAP
FFFF
7FFF
0000
0000
0000
0000
0000
FFFF
FFFF
ENDCHAR
STARTCHAR U+003E
ENCODING 62
SWIDTH 500 0
DWIDTH 19 0
BBX 14 17 3 3
BITMAP
8000
C000
7000
1C00
0700
0180
00E0
0038
000C
0038
00E0
0180
0700
1C00
7000
C000
8000
ENDCHAR
STARTCHAR U+003F
ENCODING 63
SWIDTH 500 0
DWIDTH 14 0
BBX 9 24 3 0
BITMAP
E000
F800
FE00
1F00
0100
0180
0080
0080
0180
0380
0F00
3E00
7800
6000
6000
6000
2000
0000
0000
0000
0000
7000
F000
7000
ENDCHAR
STARTCHAR U+0040
ENCODING 64
SWIDTH 500 0
DWIDTH 29 0
BBX 27 28 1 -5
BITMAP
000FE000
00701C00
01C00600
03000300
06000180
0C000080
18000040
100FF040
30187060
20306020
60606020
40606020
40C06020
40C06020
C0C0C060
C1C0C040
C1C0C040
C1C0C080
40C1C100
40E6C200
407C7C00
60000000
20000000
30000000
18000000
0C000000
07002000
00FFC000
ENDCHAR
STARTCHAR U+0041
ENCODING 65
SWIDTH 500 0
DWIDTH 23 0
BBX 23 23 0 0
BITMAP
003800
003800
003800
005C00
005C00
004C00
008E00
008E00
008600
010700
010700
010300
020380
020380
03FF80
0401C0
0401C0
0400C0
0800E0
0800E0
080060
180070
FF07FE
ENDCHAR
STARTCHAR U+0042
ENCODING 66
SWIDTH 500 0
DWIDTH 21 0
BBX 18 23 2 0
BITMAP
FFFC00
1C0E00
1C0700
1C0380
1C0380
1C0380
1C0380
1C0300
1C0700
1C0C00
1FF000
1C3C00
1C0700
1C0380
1C01C0
1C01C0
1C01C0
1C01C0
1C01C0
1C0380
1C0380
1C0E00
FFF800
ENDCHAR
STARTCHAR U+0043
ENCODING 67
SWIDTH 500 0
DWIDTH 22 0
BBX 18 25 2 -1
BITMAP
007E00
03C380
0E00C0
1C00C0
3800C0
3000C0
700040
700000
E00000
E00000
E00000
E00000
E00000
E00000
E00000
E00000
E00000
700000
700040
380040
3800C0
1C00C0
0700C0
03FF80
001000
ENDCHAR
STARTCHAR U+0044
ENCODING 68
SWIDTH 500 0
DWIDTH 25 0
BBX 21 23 2 0
BITMAP
FFFC00
1C0700
1C0380
1C01C0
1C00E0
1C0070
1C0070
1C0070
1C0038
1C0038
1C0038
1C0038
1C0038
1C0038
1C0030
1C0070
1C0070
1C0060
1C00E0
1C01C0
1C0380
1C0E00
FFF800
ENDCHAR
STARTCHAR U+0045
ENCODING 69
SWIDTH 500 0
DWIDTH 21 0
BBX 17 23 2 0
BITMAP
FFFF80
1C0180
1C0180
1C0180
1C0180
1C0000
1C0000
1C0800
1C0800
1C0800
1C1800
1FF800
1C0800
1C0800
1C0800
1C0000
1C0000
1C0080
1C0080
1C0080
1C0180
1C0180
FFFF80
ENDCHAR
STARTCHAR U+0046
ENCODING 70
SWIDTH 500 0
DWIDTH 20 0
BBX 17 23 2 0
BITMAP
FFFF80
1C0180
1C0180
1C0180
1C0180
1C0000
1C0000
1C0800
1C0800
1C0800
1C1800
1FF800
1C0800
1C0800
1C0800
1C0000
1C0000
1C0000
1C0000
1C0000
1C0000
1C0000
FFC000
ENDCHAR
STARTCHAR U+0047
ENCODING 71
SWIDTH 500 0
DWIDTH 24 0
BBX 21 25 2 -1
BITMAP
007E00
03C3C0
0E00E0
1C00E0
380060
380060
700060
700000
E00000
E00000
E00000
E00000
E00000
E00FF8
E000E0
E000E0
E000E0
7000E0
7000E0
3800E0
3800E0
1C00E0
0700E0
03FF80
001000
ENDCHAR
STARTCHAR U+0048
ENCODING 72
SWIDTH 500 0
DWIDTH 27 0
BBX 24 23 2 0
BITMAP
FF83FE
1C0070
1C0070
1C0070
1C0070
1C0070
1C0070
1C0070
1C0070
1C0070
1FFFF0
1C0070
1C0070
1C0070
1C0070
1C0070
1C0070
1C0070
1C0070
1C0070
1C0070
1C0070
FF83FF
ENDCHAR
STARTCHAR U+0049
ENCODING 73
SWIDTH 500 0
DWIDTH 13 0
BBX 9 23 2 0
BITMAP
FF80
1C00
1C00
1C00
1C00
1C00
1C00
1C00
1C00
1C00
1C00
1C00
1C00
1C00
1C00
1C00
1C00
1C00
1C00
1C00
1C00
1C00
FF80
ENDCHAR
STARTCHAR U+004A
ENCODING 74
SWIDTH 500 0
DWIDTH 13 0
BBX 11 28 0 -5
BITMAP
3FE0
0300
0300
0300
0300
0300
0300
0300
0300
0300
0300
0300
0300
0300
0300
0300
0300
0300
0300
0300
0300
0700
0700
0700
0600
E400
F800
2000
ENDCHAR
STARTCHAR U+004B
ENCODING 75
SWIDTH 500 0
DWIDTH 23 0
BBX 21 23 2 0
BITMAP
FF87F0
1C0080
1C0100
1C0200
1C0600
1C0C00
1C0800
1C1000
1C2000
1C7000
1CF000
1DB800
1D3800
1E1C00
1C0E00
1C0E00
1C0700
1C0700
1C0380
1C0380
1C01C0
1C01E0
FF87F8
ENDCHAR
STARTCHAR U+004C
ENCODING 76
SWIDTH 500 0
DWIDTH 20 0
BBX 17 23 2 0
BITMAP
FF8000
1C0000
1C0000
1C0000
1C0000
1C0000
1C0000
1C0000
1C0000
1C0000
1C0000
1C0000
1C0000
1C0000
1C0000
1C0000
1C0000
1C0180
1C0180
1C0180
1C0180
1C0380
FFFF80
ENDCHAR
STARTCHAR U+004D
ENCODING 77
SWIDTH 500 0
DWIDTH 31 0
BBX 29 23 1 0
BITMAP
7E0003F0
0E000380
0F000780
0F000780
0B000F80
0B800B80
0B800B80
09C01380
09C01380
08C03380
08E02380
08E02380
08704380
08704380
0830C380
08388380
08388380
081D0380
081D0380
080F0380
080E0380
180E0380
FF041FF8
ENDCHAR
STARTCHAR U+004E
ENCODING 78
SWIDTH 500 0
DWIDTH 25 0
BBX 23 23 1 0
BITMAP
7E01FE
1E0010
1F0010
1F8010
1B8010
19C010
19E010
18E010
187010
187810
183810
181C10
181E10
180E10
180710
180790
180390
1801D0
1800F0
1800F0
180070
180030
FF8030
ENDCHAR
STARTCHAR U+004F
ENCODING 79
SWIDTH 500 0
DWIDTH 25 0
BBX 21 25 2 -1
BITMAP
00F800
078E00
0E0380
1C01C0
3800E0
7000E0
700070
600070
E00070
E00070
E00038
E00038
E00038
E00038
E00038
E00070
E00070
700070
700060
3000E0
3800C0
1C0180
0E0700
03FE00
002000
ENDCHAR
STARTCHAR U+0050
ENCODING 80
SWIDTH 500 0
DWIDTH 21 0
BBX 17 23 2 0
BITMAP
FFFC00
1C0E00
1C0700
1C0380
1C0380
1C0180
1C0180
1C0380
1C0380
1C0380
1C0700
1C0E00
1FF800
1C0000
1C0000
1C0000
1C0000
1C0000
1C0000
1C0000
1C0000
1C0000
FFC000
ENDCHAR
STARTCHAR U+0051
ENCODING 81
SWIDTH 500 0
DWIDTH 25 0
BBX 21 31 2 -7
BITMAP
00F800
078E00
0E0380
1C01C0
3800E0
7000E0
700070
600070
E00070
E00070
E00038
E00038
E00038
E00038
E00038
E00070
E00070
700070
700060
3000E0
3800C0
1C0180
0E0700
03FE00
007000
007000
007000
007000
003800
001C20
000FC0
ENDCHAR
STARTCHAR U+0052
ENCODING 82
SWIDTH 500 0
DWIDTH 23 0
BBX 20 23 2 0
BITMAP
FFFC00
1C0700
1C0380
1C0380
1C0180
1C01C0
1C0180
1C0180
1C0380
1C0700
1C0E00
1FF800
1C1C00
1C0C00
1C0E00
1C0600
1C0700
1C0700
1C0700
1C0380
1C0380
1C0380
FF81F0
ENDCHAR
STARTCHAR U+0053
ENCODING 83
SWIDTH 500 0
DWIDTH 18 0
BBX 15 25 2 -1
BITMAP
07C0
1C78
3018
6018
6008
E008
E000
E000
7000
7800
3E00
1F80
07E0
01F8
007C
001C
001C
000E
800E
C00C
C00C
C01C
C038
7FE0
0200
ENDCHAR
STARTCHAR U+0054
ENCODING 84
SWIDTH 500 0
DWIDTH 21 0
BBX 19 23 1 0
BITMAP
FFFFE0
C0E060
C0E060
C0E020
80E020
80E020
00E000
00E000
00E000
00E000
00E000
00E000
00E000
00E000
00E000
00E000
00E000
00E000
00E000
00E000
00E000
00E000
0FFE00
ENDCHAR
STARTCHAR U+0055
ENCODING 85
SWIDTH 500 0
DWIDTH 26 0
BBX 22 24 2 -1
BITMAP
FF83FC
180020
180020
180020
180020
180020
180020
180020
180020
180020
180020
180020
180020
180020
180020
180020
1C0020
1C0060
1C0040
0E00C0
0F0080
078380
03FE00
002000
ENDCHAR
STARTCHAR U+0056
ENCODING 86
SWIDTH 500 0
DWIDTH 23 0
BBX 22 23 0 0
BITMAP
FF81FC
1C0020
1C0020
0E0060
0E0040
060040
0700C0
070080
030080
038080
038100
018100
01C100
01C200
00C200
00E200
00E400
006400
007400
007800
003800
003800
003000
ENDCHAR
STARTCHAR U+0057
ENCODING 87
SWIDTH 500 0
DWIDTH 34 0
BBX 32 23 1 0
BITMAP
FF0FF87F
3801C008
1C01C008
1C01C018
1C03E010
0C02E010
0E026030
0E027020
0E047020
06043020
07043060
07083840
07083840
03081840
03981CC0
03901C80
01900C80
01D00E80
01E00F00
01E00700
00E00700
00E00700
00C00600
ENDCHAR
STARTCHAR U+0058
ENCODING 88
SWIDTH 500 0
DWIDTH 22 0
BBX 21 23 1 0
BITMAP
FF87F0
1C0080
0E0100
0E0300
070200
070400
038400
01C800
01D000
00F000
00E000
007000
00F800
00B800
011C00
031C00
020E00
060F00
040700
080380
180380
1001C0
FE0FF8
ENDCHAR
STARTCHAR U+0059
ENCODING 89
SWIDTH 500 0
DWIDTH 22 0
BBX 20 23 1 0
BITMAP
FF87F0
1C0080
1C0080
0E0100
0E0100
070200
070200
038400
038400
018800
01C800
01D000
00F000
00F000
006000
006000
006000
006000
006000
006000
006000
00F000
07FE00
ENDCHAR
STARTCHAR U+005A
ENCODING 90
SWIDTH 500 0
DWIDTH 19 0
BBX 17 23 1 0
BITMAP
7FFF80
600700
C00700
C00E00
C01C00
C01C00
003800
007000
007000
00E000
01C000
01C000
038000
078000
070000
0E0000
1E0000
1C0080
380080
780080
700180
E00180
FFFF80
ENDCHAR
STARTCHAR U+005B
ENCODING 91
SWIDTH 500 0
DWIDTH 11 0
BBX 7 31 3 -6
BITMAP
FE
E0
E0
60
60
60
60
60
60
60
60
60
60
60
60
60
60
60
60
60
60
60
60
60
60
60
60
E0
E0
FC
7C
ENDCHAR
STARTCHAR U+005C
ENCODING 92
SWIDTH 500 0
DWIDTH 11 0
BBX 10 31 1 -6
BITMAP
8000
8000
8000
C000
4000
4000
6000
6000
2000
3000
3000
1000
1000
1800
0800
0800
0C00
0400
0400
0600
0600
0200
0300
0300
0100
0100
0180
0080
0080
00C0
0040
ENDCHAR
STARTCHAR U+005D
ENCODING 93
SWIDTH 500 0
DWIDTH 11 0
BBX 7 31 1 -6
BITMAP
FC
0E
0E
0C
0C
0C
0C
0C
0C
0C
0C
0C
0C
0C
0C
0C
0C
0C
0C
0C
0C
0C
0C
0C
0C
0C
0C
0E
0E
7E
7C
ENDCHAR
STARTCHAR U+005E
ENCODING 94
SWIDTH 500 0
DWIDTH 19 0
BBX 12 9 3 8
BITMAP
0600
0700
0D80
1880
10C0
3060
2020
4030
C010
ENDCHAR
STARTCHAR U+005F
ENCODING 95
SWIDTH 500 0
DWIDTH 18 0
BBX 18 1 0 -2
BITMAP
FFFFC0
ENDCHAR
STARTCHAR U+0060
ENCODING 96
SWIDTH 500 0
DWIDTH 14 0
BBX 6 6 3 20
BITMAP
C0
E0
70
30
18
0C
ENDCHAR
STARTCHAR U+0061
ENCODING 97
SWIDTH 500 0
DWIDTH 18 0
BBX 15 17 2 0
BITMAP
0FC0
30E0
6070
E070
E030
0030
0030
01F0
0E30
3030
6030
E030
C030
C070
E0F0
F1B8
7E1E
ENDCHAR
STARTCHAR U+0062
ENCODING 98
SWIDTH 500 0
DWIDTH 20 0
BBX 18 26 1 0
BITMAP
080000
FC0000
1C0000
1C0000
1C0000
1C0000
1C0000
1C0000
1C0000
1C7C00
1DFE00
1E0700
1C0380
1C0380
1C01C0
1C01C0
1C01C0
1C01C0
1C01C0
1C01C0
1C01C0
1C0180
1C0380
1C0700
1F0E00
F9FC00
ENDCHAR
STARTCHAR U+0063
ENCODING 99
SWIDTH 500 0
DWIDTH 17 0
BBX 14 17 2 0
BITMAP
07C0
1C30
3818
701C
601C
E000
E000
C000
C000
C000
C000
E000
E000
7000
780C
3C18
1FE0
ENDCHAR
STARTCHAR U+0064
ENCODING 100
SWIDTH 500 0
DWIDTH 20 0
BBX 17 26 2 0
BITMAP
000400
007C00
000C00
000C00
000C00
000C00
000C00
000C00
000C00
0F8C00
1FEC00
381C00
700C00
E00C00
E00C00
E00C00
C00C00
C00C00
C00C00
C00C00
E00C00
E00C00
600C00
701C00
383C00
1FCF80
ENDCHAR
STARTCHAR U+0065
ENCODING 101
SWIDTH 500 0
DWIDTH 18 0
BBX 14 17 2 0
BITMAP
07C0
1C70
3038
6018
E01C
E01C
C01C
E01C
FFFC
C000
C000
E000
E000
7000
7004
3C18
1FF0
ENDCHAR
STARTCHAR U+0066
ENCODING 102
SWIDTH 500 0
DWIDTH 12 0
BBX 13 26 1 0
BITMAP
00F8
0338
0618
0400
0C00
0C00
1C00
1C00
1C00
3FC0
FFC0
1C00
1C00
1C00
1C00
1C00
1C00
1C00
1C00
1C00
1C00
1C00
1C00
1C00
1C00
FF80
ENDCHAR
STARTCHAR U+0067
ENCODING 103
SWIDTH 500 0
DWIDTH 18 0
BBX 16 25 1 -8
BITMAP
07C1
1C7F
3038
3018
701C
701C
701C
7018
3018
3830
1FE0
1000
2000
2000
7000
3FF8
1FFE
101F
6007
6003
C003
C006
6006
701C
1FF0
ENDCHAR
STARTCHAR U+0068
ENCODING 104
SWIDTH 500 0
DWIDTH 21 0
BBX 19 26 1 0
BITMAP
080000
FC0000
1C0000
1C0000
1C0000
1C0000
1C0000
1C0000
1C0000
1C3C00
1CFE00
1D0700
1E0300
1C0380
1C0380
1C0380
1C0380
1C0380
1C0380
1C0380
1C0380
1C0380
1C0380
1C0380
1C0380
FF1FE0
ENDCHAR
STARTCHAR U+0069
ENCODING 105
SWIDTH 500 0
DWIDTH 11 0
BBX 8 25 1 0
BITMAP
08
1C
3C
18
00
00
00
00
0C
FC
1C
1C
1C
1C
1C
1C
1C
1C
1C
1C
1C
1C
1C
1C
FF
ENDCHAR
STARTCHAR U+006A
ENCODING 106
SWIDTH 500 0
DWIDTH 10 0
BBX 9 34 -2 -9
BITMAP
0100
0780
0780
0300
0000
0000
0000
0000
0180
1F80
0380
0380
0380
0380
0380
0380
0380
0380
0380
0380
0380
0380
0380
0380
0380
0380
0300
0300
0300
0300
0600
E600
FC00
7000
ENDCHAR
STARTCHAR U+006B
ENCODING 107
SWIDTH 500 0
DWIDTH 19 0
BBX 18 26 1 0
BITMAP
0C0000
FC0000
1C0000
1C0000
1C0000
1C0000
1C0000
1C0000
1C0000
1C3F80
1C3F80
1C0C00
1C1000
1C2000
1C4000
1CC000
1DE000
1E7000
1C7000
1C3800
1C3800
1C1C00
1C0C00
1C0E00
1C0700
FF07C0
ENDCHAR
STARTCHAR U+006C
ENCODING 108
SWIDTH 500 0
DWIDTH 11 0
BBX 9 26 1 0
BITMAP
0C00
FC00
1C00
1C00
1C00
1C00
1C00
1C00
1C00
1C00
1C00
1C00
1C00
1C00
1C00
1C00
1C00
1C00
1C00
1C00
1C00
1C00
1C00
1C00
1C00
FF80
ENDCHAR
STARTCHAR U+006D
ENCODING 109
SWIDTH 500 0
DWIDTH 31 0
BBX 29 17 1 0
BITMAP
087C0F00
FCFE3F80
1D0741C0
1E0780C0
1C0700E0
1C0300E0
1C0300E0
1C0300E0
1C0300E0
1C0300E0
1C0300E0
1C0300E0
1C0300E0
1C0300E0
1C0300E0
1C0700E0
FF1FE7F8
ENDCHAR
STARTCHAR U+006E
ENCODING 110
SWIDTH 500 0
DWIDTH 21 0
BBX 19 17 1 0
BITMAP
083C00
FCFE00
1D0700
1E0300
1C0300
1C0380
1C0380
1C0380
1C0380
1C0380
1C0380
1C0380
1C0380
1C0380
1C0380
1C0380
FF1FE0
ENDCHAR
STARTCHAR U+006F
ENCODING 111
SWIDTH 500 0
DWIDTH 19 0
BBX 15 17 2 0
BITMAP
07C0
1830
3018
700C
E00E
E00E
E00E
C006
C006
C006
C006
E00E
E00E
600C
701C
3838
0FE0
ENDCHAR
STARTCHAR U+0070
ENCODING 112
SWIDTH 500 0
DWIDTH 20 0
BBX 18 25 1 -8
BITMAP
087C00
FDFE00
1E0700
1C0380
1C0380
1C0180
1C01C0
1C01C0
1C01C0
1C01C0
1C01C0
1C01C0
1C0380
1C0380
1C0700
1F0E00
1DFC00
1C0000
1C0000
1C0000
1C0000
1C0000
1C0000
1C0000
7F8000
ENDCHAR
STARTCHAR U+0071
ENCODING 113
SWIDTH 500 0
DWIDTH 19 0
BBX 17 25 2 -8
BITMAP
0F8000
1FE400
381C00
700C00
E00C00
E00C00
E00C00
C00C00
C00C00
C00C00
C00C00
E00C00
E00C00
E00C00
701C00
382C00
1FCC00
000C00
000C00
000C00
000C00
000C00
000C00
000C00
007F80
ENDCHAR
STARTCHAR U+0072
ENCODING 114
SWIDTH 500 0
DWIDTH 15 0
BBX 14 17 1 0
BITMAP
0878
FCFC
1D38
1E00
1E00
1C00
1C00
1C00
1C00
1C00
1C00
1C00
1C00
1C00
1C00
1C00
FF80
ENDCHAR
STARTCHAR U+0073
ENCODING 115
SWIDTH 500 0
DWIDTH 15 0
BBX 12 17 2 0
BITMAP
1F80
70E0
6060
C060
C060
E000
F000
7E00
3F80
0FC0
01E0
0070
8070
8070
C060
C0E0
FF80
ENDCHAR
STARTCHAR U+0074
ENCODING 116
SWIDTH 500 0
DWIDTH 12 0
BBX 10 22 1 0
BITMAP
0800
1800
1800
1800
1800
3F80
FFC0
1800
1800
1800
1800
1800
1800
1800
1800
1800
1800
1800
1800
1800
1C40
0FC0
ENDCHAR
STARTCHAR U+0075
ENCODING 117
SWIDTH 500 0
DWIDTH 21 0
BBX 18 17 1 0
BITMAP
180300
F81F00
180300
180300
180300
180300
180300
180300
180300
180300
180300
180700
180700
1C0700
1C0F00
1E3300
0FE3C0
ENDCHAR
STARTCHAR U+0076
ENCODING 118
SWIDTH 500 0
DWIDTH 18 0
BBX 17 17 0 0
BITMAP
FE0F80
7E0F80
380200
1C0400
1C0400
1C0400
0E0800
0E0800
060800
071000
071000
038000
03A000
01A000
01C000
01C000
00C000
ENDCHAR
STARTCHAR U+0077
ENCODING 119
SWIDTH 500 0
DWIDTH 27 0
BBX 26 17 0 0
BITMAP
FE1F87C0
7E1F87C0
38060100
180F0100
1C0B0200
1C0B0200
0C138200
0E118400
0E118400
0621C400
0720C800
0720E800
0340E800
03C07000
03807000
01803000
01802000
ENDCHAR
STARTCHAR U+0078
ENCODING 120
SWIDTH 500 0
DWIDTH 18 0
BBX 18 17 0 0
BITMAP
7F0F80
7E0F80
1C0600
0E0C00
070800
071000
03B000
01E000
01C000
01E000
017000
027800
043800
0C1C00
080E00
100E00
FE3FC0
ENDCHAR
STARTCHAR U+0079
ENCODING 121
SWIDTH 500 0
DWIDTH 18 0
BBX 17 26 0 -9
BITMAP
FE0F80
7E0F80
380200
180200
1C0400
1C0400
0E0400
0E0800
060800
070800
071000
031000
03A000
01A000
01E000
01C000
00C000
00C000
008000
008000
010000
010000
020000
E60000
FC0000
700000
ENDCHAR
STARTCHAR U+007A
ENCODING 122
SWIDTH 500 0
DWIDTH 16 0
BBX 14 17 1 0
BITMAP
7FF8
6038
4038
4070
C0E0
00E0
01C0
0380
0380
0700
0E00
0C00
1C0C
380C
700C
700C
FFFC
ENDCHAR
STARTCHAR U+007B
ENCODING 123
SWIDTH 500 0
DWIDTH 12 0
BBX 10 31 1 -6
BITMAP
03C0
0E00
1C00
1800
1800
1800
1800
0C00
0C00
0C00
0C00
0400
0C00
0C00
3800
E000
1800
0C00
0400
0400
0C00
0C00
0C00
1800
1800
1800
1800
1800
0C00
0F80
00C0
ENDCHAR
STARTCHAR U+007C
ENCODING 124
SWIDTH 500 0
DWIDTH 10 0
BBX 2 35 4 -9
BITMAP
C0
C0
C0
C0
C0
C0
C0
C0
C0
C0
C0
C0
C0
C0
C0
C0
C0
C0
C0
C0
C0
C0
C0
C0
C0
C0
C0
C0
C0
C0
C0
C0
C0
C0
C0
ENDCHAR
STARTCHAR U+007D
ENCODING 125
SWIDTH 500 0
DWIDTH 12 0
BBX 10 31 1 -6
BITMAP
F000
1C00
0E00
0600
0600
0600
0600
0C00
0C00
0C00
0800
0800
0C00
0C00
0700
03C0
0600
0C00
0800
0800
0C00
0C00
0C00
0600
0600
0600
0600
0600
0C00
7C00
C000
ENDCHAR
STARTCHAR U+007E
ENCODING 126
SWIDTH 500 0
DWIDTH 19 0
BBX 15 4 2 10
BITMAP
7E06
4706
C18C
80F8
ENDCHAR
STARTCHAR U+3002
ENCODING 12290
SWIDTH 500 0
DWIDTH 32 0
BBX 9 9 1 -3
BITMAP
3E00
6100
4080
C080
8080
4080
4180
3F00
0C00
ENDCHAR
STARTCHAR U+4E1A
ENCODING 19994
SWIDTH 500 0
DWIDTH 32 0
BBX 29 27 2 -1
BITMAP
00707000
00606000
00606000
00606000
00606000
00606000
00606000
206060E0
306060C0
106061C0
18606180
0C606180
0C606300
06606300
06606600
06606400
07606C00
03606800
03607000
03607000
00606000
00606000
00606000
00606000
00606060
00706070
FFFFFFF8
ENDCHAR
STARTCHAR U+4F5C
ENCODING 20316
SWIDTH 500 0
DWIDTH 32 0
BBX 28 29 2 -2
BITMAP
01000000
01C3C000
03830000
03030000
03070000
06060060
060E40F0
0C0FFFF0
0C18C000
1C18C000
1C30C000
3C20C000
2C40C0C0
4C80FFE0
CC00E000
8C00C000
0C00C000
0C00C000
0C00C040
0C00C0E0
0C00FFF0
0C00E000
0C00C000
0C00C000
0C00C000
0C00C000
0C00C000
0C00C000
0C00C000
ENDCHAR
STARTCHAR U+4F9D
ENCODING 20381
SWIDTH 500 0
DWIDTH 32 0
BBX 30 29 1 -2
BITMAP
01018000
01C0C000
03806000
03803000
03003000
07003038
06FFFFFC
0600F000
0E00E000
0E01D000
1E019000
1E039038
3E071078
2E0608E0
4E0C09C0
4E1C0B00
8E3C0E00
0E4C0400
0E8C0400
0E0C0600
0E0C0300
0E0C0300
0E0C0180
0E0C09C0
0E0C30E0
0E0EC070
0E0F807C
0E1E003C
0E0C0010
ENDCHAR
STARTCHAR U+5143
ENCODING 20803
SWIDTH 500 0
DWIDTH 32 0
BBX 29 28 2 -2
BITMAP
00000200
00000700
1FFFFF80
00000000
00000000
00000000
00000000
00000000
00000060
000000F0
FFFFFFF0
00E0C000
00E0C000
00E0C000
00E0C000
00C0C000
00C0C000
00C0C000
00C0C000
0180C000
0180C010
0300C010
0300C010
0600C010
0C00C010
1800E038
30007FF8
C0003FC0
ENDCHAR
STARTCHAR U+5148
ENCODING 20808
SWIDTH 500 0
DWIDTH 32 0
BBX 29 29 2 -2
BITMAP
00040000
03060000
03860000
03060000
07060000
06060300
07FFFF80
0C060000
0C060000
18060000
10060000
20060000
00060040
000600F0
FFFFFFF0
0060C000
0060C000
0060C000
00E0C000
00E0C000
00C0C000
00C0C000
0180C010
0180C010
0300C010
0600C010
0C00E030
3000FFF8
C0007FF0
ENDCHAR
STARTCHAR U+5165
ENCODING 20837
SWIDTH 500 0
DWIDTH 32 0
BBX 29 29 2 -2
BITMAP
00400000
00E00000
00780000
000C0000
00040000
00040000
00060000
00060000
000E0000
000E0000
000F0000
000F0000
001D0000
00198000
00398000
0030C000
0070C000
00606000
00E06000
00C03000
01803800
01801C00
03001E00
06000F00
0C000780
180003C0
300001F0
600000F8
80000060
ENDCHAR
STARTCHAR U+516D
ENCODING 20845
SWIDTH 500 0
DWIDTH 32 0
BBX 28 27 2 -1
BITMAP
00180000
000C0000
000E0000
00070000
00030000
00030000
000100E0
000001F0
FFFFFFF0
00000000
00000000
00000000
00E02000
00E03000
00C01800
01C00C00
01800600
03800700
03000380
06000180
060001C0
0C0000E0
18000060
10000070
20000070
40000030
80000030
ENDCHAR
STARTCHAR U+5199
ENCODING 20889
SWIDTH 500 0
DWIDTH 32 0
BBX 28 28 2 -3
BITMAP
10000060
1FFFFFF0
30000060
31C000C0
F1800080
E1800080
C1800600
01800F00
03FFFF00
03000000
03000000
03000000
07000200
07FFFF80
02000700
00000600
00000600
0000C600
FFFFE600
00000600
00000600
00000E00
00000C00
00000C00
00001C00
0001F800
00007000
00004000
ENDCHAR
STARTCHAR U+5230
ENCODING 21040
SWIDTH 500 0
DWIDTH 32 0
BBX 28 28 2 -2
BITMAP
00000070
00030060
FFFF9860
03001860
03801860
07001860
0E181860
0C0C1860
18061860
30071860
7FF31860
7E031860
61C11860
01801860
01801860
01861860
018F1860
7FFF1860
01801860
01801860
01801860
01801060
01838060
01FC0060
1FE00060
FF000060
F00003E0
800000E0
ENDCHAR
STARTCHAR U+5468
ENCODING 21608
SWIDTH 500 0
DWIDTH 32 0
BBX 27 28 2 -2
BITMAP
00000080
180001C0
1FFFFFE0
180000C0
180600C0
180600C0
180630C0
19FFF8C0
180600C0
180600C0
180610C0
180638C0
19FFFCC0
180000C0
180000C0
18C070C0
18FFF0C0
18C030C0
18C030C0
10C030C0
30C030C0
30E070C0
30FFF0C0
20C030C0
60C000C0
400001C0
80000780
80000380
ENDCHAR
STARTCHAR U+5929
ENCODING 22825
SWIDTH 500 0
DWIDTH 32 0
BBX 29 28 2 -2
BITMAP
00000100
00000180
3FFFFFC0
000E0000
000E0000
000E0000
000E0000
000E0000
000E0000
000E0000
000E0060
FFFFFFF0
000E0000
000E0000
000D0000
001D0000
00190000
00188000
0038C000
00304000
00606000
00E03000
00C01C00
03800E00
06000780
0C0003E0
300001F8
C0000060
ENDCHAR
STARTCHAR U+5B66
ENCODING 23398
SWIDTH 500 0
DWIDTH 32 0
BBX 28 28 2 -2
BITMAP
040C0780
03060600
03870E00
01830C00
01831800
10003060
3FFFFFF0
30000070
600000C0
E0000880
E7FFFD00
80003C00
00007000
0000E000
00018000
00070000
00060040
000600F0
FFFFFFF0
00060000
00060000
00060000
00060000
00060000
00060000
00060000
007E0000
001E0000
ENDCHAR
STARTCHAR U+5B9D
ENCODING 23453
SWIDTH 500 0
DWIDTH 32 0
BBX 28 28 2 -1
BITMAP
00080000
00060000
00070000
00030000
10030060
1FFFFFF0
30000070
700000E0
E0000080
E0000000
80000300
1FFFFF80
00060000
00060000
00060000
00060000
00060000
00060600
0FFFFF00
00060000
00060000
00061800
00060C00
00060E00
00060600
00060200
00060060
FFFFFFF0
ENDCHAR
STARTCHAR U+5C3D
ENCODING 23613
SWIDTH 500 0
DWIDTH 32 0
BBX 28 28 2 -2
BITMAP
04000100
07FFFF80
06000380
06000180
06000180
06000180
06000180
06000180
06000380
07FFFF80
06004180
06004000
06002000
06002000
0C701000
0C1E1800
0C070C00
18038600
18018780
300003C0
300001F0
60000070
40F00020
801F0000
0007C000
0001E000
00007000
00003800
ENDCHAR
STARTCHAR U+5C71
ENCODING 23665
SWIDTH 500 0
DWIDTH 32 0
BBX 26 28 3 -2
BITMAP
000E0000
000C0000
000C0000
000C0000
000C0000
000C0000
000C0100
600C01C0
600C0180
600C0180
600C0180
600C0180
600C0180
600C0180
600C0180
600C0180
600C0180
600C0180
600C0180
600C0180
600C0180
600C0180
600C0180
600C0180
FFFFFF80
E0000180
00000180
00000180
ENDCHAR
STARTCHAR U+6539
ENCODING 25913
SWIDTH 500 0
DWIDTH 32 0
BBX 29 29 2 -2
BITMAP
00004000
0000F000
0000E000
00E0C000
FFF0C000
0061C000
00618020
00618070
0063FFF8
006301C0
00670180
40670180
7FE50380
606D0380
60188300
60108700
6020C600
60004E00
60006C00
60007C00
60103800
60C03800
63807C00
7E00CE00
F8018700
F0030380
400C01E0
003000F0
00C00060
ENDCHAR
STARTCHAR U+653E
ENCODING 25918
SWIDTH 500 0
DWIDTH 32 0
BBX 29 29 2 -2
BITMAP
00002000
04007000
07007000
03006000
01806000
0188E000
001CC060
FFFCFFF8
1800C0C0
180180C0
180181C0
181341C0
1FFA4180
18364180
18344380
18302300
18302300
18303700
18301600
10301E00
30301C00
30301C00
30603E00
20603600
60606300
4060C3C0
40E301E0
83C600F8
01880070
ENDCHAR
STARTCHAR U+65E5
ENCODING 26085
SWIDTH 500 0
DWIDTH 32 0
BBX 20 27 6 -2
BITMAP
000020
FFFFF0
E00070
E00030
E00030
E00030
E00030
E00030
E00030
E00030
E00030
E00030
FFFFF0
E00070
E00030
E00030
E00030
E00030
E00030
E00030
E00030
E00030
E00030
FFFFF0
E00070
E00030
C00020
ENDCHAR
STARTCHAR U+65E6
ENCODING 26086
SWIDTH 500 0
DWIDTH 32 0
BBX 28 25 2 0
BITMAP
06000600
07FFFF00
06000600
06000600
06000600
06000600
06000600
06000600
06000600
07FFFE00
06000600
06000600
06000600
06000600
06000600
06000600
06000600
06000600
07FFFE00
06000600
06000600
00000000
00000000
00000060
FFFFFFF0
ENDCHAR
STARTCHAR U+6709
ENCODING 26377
SWIDTH 500 0
DWIDTH 32 0
BBX 28 29 2 -2
BITMAP
00180000
001C0000
00180000
00380000
00300060
FFFFFFF0
00600000
00E00000
00C00000
01800000
01800700
03FFFF80
07800700
0D800700
19800700
31800700
61FFFF00
81800700
01800700
01800700
01800700
01FFFF00
01800700
01800700
01800700
01800700
01800700
01801E00
01800E00
ENDCHAR
STARTCHAR U+6CB3
ENCODING 27827
SWIDTH 500 0
DWIDTH 32 0
BBX 29 28 2 -2
BITMAP
38000020
1C000070
0EFFFFF8
06000180
00000180
00000180
01000180
C1002180
713FF180
32306180
12306180
04306180
04306180
0C306180
08306180
18306180
18306180
103FE180
30306180
F0306180
70300180
30000180
30000180
30000180
30000180
30000180
30000F80
30000380
ENDCHAR
STARTCHAR U+6D41
ENCODING 27969
SWIDTH 500 0
DWIDTH 32 0
BBX 29 29 2 -2
BITMAP
00018000
1800C000
0C006000
0E006020
06006070
00FFFFF0
0001C000
0083C000
E1070600
710E0300
3A1801C0
1A73FFC0
027FC0E0
04600060
04000000
0C18E300
0818C300
1818C300
1818C300
3018C300
7010C300
7030C300
3030C300
3030C300
3020C310
3860C310
38C0C310
3880C3F8
3300C3F0
ENDCHAR
STARTCHAR U+6D77
ENCODING 28023
SWIDTH 500 0
DWIDTH 32 0
BBX 29 29 2 -2
BITMAP
00080000
380E0000
1C0C0000
0E1C0060
041FFFF0
00380000
01300000
01300000
C27801C0
725FFFC0
32980180
3518C180
04186180
0C183180
08303190
083001B8
1BFFFFF8
10300180
30318180
3030C180
F0606180
70606180
306001A0
30E003F0
30600380
30000300
30000700
30007E00
30001E00
ENDCHAR
STARTCHAR U+7434
ENCODING 29748
SWIDTH 500 0
DWIDTH 32 0
BBX 29 29 2 -3
BITMAP
00300060
7FFBFFF0
03001C00
03001800
03201880
07301DE0
3FF9FFE0
03001800
03001800
03381860
FFFDFFF0
000F0000
001F0000
0038C000
00707000
01C03F00
07060FF8
1C0701F0
60030070
00000400
0FFFFE00
00001C00
00001800
00003000
00007000
0000E000
0001C000
00018000
00010000
ENDCHAR
STARTCHAR U+767D
ENCODING 30333
SWIDTH 500 0
DWIDTH 32 0
BBX 23 29 5 -2
BITMAP
006000
007000
006000
00C000
00C000
00800C
FFFFFE
C0000E
C0000C
C0000C
C0000C
C0000C
C0000C
C0000C
C0000C
C0000C
FFFFFC
C0000C
C0000C
C0000C
C0000C
C0000C
C0000C
C0000C
C0000C
C0000C
FFFFFC
C0000C
C0000C
ENDCHAR
STARTCHAR U+8BFE
ENCODING 35838
SWIDTH 500 0
DWIDTH 32 0
BBX 29 29 2 -2
BITMAP
20000000
18200080
0C3FFFE0
0E3060C0
063060C0
063060C0
003060C0
003FFFC0
0C3060C0
FE3060C0
0C3060C0
0C3060C0
0C3FFFC0
0C3060C0
0C106000
0C006060
0C0060F0
0C7FFFF0
0C01F000
0C01E800
0C036C00
0C476600
0D866700
0F0C6380
0E1861E0
1C2060F8
08C06070
01006000
00006000
ENDCHAR
STARTCHAR U+8D1D
ENCODING 36125
SWIDTH 500 0
DWIDTH 32 0
BBX 27 28 3 -2
BITMAP
00000400
1FFFFF00
18000600
18000600
18000600
18080600
180E0600
180C0600
180C0600
180C0600
180C0600
180C0600
180C0600
180C0600
180C0600
181C0600
18180600
18180600
18180600
183A0000
0030C000
00607800
00E01E00
01C00F00
03000780
0E0001C0
380000E0
C0000060
ENDCHAR
STARTCHAR U+8FD8
ENCODING 36824
SWIDTH 500 0
DWIDTH 32 0
BBX 29 28 1 -2
BITMAP
30000020
18000078
0C7FFFF8
0E001C00
06001800
07003800
02003000
00006000
0000F000
0600F000
FF01E300
060361C0
060660E0
060C6070
06106038
06206018
06806018
06006000
06006000
06006000
06006000
06006000
0F006000
19802000
30E00000
F03F0000
E01FFFF8
4000FFF0
ENDCHAR
STARTCHAR U+94A2
ENCODING 38050
SWIDTH 500 0
DWIDTH 32 0
BBX 29 29 1 -2
BITMAP
08000000
1E000010
1C07FFF8
18460038
18E60030
3FF60330
300603B0
20068330
60064330
40C62330
FFE61630
86061E30
06060E30
06060C30
06460E30
06F60E30
FFF61F30
06061B30
06061330
060621B0
060661B0
061641B0
062680B0
06C60030
07860030
07060030
0E060030
040601F0
00060070
ENDCHAR
STARTCHAR U+9EC4
ENCODING 40644
SWIDTH 500 0
DWIDTH 32 0
BBX 28 29 2 -2
BITMAP
00607000
00607000
00606080
006061C0
3FFFFFC0
00606000
00606000
00606060
00E070F0
FFFFFFF0
00060000
00060200
0FFFFF80
0C060380
0C060300
0C060300
0C060300
0FFFFF00
0C060300
0C060300
0C060300
0C060300
0FFFFF00
0C000300
00400000
01F03E00
07C007C0
1E0001E0
70000070
ENDCHAR
STARTCHAR U+FF0C
ENCODING 65292
SWIDTH 500 0
DWIDTH 32 0
BBX 4 10 3 -6
BITMAP
60
F0
F0
70
30
10
20
20
40
80
ENDCHAR
ENDFONT
