STARTFONT 2.1
FONT serif-b-32
SIZE 32 75 75
FONTBOUNDINGBOX 64 47 0 -10
STARTPROPERTIES 3
PIXEL_SIZE 32
FONT_ASCENT 37
FONT_DESCENT 10
ENDPROPERTIES
CHARS 127
STARTCHAR U+0020
ENCODING 32
SWIDTH 500 0
DWIDTH 8 0
BBX 0 0 0 0
BITMAP
ENDCHAR
STARTCHAR U+0021
ENCODING 33
SWIDTH 500 0
DWIDTH 11 0
BBX 5 24 3 0
BITMAP
78
F8
F8
F8
F8
F8
78
78
70
70
70
30
30
30
20
20
00
00
00
30
F8
F8
F8
78
ENDCHAR
STARTCHAR U+0022
ENCODING 34
SWIDTH 500 0
DWIDTH 14 0
BBX 11 11 2 15
BITMAP
E1C0
F3E0
F3E0
F1E0
F1C0
E1C0
E1C0
61C0
61C0
6080
4080
ENDCHAR
STARTCHAR U+0023
ENCODING 35
SWIDTH 500 0
DWIDTH 20 0
BBX 18 23 1 0
BITMAP
020200
020600
020600
020600
060400
060400
7FFFC0
7FFFC0
7FFFC0
040C00
0C0C00
0C0800
0C0800
0C0800
FFFF80
FFFF80
FFFF80
181800
181000
181000
101000
103000
103000
ENDCHAR
STARTCHAR U+0024
ENCODING 36
SWIDTH 500 0
DWIDTH 19 0
BBX 15 31 2 -4
BITMAP
0100
0100
0100
0180
0FF0
3D38
711C
711E
F11E
F10C
F100
F900
7D00
7F80
3FE0
1FF0
07FC
01FC
013E
011E
011E
610E
E10E
F10E
F11C
7138
3FF0
0380
0100
0100
0100
ENDCHAR
STARTCHAR U+0025
ENCODING 37
SWIDTH 500 0
DWIDTH 31 0
BBX 29 25 1 -1
BITMAP
1F000000
31800600
71C00400
60C00800
60C01800
E0E01000
E0E02000
E0E06000
E0E04000
E0C08000
60C187C0
71C30C60
31821C70
1B061830
040C3830
00083838
00183838
00303838
00203838
00603830
00C01830
00801C70
01000C60
030007C0
02000000
ENDCHAR
STARTCHAR U+0026
ENCODING 38
SWIDTH 500 0
DWIDTH 26 0
BBX 24 25 1 -1
BITMAP
03F800
071C00
0E0E00
1C0E00
1C0E00
1E0E00
1E0E00
1E1C00
0F3800
0FE0FE
07C018
07E018
1DF010
38F830
70FC30
707C20
F03E60
F01FC0
F00F80
F807C0
7807E0
7E0FF0
3FF8F8
1FF07F
010000
ENDCHAR
STARTCHAR U+0027
ENCODING 39
SWIDTH 500 0
DWIDTH 8 0
BBX 4 11 2 15
BITMAP
E0
F0
F0
F0
F0
E0
E0
60
60
60
40
ENDCHAR
STARTCHAR U+0028
ENCODING 40
SWIDTH 500 0
DWIDTH 13 0
BBX 8 32 3 -6
BITMAP
01
03
06
0C
1C
18
38
30
70
70
70
E0
E0
E0
E0
E0
E0
E0
E0
E0
E0
70
70
70
30
38
18
1C
0C
06
03
01
ENDCHAR
STARTCHAR U+0029
ENCODING 41
SWIDTH 500 0
DWIDTH 13 0
BBX 9 32 1 -6
BITMAP
C000
6000
3000
3800
1800
1C00
0E00
0E00
0700
0700
0700
0780
0780
0380
0380
0380
0380
0380
0380
0380
0780
0700
0700
0700
0E00
0E00
0C00
1800
1800
3000
6000
C000
ENDCHAR
STARTCHAR U+002A
ENCODING 42
SWIDTH 500 0
DWIDTH 16 0
BBX 14 13 1 13
BITMAP
0700
0700
0700
0300
E33C
FA7C
7FF8
0300
0580
1CC0
3CE0
38F0
3870
ENDCHAR
STARTCHAR U+002B
ENCODING 43
SWIDTH 500 0
DWIDTH 19 0
BBX 17 17 1 3
BITMAP
00C000
00C000
00C000
00C000
00C000
00C000
00C000
01C000
FFFF80
00C000
00C000
00C000
00C000
00C000
00C000
00C000
00C000
ENDCHAR
STARTCHAR U+002C
ENCODING 44
SWIDTH 500 0
DWIDTH 11 0
BBX 6 11 2 -6
BITMAP
10
7C
7C
7C
7C
1C
08
18
30
60
C0
ENDCHAR
STARTCHAR U+002D
ENCODING 45
SWIDTH 500 0
DWIDTH 12 0
BBX 9 2 1 8
BITMAP
FF80
FF80
ENDCHAR
STARTCHAR U+002E
ENCODING 46
SWIDTH 500 0
DWIDTH 11 0
BBX 5 5 3 0
BITMAP
60
F8
F8
F8
F0
ENDCHAR
STARTCHAR U+002F
ENCODING 47
SWIDTH 500 0
DWIDTH 13 0
BBX 11 31 1 -6
BITMAP
0060
0060
00C0
00C0
00C0
0180
0180
0180
0300
0300
0300
0300
0600
0600
0600
0C00
0C00
0C00
1800
1800
1800
3000
3000
3000
3000
6000
6000
6000
C000
C000
C000
ENDCHAR
STARTCHAR U+0030
ENCODING 48
SWIDTH 500 0
DWIDTH 19 0
BBX 17 25 1 -1
BITMAP
03E000
0E3800
1C1C00
3C1E00
380E00
780F00
780F00
780F00
780F00
780F00
F80F80
F80F80
F80F80
F80F80
780F00
780F00
780F00
780F00
780F00
380E00
3C1E00
1C1C00
0E3800
07F000
008000
ENDCHAR
STARTCHAR U+0031
ENCODING 49
SWIDTH 500 0
DWIDTH 15 0
BBX 12 24 2 0
BITMAP
0700
7F00
FF00
0F00
0F00
0F00
0F00
0F00
0F00
0F00
0F00
0F00
0F00
0F00
0F00
0F00
0F00
0F00
0F00
0F00
0F00
0F00
1F80
FFF0
ENDCHAR
STARTCHAR U+0032
ENCODING 50
SWIDTH 500 0
DWIDTH 19 0
BBX 15 24 2 0
BITMAP
0FE0
30F8
707C
F03C
F03E
E03E
403E
003E
003C
003C
0078
00F0
00E0
01C0
0380
0700
0E00
1C00
1800
2000
6000
FFFE
FFFE
FFFE
ENDCHAR
STARTCHAR U+0033
ENCODING 51
SWIDTH 500 0
DWIDTH 19 0
BBX 16 25 1 -1
BITMAP
0FF0
1C7C
383E
381E
781E
301E
001E
001E
001E
003C
0070
07E0
00F8
003C
001E
001F
000F
000F
600F
F00F
701F
701E
383C
1FF8
0100
ENDCHAR
STARTCHAR U+0034
ENCODING 52
SWIDTH 500 0
DWIDTH 19 0
BBX 17 25 1 -1
BITMAP
003C00
003C00
007C00
00FC00
00BC00
013C00
033C00
023C00
043C00
0C3C00
083C00
103C00
303C00
203C00
403C00
C07C00
FFFF80
FFFF80
007C00
003C00
003C00
003C00
003C00
003C00
003800
ENDCHAR
STARTCHAR U+0035
ENCODING 53
SWIDTH 500 0
DWIDTH 19 0
BBX 16 25 1 -1
BITMAP
1FFE
1FFF
1FFF
1FFE
1000
1000
1000
1000
1000
3000
3FF0
18FC
003E
001F
001F
000F
000F
000F
600F
F00F
701F
701E
383C
1FF0
0100
ENDCHAR
STARTCHAR U+0036
ENCODING 54
SWIDTH 500 0
DWIDTH 19 0
BBX 17 25 1 -1
BITMAP
000E00
007800
01E000
038000
070000
0F0000
1E0000
3C0000
3C0000
7C0000
79FC00
7E3E00
781F00
780F00
F80F00
F80F80
780F80
780F80
780F00
780F00
3C0F00
3C0E00
1E1C00
07F800
008000
ENDCHAR
STARTCHAR U+0037
ENCODING 55
SWIDTH 500 0
DWIDTH 19 0
BBX 15 24 2 0
BITMAP
FFFE
FFFE
FFFE
FFFC
000C
000C
0018
0018
0030
0030
0070
0060
00E0
00C0
01C0
01C0
0380
0380
0700
0700
0F00
0E00
1E00
1E00
ENDCHAR
STARTCHAR U+0038
ENCODING 56
SWIDTH 500 0
DWIDTH 19 0
BBX 15 25 2 -1
BITMAP
0FE0
3C38
783C
701C
F01C
F01C
F01C
F81C
7C38
7E30
3FC0
1FE0
0FF0
0FFC
38FC
703E
F03E
E01E
E01E
E01E
F01E
F01C
7838
3FF0
0300
ENDCHAR
STARTCHAR U+0039
ENCODING 57
SWIDTH 500 0
DWIDTH 19 0
BBX 17 24 1 0
BITMAP
07F000
1E3800
3C1C00
781E00
780F00
780F00
F80F00
F80F00
F80F80
780F80
780F80
7C0F00
3E0F00
1FFF00
038F00
001E00
001E00
003C00
003800
007000
00E000
01C000
070000
1C0000
ENDCHAR
STARTCHAR U+003A
ENCODING 58
SWIDTH 500 0
DWIDTH 11 0
BBX 5 17 3 0
BITMAP
70
F8
F8
F8
70
00
00
00
00
00
00
00
60
F8
F8
F8
F0
ENDCHAR
STARTCHAR U+003B
ENCODING 59
SWIDTH 500 0
DWIDTH 11 0
BBX 6 23 2 -6
BITMAP
38
7C
7C
7C
38
00
00
00
00
00
00
00
10
7C
7C
7C
7C
1C
08
18
30
60
C0
ENDCHAR
STARTCHAR U+003C
ENCODING 60
SWIDTH 500 0
DWIDTH 19 0
BBX 15 17 2 3
BITMAP
0006
001C
0078
01E0
0380
0E00
3800
E000
C000
7000
1C00
0F00
03C0
00E0
0038
000E
0002
ENDCHAR
STARTCHAR U+003D
ENCODING 61
SWIDTH 500 0
DWIDTH 19 0
BBX 17 9 1 7
BITMAP
FFFF80
000000
000000
000000
000000
000000
000000
FFFF80
FFFF80
ENDCHAR
STARTCHAR U+003E
ENCODING 62
SWIDTH 500 0
DWIDTH 19 0
BBX 16 17 2 3
BITMAP
C000
7000
1C00
0700
03C0
00F0
0038
000E
0007
000E
0038
00E0
0380
0E00
3800
E000
4000
ENDCHAR
STARTCHAR U+003F
ENCODING 63
SWIDTH 500 0
DWIDTH 15 0
BBX 10 24 3 0
BITMAP
F000
FC00
FF00
7F80
0180
00C0
00C0
00C0
01C0
07C0
1F80
3F00
7C00
7000
2000
2000
0000
0000
0000
3000
F800
F800
F800
7800
ENDCHAR
STARTCHAR U+0040
ENCODING 64
SWIDTH 500 0
DWIDTH 31 0
BBX 27 29 2 -5
BITMAP
00010000
003FF800
00E00E00
03800300
06000180
0C0000C0
18000040
300F9860
201EF020
60387020
40707020
C0E07020
C0E0F020
81C0E020
81C0E020
81C0E020
81C0E060
83C0E040
81C1E0C0
81E3E080
C1FEE300
C0F87E00
40000000
60000000
30000000
38000000
1C000000
07003000
01FFC000
ENDCHAR
STARTCHAR U+0041
ENCODING 65
SWIDTH 500 0
DWIDTH 24 0
BBX 24 24 0 0
BITMAP
001800
003C00
003C00
007E00
007E00
005E00
00DF00
008F00
008F00
018F80
010780
010780
0307C0
0303C0
0203C0
07FFE0
0603E0
0401E0
0C01F0
0C01F0
0800F0
1800F8
1800F8
FF07FF
ENDCHAR
STARTCHAR U+0042
ENCODING 66
SWIDTH 500 0
DWIDTH 23 0
BBX 21 24 1 0
BITMAP
7FFC00
3F9F80
1F07C0
1F03E0
1F01E0
0F01E0
0F01E0
0F01E0
0F03C0
0F0380
0F0F00
0FFC00
0F0780
0F03E0
0F01F0
0F00F0
0F00F0
0F00F8
0F00F0
0F00F0
1F01F0
1F03E0
1F0FC0
FFFE00
ENDCHAR
STARTCHAR U+0043
ENCODING 67
SWIDTH 500 0
DWIDTH 22 0
BBX 19 25 2 -1
BITMAP
01FF80
07C1E0
0F00E0
1E00E0
3C00E0
7C0060
780060
F80000
F80000
F00000
F00000
F00000
F00000
F00000
F00000
F80000
F80000
F80060
780060
7C0060
3E00E0
1F00E0
0F80E0
03FFC0
003C00
ENDCHAR
STARTCHAR U+0044
ENCODING 68
SWIDTH 500 0
DWIDTH 25 0
BBX 23 24 1 0
BITMAP
7FF800
3F9F80
1F03C0
1F01F0
1F00F0
0F0078
0F007C
0F007C
0F003C
0F003E
0F003E
0F003E
0F003E
0F003E
0F003E
0F003C
0F003C
0F007C
0F0078
0F00F8
1F00F0
1F03E0
1F0F80
FFFC00
ENDCHAR
STARTCHAR U+0045
ENCODING 69
SWIDTH 500 0
DWIDTH 21 0
BBX 19 24 1 0
BITMAP
7FFFC0
3FFFC0
1F00C0
1F00C0
1F00C0
0F00C0
0F0000
0F0000
0F0600
0F0600
0F0600
0FFE00
0FFE00
0F0600
0F0600
0F0600
0F0000
0F0000
0F0060
0F0060
1F0060
1F00E0
1F00E0
FFFFE0
ENDCHAR
STARTCHAR U+0046
ENCODING 70
SWIDTH 500 0
DWIDTH 21 0
BBX 19 24 1 0
BITMAP
7FFFC0
3FFFC0
1F00E0
1F00E0
1F00E0
0F0060
0F0000
0F0000
0F0600
0F0600
0F0600
0FFE00
0FFE00
0F0600
0F0600
0F0600
0F0000
0F0000
0F0000
0F0000
1F0000
1F0000
1F0000
FFF000
ENDCHAR
STARTCHAR U+0047
ENCODING 71
SWIDTH 500 0
DWIDTH 24 0
BBX 21 25 2 -1
BITMAP
01FF80
07C1E0
0F00E0
1E00E0
3C0060
7C0060
780060
F80000
F80000
F00000
F00000
F00000
F00FF8
F00FF8
F001F0
F801F0
F801F0
7801F0
7C01F0
3C01F0
3E01F0
1F01F0
0781E0
03FFC0
003C00
ENDCHAR
STARTCHAR U+0048
ENCODING 72
SWIDTH 500 0
DWIDTH 28 0
BBX 25 24 1 0
BITMAP
7FE1FF80
3F80FF00
1F003C00
1F003C00
1F003C00
1F003C00
1F003C00
1F003C00
1F003C00
1F003C00
1F003C00
1FFFFC00
1F007C00
1F003C00
1F003C00
1F003C00
1F003C00
1F003C00
1F003C00
1F003C00
1F003C00
1F003C00
1F007C00
FFE1FF80
ENDCHAR
STARTCHAR U+0049
ENCODING 73
SWIDTH 500 0
DWIDTH 14 0
BBX 11 24 1 0
BITMAP
7FE0
3FC0
1F00
1F00
0F00
0F00
0F00
0F00
0F00
0F00
0F00
0F00
0F00
0F00
0F00
0F00
0F00
0F00
0F00
0F00
1F00
1F00
1F00
FFE0
ENDCHAR
STARTCHAR U+004A
ENCODING 74
SWIDTH 500 0
DWIDTH 14 0
BBX 13 29 -1 -5
BITMAP
1FF8
0FF0
03E0
03E0
03E0
03E0
03E0
03E0
03E0
03E0
03E0
03E0
03E0
03E0
03E0
03E0
03E0
03E0
03E0
03C0
03C0
03C0
03C0
03C0
03C0
6380
F300
FE00
7C00
ENDCHAR
STARTCHAR U+004B
ENCODING 75
SWIDTH 500 0
DWIDTH 25 0
BBX 24 24 1 0
BITMAP
7FE3FC
3F81F8
1F0040
1F00C0
1F0180
0F0300
0F0200
0F0400
0F0C00
0F1C00
0F3E00
0F3E00
0F5F00
0F9F00
0F0F80
0F0F80
0F07C0
0F03C0
0F03E0
0F01E0
1F01F0
1F00F8
1F00F8
FFE3FF
ENDCHAR
STARTCHAR U+004C
ENCODING 76
SWIDTH 500 0
DWIDTH 21 0
BBX 18 24 1 0
BITMAP
7FE000
3FC000
1F0000
1F0000
1F0000
0F0000
0F0000
0F0000
0F0000
0F0000
0F0000
0F0000
0F0000
0F0000
0F0000
0F0000
0F0000
0F0040
0F00C0
0F00C0
1F00C0
1F00C0
1F01C0
FFFFC0
ENDCHAR
STARTCHAR U+004D
ENCODING 77
SWIDTH 500 0
DWIDTH 32 0
BBX 30 24 1 0
BITMAP
7F0003F8
3F8007F0
1F8007E0
1F8007E0
1FC00FE0
1BC00BE0
1BE01BE0
1BE013E0
19E013C0
19F033C0
19F023C0
18F023C0
18F863C0
187843C0
187CC3C0
187C83C0
183C83E0
183F83E0
181F03E0
181F03E0
181F03E0
180E03E0
180E03E0
FF041FFC
ENDCHAR
STARTCHAR U+004E
ENCODING 78
SWIDTH 500 0
DWIDTH 26 0
BBX 24 24 1 0
BITMAP
7F01FF
3F007E
1F8018
1FC018
1FC018
1BE018
1BF018
19F018
18F818
18FC18
187C18
183E18
183F08
181F88
180F88
1807C8
1807E8
1803F8
1801F8
1801F8
1800F8
180078
180078
FF8038
ENDCHAR
STARTCHAR U+004F
ENCODING 79
SWIDTH 500 0
DWIDTH 25 0
BBX 22 25 2 -1
BITMAP
03FE00
070780
1E03C0
3C01E0
3C01F0
7800F0
7800F8
F800F8
F80078
F00078
F0007C
F0007C
F0007C
F0007C
F00078
F80078
F800F8
F800F8
7800F0
7C00F0
3C01E0
1E03C0
0F0780
03FE00
007000
ENDCHAR
STARTCHAR U+0050
ENCODING 80
SWIDTH 500 0
DWIDTH 22 0
BBX 20 24 1 0
BITMAP
7FF800
3FBF00
1F07C0
1F03E0
1F01E0
0F01E0
0F01F0
0F01F0
0F01E0
0F01E0
0F01E0
0F03C0
0F0780
0FFE00
0F8000
0F0000
0F0000
0F0000
0F0000
0F0000
1F0000
1F0000
1F0000
FFF000
ENDCHAR
STARTCHAR U+0051
ENCODING 81
SWIDTH 500 0
DWIDTH 25 0
BBX 22 31 2 -7
BITMAP
03FE00
070780
1E03C0
3C01E0
3C01F0
7800F0
7800F8
F800F8
F80078
F00078
F0007C
F0007C
F0007C
F0007C
F00078
F80078
F800F8
F800F8
7800F0
7C00F0
3C01E0
1E03C0
0F0780
03FE00
00F800
00F800
007800
007800
003C00
003E10
000FE0
ENDCHAR
STARTCHAR U+0052
ENCODING 82
SWIDTH 500 0
DWIDTH 24 0
BBX 23 24 1 0
BITMAP
7FFC00
3F9F80
1F03C0
1F01E0
1F01F0
0F01F0
0F00F0
0F01F0
0F01E0
0F01E0
0F03C0
0F0F00
0FFE00
0F0F80
0F07C0
0F07C0
0F03C0
0F03E0
0F03E0
0F03E0
1F01E0
1F01F0
1F01F0
FFE0FE
ENDCHAR
STARTCHAR U+0053
ENCODING 83
SWIDTH 500 0
DWIDTH 19 0
BBX 16 25 2 -1
BITMAP
0FF8
3C1C
780E
700C
F00C
F00C
F004
F800
FC00
7F00
7FC0
3FF0
0FF8
03FC
00FE
003E
001F
801F
C00F
C00F
C01E
E01E
E03C
7FF0
0780
ENDCHAR
STARTCHAR U+0054
ENCODING 84
SWIDTH 500 0
DWIDTH 22 0
BBX 20 24 1 0
BITMAP
FFFFF0
FFFFF0
E0F030
C0F030
C0F030
C0F030
C0F010
00F000
00F000
00F000
00F000
00F000
00F000
00F000
00F000
00F000
00F000
00F000
00F000
00F000
00F000
00F000
00F800
0FFF00
ENDCHAR
STARTCHAR U+0055
ENCODING 85
SWIDTH 500 0
DWIDTH 26 0
BBX 24 25 1 -1
BITMAP
FFE0FF
3F807E
1F0018
1F0018
1F0018
1F0018
1F0018
1F0018
1F0018
1F0018
1F0018
1F0018
1F0018
1F0018
1F0018
1F0018
1F0018
1F0018
0F0010
0F8010
0F8030
07C060
03FFC0
01FF80
001C00
ENDCHAR
STARTCHAR U+0056
ENCODING 86
SWIDTH 500 0
DWIDTH 23 0
BBX 23 24 0 0
BITMAP
FFE0FE
3F807C
1F0010
1F0030
0F0030
0F8020
0F8060
078060
07C040
07C0C0
03C0C0
03E080
03E180
01E180
01F100
01F300
00F200
00FA00
00FA00
007C00
007C00
007C00
003800
003800
ENDCHAR
STARTCHAR U+0057
ENCODING 87
SWIDTH 500 0
DWIDTH 35 0
BBX 34 24 1 0
BITMAP
FF87FE3FC0
7F03F81F80
3E00F00600
3E01F00400
1E01F00C00
1E01F80C00
1F01F80800
1F03780800
0F02781800
0F827C1000
0F863C1000
07843C3000
07843E3000
07C41E2000
07CC1E2000
03C81E6000
03C81F4000
03F80F4000
01F00FC000
01F00FC000
01F0078000
01F0078000
00E0078000
00E0030000
ENDCHAR
STARTCHAR U+0058
ENCODING 88
SWIDTH 500 0
DWIDTH 23 0
BBX 23 24 0 0
BITMAP
7FE3FC
3FC1F8
0F8040
0F80C0
07C080
07C100
03E300
03E200
01F600
00FC00
00F800
007C00
007C00
007E00
007F00
009F00
018F80
010F80
0207C0
0607C0
0403E0
0C01F0
1801F0
FF0FFE
ENDCHAR
STARTCHAR U+0059
ENCODING 89
SWIDTH 500 0
DWIDTH 22 0
BBX 21 24 1 0
BITMAP
FFC3F8
7F01F0
3E0040
3F00C0
1F0080
1F8180
0F8100
0F8300
07C200
07C600
03E400
03EC00
01F800
01F800
00F800
00F800
00F800
00F800
00F800
00F800
00F800
00F800
00F800
07FF00
ENDCHAR
STARTCHAR U+005A
ENCODING 90
SWIDTH 500 0
DWIDTH 20 0
BBX 18 24 1 0
BITMAP
7FFFC0
7FFFC0
E00F80
E00F80
E01F00
C03E00
C03E00
007C00
007C00
00F800
01F000
01F000
03E000
07C000
07C000
0F8000
0F8000
1F0040
3E00C0
3E00C0
7C00C0
7C01C0
F801C0
FFFFC0
ENDCHAR
STARTCHAR U+005B
ENCODING 91
SWIDTH 500 0
DWIDTH 12 0
BBX 7 32 4 -6
BITMAP
FE
FE
E0
E0
E0
E0
E0
E0
E0
E0
E0
E0
E0
E0
E0
E0
E0
E0
E0
E0
E0
E0
E0
E0
E0
E0
E0
E0
E0
E0
FC
FE
ENDCHAR
STARTCHAR U+005C
ENCODING 92
SWIDTH 500 0
DWIDTH 13 0
BBX 11 31 1 -6
BITMAP
C000
C000
4000
6000
6000
6000
3000
3000
3000
1800
1800
1800
0C00
0C00
0C00
0400
0600
0600
0600
0300
0300
0300
0180
0180
0180
00C0
00C0
00C0
00C0
0060
0060
ENDCHAR
STARTCHAR U+005D
ENCODING 93
SWIDTH 500 0
DWIDTH 12 0
BBX 7 32 1 -6
BITMAP
FE
FE
0E
0E
0E
0E
0E
0E
0E
0E
0E
0E
0E
0E
0E
0E
0E
0E
0E
0E
0E
0E
0E
0E
0E
0E
0E
0E
0E
0E
FE
FE
ENDCHAR
STARTCHAR U+005E
ENCODING 94
SWIDTH 500 0
DWIDTH 19 0
BBX 13 11 3 7
BITMAP
0300
0700
0D80
0CC0
18C0
1860
3060
6030
6018
C018
8008
ENDCHAR
STARTCHAR U+005F
ENCODING 95
SWIDTH 500 0
DWIDTH 19 0
BBX 19 2 0 -3
BITMAP
FFFFE0
FFFFE0
ENDCHAR
STARTCHAR U+0060
ENCODING 96
SWIDTH 500 0
DWIDTH 14 0
BBX 6 6 3 21
BITMAP
E0
F0
70
38
1C
0C
ENDCHAR
STARTCHAR U+0061
ENCODING 97
SWIDTH 500 0
DWIDTH 19 0
BBX 17 18 1 0
BITMAP
03C000
1CF800
383C00
783C00
783C00
783C00
003E00
003E00
01FE00
0E3E00
3C3E00
783E00
783E00
F03E00
F83E00
787E00
7DDE80
3F1F80
ENDCHAR
STARTCHAR U+0062
ENCODING 98
SWIDTH 500 0
DWIDTH 22 0
BBX 19 26 1 0
BITMAP
1E0000
FE0000
1E0000
1E0000
1E0000
1E0000
1E0000
1E0000
1E1C00
1EFF00
1F9F80
1E07C0
1E03C0
1E03E0
1E03E0
1E01E0
1E01E0
1E01E0
1E01E0
1E01E0
1E03E0
1E03E0
1E03C0
1E0780
3FFF80
FCFE00
ENDCHAR
STARTCHAR U+0063
ENCODING 99
SWIDTH 500 0
DWIDTH 18 0
BBX 16 19 1 -1
BITMAP
00E0
0798
1E0E
3C0E
3C0F
780F
7806
F800
F800
F800
F800
F800
7800
7C00
7C01
3E02
1FFC
07F8
0080
ENDCHAR
STARTCHAR U+0064
ENCODING 100
SWIDTH 500 0
DWIDTH 21 0
BBX 19 27 1 -1
BITMAP
000780
003F80
000780
000780
000780
000780
000780
000780
018780
0FF780
1F1F80
3E0F80
7C0780
780780
780780
F80780
F80780
F80780
F80780
F80780
780780
780780
7C0780
3E0F80
1FFF80
0FE7E0
010000
ENDCHAR
STARTCHAR U+0065
ENCODING 101
SWIDTH 500 0
DWIDTH 18 0
BBX 16 19 1 -1
BITMAP
01E0
0778
1E1C
3C0E
380F
780F
780F
F80F
FFFF
F800
F800
F800
7800
7C00
7C01
3E02
1FFE
07F8
0040
ENDCHAR
STARTCHAR U+0066
ENCODING 102
SWIDTH 500 0
DWIDTH 13 0
BBX 15 27 1 0
BITMAP
0030
01FC
033E
071C
0E00
0E00
1E00
1E00
1E00
1E00
FFE0
1E00
1E00
1E00
1E00
1E00
1E00
1E00
1E00
1E00
1E00
1E00
1E00
1E00
1E00
3E00
FFC0
ENDCHAR
STARTCHAR U+0067
ENCODING 103
SWIDTH 500 0
DWIDTH 19 0
BBX 17 26 1 -8
BITMAP
03C000
1E7380
3C3F80
783C00
781E00
781E00
781E00
781E00
781C00
383C00
1C7800
1FE000
300000
600000
700000
7FFC00
7FFF00
3FFF80
1FFF80
600780
E00380
E00380
E00700
E00600
781C00
3FF000
ENDCHAR
STARTCHAR U+0068
ENCODING 104
SWIDTH 500 0
DWIDTH 22 0
BBX 20 26 1 0
BITMAP
1E0000
FE0000
1E0000
1E0000
1E0000
1E0000
1E0000
1E0000
1E1C00
1E7F00
1EFF80
1F0780
1E07C0
1E03C0
1E03C0
1E03C0
1E03C0
1E03C0
1E03C0
1E03C0
1E03C0
1E03C0
1E03C0
1E03C0
3E07C0
FF9FF0
ENDCHAR
STARTCHAR U+0069
ENCODING 105
SWIDTH 500 0
DWIDTH 11 0
BBX 9 26 1 0
BITMAP
0800
1E00
3E00
3E00
1C00
0000
0000
0000
0200
3E00
FE00
3E00
1E00
1E00
1E00
1E00
1E00
1E00
1E00
1E00
1E00
1E00
1E00
1E00
3E00
FF80
ENDCHAR
STARTCHAR U+006A
ENCODING 106
SWIDTH 500 0
DWIDTH 11 0
BBX 11 35 -3 -9
BITMAP
0080
03E0
03E0
03E0
01C0
0000
0000
0000
0000
03E0
0FE0
03E0
03E0
03E0
03E0
03E0
03E0
03E0
03E0
03E0
03E0
03E0
03E0
03E0
03E0
03E0
03E0
03E0
03C0
03C0
03C0
F380
FB80
FE00
3800
ENDCHAR
STARTCHAR U+006B
ENCODING 107
SWIDTH 500 0
DWIDTH 21 0
BBX 20 26 1 0
BITMAP
1E0000
FE0000
1E0000
1E0000
1E0000
1E0000
1E0000
1E0000
1E0000
1E1FE0
1E0600
1E0C00
1E1800
1E3000
1E7000
1EF800
1FF800
1F7C00
1E3C00
1E3E00
1E1E00
1E1F00
1E0F00
1E0F80
3E0780
FF87F0
ENDCHAR
STARTCHAR U+006C
ENCODING 108
SWIDTH 500 0
DWIDTH 11 0
BBX 9 26 1 0
BITMAP
1E00
FE00
1E00
1E00
1E00
1E00
1E00
1E00
1E00
1E00
1E00
1E00
1E00
1E00
1E00
1E00
1E00
1E00
1E00
1E00
1E00
1E00
1E00
1E00
3E00
FF80
ENDCHAR
STARTCHAR U+006D
ENCODING 109
SWIDTH 500 0
DWIDTH 32 0
BBX 30 18 1 0
BITMAP
001C0380
3E7F1FE0
FEFFBFE0
3F07E1F0
3E07C0F0
3E0780F0
1E0780F0
1E07C0F0
1E07C0F0
1E07C0F0
1E07C0F0
1E07C0F0
3E07C0F0
3E07C0F0
3E07C0F0
3E07C0F0
3E07C0F0
FF9FF3FC
ENDCHAR
STARTCHAR U+006E
ENCODING 110
SWIDTH 500 0
DWIDTH 22 0
BBX 20 18 1 0
BITMAP
000C00
3E7F00
FEFF80
3F0780
3E07C0
3E07C0
1E07C0
1E07C0
1E07C0
1E07C0
1E07C0
1E07C0
3E07C0
3E07C0
3E07C0
3E07C0
3E07C0
FF9FF0
ENDCHAR
STARTCHAR U+006F
ENCODING 111
SWIDTH 500 0
DWIDTH 20 0
BBX 18 19 1 -1
BITMAP
01E000
073800
1E1E00
3C0F00
780F00
780780
780780
F807C0
F807C0
F807C0
F807C0
F80780
780780
780780
3C0F00
3C0F00
1E1E00
07F800
008000
ENDCHAR
STARTCHAR U+0070
ENCODING 112
SWIDTH 500 0
DWIDTH 21 0
BBX 19 26 1 -8
BITMAP
001C00
3EFF00
FF8F80
3E07C0
1E03C0
1E03E0
1E03E0
1E03E0
1E01E0
1E01E0
1E01E0
1E03E0
1E03E0
1E03E0
1E03C0
1E0780
1FFF80
1EFE00
1E1000
1E0000
1E0000
1E0000
1E0000
1E0000
1E0000
FF8000
ENDCHAR
STARTCHAR U+0071
ENCODING 113
SWIDTH 500 0
DWIDTH 20 0
BBX 19 26 1 -8
BITMAP
018000
0FF180
1F1F80
3E0F80
7C0780
780780
780780
F80780
F80780
F80780
F80780
F80780
780780
780780
7C0780
3E0F80
1FFF80
0FE780
010780
000780
000780
000780
000780
000780
000780
003FE0
ENDCHAR
STARTCHAR U+0072
ENCODING 114
SWIDTH 500 0
DWIDTH 16 0
BBX 15 18 1 0
BITMAP
0018
3E7E
FEFE
3E9E
3F0C
3F00
1E00
1E00
1E00
1E00
1E00
1E00
3E00
3E00
3E00
3E00
3E00
FFC0
ENDCHAR
STARTCHAR U+0073
ENCODING 115
SWIDTH 500 0
DWIDTH 16 0
BBX 14 19 1 -1
BITMAP
0380
1FF0
3838
7038
7018
7810
7C00
7F00
7FE0
3FF0
0FF8
01FC
007C
603C
603C
E038
E070
7FE0
0200
ENDCHAR
STARTCHAR U+0074
ENCODING 116
SWIDTH 500 0
DWIDTH 13 0
BBX 12 23 0 -1
BITMAP
0700
0F00
0F00
0F00
1F00
FFF0
1F00
1F00
1F00
1F00
1F00
1F00
1F00
1F00
1F00
1F00
1F00
1F00
1F00
1F00
0FB0
07E0
0100
ENDCHAR
STARTCHAR U+0075
ENCODING 117
SWIDTH 500 0
DWIDTH 22 0
BBX 20 18 1 -1
BITMAP
FE1FC0
3E07C0
3E07C0
3E07C0
3E07C0
3E07C0
3E07C0
3E07C0
3E07C0
3E07C0
3E07C0
3E07C0
3E07C0
3E07C0
1F1FC0
1FF7C0
0FE7F0
010000
ENDCHAR
STARTCHAR U+0076
ENCODING 118
SWIDTH 500 0
DWIDTH 19 0
BBX 18 17 0 0
BITMAP
FF8FC0
3C0300
3E0300
1E0200
1F0600
1F0400
0F0400
0F8C00
078800
078800
07D000
03D000
03F000
01E000
01E000
01E000
00C000
ENDCHAR
STARTCHAR U+0077
ENCODING 119
SWIDTH 500 0
DWIDTH 28 0
BBX 28 17 0 0
BITMAP
FF9FE7F0
3C078080
3C078080
3E078180
1E0FC100
1E0BC100
1F09C300
0F19E200
0F11E200
0790E200
07A0F400
07A0F400
03E07C00
03C07800
03C07800
01C03800
01803000
ENDCHAR
STARTCHAR U+0078
ENCODING 120
SWIDTH 500 0
DWIDTH 19 0
BBX 19 17 0 0
BITMAP
7FCFC0
1F0300
1F0200
0F8400
07CC00
07C800
03F000
01F000
01F000
01F800
017C00
027C00
043E00
0C3E00
081F00
180F80
FE3FE0
ENDCHAR
STARTCHAR U+0079
ENCODING 121
SWIDTH 500 0
DWIDTH 19 0
BBX 18 26 0 -9
BITMAP
FF8FC0
3C0100
3E0100
1E0300
1E0200
1F0200
0F0400
0F8400
078400
078800
03C800
03C800
03D000
01F000
01E000
00E000
00E000
00C000
004000
00C000
008000
018000
F10000
FA0000
FC0000
300000
ENDCHAR
STARTCHAR U+007A
ENCODING 122
SWIDTH 500 0
DWIDTH 17 0
BBX 15 17 1 0
BITMAP
FFFC
E07C
E078
C0F8
C0F0
01E0
03E0
03C0
0780
0F80
0F00
1F06
3E06
3C0E
7C0E
F80E
FFFC
ENDCHAR
STARTCHAR U+007B
ENCODING 123
SWIDTH 500 0
DWIDTH 12 0
BBX 9 32 2 -6
BITMAP
0180
1F80
3C00
3800
3800
3800
3800
3800
3800
1C00
1C00
1C00
1C00
1C00
3800
F000
E000
3800
1C00
1C00
1C00
1C00
1C00
3C00
3800
3800
3800
3800
3800
3C00
1F80
0380
ENDCHAR
STARTCHAR U+007C
ENCODING 124
SWIDTH 500 0
DWIDTH 11 0
BBX 2 36 4 -9
BITMAP
C0
C0
C0
C0
C0
C0
C0
C0
C0
C0
C0
C0
C0
C0
C0
C0
C0
C0
C0
C0
C0
C0
C0
C0
C0
C0
C0
C0
C0
C0
C0
C0
C0
C0
C0
C0
ENDCHAR
STARTCHAR U+007D
ENCODING 125
SWIDTH 500 0
DWIDTH 12 0
BBX 10 32 1 -6
BITMAP
E000
FC00
1E00
0E00
0F00
0F00
0E00
0E00
0E00
1C00
1C00
1C00
1C00
0C00
0E00
0380
03C0
0E00
0C00
1C00
1C00
1C00
1C00
0E00
0E00
0E00
0F00
0F00
0E00
1E00
7C00
F000
ENDCHAR
STARTCHAR U+007E
ENCODING 126
SWIDTH 500 0
DWIDTH 19 0
BBX 16 5 2 10
BITMAP
3C03
7F03
C382
C1EE
807C
ENDCHAR
STARTCHAR U+3002
ENCODING 12290
SWIDTH 500 0
DWIDTH 32 0
BBX 9 9 1 -3
BITMAP
3F00
6180
4080
C080
C080
4080
6180
3F00
0C00
ENDCHAR
STARTCHAR U+4E1A
ENCODING 19994
SWIDTH 500 0
DWIDTH 32 0
BBX 29 28 2 -1
BITMAP
00608000
0078F000
0070F000
0070F000
0070F000
0070F000
0070F000
4070F1E0
2070F1F0
3070F1E0
3870F3C0
1C70F3C0
1C70F380
1E70F380
0E70F700
0E70F700
0F70F600
0F70FC00
0F70FC00
0770F800
0670F000
0070F000
0070F000
0070F000
0070F040
0070F0E0
0078F1F0
FFFFFFF8
ENDCHAR
STARTCHAR U+4F5C
ENCODING 20316
SWIDTH 500 0
DWIDTH 32 0
BBX 30 30 1 -3
BITMAP
01818000
01F1F000
03E1E000
03C3E000
03C3C020
0783C070
078780FC
0707FFFC
0F0F7800
0F0E7800
1F1C7800
1F187840
3F3078E0
3F207FF8
6F407800
CF007800
8F007800
0F007800
0F007860
0F0078F0
0F007FF8
0F007800
0F007800
0F007800
0F007800
0F007800
0F007800
0F007800
0F007800
0E007000
ENDCHAR
STARTCHAR U+4F9D
ENCODING 20381
SWIDTH 500 0
DWIDTH 32 0
BBX 30 30 1 -3
BITMAP
0301C000
03E0F000
07C0F000
07807820
07807870
0F0030F8
0F7FFFFC
0E00F000
1E01F000
1F01E020
1E03C830
3E03C878
3E0788FC
7E0F08F0
4E0F0DC0
8E1F0D80
0E3F0600
0E6F0600
0E8F0600
0E0F0700
0E0F0380
0E0F03C0
0E0F03C0
0E0F11F0
0E0FE1F8
0E0FC0FC
0E1F80F8
0E0F0070
0E0E0030
0C040000
ENDCHAR
STARTCHAR U+5143
ENCODING 20803
SWIDTH 500 0
DWIDTH 32 0
BBX 30 30 1 -3
BITMAP
00000100
00000380
000007C0
0FFFFFE0
00000000
00000000
00000000
00000000
00000000
00000070
000000F8
FFFFFFFC
00F87800
00F87800
00F07800
00F07800
00F07800
00F07800
00F07800
00E07800
01E07808
01E07808
03C07808
03807808
07807818
07007FFC
0E007FFC
18007FFC
60003FF8
80000000
ENDCHAR
STARTCHAR U+5148
ENCODING 20808
SWIDTH 500 0
DWIDTH 32 0
BBX 30 30 1 -3
BITMAP
0007C000
03C78000
03C78000
03C78000
07878180
078783C0
07FFFFE0
0E078000
0E078000
0C078000
18078000
10078060
00078070
7FFFFFF8
00F8F800
00F8F000
00F8F000
00F0F000
00F0F000
00F0F000
00F0F000
01E0F008
01E0F008
03C0F018
0380F018
0780FFFC
0E007FFC
1C007FFC
30003FF0
80000000
ENDCHAR
STARTCHAR U+5165
ENCODING 20837
SWIDTH 500 0
DWIDTH 32 0
BBX 30 30 1 -3
BITMAP
00300000
00780000
007C0000
003E0000
00070000
00030000
00038000
00038000
00078000
00078000
0007C000
000FC000
000FE000
000FE000
001FF000
001E7000
003E7800
003C7800
00783C00
00783E00
00F01F00
01E01F80
01C00FC0
03800FF0
070007F8
0E0003FC
1C0003F0
300001E0
600000C0
80000040
ENDCHAR
STARTCHAR U+516D
ENCODING 20845
SWIDTH 500 0
DWIDTH 32 0
BBX 30 29 1 -2
BITMAP
00180000
001F0000
000F8000
0007C000
0007C000
0003C040
0003C060
000100F8
7FFFFFFC
00000000
00000000
00000000
00C00000
00F81000
00F81C00
00F80E00
01F00700
01E00780
03E003C0
03C001E0
078001F0
078000F0
0F0000F8
0E000078
1C000078
1800007C
3000003C
60000038
80000010
ENDCHAR
STARTCHAR U+5199
ENCODING 20889
SWIDTH 500 0
DWIDTH 32 0
BBX 30 29 1 -3
BITMAP
08000020
08000070
1FFFFFFC
18000078
78F000F0
F8F000E0
F8E00080
71E00700
01E00F80
01FFFF80
01C00000
01C00000
03C00200
03C00780
07FFFFC0
01800780
00000780
00008780
0001C780
7FFFF700
00000700
00000F00
00000F00
00000F00
00001E00
0003FE00
0000FC00
00007C00
00007000
ENDCHAR
STARTCHAR U+5230
ENCODING 21040
SWIDTH 500 0
DWIDTH 32 0
BBX 28 30 2 -3
BITMAP
000400E0
000600F0
000F00F0
FFFFBCF0
078038F0
0F8038F0
0F3038F0
1E1C38F0
3C0E38F0
300F38F0
FFFF38F0
FFC738F0
7E0738F0
63C238F0
03C038F0
03C438F0
03CE38F0
FFFF38F0
03C038F0
03C038F0
03C038F0
03C038F0
03C1B0F0
03FE00F0
7FF800F0
FFC000F0
FE0007F0
F80003E0
400001E0
00000180
ENDCHAR
STARTCHAR U+5468
ENCODING 21608
SWIDTH 500 0
DWIDTH 32 0
BBX 27 29 2 -3
BITMAP
10000180
1E0003C0
1FFFFFE0
1C0F03C0
1C0F03C0
1C0E23C0
1C0E73C0
1CFFFBC0
1C0E03C0
1C0E03C0
1C0E33C0
1C0F7BC0
1DFFFBC0
1C0003C0
1CC063C0
1CFFF3C0
3CF0F3C0
3CF0F3C0
3CF0F3C0
3CF0F3C0
38F0F3C0
38FFF3C0
38F0F3C0
70F0E3C0
70C003C0
60000FC0
C00007C0
80000780
00000600
ENDCHAR
STARTCHAR U+5929
ENCODING 22825
SWIDTH 500 0
DWIDTH 32 0
BBX 30 29 1 -3
BITMAP
00000180
000003C0
1FFFFFF0
000F8000
000F8000
000F8000
000F0000
000F0000
000F0000
000F0060
000F0070
000F00F8
7FFFFFF8
000F8000
000F8000
001E8000
001E4000
001E6000
001C6000
003C3000
00783C00
00781E00
00F01F00
01E00FC0
038007F8
070003FC
1C0001F0
30000060
80000020
ENDCHAR
STARTCHAR U+5B66
ENCODING 23398
SWIDTH 500 0
DWIDTH 32 0
BBX 30 30 1 -3
BITMAP
040C0600
038707C0
03C78780
01E38F00
01E38E00
01E39C20
18C01070
1FFFFFFC
380000FC
780000F0
F8000EC0
F3FFFF00
60003F00
00003C00
00007000
0006C000
00078020
00078070
000780F8
7FFFFFF8
00078000
00078000
00078000
00078000
00078000
01878000
007F8000
001F8000
001F0000
001C0000
ENDCHAR
STARTCHAR U+5B9D
ENCODING 23453
SWIDTH 500 0
DWIDTH 32 0
BBX 30 28 1 -1
BITMAP
000F0000
00078000
0003C000
0003C020
08038070
1FFFFFF8
3800007C
78000070
F80000E0
F8000180
700003C0
0FFFFFE0
00078000
00078000
00078000
00078000
00078200
00078780
07FFFFC0
00078000
00079000
00078E00
00078F00
00078700
00078700
00078720
00078070
7FFFFFFC
ENDCHAR
STARTCHAR U+5C3D
ENCODING 23613
SWIDTH 500 0
DWIDTH 32 0
BBX 29 29 2 -3
BITMAP
0C000300
0FFFFFC0
0F0007C0
0F000780
0F000780
0F000780
0F000780
0F000780
0F000780
0FFFFF80
0F004780
0F004000
0F006000
0E003000
0E3E3800
1E1F1C00
1E0F9F00
1C07CF80
1C0387E0
380003F8
300001E0
61C000E0
C0FE0040
803FC000
000FE000
0003F000
0001F800
00007800
00003000
ENDCHAR
STARTCHAR U+5C71
ENCODING 23665
SWIDTH 500 0
DWIDTH 32 0
BBX 27 30 2 -3
BITMAP
00080000
000F8000
000F0000
000F0000
000F0000
000F0000
000F0000
600F01C0
780F01E0
780F01E0
780F01E0
780F01E0
780F01E0
780F01E0
780F01E0
780F01E0
780F01E0
780F01E0
780F01E0
780F01E0
780F01E0
780F01E0
780F01E0
780F01E0
780F01E0
780F01E0
FFFFFFE0
380001E0
000001E0
000001C0
ENDCHAR
STARTCHAR U+6539
ENCODING 25913
SWIDTH 500 0
DWIDTH 32 0
BBX 30 30 1 -3
BITMAP
00007000
0000FC00
0060F800
FFF8F000
00F8F000
00F0F000
00F1E038
00F1E07C
00F1FFFC
00F3C1E0
60F381E0
78F381E0
7FF781E0
78F603C0
784C43C0
780843C0
78106780
78006780
78003F00
78003F00
78081E00
78703E00
7BE03F00
7F807F80
FF00E7E0
7C03C3FC
780701F8
200C00F0
00300060
00800000
ENDCHAR
STARTCHAR U+653E
ENCODING 25918
SWIDTH 500 0
DWIDTH 32 0
BBX 30 30 1 -3
BITMAP
0C003800
07007C00
03807C00
03C07800
03C87800
019C7830
0FBE7078
1F00FFFC
1E00E0F0
0E00E0F0
0E10E1F0
1E39E1E0
1FFDA1E0
1E3D21E0
1E3B31E0
1E3A13C0
1C3813C0
1C381B80
1C381F80
1C380F00
1C380F00
18380F00
38781F80
38783FC0
30783BE0
30F071F8
63F0C1FC
41F380F8
81E60070
01880020
ENDCHAR
STARTCHAR U+65E5
ENCODING 26085
SWIDTH 500 0
DWIDTH 32 0
BBX 21 29 6 -3
BITMAP
000020
C00070
FFFFF8
F000F8
F000F8
F000F8
F000F8
F000F8
F000F8
F000F8
F000F8
F000F8
F000F8
FFFFF8
F000F8
F000F8
F000F8
F000F8
F000F8
F000F8
F000F8
F000F8
F000F8
F000F8
F000F8
F000F8
F000F8
F000F0
C00000
ENDCHAR
STARTCHAR U+65E6
ENCODING 26086
SWIDTH 500 0
DWIDTH 32 0
BBX 25 26 6 0
BITMAP
8000C000
F000E000
FFFFF000
F000F000
F000F000
F000F000
F000F000
F000F000
F000F000
F000F000
FFFFF000
F000F000
F000F000
F000F000
F000F000
F000F000
F000F000
F000F000
F000F000
FFFFF000
F000F000
F000E000
F000C000
00000C00
00000E00
00001F80
ENDCHAR
STARTCHAR U+6709
ENCODING 26377
SWIDTH 500 0
DWIDTH 32 0
BBX 29 30 2 -3
BITMAP
00380000
003E0000
003C0000
007C00C0
007801F0
FFFFFFF8
00F00000
00F00000
01E00000
03C00600
03C00F00
07FFFF80
0FC00F00
0FC00F00
1FC00F00
33C00F00
63FFFF00
83C00F00
03C00F00
03C00F00
03C00F00
03FFFF00
03C00F00
03C00F00
03C00F00
03C0CF00
03C03F00
03C01F00
03C01E00
03801800
ENDCHAR
STARTCHAR U+6CB3
ENCODING 27827
SWIDTH 500 0
DWIDTH 32 0
BBX 29 29 2 -3
BITMAP
38000060
3E0000F0
1EFFFFF8
0E0003C0
0C0003C0
000003C0
010003C0
E170E3C0
F37FF3C0
7A78F3C0
7A78F3C0
3678F3C0
0478F3C0
0C78F3C0
0C78F3C0
1878F3C0
187FF3C0
3878F3C0
3878F3C0
F078E3C0
707003C0
780003C0
380003C0
380003C0
3C0003C0
7C001FC0
7C000FC0
78000780
30000600
ENDCHAR
STARTCHAR U+6D41
ENCODING 27969
SWIDTH 500 0
DWIDTH 32 0
BBX 29 30 2 -3
BITMAP
3001C000
3C00E000
1E00F000
0F00F060
0F0060F0
06FFFFF8
0003E000
0083F000
E087C700
F10F03C0
793C03E0
3B7FFDE0
327FE0E0
067E00E0
06300040
0C3CF780
0C3CE780
1C3CE780
183CE780
383CE780
F838E780
7838E780
3838E780
3838E790
3C70E790
3C70E790
3C60E7F8
3CC0E3F8
3D80C3F0
3A000000
ENDCHAR
STARTCHAR U+6D77
ENCODING 28023
SWIDTH 500 0
DWIDTH 32 0
BBX 30 30 1 -3
BITMAP
300E0000
1E0F8000
0F0F0030
0F0E0078
071FFFFC
001C0000
009C0000
00BC00C0
F13FFFE0
797E01E0
395E41E0
3B9E71E0
021E39E0
061C39E0
061C31F8
043C01FC
0DFFFFFC
0C3C81C0
1C3C61C0
1C3871C0
783839C0
383831D0
1C7803F8
1C7FFFFC
1C3803C0
1E0003C0
1E003F80
3E001F80
3C000F00
18000C00
ENDCHAR
STARTCHAR U+7434
ENCODING 29748
SWIDTH 500 0
DWIDTH 32 0
BBX 30 30 1 -3
BITMAP
00100020
00380070
7FFDFFF8
03C01E00
03801E00
03981E60
03FC1EF0
3FFCFFF0
03801E00
03801E20
039C1E78
FFFFFFFC
000FC000
001F8000
003E6000
007C3E00
00F61FFC
03C38FF8
0F03C3F8
3C03C070
C0018600
07FFFF00
00001F80
00001E00
00003C00
00007C00
0000F800
0000F000
0001E000
0000E000
ENDCHAR
STARTCHAR U+767D
ENCODING 30333
SWIDTH 500 0
DWIDTH 32 0
BBX 25 30 4 -3
BITMAP
00780000
007C0000
00780000
00700000
00600000
C0C00E00
F8C01F00
F8001F80
F0000F00
F0000F00
F0000F00
F0000F00
F0000F00
F0000F00
F0000F00
F0000F00
FFFFFF00
F0000F00
F0000F00
F0000F00
F0000F00
F0000F00
F0000F00
F0000F00
F0000F00
F8000F00
FFFFFF00
F0000F00
F0000E00
40000800
ENDCHAR
STARTCHAR U+8BFE
ENCODING 35838
SWIDTH 500 0
DWIDTH 32 0
BBX 30 30 1 -3
BITMAP
10000000
1E1800E0
0F1FFFF0
0F1C78E0
079C78E0
071C78E0
001C78E0
061FFFE0
FF1C78E0
0F9C78E0
0F1C78E0
0F1C78E0
0F1FFFE0
0F1C79E0
0F187800
0F007830
0F00787C
0F3FFFFC
0F01FC00
0F01FE00
0F23FB00
0F63FB80
0FC779C0
0F8E79F0
1F1C78FC
1F387878
0E607830
04C07810
00007800
00007000
ENDCHAR
STARTCHAR U+8D1D
ENCODING 36125
SWIDTH 500 0
DWIDTH 32 0
BBX 29 30 1 -3
BITMAP
00000100
0E000380
0FFFFFE0
0F0003C0
0F0003C0
0F0403C0
0F07C3C0
0F0783C0
0F0783C0
0F0783C0
0F0783C0
0F0783C0
0F0783C0
0F0783C0
0F0783C0
0F0783C0
0F0F03C0
0F0F03C0
0F0F03C0
0F0F0380
0F1FC000
001E7C00
003C3F80
007C0FE0
00F807F0
01E003F8
03C001F8
0F0000F8
38000078
C0000030
ENDCHAR
STARTCHAR U+8FD8
ENCODING 36824
SWIDTH 500 0
DWIDTH 32 0
BBX 30 28 1 -2
BITMAP
38000070
1C0000F8
1E3FFFFC
0F001E00
0F003E00
07003C00
07007800
0000F800
0400F800
0F01FA00
FF83F9C0
0F03F8F0
0F0778F8
0F0C7878
0F18783C
0F20783C
0F407818
0F007800
0F007800
0F007800
0F007800
0F007800
1D807000
38E00000
F87E0000
F03FFFF8
601FFFF0
6007FFF0
ENDCHAR
STARTCHAR U+94A2
ENCODING 38050
SWIDTH 500 0
DWIDTH 32 0
BBX 30 30 1 -3
BITMAP
38000000
3E0E0030
3C4FFFFC
3CEF0078
3FFF0078
380F0778
700F07F8
700F4778
608F6778
41CF3F78
FFEF1E78
8F0F1E78
0E0F1E78
0E4F0E78
0E6F0E78
1FFF1F78
1F0F1F78
0E0F1F78
0E0F37F8
0E0F33F8
0E0F23F8
0E1F63F8
0E6F4178
0FCF0078
0FCF0078
1F8F0078
1F0F03F8
0E0F00F8
040F00F0
000600C0
ENDCHAR
STARTCHAR U+9EC4
ENCODING 40644
SWIDTH 500 0
DWIDTH 32 0
BBX 30 30 1 -3
BITMAP
00787C00
00707800
007078E0
007879F0
1FFFFFF0
00707800
00707820
00707878
7FFFFFFC
00078000
00078100
0E078380
0FFFFFC0
0F0783C0
0F0783C0
0F0783C0
0F0783C0
0FFFFFC0
0F0783C0
0F0783C0
0F0783C0
0F8783C0
0F8003C0
0F000380
00707800
00F81FC0
03FC07F0
0FC001F8
3E0000F8
E0000070
ENDCHAR
STARTCHAR U+FF0C
ENCODING 65292
SWIDTH 500 0
DWIDTH 32 0
BBX 5 12 2 -7
BITMAP
20
F8
F8
F8
F8
78
18
18
10
30
60
80
ENDCHAR
ENDFONT
