STARTFONT 2.1
FONT serif-b-24
SIZE 24 75 75
FONTBOUNDINGBOX 48 35 0 -7
STARTPROPERTIES 3
PIXEL_SIZE 24
FONT_ASCENT 28
FONT_DESCENT 7
ENDPROPERTIES
CHARS 127
STARTCHAR U+0020
ENCODING 32
SWIDTH 500 0
DWIDTH 6 0
BBX 0 0 0 0
BITMAP
ENDCHAR
STARTCHAR U+0021
ENCODING 33
SWIDTH 500 0
DWIDTH 9 0
BBX 4 18 2 0
BITMAP
70
F0
F0
F0
70
70
70
60
60
20
20
20
00
00
20
F0
F0
70
ENDCHAR
STARTCHAR U+0022
ENCODING 34
SWIDTH 500 0
DWIDTH 11 0
BBX 8 9 1 11
BITMAP
63
E7
E7
E7
63
63
63
43
40
ENDCHAR
STARTCHAR U+0023
ENCODING 35
SWIDTH 500 0
DWIDTH 15 0
BBX 13 17 1 0
BITMAP
0820
0820
0820
0860
7FF8
FFF8
1840
1040
1040
1040
FFF0
FFF0
3080
2080
2080
2080
2180
ENDCHAR
STARTCHAR U+0024
ENCODING 36
SWIDTH 500 0
DWIDTH 14 0
BBX 12 23 1 -3
BITMAP
0200
0200
0600
1EC0
32E0
6260
6260
6200
7200
7E00
3F00
1FC0
07E0
03F0
0270
0270
E270
6260
6260
3F80
0600
0200
0200
ENDCHAR
STARTCHAR U+0025
ENCODING 37
SWIDTH 500 0
DWIDTH 23 0
BBX 21 19 1 -1
BITMAP
3C0080
660180
C60100
C30200
C30600
C30400
C30800
C710E0
C61130
662318
384318
004318
008718
010718
010318
020318
040310
0401A0
080000
ENDCHAR
STARTCHAR U+0026
ENCODING 38
SWIDTH 500 0
DWIDTH 19 0
BBX 17 18 1 0
BITMAP
0F8000
18E000
386000
386000
386000
38C000
1D8000
1F0700
0F0200
378200
63C600
E1E400
E1E400
E0F800
E07800
F03C00
7CDE00
3F8F80
ENDCHAR
STARTCHAR U+0027
ENCODING 39
SWIDTH 500 0
DWIDTH 6 0
BBX 3 9 1 11
BITMAP
60
E0
E0
E0
60
60
60
40
40
ENDCHAR
STARTCHAR U+0028
ENCODING 40
SWIDTH 500 0
DWIDTH 10 0
BBX 6 23 2 -4
BITMAP
04
08
18
30
30
60
60
60
E0
E0
E0
E0
E0
E0
E0
60
60
60
30
30
18
08
04
ENDCHAR
STARTCHAR U+0029
ENCODING 41
SWIDTH 500 0
DWIDTH 10 0
BBX 6 25 1 -5
BITMAP
80
C0
60
20
30
18
18
1C
0C
0C
0C
0C
0C
0C
0C
0C
0C
1C
18
18
30
30
60
40
80
ENDCHAR
STARTCHAR U+002A
ENCODING 42
SWIDTH 500 0
DWIDTH 12 0
BBX 11 10 0 10
BITMAP
0600
0600
0600
4660
F5E0
3FC0
0600
1B00
3980
31C0
ENDCHAR
STARTCHAR U+002B
ENCODING 43
SWIDTH 500 0
DWIDTH 14 0
BBX 13 13 1 2
BITMAP
0200
0200
0200
0200
0200
0600
FFF8
0200
0200
0200
0200
0200
0200
ENDCHAR
STARTCHAR U+002C
ENCODING 44
SWIDTH 500 0
DWIDTH 8 0
BBX 4 7 2 -4
BITMAP
F0
F0
F0
30
20
60
C0
ENDCHAR
STARTCHAR U+002D
ENCODING 45
SWIDTH 500 0
DWIDTH 9 0
BBX 7 2 1 6
BITMAP
FC
FE
ENDCHAR
STARTCHAR U+002E
ENCODING 46
SWIDTH 500 0
DWIDTH 8 0
BBX 4 3 2 0
BITMAP
F0
F0
F0
ENDCHAR
STARTCHAR U+002F
ENCODING 47
SWIDTH 500 0
DWIDTH 10 0
BBX 8 23 1 -4
BITMAP
01
03
02
02
06
04
04
0C
0C
08
18
18
10
10
30
20
20
60
40
40
C0
C0
80
ENDCHAR
STARTCHAR U+0030
ENCODING 48
SWIDTH 500 0
DWIDTH 14 0
BBX 12 18 1 0
BITMAP
0F80
38C0
30E0
7060
6070
E070
E070
E070
E070
E070
E070
E070
E070
6070
7060
70E0
30C0
1D80
ENDCHAR
STARTCHAR U+0031
ENCODING 49
SWIDTH 500 0
DWIDTH 11 0
BBX 9 18 1 0
BITMAP
0E00
FE00
1E00
1E00
1E00
1E00
1E00
1E00
1E00
1E00
1E00
1E00
1E00
1E00
1E00
1E00
1E00
7F80
ENDCHAR
STARTCHAR U+0032
ENCODING 50
SWIDTH 500 0
DWIDTH 14 0
BBX 12 18 1 0
BITMAP
1F80
31E0
70E0
E0E0
60F0
00E0
00E0
01E0
01C0
0380
0700
0600
0800
1000
2000
7FF0
FFF0
FFF0
ENDCHAR
STARTCHAR U+0033
ENCODING 51
SWIDTH 500 0
DWIDTH 14 0
BBX 12 18 1 0
BITMAP
1F80
31C0
70E0
60E0
00E0
00E0
00E0
01C0
0F00
03C0
00E0
00E0
00F0
4070
E0F0
E0E0
61E0
3380
ENDCHAR
STARTCHAR U+0034
ENCODING 52
SWIDTH 500 0
DWIDTH 14 0
BBX 13 18 1 0
BITMAP
01C0
01C0
03C0
05C0
05C0
09C0
11C0
11C0
21C0
41C0
41C0
C1C0
FFF8
FFF0
01C0
01C0
01C0
01C0
ENDCHAR
STARTCHAR U+0035
ENCODING 53
SWIDTH 500 0
DWIDTH 14 0
BBX 12 18 1 0
BITMAP
3FE0
3FE0
3FE0
2000
2000
2000
2000
2E00
3FC0
01E0
00F0
00F0
0070
0070
E0F0
E0E0
61E0
3380
ENDCHAR
STARTCHAR U+0036
ENCODING 54
SWIDTH 500 0
DWIDTH 14 0
BBX 12 18 1 0
BITMAP
00E0
0300
0E00
1C00
3800
3800
7000
7380
F9E0
F0F0
E070
E070
E070
F070
7070
7070
38E0
1DC0
ENDCHAR
STARTCHAR U+0037
ENCODING 55
SWIDTH 500 0
DWIDTH 14 0
BBX 12 18 1 0
BITMAP
7FE0
FFF0
7FE0
0020
0040
0040
00C0
0080
0180
0180
0300
0300
0600
0600
0E00
0C00
1C00
1800
ENDCHAR
STARTCHAR U+0038
ENCODING 56
SWIDTH 500 0
DWIDTH 14 0
BBX 12 18 1 0
BITMAP
1F80
30C0
7060
6060
7060
7060
78C0
3C80
1F00
0FC0
13E0
70F0
60F0
E070
E070
6070
70E0
39C0
ENDCHAR
STARTCHAR U+0039
ENCODING 57
SWIDTH 500 0
DWIDTH 14 0
BBX 12 18 1 0
BITMAP
1F80
30C0
70E0
E070
E070
E070
E070
F070
7070
78F0
1FF0
00E0
00E0
01C0
0180
0300
0E00
3800
ENDCHAR
STARTCHAR U+003A
ENCODING 58
SWIDTH 500 0
DWIDTH 8 0
BBX 4 13 2 0
BITMAP
60
F0
F0
60
00
00
00
00
00
00
F0
F0
F0
ENDCHAR
STARTCHAR U+003B
ENCODING 59
SWIDTH 500 0
DWIDTH 8 0
BBX 4 17 2 -4
BITMAP
60
F0
F0
60
00
00
00
00
00
00
F0
F0
F0
30
20
60
C0
ENDCHAR
STARTCHAR U+003C
ENCODING 60
SWIDTH 500 0
DWIDTH 14 0
BBX 12 12 1 3
BITMAP
0030
00E0
0380
0E00
1800
6000
C000
3000
0C00
0700
01C0
0070
ENDCHAR
STARTCHAR U+003D
ENCODING 61
SWIDTH 500 0
DWIDTH 14 0
BBX 13 7 1 5
BITMAP
FFF8
0000
0000
0000
0000
FFF0
FFF0
ENDCHAR
STARTCHAR U+003E
ENCODING 62
SWIDTH 500 0
DWIDTH 14 0
BBX 11 12 2 3
BITMAP
8000
6000
1800
0600
0180
00E0
0060
01C0
0300
0C00
3000
C000
ENDCHAR
STARTCHAR U+003F
ENCODING 63
SWIDTH 500 0
DWIDTH 11 0
BBX 8 18 2 0
BITMAP
F0
F8
7E
02
01
03
07
1E
3E
78
60
20
00
00
20
70
F0
70
ENDCHAR
STARTCHAR U+0040
ENCODING 64
SWIDTH 500 0
DWIDTH 23 0
BBX 21 22 1 -4
BITMAP
003C00
01C380
060040
0C0020
180010
303910
20EF08
41C708
418608
438608
C30608
830E08
870E08
870E10
C31C20
43EE40
41C380
600000
200000
100000
0C0200
03FC00
ENDCHAR
STARTCHAR U+0041
ENCODING 65
SWIDTH 500 0
DWIDTH 18 0
BBX 18 18 0 0
BITMAP
00C000
01E000
01E000
01E000
02F000
027000
027000
047800
043800
043800
0C3C00
0FFC00
081C00
181E00
100E00
100E00
300F00
FC3FC0
ENDCHAR
STARTCHAR U+0042
ENCODING 66
SWIDTH 500 0
DWIDTH 17 0
BBX 15 18 1 0
BITMAP
FFE0
3C78
3C3C
3C1C
3C1C
3C1C
3C38
3C30
3FE0
3C78
3C1C
3C1E
3C0E
3C0E
3C0E
3C1C
3C38
FFE0
ENDCHAR
STARTCHAR U+0043
ENCODING 67
SWIDTH 500 0
DWIDTH 17 0
BBX 15 18 1 0
BITMAP
03F8
0E0E
1C06
3806
7806
7000
F000
F000
F000
F000
F000
F000
7000
7006
7806
3C06
1E0E
079C
ENDCHAR
STARTCHAR U+0044
ENCODING 68
SWIDTH 500 0
DWIDTH 19 0
BBX 17 18 1 0
BITMAP
FFC000
3C3800
3C1C00
3C0E00
3C0F00
3C0700
3C0700
3C0780
3C0780
3C0780
3C0780
3C0780
3C0700
3C0700
3C0E00
3C1C00
3C3800
FFE000
ENDCHAR
STARTCHAR U+0045
ENCODING 69
SWIDTH 500 0
DWIDTH 16 0
BBX 14 18 1 0
BITMAP
FFF8
3C18
3C08
3C0C
3C08
3C00
3C20
3C20
3C60
3C60
3C20
3C20
3C00
3C04
3C0C
3C0C
3C0C
FFFC
ENDCHAR
STARTCHAR U+0046
ENCODING 70
SWIDTH 500 0
DWIDTH 16 0
BBX 14 18 1 0
BITMAP
FFF8
3C1C
3C0C
3C0C
3C0C
3C00
3C20
3C20
3C60
3C60
3C20
3C20
3C00
3C00
3C00
3C00
3C00
FF00
ENDCHAR
STARTCHAR U+0047
ENCODING 71
SWIDTH 500 0
DWIDTH 18 0
BBX 17 18 1 0
BITMAP
03FC00
0E0E00
1C0600
380600
780600
700000
F00000
F00000
F00000
F03F80
F00E00
F00E00
700E00
700E00
380E00
3C0E00
1E0E00
079C00
ENDCHAR
STARTCHAR U+0048
ENCODING 72
SWIDTH 500 0
DWIDTH 21 0
BBX 19 18 1 0
BITMAP
FF1FE0
3C0780
3C0700
3C0700
3C0700
3C0700
3C0700
3C0700
3FFF00
3C0700
3C0700
3C0700
3C0700
3C0700
3C0700
3C0700
3C0700
FF1FE0
ENDCHAR
STARTCHAR U+0049
ENCODING 73
SWIDTH 500 0
DWIDTH 10 0
BBX 8 18 1 0
BITMAP
FF
3C
3C
3C
3C
3C
3C
3C
3C
3C
3C
3C
3C
3C
3C
3C
3C
FF
ENDCHAR
STARTCHAR U+004A
ENCODING 74
SWIDTH 500 0
DWIDTH 10 0
BBX 10 22 -1 -4
BITMAP
3FC0
0700
0700
0700
0700
0700
0700
0700
0700
0700
0700
0700
0700
0700
0700
0700
0700
0700
0600
E600
FC00
7000
ENDCHAR
STARTCHAR U+004B
ENCODING 75
SWIDTH 500 0
DWIDTH 18 0
BBX 17 18 1 0
BITMAP
FF1F00
3C0C00
3C0800
3C1000
3C2000
3C6000
3C4000
3CC000
3DE000
3EF000
3C7000
3C7800
3C3800
3C3C00
3C1C00
3C1E00
3C0E00
FF3F80
ENDCHAR
STARTCHAR U+004C
ENCODING 76
SWIDTH 500 0
DWIDTH 15 0
BBX 14 18 1 0
BITMAP
FF00
3C00
3C00
3C00
3C00
3C00
3C00
3C00
3C00
3C00
3C00
3C00
3C00
3C0C
3C0C
3C0C
3C1C
FFFC
ENDCHAR
STARTCHAR U+004D
ENCODING 77
SWIDTH 500 0
DWIDTH 24 0
BBX 22 18 1 0
BITMAP
FC00FC
3C00F0
3E01F0
3E01F0
2F01F0
2F02F0
2702F0
2784F0
2384F0
2384F0
23C8F0
21C8F0
21F0F0
20F0F0
20F0F0
20E0F0
2060F0
FC63FC
ENDCHAR
STARTCHAR U+004E
ENCODING 78
SWIDTH 500 0
DWIDTH 20 0
BBX 18 18 1 0
BITMAP
F81FC0
3C0300
3E0200
3F0200
2F0200
278200
23C200
23C200
21E200
20F200
20F200
207A00
203E00
203E00
201E00
200E00
200600
FC0600
ENDCHAR
STARTCHAR U+004F
ENCODING 79
SWIDTH 500 0
DWIDTH 19 0
BBX 17 18 1 0
BITMAP
07F000
1C1800
380E00
380E00
700F00
700700
F00700
F00780
F00780
F00780
F00780
F00700
700700
700700
780E00
380E00
1C1C00
077000
ENDCHAR
STARTCHAR U+0050
ENCODING 80
SWIDTH 500 0
DWIDTH 16 0
BBX 14 18 1 0
BITMAP
FFC0
3C78
3C3C
3C1C
3C1C
3C1C
3C1C
3C1C
3C38
3C70
3FC0
3C00
3C00
3C00
3C00
3C00
3C00
FF00
ENDCHAR
STARTCHAR U+0051
ENCODING 81
SWIDTH 500 0
DWIDTH 19 0
BBX 17 23 1 -5
BITMAP
07F000
1C1800
380E00
380E00
700F00
700700
F00700
F00780
F00780
F00780
F00780
F00700
700700
700700
780E00
380E00
1C1C00
077000
01C000
01C000
01C000
00E000
007E00
ENDCHAR
STARTCHAR U+0052
ENCODING 82
SWIDTH 500 0
DWIDTH 18 0
BBX 17 18 1 0
BITMAP
FFE000
3C3800
3C1C00
3C1C00
3C1E00
3C1E00
3C1C00
3C1800
3C7000
3FE000
3C7800
3C3800
3C3C00
3C3C00
3C1C00
3C1C00
3C1C00
FF0F80
ENDCHAR
STARTCHAR U+0053
ENCODING 83
SWIDTH 500 0
DWIDTH 14 0
BBX 12 18 1 0
BITMAP
1FC0
3860
7060
7020
7020
7000
7800
7E00
3F80
0FE0
03F0
00F0
0070
C070
C070
C070
E0E0
7FC0
ENDCHAR
STARTCHAR U+0054
ENCODING 84
SWIDTH 500 0
DWIDTH 17 0
BBX 15 18 1 0
BITMAP
FFFE
C386
C386
8386
8382
0380
0380
0380
0380
0380
0380
0380
0380
0380
0380
0380
0380
1FF0
ENDCHAR
STARTCHAR U+0055
ENCODING 85
SWIDTH 500 0
DWIDTH 20 0
BBX 18 18 1 0
BITMAP
FF0FC0
3C0300
3C0200
3C0200
3C0200
3C0200
3C0200
3C0200
3C0200
3C0200
3C0200
3C0200
3C0200
3C0200
1C0200
1E0400
0F1C00
07F800
ENDCHAR
STARTCHAR U+0056
ENCODING 86
SWIDTH 500 0
DWIDTH 18 0
BBX 17 18 0 0
BITMAP
FF0F80
3C0200
3C0200
1C0600
1E0400
1E0400
0E0400
0F0800
0F0800
070800
079000
079000
039000
03E000
01E000
01E000
01C000
00C000
ENDCHAR
STARTCHAR U+0057
ENCODING 87
SWIDTH 500 0
DWIDTH 26 0
BBX 26 18 0 0
BITMAP
FF1FCFC0
3C070300
3C0F0200
1C0F0200
1C0F0200
1E0F8600
0E138400
0E138400
0E138400
0F23C800
0721C800
0721C800
07C1E800
03C0F000
03C0F000
03C0F000
03806000
01806000
ENDCHAR
STARTCHAR U+0058
ENCODING 88
SWIDTH 500 0
DWIDTH 17 0
BBX 17 18 0 0
BITMAP
7F1F00
3C0400
1E0800
0E0800
0F1000
072000
07A000
03C000
01C000
01E000
01E000
02F000
047800
047800
083C00
181C00
101E00
FC7F80
ENDCHAR
STARTCHAR U+0059
ENCODING 89
SWIDTH 500 0
DWIDTH 17 0
BBX 16 18 1 0
BITMAP
FE3F
780C
3808
3C18
1C10
1E10
0E20
0F20
0740
07C0
0780
0380
0380
0380
0380
0380
0380
1FF0
ENDCHAR
STARTCHAR U+005A
ENCODING 90
SWIDTH 500 0
DWIDTH 15 0
BBX 13 18 1 0
BITMAP
FFF8
C078
C070
C0F0
C1E0
01C0
03C0
0780
0780
0F00
0E00
1E00
3C00
3C08
7808
7018
F018
FFF8
ENDCHAR
STARTCHAR U+005B
ENCODING 91
SWIDTH 500 0
DWIDTH 9 0
BBX 5 23 3 -4
BITMAP
F8
C0
C0
C0
C0
C0
C0
C0
C0
C0
C0
C0
C0
C0
C0
C0
C0
C0
C0
C0
C0
C0
F8
ENDCHAR
STARTCHAR U+005C
ENCODING 92
SWIDTH 500 0
DWIDTH 10 0
BBX 8 23 1 -4
BITMAP
80
80
C0
40
40
60
60
20
30
30
10
10
18
08
08
0C
04
04
06
06
02
03
03
ENDCHAR
STARTCHAR U+005D
ENCODING 93
SWIDTH 500 0
DWIDTH 9 0
BBX 5 23 1 -4
BITMAP
F8
18
18
18
18
18
18
18
18
18
18
18
18
18
18
18
18
18
18
18
18
18
F8
ENDCHAR
STARTCHAR U+005E
ENCODING 94
SWIDTH 500 0
DWIDTH 14 0
BBX 10 7 2 6
BITMAP
0C00
1E00
1300
3100
2180
40C0
C040
ENDCHAR
STARTCHAR U+005F
ENCODING 95
SWIDTH 500 0
DWIDTH 14 0
BBX 14 2 0 -2
BITMAP
FFFC
FFFC
ENDCHAR
STARTCHAR U+0060
ENCODING 96
SWIDTH 500 0
DWIDTH 11 0
BBX 5 5 2 15
BITMAP
E0
60
30
18
08
ENDCHAR
STARTCHAR U+0061
ENCODING 97
SWIDTH 500 0
DWIDTH 14 0
BBX 12 13 1 0
BITMAP
3F80
71C0
61C0
60E0
00E0
03E0
18E0
70E0
E0E0
E0E0
E1E0
F3E0
7CF0
ENDCHAR
STARTCHAR U+0062
ENCODING 98
SWIDTH 500 0
DWIDTH 16 0
BBX 14 20 1 0
BITMAP
0800
F800
3800
3800
3800
3800
3800
3BF0
3C78
3838
383C
381C
381C
381C
381C
381C
383C
3838
3C78
FBE0
ENDCHAR
STARTCHAR U+0063
ENCODING 99
SWIDTH 500 0
DWIDTH 14 0
BBX 12 13 1 0
BITMAP
0FC0
38E0
7060
7070
F000
E000
E000
E000
F000
F000
7800
3C60
1FC0
ENDCHAR
STARTCHAR U+0064
ENCODING 100
SWIDTH 500 0
DWIDTH 16 0
BBX 14 20 1 0
BITMAP
0010
01F0
0070
0070
0070
0070
0070
1F70
3CF0
7070
7070
F070
E070
E070
E070
F070
F070
7070
78F0
1F7C
ENDCHAR
STARTCHAR U+0065
ENCODING 101
SWIDTH 500 0
DWIDTH 14 0
BBX 12 13 1 0
BITMAP
1F80
38E0
7060
7070
E070
F0F0
FFE0
E000
F000
F000
7800
3C60
1FC0
ENDCHAR
STARTCHAR U+0066
ENCODING 102
SWIDTH 500 0
DWIDTH 10 0
BBX 11 20 1 0
BITMAP
03C0
0DE0
18C0
1800
3800
3800
3800
FF00
3800
3800
3800
3800
3800
3800
3800
3800
3800
3800
3800
FE00
ENDCHAR
STARTCHAR U+0067
ENCODING 103
SWIDTH 500 0
DWIDTH 14 0
BBX 13 19 1 -6
BITMAP
3FB8
71F8
60E0
E0E0
E0E0
E0E0
71C0
3B80
2000
4000
E000
7FE0
7FF0
67F8
C038
C030
C030
E060
7F80
ENDCHAR
STARTCHAR U+0068
ENCODING 104
SWIDTH 500 0
DWIDTH 16 0
BBX 15 20 1 0
BITMAP
0800
F800
3800
3800
3800
3800
3800
39F0
3A78
3838
3838
3838
3838
3838
3838
3838
3838
3838
3838
FCFE
ENDCHAR
STARTCHAR U+0069
ENCODING 105
SWIDTH 500 0
DWIDTH 8 0
BBX 6 19 1 0
BITMAP
38
78
38
00
00
00
38
F8
38
38
38
38
38
38
38
38
38
38
FC
ENDCHAR
STARTCHAR U+006A
ENCODING 106
SWIDTH 500 0
DWIDTH 8 0
BBX 8 25 -2 -6
BITMAP
07
0F
07
00
00
00
07
1F
07
07
07
07
07
07
07
07
07
07
07
07
07
06
06
EC
F8
ENDCHAR
STARTCHAR U+006B
ENCODING 107
SWIDTH 500 0
DWIDTH 16 0
BBX 14 20 1 0
BITMAP
0800
F800
3800
3800
3800
3800
3800
38FC
3820
3840
3880
3980
3B80
3FC0
39C0
38E0
38E0
3870
3878
FC3C
ENDCHAR
STARTCHAR U+006C
ENCODING 108
SWIDTH 500 0
DWIDTH 9 0
BBX 7 20 1 0
BITMAP
08
F8
38
38
38
38
38
38
38
38
38
38
38
38
38
38
38
38
38
FE
ENDCHAR
STARTCHAR U+006D
ENCODING 109
SWIDTH 500 0
DWIDTH 24 0
BBX 22 13 1 0
BITMAP
39F1F0
FEF6F0
3C7878
383838
383838
383838
383838
383838
383838
383838
383838
383838
FCFCFC
ENDCHAR
STARTCHAR U+006E
ENCODING 110
SWIDTH 500 0
DWIDTH 16 0
BBX 15 13 1 0
BITMAP
39F0
FA78
3838
3838
3838
3838
3838
3838
3838
3838
3838
3838
FCFE
ENDCHAR
STARTCHAR U+006F
ENCODING 111
SWIDTH 500 0
DWIDTH 15 0
BBX 13 13 1 0
BITMAP
1FC0
38E0
7070
7070
F078
E078
E038
E038
F078
F070
7070
38E0
1DC0
ENDCHAR
STARTCHAR U+0070
ENCODING 112
SWIDTH 500 0
DWIDTH 16 0
BBX 14 19 1 -6
BITMAP
3BF0
FC78
3838
383C
381C
381C
381C
381C
381C
383C
3838
3C78
3BE0
3800
3800
3800
3800
3800
FC00
ENDCHAR
STARTCHAR U+0071
ENCODING 113
SWIDTH 500 0
DWIDTH 15 0
BBX 14 19 1 -6
BITMAP
1F10
3CF0
7070
7070
F070
E070
E070
E070
F070
F070
7070
78F0
3F70
0070
0070
0070
0070
0070
00FC
ENDCHAR
STARTCHAR U+0072
ENCODING 114
SWIDTH 500 0
DWIDTH 12 0
BBX 11 13 1 0
BITMAP
39E0
FBE0
3CE0
3C00
3800
3800
3800
3800
3800
3800
3800
3800
FE00
ENDCHAR
STARTCHAR U+0073
ENCODING 115
SWIDTH 500 0
DWIDTH 12 0
BBX 10 13 1 0
BITMAP
3F80
6180
E080
E080
F000
7E00
7F80
1FC0
03C0
C1C0
C1C0
C180
7700
ENDCHAR
STARTCHAR U+0074
ENCODING 116
SWIDTH 500 0
DWIDTH 9 0
BBX 8 17 1 0
BITMAP
18
38
38
38
FF
78
78
78
78
78
78
78
78
78
78
38
3F
ENDCHAR
STARTCHAR U+0075
ENCODING 117
SWIDTH 500 0
DWIDTH 16 0
BBX 14 13 1 0
BITMAP
F878
7878
7838
7838
7838
7838
7838
7838
7838
7838
3878
3DF8
1F3C
ENDCHAR
STARTCHAR U+0076
ENCODING 118
SWIDTH 500 0
DWIDTH 14 0
BBX 14 13 0 0
BITMAP
FE7C
7810
3830
3C20
1C20
1C40
1E40
0E40
0E80
0780
0700
0700
0300
ENDCHAR
STARTCHAR U+0077
ENCODING 119
SWIDTH 500 0
DWIDTH 21 0
BBX 21 13 0 0
BITMAP
FC7CF8
783820
383820
387840
3C5C40
1C5C40
1C9C80
1C8E80
0E0E80
0F0F00
0F0700
060700
060600
ENDCHAR
STARTCHAR U+0078
ENCODING 120
SWIDTH 500 0
DWIDTH 14 0
BBX 14 13 0 0
BITMAP
7E7C
3C10
1C20
1E40
0F40
0780
0780
07C0
05C0
09E0
10F0
3070
F9FC
ENDCHAR
STARTCHAR U+0079
ENCODING 121
SWIDTH 500 0
DWIDTH 14 0
BBX 14 19 0 -6
BITMAP
FC7C
7810
3810
3C00
1C20
1C20
1E00
0E40
0E40
0780
0780
0300
0300
0300
0200
0200
4000
F400
F800
ENDCHAR
STARTCHAR U+007A
ENCODING 122
SWIDTH 500 0
DWIDTH 12 0
BBX 11 13 1 0
BITMAP
FFC0
C1C0
C380
8780
0700
0F00
0E00
1C00
3C00
3860
7060
F060
FFE0
ENDCHAR
STARTCHAR U+007B
ENCODING 123
SWIDTH 500 0
DWIDTH 9 0
BBX 7 23 1 -4
BITMAP
1E
38
30
30
30
38
18
18
18
18
30
E0
30
18
18
18
18
38
30
30
30
38
1E
ENDCHAR
STARTCHAR U+007C
ENCODING 124
SWIDTH 500 0
DWIDTH 8 0
BBX 2 27 3 -7
BITMAP
C0
C0
C0
C0
C0
C0
C0
C0
C0
C0
C0
C0
C0
C0
C0
C0
C0
C0
C0
C0
C0
C0
C0
C0
C0
C0
C0
ENDCHAR
STARTCHAR U+007D
ENCODING 125
SWIDTH 500 0
DWIDTH 9 0
BBX 7 23 1 -4
BITMAP
F0
38
18
18
18
18
38
30
30
30
18
0E
18
30
30
30
38
18
18
18
18
38
F0
ENDCHAR
STARTCHAR U+007E
ENCODING 126
SWIDTH 500 0
DWIDTH 14 0
BBX 12 4 1 7
BITMAP
7C10
4610
C3F0
80C0
ENDCHAR
STARTCHAR U+3002
ENCODING 12290
SWIDTH 500 0
DWIDTH 24 0
BBX 7 7 1 -2
BITMAP
38
44
82
82
82
44
38
ENDCHAR
STARTCHAR U+4E1A
ENCODING 19994
SWIDTH 500 0
DWIDTH 24 0
BBX 21 21 2 -1
BITMAP
039E00
039C00
039C00
039C00
039C00
839C70
439C70
639CE0
339CE0
339CC0
3B9CC0
3B9D80
1B9D80
1B9F00
1B9E00
1B9E00
039C00
039C00
039C30
039C78
FFFFF8
ENDCHAR
STARTCHAR U+4F5C
ENCODING 20316
SWIDTH 500 0
DWIDTH 24 0
BBX 22 22 1 -2
BITMAP
071C00
071C00
0E3C00
0E3818
1C383C
1C7F00
186600
3CC600
3CC630
7D8738
5C07F8
9C0600
1C0600
1C0610
1C0638
1C07FC
1C0600
1C0600
1C0600
1C0600
1C0600
180600
ENDCHAR
STARTCHAR U+4F9D
ENCODING 20381
SWIDTH 500 0
DWIDTH 24 0
BBX 22 22 1 -2
BITMAP
0E1C00
0E0E00
1E0E10
1C0638
1FFFFC
381E00
3C1E00
383C18
78383C
787138
F87170
B8F1C0
39F180
3A7080
3870C0
3870E0
387070
387278
387C7C
38F83C
387018
384000
ENDCHAR
STARTCHAR U+5143
ENCODING 20803
SWIDTH 500 0
DWIDTH 24 0
BBX 23 22 1 -2
BITMAP
000040
0000E0
1FFFF0
000000
000000
000000
000010
000038
FFFFFC
038E00
038E00
038E00
038E00
038E00
070E00
070E04
060E04
0E0E0C
1C0F0C
180FFE
2007FC
800000
ENDCHAR
STARTCHAR U+5148
ENCODING 20808
SWIDTH 500 0
DWIDTH 24 0
BBX 22 22 1 -2
BITMAP
0C7800
0F7000
0E7000
0C7060
1FFFF0
187800
187000
307000
207010
007838
FFFFF8
038E00
038E00
038E00
038E00
070E00
070E00
0E0E08
0C0E0C
180FFC
300FFC
C00000
ENDCHAR
STARTCHAR U+5165
ENCODING 20837
SWIDTH 500 0
DWIDTH 24 0
BBX 22 22 1 -2
BITMAP
018000
03C000
00E000
003000
003000
003000
003800
007800
007800
007C00
00FC00
00EE00
01E700
01C700
038780
0703C0
0703E0
0E01F8
1800FC
3000F8
600070
800020
ENDCHAR
STARTCHAR U+516D
ENCODING 20845
SWIDTH 500 0
DWIDTH 24 0
BBX 22 21 1 -1
BITMAP
00E000
007000
007800
003800
003830
000038
FFFFFC
000000
000000
038000
03C300
078180
0780C0
0700E0
0E0070
0E0078
1C0038
18003C
30001C
60001C
40001C
ENDCHAR
STARTCHAR U+5199
ENCODING 20889
SWIDTH 500 0
DWIDTH 24 0
BBX 22 22 1 -2
BITMAP
000010
100038
30003C
720038
F38030
E700A0
4701C0
07FFC0
070000
060000
0E00C0
0FFFE0
0400C0
0008C0
001DC0
FFFDC0
0001C0
0001C0
000380
003F80
000F80
000E00
ENDCHAR
STARTCHAR U+5230
ENCODING 21040
SWIDTH 500 0
DWIDTH 24 0
BBX 22 22 1 -2
BITMAP
00201C
007818
7FFB98
0F0318
1E8318
1C6318
307318
77FB18
7F3B18
7E1318
070318
072318
077318
7FF318
070318
070318
070318
07E018
FF8018
FC00F8
700078
000030
ENDCHAR
STARTCHAR U+5468
ENCODING 21608
SWIDTH 500 0
DWIDTH 24 0
BBX 21 22 1 -2
BITMAP
000020
380070
3C0078
383070
383070
387770
387070
383070
383270
3BFF70
380070
390670
39FF70
398670
398670
398670
31FE70
318670
618070
6001F0
4000F0
8000E0
ENDCHAR
STARTCHAR U+5929
ENCODING 22825
SWIDTH 500 0
DWIDTH 24 0
BBX 22 21 1 -2
BITMAP
000060
3FFFF0
007000
007000
007000
007000
007010
007038
7FFFFC
007000
007800
00E800
00EC00
00E400
01C600
038380
0303C0
0601F0
1C00FC
300078
C00010
ENDCHAR
STARTCHAR U+5B66
ENCODING 23398
SWIDTH 500 0
DWIDTH 24 0
BBX 22 22 1 -2
BITMAP
0C60C0
0E31E0
073980
273B00
221218
3FFFFC
600038
E00120
EFFFC0
0007C0
000E00
003800
003810
00783C
007800
003800
003800
003800
007800
03F000
00F000
00E000
ENDCHAR
STARTCHAR U+5B9D
ENCODING 23453
SWIDTH 500 0
DWIDTH 24 0
BBX 22 21 1 -1
BITMAP
007000
003800
003810
303838
70003C
F00038
E00020
E000E0
1FFFF0
003000
003000
003000
0030C0
0079E0
007800
003300
0031C0
0031C0
0030C0
003018
FFFFFC
ENDCHAR
STARTCHAR U+5C3D
ENCODING 23613
SWIDTH 500 0
DWIDTH 24 0
BBX 22 22 1 -2
BITMAP
000040
0E00E0
0E00F0
0E0060
0E0060
0E0060
0E0060
0FFFE0
0C0460
0C0400
1C0200
1CF300
1C79C0
183DE0
3818F8
30007C
600038
41F000
807E00
001F00
000F00
000700
ENDCHAR
STARTCHAR U+5C71
ENCODING 23665
SWIDTH 500 0
DWIDTH 24 0
BBX 20 22 2 -2
BITMAP
00F000
00E000
00E000
00E000
00E000
E0E070
E0E070
E0E070
E0E070
E0E070
E0E070
E0E070
E0E070
E0E070
E0E070
E0E070
E0E070
E0E070
E0E070
FFFFF0
600070
000060
ENDCHAR
STARTCHAR U+6539
ENCODING 25913
SWIDTH 500 0
DWIDTH 24 0
BBX 22 22 1 -2
BITMAP
000F00
010E00
FF8E00
038E00
039C18
039C3C
039870
03B870
73B070
73E870
6348E0
60C0E0
6004E0
6007C0
600780
618380
7F0780
FE0FE0
F81CF8
70307C
40C030
030010
ENDCHAR
STARTCHAR U+653E
ENCODING 25918
SWIDTH 500 0
DWIDTH 24 0
BBX 22 22 1 -2
BITMAP
180700
0E0700
0E0700
064E00
06EE18
380FFC
380C38
380C70
39DC70
39F470
39D070
39C260
39C2E0
31C3E0
31C1C0
31C180
3183C0
6187E0
6386F8
4F8C7C
873038
064010
ENDCHAR
STARTCHAR U+65E5
ENCODING 26085
SWIDTH 500 0
DWIDTH 24 0
BBX 16 21 4 -2
BITMAP
C006
FFFF
E007
E007
E007
E007
E007
E007
E007
FFFF
E007
E007
E007
E007
E007
E007
E007
E007
FFFF
E007
E006
ENDCHAR
STARTCHAR U+65E6
ENCODING 26086
SWIDTH 500 0
DWIDTH 24 0
BBX 18 19 5 0
BITMAP
C01C00
FFFE00
E01C00
E01C00
E01C00
E01C00
E01C00
FFFC00
E01C00
E01C00
E01C00
E01C00
E01C00
E01C00
E01C00
E01C00
C00000
000380
0003C0
ENDCHAR
STARTCHAR U+6709
ENCODING 26377
SWIDTH 500 0
DWIDTH 24 0
BBX 21 22 2 -2
BITMAP
01C000
01C000
03C060
03C0F8
078000
070000
060000
0E0180
1E03C0
1E01C0
3E01C0
6FFFC0
8E01C0
0E01C0
0E01C0
0FFFC0
0E01C0
0E01C0
0E01C0
0E0FC0
0E0380
0E0300
ENDCHAR
STARTCHAR U+6CB3
ENCODING 27827
SWIDTH 500 0
DWIDTH 24 0
BBX 22 22 1 -2
BITMAP
300010
38001C
1DFFFC
1C0070
000070
800070
E0CE70
74CE70
34C670
08C670
08C670
18C670
10CE70
30CE70
30C670
F0C070
300070
300070
380070
3803F0
7800F0
3000E0
ENDCHAR
STARTCHAR U+6D41
ENCODING 27969
SWIDTH 500 0
DWIDTH 24 0
BBX 22 22 1 -2
BITMAP
300E00
1C0600
1C0618
0DFFFC
001E00
801E00
623860
70E070
35FFB8
05F818
08C010
08EE60
18EE60
18EE60
30EE60
70EE60
30CE60
38CE64
398E64
398E7C
3B0E7C
340038
ENDCHAR
STARTCHAR U+6D77
ENCODING 28023
SWIDTH 500 0
DWIDTH 24 0
BBX 22 22 1 -2
BITMAP
307000
387010
1CE03C
18E000
00C000
01E070
E5FFF0
76E070
7CE670
08E670
18C278
19E07C
11C070
31CC70
31C660
71C660
31C078
33FFFC
3880E0
3807E0
3803C0
300180
ENDCHAR
STARTCHAR U+7434
ENCODING 29748
SWIDTH 500 0
DWIDTH 24 0
BBX 22 22 1 -2
BITMAP
008010
7FDFF8
0E0380
0E0390
0EC3B8
0E0380
0E0380
0EC398
FFFFFC
00F800
01EC00
03C780
0733FC
1C38F8
701818
001980
0003C0
000380
000700
000F00
001E00
001C00
ENDCHAR
STARTCHAR U+767D
ENCODING 30333
SWIDTH 500 0
DWIDTH 24 0
BBX 19 22 3 -2
BITMAP
01E000
01C000
018000
030180
E303C0
E001E0
E001C0
E001C0
E001C0
E001C0
E001C0
E001C0
F003C0
E001C0
E001C0
E001C0
E001C0
E001C0
E001C0
FFFFC0
E001C0
E00180
ENDCHAR
STARTCHAR U+8BFE
ENCODING 35838
SWIDTH 500 0
DWIDTH 24 0
BBX 22 22 1 -2
BITMAP
308020
18FFF8
1CC630
0CC630
00C630
08FFF0
FCC630
1CC630
1CC630
1CFFF0
1CC600
1C0618
1DFFFC
1C1F00
1C1F80
1D3EC0
1E7660
1E6678
3CC63C
190618
120600
000600
ENDCHAR
STARTCHAR U+8D1D
ENCODING 36125
SWIDTH 500 0
DWIDTH 24 0
BBX 22 22 1 -2
BITMAP
100040
1FFFF0
1C00E0
1C00E0
1C38E0
1C78E0
1C78E0
1C70E0
1C70E0
1C70E0
1C70E0
1C70E0
1C70E0
1C70E0
1CF0E0
10EE00
01E7C0
01C1F0
0380F8
0E007C
18003C
E0001C
ENDCHAR
STARTCHAR U+8FD8
ENCODING 36824
SWIDTH 500 0
DWIDTH 24 0
BBX 22 22 1 -2
BITMAP
400010
300038
39FFFC
1C0780
1C0700
0C0F00
000E00
181E00
FC3E70
1C3E38
1C6E3C
1C8E1C
1D0E1C
1C0E00
1C0E00
1C0E00
1C0E00
360E00
F38000
E1FFFC
C0FFF8
400FF0
ENDCHAR
STARTCHAR U+94A2
ENCODING 38050
SWIDTH 500 0
DWIDTH 24 0
BBX 22 22 1 -2
BITMAP
784010
707FFC
73701C
7FF018
6071F8
4079D8
C275D8
FF7398
187398
187398
1B7398
FFF398
1873D8
1872D8
1876F8
1874F8
197858
1E7018
3E7018
3C70F8
187038
006030
ENDCHAR
STARTCHAR U+9EC4
ENCODING 40644
SWIDTH 500 0
DWIDTH 24 0
BBX 22 22 1 -2
BITMAP
038700
038730
038F78
038700
038710
038738
FFFFFC
003000
1870E0
1FFFF0
1C30E0
1C30E0
1FFFE0
1C30E0
1C30E0
1C30E0
1FFFE0
1D0040
0387C0
0FC0F0
1E0078
700038
ENDCHAR
STARTCHAR U+FF0C
ENCODING 65292
SWIDTH 500 0
DWIDTH 24 0
BBX 5 8 1 -5
BITMAP
70
F8
78
30
10
30
20
40
ENDCHAR
ENDFONT
