STARTFONT 2.1
FONT serif-b-40
SIZE 40 75 75
FONTBOUNDINGBOX 80 59 0 -12
STARTPROPERTIES 3
PIXEL_SIZE 40
FONT_ASCENT 47
FONT_DESCENT 12
ENDPROPERTIES
CHARS 127
STARTCHAR U+0020
ENCODING 32
SWIDTH 500 0
DWIDTH 10 0
BBX 0 0 0 0
BITMAP
ENDCHAR
STARTCHAR U+0021
ENCODING 33
SWIDTH 500 0
DWIDTH 14 0
BBX 6 31 4 -1
BITMAP
78
FC
FC
FC
FC
FC
FC
FC
7C
78
78
78
78
38
30
30
30
30
30
30
00
00
00
00
78
FC
FC
FC
FC
7C
30
ENDCHAR
STARTCHAR U+0022
ENCODING 34
SWIDTH 500 0
DWIDTH 18 0
BBX 14 14 2 19
BITMAP
7038
F87C
F87C
F87C
F87C
F87C
F878
7878
7878
7038
7038
7030
3030
3030
ENDCHAR
STARTCHAR U+0023
ENCODING 35
SWIDTH 500 0
DWIDTH 25 0
BBX 23 29 1 0
BITMAP
008060
008060
018060
018060
018060
018040
0180C0
0380C0
7FFFFE
7FFFFE
7FFFFE
0301C0
030080
030180
020180
020180
060180
FFFFF8
FFFFF8
FFFFF8
FFFFF8
0C0300
0C0300
0C0300
0C0300
0C0200
0C0600
080600
080600
ENDCHAR
STARTCHAR U+0024
ENCODING 36
SWIDTH 500 0
DWIDTH 24 0
BBX 20 38 2 -5
BITMAP
006000
006000
006000
006000
03FC00
0FE700
1E63C0
3C63C0
3863E0
7863E0
7861E0
7860C0
7C6000
7C6000
7E6000
3FE000
3FF000
1FFC00
07FF00
03FF80
00FFC0
007FE0
0067E0
0063E0
0061E0
0061F0
7061E0
F861E0
F861E0
7861C0
7863C0
3C6700
0FFE00
01E000
006000
006000
006000
006000
ENDCHAR
STARTCHAR U+0025
ENCODING 37
SWIDTH 500 0
DWIDTH 39 0
BBX 35 31 2 -1
BITMAP
0F00000000
39C0003000
70E0006000
70E0006000
F07000C000
E070018000
E070018000
E070030000
E078060000
E078060000
E0780C0000
E070180000
E070101E00
F070307300
70F060E380
70E041C1C0
38C0C1C1C0
1F8183C1E0
000103C1E0
000303C1E0
000603C1E0
000403C1E0
000C03C1E0
001803C1E0
003003C1E0
003001C1C0
006001C1C0
00C000C1C0
00C000E380
0180007F00
0100000000
ENDCHAR
STARTCHAR U+0026
ENCODING 38
SWIDTH 500 0
DWIDTH 32 0
BBX 30 31 1 -1
BITMAP
00FF0000
03E78000
0783C000
0781E000
0F01E000
0F01E000
0F01E000
0F81E000
0F81C000
07C3C000
07C70000
03EE0FFC
03F801F0
01F800C0
01FC00C0
067E00C0
1E7F0180
3C3F8180
3C1FC180
780FC300
7807E200
7803F600
F803FC00
FC01FC00
7C00FE00
7E007F00
7F00FF80
3FC39FC0
1FFF0FE0
07FE07FC
00E00040
ENDCHAR
STARTCHAR U+0027
ENCODING 39
SWIDTH 500 0
DWIDTH 9 0
BBX 5 14 2 19
BITMAP
70
F8
F8
F8
F8
F8
F8
78
78
70
70
70
30
30
ENDCHAR
STARTCHAR U+0028
ENCODING 40
SWIDTH 500 0
DWIDTH 16 0
BBX 10 41 4 -8
BITMAP
0040
00C0
0180
0380
0700
0600
0E00
1C00
1C00
3800
3800
7800
7000
F000
F000
F000
F000
F000
F000
F000
F000
F000
F000
F000
F000
F000
F000
F000
7800
7800
7800
3800
3C00
1C00
0E00
0E00
0700
0380
0180
00C0
0040
ENDCHAR
STARTCHAR U+0029
ENCODING 41
SWIDTH 500 0
DWIDTH 16 0
BBX 10 41 2 -8
BITMAP
8000
C000
6000
7000
3800
1800
1C00
0E00
0E00
0700
0700
0780
0780
03C0
03C0
03C0
03C0
03C0
03C0
03C0
03C0
03C0
03C0
03C0
03C0
03C0
03C0
03C0
0380
0780
0780
0700
0F00
0E00
1C00
1C00
3800
3000
6000
C000
8000
ENDCHAR
STARTCHAR U+002A
ENCODING 42
SWIDTH 500 0
DWIDTH 19 0
BBX 18 17 1 16
BITMAP
01C000
01E000
01E000
01C000
01C000
E0C380
F8C7C0
FC9FC0
7FFF80
00C000
01E000
037000
0F3800
1E3C00
1E1E00
3C1E00
1C0E00
ENDCHAR
STARTCHAR U+002B
ENCODING 43
SWIDTH 500 0
DWIDTH 24 0
BBX 22 21 1 4
BITMAP
003000
003000
003000
003000
003000
003000
003000
003000
003000
7FFFF8
FFFFFC
003800
003000
003000
003000
003000
003000
003000
003000
003000
003000
ENDCHAR
STARTCHAR U+002C
ENCODING 44
SWIDTH 500 0
DWIDTH 13 0
BBX 7 13 3 -7
BITMAP
18
7C
7E
7E
7E
7E
1E
0C
0C
18
38
70
C0
ENDCHAR
STARTCHAR U+002D
ENCODING 45
SWIDTH 500 0
DWIDTH 15 0
BBX 11 3 2 10
BITMAP
FFE0
FFE0
FFE0
ENDCHAR
STARTCHAR U+002E
ENCODING 46
SWIDTH 500 0
DWIDTH 13 0
BBX 7 7 3 -1
BITMAP
38
7C
7E
FE
7E
7C
18
ENDCHAR
STARTCHAR U+002F
ENCODING 47
SWIDTH 500 0
DWIDTH 16 0
BBX 14 39 1 -7
BITMAP
000C
001C
001C
0018
0038
0038
0030
0030
0070
0060
0060
00E0
00C0
00C0
01C0
01C0
0180
0380
0380
0300
0300
0700
0600
0600
0E00
0C00
0C00
1C00
1C00
1800
3800
3800
3000
3000
7000
6000
6000
E000
C000
ENDCHAR
STARTCHAR U+0030
ENCODING 48
SWIDTH 500 0
DWIDTH 24 0
BBX 20 31 2 -1
BITMAP
03F800
071E00
0E0F00
1E0780
3C07C0
3C03C0
7C03E0
7803E0
F803E0
F801E0
F801F0
F801F0
F801F0
F801F0
F801F0
F801F0
F801F0
F801F0
F801F0
F801F0
F801F0
F803E0
7803E0
7C03E0
7C03C0
3C03C0
1C0780
1E0700
0F0E00
03FC00
00E000
ENDCHAR
STARTCHAR U+0031
ENCODING 49
SWIDTH 500 0
DWIDTH 19 0
BBX 15 30 2 0
BITMAP
00E0
1FE0
FFE0
07E0
07E0
07E0
07E0
07E0
07E0
07E0
07E0
07E0
07E0
07E0
07E0
07E0
07E0
07E0
07E0
07E0
07E0
07E0
07E0
07E0
07E0
07E0
07E0
07E0
3FF8
FFFE
ENDCHAR
STARTCHAR U+0032
ENCODING 50
SWIDTH 500 0
DWIDTH 24 0
BBX 20 30 2 0
BITMAP
07FE00
1C3F00
3C0F80
7C07C0
7807C0
7807E0
F807E0
7007E0
0007E0
0007E0
0007C0
0007C0
000F80
000F00
001F00
003E00
007C00
007000
00E000
01C000
038000
070000
0E0000
1C0000
180000
300000
7FFFF0
FFFFF0
FFFFF0
FFFFF0
ENDCHAR
STARTCHAR U+0033
ENCODING 51
SWIDTH 500 0
DWIDTH 24 0
BBX 19 31 2 -1
BITMAP
07FC00
1C3F00
3C0F80
3C07C0
7C07C0
7807C0
7807E0
0007E0
0007C0
0007C0
0007C0
000F80
001F00
007C00
03F000
007E00
001F80
000FC0
0007E0
0007E0
0003E0
0003E0
6003E0
F003E0
F003E0
F807E0
F807C0
780FC0
381F00
1FFE00
01E000
ENDCHAR
STARTCHAR U+0034
ENCODING 52
SWIDTH 500 0
DWIDTH 24 0
BBX 22 31 1 -1
BITMAP
000780
000F80
000F80
001F80
003F80
002F80
006F80
004F80
008F80
018F80
010F80
020F80
060F80
040F80
0C0F80
180F80
100F80
300F80
600F80
7FFFF8
FFFFFC
FFFFFC
FFFFFC
000F80
000F80
000F80
000F80
000F80
000F80
000F80
000780
ENDCHAR
STARTCHAR U+0035
ENCODING 53
SWIDTH 500 0
DWIDTH 24 0
BBX 20 31 2 -1
BITMAP
1FFFC0
1FFFE0
1FFFE0
1FFFE0
1FFFC0
180000
100000
100000
100000
300000
300000
300000
33F000
3FFE00
383F80
000FC0
0007E0
0007E0
0003E0
0003F0
0003F0
0003F0
4003F0
F003E0
F003E0
F007E0
F807C0
780F80
381F00
1FFC00
03E000
ENDCHAR
STARTCHAR U+0036
ENCODING 54
SWIDTH 500 0
DWIDTH 24 0
BBX 20 31 2 -1
BITMAP
0003E0
000F00
003C00
00F000
01E000
07C000
0F8000
0F0000
1F0000
3E0000
3E0000
7C0000
7C7E00
7DFF80
FF0FC0
FC07E0
F803E0
F803F0
F801F0
F801F0
F801F0
F801F0
FC01F0
FC01F0
7C03E0
7C03E0
3E03C0
1E07C0
0F0F80
07FE00
00F000
ENDCHAR
STARTCHAR U+0037
ENCODING 55
SWIDTH 500 0
DWIDTH 24 0
BBX 19 30 2 0
BITMAP
7FFFE0
FFFFE0
FFFFE0
FFFFE0
7FFFC0
0000C0
0000C0
000180
000180
000300
000700
000700
000E00
000E00
001C00
001C00
003C00
003800
007800
007800
00F000
00F000
01E000
01E000
03E000
03C000
07C000
078000
0F8000
0F8000
ENDCHAR
STARTCHAR U+0038
ENCODING 56
SWIDTH 500 0
DWIDTH 24 0
BBX 20 31 2 -1
BITMAP
03FC00
0F0F00
1E0780
3C03C0
7C03C0
7803C0
7803E0
7C03C0
7C03C0
7E03C0
7E0380
3F8700
3FCE00
1FF800
0FFC00
03FF00
03FF80
0E3FC0
1C1FE0
3807E0
7807E0
7803F0
F801F0
F801F0
F801E0
F801E0
7803E0
7C03C0
3E0780
0FFE00
01F000
ENDCHAR
STARTCHAR U+0039
ENCODING 57
SWIDTH 500 0
DWIDTH 24 0
BBX 20 31 2 -1
BITMAP
07FC00
0F1F00
3E0780
3C07C0
7C03C0
F803E0
F803E0
F803E0
F803F0
F803F0
F803F0
F801F0
FC03F0
7C03F0
7E03F0
3F03F0
1FCFE0
0FFBE0
0003E0
0007C0
0007C0
000F80
000F80
001F00
003E00
007C00
00F000
01E000
078000
3E0000
200000
ENDCHAR
STARTCHAR U+003A
ENCODING 58
SWIDTH 500 0
DWIDTH 13 0
BBX 7 22 3 -1
BITMAP
7C
7E
FE
7E
7C
3C
00
00
00
00
00
00
00
00
00
38
7C
7E
FE
7E
7C
18
ENDCHAR
STARTCHAR U+003B
ENCODING 59
SWIDTH 500 0
DWIDTH 13 0
BBX 7 28 3 -7
BITMAP
7C
7E
FE
7E
7C
3C
00
00
00
00
00
00
00
00
00
18
7C
7E
7E
7E
7E
1E
0C
0C
18
38
70
C0
ENDCHAR
STARTCHAR U+003C
ENCODING 60
SWIDTH 500 0
DWIDTH 24 0
BBX 19 21 2 4
BITMAP
000060
0001E0
000780
001F00
007C00
00F000
03C000
0F0000
3C0000
F00000
E00000
780000
1C0000
0F0000
03C000
00F000
003C00
000F00
0003C0
0000E0
000060
ENDCHAR
STARTCHAR U+003D
ENCODING 61
SWIDTH 500 0
DWIDTH 24 0
BBX 22 11 1 9
BITMAP
FFFFFC
7FFFFC
000000
000000
000000
000000
000000
000000
000000
7FFFFC
FFFFFC
ENDCHAR
STARTCHAR U+003E
ENCODING 62
SWIDTH 500 0
DWIDTH 24 0
BBX 19 21 3 4
BITMAP
C00000
F00000
3C0000
0F0000
07C000
01E000
007800
001E00
000780
0001E0
0000E0
0001C0
000780
001E00
007800
01E000
078000
1E0000
780000
F00000
C00000
ENDCHAR
STARTCHAR U+003F
ENCODING 63
SWIDTH 500 0
DWIDTH 19 0
BBX 12 31 4 -1
BITMAP
F800
FE00
FF00
FFC0
7FE0
01E0
0030
0030
0030
0030
0070
01F0
0FF0
3FE0
3FC0
7F00
7800
3000
3000
3000
0000
0000
0000
0000
7800
FC00
FC00
FE00
FC00
7C00
3000
ENDCHAR
STARTCHAR U+0040
ENCODING 64
SWIDTH 500 0
DWIDTH 39 0
BBX 35 36 2 -7
BITMAP
0003FFC000
001F00F000
0038003800
00E0000E00
0180000700
0300000300
0600000180
0C00000080
1C00F8C0C0
1803FFC0C0
300787C040
300F03C060
601E078060
601C078060
603C078060
C03C078060
C078078060
C0780F8060
C0780F0040
C0780F00C0
C0780F00C0
C0780F0180
C0781F0100
C07C3F0300
C07FEF0600
603FC7F800
600F03E000
7000000000
3000000000
1800000000
1C00000000
0E00000000
0700000000
01E0038000
007FFE0000
000FF00000
ENDCHAR
STARTCHAR U+0041
ENCODING 65
SWIDTH 500 0
DWIDTH 30 0
BBX 28 30 1 0
BITMAP
000F0000
000F0000
001F8000
001F8000
001F8000
003FC000
0037C000
0027C000
0067E000
0063E000
0043E000
00C3F000
00C3F000
0081F000
0181F800
0181F800
0180F800
0300FC00
0300FC00
03FFFC00
07007E00
06007E00
06003E00
0C003F00
0C003F00
0C001F00
18001F80
18001F80
7E007FE0
FF81FFF0
ENDCHAR
STARTCHAR U+0042
ENCODING 66
SWIDTH 500 0
DWIDTH 28 0
BBX 25 30 2 0
BITMAP
FFFF0000
FFFFF000
0F81F800
0F80FC00
0F807E00
0F803E00
0F803E00
0F803E00
0F803E00
0F803E00
0F807C00
0F807C00
0F80F000
0F83C000
0FFF8000
0F83F800
0F807C00
0F803E00
0F803F00
0F801F80
0F801F80
0F801F80
0F801F80
0F801F80
0F801F00
0F803F00
0F803E00
0F80FC00
3FC7F000
FFFF8000
ENDCHAR
STARTCHAR U+0043
ENCODING 67
SWIDTH 500 0
DWIDTH 28 0
BBX 24 31 2 -1
BITMAP
003FF8
01FC1E
03E00F
07C00F
0F8007
1F0007
3F0007
3E0007
7E0003
7E0000
FC0000
FC0000
FC0000
FC0000
FC0000
FC0000
FC0000
FC0000
FC0000
FC0000
7C0000
7E0000
7E0003
3E0003
3F0007
1F8007
0FC007
07E00F
03F80F
00FFFC
000FE0
ENDCHAR
STARTCHAR U+0044
ENCODING 68
SWIDTH 500 0
DWIDTH 32 0
BBX 28 30 2 0
BITMAP
FFFE0000
FFFFE000
0F80F800
0F807E00
0F801F00
0F801F80
0F800F80
0F800FC0
0F8007C0
0F8007E0
0F8007E0
0F8003E0
0F8003E0
0F8003F0
0F8003F0
0F8003F0
0F8003F0
0F8003F0
0F8003E0
0F8007E0
0F8007E0
0F8007C0
0F8007C0
0F800F80
0F800F80
0F801F00
0F803E00
0F80FC00
3FC7F000
FFFF8000
ENDCHAR
STARTCHAR U+0045
ENCODING 69
SWIDTH 500 0
DWIDTH 27 0
BBX 23 30 2 0
BITMAP
FFFFFC
FFFFFC
0F801C
0F801C
0F801C
0F801C
0F800C
0F800C
0F8000
0F8000
0F80C0
0F80C0
0F80C0
0F81C0
0FFFC0
0FFFC0
0F81C0
0F80C0
0F80C0
0F8080
0F8000
0F8000
0F8006
0F8006
0F800E
0F800E
0F800E
0F800E
3FC01E
FFFFFE
ENDCHAR
STARTCHAR U+0046
ENCODING 70
SWIDTH 500 0
DWIDTH 26 0
BBX 22 30 2 0
BITMAP
FFFFFC
FFFFFC
0F801C
0F801C
0F801C
0F800C
0F800C
0F800C
0F8000
0F8000
0F80C0
0F80C0
0F80C0
0F81C0
0FFFC0
0FFFC0
0F80C0
0F80C0
0F80C0
0F80C0
0F8000
0F8000
0F8000
0F8000
0F8000
0F8000
0F8000
0F8000
3FF000
FFFC00
ENDCHAR
STARTCHAR U+0047
ENCODING 71
SWIDTH 500 0
DWIDTH 30 0
BBX 28 31 2 -1
BITMAP
003FF800
00FC1F00
03E00F00
07C00700
0F800700
1F000700
3F000700
3E000300
7E000300
7E000000
FC000000
FC000000
FC000000
FC000000
FC000000
FC000F80
FC01FFF0
FC001F80
FC000F80
FC000F80
7C000F80
7E000F80
7E000F80
3F000F80
1F000F80
1F800F80
0FC00F80
07E00F80
01F01F00
007FFC00
000FE000
ENDCHAR
STARTCHAR U+0048
ENCODING 72
SWIDTH 500 0
DWIDTH 35 0
BBX 31 30 2 0
BITMAP
FFF83FFC
FFF83FFE
0F8007E0
0F8007E0
0F8007E0
0F8007E0
0F8007E0
0F8007E0
0F8007E0
0F8007E0
0F8007E0
0F8007E0
0F8007E0
0F8007E0
0FFFFFE0
0FFFFFE0
0F8007E0
0F8007E0
0F8007E0
0F8007E0
0F8007E0
0F8007E0
0F8007E0
0F8007E0
0F8007E0
0F8007E0
0F8007E0
0F8007E0
3FE00FF8
FFF83FFE
ENDCHAR
STARTCHAR U+0049
ENCODING 73
SWIDTH 500 0
DWIDTH 17 0
BBX 13 30 2 0
BITMAP
FFF8
FFF8
0F80
0F80
0F80
0F80
0F80
0F80
0F80
0F80
0F80
0F80
0F80
0F80
0F80
0F80
0F80
0F80
0F80
0F80
0F80
0F80
0F80
0F80
0F80
0F80
0F80
0F80
3FE0
FFF8
ENDCHAR
STARTCHAR U+004A
ENCODING 74
SWIDTH 500 0
DWIDTH 17 0
BBX 17 36 -1 -6
BITMAP
1FFF00
1FFF80
01F800
01F800
01F800
01F800
01F800
01F800
01F800
01F800
01F800
01F800
01F800
01F800
01F800
01F800
01F800
01F800
01F800
01F800
01F800
01F800
01F800
01F800
01F800
01F800
01F800
01F800
01F000
01F000
01F000
01E000
F9E000
FDC000
FF8000
7E0000
ENDCHAR
STARTCHAR U+004B
ENCODING 75
SWIDTH 500 0
DWIDTH 31 0
BBX 29 30 2 0
BITMAP
FFF87FE0
FFF87FE0
0F800600
0F800C00
0F801800
0F803000
0F803000
0F806000
0F80C000
0F818000
0F830000
0F838000
0F878000
0F8FC000
0F9FC000
0FB7E000
0FE7E000
0FC3F000
0FC3F000
0F81F800
0F81F800
0F80FC00
0F807E00
0F807E00
0F803F00
0F803F00
0F801F80
0F801F80
3FE03FE0
FFF87FF8
ENDCHAR
STARTCHAR U+004C
ENCODING 76
SWIDTH 500 0
DWIDTH 26 0
BBX 22 30 2 0
BITMAP
FFF800
FFF800
0F8000
0F8000
0F8000
0F8000
0F8000
0F8000
0F8000
0F8000
0F8000
0F8000
0F8000
0F8000
0F8000
0F8000
0F8000
0F8000
0F8000
0F8000
0F8000
0F8004
0F800C
0F800C
0F801C
0F801C
0F801C
0F801C
3FC03C
FFFFFC
ENDCHAR
STARTCHAR U+004D
ENCODING 77
SWIDTH 500 0
DWIDTH 40 0
BBX 37 30 1 0
BITMAP
7FC0000FF8
7FE0001FF8
07E0001F80
07F0003F80
07F0003F80
05F0002F80
05F8006F80
05F8006F80
04FC00CF80
04FC00CF80
047C008F80
047E018F80
047E018F80
043F010F80
0C3F030F80
0C1F030F80
0C1F860F80
0C1F860F80
0C0F840F80
0C0FCC0F80
0C0FCC0F80
0C07E80F80
0C07F80F80
0C03F00F80
0C03F00F80
0C03F00F80
0C01E00F80
0C01E00F80
3F80E03FE0
FFE0C0FFF8
ENDCHAR
STARTCHAR U+004E
ENCODING 78
SWIDTH 500 0
DWIDTH 33 0
BBX 29 30 2 0
BITMAP
FF801FF8
FF801FF8
1FC00180
1FE00080
1FE00080
1FF00080
1BF80080
19F80080
19FC0080
18FE0080
187F0080
183F0080
183F8080
181FC080
180FC080
180FE080
1807F080
1803F080
1803F880
1801FC80
1800FC80
1800FE80
18007F80
18003F80
18003F80
18001F80
18000F80
18000780
7F000780
FFC00380
ENDCHAR
STARTCHAR U+004F
ENCODING 79
SWIDTH 500 0
DWIDTH 31 0
BBX 28 31 2 -1
BITMAP
007FE000
01F0F800
07C03C00
0F801E00
1F001F00
1F000F80
3E000F80
7E0007C0
7E0007C0
7C0007E0
FC0007E0
FC0007E0
FC0007E0
FC0007E0
FC0003F0
FC0003F0
FC0007E0
FC0007E0
FC0007E0
FC0007E0
7C0007E0
7E0007E0
7E0007C0
3E000FC0
3E000F80
1F001F00
0F801F00
07803E00
03E07800
00FFE000
001F0000
ENDCHAR
STARTCHAR U+0050
ENCODING 80
SWIDTH 500 0
DWIDTH 27 0
BBX 24 30 2 0
BITMAP
FFFE00
FFFFE0
0F81F8
0F80FC
0F807E
0F803E
0F803E
0F803F
0F803F
0F803F
0F803F
0F803E
0F803E
0F807E
0F807C
0F81F8
0FCFE0
0FFF00
0F8000
0F8000
0F8000
0F8000
0F8000
0F8000
0F8000
0F8000
0F8000
0F8000
3FF000
FFFC00
ENDCHAR
STARTCHAR U+0051
ENCODING 81
SWIDTH 500 0
DWIDTH 31 0
BBX 28 39 2 -9
BITMAP
007FE000
01F0F800
07C03C00
0F801E00
1F001F00
1F000F80
3E000F80
7E0007C0
7E0007C0
7C0007E0
FC0007E0
FC0007E0
FC0007E0
FC0007E0
FC0003F0
FC0003F0
FC0007E0
FC0007E0
FC0007E0
FC0007E0
7C0007E0
7E0007E0
7E0007C0
3E000FC0
3E000F80
1F001F00
0F801F00
07803E00
03E07800
00FFE000
001F8000
001F0000
001F0000
001F8000
000F8000
000FC000
0007E000
0003FFC0
0000FF00
ENDCHAR
STARTCHAR U+0052
ENCODING 82
SWIDTH 500 0
DWIDTH 30 0
BBX 28 31 2 -1
BITMAP
FFFF0000
FFFFF000
0F80FC00
0F807E00
0F803E00
0F803F00
0F801F00
0F801F00
0F801F00
0F801F00
0F803F00
0F803E00
0F807C00
0F80F800
0FC3E000
0FFF8000
0F83F000
0F81F800
0F80F800
0F80FC00
0F80FC00
0F807C00
0F807E00
0F807E00
0F807E00
0F803E00
0F803F00
0F803F00
3FE03F80
FFF81FF0
00000100
ENDCHAR
STARTCHAR U+0053
ENCODING 83
SWIDTH 500 0
DWIDTH 24 0
BBX 20 31 2 -1
BITMAP
03FF00
0F83C0
1E01E0
3C01E0
7C01E0
7C00E0
7C00E0
7C00C0
7C0000
7E0000
7F0000
7F8000
3FF000
1FFC00
0FFF00
07FF80
01FFC0
007FE0
001FF0
0007F0
0003F0
0001F0
E001F0
E001F0
E001F0
E001F0
F003E0
F003C0
F80F80
3FFE00
03F000
ENDCHAR
STARTCHAR U+0054
ENCODING 84
SWIDTH 500 0
DWIDTH 28 0
BBX 26 30 1 0
BITMAP
FFFFFF80
FFFFFFC0
F03F03C0
E03F03C0
E03F01C0
E03F01C0
E03F01C0
C03F01C0
C03F00C0
003F0000
003F0000
003F0000
003F0000
003F0000
003F0000
003F0000
003F0000
003F0000
003F0000
003F0000
003F0000
003F0000
003F0000
003F0000
003F0000
003F0000
003F0000
003F0000
00FFC000
03FFF000
ENDCHAR
STARTCHAR U+0055
ENCODING 85
SWIDTH 500 0
DWIDTH 33 0
BBX 29 31 2 -1
BITMAP
FFF81FF8
FFF81FF8
1F8001C0
1F800080
1F800080
1F800080
1F800080
1F800080
1F800080
1F800080
1F800080
1F800080
1F800080
1F800080
1F800080
1F800080
1F800080
1F800080
1F800080
1F800080
1F800180
1F800180
0F800180
0FC00180
0FC00300
07E00300
07F00600
03FC1E00
01FFFC00
007FF000
000F8000
ENDCHAR
STARTCHAR U+0056
ENCODING 86
SWIDTH 500 0
DWIDTH 29 0
BBX 29 30 0 0
BITMAP
7FF80FF8
FFF80FF8
1F8001C0
0FC00180
0FC00180
0FC00180
07E00300
07E00300
07E00300
03F00600
03F00600
03F00600
01F80C00
01F80C00
00F80800
00FC1800
00FC1800
007C1000
007E3000
007E3000
003E2000
003F6000
003F6000
001F4000
001FC000
001FC000
000F8000
000F8000
000F8000
00070000
ENDCHAR
STARTCHAR U+0057
ENCODING 87
SWIDTH 500 0
DWIDTH 44 0
BBX 42 30 1 0
BITMAP
FFF07FF87FC0
FFF07FF87FC0
3F000F800E00
1F800F800C00
1F800F800C00
1F801FC00C00
0F801FC01800
0FC01FC01800
0FC037C01800
07C037E01800
07E033E03000
07E023E03000
07E063F03000
03E063F02000
03F041F06000
03F0C1F06000
01F0C1F86000
01F080F8C000
01F880F8C000
01F980FCC000
00F9807C8000
00F9007D8000
00FF007D8000
007F007F0000
007E003F0000
007E003F0000
007E003F0000
003C001E0000
003C001E0000
003C001E0000
ENDCHAR
STARTCHAR U+0058
ENCODING 88
SWIDTH 500 0
DWIDTH 29 0
BBX 28 30 0 0
BITMAP
7FFC3FE0
7FFC3FE0
0FC00600
07E00600
07E00C00
03F00C00
03F81800
01F83000
00FC3000
00FC6000
007E4000
007FC000
003F8000
003F8000
001F8000
000FC000
000FC000
001FE000
0017F000
0033F000
0061F800
0041F800
00C0FC00
0180FE00
01807E00
03007F00
06003F00
06001F80
3F807FE0
FFC1FFF0
ENDCHAR
STARTCHAR U+0059
ENCODING 89
SWIDTH 500 0
DWIDTH 28 0
BBX 27 30 1 0
BITMAP
FFF03FE0
FFF83FE0
3F800600
1F800600
1FC00C00
0FC00C00
0FE01800
07E01800
07F03000
03F03000
03F82000
01F86000
01FC4000
00FCC000
00FC8000
007F8000
007F0000
003F0000
003F0000
003F0000
003F0000
003F0000
003F0000
003F0000
003F0000
003F0000
003F0000
003F0000
00FFC000
03FFF000
ENDCHAR
STARTCHAR U+005A
ENCODING 90
SWIDTH 500 0
DWIDTH 25 0
BBX 23 30 1 0
BITMAP
7FFFFC
7FFFFC
7000FC
7001FC
7001F8
7003F0
6007F0
6007E0
600FC0
000FC0
001F80
003F80
003F00
007E00
007E00
00FC00
01FC00
01F800
03F000
07F000
07E000
0FE004
0FC006
1F800E
3F800E
3F000E
7E001E
7E001E
FE003E
FFFFFE
ENDCHAR
STARTCHAR U+005B
ENCODING 91
SWIDTH 500 0
DWIDTH 15 0
BBX 10 39 4 -7
BITMAP
FFC0
FF80
7800
7800
7800
7800
7800
7800
7800
7800
7800
7800
7800
7800
7800
7800
7800
7800
7800
7800
7800
7800
7800
7800
7800
7800
7800
7800
7800
7800
7800
7800
7800
7800
7800
7800
7800
FF00
FFC0
ENDCHAR
STARTCHAR U+005C
ENCODING 92
SWIDTH 500 0
DWIDTH 16 0
BBX 14 39 1 -7
BITMAP
C000
E000
E000
6000
7000
7000
3000
3000
3800
1800
1800
1C00
0C00
0C00
0E00
0E00
0600
0700
0700
0300
0300
0380
0180
0180
01C0
00C0
00C0
00E0
00E0
0060
0070
0070
0030
0030
0038
0018
0018
001C
000C
ENDCHAR
STARTCHAR U+005D
ENCODING 93
SWIDTH 500 0
DWIDTH 15 0
BBX 9 39 1 -7
BITMAP
FF80
7F80
0780
0780
0780
0780
0780
0780
0780
0780
0780
0780
0780
0780
0780
0780
0780
0780
0780
0780
0780
0780
0780
0780
0780
0780
0780
0780
0780
0780
0780
0780
0780
0780
0780
0780
0780
3F80
FF80
ENDCHAR
STARTCHAR U+005E
ENCODING 94
SWIDTH 500 0
DWIDTH 24 0
BBX 16 13 4 9
BITMAP
01C0
03C0
07E0
0660
0E30
1C38
1818
380C
300E
6006
E007
C003
C001
ENDCHAR
STARTCHAR U+005F
ENCODING 95
SWIDTH 500 0
DWIDTH 24 0
BBX 24 2 0 -3
BITMAP
FFFFFF
FFFFFF
ENDCHAR
STARTCHAR U+0060
ENCODING 96
SWIDTH 500 0
DWIDTH 18 0
BBX 8 9 4 25
BITMAP
E0
F0
F8
F8
3C
1C
0E
03
01
ENDCHAR
STARTCHAR U+0061
ENCODING 97
SWIDTH 500 0
DWIDTH 23 0
BBX 21 23 2 -1
BITMAP
07FC00
1C3E00
3C1F00
7C0F80
780F80
F80F80
780F80
200F80
000F80
003F80
03CF80
0F0F80
3C0F80
7C0F80
F80F80
F80F80
F80F80
F80F80
F81F80
FC3FC0
7FE7D8
3FC3F0
0E00C0
ENDCHAR
STARTCHAR U+0062
ENCODING 98
SWIDTH 500 0
DWIDTH 27 0
BBX 24 34 1 -1
BITMAP
018000
3F8000
FF8000
1F8000
1F8000
1F8000
1F8000
1F8000
1F8000
1F8000
1F8000
1F8FE0
1FBFF0
1FF3F8
1F80FC
1F807E
1F803E
1F803F
1F803F
1F803F
1F801F
1F801F
1F801F
1F801F
1F803F
1F803F
1F803F
1F803E
1F807E
1F807C
1FC1FC
1FBFF8
7F1FE0
000380
ENDCHAR
STARTCHAR U+0063
ENCODING 99
SWIDTH 500 0
DWIDTH 23 0
BBX 19 23 2 -1
BITMAP
01FC00
07C700
0F0380
3E03C0
3E03E0
7C03E0
7C03E0
FC00C0
F80000
F80000
F80000
F80000
F80000
F80000
FC0000
FC0000
FC0000
7E0020
3F0060
3FC1C0
0FFF80
07FE00
00F000
ENDCHAR
STARTCHAR U+0064
ENCODING 100
SWIDTH 500 0
DWIDTH 26 0
BBX 23 34 2 -1
BITMAP
000030
0007F0
000FF0
0001F0
0001F0
0001F0
0001F0
0001F0
0001F0
0001F0
0001F0
03F1F0
0FFDF0
1FCFF0
3F03F0
7E01F0
7C01F0
FC01F0
FC01F0
F801F0
F801F0
F801F0
F801F0
F801F0
F801F0
FC01F0
FC01F0
FC01F0
7E01F0
7E01F0
3F83F0
1FFDF8
0FF9FE
01C000
ENDCHAR
STARTCHAR U+0065
ENCODING 101
SWIDTH 500 0
DWIDTH 23 0
BBX 19 23 2 -1
BITMAP
01FC00
079F00
1F0780
3E03C0
3C03C0
7C03E0
FC03E0
F803E0
F803E0
F807E0
FFFFE0
F80000
F80000
F80000
FC0000
FC0000
7C0000
7E0020
3F0060
3FC0C0
0FFF80
07FF00
007000
ENDCHAR
STARTCHAR U+0066
ENCODING 102
SWIDTH 500 0
DWIDTH 16 0
BBX 19 33 1 0
BITMAP
003F80
00EFC0
01C7E0
03C7C0
038180
078000
078000
0F8000
0F8000
0F8000
0F8000
1F8000
FFFC00
1F8000
1F8000
1F8000
1F8000
1F8000
1F8000
1F8000
1F8000
1F8000
1F8000
1F8000
1F8000
1F8000
1F8000
1F8000
1F8000
1F8000
1F8000
1F8000
FFF800
ENDCHAR
STARTCHAR U+0067
ENCODING 103
SWIDTH 500 0
DWIDTH 24 0
BBX 22 32 1 -10
BITMAP
03FC0C
0F1F7C
1E07FC
3E07C0
3C03C0
7C03E0
7C03E0
7C03E0
7C03E0
7C03C0
3E07C0
1E0780
1F0F00
0FFE00
180000
380000
380000
380000
7FFF00
3FFFE0
3FFFF0
1FFFF8
0FFFF8
3000FC
70007C
70007C
E00078
F00078
F000F0
7801E0
3E0F80
1FFE00
ENDCHAR
STARTCHAR U+0068
ENCODING 104
SWIDTH 500 0
DWIDTH 27 0
BBX 25 33 1 0
BITMAP
01800000
3F800000
FF800000
1F800000
1F800000
1F800000
1F800000
1F800000
1F800000
1F800000
1F800000
1F87E000
1F9FF800
1FBFFC00
1FE0FC00
1FC07C00
1F807C00
1F807E00
1F807E00
1F807E00
1F807E00
1F807E00
1F807E00
1F807E00
1F807E00
1F807E00
1F807E00
1F807E00
1F807E00
1F807E00
1F807E00
1F807E00
7FE3FF80
ENDCHAR
STARTCHAR U+0069
ENCODING 105
SWIDTH 500 0
DWIDTH 14 0
BBX 12 32 1 0
BITMAP
0F00
1F80
1F80
1F80
1F80
0600
0000
0000
0000
0000
0180
1F80
FF80
1F80
1F80
1F80
1F80
0F80
0F80
0F80
0F80
0F80
0F80
0F80
0F80
1F80
1F80
1F80
1F80
1F80
1F80
7FF0
ENDCHAR
STARTCHAR U+006A
ENCODING 106
SWIDTH 500 0
DWIDTH 13 0
BBX 14 43 -4 -11
BITMAP
0078
00FC
00FC
00FC
00F8
0070
0000
0000
0000
0000
001C
01FC
07FC
00FC
00FC
00FC
00FC
00FC
00FC
00FC
00FC
00FC
00FC
00FC
00FC
00FC
00FC
00FC
00FC
00FC
00FC
00FC
00FC
00FC
00F8
00F8
00F8
00F8
78F0
FCE0
FDE0
7F80
3E00
ENDCHAR
STARTCHAR U+006B
ENCODING 107
SWIDTH 500 0
DWIDTH 26 0
BBX 25 33 1 0
BITMAP
01800000
3F800000
FF800000
1F800000
1F800000
1F800000
1F800000
1F800000
1F800000
1F800000
1F800000
1F801800
1F83FF00
1F807000
1F80C000
1F818000
1F830000
1F860000
1F8E0000
1F9F0000
1FBF0000
1FFF8000
1FCF8000
1F8FC000
1F87C000
1F87E000
1F83E000
1F83F000
1F81F800
1F81F800
1F80FC00
1F80FC00
FFF07F80
ENDCHAR
STARTCHAR U+006C
ENCODING 108
SWIDTH 500 0
DWIDTH 14 0
BBX 12 33 1 0
BITMAP
0180
3F80
FF80
1F80
1F80
1F80
1F80
1F80
1F80
1F80
1F80
1F80
1F80
1F80
1F80
1F80
1F80
1F80
1F80
1F80
1F80
1F80
1F80
1F80
1F80
1F80
1F80
1F80
1F80
1F80
1F80
1F80
FFF0
ENDCHAR
STARTCHAR U+006D
ENCODING 109
SWIDTH 500 0
DWIDTH 40 0
BBX 38 22 1 0
BITMAP
0307E03F00
1F9FF0FFC0
FFBFF9FFC0
1FE0FF07E0
1FC0FE03E0
1F807C03E0
1F807C03E0
1F807C03E0
1F807C03E0
1F807C03E0
1F807C03E0
1F807C03E0
1F807C03E0
1F807C03E0
1F807C03E0
1F807C03F0
1F807C03F0
1F807C03F0
1F807C03F0
1F807C03F0
1F80FE03F0
FFE3FF9FFC
ENDCHAR
STARTCHAR U+006E
ENCODING 110
SWIDTH 500 0
DWIDTH 27 0
BBX 25 22 1 0
BITMAP
0307E000
1F9FF800
FFBFF800
1FE0FC00
1FC07C00
1F807C00
1F807C00
1F807C00
1F807C00
1F807C00
1F807C00
1F807C00
1F807C00
1F807C00
1F807C00
1F807E00
1F807E00
1F807E00
1F807E00
1F807E00
1F807E00
FFE3FF80
ENDCHAR
STARTCHAR U+006F
ENCODING 111
SWIDTH 500 0
DWIDTH 25 0
BBX 21 23 2 -1
BITMAP
01FC00
078F00
1F07C0
3E03E0
7C01E0
7C01F0
FC01F8
FC01F8
F801F8
F800F8
F800F8
F800F8
F800F8
F801F8
F801F8
FC01F8
7C01F0
7C01F0
3E03E0
1E03C0
0F0780
07FF00
007000
ENDCHAR
STARTCHAR U+0070
ENCODING 112
SWIDTH 500 0
DWIDTH 27 0
BBX 24 32 1 -10
BITMAP
030FE0
1FBFF0
FFF3F8
1FC0FC
1F807E
1F803E
1F803F
1F803F
1F803F
1F803F
1F803F
1F803F
1F803F
1F803F
1F803F
1F803F
1F803E
1F807E
1F807C
1FC1FC
1FFFF8
1F9FE0
1F8700
1F8000
1F8000
1F8000
1F8000
1F8000
1F8000
1F8000
1F8000
7FF000
ENDCHAR
STARTCHAR U+0071
ENCODING 113
SWIDTH 500 0
DWIDTH 26 0
BBX 23 32 2 -10
BITMAP
03F010
0FFC30
1FCEF0
3F03F0
7E01F0
7C01F0
FC01F0
FC01F0
FC01F0
F801F0
F801F0
F801F0
F801F0
F801F0
FC01F0
FC01F0
FC01F0
7E01F0
7E01F0
3F83F0
1FFDF0
0FF9F0
01C1F0
0001F0
0001F0
0001F0
0001F0
0001F0
0001F0
0001F0
0001F0
000FFE
ENDCHAR
STARTCHAR U+0072
ENCODING 114
SWIDTH 500 0
DWIDTH 20 0
BBX 19 22 1 0
BITMAP
030780
1F8FC0
FF9FE0
1FB7E0
1FE3C0
1FC000
1FC000
1F8000
1F8000
1F8000
1F8000
1F8000
1F8000
1F8000
1F8000
1F8000
1F8000
1F8000
1F8000
1F8000
1FC000
FFF800
ENDCHAR
STARTCHAR U+0073
ENCODING 115
SWIDTH 500 0
DWIDTH 20 0
BBX 17 23 2 -1
BITMAP
07F000
1E3E00
380E00
780E00
F00E00
F80600
F80000
FC0000
FF8000
7FF000
7FFC00
3FFE00
0FFF00
01FF00
003F00
001F80
C00F00
E00F00
E00F00
E01E00
F03C00
7FF800
078000
ENDCHAR
STARTCHAR U+0074
ENCODING 116
SWIDTH 500 0
DWIDTH 16 0
BBX 14 29 1 -1
BITMAP
0700
0780
0F00
0F00
0F00
0F00
1F80
FFFC
1F80
1F00
1F00
1F00
1F00
1F00
1F00
1F00
1F00
1F00
1F00
1F00
1F00
1F00
1F00
1F00
1F80
1F84
0FFC
07F8
01C0
ENDCHAR
STARTCHAR U+0075
ENCODING 117
SWIDTH 500 0
DWIDTH 27 0
BBX 25 23 1 -1
BITMAP
03000C00
FF83FC00
3F81FC00
1F807C00
1F007C00
1F007C00
1F007C00
1F007C00
1F007C00
1F007C00
1F007C00
1F007C00
1F007C00
1F007C00
1F007C00
1F007C00
1F807C00
1F80FC00
1F81FC00
0FE77C00
0FFE7C00
07F87F80
00E00000
ENDCHAR
STARTCHAR U+0076
ENCODING 118
SWIDTH 500 0
DWIDTH 23 0
BBX 23 22 0 0
BITMAP
3E0010
FFE1FE
3F0030
1F0030
1F8020
1F8060
0F8040
0FC0C0
07C0C0
07E080
07E180
03E180
03F100
01F300
01F200
01FA00
00FE00
00FC00
007C00
007800
007800
003800
ENDCHAR
STARTCHAR U+0077
ENCODING 119
SWIDTH 500 0
DWIDTH 35 0
BBX 35 22 0 0
BITMAP
3E00300100
FFE3FF1FE0
3F00780300
3F00F80200
1F00FC0600
1F00FC0600
1F81FC0400
0F81BE0400
0F813E0C00
07C33E0800
07C21F0800
07C21F1800
03E61F1000
03E40F9000
03E40FB000
01FC0FA000
01F807E000
01F807E000
00F807C000
00F003C000
00F003C000
0070018000
ENDCHAR
STARTCHAR U+0078
ENCODING 120
SWIDTH 500 0
DWIDTH 24 0
BBX 24 22 0 0
BITMAP
3F0018
7FF1FE
1F8030
0FC060
07E060
07E0C0
03F180
01F900
01FB00
00FE00
00FE00
007E00
007F00
00FF80
009F80
018FC0
030FE0
0207E0
0603F0
0C03F8
1C01F8
FF0FFF
ENDCHAR
STARTCHAR U+0079
ENCODING 121
SWIDTH 500 0
DWIDTH 23 0
BBX 23 33 0 -11
BITMAP
3E0008
FFE1FE
3F0010
1F0030
1F8030
1F8020
0F8060
0FC060
07C040
07C0C0
07E080
03E080
03F180
01F100
01F100
00FB00
00FA00
00FE00
007C00
007C00
003C00
003800
003800
001800
001000
003000
002000
006000
784000
FCC000
FF8000
FF0000
3C0000
ENDCHAR
STARTCHAR U+007A
ENCODING 122
SWIDTH 500 0
DWIDTH 21 0
BBX 19 21 1 0
BITMAP
7FFFC0
700FC0
700F80
601F00
603F00
603E00
007E00
00FC00
00F800
01F800
03F000
03E000
07E000
0FC000
0F80E0
1F80E0
3F00E0
3F00C0
7E01C0
FE01C0
FFFFC0
ENDCHAR
STARTCHAR U+007B
ENCODING 123
SWIDTH 500 0
DWIDTH 15 0
BBX 12 39 2 -7
BITMAP
01F0
07E0
1F00
1E00
1E00
3E00
3E00
1E00
1E00
1E00
0E00
0F00
0F00
0700
0700
0700
0F00
0E00
3C00
F000
7800
1E00
0E00
0700
0700
0700
0F00
0F00
0F00
1E00
1E00
1E00
3E00
3E00
1E00
1E00
1F00
0FC0
03F0
ENDCHAR
STARTCHAR U+007C
ENCODING 124
SWIDTH 500 0
DWIDTH 14 0
BBX 3 45 5 -11
BITMAP
60
E0
E0
E0
E0
E0
E0
E0
E0
E0
E0
E0
E0
E0
E0
E0
E0
E0
E0
E0
E0
E0
E0
E0
E0
E0
E0
E0
E0
E0
E0
E0
E0
E0
E0
E0
E0
E0
E0
E0
E0
E0
E0
E0
E0
ENDCHAR
STARTCHAR U+007D
ENCODING 125
SWIDTH 500 0
DWIDTH 15 0
BBX 12 39 1 -7
BITMAP
FC00
7F00
0F80
0780
07C0
03C0
03C0
07C0
0780
0780
0780
0F00
0F00
0E00
0E00
0E00
0700
0780
01E0
00F0
01E0
0780
0700
0E00
0E00
0E00
0F00
0F00
0780
0780
0780
07C0
03C0
03C0
07C0
0780
0780
3F00
FC00
ENDCHAR
STARTCHAR U+007E
ENCODING 126
SWIDTH 500 0
DWIDTH 24 0
BBX 20 7 2 12
BITMAP
0E0030
3F8030
71C030
60F070
E038E0
C01FC0
C00780
ENDCHAR
STARTCHAR U+3002
ENCODING 12290
SWIDTH 500 0
DWIDTH 40 0
BBX 11 11 2 -3
BITMAP
1F00
7B80
60C0
C060
8060
8060
8060
C060
C0C0
7180
3F00
ENDCHAR
STARTCHAR U+4E1A
ENCODING 19994
SWIDTH 500 0
DWIDTH 40 0
BBX 37 34 2 -1
BITMAP
001F8FC000
001F0F8000
001F0F8000
001F0F8000
001F0F8000
001F0F8000
001F0F8000
001F0F8200
201F0F83C0
301F0F87F0
181F0F87E0
1C1F0F87C0
1E1F0F8780
0E1F0F8F80
0F1F0F8F00
0F9F0F8F00
079F0F9E00
079F0F9E00
07DF0F9C00
03DF0FBC00
03DF0FB800
03DF0FB000
03DF0FF000
03DF0FE000
03DF0FC000
019F0FC000
001F0F8000
001F0F8000
001F0F8000
001F0F8080
001F0F81C0
001F0F83E0
001F0F87F0
FFFFFFFFF8
ENDCHAR
STARTCHAR U+4F5C
ENCODING 20316
SWIDTH 500 0
DWIDTH 40 0
BBX 38 38 1 -4
BITMAP
0060180000
007C1F0000
00FE1FC000
00FC3F0000
00F83F0000
01F83E0040
01F07E00E0
01F07C01F0
03E07FC1F8
03E0FFFFFC
03C0F3C000
0781E3C000
07E1E3C000
0FC3C3C000
0FC383C080
1FC703C1C0
1FC603C3E0
3FCC03FFF0
77D803E000
67C003C000
C7C003C000
07C003C000
07C003C000
07C003C0C0
07C003C1E0
07C003E3F0
07C003FFF8
07C003C000
07C003C000
07C003C000
07C003C000
07C003C000
07C003C000
07C003C000
07C003C000
07C003C000
07C003C000
0200020000
ENDCHAR
STARTCHAR U+4F9D
ENCODING 20381
SWIDTH 500 0
DWIDTH 40 0
BBX 38 38 1 -4
BITMAP
00801C0000
01F00F0000
01FC0F8000
01F007C000
01F007C000
03E003C0E0
03E003C1F0
03E00183F8
07DFFFFFFC
07C00FC000
07801F8000
0FC01FC000
0FC03F4040
1F803E40E0
1F807C40F8
3F807841FC
3F80F863F0
7780F063C0
6781F02780
C783F03600
8787F03C00
078EF03800
0798F03800
07B0F01C00
07C0F01C00
0780F01E00
0780F00F00
0780F00F80
0780F00F80
0780F0C7E0
0780F387F0
0780FF03F8
0781FE03FC
0783FC01F0
0781F000E0
0781E000E0
0780C00040
0400000000
ENDCHAR
STARTCHAR U+5143
ENCODING 20803
SWIDTH 500 0
DWIDTH 40 0
BBX 37 36 2 -3
BITMAP
0000001C00
0000001E00
0000003F00
0FFFFFFF80
0000000000
0000000000
0000000000
0000000000
0000000000
0000000000
0000000180
00000003C0
00000007F0
FFFFFFFFF0
003E0F8000
003E0F8000
003E0F8000
003E0F8000
003E0F8000
007E0F8000
007C0F8000
007C0F8000
007C0F8000
007C0F8000
00F80F8010
00F80F8010
00F00F8030
01F00F8030
01E00F8030
03C00F8070
07C00F8070
07800FFFF8
0E000FFFF8
1C0007FFF8
700007FFF0
C000000000
ENDCHAR
STARTCHAR U+5148
ENCODING 20808
SWIDTH 500 0
DWIDTH 40 0
BBX 37 37 2 -3
BITMAP
0000F00000
0181F80000
01F9F00000
03F1F00000
03E1F00000
03E1F00C00
03C1F00E00
07C1F01F00
07FFFFFF80
0781F80000
0F01F00000
0E01F00000
1C01F00000
1801F00000
3001F00180
2001F003C0
0001F007E0
FFFFFFFFF0
003E0F8000
003E0F8000
003E0F8000
003E0F8000
003E0F8000
007E0F8000
007C0F8000
007C0F8000
007C0F8000
00F80F8020
00F80F8020
01F00F8020
01E00F8060
03E00F8070
07C00FFFF8
0F000FFFF8
1E000FFFF8
380007FFF0
E000000000
ENDCHAR
STARTCHAR U+5165
ENCODING 20837
SWIDTH 500 0
DWIDTH 40 0
BBX 37 37 2 -3
BITMAP
0018000000
001E000000
003F000000
003F800000
001FC00000
0001E00000
0000600000
0000700000
0000700000
0000F00000
0000F80000
0000F80000
0001F80000
0001FC0000
0001FC0000
0003FC0000
0003FE0000
0003FE0000
0007EF0000
0007CF0000
000FCF8000
000F87C000
001F87C000
001F03E000
003E03F000
007E03F800
007C01FC00
00F801FE00
01F000FF00
01E0007F80
03C0007FE0
0780003FF8
0E00001FF8
1C00001FC0
3800000F80
6000000700
8000000300
ENDCHAR
STARTCHAR U+516D
ENCODING 20845
SWIDTH 500 0
DWIDTH 40 0
BBX 36 36 2 -2
BITMAP
000C000000
0007800000
0003E00000
0001F00000
0001F80000
0000FC0000
0000FC0000
0000FC0100
00007803C0
00003007E0
0000000FF0
FFFFFFFFF0
0000000000
0000000000
0000000000
0020000000
003C030000
007F818000
007F00E000
007E00F000
00FC007800
00FC003C00
00F8003E00
01F8001F00
01F0001F80
03E0000FC0
03E0000FC0
07C00007E0
07800007E0
0F000003F0
0E000003F0
1C000001F0
38000001F0
30000001F0
60000000F0
80000000E0
ENDCHAR
STARTCHAR U+5199
ENCODING 20889
SWIDTH 500 0
DWIDTH 40 0
BBX 36 37 2 -4
BITMAP
0800000080
08000001C0
0C000003E0
1FFFFFFFF0
1C000003F0
3C700003C0
FC7E000380
FC78000700
F878002600
F878003000
20F8007800
00FFFFFE00
00FFFFFC00
00F0000000
00F0000000
01F0000000
01F0001800
01F0003C00
03FFFFFE00
01E0003E00
0040003C00
0000003C00
0000187C00
00003C7C00
00007E7C00
FFFFFF7C00
0000007C00
0000007800
000000F800
000000F800
000000F800
000081F000
00003FF000
00000FE000
00000FE000
00000F8000
0000060000
ENDCHAR
STARTCHAR U+5230
ENCODING 21040
SWIDTH 500 0
DWIDTH 40 0
BBX 36 37 2 -4
BITMAP
00006001F0
0000F001E0
0001F801E0
FFFFFDF1E0
01C001E1E0
03F801E1E0
03F001E1E0
07C601E1E0
078381E1E0
0F01E1E1E0
1E01F1E1E0
3800F1E1E0
7FFFF9E1E0
7FFC79E1E0
7FE079E1E0
3EF071E1E0
30F801E1E0
00F001E1E0
00F0C1E1E0
00F0E1E1E0
00F1F1E1E0
FFFFF9E1E0
00F801E1E0
00F001E1E0
00F001E1E0
00F001E1E0
00F001E1E0
00F03981E0
00FFF001E0
0FFF8001E0
FFFE0001E0
FFF00063E0
FF80001FE0
7E00000FE0
70000007C0
0000000780
0000000600
ENDCHAR
STARTCHAR U+5468
ENCODING 21608
SWIDTH 500 0
DWIDTH 40 0
BBX 34 36 2 -3
BITMAP
0000000200
0C00000700
0FFFFFFF80
0FFFFFFFC0
0F00000F80
0F00F80F80
0F00F00F80
0F00F10F80
0F00F3CF80
0F3FFFEF80
0F01F00F80
0F00F00F80
0F00F00F80
0F00F18F80
0F00F3CF80
0F7FFFEF80
0F00000F80
0F00000F80
0F10030F80
0F1E078F80
0F1FFFCF80
0F1E078F80
0F1E078F80
1F1E078F80
1F1E078F80
1E1E078F80
1E1E078F80
1E1FFF8F80
1C1E078F80
3C1E078F80
381E000F80
381001FF80
7000007F80
6000003F80
C000001F00
8000001E00
ENDCHAR
STARTCHAR U+5929
ENCODING 22825
SWIDTH 500 0
DWIDTH 40 0
BBX 36 36 2 -3
BITMAP
0000000400
0000000E00
0000001F00
1FFFFFFFC0
1FFFFFFF80
0001F00000
0001F00000
0001F00000
0001F00000
0001F00000
0001F00000
0001F00000
0001F00180
0003F003C0
0003F007E0
FFFFFFFFF0
0003F00000
0003F00000
0003F00000
0003E80000
0007C80000
0007CC0000
0007C60000
000F860000
000F870000
001F038000
001F03E000
003E01F000
007C00FC00
007800FE00
01F0007FC0
03E0003FF0
0780001FF0
0E00000FC0
38000007C0
E000000180
ENDCHAR
STARTCHAR U+5B66
ENCODING 23398
SWIDTH 500 0
DWIDTH 40 0
BBX 38 37 1 -3
BITMAP
0000801800
01C0E01E00
00F0783F80
00F8783E00
00787C7C00
007C7C7800
047C7C7040
043838E0E0
0C1001C1F0
0FFFFFFFF8
1C000001FC
1C000003F0
7C000023C0
FC00007B00
FCFFFFFE00
780001FE00
000001FC00
000003F000
0000078000
00000E0000
00007E0000
00007C00E0
00007C01F0
0000FC03F8
7FFFFFFFF8
00007C0000
00007C0000
00007C0000
00007C0000
00007C0000
00007C0000
00007C0000
007FF80000
000FF80000
0007F80000
0003F80000
0003E00000
ENDCHAR
STARTCHAR U+5B9D
ENCODING 23453
SWIDTH 500 0
DWIDTH 40 0
BBX 37 36 1 -2
BITMAP
0001E00000
0000F80000
00007C0000
00007E0000
00003E0000
04003C00E0
06003C01F0
0FFFFFFFF8
1E000001F8
7E000001F0
FE000001C0
FC00000580
FC00000E00
7800000F00
07FFFFFF80
0000FC0000
0000780000
0000780000
0000780000
0000780000
0000780800
0000781C00
0000781F00
03FFFFFF80
0000FC0000
0000780000
000078F000
0000787800
0000783C00
0000783E00
0000783E00
0000781C00
00007808E0
00007801F0
7FFFFFFFF8
7FFFFFFFF8
ENDCHAR
STARTCHAR U+5C3D
ENCODING 23613
SWIDTH 500 0
DWIDTH 40 0
BBX 37 36 2 -3
BITMAP
0200000C00
03C0000E00
03FFFFFF80
03E0001F80
03E0001F00
03E0001F00
03E0001F00
03E0001F00
03E0001F00
03E0001F00
03E0001F00
03FFFFFF00
03FFFFFF00
03E0041F00
03C0021C00
03C0030000
03C0038000
07C0018000
07CFE1C000
0783F8F000
0781FCF800
0F00FC7E00
0F007E3F00
0E003C3FC0
1E001C1FF8
1C00000FF0
38000007C0
307C0003C0
603FE00080
C007FC0000
8001FF0000
0000FF8000
00003FC000
00001FC000
000007C000
000003C000
ENDCHAR
STARTCHAR U+5C71
ENCODING 23665
SWIDTH 500 0
DWIDTH 40 0
BBX 34 37 3 -4
BITMAP
0003F00000
0003F00000
0003E00000
0003E00000
0003E00000
0003E00000
0003E00000
0003E00000
6003E00C00
7E03E00FC0
7C03E00F80
7C03E00F80
7C03E00F80
7C03E00F80
7C03E00F80
7C03E00F80
7C03E00F80
7C03E00F80
7C03E00F80
7C03E00F80
7C03E00F80
7C03E00F80
7C03E00F80
7C03E00F80
7C03E00F80
7C03E00F80
7C03E00F80
7C03E00F80
7C03E00F80
7C03E00F80
7C03E00F80
FC03F00F80
FFFFFFFF80
3800000F80
1800000F80
0000000F80
0000000C00
ENDCHAR
STARTCHAR U+6539
ENCODING 25913
SWIDTH 500 0
DWIDTH 40 0
BBX 37 37 2 -3
BITMAP
00000C0000
00000FC000
00100FC000
003C0F8000
FFFE1F8000
007F1F0000
003C1F0000
003C1F00C0
003C3E01E0
003C3E01F0
003C3FFFF8
003C7C0FC0
003C780F80
603C780F80
783CF00F80
7FFCF80F80
7C3DE81F00
783DC81F00
78038C1F00
78030C1E00
7806043E00
7804063E00
7800067C00
7800037C00
780003F800
780103F000
780E01F000
787C03F000
7FF007F800
FFE00FFC00
FFC01F7F00
FF003C3FC0
FE00781FF8
7801E00FE0
7003C007C0
200E000380
0038000080
ENDCHAR
STARTCHAR U+653E
ENCODING 25918
SWIDTH 500 0
DWIDTH 40 0
BBX 38 37 1 -3
BITMAP
0200038000
03C003F800
01E003F000
01F003E000
00F803E000
00F803E000
00F987C040
0073E7C070
7FFFF7C0F8
7FFFE7FFFC
07800783E0
07800F03E0
07800F03E0
07820E03E0
07878F07C0
07FFDD07C0
0787F907C0
07879907C0
0787B18780
0F87A08F80
0F0780CF80
0F0780CF00
0F0780FF00
0F0F807E00
0F0F807E00
0E0F807C00
0E0F807C00
1E0F807C00
1C0F00FE00
1C0F01FF00
1C0F01DF80
381F038FE0
3A3F0707F8
31FE0E07FC
607E3803F0
407C7001E0
8078C000C0
ENDCHAR
STARTCHAR U+65E5
ENCODING 26085
SWIDTH 500 0
DWIDTH 40 0
BBX 27 35 7 -3
BITMAP
00000300
F0000780
FFFFFFE0
FC0007E0
F80007C0
F80007C0
F80007C0
F80007C0
F80007C0
F80007C0
F80007C0
F80007C0
F80007C0
F80007C0
F80007C0
F80007C0
FFFFFFC0
F80007C0
F80007C0
F80007C0
F80007C0
F80007C0
F80007C0
F80007C0
F80007C0
F80007C0
F80007C0
F80007C0
F80007C0
F80007C0
FFFFFFC0
FC0007C0
F80007C0
F80007C0
F0000700
ENDCHAR
STARTCHAR U+65E6
ENCODING 26086
SWIDTH 500 0
DWIDTH 40 0
BBX 37 33 2 -1
BITMAP
0300003800
03C0007C00
03FFFFFE00
03E0007C00
03E0007C00
03E0007C00
03E0007C00
03E0007C00
03E0007C00
03E0007C00
03E0007C00
03E0007C00
03FFFFFC00
03E0007C00
03E0007C00
03E0007C00
03E0007C00
03E0007C00
03E0007C00
03E0007C00
03E0007C00
03E0007C00
03E0007C00
03FFFFFC00
03E0007C00
03E0007C00
03E0007C00
03C0007000
0300000180
00000003C0
00000003E0
FFFFFFFFF8
FFFFFFFFF0
ENDCHAR
STARTCHAR U+6709
ENCODING 26377
SWIDTH 500 0
DWIDTH 40 0
BBX 36 37 2 -3
BITMAP
0006000000
0007E00000
0007E00000
000FC00100
000FC00380
000F8003C0
001F8007F0
FFFFFFFFF0
003F000000
003E000000
007C000000
007C001000
00F8003C00
00F8007E00
01FFFFFF00
03F8003E00
03F8003E00
07F8003E00
0EF8003E00
1CF8003E00
38FFFFFE00
60F8003E00
C0F8003E00
00F8003E00
00F8003E00
00F8003E00
00FFFFFE00
00F8003E00
00F8003E00
00F8003E00
00F8003E00
00F8003E00
00F80FFE00
00F801FC00
00F800FC00
00F800FC00
00F000F800
ENDCHAR
STARTCHAR U+6CB3
ENCODING 27827
SWIDTH 500 0
DWIDTH 40 0
BBX 37 36 2 -3
BITMAP
3C000000C0
1F000001E0
0F800003F0
0F9FFFFFF8
0780000F80
0780000F80
0000000F80
0020000F80
0020000F80
F04C070F80
F84F8F8F80
7CCFFFCF80
3C8F078F80
3C8F078F80
1D8F078F80
018F078F80
030F078F80
030F078F80
070F078F80
060F078F80
0E0F878F80
0E0FFF8F80
1E0F078F80
1C0F078F80
3C0F078F80
FC0F000F80
3C0E000F80
3C00000F80
3E00000F80
3E00000F80
3E00000F80
3E0007FF80
3F0000FF80
3F00003F80
3E00003F00
3E00001E00
ENDCHAR
STARTCHAR U+6D41
ENCODING 27969
SWIDTH 500 0
DWIDTH 40 0
BBX 37 38 2 -4
BITMAP
00001C0000
1E000F0000
0F800F8000
07C007C080
07C00781C0
03C00781E0
03DFFFFFF0
019FFFFFF0
00003F0000
00103F8000
F0207E1800
7C20FC0F00
7C63F00F80
3E47C00FC0
3EDFFFFFE0
1CCFFF83E0
018FF801E0
018F8001C0
0386040000
0307EF9F00
0707CF1E00
0707CF1E00
0E07CF1E00
0E078F1E00
1E078F1E00
3E078F1E00
7E078F1E00
1E078F1E00
1E078F1E10
1E070F1E10
1E0F0F1E10
1F0E0F1E30
1F0E0F1F30
1F1C0F1FF8
1F380F1FF8
1F300F0FF8
1E400007C0
0800000000
ENDCHAR
STARTCHAR U+6D77
ENCODING 28023
SWIDTH 500 0
DWIDTH 40 0
BBX 38 38 1 -4
BITMAP
1000800000
0F00F80000
0F81F80040
07C1F000E0
07C1F001F0
03C1FFFFF8
0383E00000
0013C00000
0027800100
0027C00380
F027F007C0
7C6FFFFFE0
3E4FE007C0
3EDBE607C0
1EE3E787C0
1C83C3C7C0
0183C1C780
0183C1C790
0383C1C7B8
0307C007FC
037FFFFFFC
0707C00780
07078E0780
0E07870780
0E07838780
1E0783C780
3E0F83C780
1E0F818FB0
1E0F000FF8
0F1FFFFFF8
0F0F000F80
0F02000F00
0F00001F00
1F8003FF00
1F0000FE00
1F00007E00
0F00007C00
0400002000
ENDCHAR
STARTCHAR U+7434
ENCODING 29748
SWIDTH 500 0
DWIDTH 40 0
BBX 37 38 2 -4
BITMAP
0004000100
000E000180
000F0003E0
7FFFBFFFF0
03E001F000
01E001F000
01E001F100
01E701F380
03EF81FFE0
3FFF9FFFE0
01E001F000
01E001F000
01E201F0C0
01E781F1E0
FFFFFFFFF0
0003F80000
0003FC0000
0007F80000
000FCE0000
001F87E000
007F03FF80
00F8F0FFF8
03E0F87FF0
07807C1FE0
1E007C03C0
F000387040
000010F800
03FFFFFC00
000001FC00
000001F000
000003F000
000007E000
000007C000
00000F8000
00001F8000
00003F0000
00003E0000
00000C0000
ENDCHAR
STARTCHAR U+767D
ENCODING 30333
SWIDTH 500 0
DWIDTH 40 0
BBX 31 37 5 -3
BITMAP
000E0000
001FC000
001F8000
001F0000
001E0000
001C0000
00180030
F0300078
FFFFFFFC
FFFFFFFE
F800007C
F800007C
F800007C
F800007C
F800007C
F800007C
F800007C
F800007C
F800007C
F800007C
FFFFFFFC
FC0000FC
F800007C
F800007C
F800007C
F800007C
F800007C
F800007C
F800007C
F800007C
F800007C
F800007C
FFFFFFFC
FFFFFFFC
F800007C
F800007C
F0000070
ENDCHAR
STARTCHAR U+8BFE
ENCODING 35838
SWIDTH 500 0
DWIDTH 40 0
BBX 38 37 1 -4
BITMAP
0E02000180
0F83C003C0
07C3FFFFE0
03E3C3C3E0
03E3C3C3C0
01E3C3C3C0
01C3C3C3C0
0003C3C3C0
0183FFFFC0
03C3C3C3C0
FFE3C3C3C0
03E3C3C3C0
03C3C3C3C0
03C3C3C3C0
03C3C3C3C0
03C3FFFFC0
03C3C3C3C0
03C303C060
03C003C070
03C003C0F8
03CFFFFFFC
03C01FE000
03C01FF000
03C01FF800
03C23FDC00
03CC3FCE00
03F87BCF00
03F8F3C7C0
07F0E3C7E0
0FE1C3C3FC
0FC383C1F8
07C703C1F0
078C03C060
031803C020
000003C000
000003C000
0000030000
ENDCHAR
STARTCHAR U+8D1D
ENCODING 36125
SWIDTH 500 0
DWIDTH 40 0
BBX 36 37 2 -3
BITMAP
0000000800
0400001C00
0780003E00
07FFFFFF80
0780003F00
0780003E00
0780003E00
0780E03E00
0781FC3E00
0781F83E00
0781F83E00
0781F83E00
0781F83E00
0781F03E00
0781F03E00
0781F03E00
0781F03E00
0781F03E00
0781F03E00
0781F03E00
0781F03E00
0781F03E00
0783E03E00
0783E03E00
0783E03E00
0787E03C00
0607DF8000
000FC7F000
000F83FE00
001F00FF00
003E007FC0
007C003FE0
00F8000FE0
03E00007F0
07800003F0
1E000001F0
F0000000F0
ENDCHAR
STARTCHAR U+8FD8
ENCODING 36824
SWIDTH 500 0
DWIDTH 40 0
BBX 38 36 1 -3
BITMAP
18000000C0
1E000001E0
0F000001F8
078FFFFFF8
07C000F800
03E001F800
03E001F000
03E003F000
01C003E000
000007C000
00000FC000
03800FE000
07C01FCC00
FFE03FC780
07E03FC7C0
07C07FC3F0
07C0E7C1F0
07C1C7C0F8
07C387C0F8
07C607C078
07C807C078
07D007C030
07C007C000
07C007C000
07C007C000
07C007C000
07C007C000
07C007C000
076007C000
1E38020000
3E1E000000
FC1FFF1FFC
F80FFFFFF0
7803FFFFF0
3000FFFFE0
30000FFFE0
ENDCHAR
STARTCHAR U+94A2
ENCODING 38050
SWIDTH 500 0
DWIDTH 40 0
BBX 37 38 1 -4
BITMAP
1800000000
1F80800060
1F80E000F0
1F00FFFFF8
1E1CF000F8
3E3EF000F0
3FFFF000F0
3C00F03FF0
3C00F03EF0
3800F43CF0
7010F23CF0
7038F33CF0
607CF1BCF0
FFFEF1FCF0
87C0F0F8F0
07C0F0F8F0
07C0F078F0
07C8F078F0
07DCF078F0
07FEF0FCF0
FFFFF0FCF0
07C0F0FCF0
07C0F0DEF0
07C0F1DEF0
07C0F19EF0
07C0F18EF0
07C0F30EF0
07C6F20EF0
07DCF404F0
07F8F000F0
07F0F000F0
0FF0F000F0
1FE0F001F0
0FC0F00FF0
0780F003F0
0300F003F0
0000F003E0
0000800000
ENDCHAR
STARTCHAR U+9EC4
ENCODING 40644
SWIDTH 500 0
DWIDTH 40 0
BBX 37 37 2 -3
BITMAP
003E07E000
003E07C000
003E07C200
003E07C780
003E07CFC0
3FFFFFFFE0
003E07C000
003E07C000
003E07C180
003E07C3E0
003E07C3F0
FFFFFFFFF8
0000F00000
0000F00800
0700F01C00
07FFFFFF00
07FFFFFF80
07C0F01F00
07C0F01F00
07C0F01F00
07C0F01F00
07FFFFFF00
07C1F01F00
07C0F01F00
07C0F01F00
07C0F01F00
07C0F01F00
07FFFFFF00
07C0003F00
0780001C00
071C000000
003E03F800
00FF00FF00
01FE003FC0
07F0000FE0
1F800007E0
7C000003E0
ENDCHAR
STARTCHAR U+FF0C
ENCODING 65292
SWIDTH 500 0
DWIDTH 40 0
BBX 7 15 2 -9
BITMAP
38
7C
FE
FE
FE
7E
3E
0E
06
0C
0C
18
30
60
40
ENDCHAR
ENDFONT
