STARTFONT 2.1
FONT wenkai-40
SIZE 40 75 75
FONTBOUNDINGBOX 80 49 0 -11
STARTPROPERTIES 3
PIXEL_SIZE 40
FONT_ASCENT 38
FONT_DESCENT 11
ENDPROPERTIES
CHARS 127
STARTCHAR U+0020
ENCODING 32
SWIDTH 500 0
DWIDTH 14 0
BBX 0 0 0 0
BITMAP
ENDCHAR
STARTCHAR U+0021
ENCODING 33
SWIDTH 500 0
DWIDTH 14 0
BBX 4 30 5 -1
BITMAP
60
F0
F0
F0
F0
F0
F0
F0
F0
F0
70
70
70
70
70
70
70
70
60
60
60
60
20
00
00
E0
F0
F0
F0
20
ENDCHAR
STARTCHAR U+0022
ENCODING 34
SWIDTH 500 0
DWIDTH 14 0
BBX 8 10 3 19
BITMAP
E7
E7
E7
E7
E7
E7
E7
E7
E7
E7
ENDCHAR
STARTCHAR U+0023
ENCODING 35
SWIDTH 500 0
DWIDTH 24 0
BBX 22 29 1 0
BITMAP
01C0C0
01C0E0
01C0E0
01C1C0
01C1C0
01C1C0
01C1C0
03C1C0
7FFFFC
7FFFFC
3FFFFC
038380
038380
038380
070380
070380
070380
070380
FFFFF8
FFFFF8
7FFFF8
070700
0E0700
0E0700
0E0700
0E0E00
0E0E00
0E0E00
1E0E00
ENDCHAR
STARTCHAR U+0024
ENCODING 36
SWIDTH 500 0
DWIDTH 24 0
BBX 21 36 1 -5
BITMAP
003000
007800
007800
03FF80
07FFC0
1FFFE0
1E38F0
3C3870
383820
383800
383800
383800
3C3800
1FF800
0FF800
07FF00
00FFC0
003FE0
0039F0
0038F0
003878
003838
003838
003838
003838
603878
F03878
7838F0
3F7BE0
1FFFC0
0FFF80
01FC00
003800
003800
007800
003800
ENDCHAR
STARTCHAR U+0025
ENCODING 37
SWIDTH 500 0
DWIDTH 32 0
BBX 28 31 2 -2
BITMAP
0F800700
3FE00700
7DE00F00
70701E00
E0701C00
E0703C00
E0707800
E0307000
E070F000
E070E000
F071E000
79E3C000
3FE38000
1FC78000
000F0000
000E0600
001E3FC0
003C7FE0
0038F0E0
0078E0F0
0070E070
00F0E070
01E0E070
01C0E070
03C0E070
0780E070
0700F0E0
0F007FE0
1E003FC0
0C001F00
0C000000
ENDCHAR
STARTCHAR U+0026
ENCODING 38
SWIDTH 500 0
DWIDTH 28 0
BBX 26 30 2 -1
BITMAP
00700000
03FC0000
07FE0000
0F0F0000
0E070000
0E070000
0E070000
0E0F0000
0E1E0000
0E1C0000
0F7C0000
07F80000
03F00000
07C00600
0FE00700
1FF00F00
3C780E00
78380E00
701C1C00
F01E1C00
E00F3800
E007F800
E003F000
E001F000
E001F000
F003F800
780FBC00
7FFF1F00
1FFC0FC0
07F003C0
ENDCHAR
STARTCHAR U+0027
ENCODING 39
SWIDTH 500 0
DWIDTH 14 0
BBX 4 10 5 19
BITMAP
F0
F0
F0
F0
F0
F0
F0
F0
F0
60
ENDCHAR
STARTCHAR U+0028
ENCODING 40
SWIDTH 500 0
DWIDTH 14 0
BBX 9 38 4 -6
BITMAP
0180
0380
0300
0700
0E00
0E00
1C00
1C00
3800
3800
3800
7000
7000
7000
F000
F000
F000
E000
E000
E000
E000
E000
E000
E000
F000
F000
F000
7000
7000
7800
3800
3800
1C00
1C00
0E00
0600
0700
0380
ENDCHAR
STARTCHAR U+0029
ENCODING 41
SWIDTH 500 0
DWIDTH 14 0
BBX 9 38 1 -6
BITMAP
C000
E000
6000
7000
3800
3800
1C00
1C00
0E00
0E00
0E00
0F00
0700
0700
0780
0780
0780
0380
0380
0380
0380
0380
0380
0380
0780
0780
0780
0700
0700
0F00
0E00
0E00
1C00
1C00
3800
7000
7000
E000
ENDCHAR
STARTCHAR U+002A
ENCODING 42
SWIDTH 500 0
DWIDTH 20 0
BBX 14 13 3 16
BITMAP
0300
0700
0700
0700
633C
FFFC
FFF8
7FC0
0FC0
0FC0
1CE0
3CF0
3870
ENDCHAR
STARTCHAR U+002B
ENCODING 43
SWIDTH 500 0
DWIDTH 24 0
BBX 20 20 2 0
BITMAP
006000
006000
006000
006000
006000
006000
006000
006000
00F060
FFFFF0
FFFFF0
00F000
006000
006000
006000
006000
006000
006000
006000
006000
ENDCHAR
STARTCHAR U+002C
ENCODING 44
SWIDTH 500 0
DWIDTH 14 0
BBX 5 8 4 -4
BITMAP
78
78
78
78
38
30
70
E0
ENDCHAR
STARTCHAR U+002D
ENCODING 45
SWIDTH 500 0
DWIDTH 14 0
BBX 12 2 1 9
BITMAP
FFF0
FFF0
ENDCHAR
STARTCHAR U+002E
ENCODING 46
SWIDTH 500 0
DWIDTH 14 0
BBX 5 6 5 -1
BITMAP
60
F0
F8
F8
F0
60
ENDCHAR
STARTCHAR U+002F
ENCODING 47
SWIDTH 500 0
DWIDTH 14 0
BBX 14 32 0 -2
BITMAP
0018
001C
0038
0038
0030
0070
0070
00E0
00E0
00E0
01C0
01C0
01C0
0380
0380
0300
0700
0700
0E00
0E00
0E00
1C00
1C00
1C00
3800
3800
3000
7000
7000
E000
E000
6000
ENDCHAR
STARTCHAR U+0030
ENCODING 48
SWIDTH 500 0
DWIDTH 24 0
BBX 18 30 3 -1
BITMAP
00F000
03FC00
07FE00
1F1F00
3E0F00
3C0780
780380
780380
7003C0
F001C0
F001C0
E001C0
E001C0
E001C0
E001C0
E001C0
E001C0
E001C0
E001C0
E001C0
E003C0
F003C0
700380
700780
780700
380F00
3E1E00
1FFE00
0FF800
03F000
ENDCHAR
STARTCHAR U+0031
ENCODING 49
SWIDTH 500 0
DWIDTH 24 0
BBX 10 30 5 -1
BITMAP
0100
0380
0FC0
1F80
7F80
FB80
0380
0380
0380
0380
0380
0380
0380
0380
0380
0380
0380
0380
0380
0380
0380
0380
0380
0380
0380
0380
0380
0380
0380
0180
ENDCHAR
STARTCHAR U+0032
ENCODING 50
SWIDTH 500 0
DWIDTH 24 0
BBX 20 29 2 0
BITMAP
007800
03FF00
0FFF80
1F87C0
3E01E0
3C01E0
3800E0
3800E0
0000E0
0001E0
0001C0
0003C0
000780
000F00
001F00
003E00
007C00
00F000
01E000
03C000
078000
0F0000
1E0000
3C0000
380000
780000
FFFFE0
FFFFF0
7FFFF0
ENDCHAR
STARTCHAR U+0033
ENCODING 51
SWIDTH 500 0
DWIDTH 24 0
BBX 20 30 2 -1
BITMAP
00F800
07FF00
0FFF80
1F87C0
3C03C0
3801C0
3001C0
0001C0
0001C0
0003C0
0007C0
001F80
01FF00
03FF00
03FF80
0007C0
0001E0
0000E0
0000E0
0000F0
0000F0
0000F0
0000E0
4000E0
E001E0
F003C0
FC0FC0
3FFF80
1FFE00
07F800
ENDCHAR
STARTCHAR U+0034
ENCODING 52
SWIDTH 500 0
DWIDTH 24 0
BBX 21 30 2 -1
BITMAP
000800
000E00
001E00
001E00
003C00
003800
007800
007600
00F700
01E700
01C700
03C700
078700
070700
0F0700
0E0700
1E0700
3C0700
380700
780700
FFFFF8
FFFFF8
FFFFF8
700700
000700
000700
000700
000700
000700
000300
ENDCHAR
STARTCHAR U+0035
ENCODING 53
SWIDTH 500 0
DWIDTH 24 0
BBX 20 29 2 -1
BITMAP
0FFFC0
1FFFC0
1FFFC0
1E0000
1C0000
1C0000
1C0000
1C0000
380000
380000
39F800
3FFF00
3FFF80
3E07C0
7C01E0
3000E0
0000E0
0000F0
0000F0
0000F0
0000F0
0000E0
6000E0
F001E0
F803C0
7E0FC0
3FFF80
0FFE00
03F800
ENDCHAR
STARTCHAR U+0036
ENCODING 54
SWIDTH 500 0
DWIDTH 24 0
BBX 20 30 2 -1
BITMAP
003000
007800
007800
00F000
01E000
01C000
03C000
078000
070000
0F0000
0E0000
1C7800
1FFE00
3FFF80
3F07C0
7C03E0
7801E0
7800F0
7000F0
F000F0
F00070
F000F0
F000F0
7000E0
7801E0
7803C0
3E07C0
1FFF80
07FF00
01F800
ENDCHAR
STARTCHAR U+0037
ENCODING 55
SWIDTH 500 0
DWIDTH 24 0
BBX 18 29 3 -1
BITMAP
01FFC0
FFFFC0
FFFFC0
7E03C0
000780
000780
000700
000F00
000E00
001E00
001C00
003C00
003800
007800
007000
00F000
00E000
00E000
01E000
01C000
03C000
038000
038000
078000
070000
0F0000
0F0000
0F0000
060000
ENDCHAR
STARTCHAR U+0038
ENCODING 56
SWIDTH 500 0
DWIDTH 24 0
BBX 20 30 2 -1
BITMAP
00F000
07FE00
0FFF00
1F0F80
3C03C0
3801F0
7800E0
7801C0
380380
3C0F00
1E1E00
0FFC00
07F800
03F800
07FE00
0F1F00
1E0780
3C03C0
7801E0
7000E0
F000E0
E000E0
E000E0
F000E0
F001E0
7803E0
3E0FC0
3FFF80
0FFE00
03F800
ENDCHAR
STARTCHAR U+0039
ENCODING 57
SWIDTH 500 0
DWIDTH 24 0
BBX 20 30 2 -1
BITMAP
007000
03FE00
07FF70
1F8FF0
1E03F0
3C01F0
7800E0
7000E0
7000E0
F001E0
E001C0
E003C0
E007C0
F00FC0
701FC0
7C7F80
3FFB80
1FF380
07C380
000380
000780
000700
000700
000700
000700
000F00
000F00
000E00
000E00
000E00
ENDCHAR
STARTCHAR U+003A
ENCODING 58
SWIDTH 500 0
DWIDTH 14 0
BBX 4 19 5 0
BITMAP
E0
F0
F0
F0
60
00
00
00
00
00
00
00
00
00
00
F0
F0
F0
F0
ENDCHAR
STARTCHAR U+003B
ENCODING 59
SWIDTH 500 0
DWIDTH 14 0
BBX 5 23 4 -4
BITMAP
70
78
78
78
30
00
00
00
00
00
00
00
00
00
00
70
78
78
78
38
30
60
C0
ENDCHAR
STARTCHAR U+003C
ENCODING 60
SWIDTH 500 0
DWIDTH 24 0
BBX 16 21 4 -1
BITMAP
0001
0007
000F
003F
00FC
01F0
07E0
1F80
7E00
F800
F000
F800
7E00
1F80
07E0
01F0
00FC
003F
000F
0007
0001
ENDCHAR
STARTCHAR U+003D
ENCODING 61
SWIDTH 500 0
DWIDTH 24 0
BBX 20 10 2 5
BITMAP
FFFFF0
FFFFF0
7FFFE0
000000
000000
000000
000000
7FFFE0
FFFFF0
FFFFF0
ENDCHAR
STARTCHAR U+003E
ENCODING 62
SWIDTH 500 0
DWIDTH 24 0
BBX 17 21 4 -1
BITMAP
C00000
E00000
F00000
7C0000
3F0000
0FC000
03E000
00F800
007E00
001F00
000780
001F00
007E00
01F800
07E000
0F8000
3F0000
FC0000
F00000
E00000
C00000
ENDCHAR
STARTCHAR U+003F
ENCODING 63
SWIDTH 500 0
DWIDTH 24 0
BBX 18 30 3 -1
BITMAP
00F800
03FF00
0FFF80
1F87C0
3C03C0
7801C0
7001C0
F001C0
6003C0
000380
000780
000F00
001E00
003C00
007800
00F000
01E000
01C000
01C000
01C000
01C000
01C000
000000
000000
000000
01C000
03E000
03E000
01E000
008000
ENDCHAR
STARTCHAR U+0040
ENCODING 64
SWIDTH 500 0
DWIDTH 31 0
BBX 29 30 1 -1
BITMAP
0007E000
003FFC00
00FFFF00
01F00FC0
07C003E0
0F8001E0
0F0180F0
1E0FFC70
3C1FFE38
383C7E38
78783C38
70F01C38
70E01C38
71E01C38
E1C03C38
E1C03C38
E1C07838
E1C07870
E1C0F870
F1E1F8E0
70FFDFE0
70FF9FD8
787F0FB8
3C000070
3C0001E0
1F0007C0
0FC01F80
03FFFE00
01FFF800
001FC000
ENDCHAR
STARTCHAR U+0041
ENCODING 65
SWIDTH 500 0
DWIDTH 28 0
BBX 28 30 0 -1
BITMAP
00060000
00070000
000F0000
000F0000
000F8000
001F8000
001DC000
0039C000
0039C000
0070E000
0070E000
00F07000
00E07000
01E07800
01C03800
03C03800
03801C00
1FFFFC00
3FFFFE00
1FFFFE00
0E000F00
1E000700
1C000780
3C000380
380003C0
780001C0
700001E0
F00001E0
F00000F0
00000040
ENDCHAR
STARTCHAR U+0042
ENCODING 66
SWIDTH 500 0
DWIDTH 26 0
BBX 22 30 2 -1
BITMAP
01F800
7FFF80
FFFFC0
7E07E0
3801F0
3800F0
380070
380070
3800F0
3800E0
3803E0
380FC0
3FFF00
3FFF80
3FFFE0
3801F0
380078
38003C
38003C
38001C
38001C
38001C
38003C
38003C
380078
3801F8
3807F0
7FFFC0
FFFF00
1FC000
ENDCHAR
STARTCHAR U+0043
ENCODING 67
SWIDTH 500 0
DWIDTH 28 0
BBX 25 30 2 -1
BITMAP
000F8000
007FF000
01FFFC00
03F07E00
07C01E00
0F000E00
1E000000
3C000000
3C000000
78000000
78000000
70000000
F0000000
F0000000
E0000000
E0000000
E0000000
E0000000
E0000000
E0000000
E0000000
F0000180
70000380
78000700
7C000F00
3E003E00
1F81FC00
0FFFF000
03FFE000
00FF0000
ENDCHAR
STARTCHAR U+0044
ENCODING 68
SWIDTH 500 0
DWIDTH 29 0
BBX 25 30 2 -1
BITMAP
03F80000
7FFF0000
FFFFC000
7E07F000
3801F800
38007C00
38003E00
38001E00
38000F00
38000700
38000780
38000780
38000380
38000380
38000380
38000380
38000380
38000380
38000780
38000700
38000F00
38000F00
38001E00
38003C00
3800F800
3803F000
381FE000
7FFF8000
FFFE0000
1E000000
ENDCHAR
STARTCHAR U+0045
ENCODING 69
SWIDTH 500 0
DWIDTH 26 0
BBX 21 30 3 -1
BITMAP
0001C0
7FFFE0
7FFFE0
7FFE00
700000
700000
700000
700000
700000
700000
700000
700000
7BFF80
FFFF80
FFFF80
780000
700000
700000
700000
700000
700000
700000
700000
700000
700000
700000
7FFFF0
7FFFF8
7FFFF8
300000
ENDCHAR
STARTCHAR U+0046
ENCODING 70
SWIDTH 500 0
DWIDTH 23 0
BBX 19 30 3 -1
BITMAP
0001C0
7FFFE0
7FFFE0
7FFF00
700000
700000
700000
700000
700000
700000
700000
700000
7BFF80
FFFF80
FFFF80
780000
700000
700000
700000
700000
700000
700000
700000
700000
700000
700000
700000
700000
700000
100000
ENDCHAR
STARTCHAR U+0047
ENCODING 71
SWIDTH 500 0
DWIDTH 30 0
BBX 26 30 2 -1
BITMAP
000FC000
007FF800
01FFFC00
03F07E00
07C00F00
0F000600
1E000000
1C000000
3C000000
38000000
78000000
70000000
70000000
F0000000
E003FF80
E007FFC0
E003FFC0
E0000380
E0000380
E0000380
F0000380
F0000780
70000780
78000F80
3C001F80
3E003F80
1F80FB80
0FFFF380
03FFC3C0
007F0000
ENDCHAR
STARTCHAR U+0048
ENCODING 72
SWIDTH 500 0
DWIDTH 28 0
BBX 23 29 2 -1
BITMAP
38001E
38001E
38001E
38001E
38001E
38001E
38001E
38001E
38001E
38001E
38001E
7FFFFE
FFFFFE
7FFFFE
38001E
38001E
38001E
38001E
38001E
38001E
38001E
38001E
38001E
38001E
38001E
38001E
38001E
38001E
180004
ENDCHAR
STARTCHAR U+0049
ENCODING 73
SWIDTH 500 0
DWIDTH 12 0
BBX 4 29 4 -1
BITMAP
F0
F0
F0
F0
F0
F0
F0
F0
F0
F0
F0
F0
F0
F0
F0
F0
F0
F0
F0
F0
F0
F0
F0
F0
F0
F0
F0
F0
20
ENDCHAR
STARTCHAR U+004A
ENCODING 74
SWIDTH 500 0
DWIDTH 20 0
BBX 16 29 0 -1
BITMAP
000E
000F
000F
000F
000F
000F
000F
000F
000F
000F
000F
000F
000F
000F
000F
000F
000F
000F
000F
000F
000F
600F
700E
F00E
781E
7C3E
3FFC
0FF8
03E0
ENDCHAR
STARTCHAR U+004B
ENCODING 75
SWIDTH 500 0
DWIDTH 25 0
BBX 21 29 4 -1
BITMAP
E001E0
E003E0
E007C0
E00F80
E01F00
E03C00
E07800
E0F000
E3E000
E7C000
EF8000
FE0000
FE0000
FF0000
F78000
E7C000
E3E000
E1E000
E0F000
E07800
E03C00
E01E00
E00F00
E00780
E003C0
E001E0
E000F8
E000F8
600020
ENDCHAR
STARTCHAR U+004C
ENCODING 76
SWIDTH 500 0
DWIDTH 22 0
BBX 17 29 4 -1
BITMAP
E00000
E00000
E00000
E00000
E00000
E00000
E00000
E00000
E00000
E00000
E00000
E00000
E00000
E00000
E00000
E00000
E00000
E00000
E00000
E00000
E00000
E00000
E00000
E00000
E00000
FFFF00
FFFF80
FFFF80
400000
ENDCHAR
STARTCHAR U+004D
ENCODING 77
SWIDTH 500 0
DWIDTH 34 0
BBX 31 29 2 0
BITMAP
000000C0
1E0001E0
1E0001F0
1F0003F0
1F0003F0
1F0007F0
3F8007F0
3B800F70
3BC00E70
39C00E70
39C01C70
38E01C70
38E03870
38E03878
38707838
78707038
78387038
7038E038
703CE038
701DC038
701FC038
700FC03C
700F803C
F00F801C
F007001C
E000001C
E000001C
E000001E
E000001E
ENDCHAR
STARTCHAR U+004E
ENCODING 78
SWIDTH 500 0
DWIDTH 30 0
BBX 22 30 4 -1
BITMAP
200000
F0003C
F0003C
F8003C
FC003C
FC003C
FE003C
FE003C
EF003C
E7803C
E3803C
E3C03C
E1E03C
E1E03C
E0F03C
E0703C
E0783C
E03C3C
E01C3C
E01E3C
E00F3C
E007BC
E007BC
E003FC
E001FC
E001FC
E000FC
E0007C
E00038
600010
ENDCHAR
STARTCHAR U+004F
ENCODING 79
SWIDTH 500 0
DWIDTH 30 0
BBX 26 30 2 -1
BITMAP
000F8000
007FE000
01FFF800
0FF0FC00
1F803E00
1F000F00
3E000F00
3C000780
78000380
70000380
700003C0
F00003C0
E00001C0
E00001C0
E00001C0
E00001C0
E00001C0
E00003C0
E00003C0
F0000380
F0000380
70000780
78000700
38000F00
3C001E00
1E003E00
0F81FC00
07FFF800
03FFE000
007F0000
ENDCHAR
STARTCHAR U+0050
ENCODING 80
SWIDTH 500 0
DWIDTH 25 0
BBX 21 30 2 -1
BITMAP
01FC00
7FFFC0
FFFFE0
7F07F0
3800F8
380078
380038
380038
380038
380078
3800F8
3801F0
3803E0
383FC0
3FFF80
3FFC00
3C0000
380000
380000
380000
380000
380000
380000
380000
380000
380000
380000
380000
380000
180000
ENDCHAR
STARTCHAR U+0051
ENCODING 81
SWIDTH 500 0
DWIDTH 30 0
BBX 26 32 2 -3
BITMAP
000F8000
007FE000
01FFF800
0FE0FC00
1F803E00
1F000F00
3E000F00
3C000780
78000380
78000380
700003C0
F00003C0
E00001C0
E00001C0
E00001C0
E00001C0
E00001C0
E00003C0
E00003C0
F0000380
F0000380
700E0780
781F0700
380F8F00
3C07DE00
1E03FE00
0F81FC00
07FFF800
03FFFC00
007F1E00
00000F80
000003C0
ENDCHAR
STARTCHAR U+0052
ENCODING 82
SWIDTH 500 0
DWIDTH 25 0
BBX 23 30 2 -1
BITMAP
00F800
3FFF80
FFFFC0
7E07E0
3800F0
3800F0
380070
380070
380070
3800F0
3800F0
3803E0
380FC0
3FFF80
3FFE00
3FF000
3BC000
39E000
38F000
387800
383C00
381E00
380F00
380780
3803C0
3801E0
3800F0
380078
38003E
18000E
ENDCHAR
STARTCHAR U+0053
ENCODING 83
SWIDTH 500 0
DWIDTH 25 0
BBX 22 30 1 -1
BITMAP
007C00
03FF80
07FFE0
0FC7F0
1E00F0
3C0070
3C0020
380000
380000
3C0000
3E0000
1F8000
0FF800
03FF00
007FC0
000FE0
0001F0
000078
000078
000038
00003C
00003C
00003C
600038
F00078
7C00F0
3F03F0
1FFFE0
07FF80
01FE00
ENDCHAR
STARTCHAR U+0054
ENCODING 84
SWIDTH 500 0
DWIDTH 23 0
BBX 23 30 0 -1
BITMAP
00000C
7FFFFC
FFFFFE
FFFFFC
603800
003800
003800
003800
003800
003800
003800
003800
003800
003800
003800
003800
003800
003800
003800
003800
003800
003800
003800
003800
003800
003800
003800
003800
003800
001800
ENDCHAR
STARTCHAR U+0055
ENCODING 85
SWIDTH 500 0
DWIDTH 28 0
BBX 21 30 4 -1
BITMAP
000020
E00070
E00078
E00070
E00070
E00070
E00070
E00070
E00070
E00070
E00070
E00070
E00070
E00070
E00070
E00070
E00070
E00070
E00070
E00070
E00070
E00070
F000F0
F000F0
F001E0
7803E0
7E0FC0
3FFF80
0FFF00
03F800
ENDCHAR
STARTCHAR U+0056
ENCODING 86
SWIDTH 500 0
DWIDTH 25 0
BBX 24 30 0 -1
BITMAP
000002
F00007
700007
78000F
78000E
3C001E
3C001E
1C001C
1E003C
0E0038
0E0078
0F0070
070070
0700F0
0780E0
0381E0
03C1C0
01C1C0
01C3C0
01E380
00E380
00E700
00F700
007F00
007E00
007E00
003E00
003C00
001C00
000C00
ENDCHAR
STARTCHAR U+0057
ENCODING 87
SWIDTH 500 0
DWIDTH 35 0
BBX 35 30 0 -1
BITMAP
0000000080
F000E001E0
F001F001E0
7001F001E0
7801F001C0
3801F003C0
3803F803C0
3C03B80380
3C03B80780
1C07B80780
1C071C0700
1E071C0700
0E071C0F00
0E0F1C0E00
0E0E0E0E00
0F0E0E1E00
071E0E1C00
071C0F1C00
071C071C00
071C073800
03BC073800
03B8073800
03B803F800
03F803F000
01F003F000
01F003F000
01F001E000
01F001E000
00E001E000
006000C000
ENDCHAR
STARTCHAR U+0058
ENCODING 88
SWIDTH 500 0
DWIDTH 24 0
BBX 24 29 0 -1
BITMAP
3C000C
3C001E
1E003C
1E0078
0F0070
0780F0
0381E0
03C1C0
01E3C0
00E780
00FF00
007E00
003E00
003C00
007E00
007E00
00FF00
01E780
03C380
03C3C0
0781E0
0F00E0
0F00F0
1E0078
3C003C
7C001E
78001F
F0000F
200006
ENDCHAR
STARTCHAR U+0059
ENCODING 89
SWIDTH 500 0
DWIDTH 24 0
BBX 22 30 1 -1
BITMAP
000008
E0001C
F0003C
F00078
780078
3C00F0
3C01E0
1E01C0
0E03C0
0F0380
078780
038F00
03CE00
01DE00
01FC00
00F800
007800
007000
007000
007000
007000
007000
007000
007000
007000
007000
007800
007800
007800
001000
ENDCHAR
STARTCHAR U+005A
ENCODING 90
SWIDTH 500 0
DWIDTH 24 0
BBX 22 28 1 0
BITMAP
01FFF8
3FFFFC
3FFFF8
1E00F0
0001E0
0003E0
0003C0
000780
000F00
001E00
001E00
003C00
007800
007000
00F000
01E000
01C000
03C000
078000
0F0000
0F0000
1E0000
3C0000
3C0000
780000
FFFFF8
FFFFFC
FFFFFC
ENDCHAR
STARTCHAR U+005B
ENCODING 91
SWIDTH 500 0
DWIDTH 14 0
BBX 7 37 6 -6
BITMAP
FE
FE
FE
E0
E0
E0
E0
E0
E0
E0
E0
E0
E0
E0
E0
E0
E0
E0
E0
E0
E0
E0
E0
E0
E0
E0
E0
E0
E0
E0
E0
E0
E0
E0
E4
FE
FE
ENDCHAR
STARTCHAR U+005C
ENCODING 92
SWIDTH 500 0
DWIDTH 14 0
BBX 14 32 0 -2
BITMAP
6000
E000
F000
7000
7000
3800
3800
3800
1C00
1C00
1C00
0E00
0E00
0700
0700
0700
0380
0380
0380
01C0
01C0
01C0
00E0
00E0
0070
0070
0070
0038
0038
0038
001C
0018
ENDCHAR
STARTCHAR U+005D
ENCODING 93
SWIDTH 500 0
DWIDTH 14 0
BBX 7 37 1 -6
BITMAP
FC
FE
FE
0E
0E
0E
0E
0E
0E
0E
0E
0E
0E
0E
0E
0E
0E
0E
0E
0E
0E
0E
0E
0E
0E
0E
0E
0E
0E
0E
0E
0E
0E
0E
0E
FE
FE
ENDCHAR
STARTCHAR U+005E
ENCODING 94
SWIDTH 500 0
DWIDTH 24 0
BBX 18 18 3 11
BITMAP
00C000
01E000
01E000
03F000
03F000
07B800
073800
071C00
0E1C00
0E0E00
1C0E00
1C0700
380700
380780
700380
7003C0
E001C0
E001C0
ENDCHAR
STARTCHAR U+005F
ENCODING 95
SWIDTH 500 0
DWIDTH 20 0
BBX 22 3 -1 -7
BITMAP
FFFFFC
FFFFFC
7FFFF8
ENDCHAR
STARTCHAR U+0060
ENCODING 96
SWIDTH 500 0
DWIDTH 20 0
BBX 8 6 6 23
BITMAP
60
F0
FC
FE
1F
03
ENDCHAR
STARTCHAR U+0061
ENCODING 97
SWIDTH 500 0
DWIDTH 23 0
BBX 19 21 2 -1
BITMAP
007100
03FFC0
07FFC0
0F0FC0
1E07C0
3C0380
380380
700380
700380
F00380
E00380
E00380
E00780
E00780
E00F80
F00FC0
701FC0
7879C0
3FF9E0
3FE1E0
0F80C0
ENDCHAR
STARTCHAR U+0062
ENCODING 98
SWIDTH 500 0
DWIDTH 23 0
BBX 18 30 3 -1
BITMAP
400000
F00000
F00000
F00000
F00000
F00000
F00000
F00000
F00000
F07000
F3FE00
F7FF00
FF8F80
FE0780
FC03C0
F803C0
F801C0
F001C0
F001C0
F001C0
F003C0
F00380
F00380
E00780
F00700
F80F00
FC3E00
FFFC00
EFF800
03E000
ENDCHAR
STARTCHAR U+0063
ENCODING 99
SWIDTH 500 0
DWIDTH 21 0
BBX 18 21 2 -1
BITMAP
007000
03FE00
07FF00
0F8F00
1E0700
3C0300
380000
700000
700000
F00000
E00000
E00000
E00000
E00000
F000C0
F00180
780780
7C1F00
3FFE00
1FF800
07E000
ENDCHAR
STARTCHAR U+0064
ENCODING 100
SWIDTH 500 0
DWIDTH 23 0
BBX 19 30 2 -1
BITMAP
000100
0003C0
0003C0
0003C0
0003C0
0003C0
0003C0
0003C0
0003C0
0073C0
03FFC0
07FFC0
0F0FC0
1E07C0
3C03C0
7803C0
7003C0
7003C0
F003C0
E003C0
E003C0
E003C0
E007C0
E007C0
F00FC0
701FC0
787DC0
3FF9E0
1FE0E0
0F8040
ENDCHAR
STARTCHAR U+0065
ENCODING 101
SWIDTH 500 0
DWIDTH 22 0
BBX 19 21 1 -1
BITMAP
003C00
01FF00
03FF80
07C3C0
0F01C0
1E01E0
1C01E0
3C01E0
3803C0
787FC0
FFFF00
7FF800
780000
700000
780060
3800E0
3C01C0
1E0780
1FFF00
0FFE00
03F000
ENDCHAR
STARTCHAR U+0066
ENCODING 102
SWIDTH 500 0
DWIDTH 15 0
BBX 14 30 0 -1
BITMAP
0060
01F8
03FC
079C
070C
0700
0700
0700
0700
0738
FFF8
7FFC
0700
0700
0700
0700
0700
0700
0700
0700
0700
0700
0700
0700
0700
0700
0700
0700
0700
0300
ENDCHAR
STARTCHAR U+0067
ENCODING 103
SWIDTH 500 0
DWIDTH 23 0
BBX 18 27 2 -7
BITMAP
00F100
03FFC0
0FFFC0
1F0FC0
1E07C0
3C01C0
7801C0
7001C0
F001C0
E001C0
E001C0
E003C0
E003C0
E007C0
F007C0
700FC0
783FC0
3FFDC0
1FF1C0
07C1C0
000380
600380
F00780
F81F00
7FFE00
3FFC00
0FF000
ENDCHAR
STARTCHAR U+0068
ENCODING 104
SWIDTH 500 0
DWIDTH 24 0
BBX 17 29 3 -1
BITMAP
E00000
F00000
F00000
F00000
F00000
F00000
F00000
F00000
F07000
F1FE00
F7FF00
FF8F00
FE0780
FC0380
F80380
F80380
F00380
F00380
F00380
F00380
F00380
F00380
F00380
F00380
F00380
F00380
F00380
F00380
200180
ENDCHAR
STARTCHAR U+0069
ENCODING 105
SWIDTH 500 0
DWIDTH 11 0
BBX 4 29 3 -1
BITMAP
60
F0
F0
70
20
00
00
00
40
70
70
70
70
70
70
70
70
70
70
70
70
70
70
70
70
70
70
70
30
ENDCHAR
STARTCHAR U+006A
ENCODING 106
SWIDTH 500 0
DWIDTH 12 0
BBX 9 35 0 -7
BITMAP
0700
0780
0780
0780
0300
0000
0000
0000
0200
0700
0780
0780
0780
0780
0780
0780
0780
0780
0780
0780
0780
0780
0780
0780
0780
0780
0780
0780
0780
0700
0700
E700
FF00
FE00
3800
ENDCHAR
STARTCHAR U+006B
ENCODING 107
SWIDTH 500 0
DWIDTH 20 0
BBX 17 29 3 -1
BITMAP
F00000
F00000
F00000
F00000
F00000
F00000
F00000
F00000
F00400
F01F00
F03E00
F07C00
F1F000
F3E000
FF8000
FF0000
FE0000
FF0000
F78000
F3C000
F1E000
F0F000
F0F800
F07C00
F03E00
F01F00
F00F80
F00780
200100
ENDCHAR
STARTCHAR U+006C
ENCODING 108
SWIDTH 500 0
DWIDTH 11 0
BBX 7 29 4 -1
BITMAP
E0
E0
E0
E0
E0
E0
E0
E0
E0
E0
E0
E0
E0
E0
E0
E0
E0
E0
E0
E0
E0
E0
E0
E0
E0
E6
FC
FC
78
ENDCHAR
STARTCHAR U+006D
ENCODING 109
SWIDTH 500 0
DWIDTH 33 0
BBX 26 21 3 -1
BITMAP
00E01C00
F7F8FF00
FFF9FF80
FF3FE780
FC1F83C0
F81F01C0
F80E01C0
F00E01C0
F00E01C0
F00E01C0
F00E01C0
F00E01C0
F00E01C0
F00E01C0
F00E01C0
F00E01C0
F00E01C0
F00E01C0
F00E01C0
F00E01C0
200600C0
ENDCHAR
STARTCHAR U+006E
ENCODING 110
SWIDTH 500 0
DWIDTH 24 0
BBX 17 21 3 -1
BITMAP
007000
E1FE00
F7FF00
FF8F00
FE0780
FC0380
F80380
F80380
F00380
F00380
F00380
F00380
F00380
F00380
F00380
F00380
F00380
F00380
F00380
F00380
200180
ENDCHAR
STARTCHAR U+006F
ENCODING 111
SWIDTH 500 0
DWIDTH 22 0
BBX 18 21 2 -1
BITMAP
007000
03FE00
0FFF00
1F0F80
3E0380
3C03C0
7801C0
7001C0
F001C0
E001C0
E001C0
E001C0
E001C0
E001C0
F003C0
700380
780780
3C1F00
3FFE00
0FFC00
03F000
ENDCHAR
STARTCHAR U+0070
ENCODING 112
SWIDTH 500 0
DWIDTH 23 0
BBX 18 27 3 -7
BITMAP
007000
F3FE00
F7FF00
FF8F80
FE0780
FC03C0
F803C0
F801C0
F001C0
F001C0
F001C0
F001C0
F003C0
F00380
F00780
F00700
F80F00
FC3E00
FFFC00
FFF800
F3E000
F00000
F00000
F00000
F00000
F00000
700000
ENDCHAR
STARTCHAR U+0071
ENCODING 113
SWIDTH 500 0
DWIDTH 23 0
BBX 18 27 2 -7
BITMAP
007100
03FFC0
07FFC0
0F0FC0
1E07C0
3C03C0
7803C0
7003C0
7003C0
F003C0
E003C0
E003C0
E003C0
E007C0
E00FC0
F00FC0
701FC0
787FC0
3FFBC0
1FF3C0
0FC3C0
0003C0
0003C0
0003C0
0003C0
0003C0
0001C0
ENDCHAR
STARTCHAR U+0072
ENCODING 114
SWIDTH 500 0
DWIDTH 17 0
BBX 14 21 3 -1
BITMAP
40E0
F7F8
FFFC
FFBC
FC1C
F800
F800
F000
F000
7000
7000
7000
7000
7000
7000
7000
F000
F000
F000
7000
2000
ENDCHAR
STARTCHAR U+0073
ENCODING 115
SWIDTH 500 0
DWIDTH 20 0
BBX 16 21 2 -1
BITMAP
01E0
0FF8
1FFE
3C1E
7806
7000
7000
7800
3F80
1FF0
03FC
003E
000F
0007
0007
6007
F007
781F
7FFE
1FFC
07E0
ENDCHAR
STARTCHAR U+0074
ENCODING 116
SWIDTH 500 0
DWIDTH 14 0
BBX 14 27 0 -1
BITMAP
0E00
0F00
0F00
0F00
0F00
0E00
0F70
FFF8
7FF8
0F00
0E00
0E00
0E00
0E00
0E00
0E00
0E00
0E00
0E00
0E00
0E00
0E00
0F0C
0F3C
07F8
07F0
03C0
ENDCHAR
STARTCHAR U+0075
ENCODING 117
SWIDTH 500 0
DWIDTH 24 0
BBX 18 21 3 -1
BITMAP
400300
F00380
F00380
F00380
F00380
F00380
F00380
F00380
F00380
F00380
F00780
F00780
F00780
F00F80
700F80
701F80
703F80
787BC0
3FF1C0
1FE1C0
0F8080
ENDCHAR
STARTCHAR U+0076
ENCODING 118
SWIDTH 500 0
DWIDTH 20 0
BBX 18 21 1 -1
BITMAP
000100
F003C0
F00380
700380
780780
380700
380F00
3C0E00
1C0E00
1C1C00
1E1C00
0E3C00
0E3800
077800
077000
07F000
03E000
03E000
03E000
01C000
00C000
ENDCHAR
STARTCHAR U+0077
ENCODING 119
SWIDTH 500 0
DWIDTH 29 0
BBX 27 21 1 -1
BITMAP
00000040
E00E00E0
F01F00E0
F01F01E0
701F01C0
701F01C0
783F83C0
383B8380
383B8380
38738780
1C71C700
1C71C700
1CE1CF00
1CE0EE00
0EE0EE00
0FC0FE00
0FC0FC00
07C07C00
07807800
07807800
03003800
ENDCHAR
STARTCHAR U+0078
ENCODING 120
SWIDTH 500 0
DWIDTH 20 0
BBX 18 21 1 -1
BITMAP
000100
780380
780780
3C0F00
1E1E00
0E1C00
073C00
07F800
03F000
01E000
01E000
03F000
03F000
073800
0F3C00
1E1E00
1C0E00
3C0700
780780
F003C0
600100
ENDCHAR
STARTCHAR U+0079
ENCODING 121
SWIDTH 500 0
DWIDTH 20 0
BBX 19 27 0 -7
BITMAP
000040
7800E0
7800E0
3C01E0
3C01C0
1C03C0
1E0380
0E0780
0F0700
070700
070E00
078E00
039C00
03DC00
01F800
01F800
00F800
00F000
00F000
00E000
01E000
01C000
03C000
678000
FF8000
FF0000
3C0000
ENDCHAR
STARTCHAR U+007A
ENCODING 122
SWIDTH 500 0
DWIDTH 20 0
BBX 17 20 1 -1
BITMAP
3FFF00
3FFF00
1FFF00
001E00
003C00
007800
007000
00F000
01E000
03C000
078000
070000
0F0000
1E0000
3C0000
380000
7FFF00
FFFF80
FFFF80
600000
ENDCHAR
STARTCHAR U+007B
ENCODING 123
SWIDTH 500 0
DWIDTH 14 0
BBX 10 38 3 -7
BITMAP
00C0
03C0
0700
0700
0E00
0E00
0E00
0E00
0E00
0E00
0E00
0E00
0E00
0E00
0E00
0E00
1E00
FC00
F800
7C00
1E00
0E00
0E00
0E00
0E00
0E00
0E00
0E00
0E00
0E00
0E00
0E00
0E00
0E00
0700
0780
01C0
0040
ENDCHAR
STARTCHAR U+007C
ENCODING 124
SWIDTH 500 0
DWIDTH 14 0
BBX 4 30 5 -1
BITMAP
F0
F0
F0
F0
F0
F0
F0
F0
F0
F0
F0
F0
F0
F0
F0
F0
F0
F0
F0
F0
F0
F0
F0
F0
F0
F0
F0
F0
F0
F0
ENDCHAR
STARTCHAR U+007D
ENCODING 125
SWIDTH 500 0
DWIDTH 14 0
BBX 10 37 1 -6
BITMAP
E000
7000
3800
1C00
1C00
1C00
1C00
1C00
1C00
1C00
1C00
1C00
1C00
1C00
1C00
1C00
1E00
0F80
07C0
0FC0
1E00
1C00
1C00
1C00
1C00
1C00
1C00
1C00
1C00
1C00
1C00
1C00
1C00
3800
3800
7000
E000
ENDCHAR
STARTCHAR U+007E
ENCODING 126
SWIDTH 500 0
DWIDTH 24 0
BBX 20 6 2 7
BITMAP
0F8030
3FE030
7FF0E0
70FFE0
C03FC0
C00F80
ENDCHAR
STARTCHAR U+3002
ENCODING 12290
SWIDTH 500 0
DWIDTH 40 0
BBX 11 12 3 -4
BITMAP
0E00
3F80
7FC0
F1E0
E0E0
E060
E060
E0E0
F1E0
7FC0
3F80
0E00
ENDCHAR
STARTCHAR U+4E1A
ENCODING 19994
SWIDTH 500 0
DWIDTH 40 0
BBX 36 32 2 -1
BITMAP
00080C0000
000E0E0000
000E0F0000
000E0F0000
000E0E0000
000E0E0000
000E0E0000
000E0E0000
000E0E0600
080E0E0700
1C0E0E0780
1E0E0E0700
0E0E0E0700
0F0E0E0F00
070E0E0E00
078E0E1C00
038E0E1C00
03CE0E3800
01CE0E3800
01CE0E7000
01CE0E6000
008E0E4000
000E0E0000
000E0E0000
000E0E0000
000E0E0000
000E0E0000
000E0E0000
000E0E00C0
FFFFFFFFF0
FFFFFFFFF0
7FFFFFFFE0
ENDCHAR
STARTCHAR U+4F5C
ENCODING 20316
SWIDTH 500 0
DWIDTH 40 0
BBX 38 37 1 -4
BITMAP
00000E0000
00180F0000
001C0F0000
001C0F0000
003C0E0000
003C1E0000
00781C0000
00783C0010
00703DFFF8
00E07FFFFC
01E07FFFC0
01C0F78000
03C0E38000
03C1E38000
07C1C38000
0FC3838180
0FC303FFC0
1DC703FFE0
39CE03E000
71CC038000
61D0038000
C1C0038000
01C0038000
01C003FFE0
01C003FFF0
01C003FFE0
01C0038000
01C0038000
01C0038000
01C0038000
01C0038000
01C0038000
01C0038000
01C0038000
01C0078000
01C0038000
0000038000
ENDCHAR
STARTCHAR U+4F9D
ENCODING 20381
SWIDTH 500 0
DWIDTH 40 0
BBX 39 36 1 -4
BITMAP
0060000000
0070078000
0070038000
0070038000
00F0038000
00E0038000
01E0038000
01C0039FE0
01CFFFFFF0
038FFFFFF0
0387FF0000
07800E0000
0F801F0000
0F801F0180
1F803F01C0
1B807B83C0
3380738780
7380F1CF00
6381F1FE00
C381F0FC00
8383F0F800
0387707000
038E707800
039C703800
03B8701C00
03A0701E00
0380700F00
0380702780
038070E3C0
038073C1E0
03807F80F0
0380FE007C
0387F8003E
0787E0001C
0383800000
0100000000
ENDCHAR
STARTCHAR U+5143
ENCODING 20803
SWIDTH 500 0
DWIDTH 40 0
BBX 36 32 1 -3
BITMAP
000001F800
01FFFFFC00
01FFFFFC00
00FFF80000
0000000000
0000000000
0000000000
0000000000
0000000000
00000007C0
007FFFFFE0
3FFFFFFFE0
1FFFFFC000
04070E0000
00070E0000
00070E0000
000F0E0000
000E0E0000
000E0E0000
001E0E0030
001C0E0030
003C0E0030
00380E0030
00780E0030
00F00E0070
00E00E0070
01E00E0070
03C00F00F0
0F000FFFF0
1E0007FFE0
3C0003FFC0
E000000000
ENDCHAR
STARTCHAR U+5148
ENCODING 20808
SWIDTH 500 0
DWIDTH 40 0
BBX 36 35 1 -3
BITMAP
0000700000
0000380000
0018380000
001C380000
001C380000
003C380000
0038380000
00387FFC00
007FFFFE00
007FFFFC00
007F780000
00E0380000
01C0380000
0180700000
0380700000
03007000C0
0203FFFFE0
3FFFFFFFE0
1FFFFFF800
0FC78E0000
00070E0000
00070E0000
000F0E0010
000E0E0010
001E0E0030
001C0E0030
003C0E0030
00780E0030
00700E0030
00F00E0070
03E00F0070
07800FC7F0
1F0007FFE0
3C0003FFE0
F000007E00
ENDCHAR
STARTCHAR U+5165
ENCODING 20837
SWIDTH 500 0
DWIDTH 40 0
BBX 38 35 2 -3
BITMAP
0006000000
000F800000
0007800000
0003800000
0003C00000
0001C00000
0001C00000
0001E00000
0000E00000
0000E00000
0000F00000
0000F00000
0000F80000
0001F80000
0001FC0000
0003DC0000
00039E0000
00078E0000
00070F0000
000F078000
001E038000
001C03C000
003C01E000
007800F000
00F000F800
00E0007C00
01E0003E00
03C0001F00
0780000F80
0F000007C0
1E000003E0
38000001F0
70000000FC
E00000007C
8000000030
ENDCHAR
STARTCHAR U+516D
ENCODING 20845
SWIDTH 500 0
DWIDTH 40 0
BBX 34 33 3 -2
BITMAP
0003C00000
0001C00000
0001C00000
0001C00000
0001C00000
0001C00000
0001C00000
0001C00000
0001C00000
0001C07F80
03FFFFFFC0
FFFFFFFFC0
FFFFFFF000
7F80000000
0000000000
0000000000
0000000000
0030060000
00380F0000
00780F8000
007807C000
00F003E000
01F001E000
01E000F000
03C0007800
0780007C00
0F00003E00
0E00001F00
1C00000F80
3800000780
7000000780
E000000300
8000000000
ENDCHAR
STARTCHAR U+5199
ENCODING 20889
SWIDTH 500 0
DWIDTH 40 0
BBX 34 35 2 -4
BITMAP
0100000000
0380000300
0387FFFFC0
07FFFFFFC0
07FFFFE780
07B0000700
0E38000700
0E38000E00
1E38000C00
1C3800D800
3C3FFFF000
183FFFF000
007FFC0000
0070000000
0070000000
00E0000000
00FFFFFE00
00FFFFFE00
00FFFF1E00
0000001E00
0000001C00
0000001C00
00001E1C00
FFFFFF1C00
7FFFFF1C00
3FE0003800
0000003800
0000003800
0000007800
0001C07800
0000F07000
00007FF000
00001FE000
00000FE000
000003C000
ENDCHAR
STARTCHAR U+5230
ENCODING 21040
SWIDTH 500 0
DWIDTH 40 0
BBX 34 37 2 -4
BITMAP
0000000300
00000003C0
00000001C0
00000001C0
01FFF001C0
7FFFF801C0
3FFF8001C0
00E00301C0
01E00381C0
01C601C1C0
03CF01C1C0
038781C1C0
078381C1C0
0707C1C1C0
0FFFE1C1C0
7FFFF1C1C0
3FC071C1C0
106071C1C0
007001C1C0
007001C1C0
007001C1C0
0070C1C1C0
3FFFE1C1C0
3FFFE1C1C0
1FF001C1C0
007003C1C0
007003C1C0
007019C1C0
0070F801C0
007FE001C0
00FF0001C0
0FF80041C0
FFE00071C0
FF00003FC0
7000001FC0
0000000FC0
0000000780
ENDCHAR
STARTCHAR U+5468
ENCODING 21608
SWIDTH 500 0
DWIDTH 40 0
BBX 32 35 2 -4
BITMAP
0000003E
071FFFFF
07FFFFFF
03FFFE07
0380C007
03807007
03807007
03807007
0380FF87
039FFFC7
039FFF87
03807007
03807007
038070E7
03FFFFF7
03FFFFF7
03BE0007
03800007
07080207
070FFF87
070FFF87
070F0387
070E0307
0E0E0307
0E0E0707
0E07FF07
0C07FF87
1C0FFF07
1C060007
38000707
300003C7
700001FF
6000007F
C000003F
8000000E
ENDCHAR
STARTCHAR U+5929
ENCODING 22825
SWIDTH 500 0
DWIDTH 40 0
BBX 37 33 2 -3
BITMAP
0000000800
0001FFFE00
07FFFFFE00
07FFFFE000
03F0F00000
0000F00000
0000E00000
0000E00000
0000E00000
0000E00000
0000E00000
0000E00100
0001FFFFC0
1FFFFFFFC0
1FFFFFF000
0FC1F00000
0001F80000
0003FC0000
00039C0000
00078E0000
00070F0000
000F078000
001E03C000
003C01E000
007800F000
00F0007800
01E0003C00
03C0001F00
0780000FC0
1F000007E0
3C000001F8
F0000000F8
C000000020
ENDCHAR
STARTCHAR U+5B66
ENCODING 23398
SWIDTH 500 0
DWIDTH 40 0
BBX 35 36 3 -4
BITMAP
0003007000
0303807000
0383C07000
01C1C0F000
01E1E0E000
00E0E1C000
0870E38000
1C70038780
1C7FFFFFC0
1FFFFFFFC0
3FFFFF0380
3C00000380
3800000700
7003FFC600
71FFFFCE00
F1FFFFCC00
E060078000
40001E0000
0001BC0000
0003F80000
0001F00000
0001C00000
0001FFFFC0
FFFFFFFFE0
FFFFFFFF00
7FC0E00000
0000E00000
0000E00000
0000F00000
0000700000
00E0700000
0078F00000
003FE00000
000FE00000
0003E00000
0001C00000
ENDCHAR
STARTCHAR U+5B9D
ENCODING 23453
SWIDTH 500 0
DWIDTH 40 0
BBX 33 34 4 -2
BITMAP
0003800000
0003C00000
0003C00000
0003C00000
0C03C00000
1C03C7FF00
1FFFFFFF80
3FFFFFFF80
3FFF800700
3800000E00
7000000C00
7000001C00
F00001D000
EDFFFFE000
EFFFFFF000
07FFF80000
0003800000
0003800000
0003800000
0003800000
0003800000
03FFFFC000
03FFFFC000
03FFFF8000
0003980000
00039E0000
00039F0000
0003878000
000383C000
000381C000
0003808200
FFFFFFFF00
FFFFFFFF80
FFFFFFF800
ENDCHAR
STARTCHAR U+5C3D
ENCODING 23613
SWIDTH 500 0
DWIDTH 40 0
BBX 38 35 1 -4
BITMAP
00C003FC00
00FFFFFE00
007FFFFE00
007FF80E00
0070000E00
0070001E00
0070001C00
0070001C00
0070001C00
0071FFFE00
00FFFFFE00
00FFFFFC00
00F01E0000
00E00F0000
00E0078000
01C003C000
01C001E000
03C000F000
0383807800
0787E03E00
0703F81F00
0E00FE0FC0
0E003F07F0
1C000F01FC
380003007C
700000003C
E00E000008
001F800000
000FE00000
0003F80000
0000FE0000
00003F8000
00000FC000
000003C000
000000C000
ENDCHAR
STARTCHAR U+5C71
ENCODING 23665
SWIDTH 500 0
DWIDTH 40 0
BBX 29 34 5 -3
BITMAP
00060000
00070000
00070000
00070000
00070000
00070000
00070000
00070000
00070000
00070000
00070030
E0070038
70070038
70070038
70070038
70070038
70070038
70070038
70070038
70070038
70070038
70070038
70070038
70070038
70070038
70070038
70070038
700707F8
707FFFF8
7FFFFFF8
7FFFF838
7F800038
00000038
00000038
ENDCHAR
STARTCHAR U+6539
ENCODING 25913
SWIDTH 500 0
DWIDTH 40 0
BBX 37 35 2 -3
BITMAP
0000030000
0000038000
0000078000
0000070000
007C070000
3FFE0F0000
3FFE0E0000
1C0E0E0000
000E1C0040
000E1FFFE0
000E3FFFF0
001C3FFF00
001C780E00
381C780E00
3FFE7C1C00
1FFEFC1C00
1C01CE1C00
1C018E3800
1C03873800
1C0307F000
1C0603F000
1C0001E000
1C0001E000
1C0181E000
1C0703F000
1C3E07F800
1CF80F3C00
1FF01E1E00
1FC03C0F00
FF00780780
FC00F003C0
7001E001E0
00038000F8
000F000078
001C000038
ENDCHAR
STARTCHAR U+653E
ENCODING 25918
SWIDTH 500 0
DWIDTH 40 0
BBX 39 35 1 -3
BITMAP
000001C000
00C001E000
00E001E000
00E001C000
006001C000
006003C000
0060038000
0060438000
43FFE70000
7FFFF7FFF8
7FFE0FFFF8
01C00FFFE0
01C00E0780
01801E0700
03861F0700
03FF3F0F00
03FF738E00
0387638E00
0707C1DE00
070781FC00
070E00FC00
060E00F800
0E0E007800
0E0E007800
0C0E00FC00
1C0E01FE00
180E01CF00
381C038700
361C070780
731C0F03E0
63FC1C01F0
C1F83800F8
80F870007C
0070E0003E
000180001C
ENDCHAR
STARTCHAR U+65E5
ENCODING 26085
SWIDTH 500 0
DWIDTH 40 0
BBX 24 32 8 -3
BITMAP
E00FFE
FFFFFF
7FFFFE
7FC00E
70000E
70000E
70000E
70000E
70000E
70000E
70000E
70000E
70000E
7FFFFE
7FFFFE
7FFFFE
70000E
70000E
70000E
70000E
70001E
70001E
70001C
70001C
70001C
70001C
7803FC
7FFFFE
7FFFFE
7FC000
780000
380000
ENDCHAR
STARTCHAR U+65E6
ENCODING 26086
SWIDTH 500 0
DWIDTH 40 0
BBX 36 30 2 -1
BITMAP
03001FF000
03FFFFF800
01FFFFF800
01FF803800
01C0003800
01C0003800
01C0007800
01C0007800
01C001F000
01FFFFF000
01FFFFF000
01FFFC7000
01E0007000
00E0007000
00E0007000
00E0007000
00E0007000
00E000F000
00FFFFF000
00FFFFF800
00FFFFF000
00E0000000
00E0000000
0000000000
0000000000
0000000000
000003FFE0
FFFFFFFFF0
FFFFFFFFF0
7FFFFE0000
ENDCHAR
STARTCHAR U+6709
ENCODING 26377
SWIDTH 500 0
DWIDTH 40 0
BBX 35 37 2 -4
BITMAP
0000C00000
0000E00000
0000E00000
0001E00000
0001C00000
0001C00000
0003C00FC0
003FFFFFE0
7FFFFFFFE0
3FFFFC0000
180F000000
000E000000
001C000000
003C1FF000
003FFFF000
007FFFF000
00FC007000
01FC007000
01DC007000
039C7FF000
071FFFF000
0E1FFFF000
1C1C007000
381C007000
701C007000
E01DFFF000
801FFFF000
003FFFF000
003C007000
0038007000
0038007000
0038007000
00380E7000
00380FF000
003803F800
003801F000
0008007000
ENDCHAR
STARTCHAR U+6CB3
ENCODING 27827
SWIDTH 500 0
DWIDTH 40 0
BBX 37 34 2 -4
BITMAP
1C00000000
1E00000000
0F00000FF0
079FFFFFF8
03EFFFFFF8
01EFFFCF00
00C0000E00
0000000E00
4000000E00
F000000E00
F802000E00
3E03FF8E00
1F03FF8E00
0F83E38E00
0303838E00
0003838F00
0023830F00
0063830F00
0061FF8F00
00C1FF8F00
01C1FF8F00
0181800F00
0380800F00
0700000F00
0700000F00
0E00000F00
1E00000F00
3C00000F00
3C00070F00
780003CF00
700001FF00
0000007F00
0000003E00
0000000E00
ENDCHAR
STARTCHAR U+6D41
ENCODING 27969
SWIDTH 500 0
DWIDTH 40 0
BBX 36 35 2 -3
BITMAP
00000E0000
00000E0000
18000E0000
1E000E0000
0F000E0000
07800E0F00
03DFFFFF80
01FFFFFF80
00CFFE0000
0000384000
000038E000
E00070F000
F800E07800
7C00E07C00
1E01FFFE00
0F1FFFFF00
070FFE0780
0007800300
00031C3800
00438E3800
00C38E3800
01C38E3800
01838E3800
03838E3800
03038E3800
07038E3810
07070E3810
0E070E3830
1E0F0E3830
1C0E0E3830
3C1C0E3830
783C0E3870
70780E3FF0
30E00E1FF0
01C0000FC0
ENDCHAR
STARTCHAR U+6D77
ENCODING 28023
SWIDTH 500 0
DWIDTH 40 0
BBX 37 37 2 -4
BITMAP
0000800000
0000E00000
1000E00000
3C01E00000
1E01C00000
0F01C3FFC0
0783FFFFC0
03C3FFFF00
01C7000000
0086000000
000E000000
001FFFFF00
E01BFFFF00
F833FF0700
7C239C0700
1E039F0700
0F0387C700
070383C700
000300C730
0007FFFFF8
01FFFFFFF8
01BFFF0F00
0307180E00
03073E0E00
07070F8E00
060E078E00
0E0E018E00
0E0E1FFFE0
1C0FFFFFF0
3C0FFFFFC0
3800001C00
7800001C00
F0000C1C00
F0000FFC00
000003F800
000001F800
0000003000
ENDCHAR
STARTCHAR U+7434
ENCODING 29748
SWIDTH 500 0
DWIDTH 40 0
BBX 38 36 1 -5
BITMAP
0000001F80
007FCFFFC0
0FFFEFFFC0
07FFC07000
0038007000
0038007100
003B8FFF80
07FFC7FF80
03FFC3F000
0038007000
0038407000
003BC070C0
003F6FFFE0
03FC7FFFE0
1FF0F30000
1FC1FC0000
0E03FE0000
00078F8000
001F07E000
003F81F800
007BFC7E00
01F3FF3F80
03C01E0FE0
0F800003FC
3E47FFF0FC
F07FFFF03C
C03FFFF000
000000E000
000001E000
000003C000
0000078000
00000F0000
00001E0000
00007C0000
0000780000
0000200000
ENDCHAR
STARTCHAR U+767D
ENCODING 30333
SWIDTH 500 0
DWIDTH 40 0
BBX 26 37 7 -4
BITMAP
00100000
00380000
003C0000
003C0000
00780000
00780000
00F00000
01E00000
01C00000
C3FFFFC0
FFFFFFC0
FFFFFFC0
FE0001C0
F00003C0
700003C0
700003C0
70000380
70000380
70000380
701FFF80
7FFFFF80
7FFFFF80
7F800380
70000380
70000380
70000380
70000380
70000780
70000700
70000700
783FFF80
7FFFFF80
7FFFFF80
7E000000
78000000
38000000
10000000
ENDCHAR
STARTCHAR U+8BFE
ENCODING 35838
SWIDTH 500 0
DWIDTH 40 0
BBX 37 34 2 -4
BITMAP
0E03FFFF80
0F03FFFF80
0783FFC380
03C3838380
01E3838380
00F383FF80
0071FFFF00
0021FFFF00
0001C38700
0001C38700
0001C38700
FFC1FFFF00
FFC1FFFF80
7FC1FFF000
01C1C38000
01C0038000
018003FFF0
018FFFFFF0
0187FFFFE0
01800FE000
01800FF000
01801FF800
01843BBC00
038C7B9E00
0398738F00
03F8E38780
03F1C383E0
07E38381F0
0FC70380F8
078E038030
0218038000
0000038000
0000038000
0000038000
ENDCHAR
STARTCHAR U+8D1D
ENCODING 36125
SWIDTH 500 0
DWIDTH 40 0
BBX 29 35 6 -4
BITMAP
18003F00
1FFFFF80
1FFFFF80
0FFC0380
0E000380
0E000380
0E000380
0E0E0380
0E070380
0E070380
0E070780
0E070780
0E070700
0E070700
0E070700
0E070700
0E070700
0E0E0700
0E0E0700
0E0E0700
0E0E0700
0E0E0700
0E0E0700
0E1C0700
0E1C4700
0E3CF000
0038FC00
00707E00
00F01F00
01E00FC0
07C003E0
0F0001F0
3E0000F8
F8000078
C0000010
ENDCHAR
STARTCHAR U+8FD8
ENCODING 36824
SWIDTH 500 0
DWIDTH 40 0
BBX 37 33 1 -3
BITMAP
0C000003C0
0E04FFFFE0
0F87FFFFE0
07C3FFF000
03E000E000
01E001E000
00F003C000
006003C000
0000038000
0000078000
03E00F8000
7FF00F9000
3FE01FB800
11E03BBE00
01C07B9F00
0380F38F80
0701E387C0
0703C383E0
07070381F0
07CE0380F0
03EC038070
00E0038020
00F0038000
01E0038000
03C0038000
0780038000
0F80038000
7FFC018000
FFFFF00000
603FFFE000
0001FFFFF8
000007FFF8
0000001FF8
ENDCHAR
STARTCHAR U+94A2
ENCODING 38050
SWIDTH 500 0
DWIDTH 40 0
BBX 36 36 1 -4
BITMAP
0100000000
0380000000
0380C01FE0
0380FFFFF0
0780FFFFF0
070CF00070
07FEE00070
0FFFE01C70
0FF0E00E70
1C00E41E70
1800EE1C70
3000E71C70
701CE79C70
7FFEE39C70
DFFEE1F870
07C0E1F870
01C0E0F070
01C0E07070
01C0E07070
01C4E0F870
7FFEE0F870
7FFEE1DC70
3FE0E19E70
01C0E38E70
01C0E30F70
01C0E60770
01C0EE0770
01C6EC0070
01CEE80070
01FCE00070
01F8E01870
03F0E01E70
07C0E00FF0
0380E003F0
0100E001F0
0000600040
ENDCHAR
STARTCHAR U+9EC4
ENCODING 40644
SWIDTH 500 0
DWIDTH 40 0
BBX 37 36 2 -4
BITMAP
0018070000
001C070000
001C070000
001C070000
001C07FE00
0FFFFFFE00
0FFFFFFE00
07FE070000
000C070000
000E070000
000E0FFFF0
FFFFFFFFF8
FFFFFFFFF0
7FFFE00000
0000E00000
0200FFF000
03FFFFF800
03FFFFF800
03F0E03800
0180E03800
01C0FFF800
01FFFFF000
01FFFFF000
01C0E07000
01C0E07000
01C0E0F000
01FFFFF800
01FFFFF800
01FE000000
00C60E0000
000E0FC000
003F0FF800
00FE01FE00
07F0007F00
3F80000F00
3800000300
ENDCHAR
STARTCHAR U+FF0C
ENCODING 65292
SWIDTH 500 0
DWIDTH 40 0
BBX 5 8 4 -4
BITMAP
78
78
78
78
38
30
70
E0
ENDCHAR
ENDFONT
