STARTFONT 2.1
FONT wenkai-24
SIZE 24 75 75
FONTBOUNDINGBOX 48 30 0 -7
STARTPROPERTIES 3
PIXEL_SIZE 24
FONT_ASCENT 23
FONT_DESCENT 7
ENDPROPERTIES
CHARS 127
STARTCHAR U+0020
ENCODING 32
SWIDTH 500 0
DWIDTH 8 0
BBX 0 0 0 0
BITMAP
ENDCHAR
STARTCHAR U+0021
ENCODING 33
SWIDTH 500 0
DWIDTH 8 0
BBX 3 17 3 0
BITMAP
C0
C0
C0
C0
C0
C0
C0
C0
C0
C0
C0
C0
C0
00
00
C0
E0
ENDCHAR
STARTCHAR U+0022
ENCODING 34
SWIDTH 500 0
DWIDTH 8 0
BBX 5 6 2 11
BITMAP
D8
D8
D8
D8
D8
90
ENDCHAR
STARTCHAR U+0023
ENCODING 35
SWIDTH 500 0
DWIDTH 14 0
BBX 13 17 1 0
BITMAP
0C60
0C60
0860
0840
7FF8
7FF8
18C0
18C0
18C0
18C0
FFF0
FFF0
3180
3180
3180
3180
3180
ENDCHAR
STARTCHAR U+0024
ENCODING 36
SWIDTH 500 0
DWIDTH 14 0
BBX 12 21 1 -3
BITMAP
0600
1FC0
3FE0
7660
6600
6600
6600
7E00
1F80
07C0
0660
0630
0630
0630
8630
C670
77E0
3FC0
0700
0600
0600
ENDCHAR
STARTCHAR U+0025
ENCODING 37
SWIDTH 500 0
DWIDTH 19 0
BBX 17 19 1 -1
BITMAP
000400
7E0600
660C00
C31C00
C31800
C33000
C27000
6E6000
3CC000
01C000
019E00
033B00
033180
062180
0C2180
0C3180
183380
381F00
100400
ENDCHAR
STARTCHAR U+0026
ENCODING 38
SWIDTH 500 0
DWIDTH 17 0
BBX 15 18 1 -1
BITMAP
0F80
1D80
18C0
30C0
3180
1B80
1F00
0E04
1E0C
370C
638C
C198
C0F8
C070
C070
61FC
7F8E
0C00
ENDCHAR
STARTCHAR U+0027
ENCODING 39
SWIDTH 500 0
DWIDTH 8 0
BBX 2 6 3 11
BITMAP
C0
C0
C0
C0
C0
40
ENDCHAR
STARTCHAR U+0028
ENCODING 40
SWIDTH 500 0
DWIDTH 8 0
BBX 6 23 2 -4
BITMAP
0C
08
18
30
30
20
60
60
60
E0
C0
C0
C0
C0
E0
60
60
60
30
30
10
08
0C
ENDCHAR
STARTCHAR U+0029
ENCODING 41
SWIDTH 500 0
DWIDTH 8 0
BBX 5 23 1 -4
BITMAP
80
C0
40
60
20
30
30
30
18
18
18
18
18
18
18
18
30
30
30
60
60
C0
80
ENDCHAR
STARTCHAR U+002A
ENCODING 42
SWIDTH 500 0
DWIDTH 12 0
BBX 8 8 2 9
BITMAP
18
18
DB
FF
3C
3C
66
24
ENDCHAR
STARTCHAR U+002B
ENCODING 43
SWIDTH 500 0
DWIDTH 14 0
BBX 12 12 1 0
BITMAP
0600
0600
0600
0600
0600
FFF0
FFF0
0600
0600
0600
0600
0600
ENDCHAR
STARTCHAR U+002C
ENCODING 44
SWIDTH 500 0
DWIDTH 8 0
BBX 3 4 3 -2
BITMAP
C0
E0
40
C0
ENDCHAR
STARTCHAR U+002D
ENCODING 45
SWIDTH 500 0
DWIDTH 8 0
BBX 7 2 1 5
BITMAP
FE
FE
ENDCHAR
STARTCHAR U+002E
ENCODING 46
SWIDTH 500 0
DWIDTH 8 0
BBX 3 3 3 0
BITMAP
40
E0
E0
ENDCHAR
STARTCHAR U+002F
ENCODING 47
SWIDTH 500 0
DWIDTH 8 0
BBX 8 19 0 -1
BITMAP
03
03
03
06
06
04
0C
0C
08
18
18
10
30
30
60
60
40
C0
C0
ENDCHAR
STARTCHAR U+0030
ENCODING 48
SWIDTH 500 0
DWIDTH 14 0
BBX 11 18 2 -1
BITMAP
1F00
3F80
71C0
60C0
C0C0
C060
C060
C060
C060
C060
C060
C060
C0C0
C0C0
61C0
7380
3F00
0C00
ENDCHAR
STARTCHAR U+0031
ENCODING 49
SWIDTH 500 0
DWIDTH 14 0
BBX 6 17 3 0
BITMAP
1C
3C
FC
0C
0C
0C
0C
0C
0C
0C
0C
0C
0C
0C
0C
0C
0C
ENDCHAR
STARTCHAR U+0032
ENCODING 50
SWIDTH 500 0
DWIDTH 14 0
BBX 12 17 1 0
BITMAP
0FC0
3FE0
3060
6030
0030
0060
0060
00C0
0180
0300
0E00
1C00
1800
3000
6000
FFF0
FFF0
ENDCHAR
STARTCHAR U+0033
ENCODING 51
SWIDTH 500 0
DWIDTH 14 0
BBX 12 18 1 -1
BITMAP
1FC0
3FE0
7060
2060
0060
00E0
01C0
0F80
0FE0
0060
0030
0030
0030
0030
C060
71E0
3FC0
0600
ENDCHAR
STARTCHAR U+0034
ENCODING 52
SWIDTH 500 0
DWIDTH 14 0
BBX 13 17 1 0
BITMAP
0180
0180
0380
0300
06C0
0EC0
0CC0
18C0
18C0
30C0
60C0
60D0
FFF8
7CC0
00C0
00C0
00C0
ENDCHAR
STARTCHAR U+0035
ENCODING 53
SWIDTH 500 0
DWIDTH 14 0
BBX 12 18 1 -1
BITMAP
1FE0
3FE0
3000
3000
3000
2000
6700
7FC0
70E0
6070
0030
0030
0030
4030
E060
71E0
3FC0
0600
ENDCHAR
STARTCHAR U+0036
ENCODING 54
SWIDTH 500 0
DWIDTH 14 0
BBX 12 18 1 -1
BITMAP
0300
0700
0E00
0C00
1800
1800
3700
3FC0
78E0
6070
6030
C030
C030
6030
6060
38E0
1FC0
0200
ENDCHAR
STARTCHAR U+0037
ENCODING 55
SWIDTH 500 0
DWIDTH 14 0
BBX 11 17 2 0
BITMAP
0FC0
FFE0
40C0
00C0
0180
0180
0300
0300
0600
0600
0E00
0C00
0C00
1800
1800
3800
3000
ENDCHAR
STARTCHAR U+0038
ENCODING 56
SWIDTH 500 0
DWIDTH 14 0
BBX 12 18 1 -1
BITMAP
1F80
3FC0
7060
6030
6060
31C0
3F00
0F00
1FC0
38E0
6060
6030
C030
C030
6060
71E0
3FC0
0600
ENDCHAR
STARTCHAR U+0039
ENCODING 57
SWIDTH 500 0
DWIDTH 14 0
BBX 12 17 1 0
BITMAP
0F80
3FF0
3070
6030
6030
C060
C060
C0E0
61E0
7FE0
1C40
00C0
00C0
00C0
00C0
00C0
0180
ENDCHAR
STARTCHAR U+003A
ENCODING 58
SWIDTH 500 0
DWIDTH 8 0
BBX 3 11 3 0
BITMAP
C0
E0
00
00
00
00
00
00
00
C0
E0
ENDCHAR
STARTCHAR U+003B
ENCODING 59
SWIDTH 500 0
DWIDTH 8 0
BBX 3 13 3 -2
BITMAP
C0
E0
00
00
00
00
00
00
00
C0
E0
40
80
ENDCHAR
STARTCHAR U+003C
ENCODING 60
SWIDTH 500 0
DWIDTH 14 0
BBX 10 12 2 0
BITMAP
0040
01C0
0380
0E00
3C00
F000
E000
7800
1C00
0700
03C0
00C0
ENDCHAR
STARTCHAR U+003D
ENCODING 61
SWIDTH 500 0
DWIDTH 14 0
BBX 12 6 1 3
BITMAP
FFF0
7FF0
0000
0000
7FF0
FFF0
ENDCHAR
STARTCHAR U+003E
ENCODING 62
SWIDTH 500 0
DWIDTH 14 0
BBX 10 12 2 0
BITMAP
C000
E000
7800
1C00
0700
01C0
00C0
0380
0E00
3C00
7000
C000
ENDCHAR
STARTCHAR U+003F
ENCODING 63
SWIDTH 500 0
DWIDTH 14 0
BBX 11 17 2 0
BITMAP
1F80
3DC0
60E0
C060
C0C0
00C0
0180
0300
0600
0C00
0C00
0C00
0C00
0000
0000
0C00
0C00
ENDCHAR
STARTCHAR U+0040
ENCODING 64
SWIDTH 500 0
DWIDTH 19 0
BBX 17 18 1 -1
BITMAP
03F800
0F3E00
180700
304300
63F980
673980
C61980
CC1980
CC1980
CC3980
CC7300
CCFB00
C7DE80
610980
700700
3C1E00
0FF800
008000
ENDCHAR
STARTCHAR U+0041
ENCODING 65
SWIDTH 500 0
DWIDTH 17 0
BBX 17 17 0 0
BITMAP
00C000
01C000
01C000
03E000
036000
062000
063000
0C3000
0C1800
1C1800
3FFC00
3FCC00
300600
700600
600700
E00300
C00380
ENDCHAR
STARTCHAR U+0042
ENCODING 66
SWIDTH 500 0
DWIDTH 16 0
BBX 13 17 1 0
BITMAP
7FC0
7FE0
6030
6030
6030
6070
60E0
7FC0
7FF0
6038
6018
6018
6018
6018
6038
60F0
FFC0
ENDCHAR
STARTCHAR U+0043
ENCODING 67
SWIDTH 500 0
DWIDTH 17 0
BBX 15 18 1 -1
BITMAP
07F0
0FFC
1C0C
3000
7000
6000
6000
C000
C000
C000
C000
C000
E002
6006
700C
3C78
1FF0
0180
ENDCHAR
STARTCHAR U+0044
ENCODING 68
SWIDTH 500 0
DWIDTH 17 0
BBX 15 17 1 0
BITMAP
7FC0
7FF0
6038
601C
600C
6006
6006
6006
6006
6006
6006
6006
600C
601C
6038
61F0
FFC0
ENDCHAR
STARTCHAR U+0045
ENCODING 69
SWIDTH 500 0
DWIDTH 15 0
BBX 12 17 2 0
BITMAP
FFE0
FFE0
C000
C000
C000
C000
C000
FFC0
FFC0
C000
C000
C000
C000
C000
C000
FFF0
FFF0
ENDCHAR
STARTCHAR U+0046
ENCODING 70
SWIDTH 500 0
DWIDTH 14 0
BBX 11 17 2 0
BITMAP
FFE0
FFE0
C000
C000
C000
C000
C000
FFC0
FFC0
C000
C000
C000
C000
C000
C000
C000
C000
ENDCHAR
STARTCHAR U+0047
ENCODING 71
SWIDTH 500 0
DWIDTH 18 0
BBX 16 18 1 -1
BITMAP
03F8
0FFC
1C0C
3800
3000
6000
6000
C000
C0FE
C0FF
C002
C006
E006
600E
701E
3C7E
1FF3
0100
ENDCHAR
STARTCHAR U+0048
ENCODING 72
SWIDTH 500 0
DWIDTH 17 0
BBX 13 17 2 0
BITMAP
C018
C018
C018
C018
C018
C018
C038
FFF8
FE38
C018
C018
C018
C018
C018
C018
C018
C018
ENDCHAR
STARTCHAR U+0049
ENCODING 73
SWIDTH 500 0
DWIDTH 7 0
BBX 2 17 3 0
BITMAP
C0
C0
C0
C0
C0
C0
C0
C0
C0
C0
C0
C0
C0
C0
C0
C0
C0
ENDCHAR
STARTCHAR U+004A
ENCODING 74
SWIDTH 500 0
DWIDTH 12 0
BBX 9 18 0 -1
BITMAP
0180
0180
0180
0180
0180
0180
0180
0180
0180
0180
0180
0180
0180
C180
E180
7380
3F00
0C00
ENDCHAR
STARTCHAR U+004B
ENCODING 75
SWIDTH 500 0
DWIDTH 15 0
BBX 13 17 2 0
BITMAP
C060
C0E0
C1C0
C380
C700
CE00
FC00
F800
F800
CC00
C600
C700
C380
C1C0
C0E0
C070
C038
ENDCHAR
STARTCHAR U+004C
ENCODING 76
SWIDTH 500 0
DWIDTH 13 0
BBX 11 17 2 0
BITMAP
C000
C000
C000
C000
C000
C000
C000
C000
C000
C000
C000
C000
C000
C000
C000
FFC0
FFE0
ENDCHAR
STARTCHAR U+004D
ENCODING 77
SWIDTH 500 0
DWIDTH 21 0
BBX 19 17 1 0
BITMAP
300380
380380
380780
380780
3C0D80
6C0D80
661980
661980
621080
6330C0
6330C0
61E0C0
61E0C0
C0C0C0
C0C0C0
C000C0
C000E0
ENDCHAR
STARTCHAR U+004E
ENCODING 78
SWIDTH 500 0
DWIDTH 18 0
BBX 13 17 2 0
BITMAP
E018
E018
F018
F018
D818
DC18
CC18
C618
C718
C318
C198
C1D8
C0D8
C078
C078
C038
C018
ENDCHAR
STARTCHAR U+004F
ENCODING 79
SWIDTH 500 0
DWIDTH 18 0
BBX 16 18 1 -1
BITMAP
03F0
1F78
380C
700E
6006
6006
C003
C003
C003
C003
C003
C006
6006
600E
301C
3C78
0FF0
0180
ENDCHAR
STARTCHAR U+0050
ENCODING 80
SWIDTH 500 0
DWIDTH 15 0
BBX 13 17 1 0
BITMAP
7FE0
FFF0
6038
6018
6018
6038
6070
61E0
7FC0
7000
6000
6000
6000
6000
6000
6000
6000
ENDCHAR
STARTCHAR U+0051
ENCODING 81
SWIDTH 500 0
DWIDTH 18 0
BBX 16 19 1 -2
BITMAP
03F0
1F78
380C
700E
6006
6006
C003
C003
C003
C003
C003
C006
6186
61CE
30FC
3C78
0FF8
018E
0007
ENDCHAR
STARTCHAR U+0052
ENCODING 82
SWIDTH 500 0
DWIDTH 15 0
BBX 13 17 2 0
BITMAP
FF80
FFC0
C060
C060
C060
C060
C0E0
EFC0
FF00
F800
CC00
C600
C300
C180
C0C0
C060
C038
ENDCHAR
STARTCHAR U+0053
ENCODING 83
SWIDTH 500 0
DWIDTH 15 0
BBX 13 18 1 -1
BITMAP
1FC0
3FE0
7070
6000
6000
6000
7800
1F80
07E0
0070
0030
0030
0018
8030
C030
70E0
3FC0
0600
ENDCHAR
STARTCHAR U+0054
ENCODING 84
SWIDTH 500 0
DWIDTH 14 0
BBX 13 17 0 0
BITMAP
7FF8
FFF8
0300
0300
0300
0300
0300
0300
0300
0300
0300
0300
0300
0300
0300
0300
0300
ENDCHAR
STARTCHAR U+0055
ENCODING 85
SWIDTH 500 0
DWIDTH 17 0
BBX 13 18 2 -1
BITMAP
C018
C018
C018
C018
C018
C018
C018
C018
C018
C018
C018
C018
C038
6030
6070
78E0
3FC0
0600
ENDCHAR
STARTCHAR U+0056
ENCODING 86
SWIDTH 500 0
DWIDTH 15 0
BBX 15 17 0 0
BITMAP
C006
600C
600C
701C
3018
3018
1830
1830
1860
0C60
0C60
0CC0
06C0
07C0
0780
0380
0300
ENDCHAR
STARTCHAR U+0057
ENCODING 87
SWIDTH 500 0
DWIDTH 21 0
BBX 21 17 0 0
BITMAP
C02018
E07018
607038
607030
60D830
30D860
30D860
318860
318C60
198CC0
198CC0
1B04C0
1B0780
0F0780
0E0780
0E0300
060300
ENDCHAR
STARTCHAR U+0058
ENCODING 88
SWIDTH 500 0
DWIDTH 14 0
BBX 14 17 0 0
BITMAP
6008
7018
3838
1830
0C60
0EC0
07C0
0380
0380
0780
0EC0
0CE0
1860
3830
3038
601C
E00C
ENDCHAR
STARTCHAR U+0059
ENCODING 89
SWIDTH 500 0
DWIDTH 14 0
BBX 14 17 0 0
BITMAP
C00C
601C
7018
3030
1860
1C60
0CC0
07C0
0780
0300
0300
0300
0300
0300
0300
0300
0300
ENDCHAR
STARTCHAR U+005A
ENCODING 90
SWIDTH 500 0
DWIDTH 14 0
BBX 13 17 1 0
BITMAP
0FF0
7FF0
0070
00E0
00C0
0180
0300
0700
0600
0C00
1C00
1800
3000
7000
6000
FFF0
FFF8
ENDCHAR
STARTCHAR U+005B
ENCODING 91
SWIDTH 500 0
DWIDTH 8 0
BBX 4 23 4 -4
BITMAP
20
F0
80
80
80
80
80
80
80
80
80
80
80
80
80
80
80
80
80
80
80
F0
F0
ENDCHAR
STARTCHAR U+005C
ENCODING 92
SWIDTH 500 0
DWIDTH 8 0
BBX 8 19 0 -1
BITMAP
C0
C0
40
60
60
30
30
10
18
18
08
0C
0C
04
06
06
03
03
01
ENDCHAR
STARTCHAR U+005D
ENCODING 93
SWIDTH 500 0
DWIDTH 8 0
BBX 4 23 1 -4
BITMAP
20
F0
30
30
30
30
30
30
30
30
30
30
30
30
30
30
30
30
30
30
30
F0
E0
ENDCHAR
STARTCHAR U+005E
ENCODING 94
SWIDTH 500 0
DWIDTH 14 0
BBX 11 11 2 6
BITMAP
0C00
0E00
1E00
1B00
3300
3180
6180
60C0
C0C0
C060
0040
ENDCHAR
STARTCHAR U+005F
ENCODING 95
SWIDTH 500 0
DWIDTH 12 0
BBX 12 2 0 -4
BITMAP
FFF0
FFF0
ENDCHAR
STARTCHAR U+0060
ENCODING 96
SWIDTH 500 0
DWIDTH 12 0
BBX 4 3 4 14
BITMAP
C0
E0
30
ENDCHAR
STARTCHAR U+0061
ENCODING 97
SWIDTH 500 0
DWIDTH 14 0
BBX 11 13 1 -1
BITMAP
0740
1FE0
38E0
7060
6060
4060
C0E0
C0E0
C0E0
C1E0
6360
7E60
1800
ENDCHAR
STARTCHAR U+0062
ENCODING 98
SWIDTH 500 0
DWIDTH 14 0
BBX 11 18 2 -1
BITMAP
C000
C000
C000
C000
C000
C700
DF80
F0C0
E0C0
E060
C060
C040
C0C0
C0C0
C180
E380
FF00
0800
ENDCHAR
STARTCHAR U+0063
ENCODING 99
SWIDTH 500 0
DWIDTH 13 0
BBX 11 13 1 -1
BITMAP
0700
1FC0
38C0
7000
6000
C000
C000
C000
C020
6040
71C0
3F00
0C00
ENDCHAR
STARTCHAR U+0064
ENCODING 100
SWIDTH 500 0
DWIDTH 14 0
BBX 11 18 1 -1
BITMAP
0060
0060
0060
0060
0060
0760
1FE0
38E0
7060
6060
C060
C060
C0E0
C0E0
C1E0
6360
3E20
1800
ENDCHAR
STARTCHAR U+0065
ENCODING 101
SWIDTH 500 0
DWIDTH 13 0
BBX 11 13 1 -1
BITMAP
0700
1FC0
38E0
7060
6060
63C0
FF80
E000
C000
6060
71C0
3F80
0C00
ENDCHAR
STARTCHAR U+0066
ENCODING 102
SWIDTH 500 0
DWIDTH 9 0
BBX 9 17 0 0
BITMAP
0F00
1F80
1900
1800
1800
7F00
FF00
1800
1800
1800
1800
1800
1800
1800
1800
1800
1800
ENDCHAR
STARTCHAR U+0067
ENCODING 103
SWIDTH 500 0
DWIDTH 14 0
BBX 11 16 1 -4
BITMAP
0F40
1FE0
30E0
6060
6060
C060
C060
C060
C0E0
61E0
7F60
3E60
0060
C0C0
7380
3F00
ENDCHAR
STARTCHAR U+0068
ENCODING 104
SWIDTH 500 0
DWIDTH 14 0
BBX 10 17 2 0
BITMAP
C000
C000
C000
C000
C000
C700
DF80
F0C0
E0C0
E0C0
C0C0
C0C0
C0C0
C0C0
C0C0
C0C0
C0C0
ENDCHAR
STARTCHAR U+0069
ENCODING 105
SWIDTH 500 0
DWIDTH 6 0
BBX 2 17 2 0
BITMAP
C0
C0
C0
00
00
C0
C0
C0
C0
C0
C0
C0
C0
C0
C0
C0
C0
ENDCHAR
STARTCHAR U+006A
ENCODING 106
SWIDTH 500 0
DWIDTH 7 0
BBX 5 21 0 -4
BITMAP
18
18
18
00
00
18
18
18
18
18
18
18
18
18
18
18
18
18
18
F8
F0
ENDCHAR
STARTCHAR U+006B
ENCODING 107
SWIDTH 500 0
DWIDTH 12 0
BBX 10 17 2 0
BITMAP
C000
C000
C000
C000
C000
C180
C380
CE00
DC00
F000
F000
D800
CC00
C600
C300
C180
C0C0
ENDCHAR
STARTCHAR U+006C
ENCODING 108
SWIDTH 500 0
DWIDTH 6 0
BBX 4 18 2 -1
BITMAP
C0
C0
C0
C0
C0
C0
C0
C0
C0
C0
C0
C0
C0
C0
C0
D0
F0
20
ENDCHAR
STARTCHAR U+006D
ENCODING 109
SWIDTH 500 0
DWIDTH 20 0
BBX 16 12 2 0
BITMAP
8E38
FF7C
F3C6
E186
C182
C183
C183
C183
C183
C183
C183
C183
ENDCHAR
STARTCHAR U+006E
ENCODING 110
SWIDTH 500 0
DWIDTH 14 0
BBX 10 12 2 0
BITMAP
8700
DF80
F0C0
E0C0
E0C0
C0C0
C0C0
C0C0
C0C0
C0C0
C0C0
C0C0
ENDCHAR
STARTCHAR U+006F
ENCODING 111
SWIDTH 500 0
DWIDTH 13 0
BBX 11 13 1 -1
BITMAP
0700
3FC0
30C0
6060
6060
C060
C060
C060
C060
60C0
71C0
3F80
0400
ENDCHAR
STARTCHAR U+0070
ENCODING 112
SWIDTH 500 0
DWIDTH 14 0
BBX 11 16 2 -4
BITMAP
8700
DF80
F0C0
E0C0
E060
C060
C040
C0C0
C0C0
C1C0
E380
FF00
C800
C000
C000
C000
ENDCHAR
STARTCHAR U+0071
ENCODING 113
SWIDTH 500 0
DWIDTH 14 0
BBX 11 16 1 -4
BITMAP
0740
1FE0
38E0
6060
6060
C060
C060
C0E0
C0E0
C1E0
63E0
3E60
1860
0060
0060
0060
ENDCHAR
STARTCHAR U+0072
ENCODING 114
SWIDTH 500 0
DWIDTH 10 0
BBX 8 12 2 0
BITMAP
CE
FF
F3
E0
C0
C0
C0
C0
C0
C0
C0
C0
ENDCHAR
STARTCHAR U+0073
ENCODING 115
SWIDTH 500 0
DWIDTH 12 0
BBX 10 13 1 -1
BITMAP
1E00
3F80
6080
6000
6000
3E00
0F80
01C0
00C0
C0C0
61C0
7F80
0C00
ENDCHAR
STARTCHAR U+0074
ENCODING 116
SWIDTH 500 0
DWIDTH 9 0
BBX 8 17 0 -1
BITMAP
10
18
18
10
7E
FF
10
10
10
10
10
10
10
10
1B
1E
08
ENDCHAR
STARTCHAR U+0075
ENCODING 117
SWIDTH 500 0
DWIDTH 14 0
BBX 11 13 2 -1
BITMAP
C0C0
C0C0
C0C0
C0C0
C0C0
C0C0
C0C0
C1C0
C1C0
C3C0
67C0
7E60
1000
ENDCHAR
STARTCHAR U+0076
ENCODING 118
SWIDTH 500 0
DWIDTH 12 0
BBX 10 12 1 0
BITMAP
80C0
C0C0
C0C0
6180
6180
6300
3300
3200
3600
1E00
1C00
0C00
ENDCHAR
STARTCHAR U+0077
ENCODING 119
SWIDTH 500 0
DWIDTH 18 0
BBX 16 12 1 0
BITMAP
8003
C383
C382
C386
62C6
66C4
66CC
646C
3C68
3C78
3838
1830
ENDCHAR
STARTCHAR U+0078
ENCODING 120
SWIDTH 500 0
DWIDTH 12 0
BBX 10 12 1 0
BITMAP
40C0
E1C0
6180
3300
1E00
1E00
0C00
1E00
3300
7380
6180
C0C0
ENDCHAR
STARTCHAR U+0079
ENCODING 121
SWIDTH 500 0
DWIDTH 12 0
BBX 12 16 0 -4
BITMAP
4020
6070
6060
3060
30C0
18C0
1980
0D80
0F00
0F00
0600
0600
0C00
0C00
F800
7000
ENDCHAR
STARTCHAR U+007A
ENCODING 122
SWIDTH 500 0
DWIDTH 12 0
BBX 10 12 1 0
BITMAP
0380
7F80
2380
0300
0600
0C00
1800
3800
3000
6000
FF80
FFC0
ENDCHAR
STARTCHAR U+007B
ENCODING 123
SWIDTH 500 0
DWIDTH 8 0
BBX 6 23 2 -4
BITMAP
04
18
10
30
30
30
30
30
30
30
70
E0
70
30
30
30
30
30
30
30
30
18
0C
ENDCHAR
STARTCHAR U+007C
ENCODING 124
SWIDTH 500 0
DWIDTH 8 0
BBX 2 18 3 -1
BITMAP
C0
C0
C0
C0
C0
C0
C0
C0
C0
C0
C0
C0
C0
C0
C0
C0
C0
40
ENDCHAR
STARTCHAR U+007D
ENCODING 125
SWIDTH 500 0
DWIDTH 8 0
BBX 7 23 0 -4
BITMAP
C0
60
30
30
30
30
30
30
30
30
18
1E
1C
30
30
30
30
30
30
30
30
60
C0
ENDCHAR
STARTCHAR U+007E
ENCODING 126
SWIDTH 500 0
DWIDTH 14 0
BBX 12 4 1 4
BITMAP
3810
7E30
C7E0
81C0
ENDCHAR
STARTCHAR U+3002
ENCODING 12290
SWIDTH 500 0
DWIDTH 24 0
BBX 7 7 2 -2
BITMAP
30
7C
CC
86
84
EC
78
ENDCHAR
STARTCHAR U+4E1A
ENCODING 19994
SWIDTH 500 0
DWIDTH 24 0
BBX 22 19 1 -1
BITMAP
018C00
018C00
018C00
018C00
018C20
318C30
318C70
198C60
198C60
0D8CC0
0C8C80
0C8D80
008C00
008C00
008C00
008C00
01CC08
FFFFFC
7FF800
ENDCHAR
STARTCHAR U+4F5C
ENCODING 20316
SWIDTH 500 0
DWIDTH 24 0
BBX 22 22 1 -2
BITMAP
000800
030C00
031C00
031800
061800
063FFC
0C3FF0
1C6400
1C6400
3CC620
2D87F0
6D0600
CC0400
0C0400
0C07F8
0C07F8
0C0400
0C0400
0C0400
0C0400
0C0C00
0C0400
ENDCHAR
STARTCHAR U+4F9D
ENCODING 20381
SWIDTH 500 0
DWIDTH 24 0
BBX 23 21 1 -2
BITMAP
060C00
060600
060600
0C0600
0C0FF8
19FFF8
181C00
381C00
383C30
583670
D876E0
98F3C0
18B380
193180
1A30C0
1830E0
183160
183638
183C1C
18F00E
18C000
ENDCHAR
STARTCHAR U+5143
ENCODING 20803
SWIDTH 500 0
DWIDTH 24 0
BBX 21 19 1 -2
BITMAP
0FFFC0
0FFF00
000000
000000
000000
0007F0
7FFFF8
3FCC00
018C00
018C00
018C00
030C08
030C08
060808
0E0808
0C0C18
180E78
700FF0
C00000
ENDCHAR
STARTCHAR U+5148
ENCODING 20808
SWIDTH 500 0
DWIDTH 24 0
BBX 21 21 1 -2
BITMAP
003000
033000
033000
033000
077FC0
07FFC0
043000
0C3000
183000
103FF0
7FFFF0
3DCC00
018C00
018C00
030C08
030C08
060C08
0C0C08
180C18
700FF8
C001C0
ENDCHAR
STARTCHAR U+5165
ENCODING 20837
SWIDTH 500 0
DWIDTH 24 0
BBX 23 21 1 -2
BITMAP
00C000
00C000
006000
006000
006000
003000
003000
007800
007800
006C00
00CC00
01C600
018700
030380
070180
0E00C0
0C0060
180038
30001C
40000E
800004
ENDCHAR
STARTCHAR U+516D
ENCODING 20845
SWIDTH 500 0
DWIDTH 24 0
BBX 20 20 2 -1
BITMAP
00C000
006000
006000
006000
006000
006000
01FFF0
FFFFF0
F80000
000000
000000
030C00
070E00
0E0700
0C0380
1801C0
3000E0
7000E0
400070
800020
ENDCHAR
STARTCHAR U+5199
ENCODING 20889
SWIDTH 500 0
DWIDTH 24 0
BBX 20 20 1 -2
BITMAP
0801F0
1FFFF0
1F8030
130060
330040
333F80
23FF80
020000
060000
07FFE0
07FEE0
000040
0000C0
FFFEC0
7FF0C0
0000C0
000180
003180
001F80
000F00
ENDCHAR
STARTCHAR U+5230
ENCODING 21040
SWIDTH 500 0
DWIDTH 24 0
BBX 20 23 1 -3
BITMAP
000020
000030
003010
7FF810
3E0010
060210
0CC310
18C310
19E310
7FF310
363310
020310
020310
3FE310
3FE310
020310
020310
037010
07C010
FE0110
7000F0
000070
000010
ENDCHAR
STARTCHAR U+5468
ENCODING 21608
SWIDTH 500 0
DWIDTH 24 0
BBX 19 20 1 -2
BITMAP
1FFFE0
0FFC60
083020
083020
083E20
09FE20
083020
0C3120
0FFFE0
080020
190420
19FE20
188620
188620
10CE20
30FE20
308020
600720
4003E0
8000E0
ENDCHAR
STARTCHAR U+5929
ENCODING 22825
SWIDTH 500 0
DWIDTH 24 0
BBX 21 19 2 -1
BITMAP
000380
3FFFC0
1FE000
006000
006000
006000
006000
00FFE0
7FFFE0
00F000
00F000
019800
018C00
030E00
060700
0C0380
1801C0
300070
C00038
ENDCHAR
STARTCHAR U+5B66
ENCODING 23398
SWIDTH 500 0
DWIDTH 24 0
BBX 21 21 2 -2
BITMAP
00C180
084380
0C6300
062600
362FF0
7FFFF0
7E0030
600060
CFFE40
C78E00
001C00
00F000
006000
0FFFF8
FFFFE0
002000
003000
003000
063000
03E000
00E000
ENDCHAR
STARTCHAR U+5B9D
ENCODING 23453
SWIDTH 500 0
DWIDTH 24 0
BBX 20 20 2 -1
BITMAP
006000
006000
106000
33FFF0
3FFFF0
600060
600040
C00F80
5FFF80
086000
006000
006000
00FF00
0FFF00
006800
006C00
006700
006300
00FFF0
FFFFF0
ENDCHAR
STARTCHAR U+5C3D
ENCODING 23613
SWIDTH 500 0
DWIDTH 24 0
BBX 22 21 1 -2
BITMAP
000080
07FFC0
07F0C0
0600C0
0600C0
0600C0
07FFC0
0FFC00
0C0C00
0C0E00
0C0700
18C380
10F1E0
303C70
600C3C
C0000C
818000
01E000
007800
001E00
000600
ENDCHAR
STARTCHAR U+5C71
ENCODING 23665
SWIDTH 500 0
DWIDTH 24 0
BBX 18 20 3 -2
BITMAP
00C000
00C000
00C000
00C000
00C000
00C080
C0C0C0
C0C0C0
C0C0C0
40C0C0
40C0C0
40C0C0
40C080
40C080
40C080
40C180
63FF80
FFFF80
700180
000080
ENDCHAR
STARTCHAR U+6539
ENCODING 25913
SWIDTH 500 0
DWIDTH 24 0
BBX 22 21 1 -2
BITMAP
000600
000600
038600
7F8C00
018C00
019FF8
019FF8
019860
3FB840
3F6CC0
3044C0
30C780
300380
300300
30C780
3786C0
3E0CE0
F81870
607038
00C01C
01000C
ENDCHAR
STARTCHAR U+653E
ENCODING 25918
SWIDTH 500 0
DWIDTH 24 0
BBX 23 21 1 -2
BITMAP
000200
040700
040600
040600
066C00
FFEFFC
7C0FFC
081C60
191C60
1FB460
19E6C0
1183C0
318380
318380
218380
6106C0
630E60
DB0C30
8F181C
06600E
004004
ENDCHAR
STARTCHAR U+65E5
ENCODING 26085
SWIDTH 500 0
DWIDTH 24 0
BBX 14 19 5 -2
BITMAP
FFFC
FFCC
C00C
C00C
C00C
C00C
C00C
C1FC
FFFC
E008
C008
4008
4018
4018
4018
60F8
7FFC
6000
6000
ENDCHAR
STARTCHAR U+65E6
ENCODING 26086
SWIDTH 500 0
DWIDTH 24 0
BBX 22 18 1 -1
BITMAP
0FFFC0
0FFDC0
0C0080
0C0080
040180
07FF80
07F980
060180
060180
060180
07FF80
07FF80
060000
000000
000000
0003F8
FFFFFC
7F0000
ENDCHAR
STARTCHAR U+6709
ENCODING 26377
SWIDTH 500 0
DWIDTH 24 0
BBX 21 22 1 -2
BITMAP
002000
003000
006000
006000
00FFF8
7FFFF0
21C000
018000
03FF80
03FF80
070180
0F0180
19FF80
318180
610180
C1FF80
03FF80
030180
030180
030980
030780
030380
ENDCHAR
STARTCHAR U+6CB3
ENCODING 27827
SWIDTH 500 0
DWIDTH 24 0
BBX 22 20 1 -2
BITMAP
300000
18007C
0DFFFC
06E060
000060
C00060
70CE60
387E60
186660
004660
026660
047E60
0C6060
0C0060
180060
380060
300060
600660
6003E0
0000E0
ENDCHAR
STARTCHAR U+6D41
ENCODING 27969
SWIDTH 500 0
DWIDTH 24 0
BBX 22 21 1 -2
BITMAP
000C00
300C00
380C00
1C3FF0
0FFFF0
001900
C01180
6031C0
387FE0
19FE70
00C0A0
044C80
046CC0
0C4CC0
084CC0
18CCC4
30CC84
318C84
618CCC
630CFC
040070
ENDCHAR
STARTCHAR U+6D77
ENCODING 28023
SWIDTH 500 0
DWIDTH 24 0
BBX 22 22 1 -2
BITMAP
002000
003000
306000
3867F0
0CFFF0
04C000
018000
C1FFE0
627C20
384E20
18C760
00C37C
07FFFC
08D860
08DC60
188660
3183F8
31FFFC
6000C0
E008C0
4007C0
000380
ENDCHAR
STARTCHAR U+7434
ENCODING 29748
SWIDTH 500 0
DWIDTH 24 0
BBX 22 22 1 -3
BITMAP
000020
3FFFF0
1FC180
020180
17CFF0
1FC780
020180
03E3F0
1F3FF8
3C7000
00DC00
038F00
07F3C0
0C7CF0
38003C
E7FF8C
03F300
000700
000E00
001C00
003800
003000
ENDCHAR
STARTCHAR U+767D
ENCODING 30333
SWIDTH 500 0
DWIDTH 24 0
BBX 16 21 4 -2
BITMAP
0380
0300
0700
0600
0C0E
FFFF
FF03
C003
4003
4002
6006
7FFE
7F86
6006
6006
6006
6006
63FE
7FFE
6000
6000
ENDCHAR
STARTCHAR U+8BFE
ENCODING 35838
SWIDTH 500 0
DWIDTH 24 0
BBX 22 21 1 -3
BITMAP
18FFF0
1C7F30
0E6630
067FF0
027FF0
006620
006660
FC7FF0
0C6600
0C0600
0DFFFC
0CFF80
0C0F80
0C9EC0
0D3660
0F6630
1E461C
1D860C
010600
000600
000200
ENDCHAR
STARTCHAR U+8D1D
ENCODING 36125
SWIDTH 500 0
DWIDTH 24 0
BBX 17 20 4 -2
BITMAP
3FFE00
3F0E00
300400
300400
318400
318C00
318C00
318C00
318C00
318C00
318C00
318C00
310C00
330C00
336400
067800
0E1C00
1C0F00
300380
C00180
ENDCHAR
STARTCHAR U+8FD8
ENCODING 36824
SWIDTH 500 0
DWIDTH 24 0
BBX 22 20 1 -2
BITMAP
3000F0
39FFF8
1CC300
0E0700
040600
000E00
7C0E00
7C1F80
0C36C0
186660
30C638
198618
0C0608
0E0600
0C0600
180600
FF0000
EFFC00
003FFC
0000FC
ENDCHAR
STARTCHAR U+94A2
ENCODING 38050
SWIDTH 500 0
DWIDTH 24 0
BBX 21 21 1 -2
BITMAP
180000
186FF8
187FF8
3FE018
3FE0D8
2060D8
406CD8
CF6698
BF6798
086398
086318
0D6398
FFE3D8
5C66D8
086478
086878
09F018
0F6018
0E60D8
1C6078
006038
ENDCHAR
STARTCHAR U+9EC4
ENCODING 40644
SWIDTH 500 0
DWIDTH 24 0
BBX 22 21 1 -2
BITMAP
010600
018600
018FE0
1FFFE0
098600
018400
03FFFC
FFFFC0
003000
0FFFC0
0FFFC0
0C3080
0FFF80
0FFF80
0C3180
07FF80
07FF80
048C00
01CF80
0F83E0
7C0060
ENDCHAR
STARTCHAR U+FF0C
ENCODING 65292
SWIDTH 500 0
DWIDTH 24 0
BBX 3 4 3 -2
BITMAP
C0
E0
40
C0
ENDCHAR
ENDFONT
