STARTFONT 2.1
FONT wenkai-32
SIZE 32 75 75
FONTBOUNDINGBOX 64 39 0 -9
STARTPROPERTIES 3
PIXEL_SIZE 32
FONT_ASCENT 30
FONT_DESCENT 9
ENDPROPERTIES
CHARS 127
STARTCHAR U+0020
ENCODING 32
SWIDTH 500 0
DWIDTH 11 0
BBX 0 0 0 0
BITMAP
ENDCHAR
STARTCHAR U+0021
ENCODING 33
SWIDTH 500 0
DWIDTH 11 0
BBX 3 23 4 0
BITMAP
E0
E0
E0
E0
E0
E0
E0
E0
E0
E0
E0
E0
E0
60
60
60
60
60
00
00
E0
E0
E0
ENDCHAR
STARTCHAR U+0022
ENCODING 34
SWIDTH 500 0
DWIDTH 11 0
BBX 7 8 2 15
BITMAP
EE
EE
EE
EE
EE
EE
EE
66
ENDCHAR
STARTCHAR U+0023
ENCODING 35
SWIDTH 500 0
DWIDTH 19 0
BBX 18 23 1 0
BITMAP
030E00
030E00
070E00
070C00
070C00
060C00
7FFF80
7FFFC0
0E1C00
0E1C00
0E1800
0E1800
0C1800
0C1800
FFFF00
FFFF80
5C3800
1C3800
1C3000
183000
183000
183000
187000
ENDCHAR
STARTCHAR U+0024
ENCODING 36
SWIDTH 500 0
DWIDTH 19 0
BBX 17 29 1 -4
BITMAP
008000
01C000
03F000
0FFC00
1FFE00
39C700
71C200
71C000
71C000
71C000
39C000
3FC000
0FF000
01FC00
01FE00
01C700
01C700
01C380
01C380
01C380
C1C380
E1C700
79CF00
3FFE00
1FF800
03E000
01C000
01C000
00C000
ENDCHAR
STARTCHAR U+0025
ENCODING 37
SWIDTH 500 0
DWIDTH 26 0
BBX 22 25 2 -1
BITMAP
000040
3E00E0
7F00E0
E381C0
C18380
C18380
C1C700
C18700
C18E00
E39C00
7F1C00
3E3800
007000
0071E0
00E3F8
00C738
01CE1C
038E0C
038C0C
070C0C
0E0E0C
0E0E1C
1C0738
3803F0
1801E0
ENDCHAR
STARTCHAR U+0026
ENCODING 38
SWIDTH 500 0
DWIDTH 22 0
BBX 20 24 2 -1
BITMAP
03C000
0FF000
1E7000
183000
183000
187000
187000
18E000
1DC000
0F8000
0F00C0
1F00E0
3B80C0
71C1C0
E0E1C0
E07380
C03B80
C01F00
C01E00
C00F00
E03F80
F9FBC0
3FE0F0
0F8030
ENDCHAR
STARTCHAR U+0027
ENCODING 39
SWIDTH 500 0
DWIDTH 11 0
BBX 3 8 4 15
BITMAP
E0
E0
E0
E0
E0
E0
E0
60
ENDCHAR
STARTCHAR U+0028
ENCODING 40
SWIDTH 500 0
DWIDTH 11 0
BBX 7 30 3 -5
BITMAP
06
06
0C
1C
18
38
30
30
70
70
60
E0
E0
E0
E0
E0
E0
E0
E0
E0
60
70
70
30
30
18
18
0C
0E
06
ENDCHAR
STARTCHAR U+0029
ENCODING 41
SWIDTH 500 0
DWIDTH 11 0
BBX 7 30 1 -5
BITMAP
C0
E0
60
30
30
38
18
1C
1C
0C
0E
0E
0E
0E
0E
0E
0E
0E
0E
0E
0E
0C
1C
1C
18
38
30
60
E0
C0
ENDCHAR
STARTCHAR U+002A
ENCODING 42
SWIDTH 500 0
DWIDTH 16 0
BBX 11 11 3 12
BITMAP
0C00
0C00
0C00
CDC0
FFE0
FF80
1E00
3F00
7380
7380
2100
ENDCHAR
STARTCHAR U+002B
ENCODING 43
SWIDTH 500 0
DWIDTH 19 0
BBX 16 16 2 0
BITMAP
0180
0380
0380
0380
0380
0380
0380
FFFF
FFFF
0380
0380
0380
0380
0380
0380
0380
ENDCHAR
STARTCHAR U+002C
ENCODING 44
SWIDTH 500 0
DWIDTH 11 0
BBX 4 6 3 -3
BITMAP
70
70
70
30
70
E0
ENDCHAR
STARTCHAR U+002D
ENCODING 45
SWIDTH 500 0
DWIDTH 11 0
BBX 10 2 1 7
BITMAP
FFC0
FFC0
ENDCHAR
STARTCHAR U+002E
ENCODING 46
SWIDTH 500 0
DWIDTH 11 0
BBX 4 5 4 -1
BITMAP
40
E0
F0
F0
40
ENDCHAR
STARTCHAR U+002F
ENCODING 47
SWIDTH 500 0
DWIDTH 11 0
BBX 11 25 0 -1
BITMAP
0040
00E0
00C0
00C0
01C0
0180
0180
0380
0300
0700
0600
0600
0E00
0C00
0C00
1C00
1800
1800
3800
3000
7000
6000
6000
E000
C000
ENDCHAR
STARTCHAR U+0030
ENCODING 48
SWIDTH 500 0
DWIDTH 19 0
BBX 15 24 2 -1
BITMAP
03C0
07F0
1F78
3C38
381C
700C
700E
600E
E00E
E00E
E00E
E00E
E00E
E00E
E00E
E00E
E00E
600C
701C
701C
3838
1FF0
0FE0
0380
ENDCHAR
STARTCHAR U+0031
ENCODING 49
SWIDTH 500 0
DWIDTH 19 0
BBX 8 24 4 -1
BITMAP
06
0F
3F
FE
E6
06
06
06
06
06
06
06
06
06
06
06
06
06
06
06
06
06
07
02
ENDCHAR
STARTCHAR U+0032
ENCODING 50
SWIDTH 500 0
DWIDTH 19 0
BBX 15 23 2 0
BITMAP
07E0
0FF8
3F7C
781E
700E
700E
000E
000E
001C
003C
0038
00F0
01E0
03C0
0780
0F00
1E00
3C00
3800
7000
E000
FFFE
FFFE
ENDCHAR
STARTCHAR U+0033
ENCODING 51
SWIDTH 500 0
DWIDTH 19 0
BBX 15 24 2 -1
BITMAP
07E0
1FF8
3E7C
781C
600C
000C
001C
001C
0078
01F8
0FF0
0FF8
001C
000E
000E
0006
0006
0006
000E
C00E
E03C
FFF8
3FF0
0F80
ENDCHAR
STARTCHAR U+0034
ENCODING 52
SWIDTH 500 0
DWIDTH 19 0
BBX 16 24 2 -1
BITMAP
0060
0060
00E0
00E0
01C0
01C0
03B0
0738
0738
0E38
0C38
1C38
3838
3038
7038
E038
FFFF
FFFF
F038
0038
0038
0038
0038
0010
ENDCHAR
STARTCHAR U+0035
ENCODING 53
SWIDTH 500 0
DWIDTH 19 0
BBX 15 24 2 -1
BITMAP
0018
3FFC
3FFC
3800
3000
3000
3000
3000
7000
7FF0
7FF8
783C
700E
000E
0006
0006
0006
0006
C00E
E01E
F03C
7FF8
3FF0
07C0
ENDCHAR
STARTCHAR U+0036
ENCODING 54
SWIDTH 500 0
DWIDTH 19 0
BBX 15 24 2 -1
BITMAP
01C0
01C0
0380
0700
0700
0E00
0C00
1C00
3800
3FE0
7FF8
7C3C
701E
E00E
E006
E006
E006
E006
E00E
E00E
701C
3FF8
1FF0
03C0
ENDCHAR
STARTCHAR U+0037
ENCODING 55
SWIDTH 500 0
DWIDTH 19 0
BBX 15 23 2 0
BITMAP
000C
FFFE
7FFE
780C
001C
0018
0038
0030
0070
0060
00E0
00E0
01C0
01C0
0180
0380
0300
0700
0700
0E00
0E00
0E00
0C00
ENDCHAR
STARTCHAR U+0038
ENCODING 56
SWIDTH 500 0
DWIDTH 19 0
BBX 15 24 2 -1
BITMAP
07C0
1FF0
3C78
701C
700E
600E
701C
7070
3CE0
1FC0
0FC0
1FF0
3C78
781C
700E
E00E
C00E
C00E
C00E
E00E
F01C
7FF8
3FF0
0780
ENDCHAR
STARTCHAR U+0039
ENCODING 57
SWIDTH 500 0
DWIDTH 19 0
BBX 16 24 2 -1
BITMAP
03E0
0FF6
3E7F
381E
700E
E00E
E00E
C00C
C01C
C03C
E03C
E0FC
7FFC
3FD8
1E18
0038
0038
0038
0030
0030
0070
0070
0070
0020
ENDCHAR
STARTCHAR U+003A
ENCODING 58
SWIDTH 500 0
DWIDTH 11 0
BBX 3 15 4 0
BITMAP
E0
E0
E0
00
00
00
00
00
00
00
00
00
E0
E0
E0
ENDCHAR
STARTCHAR U+003B
ENCODING 59
SWIDTH 500 0
DWIDTH 11 0
BBX 4 18 3 -3
BITMAP
70
70
70
00
00
00
00
00
00
00
00
00
70
70
70
30
60
C0
ENDCHAR
STARTCHAR U+003C
ENCODING 60
SWIDTH 500 0
DWIDTH 19 0
BBX 13 17 3 -1
BITMAP
0008
0038
0078
01F0
07C0
0F00
3C00
F800
E000
F800
3E00
0F00
03C0
01F0
0078
0018
0008
ENDCHAR
STARTCHAR U+003D
ENCODING 61
SWIDTH 500 0
DWIDTH 19 0
BBX 15 8 2 4
BITMAP
FFFE
FFFE
0000
0000
0000
0000
FFFE
FFFE
ENDCHAR
STARTCHAR U+003E
ENCODING 62
SWIDTH 500 0
DWIDTH 19 0
BBX 13 16 3 0
BITMAP
C000
E000
F800
3C00
1F00
07C0
01F0
0078
0038
00F8
03E0
0780
1F00
7C00
F000
E000
ENDCHAR
STARTCHAR U+003F
ENCODING 63
SWIDTH 500 0
DWIDTH 19 0
BBX 14 23 3 0
BITMAP
07E0
1FF8
3E38
701C
E01C
E01C
C01C
0038
0078
00F0
01E0
03C0
0380
0700
0700
0600
0700
0200
0000
0000
0700
0F00
0700
ENDCHAR
STARTCHAR U+0040
ENCODING 64
SWIDTH 500 0
DWIDTH 25 0
BBX 23 24 1 -1
BITMAP
007F00
01FFE0
07C1F0
0F0038
1E001C
383E8C
38FFCE
71E3C6
61C1C6
638186
E30186
E70386
C7038E
C7078C
E7078C
E39F9C
E3FDF8
61F9F6
70000C
380038
1E00F0
0FFFE0
03FF80
007C00
ENDCHAR
STARTCHAR U+0041
ENCODING 65
SWIDTH 500 0
DWIDTH 22 0
BBX 22 23 0 0
BITMAP
003000
003800
003800
007C00
007C00
00EC00
00CE00
01C600
018700
038700
038300
070380
070180
0E0FC0
3FFFC0
3FFFE0
1C0060
380070
380070
700038
700038
E0001C
E0001C
ENDCHAR
STARTCHAR U+0042
ENCODING 66
SWIDTH 500 0
DWIDTH 21 0
BBX 17 24 2 -1
BITMAP
1FF000
FFFC00
FC7E00
700E00
700600
700700
700600
700E00
701C00
70F800
7FF800
7FFE00
700F00
700380
700380
700180
700180
700180
700380
700780
701F00
73FE00
FFF800
0C0000
ENDCHAR
STARTCHAR U+0043
ENCODING 67
SWIDTH 500 0
DWIDTH 23 0
BBX 21 24 1 -1
BITMAP
007F00
01FFC0
07E7E0
0F00E0
1E0060
1C0000
380000
380000
700000
700000
600000
600000
600000
E00000
E00000
600000
700000
700018
700030
3800E0
3E03C0
1FFF80
07FF00
00F800
ENDCHAR
STARTCHAR U+0044
ENCODING 68
SWIDTH 500 0
DWIDTH 23 0
BBX 20 23 2 0
BITMAP
3FE000
FFFC00
FC7E00
700F00
700380
7001C0
7000E0
7000E0
700060
700070
700070
700070
700070
700070
700060
7000E0
7000E0
7001C0
7003C0
700F80
703F00
7FFC00
FFF000
ENDCHAR
STARTCHAR U+0045
ENCODING 69
SWIDTH 500 0
DWIDTH 20 0
BBX 17 23 2 0
BITMAP
007E00
7FFF00
7FFE00
700000
700000
700000
700000
700000
700000
703800
FFFC00
7FFC00
700000
700000
700000
700000
700000
700000
700000
700000
700000
7FFF80
7FFF80
ENDCHAR
STARTCHAR U+0046
ENCODING 70
SWIDTH 500 0
DWIDTH 19 0
BBX 16 23 2 0
BITMAP
007E
7FFF
7FFE
7000
7000
7000
7000
7000
7000
7038
FFFC
7FFC
7000
7000
7000
7000
7000
7000
7000
7000
7000
7000
7000
ENDCHAR
STARTCHAR U+0047
ENCODING 71
SWIDTH 500 0
DWIDTH 24 0
BBX 20 24 2 -1
BITMAP
00FE00
03FF80
0FC7C0
1E01E0
1C00C0
380000
700000
700000
E00000
E00000
E00000
C03FF0
C03FF0
C01C70
C00070
C00070
E00070
E000F0
E000F0
7001F0
3C07F0
1FFF70
0FFE70
01F000
ENDCHAR
STARTCHAR U+0048
ENCODING 72
SWIDTH 500 0
DWIDTH 22 0
BBX 18 23 2 0
BITMAP
600180
7001C0
7001C0
7001C0
7001C0
7001C0
7001C0
7001C0
7001C0
70FFC0
FFFFC0
FFFFC0
7001C0
7001C0
7001C0
7001C0
7001C0
7001C0
7001C0
7001C0
7001C0
7001C0
7001C0
ENDCHAR
STARTCHAR U+0049
ENCODING 73
SWIDTH 500 0
DWIDTH 10 0
BBX 3 23 3 0
BITMAP
40
E0
E0
E0
E0
E0
E0
E0
E0
E0
E0
E0
E0
E0
E0
E0
E0
E0
E0
E0
E0
E0
E0
ENDCHAR
STARTCHAR U+004A
ENCODING 74
SWIDTH 500 0
DWIDTH 16 0
BBX 13 24 0 -1
BITMAP
0030
0038
0038
0038
0038
0038
0030
0030
0030
0030
0030
0030
0030
0030
0030
0030
0030
0030
E030
E070
7070
3FE0
1FE0
0780
ENDCHAR
STARTCHAR U+004B
ENCODING 75
SWIDTH 500 0
DWIDTH 20 0
BBX 17 23 3 0
BITMAP
C00400
E00E00
E01E00
E03800
E07000
E1E000
E3C000
E78000
EF0000
FC0000
FC0000
FE0000
EE0000
E70000
E38000
E1C000
E0E000
E07000
E03800
E01C00
E00E00
E00F00
E00780
ENDCHAR
STARTCHAR U+004C
ENCODING 76
SWIDTH 500 0
DWIDTH 18 0
BBX 14 23 3 0
BITMAP
C000
E000
E000
E000
E000
E000
E000
E000
E000
E000
E000
E000
E000
E000
E000
E000
E000
E000
E000
E000
E000
FFFC
FFFC
ENDCHAR
STARTCHAR U+004D
ENCODING 77
SWIDTH 500 0
DWIDTH 27 0
BBX 25 23 1 0
BITMAP
08000C00
1C001E00
1E001E00
1E003E00
1E003E00
1F007E00
3B006600
3B80E600
3B80C600
3981C600
39C18600
30C38700
30E38700
30E30700
30670700
70760300
703E0300
703C0300
701C0300
601C0380
60000380
E0000380
E0000380
ENDCHAR
STARTCHAR U+004E
ENCODING 78
SWIDTH 500 0
DWIDTH 24 0
BBX 18 24 3 -1
BITMAP
600180
F001C0
F001C0
F801C0
F801C0
FC01C0
EE01C0
EE01C0
E701C0
E701C0
E381C0
E1C1C0
E1C1C0
E0E1C0
E071C0
E071C0
E039C0
E01DC0
E01FC0
E00FC0
E007C0
E003C0
E00380
000100
ENDCHAR
STARTCHAR U+004F
ENCODING 79
SWIDTH 500 0
DWIDTH 24 0
BBX 20 24 2 -1
BITMAP
00FC00
03FF00
1F8F80
3E01C0
3800E0
7000E0
700070
E00070
E00070
C00030
C00030
C00030
C00030
C00030
C00070
E00070
E00070
E000E0
7000E0
7801C0
3C0780
1FFF00
0FFE00
01F000
ENDCHAR
STARTCHAR U+0050
ENCODING 80
SWIDTH 500 0
DWIDTH 20 0
BBX 17 23 2 0
BITMAP
1FF000
FFFC00
FF7F00
700700
700300
700380
700380
700700
700F00
701E00
70FC00
7FF800
7F8000
700000
700000
700000
700000
700000
700000
700000
700000
700000
700000
ENDCHAR
STARTCHAR U+0051
ENCODING 81
SWIDTH 500 0
DWIDTH 24 0
BBX 20 25 2 -2
BITMAP
00FC00
03FF00
1F8F80
3E01C0
3800E0
7000E0
700070
E00070
E00070
C00030
C00030
C00030
C00030
C00030
C00070
E00070
E02070
E070E0
7078E0
783DC0
3C1F80
1FFF80
0FFF80
01F1C0
0000F0
ENDCHAR
STARTCHAR U+0052
ENCODING 82
SWIDTH 500 0
DWIDTH 20 0
BBX 18 24 2 -1
BITMAP
0FF000
FFFC00
FC7E00
700E00
700700
700700
700700
700700
700E00
703C00
7FF800
7FE000
7F0000
770000
738000
71C000
70E000
707000
703800
701C00
700E00
700700
7003C0
0000C0
ENDCHAR
STARTCHAR U+0053
ENCODING 83
SWIDTH 500 0
DWIDTH 20 0
BBX 17 24 1 -1
BITMAP
03F000
0FFC00
1F3F00
3C0700
380300
700000
700000
700000
3C0000
1F8000
0FF800
01FC00
001F00
000700
000380
000380
000380
000380
600380
E00780
780F00
3FFE00
1FFC00
03E000
ENDCHAR
STARTCHAR U+0054
ENCODING 84
SWIDTH 500 0
DWIDTH 18 0
BBX 18 24 0 -1
BITMAP
001FC0
FFFFC0
FFFFC0
00E000
00E000
00E000
00E000
00E000
00E000
00E000
00E000
00E000
00E000
00E000
00E000
00E000
00E000
00E000
00E000
00E000
00E000
00E000
00E000
004000
ENDCHAR
STARTCHAR U+0055
ENCODING 85
SWIDTH 500 0
DWIDTH 23 0
BBX 17 24 3 -1
BITMAP
C00300
E00380
E00380
E00380
E00380
E00380
E00380
E00380
E00380
E00380
E00380
E00380
E00380
E00380
E00380
E00380
E00300
E00700
E00700
700F00
781E00
3FFC00
1FF800
07C000
ENDCHAR
STARTCHAR U+0056
ENCODING 86
SWIDTH 500 0
DWIDTH 20 0
BBX 20 24 0 -1
BITMAP
600060
E00070
7000E0
7000E0
3801C0
3801C0
380180
1C0380
1C0380
0C0700
0E0700
0E0600
060E00
070E00
070C00
031C00
039800
01B800
01F800
01F000
00F000
00F000
00E000
006000
ENDCHAR
STARTCHAR U+0057
ENCODING 87
SWIDTH 500 0
DWIDTH 28 0
BBX 28 24 0 -1
BITMAP
60000060
E00E0070
700F0070
700F00E0
700F00E0
301F80E0
381F80C0
381981C0
383981C0
1839C180
1C31C380
1C30C380
0C70C300
0C70E300
0E60E700
0EE06700
06E06600
06E07E00
07C07E00
07C03C00
03C03C00
03803C00
03801C00
01000800
ENDCHAR
STARTCHAR U+0058
ENCODING 88
SWIDTH 500 0
DWIDTH 19 0
BBX 19 24 0 -1
BITMAP
300080
7801C0
3801C0
1C0380
0E0700
0E0E00
070E00
039C00
03B800
01F800
00F000
00E000
01F000
01F800
03B800
071C00
0E0E00
0E0E00
1C0700
380380
3803C0
7001E0
E000E0
000040
ENDCHAR
STARTCHAR U+0059
ENCODING 89
SWIDTH 500 0
DWIDTH 19 0
BBX 19 23 0 0
BITMAP
2000C0
F001E0
7001C0
380380
380300
1C0700
0E0E00
0E0C00
071C00
033800
03B800
01F000
01E000
00E000
00E000
00E000
00E000
00E000
00E000
00E000
00E000
00E000
00E000
ENDCHAR
STARTCHAR U+005A
ENCODING 90
SWIDTH 500 0
DWIDTH 19 0
BBX 17 23 1 0
BITMAP
000700
3FFF80
3FFF80
100700
000E00
001C00
003800
003800
007000
00E000
01C000
01C000
038000
070000
070000
0E0000
1C0000
1C0000
380000
700000
F00000
FFFF80
FFFF80
ENDCHAR
STARTCHAR U+005B
ENCODING 91
SWIDTH 500 0
DWIDTH 11 0
BBX 6 30 5 -5
BITMAP
F8
FC
E0
C0
C0
C0
C0
C0
C0
C0
C0
C0
C0
C0
C0
C0
C0
C0
C0
C0
C0
C0
C0
C0
C0
C0
C0
C0
F8
F8
ENDCHAR
STARTCHAR U+005C
ENCODING 92
SWIDTH 500 0
DWIDTH 11 0
BBX 11 25 0 -1
BITMAP
4000
E000
6000
6000
7000
3000
3000
3800
1800
1C00
0C00
0C00
0E00
0600
0600
0700
0300
0300
0380
0180
01C0
00C0
00C0
00E0
0060
ENDCHAR
STARTCHAR U+005D
ENCODING 93
SWIDTH 500 0
DWIDTH 11 0
BBX 5 30 1 -5
BITMAP
F8
F8
18
18
18
18
18
18
18
18
18
18
18
18
18
18
18
18
18
18
18
18
18
18
18
18
18
18
F8
F8
ENDCHAR
STARTCHAR U+005E
ENCODING 94
SWIDTH 500 0
DWIDTH 19 0
BBX 15 14 2 9
BITMAP
0380
0380
03C0
07C0
06E0
0E60
0C70
1C30
1838
3818
301C
700C
600E
E00E
ENDCHAR
STARTCHAR U+005F
ENCODING 95
SWIDTH 500 0
DWIDTH 16 0
BBX 18 2 -1 -5
BITMAP
7FFF80
FFFFC0
ENDCHAR
STARTCHAR U+0060
ENCODING 96
SWIDTH 500 0
DWIDTH 16 0
BBX 6 5 5 18
BITMAP
C0
F0
F8
1C
04
ENDCHAR
STARTCHAR U+0061
ENCODING 97
SWIDTH 500 0
DWIDTH 18 0
BBX 14 17 2 -1
BITMAP
0398
0FFC
1FFC
383C
701C
601C
E018
E018
C018
C038
C038
C07C
C07C
E0FC
7FDC
7F8C
1E00
ENDCHAR
STARTCHAR U+0062
ENCODING 98
SWIDTH 500 0
DWIDTH 18 0
BBX 14 24 3 -1
BITMAP
C000
C000
C000
C000
C000
C000
C000
C3C0
CFF0
DFF0
F838
F018
E01C
E01C
E01C
C01C
C018
C018
C038
C070
E0F0
FFE0
FFC0
0E00
ENDCHAR
STARTCHAR U+0063
ENCODING 99
SWIDTH 500 0
DWIDTH 17 0
BBX 14 17 2 -1
BITMAP
03C0
0FF0
1FF8
3838
7010
6000
E000
E000
C000
C000
C000
C00C
E018
F038
7FF0
3FC0
0F00
ENDCHAR
STARTCHAR U+0064
ENCODING 100
SWIDTH 500 0
DWIDTH 18 0
BBX 15 24 2 -1
BITMAP
0018
001C
001C
001C
001C
001C
001C
03DC
0FFC
1FFC
383C
701C
601C
E01C
E01C
C01C
C01C
C03C
C03C
E07C
E0FC
7FCE
3F8E
1E00
ENDCHAR
STARTCHAR U+0065
ENCODING 101
SWIDTH 500 0
DWIDTH 17 0
BBX 15 17 1 -1
BITMAP
01E0
07F8
0FFC
1C0C
380E
380E
701E
70FC
FFF8
7F80
6000
6000
7006
381C
3FF8
1FF0
0780
ENDCHAR
STARTCHAR U+0066
ENCODING 102
SWIDTH 500 0
DWIDTH 12 0
BBX 11 24 0 -1
BITMAP
03C0
07E0
0FE0
0E20
0C00
0C00
0C00
1FC0
FFE0
7FC0
0C00
0C00
0C00
0C00
0C00
0C00
0C00
0C00
0C00
0C00
0C00
0C00
0E00
0400
ENDCHAR
STARTCHAR U+0067
ENCODING 103
SWIDTH 500 0
DWIDTH 19 0
BBX 14 22 2 -6
BITMAP
0388
0FFC
1FFC
383C
701C
E01C
E01C
C01C
C01C
C01C
C01C
C03C
E07C
73FC
7FDC
1F1C
001C
C038
E078
FFF0
7FC0
1F00
ENDCHAR
STARTCHAR U+0068
ENCODING 104
SWIDTH 500 0
DWIDTH 19 0
BBX 13 24 3 -1
BITMAP
C000
C000
C000
C000
C000
C000
C000
C1C0
CFE0
DFF0
F838
F038
E038
E018
E018
C018
C018
C018
C018
C018
C018
C018
C018
4000
ENDCHAR
STARTCHAR U+0069
ENCODING 105
SWIDTH 500 0
DWIDTH 8 0
BBX 4 22 2 0
BITMAP
70
F0
70
00
00
00
60
70
70
70
70
70
70
70
70
70
70
70
70
70
70
70
ENDCHAR
STARTCHAR U+006A
ENCODING 106
SWIDTH 500 0
DWIDTH 10 0
BBX 7 27 0 -5
BITMAP
0E
0E
0E
00
00
00
0C
0E
0E
0E
0E
0E
0E
0E
0E
0E
0E
0E
0E
0E
0E
0E
0E
0E
CE
FC
FC
ENDCHAR
STARTCHAR U+006B
ENCODING 107
SWIDTH 500 0
DWIDTH 16 0
BBX 13 24 3 -1
BITMAP
C000
C000
C000
C000
C000
C000
C000
C060
C0F0
C1E0
C780
CF00
FC00
F800
FC00
DC00
CE00
C700
C380
C1C0
C0E0
C078
C038
0010
ENDCHAR
STARTCHAR U+006C
ENCODING 108
SWIDTH 500 0
DWIDTH 8 0
BBX 5 24 3 -1
BITMAP
C0
E0
E0
E0
E0
E0
E0
E0
E0
E0
E0
E0
E0
E0
E0
E0
E0
E0
E0
E0
E0
F8
F8
70
ENDCHAR
STARTCHAR U+006D
ENCODING 109
SWIDTH 500 0
DWIDTH 26 0
BBX 20 17 3 -1
BITMAP
870380
DFCFE0
FFFFE0
F0F870
F07030
E07030
E06030
C06030
C06030
C06030
C06030
C06030
C06030
C06030
C06030
C06030
402010
ENDCHAR
STARTCHAR U+006E
ENCODING 110
SWIDTH 500 0
DWIDTH 19 0
BBX 13 17 3 -1
BITMAP
81C0
CFE0
DFF0
F838
F038
E038
E018
E018
C018
C018
C018
C018
C018
C018
C018
C018
4000
ENDCHAR
STARTCHAR U+006F
ENCODING 111
SWIDTH 500 0
DWIDTH 18 0
BBX 14 17 2 -1
BITMAP
03C0
1FF0
3FF8
7838
701C
E01C
E00C
C00C
C00C
C00C
C01C
C01C
E038
7078
7FF0
3FE0
0780
ENDCHAR
STARTCHAR U+0070
ENCODING 112
SWIDTH 500 0
DWIDTH 18 0
BBX 14 22 3 -6
BITMAP
83C0
CFF0
DFF8
F838
F018
E01C
E01C
E01C
C01C
C01C
C018
C038
C070
E0F0
FFE0
FFC0
C700
C000
C000
C000
C000
4000
ENDCHAR
STARTCHAR U+0071
ENCODING 113
SWIDTH 500 0
DWIDTH 18 0
BBX 14 22 2 -6
BITMAP
0398
0FFC
1FFC
383C
701C
601C
E01C
C01C
C01C
C01C
C03C
C03C
E07C
E0FC
7FDC
3F9C
1E1C
001C
001C
001C
001C
000C
ENDCHAR
STARTCHAR U+0072
ENCODING 114
SWIDTH 500 0
DWIDTH 14 0
BBX 11 16 3 0
BITMAP
8700
DFC0
FFE0
F0C0
E000
E000
E000
C000
C000
C000
C000
C000
C000
C000
C000
C000
ENDCHAR
STARTCHAR U+0073
ENCODING 115
SWIDTH 500 0
DWIDTH 16 0
BBX 13 17 2 -1
BITMAP
0F00
3FE0
7CF0
6030
6000
6000
7C00
3F80
0FE0
00F0
0030
0038
C038
E070
FDF0
3FE0
0F00
ENDCHAR
STARTCHAR U+0074
ENCODING 116
SWIDTH 500 0
DWIDTH 12 0
BBX 11 22 0 -1
BITMAP
0800
1C00
1C00
1C00
1C00
1FC0
FFC0
7F00
1C00
1C00
1C00
1C00
1C00
1C00
1C00
1C00
1C00
1C00
1C60
0FE0
0FC0
0700
ENDCHAR
STARTCHAR U+0075
ENCODING 117
SWIDTH 500 0
DWIDTH 19 0
BBX 14 17 3 -1
BITMAP
8010
C038
C038
C038
C038
C038
C038
C038
C038
C038
C078
C078
E0F8
E1F8
7FDC
7F1C
1C08
ENDCHAR
STARTCHAR U+0076
ENCODING 118
SWIDTH 500 0
DWIDTH 16 0
BBX 14 17 1 -1
BITMAP
4008
E01C
E01C
6038
7038
7030
3070
3860
18E0
1CE0
1DC0
0DC0
0F80
0F80
0700
0700
0200
ENDCHAR
STARTCHAR U+0077
ENCODING 119
SWIDTH 500 0
DWIDTH 23 0
BBX 22 17 1 -1
BITMAP
000018
E0701C
E07018
E07838
60F838
70F830
70D870
31DC70
318C60
398CE0
3B8EC0
1B0EC0
1F07C0
1F0780
0E0780
0E0380
040100
ENDCHAR
STARTCHAR U+0078
ENCODING 120
SWIDTH 500 0
DWIDTH 16 0
BBX 14 17 1 -1
BITMAP
2018
7038
7038
3870
1CE0
0EC0
0FC0
0780
0780
0780
0FC0
1CE0
3870
3870
7038
E01C
4000
ENDCHAR
STARTCHAR U+0079
ENCODING 121
SWIDTH 500 0
DWIDTH 16 0
BBX 15 21 0 -5
BITMAP
2006
7006
700E
380E
381C
1C1C
1C18
0C38
0E30
0670
0760
07E0
03C0
03C0
0180
0380
0300
0700
4600
FE00
7C00
ENDCHAR
STARTCHAR U+007A
ENCODING 122
SWIDTH 500 0
DWIDTH 16 0
BBX 14 16 1 0
BITMAP
0010
7FF8
3FF8
0070
00E0
01C0
0380
0780
0700
0E00
1C00
3800
3800
7000
FFF8
FFFC
ENDCHAR
STARTCHAR U+007B
ENCODING 123
SWIDTH 500 0
DWIDTH 11 0
BBX 9 30 2 -5
BITMAP
0180
0700
0E00
0C00
0C00
0C00
0C00
0C00
0C00
0C00
0C00
0C00
1C00
3C00
F800
7800
1C00
0C00
0C00
0C00
0C00
0C00
0C00
0C00
1C00
1C00
0C00
0E00
0700
0380
ENDCHAR
STARTCHAR U+007C
ENCODING 124
SWIDTH 500 0
DWIDTH 11 0
BBX 3 24 4 -1
BITMAP
E0
E0
E0
E0
E0
E0
E0
E0
E0
E0
E0
E0
E0
E0
E0
E0
E0
E0
E0
E0
E0
E0
E0
E0
ENDCHAR
STARTCHAR U+007D
ENCODING 125
SWIDTH 500 0
DWIDTH 11 0
BBX 9 30 0 -5
BITMAP
6000
3000
1800
1C00
1C00
1C00
1C00
1C00
1800
1800
1800
1800
1C00
1C00
0F00
0F80
0E00
1C00
1C00
1800
1800
1800
1800
1800
1800
1800
1800
3800
7000
E000
ENDCHAR
STARTCHAR U+007E
ENCODING 126
SWIDTH 500 0
DWIDTH 19 0
BBX 16 4 2 6
BITMAP
3F03
7F86
E3FE
80FC
ENDCHAR
STARTCHAR U+3002
ENCODING 12290
SWIDTH 500 0
DWIDTH 32 0
BBX 9 9 2 -3
BITMAP
1E00
7F00
6380
E180
C180
E180
7380
3F00
1E00
ENDCHAR
STARTCHAR U+4E1A
ENCODING 19994
SWIDTH 500 0
DWIDTH 32 0
BBX 28 26 2 -1
BITMAP
00408000
0070C000
0070C000
0070C000
0070C000
0070C000
0070C000
0070C180
3070C1C0
3870C1C0
1C70C380
1C70C380
0E70C300
0E70C600
0670C600
0770CC00
0770C800
0270C000
0070C000
0070C000
0070C000
0070C000
0070C000
80FFFFF0
FFFFFFF0
FFFFFF00
ENDCHAR
STARTCHAR U+4F5C
ENCODING 20316
SWIDTH 500 0
DWIDTH 32 0
BBX 30 29 1 -3
BITMAP
0040E000
00E0E000
00E0E000
00E1C000
00C1C000
01C18000
0183FFFC
0383FFFC
0707F000
07067000
0F0E7000
0F1C7000
1F187FE0
3B307FF0
73207000
63407000
C3007000
03007000
03007FF0
07007FF0
07007800
07007000
07007000
07007000
07007000
07007000
07007000
07007000
02006000
ENDCHAR
STARTCHAR U+4F9D
ENCODING 20381
SWIDTH 500 0
DWIDTH 32 0
BBX 31 28 1 -3
BITMAP
01C06000
01C07000
01807000
03807000
03007000
07007FF0
067FFFF8
0E3FFE00
0E00C000
1E01E000
1E01E040
3E03F0E0
6E0731C0
6E073380
CE0F3F00
8E1F1E00
0E3B0C00
0E730E00
0EE30700
0E830700
0E030380
0E0305C0
0E0338E0
0E03F070
0E07C03C
0E3F801E
0E1E000C
06000000
ENDCHAR
STARTCHAR U+5143
ENCODING 20803
SWIDTH 500 0
DWIDTH 32 0
BBX 29 26 1 -3
BITMAP
0003FE00
03FFFF00
03FFC000
00000000
00000000
00000000
00000000
000007E0
3FFFFFF0
3FFFFFC0
1C38C000
0038C000
0030C000
0070C000
0070C000
0060C018
00E0C018
00E0C018
01C0C018
0380C018
0380C038
0700E030
1E00FFF0
38007FF0
70003FC0
80000000
ENDCHAR
STARTCHAR U+5148
ENCODING 20808
SWIDTH 500 0
DWIDTH 32 0
BBX 29 29 1 -3
BITMAP
00030000
00030000
00C30000
00E30000
00E30000
00E30000
00C7FF00
01FFFF00
01FFC000
03830000
03030000
06030000
04030000
080FFFF0
3FFFFFF0
3FFFE000
0038E000
0038E000
0030E008
0070E018
0060E018
00E0C018
01C0C018
0380C018
0700E038
0E00F0F8
3C007FF0
70003FE0
C0000000
ENDCHAR
STARTCHAR U+5165
ENCODING 20837
SWIDTH 500 0
DWIDTH 32 0
BBX 30 27 2 -2
BITMAP
00780000
00380000
001C0000
001C0000
000C0000
000E0000
000E0000
00060000
000F0000
000F0000
000F8000
001F8000
001DC000
0039C000
0070E000
00707000
00E07800
01E03800
01C01C00
03800E00
07000F00
0E000780
1C0003C0
380001E0
700000F8
E000007C
8000003C
ENDCHAR
STARTCHAR U+516D
ENCODING 20845
SWIDTH 500 0
DWIDTH 32 0
BBX 28 26 2 -1
BITMAP
000E0000
000E0000
000E0000
000E0000
000E0000
000E0000
000E0000
000E0040
01FFFFF0
FFFFFFF0
7FFF8000
00000000
00000000
00000000
00C06000
00E07000
01E07800
01C03C00
03801E00
07800F00
07000700
0E000780
1C0003C0
380001E0
700000E0
60000040
ENDCHAR
STARTCHAR U+5199
ENCODING 20889
SWIDTH 500 0
DWIDTH 32 0
BBX 27 28 2 -3
BITMAP
04000000
0E0003C0
0FFFFFE0
0FFFFFC0
1F8001C0
18C00380
38C00300
38C00600
71FFFC00
31FFFC00
01F00000
01800000
03800000
03FFFF00
03FFFF00
01800300
00000700
00000700
01FFE700
FFFFE600
7FE00600
00000E00
00000E00
000C0E00
00071C00
0003FC00
0001F800
00007800
ENDCHAR
STARTCHAR U+5230
ENCODING 21040
SWIDTH 500 0
DWIDTH 32 0
BBX 27 29 2 -3
BITMAP
000000C0
000000E0
000000E0
7FFF00E0
7FFF00E0
038000E0
070070E0
073030E0
0E3830E0
0C3830E0
1C7C30E0
7FFE30E0
7FC730E0
218730E0
018030E0
018030E0
018030E0
7FFE30E0
3FFE30E0
018030E0
018030E0
018130E0
018F00E0
01FC00E0
0FE000E0
FF001CE0
F8000FE0
400007E0
000001C0
ENDCHAR
STARTCHAR U+5468
ENCODING 21608
SWIDTH 500 0
DWIDTH 32 0
BBX 25 28 2 -3
BITMAP
00000300
0FFFFF80
0FFFFF80
0FCC0180
0E060180
0E060180
0E060180
0EFFF180
0E7FF180
0E060180
0E060180
0F7FFD80
0FFFFD80
0C400180
0C000180
0C7FE180
0C7FE180
0C706180
1C706180
18306180
183FE180
383FE180
303C0180
30004180
60007180
60003F80
C0000F80
80000780
ENDCHAR
STARTCHAR U+5929
ENCODING 22825
SWIDTH 500 0
DWIDTH 32 0
BBX 29 26 2 -2
BITMAP
00000600
09FFFF00
0FFFFF00
0FEE0000
00060000
00060000
000E0000
000E0000
000E0000
000E07C0
3FFFFFE0
3FFFFF00
1C1F0000
001F8000
00198000
0039C000
0038E000
00707000
00E03800
01C03C00
03801E00
07000700
0E0003C0
3C0001F0
700000F8
C0000038
ENDCHAR
STARTCHAR U+5B66
ENCODING 23398
SWIDTH 500 0
DWIDTH 32 0
BBX 28 29 2 -3
BITMAP
00080400
021C0E00
070E0E00
03860C00
01871C00
01C73800
18C07BE0
1FFFFFF0
3FFFFFE0
3E0000E0
300000C0
73FFF980
63FFF900
E1C07000
4000E000
000FC000
000F8000
000E0000
003FFFF0
FFFFFFF0
7FFF0000
00070000
00030000
00030000
01030000
00E30000
007F0000
003F0000
000E0000
ENDCHAR
STARTCHAR U+5B9D
ENCODING 23453
SWIDTH 500 0
DWIDTH 32 0
BBX 27 28 3 -2
BITMAP
00180000
001C0000
000C0000
000C0000
180C07C0
3FFFFFE0
3FFFFFC0
3F0001C0
70000180
60000300
E0003E00
FFFFFC00
4FFFFC00
001C0000
001C0000
001C0000
001C0000
05FFF800
07FFF800
03FC8000
001DC000
001DE000
001C7000
001C3800
001C1000
87FFFFC0
FFFFFFC0
7FFC0000
ENDCHAR
STARTCHAR U+5C3D
ENCODING 23613
SWIDTH 500 0
DWIDTH 32 0
BBX 30 28 1 -3
BITMAP
00001F00
03FFFF80
01FFFF80
01C00300
01800300
01800300
01800300
01807F00
01FFFF80
03FFFC00
0381C000
0300E000
03007000
07003800
06101E00
0E1C0F00
0C1F0780
1C07C3E0
3801E0F8
3000607C
6000001C
C0700000
007C0000
001F0000
0007C000
0001F000
0000F800
00003800
ENDCHAR
STARTCHAR U+5C71
ENCODING 23665
SWIDTH 500 0
DWIDTH 32 0
BBX 23 27 4 -2
BITMAP
003000
003800
003800
001800
001800
001800
001800
001800
001806
E01806
601806
601806
601806
601806
601806
601806
601806
601806
601806
601806
601806
601806
603FFE
7FFFFE
7FFFC6
7C0006
000006
ENDCHAR
STARTCHAR U+6539
ENCODING 25913
SWIDTH 500 0
DWIDTH 32 0
BBX 29 29 2 -3
BITMAP
00006000
00006000
00006000
0000E000
7FE0E000
7FF0C000
0071C000
006180E0
0063FFF0
0063FFC0
00638300
7FE78300
3FF78700
3C0DC600
3018CE00
3018EC00
30307C00
30003800
30003800
30187C00
30707C00
33C0EE00
3F81C700
7E038380
F80701C0
600E00F0
00380078
00600038
00000010
ENDCHAR
STARTCHAR U+653E
ENCODING 25918
SWIDTH 500 0
DWIDTH 32 0
BBX 31 28 1 -2
BITMAP
00001000
03003800
03803800
01803800
01803000
01807000
01847000
FFFE6018
7FFEFFFC
0700FFF8
0601C1C0
0601E1C0
07F3E180
07FB7380
0E363380
0C3C3F00
0C301F00
0C301E00
18300E00
18701E00
38701F00
30703B80
306071C0
6C60E0E0
46E1C0F0
C7E38078
83C7003C
008C001E
ENDCHAR
STARTCHAR U+65E5
ENCODING 26085
SWIDTH 500 0
DWIDTH 32 0
BBX 19 26 6 -3
BITMAP
EFFFE0
7FFFE0
7FE0E0
6000E0
7000E0
7000E0
7000E0
7000E0
7000E0
7000E0
73FFE0
7FFFE0
7FF0E0
7000E0
7000E0
7000C0
7000C0
7000C0
7000C0
7000C0
7000C0
7FFFE0
3FFFE0
7C0000
300000
300000
ENDCHAR
STARTCHAR U+65E6
ENCODING 26086
SWIDTH 500 0
DWIDTH 32 0
BBX 29 24 2 -1
BITMAP
067FFE00
07FFFE00
07FE0E00
07000E00
07000E00
07000C00
07001C00
07FFFC00
03FFFC00
03800C00
03000C00
03000C00
03001C00
03001C00
03FFFC00
03FFFE00
03FE0000
03000000
00000000
00000000
00000020
8FFFFFF0
FFFFFFF8
FFFE0000
ENDCHAR
STARTCHAR U+6709
ENCODING 26377
SWIDTH 500 0
DWIDTH 32 0
BBX 29 29 1 -3
BITMAP
00070000
00070000
00070000
000E0000
000E0020
003FFFF8
3FFFFFF0
3FFC0000
00380000
00700000
0073FE00
00FFFE00
01FF0600
01F00600
03600600
077FFE00
0E7FFE00
1C700600
30600600
60600600
C07FFE00
007FFE00
00600600
00600600
00600600
0060E600
00607E00
00601E00
00600E00
ENDCHAR
STARTCHAR U+6CB3
ENCODING 27827
SWIDTH 500 0
DWIDTH 32 0
BBX 29 27 2 -3
BITMAP
30000000
3C000000
1E4FFFF8
0F7FFFF8
073FC380
01000380
00000380
E0000380
F0300380
781FF380
1C1FF380
0C186380
00186380
01986380
011CE380
031FF380
061FC380
06080380
0E000380
1C000380
1C000380
38000380
70004380
F0007380
E0003F80
00000F80
00000700
ENDCHAR
STARTCHAR U+6D41
ENCODING 27969
SWIDTH 500 0
DWIDTH 32 0
BBX 29 28 2 -2
BITMAP
00018000
0000C000
3000C000
3800C000
1C00C080
0E9FFFC0
07FFFFC0
027B8000
00031800
C0071C00
F0060E00
780C3F00
3C7FFF80
0C7FC1C0
00380980
01198E00
0319CE00
0218CE00
0618CE00
0618CE00
0C19CE08
1C39CE18
1831CE18
3871CE18
7061CE18
F0E1CE38
E1C1C7F0
030087F0
ENDCHAR
STARTCHAR U+6D77
ENCODING 28023
SWIDTH 500 0
DWIDTH 32 0
BBX 30 29 2 -3
BITMAP
000C0000
000E0000
300E0000
381C00C0
1C1FFFE0
0E1FFFC0
06380000
00700000
00783F80
C0DFFF80
E09F8180
7819C180
3C19F180
0C187980
003813B8
01FFFFFC
07FFFFC0
04310380
0C33C380
0C30F300
18707300
18703FF0
387FFFF0
707FE700
70000700
E0018700
E000FE00
00007E00
00001C00
ENDCHAR
STARTCHAR U+7434
ENCODING 29748
SWIDTH 500 0
DWIDTH 32 0
BBX 31 29 1 -4
BITMAP
000003C0
13FEFFE0
1FFEFE00
06C00C00
00C00C00
00FCFFC0
0FFC7FC0
07E00C00
00C00C00
00FC0E60
01F3FFF0
3FC77F80
3F0F8000
081FE000
0038F000
00F03C00
01FF9F00
078FE7C0
0E00C1F8
3C007C7E
F1FFFE1C
80FFFC00
00001800
00003800
00007000
0000E000
0003C000
00038000
00020000
ENDCHAR
STARTCHAR U+767D
ENCODING 30333
SWIDTH 500 0
DWIDTH 32 0
BBX 21 29 5 -3
BITMAP
006000
007000
00F000
00E000
01C000
038000
038000
FFFFF8
7FFFF8
7F0018
600018
700038
700038
700038
700038
7FFFF8
7FFFF8
7FC038
700038
700030
700030
300030
300030
300070
3FFFF8
3FFFF8
380000
300000
300000
ENDCHAR
STARTCHAR U+8BFE
ENCODING 35838
SWIDTH 500 0
DWIDTH 32 0
BBX 30 27 1 -3
BITMAP
0C0FFFE0
0E0FFFE0
070E38E0
038C38E0
01CE7FE0
00CFFFE0
000FF8C0
000E38C0
000638C0
FF87FFE0
7F07FFE0
03063800
03003800
033FFFF8
031FFFF8
0300FC00
0300FE00
0300FF00
0311BB80
0363B9C0
03E738E0
03CE3878
0F9C383C
0F30381C
00603800
00003800
00003800
ENDCHAR
STARTCHAR U+8D1D
ENCODING 36125
SWIDTH 500 0
DWIDTH 32 0
BBX 23 28 5 -3
BITMAP
0001E0
3FFFF0
1FFFF0
180070
180070
180070
183070
183070
183060
183060
183060
183060
183060
183060
183060
183060
187060
187060
1860E0
1C6060
18E700
01C780
0183E0
0380F0
0F0078
1C003C
70000E
C00004
ENDCHAR
STARTCHAR U+8FD8
ENCODING 36824
SWIDTH 500 0
DWIDTH 32 0
BBX 30 27 1 -3
BITMAP
180001E0
1C3FFFF0
0E3FFFE0
07001C00
03803800
01807800
00007000
00007000
0F80F000
7F81F600
3F83F700
07033780
0E0631C0
0C0C30E0
1C183070
0E303038
07E03038
03803000
03803000
07007000
0E007000
7F803000
FFFC0000
E1FFF000
000FFFFC
00003FF8
00000030
ENDCHAR
STARTCHAR U+94A2
ENCODING 38050
SWIDTH 500 0
DWIDTH 32 0
BBX 29 28 1 -3
BITMAP
06000000
06040FF0
0E07FFF8
0C07F830
0FF60030
1FF60330
18060330
3006C330
2006E330
60E67730
FFF63630
9FC63E30
07061E30
07060C30
07061E30
0FF61E30
7FF61F30
3F063330
070663B0
070661B0
0706C1B0
07368030
07660030
07C60430
078603B0
0F0601F0
060600F0
00060030
ENDCHAR
STARTCHAR U+9EC4
ENCODING 40644
SWIDTH 500 0
DWIDTH 32 0
BBX 29 29 2 -3
BITMAP
0000C000
00E06000
00606000
00606200
00FFFF00
1FFFFF00
0FE0E000
0060E000
0060E0F0
1FFFFFF8
FFFFFFE0
7C0E0000
000E0800
0FFFFE00
07FFFE00
060E0E00
060E0E00
07FFFC00
07FFFC00
070E0C00
060E0C00
07FFFC00
07FFFC00
03200000
0071F000
00F0FC00
07E03F00
1F800780
78000180
ENDCHAR
STARTCHAR U+FF0C
ENCODING 65292
SWIDTH 500 0
DWIDTH 32 0
BBX 4 6 3 -3
BITMAP
70
70
70
30
70
E0
ENDCHAR
ENDFONT
